<svg version="1.1" id="Layer_1" xmlns="http://www.w3.org/2000/svg" x="0" y="0" viewBox="0 0 780.5 258.8" xml:space="preserve"><style>.st1{fill:#fff}</style><path d="M780.5 234.8c0 13.2-10.8 24-24 24H24c-13.2 0-24-10.8-24-24V24C0 10.8 10.8 0 24 0h732.5c13.2 0 24 10.8 24 24v210.8z" fill="#7289da"/><path class="st1" d="M132.9 123.7c-5.7 0-10.2 4.9-10.2 11s4.6 11 10.2 11c5.7 0 10.2-4.9 10.2-11s-4.6-11-10.2-11zm-36.5 0c-5.7 0-10.2 4.9-10.2 11s4.6 11 10.2 11c5.7 0 10.2-4.9 10.2-11 .1-6.1-4.5-11-10.2-11z"/><path class="st1" d="M181.5 37.5h-134C36.2 37.5 27 46.7 27 58v134c0 11.3 9.2 20.5 20.5 20.5h113.4l-5.3-18.3 12.8 11.8 12.1 11.1 21.6 18.7V58c-.1-11.3-9.3-20.5-20.6-20.5zM142.9 167s-3.6-4.3-6.6-8c13.1-3.7 18.1-11.8 18.1-11.8-4.1 2.7-8 4.6-11.5 5.9-5 2.1-9.8 3.4-14.5 4.3-9.6 1.8-18.4 1.3-25.9-.1-5.7-1.1-10.6-2.6-14.7-4.3-2.3-.9-4.8-2-7.3-3.4-.3-.2-.6-.3-.9-.5-.2-.1-.3-.2-.4-.2-1.8-1-2.8-1.7-2.8-1.7s4.8 7.9 17.5 11.7c-3 3.8-6.7 8.2-6.7 8.2-22.1-.7-30.5-15.1-30.5-15.1 0-31.9 14.4-57.8 14.4-57.8 14.4-10.7 28-10.4 28-10.4l1 1.2c-18 5.1-26.2 13-26.2 13s2.2-1.2 5.9-2.8c10.7-4.7 19.2-5.9 22.7-6.3.6-.1 1.1-.2 1.7-.2 6.1-.8 13-1 20.2-.2 9.5 1.1 19.7 3.9 30.1 9.5 0 0-7.9-7.5-24.9-12.6l1.4-1.6s13.7-.3 28 10.4c0 0 14.4 25.9 14.4 57.8 0-.1-8.4 14.3-30.5 15zM264.6 87.6h-35.2v39.6l23.4 21.1v-38.4h12.5c8 0 11.9 3.8 11.9 10v29.4c0 6.2-3.7 10.3-11.9 10.3h-36.1V182h35.2c18.9.1 36.6-9.3 36.6-31v-31.6c.2-22.1-17.5-31.8-36.4-31.8zm184.5 63.3v-32.5c0-11.7 21-14.3 27.4-2.7l19.4-7.8c-7.6-16.8-21.5-21.6-33.1-21.6-18.9 0-37.5 10.9-37.5 32.1v32.5c0 21.4 18.7 32.1 37.1 32.1 11.9 0 26.1-5.8 33.9-21.1l-20.8-9.5c-5 13.1-26.4 9.9-26.4-1.5zm-64.1-28c-7.3-1.6-12.2-4.2-12.5-8.8.4-10.9 17.3-11.3 27.2-.8l15.6-12c-9.8-11.9-20.8-15.1-32.1-15.1-17.3 0-34 9.8-34 28.2 0 17.9 13.8 27.6 29 29.9 7.7 1.1 16.3 4.1 16.1 9.4-.6 10.1-21.4 9.5-30.9-1.9L348.2 166c8.8 11.3 20.8 17.1 32 17.1 17.3 0 36.5-10 37.2-28.2 1.1-23.1-15.7-28.9-32.4-32zm-71.1 58.9h23.8V87.6h-23.8v94.2zm400.6-94.2h-35.2v39.6l23.4 21.1v-38.4h12.5c8 0 11.9 3.8 11.9 10v29.4c0 6.2-3.7 10.3-11.9 10.3h-36.1V182h35.3c18.9.1 36.6-9.3 36.6-31v-31.6c.1-22.1-17.6-31.8-36.5-31.8zm-172.8-1.3c-19.5 0-38.9 10.6-38.9 32.3v32.1c0 21.5 19.5 32.3 39.1 32.3 19.5 0 38.9-10.8 38.9-32.3v-32.1c.1-21.6-19.6-32.3-39.1-32.3zm15.3 64.5c0 6.8-7.6 10.3-15.2 10.3s-15.3-3.3-15.3-10.3v-32.1c0-6.9 7.4-10.6 14.8-10.6 7.7 0 15.6 3.3 15.6 10.6v32.1zm109.1-32.1c-.5-22.1-15.6-31-35-31h-37.7v94.2h24.1V152h4.2l21.8 29.9h29.7l-25.7-32.3c11.5-3.7 18.6-13.5 18.6-30.9zm-34.5 12.7h-14v-21.5h14c14.9 0 14.9 21.5 0 21.5z"/></svg>