<svg version="1.1" id="l" xmlns="http://www.w3.org/2000/svg" x="0" y="0" viewBox="0 0 100 100" xml:space="preserve"><style>.st2{display:none}.st5{display:inline;fill-rule:evenodd;clip-rule:evenodd;fill:#fff}</style><linearGradient id="edge_1_" gradientUnits="userSpaceOnUse" x1="7599.08" y1="7903.88" x2="9647.08" y2="7903.88" gradientTransform="matrix(0 -.04883 -.04883 0 435.932 471.049)"><stop offset="0" stop-color="#383838"/><stop offset="1" stop-color="#585858"/></linearGradient><path id="edge" d="M80.3 80.3C88.7 72 92.9 61.9 92.9 50c0-11.8-4.2-21.9-12.6-30.3C72 11.3 61.9 7.1 50 7.1c-11.9 0-22 4.2-30.3 12.6C11.3 28.1 7.1 38.2 7.1 50c0 11.9 4.2 22 12.6 30.3C28 88.7 38.1 92.9 50 92.9c11.9 0 22-4.2 30.3-12.6m5-65.7C95.1 24.4 100 36.2 100 50s-4.9 25.6-14.7 35.3C75.6 95.1 63.8 100 50 100c-13.9 0-25.7-4.9-35.4-14.7C4.9 75.6 0 63.8 0 50s4.9-25.6 14.6-35.4C24.3 4.9 36.1 0 50 0c13.8 0 25.6 4.9 35.3 14.6" fill="url(#edge_1_)"/><path id="bg" d="M80.3 80.3C72 88.7 61.9 92.9 50 92.9c-11.9 0-22-4.2-30.3-12.6C11.3 72 7.1 61.9 7.1 50c0-11.8 4.2-21.9 12.6-30.3C28 11.3 38.1 7.1 50 7.1c11.9 0 22 4.2 30.3 12.6 8.4 8.4 12.6 18.5 12.6 30.3 0 11.9-4.2 22-12.6 30.3" fill="#383838"/><path d="M545.7 4335.9c103.3 6.8 195.9 73.7 235.2 170.1 29.2 71.5 26.7 153-6.8 222.6-23.1 48.4-61.3 89.8-107.8 117.5-33.1 19.8-73.2 33-112.2 36.9-11.8 1.1-39.7 1.4-51.2.4-115.9-10.1-214-93.7-242.4-206.5-2.2-8.7-4.7-21.3-5.5-27.7-.7-6.4-1.6-12.9-2-14.4l-.5-2.8-81.2-.2L314.1 4496s22.3 19.3 70 66.7c36.6 36.2 66.3 69.5 66.3 69.5s-79.9.2-80.2.8c-.9 1.4 2.5 15.8 6 26.7 7.4 22.4 20.5 43.8 37.4 60.9 30.8 31.1 68.3 47 112 47.3 20.4 0 31-1.5 49.2-7.4 25.8-8.2 46.6-21.3 65.7-41.2 29.3-30.5 44.2-67.3 44.2-109.4-.1-44.5-16.4-82.6-48.5-113.8-25.5-24.7-56.7-39.5-91.9-43.7" fill="#fff" transform="matrix(.1 0 0 -.1 0 511)" id="arrow"/><g id="accel" class="st2"><path class="st5" d="M58.7 28.4v13.9H40.9v15.4h17.8v13.9L81.1 50 58.7 28.4M24.9 42.3h-6v15.4h6V42.3zM38.1 42.3H27.5v15.4h10.6V42.3z"/></g><path d="M48.8 60.9c-3.1-.1-6.7-.6-10.6-1.4-5.3-1.1-9.7-2.5-13.1-4.1-6.3-3.2-6.5-6.5-5.5-8.7 1.3-3 5.4-5.1 13.5-7 5.7-1.1 11.4-1.7 17-1.7 6.2 0 12.4.7 18.6 2.1 3.3.7 5.9 1.7 8 3 2.5 1.5 3.9 3.3 4.2 5.4 1 6.7-8.8 9.1-12.1 9.9-.8.2-1.5.4-2.1.5l-3.2.7v-8.1l2-.5c.4-.1.7-.2 1-.2 4.3-1 5.4-2.1 5.7-2.4-.3-.3-1.3-1.2-4.7-2.1-5.7-1.2-11.6-1.8-17.3-1.8-5.3 0-10.6.5-15.9 1.5-2.9.9-4.5 1.6-5.3 2.1.6.3 1.5.7 3 1.1 2.8.8 6.4 1.6 10.8 2.1 2.4.3 4.4.5 6 .6v-7l11.4 11.4-11.4 11.4v-6.8z" fill="#fff" id="flip"/></svg>