<svg xmlns="http://www.w3.org/2000/svg" viewBox="0 0 58.7 50.4"><path d="M5.2 16.5c-2.8 0-4.2 1.4-4.2 4.2v24.5c0 2.8 1.4 4.2 4.2 4.2h24.4c2.8 0 4.2-1.4 4.2-4.2V20.7c0-2.8-1.4-4.3-4.2-4.2H5.2z" fill="#333"/><path d="M1 20.7v24.5c0 2.8 1.4 4.2 4.2 4.2h24.4c2.8 0 4.2-1.4 4.2-4.2V20.7c0-2.8-1.4-4.3-4.2-4.2H5.2c-2.8 0-4.2 1.4-4.2 4.2z" fill="none" stroke="#66cd32" stroke-width="2" stroke-linecap="round" stroke-linejoin="round"/><path d="M58.1 1.6c-.2-.1-.5-.1-.7-.1C41.7 6.9 29 16.2 19.5 29.4l-4.6-6.8-.3-.3c-.2-.1-.3-.1-.5-.1H2.2c-.2 0-.5.1-.7.2-.2.2-.3.4-.3.6s0 .4.2.6l15 22.5c.1.2.3.3.5.4.2.1.4.1.6 0s.4-.2.5-.4C29 29.3 42.5 15 58.2 3.2c.2-.1.3-.3.4-.5 0-.3 0-.5-.1-.7 0-.2-.2-.3-.4-.4z"/><path d="m18.2 29.6-5.4-8H1l15 22.5C27.1 27.2 40.6 12.8 56.5 1c-16 5.5-28.7 15-38.3 28.6z" fill="red"/><path d="M18.2 29.6C27.8 16 40.5 6.5 56.5 1 40.6 12.8 27.1 27.2 16 44.1L1 21.6h11.9l5.3 8z" fill="none" stroke="#000" stroke-width="2" stroke-linecap="round" stroke-linejoin="round"/></svg>