<?xml version="1.0" encoding="utf-8"?>
<!-- Generator: Adobe Illustrator 25.2.1, SVG Export Plug-In . SVG Version: 6.00 Build 0)  -->
<svg version="1.1" id="Layer_1" xmlns="http://www.w3.org/2000/svg" preserveAspectRatio="none" xmlns:xlink="http://www.w3.org/1999/xlink" x="0px" y="0px"
	 viewBox="0 0 219.6 54.5" style="enable-background:new 0 0 219.6 54.5;" xml:space="preserve">
<style type="text/css">
	.st0{fill:#FFFFFF;}
	.st1{fill:#51A328;}
	.st2{fill:#66CD32;}
</style>
<path class="st0" d="M219.6,8.4c0-5.6-2.7-8.4-8.1-8.4H8.2C2.7,0,0,2.8,0,8.4v37.9c0,5.5,2.7,8.2,8.2,8.2h203.4
	c5.4,0,8.1-2.7,8.1-8.2V8.4z"/>
<path d="M218.3,9.1c0-5.4-2.6-8.1-7.9-8.1H9.2C4,1,1.3,3.7,1.3,9.1v36.5c0,5.3,2.6,8,7.8,8h201.2c5.2,0,7.9-2.7,7.9-8V9.1z"/>
<path class="st1" d="M216.3,13.2c-0.1-4.8-2.6-7.2-7.4-7.2H10.8c-4.9,0-7.4,2.4-7.5,7.2v31.1c0.1,4.7,2.6,7.1,7.5,7.1h198.1
	c4.8,0,7.3-2.4,7.4-7.1V13.2z"/>
<path class="st2" d="M208.9,6c4.8,0,7.3,2.4,7.4,7.2v-2.6c0-5-2.5-7.5-7.4-7.5H10.8c-5,0-7.5,2.5-7.5,7.5v2.6C3.3,8.4,5.8,6,10.8,6
	H208.9z"/>
</svg>
