<svg version="1.1" id="base" xmlns="http://www.w3.org/2000/svg" x="0" y="0" viewBox="0 0 44.2 53.6" style="enable-background:new 0 0 44.2 53.6" xml:space="preserve"><style>.st0{fill:#fff}.st1{fill:none;stroke:#333;stroke-width:2;stroke-linecap:round;stroke-linejoin:round}.st2{fill:#333}</style><path id="bg_00000090998445960320427810000013716775679766893440_" class="st0" d="M34.9 41.8V14.1c0-2.7-1.3-4-4-4H5c-2.7 0-4 1.3-4 4v28.4c0 2.7 1.3 4 4 4h9.8l-3.4 6.2 10-6.2h9.4c2.7 0 4-1.3 4-4v-.7z"/><path id="Chat" class="st1" d="M34.9 41.2V14.1c0-2.7-1.3-4-4-4H5c-2.7 0-4 1.3-4 4v28.4c0 2.7 1.3 4 4 4h9.8l-3.4 6.2 10-6.2h9.4c2.7 0 4-1.3 4-4v-.7"/><path class="st2" d="M31.6 19.3c0-.5-.2-.9-.5-1.3-.3-.3-.8-.5-1.3-.5h-24c-.5 0-.9.2-1.3.5-.3.4-.5.8-.5 1.3s.2.9.5 1.3c.3.3.8.5 1.3.5h24c.5 0 .9-.2 1.3-.5.4-.4.5-.8.5-1.3zM31.6 26.8c0-.5-.2-.9-.5-1.3-.3-.3-.8-.5-1.3-.5h-24c-.5 0-.9.2-1.3.5-.3.4-.5.8-.5 1.3s.2.9.5 1.3c.3.3.8.5 1.3.5h24c.5 0 .9-.2 1.3-.5.4-.4.5-.8.5-1.3zM5.8 32.5c-.5 0-.9.2-1.3.5s-.5.8-.5 1.3.2.9.5 1.3c.3.3.8.5 1.3.5h14c.5 0 .9-.2 1.3-.5.3-.3.5-.8.5-1.3s-.2-.9-.5-1.3-.8-.5-1.3-.5h-14z"/><g id="update_00000031194287750843976190000009422935560108235931_"><path d="M30.1 14.1c1.5 1.5 3.3 2.2 5.5 2.2 2.1 0 3.9-.7 5.4-2.2 1.5-1.5 2.2-3.3 2.2-5.4 0-2.1-.7-3.9-2.2-5.4C39.5 1.8 37.7 1 35.6 1c-2.1 0-4 .8-5.5 2.2-1.5 1.5-2.2 3.3-2.2 5.4 0 2.2.8 4 2.2 5.5z" style="fill:#d70000"/><path id="Unread_State_0_Layer1_0_1_STROKES" class="st1" d="M35.6 16.3c-2.1 0-4-.7-5.5-2.2-1.5-1.5-2.2-3.3-2.2-5.4 0-2.1.7-3.9 2.2-5.4C31.6 1.8 33.5 1 35.6 1s3.9.8 5.4 2.2c1.5 1.5 2.2 3.3 2.2 5.4 0 2.1-.7 3.9-2.2 5.4-1.5 1.6-3.3 2.3-5.4 2.3z"/><path class="st0" d="M35.4 11.9c-.2-.2-.4-.2-.7-.2-.3 0-.5.1-.7.2-.2.2-.2.4-.2.7 0 .3.1.5.2.6.2.2.4.2.7.2.2 0 .5-.1.7-.2s.3-.4.3-.6c0-.3-.1-.5-.3-.7M37 4.2c.1 0 .1 0 0 0 .1-.5-.3-.7-1.1-.7-.4 0-.7 0-.8.2l-.8 6.6h1.2L37 4.2z"/></g></svg>