<?xml version="1.0" encoding="utf-8"?>
<!-- Generator: Adobe Illustrator 26.0.1, SVG Export Plug-In . SVG Version: 6.00 Build 0)  -->
<svg version="1.1" id="Layer_1" xmlns="http://www.w3.org/2000/svg" xmlns:xlink="http://www.w3.org/1999/xlink" x="0px" y="0px"
	 viewBox="0 0 172.8 46.8" style="enable-background:new 0 0 172.8 46.8;" xml:space="preserve">
<style type="text/css">
	.st0{fill:#FFFFFF;}
	.st1{fill:none;stroke:#333333;stroke-width:2;stroke-linecap:round;stroke-linejoin:round;}
	.st2{fill:#1F9891;}
	.st3{fill:none;stroke:#333333;stroke-width:0.1;stroke-linecap:round;stroke-linejoin:round;}
	.st4{fill:#333333;}
	.st5{fill:none;stroke:#333333;stroke-linecap:round;stroke-linejoin:round;}
</style>
<g transform="translate(36.55 44.75)">
	<path id="EditorIcon_0_Layer2_0_MEMBER_0_FILL" class="st0" d="M128.6-24l3-3l-15.2-9l5,18.5l4-3l4.5,5.3l3.2-2.6L128.6-24z"/>
</g>
<g transform="translate(36.55 44.75)">
	<path id="EditorIcon_0_Layer2_0_MEMBER_0_1_STROKES" class="st1" d="M128.6-24l3-3l-15.2-9l5,18.5l4-3l4.5,5.3l3.2-2.6L128.6-24z"
		/>
</g>
<g transform="translate(36.55 44.75)">
	<path id="EditorIcon_0_Layer1_0_FILL" class="st2" d="M136.1-41v-3.8H-36.5v24.2l7.9,0.5l19.5,2.9l39,12.5l29,4.7l12.8-2.5
		l12.9-6.3L104-34.4l11.2-5.2C122.1-40.9,128.8-41.2,136.1-41z"/>
</g>
<g transform="translate(36.55 44.75)">
	<path id="EditorIcon_0_Layer1_0_1_STROKES" class="st3" d="M136.1-41c-7.2-0.4-14.1,0.1-20.9,1.4"/>
</g>
<g transform="translate(36.55 44.75)">
	<path id="EditorIcon_0_Layer0_0_FILL" class="st4" d="M113.1-38.7c3.7-1.2,3.5-1.5-0.7-1c-4.5,1.4-8.2,3.9-11.2,7.6
		c-4.6,5.5-9,11.1-13.3,16.7C83.5-9.6,77.6-5.9,70.4-4.3c-11.5,2.7-23,2.5-34.3-0.5C22.8-8.3,9.6-12.4-3.3-17
		c-9.3-3.2-20-4.4-33.2-3.6c8,1,13.5,2,17.7,3.1c7.6,1.9,15.1,4,22.5,6.2C10.6-9,17.5-6.9,24.5-4.8c7,2.2,14.1,3.9,21.4,5.1
		C53.5,1.6,61.2,1.6,69,0.2c7.2-1.3,13.5-4.3,19.1-8.9c4.4-3.7,7.5-8.2,9.4-13.5C100.2-29.7,105.5-35.2,113.1-38.7z"/>
</g>
<g transform="translate(36.55 44.75)">
	<path id="EditorIcon_0_Layer0_1_FILL" class="st0" d="M-9.4-20.7h-3.2v3.2h3.2V-20.7z"/>
</g>
<g transform="translate(36.55 44.75)">
	<path id="EditorIcon_0_Layer0_1_1_STROKES" class="st5" d="M-9.4-20.7v3.2h-3.2v-3.2H-9.4z"/>
</g>
<g transform="translate(36.55 44.75)">
	<path id="EditorIcon_0_Layer0_2_FILL" class="st0" d="M5.3-12.8H2.1v3.2h3.2V-12.8z"/>
</g>
<g transform="translate(36.55 44.75)">
	<path id="EditorIcon_0_Layer0_2_1_STROKES" class="st5" d="M5.3-12.8v3.2H2.1v-3.2H5.3z"/>
</g>
<g transform="translate(36.55 44.75)">
	<path id="EditorIcon_0_Layer0_3_FILL" class="st0" d="M22.2-11H19v3.2h3.2V-11z"/>
</g>
<g transform="translate(36.55 44.75)">
	<path id="EditorIcon_0_Layer0_3_1_STROKES" class="st5" d="M22.2-11v3.2H19V-11H22.2z"/>
</g>
<g transform="translate(36.55 44.75)">
	<path id="EditorIcon_0_Layer0_4_FILL" class="st0" d="M-27.4-18.6v-3.2h-3.2v3.2H-27.4z"/>
</g>
<g transform="translate(36.55 44.75)">
	<path id="EditorIcon_0_Layer0_4_1_STROKES" class="st5" d="M-27.4-18.6h-3.2v-3.2h3.2V-18.6z"/>
</g>
<g transform="translate(36.55 44.75)">
	<path id="EditorIcon_0_Layer0_5_FILL" class="st0" d="M37-2.8h-3.2v3.2H37V-2.8z"/>
</g>
<g transform="translate(36.55 44.75)">
	<path id="EditorIcon_0_Layer0_5_1_STROKES" class="st5" d="M37-2.8v3.2h-3.2v-3.2H37z"/>
</g>
<g transform="translate(36.55 44.75)">
	<path id="EditorIcon_0_Layer0_6_FILL" class="st0" d="M57.5-4.5h-3.2v3.2h3.2V-4.5z"/>
</g>
<g transform="translate(36.55 44.75)">
	<path id="EditorIcon_0_Layer0_6_1_STROKES" class="st5" d="M57.5-4.5v3.2h-3.2v-3.2H57.5z"/>
</g>
<g>
	<g transform="translate(36.55 44.75)">
		<path id="EditorIcon_0_Layer0_7_FILL" class="st0" d="M73.4-1.7h-3.2v3.2h3.2V-1.7z"/>
	</g>
	<g transform="translate(36.55 44.75)">
		<path id="EditorIcon_0_Layer0_7_1_STROKES" class="st5" d="M73.4-1.7v3.2h-3.2v-3.2H73.4z"/>
	</g>
</g>
<g>
	<g transform="translate(36.55 44.75)">
		<path id="EditorIcon_0_Layer0_8_FILL" class="st0" d="M84.5-9.5v-3.2h-3.2v3.2H84.5z"/>
	</g>
	<g transform="translate(36.55 44.75)">
		<path id="EditorIcon_0_Layer0_8_1_STROKES" class="st5" d="M84.5-9.5h-3.2v-3.2h3.2V-9.5z"/>
	</g>
</g>
<g>
	<g transform="translate(34.4 47)">
		<path id="EditorIcon_0_Layer0_9_FILL" class="st0" d="M98-19.5h-3.2v3.2H98V-19.5z"/>
	</g>
	<g transform="translate(34.4 47)">
		<path id="EditorIcon_0_Layer0_9_1_STROKES" class="st5" d="M98-19.5v3.2h-3.2v-3.2H98z"/>
	</g>
</g>
<g>
	<g transform="translate(36.55 44.75)">
		<path id="EditorIcon_0_Layer0_10_FILL" class="st0" d="M101.2-31.9H98v3.2h3.2V-31.9z"/>
	</g>
	<g transform="translate(36.55 44.75)">
		<path id="EditorIcon_0_Layer0_10_1_STROKES" class="st5" d="M101.2-31.9v3.2H98v-3.2H101.2z"/>
	</g>
</g>
<g>
	<g transform="translate(36.55 44.75)">
		<path id="EditorIcon_0_Layer0_11_FILL" class="st0" d="M113.8-40.5h-3.2v3.2h3.2V-40.5z"/>
	</g>
	<g transform="translate(36.55 44.75)">
		<path id="EditorIcon_0_Layer0_11_1_STROKES" class="st5" d="M113.8-40.5v3.2h-3.2v-3.2H113.8z"/>
	</g>
</g>
<g>
	<g transform="translate(36.55 44.75)">
		<path id="EditorIcon_0_Layer0_12_FILL" class="st4" d="M27.8-27l-0.4,0.3l0.1,0.7l1.1,0.1l-0.2,0.5l-1.5,0.9l-0.2-0.7l-0.2-0.1
			l0.2-0.2v0.1v-0.4l-1-0.4l-0.2,0.3l0.2,0.1l0.1,0.2h-0.3l-0.3,0.4h-0.5l0.2-0.1l0.1-0.3c-2.9-0.6-5.7-1.5-8.3-2.5l-2.9-1.5
			c-0.2,0-0.3,0.1-0.3,0.3c0,0.1,0,0.2,0.1,0.4L8-30.8l0.2,0.9l4.8,1.5l1.5,1.4l-0.3,0.2l-1.1-1l-1.5-0.4l2.9,4.3l1.1,0.6v0.4
			l1.1,0.6l0.2,1.8l1.2,0.2l-0.8,1.3h-2.8v-0.5h-0.3c0-0.1,0-0.2-0.1-0.2l0.2-0.1V-20h-0.1c-0.1-0.2-0.1-0.4-0.1-0.4h0.2
			c0-0.1,0-0.2-0.1-0.2H14c-0.1-0.1-0.2-0.2-0.3-0.4l0.4-0.1c-0.1-0.1-0.1-0.2-0.2-0.4l-0.2,0.2c0-0.1-0.1-0.2-0.1-0.2l-0.1-0.1
			l0.2-0.1v-0.1L13.4-22h-0.2v-0.2h0.1c-0.1-0.1-0.1-0.1,0-0.2l-0.1-0.1l-0.2,0.2c-0.1-0.1-0.1-0.2-0.2-0.2l0.2-0.4V-23
			c-0.1-0.1-0.2-0.1-0.2-0.1L12.5-23c0-0.1-0.1-0.1-0.2-0.2l0.1-0.1c0-0.1-0.1-0.2-0.2-0.2v0.2c-0.1-0.1-0.2-0.2-0.3-0.2l0.1-0.2
			l-0.2-0.1l-0.3,0.2c0-0.1-0.1-0.2-0.2-0.2l0.1-0.3c-0.1-0.1-0.3-0.1-0.4-0.1l-0.1,0.1c-0.1,0-0.2-0.1-0.3-0.1l0.1-0.2h-0.3
			l-0.2,0.2c-0.1,0-0.2,0-0.2-0.1l-0.1-0.1v-0.2c-0.1,0-0.2-0.1-0.3-0.1l-0.1,0.2l0.1-0.2l-0.5-0.1v0.3L9-24.6v-0.2H8.6v0.2
			l-0.2-0.1v-0.2H8v0.2c0,0-0.1,0.1-0.3,0.2v-0.2c-0.1-0.1-0.3-0.1-0.4,0l0.1,0.2c-0.1,0.1-0.3,0.1-0.4,0l-0.1-0.1
			c-0.1-0.1-0.2-0.1-0.2,0l0.1,0.2c-0.1,0.1-0.3,0.1-0.4,0.1l-0.1-0.3c-0.1,0.1-0.2,0.1-0.3,0.2l0.1,0.2C5.9-24,5.8-24,5.7-24
			l-0.1-0.2c-0.1,0-0.1,0.1-0.2,0.1v0.1l0.1,0.1c-0.1,0.1-0.2,0.1-0.3,0.1L5-23.9c-0.1,0.1-0.2,0.1-0.4,0.2l0.2,0.2l-0.2,0.2
			l-0.1-0.2c0,0.1-0.1,0.2-0.2,0.3v0.1c0,0.1-0.1,0.2-0.1,0.2L3.9-23c-0.1,0-0.2,0.1-0.2,0.3l0.1,0.1c-0.1,0.1-0.1,0.2-0.1,0.3
			l-0.2-0.2c-0.1,0-0.2,0.1-0.3,0.4L3.5-22c-0.1,0-0.2,0.1-0.2,0.2L3.1-22L3-21.8l0.1,0.1v0.2H3c-0.1,0.1-0.2,0.3-0.2,0.4L2.9-21
			c-0.1,0.1-0.1,0.1,0,0.1L2.6-21c-0.1,0.1-0.1,0.2-0.1,0.4l0.2,0.1c0.1,0.1,0.1,0.1,0,0.1v0.1H2.5c0,0.1-0.1,0.2-0.2,0.4h0.3v0.4
			H2.3c-0.1,0-0.2,0.1-0.1,0.4l0.2-0.1c0,0.1,0,0.2,0.1,0.3H2.2v0.4h0.2c-0.1,0.1-0.1,0.1,0,0.2H2.2c0,0.2,0.1,0.4,0.1,0.5l0.2-0.1
			v0.2l-0.2,0.2l0.2,0.2l0.1-0.1c0.1,0.2,0.1,0.3,0,0.2l-0.1,0.3c0.1,0.1,0.1,0.1,0.1,0.2h0.2c0,0.1,0.1,0.2,0.2,0.3l-0.3,0.2
			c0.1,0,0.1,0.1,0.1,0.2h0.3c0.1,0.1,0.1,0.2,0.1,0.2l0.1,0.1L3-15.5l0.2,0.2v0.1l0.3-0.1c0,0,0.1,0.1,0.2,0.1l-0.2,0.1
			c0,0.2,0.1,0.4,0.1,0.4l0.3-0.1v0.5c0.1,0.1,0.2,0.2,0.3,0.2l0.1-0.3c0,0.2,0.1,0.2,0.2,0.2v0.2c0.1,0.1,0.2,0.2,0.3,0.2L5-13.9
			c0.1,0.1,0.2,0.1,0.3,0.2l-0.2,0.2l0.2,0.1c0-0.1,0.1,0,0.2,0.1v-0.4c0.1,0.1,0.2,0.1,0.2,0.2v0.3c0.1,0,0.2,0,0.3,0.1v-0.3
			c0.1,0,0.2,0.1,0.3,0.1v0.4c0.1-0.1,0.2-0.1,0.3,0l0.1-0.3L6.8-13L7-12.7c0-0.1,0.2-0.1,0.3,0v-0.2c0.2,0,0.3,0,0.4,0.1v0.2
			c0.1,0.1,0.2,0.1,0.4,0v-0.3l0.2,0.1l0.1,0.1h0.4v-0.2c0,0.1,0.1,0.1,0.2,0.1l0.1,0.2h0.2l0.1-0.3c0.1-0.1,0.2-0.1,0.3,0v0.2
			c0.1-0.1,0.2-0.1,0.4-0.2L9.9-13c0.2-0.1,0.3-0.1,0.4-0.1l0.1,0.1h0.4l-0.1-0.2c0.1-0.1,0.2-0.1,0.3-0.2l0.2,0.1
			c0.2-0.1,0.3-0.2,0.4-0.2l-0.1-0.3c0.1,0,0.2-0.1,0.2-0.1l0.2,0.2c0.1-0.1,0.1-0.2,0.1-0.2v-0.2c0.1,0,0.2-0.1,0.4-0.2l0.1,0.2
			l0.2-0.2v-0.2c0-0.1,0-0.2,0.1-0.3l0.1,0.2c0.2-0.1,0.3-0.2,0.3-0.2L12.8-15c0.1-0.1,0.2-0.2,0.2-0.3l0.2,0.2l0.3-0.3l-0.3-0.2
			c0-0.1,0.1-0.2,0.1-0.3l0.3,0.1c0,0,0.1,0,0.1-0.1l-0.1-0.2c-0.1-0.1-0.1-0.1,0.1-0.2l0.1,0.1c0.1-0.1,0.2-0.2,0.2-0.3l-0.3-0.1
			c0,0,0.1-0.2,0.1-0.4l0.2,0.2v-0.4l-0.2-0.2c0-0.1,0.1-0.1,0.1-0.2l0.2,0.1v-0.1l2.5,0.2L16.6-17l0.3-0.1l-0.2,0.4
			c0,0.5,0.4,0.8,1.3,1l3.1,0.9c0.9,0.3,1.6-0.1,2.2-1.1c0.4-0.7,0.8-1.3,1.2-1.8c1.2-1.4,2.6-2.4,4.2-3h0.2l0.2,2.1l0.4,0.2v0.6
			h-0.2V-18c0.2,0,0.1,0.1,0.1,0.1v0.2c0,0.1-0.1,0.1-0.3,0.1l-0.2-0.2c-0.1,0-0.2,0-0.3,0.1h0.1l-0.2,0.2l-0.2-0.2h-0.2L28-17.6
			l0.1,0.3l-0.2,0.2l-0.2-0.4l-0.2,0.2l0.2,0.2l-0.2,0.2L27.1-17c0,0.1-0.1,0.1-0.2,0.2l0.2,0.2c0,0.1-0.1,0.1-0.2,0.1v-0.1
			c-0.1,0.2-0.2,0.3-0.2,0.3l0.1,0.2c-0.1,0-0.2,0.1-0.2,0.2l-0.1-0.2l-0.2,0.2l0.1,0.4c-0.1,0-0.1,0.1-0.1,0.1l-0.1-0.1v0.4
			l-0.7,0.2v0.4h0.1v0.2h-0.3c-0.1,0-0.1,0.1-0.1,0.3h0.2c0.1,0.1,0.2,0.1,0.2,0.2l-0.4,0.1c0,0.1,0,0.2-0.1,0.4h0.3
			c-0.1,0.2-0.1,0.3-0.1,0.3H25v0.5l0.2-0.2v0.5H25v0.2h0.2c0,0.1,0,0.2,0.1,0.3l-0.4,0.2c0.1,0.1,0.1,0.2,0.1,0.3l0.2-0.1
			c0.1,0.2,0.1,0.3,0.1,0.3h-0.2c0.1,0.1,0.1,0.2,0.1,0.3h0.3c0,0.1,0,0.2,0.1,0.4h-0.2c0.1,0.1,0.2,0.2,0.2,0.3l0.2-0.1v0.2
			l-0.1,0.2c0,0.1,0.1,0.2,0.2,0.4l0.1-0.2c0,0.1,0,0.2,0.1,0.3H26c0.1,0.1,0.1,0.2,0.1,0.3l0.2-0.1c0.1,0.1,0.2,0.2,0.3,0.2
			l-0.2,0.1c0,0.1,0.1,0.1,0.2,0.2h0.2c0.1,0,0.1,0.1,0.2,0.2l-0.2,0.2C27-8.1,27.1-8.1,27.1-8l0.2-0.2c0,0.1,0.1,0.2,0.2,0.2
			l-0.1,0.2h0.2V-7l0.1-0.2C27.9-7.1,28-7.1,28.1-7h-0.2v0.1c0.1,0.1,0.2,0.1,0.3,0.1l0.2-0.1c0.1,0,0.2,0,0.2,0.1l-0.2,0.2
			c0.1,0.1,0.2,0.2,0.4,0.1v-0.1h0.4L29-6.4h0.3l0.2-0.2c0.1,0,0.2,0.1,0.2,0.1l-0.1,0.2c0.1,0,0.2,0,0.3,0.1l0.2-0.2h0.2V-6h0.3
			l0.1-0.2H31V-6l0.1,0.1c0.1-0.1,0.2-0.1,0.2,0v-0.2c0.1,0,0.2,0,0.3-0.1L31.8-6h0.4l-0.1-0.2c0.1-0.1,0.2-0.1,0.2-0.2l0.1,0.2h0.4
			l-0.1-0.2c0.1,0,0.2-0.1,0.3-0.2l0.1,0.4c0.1,0,0.2-0.1,0.3-0.2v-0.3c0.1-0.1,0.3-0.1,0.4-0.1L34-6.7h0.1c0.1-0.1,0.2-0.1,0.2-0.2
			V-7l0.2-0.2L34.7-7c0.1-0.1,0.2-0.2,0.4-0.2l-0.2-0.1c0-0.1,0.1-0.2,0.2-0.3l0.2,0.2c0.1,0,0.2-0.1,0.3-0.2L35.3-8
			c0.1-0.1,0.2-0.1,0.3-0.2l0.2,0.1c0-0.1,0.1-0.2,0.1-0.2l-0.1-0.2c0-0.1,0.1-0.2,0.2-0.2l0.1,0.1c0.1-0.1,0.1-0.2,0.2-0.2
			l-0.2-0.2c0-0.1,0.1-0.2,0.2-0.2h0.2c0-0.1,0.1-0.2,0.2-0.3l-0.3-0.2c0.1-0.1,0.2-0.1,0.2-0.2h0.2C37-9.8,37-9.9,37-9.9L36.8-10
			l0.1-0.2l0.2,0.1l0.2-0.1c-0.1-0.2-0.1-0.3,0-0.3H37v-0.3l0.3,0.1c0-0.2,0-0.3,0.1-0.4l-0.2-0.2v-0.1l0.1,0.1
			c0.1-0.2,0.2-0.3,0.2-0.5h-0.3V-12l0.3-0.1c-0.1,0-0.1-0.1-0.1-0.3l-0.2-0.5H37c0-0.1-0.1-0.1-0.2-0.2h0.3L37-13.4L37-13.5
			c0-0.1-0.1-0.1-0.1-0.2l0.2-0.2c0,0-0.1-0.1-0.1-0.2l-0.2,0.2c0-0.1-0.1-0.2-0.1-0.4l0.2-0.1c-0.1-0.1-0.2-0.2-0.2-0.4l-0.3,0.2
			c0-0.1,0-0.2-0.1-0.4h0.2c0-0.1,0-0.1-0.1-0.2l-0.1-0.1l-0.1,0.2L36-15.4l0.1-0.2H36c0-0.1-0.1-0.2-0.1-0.2l-0.2,0.2l-0.1-0.1
			l-0.1-0.1l0.2-0.1c0-0.1-0.1-0.1-0.2-0.2h-0.2l-0.1,0.2c-0.1-0.1-0.3-0.2-0.4-0.2l0.2-0.2l-0.2-0.2l-0.1,0.2
			c-0.1,0-0.2-0.1-0.4-0.2l0.2-0.2L34.4-17h-0.2l-0.1,0.2c0,0-0.1-0.1-0.2-0.1l0.1-0.4c-0.1,0-0.2-0.1-0.3-0.1l-0.2,0.2
			c-0.1-0.1-0.2-0.1-0.3-0.1l0.1-0.2c-0.1,0-0.1-0.1-0.2-0.2L33-17.4c-0.1-0.1-0.3-0.1-0.4,0l-0.1-0.1l0.3-0.3c-0.2,0-0.4,0-0.5-0.1
			v0.4c0,0-0.1-0.1-0.2-0.1v-0.1l-0.3-0.1v0.2h-0.1l-0.1,0.1l-0.1-0.4h-0.4l0.2,0.2c0.1-0.3,0-0.3,0-0.3H31v-0.2h-0.4l0.1,0.2h-0.2
			l-0.1-0.5l0.2-0.2l-0.3-2.4c1.8-0.1,3.3,0.4,4.6,1.6c0.2,0.2,0.4,0.5,0.7,0.9c0.1,0.1,0.1,0.1,0,0.1l0.5-0.2
			c-0.6-1.3-1.7-2.3-3.1-3c-1-0.6-1.9-1-2.9-1.1L30-23.6l0.8,0.4h0.8c0.3-1,0.2-1.8-0.2-2.4l-0.8,0.1L29.8-25l-0.1-0.6L29.5-26
			l0.2-0.5l0.1-1.8l-0.4-0.6l-1-0.2l-0.2,0.4l-0.6-0.1c-0.3-0.1-0.4-0.1-0.5,0s-0.2,0.2-0.2,0.4c0,0,0,0.1,0.1,0.2
			c0,0.1,0.1,0.3,0.3,0.4c0.1,0,0.2,0,0.3-0.1L28-28L27.8-27 M24.5-20.1L24-21l-0.8-0.3L23-21.5c0.7,0.4,1.5,0.6,2.2,0.5l0.1,0.1
			l-0.4,1L24.5-20.1 M22-22.5l0.4,0.3l-0.7,0.5l0.5,0.9l-0.3,0.6l-1.4-0.4l-0.2,0.1l-0.1-0.3L22-22.5 M5.7-22.1
			c0.1-0.1,0.3-0.2,0.5-0.2c0.2-0.1,0.4-0.2,0.5-0.3c0.1-0.1,0.2-0.1,0.2,0c0.2-0.1,0.5-0.2,0.9-0.3h0.9c0.2,0,0.4,0.1,0.7,0.1
			c0.1,0.1,0.1,0.1,0.2,0.1c0.2,0.1,0.4,0.1,0.5,0.2c0.3,0.2,0.6,0.5,0.9,0.7c0.1,0,0.1,0,0.1,0.1l0.5,0.5c0.1,0.1,0.1,0.3,0.2,0.4
			c0.2,0.2,0.3,0.4,0.3,0.6c0.1,0.1,0.2,0.3,0.2,0.4c0.1,0.3,0.2,0.6,0.2,0.8h-2.3C10.1-19,10-19.1,10-19.3v-0.1
			c-0.1-0.2-0.2-0.4-0.4-0.5c-0.1-0.1-0.3-0.2-0.5-0.4H8.8c-0.1,0-0.3-0.1-0.4-0.1c-0.2,0-0.5,0-0.8,0.2c-0.1,0-0.2,0-0.4,0.1
			c-0.1,0-0.1,0.1-0.1,0.2c-0.3,0.1-0.5,0.3-0.6,0.5c-0.1,0-0.2,0.2-0.1,0.2v0.2c-0.1,0.2-0.1,0.5-0.1,0.6l-1,0.3v0.3h1.1v0.2
			c0.1,0,0.2,0.1,0.2,0.2l0.1,0.1c0.1,0.2,0.2,0.3,0.4,0.4v0.1c0.1,0.1,0.3,0.2,0.5,0.1c0.1,0.1,0.2,0.1,0.3,0.1
			c0.3,0.1,0.5,0.1,0.8,0c0.2,0,0.3-0.1,0.5-0.2c0.1-0.1,0.2-0.1,0.4-0.1c0.2-0.2,0.3-0.4,0.4-0.6c0.1,0,0.2-0.1,0-0.2l2.4,0.2
			c0,0-0.1,0.1-0.1,0.2c0,0.3-0.1,0.6-0.4,1c-0.1,0.1-0.3,0.3-0.4,0.5c-0.2,0.2-0.3,0.4-0.5,0.7c-0.1,0-0.1,0-0.1,0.1
			c-0.2,0.1-0.3,0.2-0.5,0.2c-0.1,0.1-0.3,0.2-0.5,0.2c-0.1,0.1-0.2,0.1-0.4,0.1c-0.5,0.1-1.1,0.1-1.7,0.1H7.7
			c-0.2,0-0.5-0.1-0.7-0.1c-0.2-0.1-0.5-0.2-0.8-0.3C6-14.9,5.9-15,5.7-15c-0.3-0.3-0.5-0.6-0.8-0.9c-0.1,0.1-0.1,0.1-0.1,0
			c-0.1-0.2-0.2-0.4-0.2-0.6c-0.2-0.2-0.3-0.4-0.5-0.5c0.1-0.2,0.1-0.3,0-0.5C4-18,3.9-18.4,4-18.9v-0.8c0.1-0.4,0.2-0.7,0.4-1
			c0.3-0.5,0.7-0.9,1.2-1.1L5.7-22.1 M7.7-20H8l0.1,0.2l-0.2,0.1l-0.3-0.2L7.7-20 M20.8-17.6c-0.1,0-0.2-0.1-0.2-0.1v-0.2
			c0-0.1,0-0.1,0.1-0.1h0.1v0.1l0.1,0.2C20.8-17.7,20.8-17.7,20.8-17.6 M19.8-18.3H20l-0.1,0.2l-0.1,0.2c-0.2-0.1-0.2-0.2-0.2-0.2
			v-0.2C19.8-18.4,19.8-18.4,19.8-18.3 M18.1-18.8l1.2-1l0.1,0.1l-0.8,0.6v0.1L18.1-18.8 M17.8-17l0.1-0.4l0.5-0.1l0.3,0.6l0.1,0.1
			l-0.1,0.5l-0.5-0.1C17.9-16.6,17.8-16.8,17.8-17 M21.5-15.7l0.1-0.4l0.7-0.5l0.5,0.6C22.4-15.7,22-15.6,21.5-15.7 M19.8-16.7
			l1.2,0.5l-0.1,0.4l-1.3-0.5L19.8-16.7 M9.7-19.4l0.1,0.1v0.1H9.5l-0.2-0.1l0.2-0.1H9.7 M9.1-19.8v0.1l-0.2-0.1V-20
			c0-0.1,0-0.1,0.1-0.1L8.9-20L9-20.1L9.1-19.8 M7.3-19.1L7.2-19L7-19.2l0.2-0.2l0.1,0.1V-19.1 M7.8-17.2l-0.1-0.2v-0.1l0.1-0.1
			c0.1,0,0.1,0,0.2,0.1l0.1,0.1L7.8-17.2 M9-17.7h0.2v0.2L9-17.4v-0.1H8.7v-0.1L9-17.7 M32.8-16.1c0.1,0.1,0.2,0.2,0.3,0.2
			c0.4,0.2,0.7,0.3,0.9,0.4c0.1,0.1,0.2,0.2,0.2,0.3c0.2,0.1,0.4,0.3,0.5,0.5c0.1,0.1,0.2,0.3,0.3,0.5c0.1,0.1,0.1,0.3,0.2,0.4
			c0.1,0.2,0.1,0.3,0.2,0.5c0.1,0.4,0.2,0.8,0.2,1.2v0.5c-0.1,0.1-0.2,0.2-0.3,0.5c-0.1,0.4-0.2,0.7-0.4,1.1
			c-0.1,0.2-0.2,0.4-0.4,0.7C34.4-9.1,34.2-9,34-8.9c0,0.1-0.1,0.1-0.2,0.2s-0.2,0.2-0.4,0.2c-0.2,0.2-0.3,0.3-0.4,0.3
			C32.5-8,32.4-8,32.2-8c-0.6,0.2-1.1,0.2-1.6,0.1c-0.1,0-0.2,0-0.3-0.1c-0.2,0.1-0.4,0-0.5-0.1c-0.4-0.1-0.7-0.2-0.9-0.4
			c-0.1,0-0.2-0.1-0.2-0.2c-0.3-0.2-0.6-0.4-0.9-0.8c-0.2-0.2-0.4-0.4-0.4-0.6c-0.1-0.1-0.2-0.3-0.3-0.6c0-0.1-0.1-0.2-0.1-0.4
			c-0.2-0.5-0.2-1-0.2-1.4c0-0.3,0.1-0.6,0.2-0.8l-0.1-0.1c0.2-0.3,0.3-0.6,0.4-1c0.3-0.5,0.6-0.9,1.1-1.2l0.1-0.1
			c0.1-0.1,0.2-0.2,0.4-0.2s0.3-0.1,0.5-0.1c0.1,0,0.2-0.1,0.3-0.2c0.1-0.1,0.2-0.1,0.4-0.2l0.3,2.5c-0.2,0.1-0.3,0.1-0.3,0.1
			l-0.2,0.2c-0.1,0.1-0.2,0.3-0.3,0.6c-0.1,0.1-0.2,0.2-0.2,0.4h-0.2L29-11.7h0.3c0,0.1,0.1,0.2,0.2,0.5l0.2,0.2
			c0.1,0.2,0.3,0.3,0.5,0.4c0.1,0.1,0.2,0.1,0.3,0.2c0.2,0.1,0.2,0.1,0.2,0c0.3,0.1,0.6,0.1,0.7,0c0.2,0,0.3-0.1,0.4-0.2
			c0.1,0,0.2,0,0.3-0.1c0.2-0.1,0.3-0.2,0.4-0.4c0.1-0.2,0.1-0.4,0.1-0.5c0.1-0.2,0.1-0.3,0.1-0.5c-0.1-0.2-0.1-0.4-0.1-0.6
			l-0.2-0.2c-0.1-0.2-0.2-0.3-0.4-0.3v-0.1c-0.2-0.1-0.3-0.2-0.3-0.3h-0.3c-0.1,0-0.2-0.1-0.3-0.1c0-0.1-0.1-0.1-0.2,0l-0.3-2.5h0.8
			c0.2,0,0.5,0.1,0.8,0.1C32.4-16.2,32.4-16.2,32.8-16.1 M24.7-19l-0.1,0.4l-1,1.4l-0.7-1.4l1.2-0.6L24.7-19z"/>
	</g>
</g>
<g>
	<g transform="translate(36.55 44.75)">
		<path id="EditorIcon_0_Layer0_12_MEMBER_0_FILL" class="st4" d="M29.8-39.2c-0.8-0.4-1.6-0.4-2.2-0.1c-0.4,0.2-0.7,0.4-1,0.7
			l-0.1,0.2c-0.1,0.2-0.3,0.4-0.4,0.6c-0.3,0.7-0.3,1.4,0,2.1c0.2,0.4,0.4,0.8,0.7,1l-0.1,0.2h-0.4c-0.2,0-0.4,0-0.7,0.2
			c-0.1,0-0.1,0.1-0.2,0.1h-0.5c-0.1,0-0.3,0.1-0.3,0.2c0,0.2-0.1,0.3-0.2,0.5c-0.9,1.2-1.9,2.4-2.9,3.7c-0.2,0.3-0.4,0.5-0.6,0.8
			l0.1,0.1l-0.4,0.5v0.5c0,0.2,0.1,0.4,0.1,0.5v0.5c0.1,0.1,0.2,0.3,0.2,0.5c0,0.1,0.1,0.1,0.1,0.2l0.3,0.6v0.2
			c0.2,0.6,0.4,1.1,0.7,1.6v0.1c0.1,0.1,0.1,0.1,0.1,0.2c0.1,0.2,0.2,0.3,0.2,0.5c0.1,0.1,0.1,0.2,0.2,0.3c-0.1,0.2-0.3,0.4-0.5,0.5
			l-0.8,0.8h-0.1v0.1c-0.4,0.4-0.8,0.7-1.1,1v0.1l-0.2,0.2c0,0,0,0.1-0.1,0.2v-0.1h-0.1L19-19l1.6,1.1c0,0,0.1,0,0.1-0.1
			s0.1-0.2,0.1-0.3c-0.2-0.2-0.4-0.5-0.8-1l0.2-0.2l0.1,0.1c0,0,0-0.1,0.1-0.1c0.3-0.2,0.7-0.5,1.1-0.8v-0.1
			c0.2-0.2,0.5-0.4,0.8-0.6c0.2-0.2,0.4-0.3,0.5-0.5c0.1-0.1,0.2-0.2,0.3-0.5c0.1-0.3,0.1-0.4,0-0.5v-0.2c0-0.1-0.1-0.2-0.2-0.3
			v-0.1c-0.1-0.2-0.1-0.5-0.2-0.7v-0.1c-0.2-0.5-0.4-1.1-0.6-1.6v-0.1c-0.1-0.1-0.1-0.3-0.2-0.5c0.1,0,0.2,0,0.4-0.1h0.2l0.4-0.5
			c0.2-0.3,0.4-0.5,0.6-0.8c0.4-0.5,0.8-1,1.1-1.5c0.2,0,0.5,0.1,0.6,0.1h0.1c0.1,0.1,0.3,0.1,0.5,0.2c0.1,0,0.2,0.1,0.3,0.1h0.1
			l0.1,0.1c0,0.1,0.1,0.1,0.1,0.2c0.1,0,0.1,0.1,0.2,0.1v0.2c0,0.1-0.1,0.2-0.2,0.2s-0.1,0.1-0.1,0.1v0.2h0.4c0,0.1,0.1,0.1,0.2,0
			H27c0.2,0,0.3-0.1,0.3-0.3c0.1-0.1,0.1-0.2,0.1-0.2c0.1-0.3,0-0.6-0.1-0.8s-0.3-0.4-0.6-0.4l-0.3-0.1h-0.1v0.1
			c0-0.1-0.1-0.1-0.1-0.1c-0.1,0-0.2-0.1-0.3-0.1c-0.2-0.1-0.4-0.1-0.6-0.2h-0.1c-0.1,0-0.2-0.1-0.3-0.1c0.4-0.5,0.8-1,1.1-1.5
			c0.3-0.5,0.5-1,0.6-1.5c0-0.3,0-0.6-0.1-0.8l0.2-0.3c0.1,0.1,0.2,0.2,0.4,0.2c0.2,0.1,0.4,0.2,0.6,0.2c0.4,0,0.8,0,1.2-0.2
			c0.6-0.3,1.1-0.7,1.4-1.3c0.2-0.5,0.2-1.1,0.1-1.6h0.1c0.1-0.1,0.2-0.2,0.2-0.3c0.1-0.2,0-0.5-0.2-0.9
			C31-38.3,30.5-38.7,29.8-39.2z"/>
	</g>
</g>
<g>
	<g transform="translate(52.2 42.7)">
		<path id="EditorIcon_0_Layer0_13_FILL" class="st0" d="M113.6-40.5h-3.2v3.2h3.2V-40.5z"/>
	</g>
	<g transform="translate(52.2 42.7)">
		<path id="EditorIcon_0_Layer0_13_1_STROKES" class="st5" d="M113.6-40.5v3.2h-3.2v-3.2H113.6z"/>
	</g>
</g>
</svg>
