<?xml version="1.0" encoding="utf-8"?>
<!-- Generator: Adobe Illustrator 26.0.1, SVG Export Plug-In . SVG Version: 6.00 Build 0)  -->
<svg version="1.1" id="Layer_1" xmlns="http://www.w3.org/2000/svg" xmlns:xlink="http://www.w3.org/1999/xlink" x="0px" y="0px"
	 viewBox="0 0 173.2 46.8" style="enable-background:new 0 0 173.2 46.8;" xml:space="preserve">
<style type="text/css">
	.st0{fill:#FFFFFF;}
	.st1{fill:none;stroke:#333333;stroke-width:2;stroke-linecap:round;stroke-linejoin:round;}
	.st2{fill:#1F9891;}
	.st3{fill:none;stroke:#333333;stroke-width:0.1;stroke-linecap:round;stroke-linejoin:round;}
	.st4{fill:#333333;}
	.st5{fill:none;stroke:#333333;stroke-linecap:round;stroke-linejoin:round;}
</style>
<g transform="matrix( 1, 0, 0, 1, 36.55,44.75) ">
	<g transform="matrix( 1, 0, 0, 1, 0,0) ">
		<g>
			<g id="EditorIcon_0_Layer2_0_MEMBER_0_FILL">
				<path class="st0" d="M129.1-24l3-3L116.9-36l5,18.5l4-3l4.5,5.3l3.2-2.6L129.1-24z"/>
			</g>
		</g>
		<g>
			<path id="EditorIcon_0_Layer2_0_MEMBER_0_1_STROKES" class="st1" d="M129.1-24l3-3L116.9-36l5,18.5l4-3l4.5,5.3l3.2-2.6L129.1-24
				z"/>
		</g>
	</g>
	<g transform="matrix( 1, 0, 0, 1, 0,0) ">
		<g>
			<g id="EditorIcon_0_Layer1_0_FILL">
				<path class="st2" d="M136.6-41v-3.8H-36.1v24.2l7.9,0.5l19.5,2.9l39,12.5L59.3,0l12.8-2.5l12.9-6.3l19.4-25.6l11.2-5.2
					C122.5-40.9,129.4-41.3,136.6-41z"/>
			</g>
		</g>
		<g>
			<path id="EditorIcon_0_Layer1_0_1_STROKES" class="st3" d="M136.6-41c-7.2-0.4-14.1,0.1-20.9,1.4"/>
		</g>
	</g>
	<g transform="matrix( 1, 0, 0, 1, 0,0) ">
		<g>
			<g id="EditorIcon_0_Layer0_0_FILL">
				<path class="st4" d="M113.5-38.7c3.7-1.2,3.5-1.5-0.7-1c-4.5,1.4-8.2,3.9-11.2,7.6c-4.6,5.5-9,11.1-13.3,16.7
					C83.9-9.6,78-5.9,70.8-4.3c-11.5,2.7-23,2.5-34.3-0.5C23.2-8.3,10.1-12.4-2.8-17c-9.3-3.2-20.5-4.4-33.7-3.6c8,1,14,2,18.2,3.1
					c7.6,1.9,15.1,4,22.5,6.2C11.1-9,18-6.9,25-4.8c7,2.2,14.1,3.9,21.4,5.1c7.7,1.3,15.4,1.3,23.1-0.1C76.7-1.1,83-4.1,88.6-8.7
					c4.4-3.7,7.5-8.2,9.4-13.5C100.7-29.7,105.9-35.2,113.5-38.7z"/>
			</g>
		</g>
	</g>
	<g transform="matrix( 1, 0, 0, 1, 0,0) ">
		<g>
			<g id="EditorIcon_0_Layer0_1_FILL">
				<path class="st0" d="M-8.9-20.7h-3.2v3.2h3.2V-20.7z"/>
			</g>
		</g>
		<g>
			<path id="EditorIcon_0_Layer0_1_1_STROKES" class="st5" d="M-8.9-20.7v3.2h-3.2v-3.2H-8.9z"/>
		</g>
	</g>
	<g transform="matrix( 1, 0, 0, 1, 0,0) ">
		<g>
			<g id="EditorIcon_0_Layer0_2_FILL">
				<path class="st0" d="M5.8-12.8H2.6v3.2h3.2V-12.8z"/>
			</g>
		</g>
		<g>
			<path id="EditorIcon_0_Layer0_2_1_STROKES" class="st5" d="M5.8-12.8v3.2H2.6v-3.2H5.8z"/>
		</g>
	</g>
	<g transform="matrix( 1, 0, 0, 1, 0,0) ">
		<g>
			<g id="EditorIcon_0_Layer0_3_FILL">
				<path class="st0" d="M22.8-11h-3.2v3.2h3.2V-11z"/>
			</g>
		</g>
		<g>
			<path id="EditorIcon_0_Layer0_3_1_STROKES" class="st5" d="M22.8-11v3.2h-3.2V-11H22.8z"/>
		</g>
	</g>
	<g transform="matrix( 1, 0, 0, 1, 0,0) ">
		<g>
			<g id="EditorIcon_0_Layer0_4_FILL">
				<path class="st0" d="M-26.9-18.6v-3.2h-3.2v3.2H-26.9z"/>
			</g>
		</g>
		<g>
			<path id="EditorIcon_0_Layer0_4_1_STROKES" class="st5" d="M-26.9-18.6h-3.2v-3.2h3.2V-18.6z"/>
		</g>
	</g>
	<g transform="matrix( 1, 0, 0, 1, 0,0) ">
		<g>
			<g id="EditorIcon_0_Layer0_5_FILL">
				<path class="st0" d="M37.6-2.8h-3.2v3.2h3.2V-2.8z"/>
			</g>
		</g>
		<g>
			<path id="EditorIcon_0_Layer0_5_1_STROKES" class="st5" d="M37.6-2.8v3.2h-3.2v-3.2H37.6z"/>
		</g>
	</g>
	<g transform="matrix( 1, 0, 0, 1, 0,0) ">
		<g>
			<g id="EditorIcon_0_Layer0_6_FILL">
				<path class="st0" d="M57.9-4.5h-3.2v3.2h3.2V-4.5z"/>
			</g>
		</g>
		<g>
			<path id="EditorIcon_0_Layer0_6_1_STROKES" class="st5" d="M57.9-4.5v3.2h-3.2v-3.2H57.9z"/>
		</g>
	</g>
	<g transform="matrix( 1, 0, 0, 1, 0,0) ">
		<g>
			<g id="EditorIcon_0_Layer0_7_FILL">
				<path class="st0" d="M73.8-1.7h-3.2v3.2h3.2V-1.7z"/>
			</g>
		</g>
		<g>
			<path id="EditorIcon_0_Layer0_7_1_STROKES" class="st5" d="M73.8-1.7v3.2h-3.2v-3.2H73.8z"/>
		</g>
	</g>
	<g transform="matrix( 1, 0, 0, 1, 0,0) ">
		<g>
			<g id="EditorIcon_0_Layer0_8_FILL">
				<path class="st0" d="M84.9-9.5v-3.2h-3.2v3.2H84.9z"/>
			</g>
		</g>
		<g>
			<path id="EditorIcon_0_Layer0_8_1_STROKES" class="st5" d="M84.9-9.5h-3.2v-3.2h3.2V-9.5z"/>
		</g>
	</g>
	<g transform="matrix( 1, 0, 0, 1, -2.15,2.25) ">
		<g>
			<g id="EditorIcon_0_Layer0_9_FILL">
				<path class="st0" d="M98.5-19.5h-3.2v3.2h3.2V-19.5z"/>
			</g>
		</g>
		<g>
			<path id="EditorIcon_0_Layer0_9_1_STROKES" class="st5" d="M98.5-19.5v3.2h-3.2v-3.2H98.5z"/>
		</g>
	</g>
	<g transform="matrix( 1, 0, 0, 1, 0,0) ">
		<g>
			<g id="EditorIcon_0_Layer0_10_FILL">
				<path class="st0" d="M101.7-31.9h-3.2v3.2h3.2V-31.9z"/>
			</g>
		</g>
		<g>
			<path id="EditorIcon_0_Layer0_10_1_STROKES" class="st5" d="M101.7-31.9v3.2h-3.2v-3.2H101.7z"/>
		</g>
	</g>
	<g transform="matrix( 1, 0, 0, 1, 0,0) ">
		<g>
			<g id="EditorIcon_0_Layer0_11_FILL">
				<path class="st0" d="M114.2-40.5h-3.2v3.2h3.2V-40.5z"/>
			</g>
		</g>
		<g>
			<path id="EditorIcon_0_Layer0_11_1_STROKES" class="st5" d="M114.2-40.5v3.2h-3.2v-3.2H114.2z"/>
		</g>
	</g>
	<g transform="matrix( 1, 0, 0, 1, 0,0) ">
		<g>
			<g id="EditorIcon_0_Layer0_12_FILL">
				<path class="st4" d="M28.3-27l-0.4,0.3L28-26l1.1,0.1l-0.2,0.5l-1.5,0.9l-0.2-0.7l-0.2-0.1l0.2-0.2v0.1l0-0.4l-1-0.4l-0.2,0.3
					l0.2,0.1l0.1,0.2H26l-0.3,0.4h-0.5l0.2-0.1l0.1-0.3c-2.9-0.6-5.7-1.5-8.3-2.5l-2.9-1.5c-0.2,0-0.3,0.1-0.3,0.3
					c0,0.1,0,0.2,0.1,0.4l-5.7-1.9l0.2,0.9l4.8,1.5l1.5,1.4l-0.3,0.2l-1.1-1l-1.5-0.4l2.9,4.3l1.1,0.6v0.4l1.1,0.6l0.2,1.8l1.2,0.2
					L17.8-19H15c0-0.2,0-0.4,0-0.5l-0.3,0c0-0.1,0-0.2-0.1-0.2l0.2-0.1v-0.2L14.7-20c-0.1-0.2-0.1-0.4-0.1-0.4h0.2
					c0-0.1,0-0.2-0.1-0.2l-0.2,0c-0.1-0.1-0.2-0.2-0.3-0.4l0.4-0.1c-0.1-0.1-0.1-0.2-0.2-0.4l-0.2,0.2c0-0.1-0.1-0.2-0.1-0.2
					L14-21.6l0.2-0.1v-0.1C14.1-21.9,14-22,14-22l-0.1,0l-0.1,0l0-0.2l0.1,0c-0.1-0.1-0.1-0.1,0-0.2l-0.1-0.1l-0.2,0.2
					c-0.1-0.1-0.1-0.2-0.2-0.2l0.2-0.4l0-0.1c-0.1-0.1-0.2-0.1-0.2-0.1L13-23c0-0.1-0.1-0.1-0.2-0.2l0.1-0.1c0-0.1-0.1-0.2-0.2-0.2
					l0,0.2c-0.1-0.1-0.2-0.2-0.3-0.2l0.1-0.2l-0.2-0.1L12-23.6c0-0.1-0.1-0.2-0.2-0.2l0.1-0.3c-0.1-0.1-0.3-0.1-0.4-0.1l-0.1,0.1
					c-0.1,0-0.2-0.1-0.3-0.1l0.1-0.2c-0.1,0-0.2,0-0.3,0l-0.2,0.2c-0.1,0-0.2,0-0.2-0.1l-0.1-0.1l0-0.2c-0.1,0-0.2-0.1-0.3-0.1
					l-0.1,0.2C10-24.5,10-24.5,10-24.5l0.1-0.2l-0.5-0.1l0,0.3l-0.1-0.1l0,0v-0.2c-0.1,0-0.2,0-0.4,0l0,0.2h0l-0.2-0.1l0-0.2
					c-0.2,0-0.3,0-0.4,0v0.2c0,0-0.1,0.1-0.3,0.2l0-0.2c-0.1-0.1-0.3-0.1-0.4,0l0.1,0.2c-0.1,0.1-0.3,0.1-0.4,0l-0.1-0.1
					c-0.1-0.1-0.2-0.1-0.2,0l0.1,0.2c-0.1,0.1-0.3,0.1-0.4,0.1l-0.1-0.3c-0.1,0.1-0.2,0.1-0.3,0.2l0.1,0.2C6.4-24,6.3-24,6.2-24
					l-0.1-0.2c-0.1,0-0.1,0.1-0.2,0.1l0,0.1L6-23.9c-0.1,0.1-0.2,0.1-0.3,0.1l-0.2-0.1c-0.1,0.1-0.2,0.1-0.4,0.2l0.2,0.2
					c0,0-0.1,0.1-0.2,0.2L5-23.5c0,0.1-0.1,0.2-0.2,0.3l0,0l0,0.1c0,0.1-0.1,0.2-0.1,0.2L4.4-23c-0.1,0-0.2,0.1-0.2,0.3l0.1,0.1
					c-0.1,0.1-0.1,0.2-0.1,0.3l-0.2-0.2c-0.1,0-0.2,0.1-0.3,0.4L4-22c-0.1,0-0.2,0.1-0.2,0.2L3.6-22l-0.1,0.2l0.1,0.1l0,0.2
					l-0.1-0.1c-0.1,0.1-0.2,0.3-0.2,0.4L3.4-21c-0.1,0.1-0.1,0.1,0,0.1L3.1-21C3-20.9,3-20.8,3-20.6l0.2,0.1c0.1,0.1,0.1,0.1,0,0.1
					c0,0,0,0.1,0,0.1l-0.2,0c0,0.1-0.1,0.2-0.2,0.4h0.3c0,0.1,0,0.2,0,0.4H2.8c-0.1,0-0.2,0.1-0.1,0.4l0.2-0.1c0,0.1,0,0.2,0.1,0.3
					H2.7c0,0.1,0,0.2,0,0.4l0.2,0c-0.1,0.1-0.1,0.1,0,0.2l-0.2,0c0,0.2,0.1,0.4,0.1,0.5L3-17.9c0,0.1,0,0.2,0,0.2l-0.2,0.2
					c0,0,0.1,0.1,0.2,0.2l0.1-0.1c0.1,0.2,0.1,0.3,0,0.2L3-16.9c0.1,0.1,0.1,0.1,0.1,0.2h0.2c0,0.1,0.1,0.2,0.2,0.3l-0.3,0.2
					c0.1,0,0.1,0.1,0.1,0.2L3.6-16c0.1,0.1,0.1,0.2,0.1,0.2l0.1,0.1l-0.3,0.2c0.1,0.1,0.1,0.1,0.2,0.2l0,0.1l0.3-0.1
					c0,0,0.1,0.1,0.2,0.1L4-15.1c0,0.2,0.1,0.4,0.1,0.4l0.3-0.1c0,0,0,0.1,0,0.1l0,0.4c0.1,0.1,0.2,0.2,0.3,0.2l0.1-0.3
					c0,0.2,0.1,0.2,0.2,0.2L5-14c0.1,0.1,0.2,0.2,0.3,0.2l0.2-0.1c0.1,0.1,0.2,0.1,0.3,0.2l-0.2,0.2l0.2,0.1c0-0.1,0.1,0,0.2,0.1
					l0-0.4c0.1,0.1,0.2,0.1,0.2,0.2v0.3c0.1,0,0.2,0,0.3,0.1l0-0.3c0.1,0,0.2,0.1,0.3,0.1l0,0.4c0.1-0.1,0.2-0.1,0.3,0l0.1-0.3
					L7.3-13l0.2,0.3c0-0.1,0.2-0.1,0.3,0v-0.2c0.2,0,0.3,0,0.4,0.1v0.2c0.1,0.1,0.2,0.1,0.4,0l0-0.3l0.2,0.1l0.1,0.1
					c0.1,0,0.3,0,0.4,0l0-0.2c0,0.1,0.1,0.1,0.2,0.1l0.1,0.2c0.1,0,0.2,0,0.2,0l0.1-0.3c0.1-0.1,0.2-0.1,0.3,0v0.2
					c0.1-0.1,0.2-0.1,0.4-0.2L10.4-13c0.2-0.1,0.3-0.1,0.4-0.1l0.1,0.1c0.2,0,0.3,0,0.4,0l-0.1-0.2c0.1-0.1,0.2-0.1,0.3-0.2l0.2,0.1
					c0.2-0.1,0.3-0.2,0.4-0.2L12-13.8c0.1,0,0.2-0.1,0.2-0.1l0.2,0.2c0.1-0.1,0.1-0.2,0.1-0.2l0-0.2c0.1,0,0.2-0.1,0.4-0.2l0.1,0.2
					c0.1-0.1,0.2-0.2,0.2-0.2l0-0.2c0-0.1,0-0.2,0.1-0.3l0.1,0.2c0.2-0.1,0.3-0.2,0.3-0.2L13.4-15c0.1-0.1,0.2-0.2,0.2-0.3l0.2,0.2
					c0.1-0.1,0.2-0.2,0.3-0.3l-0.3-0.2c0-0.1,0.1-0.2,0.1-0.3l0.3,0.1c0,0,0.1,0,0.1-0.1l-0.1-0.2c-0.1-0.1-0.1-0.1,0.1-0.2l0.1,0.1
					c0.1-0.1,0.2-0.2,0.2-0.3l-0.3-0.1c0,0,0.1-0.2,0.1-0.4l0.2,0.2c0-0.1,0-0.2,0-0.4l-0.2-0.2c0-0.1,0.1-0.1,0.1-0.2l0.2,0.1
					c0,0,0-0.1,0-0.1l2.5,0.2l-0.1,0.4l0.3-0.1l-0.2,0.4c0,0.5,0.4,0.8,1.3,1l3.1,0.9c0.9,0.3,1.6-0.1,2.2-1.1
					c0.4-0.7,0.8-1.3,1.2-1.8c1.2-1.4,2.6-2.4,4.2-3c0.1,0,0.2,0,0.2,0l0.2,2.1l0.4,0.2v0.6h-0.2l0-0.3C30-18.1,29.9-18,29.9-18v0.2
					c0,0.1-0.1,0.1-0.3,0.1l-0.2-0.2c-0.1,0-0.2,0-0.3,0.1l0.1,0c-0.1,0.1-0.2,0.2-0.2,0.2l-0.2-0.2c-0.1,0-0.1,0-0.2,0l-0.1,0.1
					l0.1,0.3c0,0-0.1,0.1-0.2,0.2l-0.2-0.4c-0.1,0.1-0.2,0.2-0.2,0.2l0.2,0.2c-0.1,0.1-0.2,0.2-0.2,0.2l-0.3-0.2
					c0,0.1-0.1,0.1-0.2,0.2l0.2,0.2c0,0.1-0.1,0.1-0.2,0.1l0-0.1c-0.1,0.2-0.2,0.3-0.2,0.3l0.1,0.2c-0.1,0-0.2,0.1-0.2,0.2l-0.1-0.2
					l-0.2,0.2l0.1,0.4c-0.1,0-0.1,0.1-0.1,0.1l-0.1-0.1l0,0.1l0,0.2v0.1L26.1-15c0,0.2,0,0.3,0,0.4l0.1,0c0,0.1,0,0.1,0,0.2h-0.3
					c-0.1,0-0.1,0.1-0.1,0.3l0.2,0c0.1,0.1,0.2,0.1,0.2,0.2l-0.4,0.1c0,0.1,0,0.2-0.1,0.4h0.3c-0.1,0.2-0.1,0.3-0.1,0.3h-0.3
					c0,0.1,0,0.2,0,0.5l0.2-0.2c0,0.1,0,0.3,0,0.5l-0.2,0c0,0.1,0,0.2,0,0.2l0.2,0c0,0.1,0,0.2,0.1,0.3l-0.4,0.2
					c0.1,0.1,0.1,0.2,0.1,0.3l0.2-0.1c0.1,0.2,0.1,0.3,0.1,0.3h-0.2c0.1,0.1,0.1,0.2,0.1,0.3h0.3c0,0.1,0,0.2,0.1,0.4h-0.2
					c0.1,0.1,0.2,0.2,0.2,0.3l0.2-0.1c0,0.1,0,0.2,0,0.2l-0.1,0.2c0,0.1,0.1,0.2,0.2,0.4l0.1-0.2l0,0c0,0.1,0,0.2,0.1,0.3l-0.2,0
					c0.1,0.1,0.1,0.2,0.1,0.3l0.2-0.1c0.1,0.1,0.2,0.2,0.3,0.2l-0.2,0.1c0,0.1,0.1,0.1,0.2,0.2l0.2,0c0.1,0,0.1,0.1,0.2,0.2
					l-0.2,0.2c0.1,0.1,0.2,0.1,0.2,0.2l0.2-0.2c0,0.1,0.1,0.2,0.2,0.2l-0.1,0.2c0.1,0,0.1,0,0.2,0C28-7.3,28-7.2,28-7.2L28.1-7
					l0.1-0.2c0.1,0.1,0.3,0.1,0.4,0.2l-0.2,0v0.1c0.1,0.1,0.2,0.1,0.3,0.1l0.2-0.1c0.1,0,0.2,0,0.2,0.1l-0.2,0.2
					c0.1,0.1,0.2,0.2,0.4,0.1l0-0.1c0.2,0,0.3,0,0.4,0l-0.2,0.2c0.2,0,0.3,0,0.3,0l0.2-0.2c0.1,0,0.2,0.1,0.2,0.1l-0.1,0.2
					c0.1,0,0.2,0,0.3,0.1l0.2-0.2l0.2,0L30.8-6l0.3,0l0.1-0.2c0.1,0,0.2,0,0.3,0l0,0.2l0.1,0.1c0.1-0.1,0.2-0.1,0.2,0v-0.2
					c0.1,0,0.2,0,0.3-0.1L32.2-6c0.2,0,0.3,0,0.5,0l-0.1-0.2c0.1-0.1,0.2-0.1,0.2-0.2l0.1,0.2c0.1,0,0.2,0,0.4,0l-0.1-0.2
					c0.1,0,0.2-0.1,0.3-0.2l0.1,0.4c0.1,0,0.2-0.1,0.3-0.2l0-0.3c0.1-0.1,0.3-0.1,0.4-0.1l0.2,0.1h0.1c0.1-0.1,0.2-0.1,0.2-0.2
					l-0.1-0.2c0,0,0.1-0.1,0.2-0.2l0.2,0.2c0.1-0.1,0.2-0.2,0.4-0.2l-0.2-0.1c0-0.1,0.1-0.2,0.2-0.3l0.2,0.2c0.1,0,0.2-0.1,0.3-0.2
					L35.8-8c0.1-0.1,0.2-0.1,0.3-0.2l0.2,0.1c0-0.1,0.1-0.2,0.1-0.2l-0.1-0.2c0-0.1,0.1-0.2,0.2-0.2l0.1,0.1
					c0.1-0.1,0.1-0.2,0.2-0.2L36.6-9c0-0.1,0.1-0.2,0.2-0.2l0.2,0c0-0.1,0.1-0.2,0.2-0.3l-0.3-0.2c0.1-0.1,0.2-0.1,0.2-0.2l0.2,0
					c0.1,0,0.1-0.1,0.1-0.1l-0.2-0.1c0.1-0.2,0.1-0.2,0.1-0.2l0.2,0.1l0.2-0.1c-0.1-0.2-0.1-0.3,0-0.3l-0.2,0c0-0.1,0-0.2,0-0.3
					l0.3,0.1c0-0.2,0-0.3,0.1-0.4l-0.2-0.2v-0.1l0.1,0.1c0.1-0.2,0.2-0.3,0.2-0.5l-0.3,0c0-0.1,0-0.2,0-0.2l0.3-0.1
					c-0.1,0-0.1-0.1-0.1-0.3L37.7-13h-0.1c0-0.1-0.1-0.1-0.2-0.2h0.3l-0.1-0.3l-0.2-0.1c0-0.1-0.1-0.1-0.1-0.2l0.2-0.2
					c0,0-0.1-0.1-0.1-0.2L37.2-14c0-0.1-0.1-0.2-0.1-0.4l0.2-0.1c-0.1-0.1-0.2-0.2-0.2-0.4l-0.3,0.2c0-0.1,0-0.2-0.1-0.4l0.2,0
					c0-0.1,0-0.1-0.1-0.2l-0.1-0.1l-0.1,0.2l-0.2-0.3l0.1-0.2l-0.1,0c0-0.1-0.1-0.2-0.1-0.2l-0.2,0.2c-0.1-0.1-0.1-0.1-0.1-0.1
					l-0.1-0.1l0.2-0.1c0-0.1-0.1-0.1-0.2-0.2c0,0-0.1,0-0.2,0l-0.1,0.2c-0.1-0.1-0.3-0.2-0.4-0.2l0.2-0.2c-0.1-0.1-0.2-0.2-0.2-0.2
					l-0.1,0.2c-0.1,0-0.2-0.1-0.4-0.2l0.2-0.2l-0.1-0.2h-0.2l-0.1,0.2c0,0-0.1-0.1-0.2-0.1l0.1-0.4c-0.1,0-0.2-0.1-0.3-0.1l-0.2,0.2
					c-0.1-0.1-0.2-0.1-0.3-0.1l0.1-0.2c-0.1,0-0.1-0.1-0.2-0.2l-0.1,0.3c-0.1-0.1-0.3-0.1-0.4,0l-0.1-0.1l0.3-0.3
					c-0.2,0-0.4,0-0.5-0.1l0,0.4c0,0-0.1-0.1-0.2-0.1l0-0.1l-0.3-0.1l0,0.2c0,0-0.1,0-0.1,0l-0.1,0.1l-0.1-0.4c-0.1,0-0.2,0-0.4,0
					l0.2,0.2C31.8-18,31.7-18,31.7-18h-0.2v-0.2c-0.1,0-0.3,0-0.4,0l0.1,0.2c0,0-0.1,0-0.2,0l-0.1-0.5l0.2-0.2l-0.3-2.4
					c1.8-0.1,3.3,0.4,4.6,1.6c0.2,0.2,0.4,0.5,0.7,0.9c0.1,0.1,0.1,0.1,0,0.1l0.5-0.2C36-20,34.9-21,33.5-21.7c-1-0.6-1.9-1-2.9-1.1
					l-0.1-0.8l0.8,0.4h0.8c0.3-1,0.2-1.8-0.2-2.4l-0.8,0.1L30.2-25l-0.1-0.6L30-26l0.2-0.5l0.1-1.8l-0.4-0.6l-1-0.2l-0.2,0.4
					l-0.6-0.1c-0.3-0.1-0.4-0.1-0.5,0c-0.1,0.1-0.2,0.2-0.2,0.4c0,0,0,0.1,0.1,0.2c0,0.1,0.1,0.3,0.3,0.4c0.1,0,0.2,0,0.3-0.1
					l0.4-0.1L28.3-27 M25-20.1L24.5-21l-0.8-0.3l-0.3-0.4c0.7,0.4,1.5,0.6,2.2,0.5l0.1,0.1l-0.4,1L25-20.1 M22.5-22.5l0.4,0.3
					l-0.7,0.5l0.5,0.9l-0.3,0.6L21-20.6l-0.2,0.1l-0.1-0.3L22.5-22.5 M6.3-22.1c0.1-0.1,0.3-0.2,0.5-0.2c0.2-0.1,0.4-0.2,0.5-0.3
					c0.1-0.1,0.2-0.1,0.2,0c0.2-0.1,0.5-0.2,0.9-0.3c0.2,0,0.5,0,0.9,0c0.2,0,0.4,0.1,0.7,0.1c0.1,0.1,0.1,0.1,0.2,0.1
					c0.2,0.1,0.4,0.1,0.5,0.2c0.3,0.2,0.6,0.5,0.9,0.7c0.1,0,0.1,0,0.1,0.1c0.2,0.2,0.4,0.4,0.5,0.5c0.1,0.1,0.1,0.3,0.2,0.4
					c0.2,0.2,0.3,0.4,0.3,0.6c0.1,0.1,0.2,0.3,0.2,0.4c0.1,0.3,0.2,0.6,0.2,0.8l-2.3,0c-0.1-0.1-0.2-0.2-0.2-0.4v-0.1
					c-0.1-0.3-0.2-0.5-0.4-0.6l0,0c-0.1-0.1-0.3-0.2-0.5-0.4c-0.1,0-0.2,0-0.3,0c-0.1,0-0.3-0.1-0.4-0.1v0c-0.2,0-0.5,0-0.8,0.2
					c-0.1,0-0.2,0-0.4,0.1c-0.1,0-0.1,0.1-0.1,0.2c-0.3,0.1-0.5,0.3-0.6,0.5C7-19.6,6.9-19.4,7-19.4c0,0.1,0,0.2,0,0.2
					c-0.1,0.2-0.1,0.5-0.1,0.6l-1,0.3L5.9-18l1.1,0c0,0.1,0,0.2,0,0.2c0.1,0,0.2,0.1,0.2,0.2l0.1,0.1c0.1,0.2,0.2,0.3,0.4,0.4l0,0.1
					c0.1,0.1,0.3,0.2,0.5,0.1c0.1,0.1,0.2,0.1,0.3,0.1c0.3,0.1,0.5,0.1,0.8,0c0.2,0,0.3-0.1,0.5-0.2c0.1-0.1,0.2-0.1,0.4-0.1
					c0.2-0.2,0.3-0.4,0.4-0.6c0.1,0,0.2-0.1,0-0.2l2.4,0.2c0,0-0.1,0.1-0.1,0.2c0,0.3-0.1,0.6-0.4,1c-0.1,0.1-0.3,0.3-0.4,0.5
					c-0.2,0.2-0.3,0.4-0.5,0.7c-0.1,0-0.1,0-0.1,0.1c-0.2,0.1-0.3,0.2-0.5,0.2c-0.1,0.1-0.3,0.2-0.5,0.2c-0.1,0.1-0.2,0.1-0.4,0.1
					c-0.5,0.1-1.1,0.1-1.7,0.1l-0.1,0c-0.2,0-0.5-0.1-0.7-0.1c-0.2-0.1-0.5-0.2-0.8-0.3c-0.2-0.1-0.3-0.2-0.5-0.2
					c-0.3-0.3-0.5-0.6-0.8-0.9c-0.1,0.1-0.1,0.1-0.1,0c-0.1-0.2-0.2-0.4-0.2-0.6c-0.2-0.2-0.3-0.4-0.5-0.5c0.1-0.2,0.1-0.3,0-0.5
					c-0.1-0.5-0.2-0.9-0.1-1.4c0-0.3,0-0.5,0-0.8c0.1-0.4,0.2-0.7,0.4-1c0.3-0.5,0.7-0.9,1.2-1.1L6.3-22.1 M8.3-20.1h0.2l0.1,0.2
					l-0.2,0.1L8.1-20L8.3-20.1 M21.2-17.7c-0.1,0-0.2-0.1-0.2-0.1C21-17.9,21-18,21-18c0-0.1,0-0.1,0.1-0.1l0.1,0c0,0,0,0.1,0,0.1
					l0.1,0.2c-0.1,0-0.1,0-0.1,0L21.2-17.7 M20.2-18.4c0.1,0,0.2,0,0.2,0l-0.1,0.2L20.2-18C20-18.1,20-18.2,20-18.2v-0.1
					c0-0.1,0-0.1,0-0.1C20.2-18.5,20.2-18.5,20.2-18.4 M18.7-18.9l1.2-1l0.1,0.1l-0.8,0.6v0.1L18.7-18.9 M18.2-17.1l0.1-0.4l0.5-0.1
					l0.3,0.6l0.1,0.1l-0.1,0.5l-0.5-0.1C18.4-16.7,18.2-16.9,18.2-17.1 M22-15.8l0.1-0.4l0.7-0.5l0.5,0.6
					C22.9-15.8,22.5-15.7,22-15.8 M20.2-16.8l1.2,0.5l-0.1,0.4l-1.3-0.5L20.2-16.8 M10.2-19.4l0.1,0.1l0,0.1L10-19.2l-0.2-0.1
					l0.2-0.1l0.1,0.1L10.2-19.4 M9.6-19.8L9.6-19.8l0,0.1l-0.2-0.1l0-0.2V-20c0-0.1,0-0.1,0.1-0.1L9.4-20l0.1-0.1L9.6-19.8L9.6-19.8
					 M7.8-19.1L7.7-19l-0.2-0.2l0.2-0.2l0.1,0.1V-19.1 M8.3-17.3l-0.1-0.2l0-0.1l0.1-0.1c0.1,0,0.1,0,0.2,0.1l0.1,0.1L8.3-17.3
					 M9.5-17.7h0.2v0.1c0,0.1,0,0.1,0,0.1l-0.2,0.1l0-0.1H9.3l-0.1,0v-0.1L9.5-17.7L9.5-17.7 M33.2-16.1c0.1,0.1,0.2,0.2,0.3,0.2
					c0.4,0.2,0.7,0.3,0.9,0.4c0.1,0.1,0.2,0.2,0.2,0.3c0.2,0.1,0.4,0.3,0.5,0.5c0.1,0.1,0.2,0.3,0.3,0.5c0.1,0.1,0.1,0.3,0.2,0.4
					c0.1,0.2,0.1,0.3,0.2,0.5c0.1,0.4,0.2,0.8,0.2,1.2c0,0.2,0,0.4,0,0.5c-0.1,0.1-0.2,0.2-0.3,0.5c-0.1,0.4-0.2,0.7-0.4,1.1
					c-0.1,0.2-0.2,0.4-0.4,0.7c-0.1,0.2-0.3,0.3-0.5,0.4c0,0.1-0.1,0.1-0.2,0.2c-0.1,0.1-0.2,0.2-0.4,0.2c-0.2,0.2-0.3,0.3-0.4,0.3
					C33.1-8,32.9-8,32.8-8c-0.6,0.2-1.1,0.2-1.6,0.1c-0.1,0-0.2,0-0.3-0.1c-0.2,0.1-0.4,0-0.5-0.1c-0.4-0.1-0.7-0.2-0.9-0.4
					c-0.1,0-0.2-0.1-0.2-0.2c-0.3-0.2-0.6-0.4-0.9-0.8C28.2-9.7,28-9.9,28-10.1c-0.1-0.1-0.2-0.3-0.3-0.6c0-0.1-0.1-0.2-0.1-0.4
					c-0.2-0.5-0.2-1-0.2-1.4c0-0.3,0.1-0.6,0.2-0.8l-0.1-0.1c0.2-0.3,0.3-0.6,0.4-1c0.3-0.5,0.6-0.9,1.1-1.2l0.1-0.1
					c0.1-0.1,0.2-0.2,0.4-0.2c0.2,0,0.3-0.1,0.5-0.1c0.1,0,0.2-0.1,0.3-0.2c0.1-0.1,0.2-0.1,0.4-0.2l0.3,2.5
					c-0.2,0.1-0.3,0.1-0.3,0.1c-0.1,0.1-0.2,0.2-0.2,0.2c-0.1,0.1-0.2,0.3-0.3,0.6c-0.1,0.1-0.2,0.2-0.2,0.4l-0.1,0l-0.1,0l-0.2,0.9
					l0.3,0c0,0.1,0.1,0.2,0.2,0.5l0.2,0.2c0.1,0.2,0.3,0.3,0.5,0.4c0.1,0.1,0.2,0.1,0.3,0.2c0.2,0.1,0.2,0.1,0.2,0
					c0.3,0.1,0.6,0.1,0.7,0c0.2,0,0.3-0.1,0.4-0.2c0.1,0,0.2,0,0.3-0.1c0.2-0.1,0.3-0.2,0.4-0.4c0.1-0.2,0.1-0.4,0.1-0.5
					c0.1-0.2,0.1-0.3,0.1-0.5c-0.1-0.2-0.1-0.4-0.1-0.6c0,0-0.1-0.1-0.2-0.2c-0.1-0.2-0.2-0.3-0.4-0.3v-0.1
					c-0.2-0.1-0.3-0.2-0.3-0.3c-0.1,0-0.2,0-0.3,0c-0.1,0-0.2-0.1-0.3-0.1c0-0.1-0.1-0.1-0.2,0l-0.3-2.5c0.3,0,0.5,0,0.8,0
					c0.2,0,0.5,0.1,0.8,0.1C32.9-16.2,33-16.2,33.2-16.1 M25.2-19l-0.1,0.4l-1,1.4l-0.6-1.4l1.2-0.6L25.2-19z"/>
			</g>
		</g>
	</g>
	<g transform="matrix( 1, 0, 0, 1, 0,0) ">
		<g>
			<g id="EditorIcon_0_Layer0_12_MEMBER_0_FILL">
				<path class="st4" d="M30.2-39.2c-0.8-0.4-1.6-0.4-2.2-0.1c-0.4,0.2-0.7,0.4-1,0.7l-0.1,0.2c-0.1,0.2-0.3,0.4-0.4,0.6
					c-0.3,0.7-0.3,1.4,0,2.1c0.2,0.4,0.4,0.8,0.7,1l-0.1,0.2c-0.1,0-0.2,0-0.4,0c-0.2,0-0.4,0-0.7,0.2c-0.1,0-0.1,0.1-0.2,0.1
					c-0.2,0-0.3,0-0.5,0C25.2-34.2,25-34.1,25-34c0,0.2-0.1,0.3-0.2,0.5c0,0,0,0,0,0c-0.9,1.2-1.9,2.4-2.9,3.7
					c-0.2,0.3-0.4,0.5-0.6,0.8v0l0.1,0.1L21-28.4c0,0,0,0.1,0,0.1c0,0.1,0,0.3,0,0.4c0,0.2,0.1,0.4,0.1,0.5v0c0,0.1,0,0.3,0,0.5
					c0.1,0.1,0.2,0.3,0.2,0.5c0,0.1,0.1,0.1,0.1,0.2c0.1,0.2,0.2,0.4,0.3,0.6l0,0.2c0.2,0.6,0.4,1.1,0.7,1.6l0,0.1v0
					c0.1,0.1,0.1,0.1,0.1,0.2c0.1,0.2,0.2,0.3,0.2,0.5c0.1,0.1,0.1,0.2,0.2,0.3c-0.1,0.2-0.3,0.4-0.5,0.5c-0.3,0.3-0.5,0.5-0.8,0.8
					l-0.1,0v0.1c-0.4,0.4-0.8,0.7-1.1,1l0,0.1h0L20.2-20c0,0,0,0.1-0.1,0.2v-0.1c0,0-0.1,0-0.1,0l-0.5,0.7l0,0l1.6,1.1h0
					c0,0,0.1,0,0.1-0.1c0-0.1,0.1-0.2,0.1-0.3l0,0c-0.2-0.2-0.4-0.5-0.8-1l0.2-0.2l0.1,0.1c0,0,0-0.1,0.1-0.1
					c0.3-0.2,0.7-0.5,1.1-0.8c0,0,0,0,0,0l0-0.1c0.2-0.2,0.5-0.4,0.8-0.6c0.2-0.2,0.4-0.3,0.5-0.5c0.1-0.1,0.2-0.2,0.3-0.5
					c0.1-0.3,0.1-0.4,0-0.5c0-0.1,0-0.1,0-0.2c0-0.1-0.1-0.2-0.2-0.3v-0.1c-0.1-0.2-0.1-0.5-0.2-0.7v-0.1c-0.2-0.5-0.4-1.1-0.6-1.6
					l0-0.1h0c-0.1-0.1-0.1-0.3-0.2-0.5l0,0c0.1,0,0.2,0,0.4-0.1c0.1,0,0.1,0,0.2,0l0.4-0.5c0.2-0.3,0.4-0.5,0.6-0.8
					c0.4-0.5,0.8-1,1.1-1.5c0.2,0,0.5,0.1,0.6,0.1h0.1c0.1,0.1,0.3,0.1,0.5,0.2c0.1,0,0.2,0.1,0.3,0.1c0,0,0.1,0,0.1,0
					c0,0,0.1,0.1,0.1,0.1c0,0.1,0.1,0.1,0.1,0.2c0.1,0,0.1,0.1,0.2,0.1c0,0,0,0.1,0,0.2c0,0.1-0.1,0.2-0.2,0.2
					c-0.1,0-0.1,0.1-0.1,0.1c0,0,0,0.1,0,0.2h0.1c0,0,0.1,0,0.1,0l0.1,0c0,0,0.1,0,0.1,0c0,0.1,0.1,0.1,0.2,0c0,0,0,0,0.1,0
					c0.2,0,0.3-0.1,0.3-0.3c0.1-0.1,0.1-0.2,0.1-0.2c0.1-0.3,0-0.6-0.1-0.8s-0.3-0.4-0.6-0.4l-0.3-0.1h-0.1v0.1
					c0-0.1-0.1-0.1-0.1-0.1c-0.1,0-0.2-0.1-0.3-0.1c-0.2-0.1-0.4-0.1-0.6-0.2h-0.1c-0.1,0-0.2-0.1-0.3-0.1c0.4-0.5,0.8-1,1.1-1.5
					c0.3-0.5,0.5-1,0.6-1.5c0-0.3,0-0.6-0.1-0.8l0.2-0.3c0.1,0.1,0.2,0.2,0.4,0.2c0.2,0.1,0.4,0.2,0.6,0.2c0.4,0,0.8,0,1.2-0.2
					c0.6-0.3,1.1-0.7,1.4-1.3c0.2-0.5,0.2-1.1,0.1-1.6l0.1,0c0.1-0.1,0.2-0.2,0.2-0.3c0.1-0.2,0-0.5-0.2-0.9
					C31.5-38.4,31-38.8,30.2-39.2z"/>
			</g>
		</g>
	</g>
	<g transform="matrix( 1, 0, 0, 1, 15.65,-2.05) ">
		<g>
			<g id="EditorIcon_0_Layer0_13_FILL">
				<path class="st0" d="M114.2-40.5h-3.2v3.2h3.2V-40.5z"/>
			</g>
		</g>
		<g>
			<path id="EditorIcon_0_Layer0_13_1_STROKES" class="st5" d="M114.2-40.5v3.2h-3.2v-3.2H114.2z"/>
		</g>
	</g>
</g>
</svg>
