<svg xmlns="http://www.w3.org/2000/svg" viewBox="0 0 91.5 86" xml:space="preserve"><path d="M70.2 86.5H22.8c-12.1 0-22-9.9-22-22v-42c0-12.1 9.9-22 22-22h47.5c12.1 0 22 9.9 22 22v42c-.1 12.1-10 22-22.1 22z" fill="#4d4d4d"/><path d="m53.7 19.7 4.2-3.9s3.7-3.6 7.8 0 7.5 7.3 7.5 7.3 3 4.3.3 7.2c-2.7 2.8-4.6 4.8-4.6 4.8L53.7 19.7zM18.8 63.9l-.4 5.2s-.1 1.3 1 1.2c1.2-.1 5.2-.6 5.2-.6l-5.8-5.8zM24 49.3l15.2 15.1s-1.9 3.6-11.3 4l-7.8-7.3s.2-7.6 3.9-11.8zm27.4-27.2-25.3 25 15.5 15.1 24.9-25-15.1-15.1zM32.7 47.7l19-19 2.1 2.1-19 19-2.1-2.1zm8.6 8.4L39.2 54l19-19 2.1 2.1-19 19z" style="fill:#fff"/></svg>