<svg xmlns="http://www.w3.org/2000/svg" viewBox="0 0 31.1 31.1" style="enable-background:new 0 0 31.1 31.1" xml:space="preserve"><path d="M32.1-5.8h-55v55h55v-55z" style="fill:#0f0;fill-opacity:0" transform="translate(12.961 3.273) scale(.56609)"/><path d="M22.1 3.9c-1.8-1.8-4-2.6-6.5-2.6s-4.7.9-6.4 2.6c-.4.4-.8.8-1.1 1.3-1 1-1.6 2.3-1.6 3.7 0-1.4-.6-2.7-1.7-3.8-.3-.5-.7-.9-1-1.2C2 2.1-.2 1.3-2.7 1.3s-4.7.9-6.5 2.6c-1.8 1.8-2.6 4-2.6 6.5 0 .4 0 .7.1 1.1.1.7.2 1.4.4 2.1.1.3.3.6.4.9.3.6.7 1.2 1.2 1.9L4.1 34.7c1.3 1.1 2.7 1.1 4.2 0l14.3-18.3c.5-.6.9-1.3 1.2-1.9.2-.3.3-.5.4-.8.2-.7.4-1.4.5-2.1v-1.1c.1-2.6-.8-4.8-2.6-6.6z" style="fill:#f64f60" transform="translate(10.35 .3) scale(.80348)"/><path d="M15.6 1.3c-2.5 0-4.7.9-6.4 2.6-.4.4-.8.8-1.1 1.3-1 1-1.6 2.3-1.6 3.7 0-1.4-.6-2.7-1.7-3.8-.3-.5-.7-.9-1-1.2C2 2.1-.2 1.3-2.7 1.3s-4.7.9-6.5 2.6c-1.8 1.8-2.6 4-2.6 6.5 0 .4 0 .7.1 1.1.1.7.2 1.4.4 2.1.1.3.3.6.4.9.3.6.7 1.2 1.2 1.9L4.1 34.7c1.3 1.1 2.7 1.1 4.2 0l14.3-18.3c.5-.6.9-1.3 1.2-1.9.2-.3.3-.5.4-.8.2-.7.4-1.4.5-2.1v-1.1c0-2.5-.9-4.7-2.6-6.5-1.8-1.9-4-2.7-6.5-2.7z" style="fill:none;stroke:#333;stroke-width:1.607;stroke-linecap:round;stroke-linejoin:round;stroke-miterlimit:3.2139" transform="translate(10.35 .3) scale(.80348)"/></svg>