<?xml version="1.0" encoding="utf-8"?>
<!-- Generator: Adobe Illustrator 26.0.1, SVG Export Plug-In . SVG Version: 6.00 Build 0)  -->
<svg version="1.1" id="Layer_1" xmlns="http://www.w3.org/2000/svg" xmlns:xlink="http://www.w3.org/1999/xlink" x="0px" y="0px"
	 viewBox="0 0 31.1 31.1" style="enable-background:new 0 0 31.1 31.1;" xml:space="preserve">
<style type="text/css">
	.st0{fill:#00FF00;fill-opacity:0;}
	.st1{fill:#F64F60;}
	.st2{fill:none;stroke:#333333;stroke-width:1.607;stroke-linecap:round;stroke-linejoin:round;stroke-miterlimit:3.2139;}
</style>
<g transform="matrix( 0.8034820556640625, 0, 0, 0.8034820556640625, 10.35,0.3) ">
	<g transform="matrix( 0.7045440673828125, 0, 0, 0.7045440673828125, 3.25,3.7) ">
		<g>
			<g id="Heart_Button_2_0_Layer1_0_FILL">
				<path class="st0" d="M32.1-5.8h-55v55h55V-5.8z"/>
			</g>
		</g>
	</g>
	<g transform="matrix( 1, 0, 0, 1, 0,0) ">
		<g>
			<g id="Heart_Button_2_0_Layer0_0_FILL">
				<path class="st1" d="M22.1,3.9c-1.8-1.8-4-2.6-6.5-2.6c-2.5,0-4.7,0.9-6.4,2.6C8.8,4.3,8.4,4.7,8.1,5.2C7.1,6.2,6.5,7.5,6.5,8.9
					c0-1.4-0.6-2.7-1.7-3.8c-0.3-0.5-0.7-0.9-1-1.2C2,2.1-0.2,1.3-2.7,1.3c-2.5,0-4.7,0.9-6.5,2.6c-1.8,1.8-2.6,4-2.6,6.5
					c0,0.4,0,0.7,0.1,1.1c0.1,0.7,0.2,1.4,0.4,2.1c0.1,0.3,0.3,0.6,0.4,0.9c0.3,0.6,0.7,1.2,1.2,1.9L4.1,34.7c1.3,1.1,2.7,1.1,4.2,0
					l14.3-18.3c0.5-0.6,0.9-1.3,1.2-1.9c0.2-0.3,0.3-0.5,0.4-0.8c0.2-0.7,0.4-1.4,0.5-2.1c0-0.4,0-0.7,0-1.1
					C24.8,7.9,23.9,5.7,22.1,3.9z"/>
			</g>
		</g>
		<g>
			<path id="Heart_Button_2_0_Layer0_0_1_STROKES" class="st2" d="M15.6,1.3c-2.5,0-4.7,0.9-6.4,2.6C8.8,4.3,8.4,4.7,8.1,5.2
				C7.1,6.2,6.5,7.5,6.5,8.9c0-1.4-0.6-2.7-1.7-3.8c-0.3-0.5-0.7-0.9-1-1.2C2,2.1-0.2,1.3-2.7,1.3c-2.5,0-4.7,0.9-6.5,2.6
				c-1.8,1.8-2.6,4-2.6,6.5c0,0.4,0,0.7,0.1,1.1c0.1,0.7,0.2,1.4,0.4,2.1c0.1,0.3,0.3,0.6,0.4,0.9c0.3,0.6,0.7,1.2,1.2,1.9L4.1,34.7
				c1.3,1.1,2.7,1.1,4.2,0l14.3-18.3c0.5-0.6,0.9-1.3,1.2-1.9c0.2-0.3,0.3-0.5,0.4-0.8c0.2-0.7,0.4-1.4,0.5-2.1c0-0.4,0-0.7,0-1.1
				c0-2.5-0.9-4.7-2.6-6.5C20.3,2.1,18.1,1.3,15.6,1.3z"/>
		</g>
	</g>
</g>
</svg>
