<svg version="1.1" id="Layer_1" xmlns="http://www.w3.org/2000/svg" xmlns:xlink="http://www.w3.org/1999/xlink" x="0" y="0" viewBox="0 0 246.8 65" style="enable-background:new 0 0 246.8 65" xml:space="preserve"><style>.st8{fill:#f60}.st9{fill:#d95700}.st10{fill:none;stroke:#000;stroke-width:.5338;stroke-linecap:round;stroke-linejoin:round;stroke-miterlimit:2.135}.st11{fill:#91a854}.st12{fill:#64743a}.st13{fill:#ff0}.st14{fill:#8c3800}.st15{fill:none;stroke:#000;stroke-width:.5205;stroke-linecap:round;stroke-linejoin:round;stroke-miterlimit:2.0819}</style><path d="M395.9 234.7c-7.5 3.8-12.6 11.7-15.5 23.9-.7 3-1.3 6.2-1.7 9.7-1.2 10.8-2.4 20.8-3.5 30-.9 7.8-1.8 15-2.5 21.6-2.3-5.3-5.7-10.1-10.2-14.4-2.9-2.8-6.1-5.2-9.5-7.2-7.3-4.1-15.7-6.2-25.1-6.2-10.8 0-20.5 2.1-29 6.2-5.5 2.7-10.6 6.3-15.1 10.7-8.7 8.3-14.1 18.9-16.2 31.8-3.4 1.6-7.2 3.3-11.4 5.1l10.6-73.1c.7-4.9 2-8.6 4-11.1 1-1.4 2.1-2.3 3.2-2.9.6-.4 1.3-.6 2-.6 1.3 0 2.7.2 4.1.6.7.2 1.4.4 2.1.8.3.1.6.1 1 0s.6-.2.9-.5c.1-.1.2-.2.2-.3.1-.2.1-.4.1-.6.1-1.5.1-3 .1-4.5 0-7.3-1.9-13.6-5.8-19-.2-.2-.4-.4-.7-.5-.3-.1-.5-.2-.8-.1-.3 0-.6.1-.9.4-6.4 4.9-14.3 7.3-23.7 7.3-5.4 0-13-1.6-22.8-4.9-10.4-3.4-18.3-5.1-23.7-5.1-9.1 0-16.6 2.4-22.6 7.2h-.1c-6.1 4.9-9.1 11.5-9.2 19.9v.1c0 8.5 3 15.3 8.9 20.6 5.9 5.2 13.6 7.8 23.1 7.8 8.3 0 16.2-1.4 23.9-4.1-.8 4.9-1.6 10-2.3 15.3-2 14.1-3.9 29.7-5.8 46.9l-2.1 16.9c-5.3 2.8-10.2 5.7-14.7 8.7-23.7 15.8-35.5 33.5-35.4 53 0 9.1 3 17.3 8.9 24.6 6 7.4 14 11.1 24.2 11.1 10 0 19.2-3.4 27.6-10.2 8.4-6.8 13.5-17.4 15.5-31.8l7.1-49.8c2.7-1.1 6.6-2.7 11.8-4.8.7-.3 1.5-.6 2.3-1 .5 3.1 1.2 6.1 2.3 9 2.3 6.2 6 11.8 11.1 16.7 9.4 9.1 22 13.7 38 13.7 15.9 0 29.6-5.8 40.9-17.3 2.9-3 5.4-6.2 7.5-9.8.4 8.1 3.1 14.5 7.9 19.3 5.4 5.2 12.8 7.9 22.2 7.9 9.2 0 17.5-2.2 24.9-6.5 4.8-2.8 9-6.1 12.6-10 1.3 3.3 3.2 6.1 5.7 8.6 5.4 5.2 12.8 7.9 22.2 7.9 9.2 0 17.5-2.2 24.9-6.5 4-2.3 7.5-5 10.6-8.1 1.1 2 2.5 3.7 4.3 5.2 4.6 4.4 10.5 7.1 17.7 8.4-10.6 10.8-15.9 21.8-15.9 33.1 0 10.1 3.2 17.8 9.5 23.1 6.2 5.2 13.7 7.8 22.4 7.8 13.4 0 23.6-4.5 30.6-13.4 6.9-8.6 11.1-19.7 12.7-33.1l3.3-25.2c11.3 4.3 18.2 14.7 20.9 31.2 0 .4.2.8.6 1 .3.3.7.4 1.2.4.4-.1.8-.3 1-.6 5.2-6.3 8.1-10.9 8.6-13.8v-.6c-3.3-20.5-13.4-32.5-30.2-36l10-78.7c0-.4 0-.8-.2-1-.2-.3-.5-.5-.9-.6-3.9-1.2-8.2-1.9-13-1.9-2.8 0-6.3.8-10.8 2.5-2.6 1-4.6 2.3-6.2 3.7-1.2 1.1-2 2.3-2.7 3.7-.1.2-.1.3-.1.5-1.3 8.8-2.7 21.2-4.4 37.1-1.7 15.2-2.8 24.7-3.2 28.3-.7 1.1-1.5 2-2.3 2.9-3.7 4.1-8.2 6.1-13.6 6.1-4.9 0-8-2.1-9.3-6.1-.5-1.4-.7-3.1-.7-5.1 0-.8.2-2.4.5-4.6l7-55.3v-.2c0-2.9-.5-5.3-1.5-7.2-.4-.7-.9-1.4-1.5-2-2-2.2-4.2-3.5-6.4-3.8-1.9-.3-4.8-.5-8.7-.5-4 0-8.3.8-13 2.5-.3.1-.5.2-.7.5-.2.3-.3.6-.3.9l-.3 2.4c-1.2 9.7-2.4 18.9-3.5 27.7-1.1 9.3-2.2 18.1-3.2 26.3h-.1c-.5 4.1-.8 7.7-1 10.8-.8 1.3-1.7 2.5-2.5 3.6-1.1 1.5-2.2 2.8-3.4 4-4.8 5-9.9 7.5-15.3 7.6-4.8-.1-7.4-2.6-8-7.6-.1-.6-.1-1.3-.1-2.1 0-1.5.9-9.7 2.6-24.5.8-6.5 1.6-13.2 2.3-20.1 9.8-8.7 17.6-17.3 23.5-25.8 7.9-11.5 12.3-23 13.1-34.3.2-1.6.2-3.1.2-4.6v-.8c-.2-18.3-10.3-27.4-30.3-27.4-6 0-11.1 1.2-15.3 3.5-7.5 3.8-12.7 11.7-15.6 23.9-.7 3-1.3 6.2-1.7 9.7-1.2 10.8-2.4 20.8-3.5 30-2.9 25.1-5 43.8-6.4 56.1-2.2 4.6-4.7 8.7-7.5 12.3-1.1 1.5-2.2 2.8-3.4 4-4.8 5-9.9 7.5-15.3 7.6-4.8-.1-7.4-2.6-8-7.6-.1-.6-.1-1.3-.1-2.1 0-1.5.9-9.7 2.6-24.5.8-6.5 1.5-13.2 2.2-20.1 9.8-8.7 17.6-17.3 23.5-25.8 7.9-11.5 12.2-23 13-34.3.2-1.6.3-3.1.2-4.6v-.8c-.2-18.3-10.3-27.4-30.3-27.4-5.9-.2-11 .9-15.2 3.3m16.7 24v-.1c.8-3.2 2.6-4.9 5.2-5.2 3 .2 4.9 1.9 5.7 5.2.2 1 .4 2.2.4 3.6-.1 10.3-5.5 21.8-16.3 34.6l.1-1.7v.1c.3-2.2.9-7.9 1.9-17.1 1-9 2-15.5 3-19.4m-70.1 85.1c0 9.5-2.3 18-6.9 25.5-.3.5-.6.9-.9 1.4-4.2 6.2-9.3 9.3-15.3 9.4-6.3 0-11-2.5-14.1-7.5-.4-.6-.8-1.2-1.1-1.9-2.5-4.9-3.8-11-3.8-18.1.4-11.6 2.9-21.2 7.3-28.8 4.3-7.2 9.6-10.9 15.9-11 6.3 0 11 2.8 14 8.3 3.3 5.7 4.9 13.2 4.9 22.7m146.2-85.2c.2 1 .3 2.2.3 3.6-.1 10.3-5.5 21.8-16.3 34.6l.1-1.7v.1c.3-2.2.9-7.9 1.9-17.1 1-9 2-15.5 3-19.5v-.1c.8-3.2 2.6-4.9 5.2-5.2 3.2.2 5.1 2 5.8 5.3m-275.4 4.6c4.5 1.2 9 2.3 13.4 3.4-5.8 2.9-10.6 4.3-14.5 4.4-4.5 0-7.8-.7-10-2.1-1.9-1.3-2.8-2.7-2.9-4.4 0-2.5 1.3-3.8 3.9-3.8 1.1.1 4.5.9 10.1 2.5m-.7 159.1c-.5 4.3-1.9 7.4-4.1 9.4-2.3 1.9-5.1 2.8-8.3 2.8-3 0-5.5-1.4-7.5-4.1h.1c-1.8-2.5-2.7-5.5-2.7-9.1.1-12.7 9.3-24.8 27.5-36.4l-5 37.4zm334.5-3.1c-1.2 9.2-2.7 15.4-4.5 18.5-1.7 2.7-4.2 4-7.5 4-3.4 0-6-1-8-3-2-2.1-3-5.2-3-9.4.5-11.4 9-21.7 25.5-30.9l-2.5 20.8zm191.8-160.6v3.4c0 10.9-.8 23-2.2 36.3-1.3 10.6-3 22-5.2 34.1-2.5 12.8-6.1 23.5-10.8 32.2-1.3 2.4-2.7 4.5-4.1 6.2-3.3 4-6.9 6.1-10.7 6.1-4.6-.1-7.5-2.1-8.7-6.1-.4-1.4-.6-3.1-.7-5 0-8.4 1.5-20.6 4.4-36.7.9-5.4 2.4-15.7 4.5-30.7 1.5-10.7 3.3-24 5.3-39.7.4-2.6.7-5.3 1-8l.2-2.8v-.1c.1-8.3-5.1-12.5-15.6-12.5-6.9 0-12.8 1.2-17.8 3.5-.3.1-.5.3-.7.5-.2.2-.3.5-.3.8l-13.9 109.7c-1.2 9.6-3.5 16.7-6.9 21.2-2.8 3.9-6.4 5.9-10.8 6-4.4-.1-7.3-2-8.7-6-.7-1.9-1-4.3-1-7.1 0-2.5.4-6.5 1.3-12.2.8-5.8 1.8-12.8 3-21.1 1.1-8.3 2-15.3 3-21 .5-3.9 1-7.5 1.5-11 .2-1.7.5-3.3.7-5 .7-4.9 1.3-8.9 1.8-11.9.4-3 .8-5.7 1.2-8.1.3-2.4.5-4.2.8-5.5.2-1.3.3-2.4.5-3.5.1-.8.1-1.5.2-1.9.1-.5.1-1 .1-1.4v-2.5c-.8-18.3-10.8-27.4-30-27.4-9.1 0-16.9 2.7-23.3 8.2-5.7 4.9-8.9 11.3-9.5 19.2-.1 1-.2 2.1-.2 3.1-.1 13.4 6.9 25.6 20.8 36.5.8.6 1.6 1.2 2.4 1.9l-8 60.3v.1c-.2 2.7-.3 4.7-.3 6 0 1.4 0 2.8.2 4.2.7 8.5 3.7 15.5 8.9 20.9 6 6.4 14.5 9.6 25.5 9.6 15.8 0 27.8-5.8 36.1-17.2 6.6 11.5 17 17.2 31.2 17.2 15.1 0 26.9-4.9 35.3-14.7 3.9-4.7 7.5-9.6 10.5-14.8.2-.3.4-.7.5-1 1.2-2.3 2.4-4.8 3.5-7.5.5 2.6 1.2 5.1 2.1 7.5 2.3 6.2 6 11.8 11.1 16.7 9.3 9.1 22 13.7 38 13.7 15.9 0 29.6-5.8 40.9-17.3 3.8-3.9 7-8.3 9.5-13.2 2.4-4.6 4.2-9.7 5.5-15.1l-.8 6.5c-.1 1.4-.2 3.4-.2 6.2v2.3c.4 8.3 2.6 15.3 6.7 20.9 4.7 6.3 12 9.5 22 9.5 9.8 0 18-3 24.6-9.2 5.5-5.1 8.7-12.2 9.6-21.3.2-1.7.2-3.4.2-5.3 0-15.5-7.7-29.5-23.1-42 3.1-6.1 7.1-9.2 12-9.3 4.8 0 7.2 2.7 7.2 7.9 0 1.4-.1 2.8-.3 4.4-.1.3-.1.6.1.9.1.3.3.5.6.7.2.2.5.2.9.2h.8c6.4 0 11.6-1.7 15.5-5 4-3.4 6-7.8 6-13.2 0-4.7-1.5-8.7-4.5-11.8-.5-.5-1-.9-1.5-1.4-3.8-3.2-9.2-4.9-16.2-4.9-7.2 0-13.4 2.1-18.7 6.2-.7.6-1.5 1.2-2.2 1.9-.1-.7-.3-1.3-.6-1.9-1.9-4.1-6.5-6.2-14-6.2-5.5 0-10.9.8-16.3 2.5-.3.1-.6.2-.8.5-.2.3-.3.6-.3.9l-5 43.7v-1.8c0-12.8-4.6-23.6-13.8-32.4-2.9-2.8-6.1-5.2-9.5-7.2-7.3-4.1-15.6-6.2-25.1-6.2-10.8 0-20.5 2.1-29 6.2-5.5 2.7-10.5 6.3-15 10.7-1.6 1.4-3 2.9-4.2 4.5.8-5.3 1.5-10.4 2.2-15.2 2.1-15.8 3.5-29 4.1-39.7.2-4.3.3-8.1.3-11.6 0-10.7-4.6-16.1-13.7-16-8.4 0-15.7 1.9-21.7 5.6-.3.2-.5.4-.7.8-.1.3-.2.6-.1 1 1.5 6 2.3 12.7 2.4 20.5m55.4 65.2c4.3-7.2 9.6-10.8 15.9-10.9 6.3 0 11 2.8 14 8.3 3.2 5.6 4.8 13.1 4.8 22.7 0 9.5-2.3 18-6.9 25.5-.3.5-.6.9-.9 1.4-4.2 6.2-9.2 9.3-15.2 9.4-6.3 0-11-2.5-14.1-7.5-.4-.6-.8-1.2-1.1-1.9-2.5-4.9-3.8-11-3.8-18.1.5-11.7 2.9-21.3 7.3-28.9m101.3 18.8c6.8 7.2 10.2 14.5 10.2 21.7 0 2.4-.2 4.6-.6 6.4-1 4.8-3.5 7.3-7.4 7.5-3.8-.1-5.7-2.6-5.8-7.5v-.1c.1-.2 1.2-9.5 3.6-28m-289.9-84c.2-1.6.8-3.1 1.7-4.4v-.1c1-1.5 2.5-2.3 4.7-2.3 1.1 0 1.9.4 2.4 1.1.6 1 .9 2.5.8 4.5v1.2c-.1 4.3-.4 8.6-1 13l-.7 5.4c-5.3-5.7-8-11.3-8.1-16.7.1-.6.2-1.2.2-1.7m503.2-27.4c-5.2 0-9.7.9-13.5 2.7-4 1.9-6.6 4.2-7.6 7-.1.2-.1.3-.1.5l-6.3 52.8c-4.8-1.4-9.9-2.1-15.3-2.1h-1.3c-10.5 0-19.9 2.1-28.2 6.2-5.6 2.8-10.8 6.6-15.4 11.3-11.5 11.5-17.3 27.1-17.3 46.6 0 1.3.1 2.7.2 4-1.4 2.3-2.9 4.5-4.5 6.6-1.1 1.5-2.2 2.9-3.4 4-4.8 5-9.9 7.5-15.3 7.6-4.8-.1-7.4-2.6-8-7.6-.1-.6-.1-1.3-.1-2.1 0-1.5.9-9.7 2.6-24.5.8-6.5 1.6-13.2 2.3-20.1 9.8-8.7 17.6-17.3 23.5-25.8 7.9-11.5 12.3-23 13.1-34.3.2-1.6.2-3.1.2-4.6v-.8c-.2-18.3-10.3-27.4-30.2-27.4-6 0-11.1 1.2-15.3 3.5-7.5 3.8-12.7 11.7-15.5 23.9-.7 3-1.3 6.2-1.7 9.7-1.3 10.8-2.4 20.8-3.5 30-5 43-7.7 67.2-8.1 72.4-.1.5-.1.8-.1 1 0 9.2 2.7 16.4 8 21.7 5.3 5.2 12.7 7.9 22.2 7.9 9.2 0 17.5-2.2 24.9-6.5 6.1-3.6 11.3-8.1 15.4-13.5 1.7 2.6 3.7 5.1 6 7.4 8.4 8.2 18.7 12.4 30.8 12.4 11.5 0 21-4.3 28.6-12.8 4.8 8.4 13.5 12.6 26.2 12.6 4.7 0 9.7-1.3 15-3.9 9.7-4.3 17.2-13.1 22.6-26.4 1-2.5 1.9-5.2 2.8-8.1.1-.3.1-.7 0-1-1.6-4.8-4.6-9.3-8.9-13.5-.3-.3-.6-.5-.9-.5-.4 0-.8.1-1.1.3-.3.2-.6.5-.7.9-3.1 10-6.5 17.3-10.2 21.9-.2.2-.3.5-.5.7h-.1c-3.6 4.3-7.2 6.5-10.6 6.5-3.2-.1-4.8-2.1-4.8-6.1 0-.3 0-.7.1-1.1.3-6.7 3.2-30.9 8.6-72.4.4-3.2.8-6.4 1.3-9.8 1.5-11.4 2.8-21.4 3.9-29.9 1.2-9.6 2.2-17.4 3.1-23.4 0-.3 0-.6-.2-.9-.2-.3-.4-.5-.6-.7-2.6-1.5-6.6-2.3-12.1-2.3m-123 27.5v-.1c.8-3.2 2.6-4.9 5.2-5.2 3 .2 4.9 1.9 5.7 5.2.2 1 .3 2.2.3 3.6-.1 10.3-5.5 21.8-16.3 34.6l.2-1.7v.1c.3-2.2.9-7.9 1.8-17.1 1-9 2-15.5 3.1-19.4m51.8 97.6c0-1.2.1-2.3.2-3.5v-.1c1-13.5 4.1-23.7 9.3-30.5 5.1-6.6 12-9.9 20.7-9.9 3.2 0 6.8.7 10.8 2.2l-5.4 45.5c-1.6 4.4-3.5 8-5.7 10.8-3.7 4.8-8.2 7.2-13.4 7.2-4.9 0-8.8-1.9-11.8-5.8-.4-.5-.8-1-1.1-1.5-2.4-3.8-3.6-8.6-3.6-14.4z" transform="matrix(.24997 0 0 .24997 -40.05 -53)"/><path d="M226.7 266.6c-5.8 2.9-10.6 4.3-14.5 4.4-4.5 0-7.8-.7-10-2.1-1.9-1.3-2.8-2.7-2.9-4.4 0-2.5 1.3-3.8 3.9-3.8 1.1 0 4.4.9 10.1 2.5 4.6 1.2 9 2.4 13.4 3.4zm-18.3 165.1c-2.3 1.9-5.1 2.8-8.3 2.8-3 0-5.5-1.4-7.5-4.1h.1c-1.8-2.5-2.7-5.5-2.7-9.1.1-12.7 9.2-24.8 27.5-36.4l-4.9 37.3h-.1c-.4 4.3-1.8 7.5-4.1 9.5zm334.2 6c-1.7 2.7-4.2 4-7.5 4-3.4 0-6-1-8-3h0c-2-2.1-3-5.2-3-9.4v0c.5-11.4 9-21.7 25.5-30.9l-2.5 20.9c-1.2 9.1-2.7 15.3-4.5 18.4z" style="fill:none;stroke:#fff;stroke-width:.4999;stroke-linecap:round;stroke-linejoin:round;stroke-miterlimit:10" transform="matrix(.24997 0 0 .24997 -40.05 -53)"/><path d="M456.3 220.8c-8.1 4-13.5 12.9-16.3 26.6-.3 1.4-.5 2.8-.8 4.3-.1 1-.3 2-.4 3-1.9 16.4-3.6 30.8-5.1 43.3-1.2 9.9-2.2 18.6-3 26-.6 5.3-1.1 10-1.5 14-.1.9-.2 1.8-.2 2.6-2.2 4.5-4.6 8.6-7.4 12.2-5.6 7.5-11.7 11.3-18.2 11.4-5.1-.1-7.6-3.1-7.6-9.1 0-1.3.6-6.9 1.8-17.1.3-2.2.6-4.7.9-7.4.2-2.2.5-4.4.8-6.6.5-4.3 1-8.8 1.5-13.3 4.8-4.3 9.2-8.5 13-12.8 14.3-15.6 22.1-31.1 23.5-46.4 0-.4.1-.7.1-1.1.1-1.1.2-2.1.2-3.2v-1.5c0-19.1-10.2-28.7-30.8-28.7-6.1 0-11.3 1.2-15.6 3.6-8.1 4-13.5 12.9-16.3 26.6-.3 1.4-.5 2.8-.8 4.3-.1 1-.3 2-.4 3-1.9 16.4-3.6 30.8-5 43.3-.2 2.2-.5 4.3-.7 6.3-1.1-2.2-2.3-4.3-3.8-6.3-1.7-2.3-3.6-4.5-5.7-6.5-9.3-9-20.9-13.5-34.9-13.5-18 0-32.8 5.6-44.4 17l-3 3c-6.5 7.2-10.7 15.9-12.9 26-.2.9-.4 1.8-.5 2.8-3.1 1.4-6.5 3-10.1 4.6l10.4-72.2c.4-3 1-5.5 2-7.6.5-1.3 1.2-2.4 1.9-3.3.3-.4.5-.7.8-1 1.3-1.4 2.6-2.2 4-2.3 1.9 0 3.9.4 6 1.3.4.2.9.2 1.4.1.4-.1.8-.3 1.1-.7.3-.3.5-.7.5-1.2.1-1.4.1-2.9.1-4.5 0-7.4-2-13.8-5.9-19.3-.3-.3-.6-.5-1-.7-.3-.2-.7-.2-1.1-.1-.4 0-.8.2-1 .4-6.3 4.8-14.1 7.1-23.4 7.1-5.4 0-12.9-1.7-22.7-4.9-10.4-3.4-18.4-5.1-23.8-5.1-9.3 0-16.9 2.4-23 7.3-6.2 5-9.4 11.8-9.4 20.5 0 .7 0 1.4.1 2.1.1 1.5.3 2.9.6 4.3 1.2 5.7 4 10.6 8.5 14.5 5.9 5.3 13.7 8 23.4 8 8 0 15.7-1.3 23.2-3.8-1.3 8.6-2.6 17.8-3.9 27.8-1 8.2-2.1 16.9-3.1 26-.3 2.5-.6 5-.9 7.6h.1l-2.1 16.5c-20.4 11-34.5 22.8-42.5 35.6-5.3 8.4-7.9 17.3-7.8 26.6 0 9.2 3 17.5 9 24.9 6.1 7.5 14.3 11.3 24.6 11.3 10.1 0 19.4-3.5 27.9-10.4h.1c8.5-6.8 13.7-17.6 15.6-32.2l7-49.5c2.7-1.2 6.6-2.7 11.5-4.7.6-.2 1.2-.4 1.8-.7 1.7 9.7 6.1 18.2 13.4 25.4 4 3.9 8.7 7 13.9 9.3 7 3.1 15.2 4.6 24.5 4.6 8.3 0 15.9-1.5 22.9-4.6 6.7-2.9 12.8-7.2 18.4-12.9 2.5-2.6 4.8-5.4 6.8-8.5.7 7.4 3.3 13.4 7.9 18 1.3 1.2 2.6 2.3 4.1 3.3 4.9 3.2 11.1 4.8 18.4 4.8 8 0 15.2-1.6 21.8-4.8 1.1-.5 2.2-1.1 3.4-1.8 4.5-2.6 8.6-5.8 12.1-9.5 1.3 3 3.1 5.7 5.5 8 1.3 1.2 2.6 2.3 4.1 3.3 4.9 3.2 11 4.8 18.4 4.8 7.9 0 15.2-1.6 21.8-4.8 1.1-.5 2.2-1.1 3.4-1.8h-.1c3.8-2.2 7.3-4.8 10.3-7.7 1.1 1.7 2.5 3.3 4 4.8 1.9 1.9 4.1 3.5 6.5 4.8 3.1 1.6 6.6 2.8 10.5 3.5-10.3 10.7-15.4 21.6-15.3 32.8 0 10.3 3.2 18.1 9.7 23.6 6.3 5.3 13.9 8 22.7 8 13.6 0 23.9-4.5 31-13.6 6.9-8.7 11.2-19.8 12.8-33.3l3.2-24.5c2.3.9 4.4 2.1 6.3 3.6 7.1 5.4 11.6 14.4 13.7 27 .1.5.4 1 .8 1.4.5.3 1 .5 1.5.4.5-.1 1-.3 1.4-.8 5.3-6.4 8.2-11 8.7-14 .1-.3.1-.5 0-.8-.8-4.9-2-9.3-3.5-13.2-5-12.6-13.9-20.4-26.7-23.2l10-78.2c0-.5-.1-1-.3-1.4-.3-.5-.7-.8-1.2-.9-3.9-1.2-8.3-1.9-13.2-1.9-2.8 0-6.5.8-11 2.5-4.7 1.9-7.8 4.4-9.2 7.7-.1.2-.2.4-.2.6-.4 2.7-.8 5.8-1.2 9.1-.9 7.2-1.9 15.8-3 26-.1.6-.1 1.3-.2 1.9-.5 4.6-1 8.6-1.3 12.1-.9 8.1-1.5 13.4-1.8 16-4 5.8-9.2 8.7-15.4 8.8-6.3-.1-9.5-3.6-9.5-10.6 0-.8.2-2.4.5-4.6l7-55.4v-.2c0-4.2-1-7.4-3-9.6-2.2-2.3-4.4-3.6-6.8-3.9-1.9-.3-4.8-.5-8.8-.5-4 0-8.4.9-13.1 2.5-.4.1-.7.3-1 .6-.3.3-.4.6-.5 1-.7 5.4-1.3 10.7-2 15.8-.6 4.9-1.2 9.6-1.8 14.3-.5 4-1 7.9-1.5 11.7-.6 4.9-1.2 9.5-1.8 14v.5c-.5 4.1-.9 7.6-1.1 10.7-.8 1.2-1.6 2.4-2.5 3.5-5.6 7.5-11.7 11.3-18.2 11.4-5.1-.1-7.6-3.1-7.6-9.1 0-1.3.6-6.9 1.8-17.1.3-2.2.6-4.7.9-7.4.2-2.2.5-4.4.8-6.6.5-4.3 1-8.8 1.5-13.3 4.8-4.3 9.2-8.5 13-12.8 14.3-15.6 22.1-31.1 23.5-46.4 0-.4.1-.7.1-1.1.1-1.1.2-2.1.2-3.2v-1.5c0-19.1-10.2-28.7-30.8-28.7-6.6.4-11.8 1.6-16 4m-63.2 3.8c3.8-2.1 8.3-3.1 13.6-3.1 12.5 0 20.5 4.1 24.2 12.2 1.5 3.3 2.2 7.4 2.2 12.1v1.5c0 .9-.1 1.9-.2 2.9 0 .5-.1.9-.1 1.4-1.5 15.3-9.9 30.7-25 46.4-3.2 3.3-6.7 6.7-10.6 10.1-.4.4-.7.8-.8 1.4-.5 5-1 9.8-1.5 14.6-.3 2.1-.5 4.1-.8 6-.3 2.9-.7 5.5-1 7.9-1.2 10.1-1.8 15.8-1.8 17.1 0 3.7.7 6.7 2 8.9 1.9 3.1 5.2 4.7 9.9 4.6 7.8.1 15-4.3 21.7-13.2 3-3.9 5.6-8.3 8-13.3.1-.2.2-.4.2-.6.1-1.1.2-2.2.4-3.4.5-4.1 1-8.7 1.6-14 .8-7.5 1.8-16.1 3-26 1.4-12.4 3.1-26.6 5-42.8.1-1.2.3-2.4.5-3.6.2-1.5.5-2.9.8-4.3 2.5-11.6 7.1-19.2 13.9-22.8v-.1c3.7-2 8.2-3 13.6-3 12.5 0 20.5 4.1 24.2 12.3 1.5 3.3 2.2 7.4 2.2 12.1v1.5c0 .9-.1 1.9-.2 2.9 0 .5-.1.9-.2 1.4-1.5 15.3-9.9 30.7-25 46.4-3.2 3.3-6.7 6.7-10.6 10.1-.4.4-.7.8-.8 1.4-.5 5-1 9.8-1.5 14.6-.3 2.1-.5 4.1-.8 6-.3 2.9-.7 5.5-1 7.9-1.2 10.1-1.8 15.8-1.8 17.1 0 3.7.7 6.7 2 8.9 1.9 3.1 5.2 4.7 9.9 4.6 7.8.1 15-4.2 21.7-13.1 1-1.3 2-2.7 3-4.2.2-.3.3-.6.4-1 .2-3.1.6-6.8 1.1-11 0-.4.1-.7.1-1.1.6-4.5 1.2-9.1 1.8-14 .4-3.6.9-7.4 1.4-11.2.6-4.8 1.2-9.7 1.8-14.8.6-4.5 1.1-9.1 1.8-13.9 3.7-1.2 7.2-1.9 10.4-1.9 3.6 0 6.3.1 8.1.5 1.4.2 2.9 1.1 4.2 2.5.4.4.7.9 1 1.5.1.2.2.5.3.7.5 1.2.7 2.7.7 4.4l-7 55.1c-.3 2.5-.5 4.2-.5 5.1 0 3.9.7 7.1 2.1 9.5 2.2 3.7 6.1 5.5 11.7 5.5 7.8 0 14.2-3.6 19.2-11 .2-.3.3-.6.4-1 .3-2.4 1-8.1 2-17.1.4-3.4.8-7.3 1.3-11.6.1-.8.1-1.6.2-2.4 1.1-10.2 2.1-18.9 3-26 .4-3 .8-5.7 1.1-8.2 1.1-2.2 3.3-4 6.8-5.3 3.8-1.5 7-2.2 9.4-2.2 3.7 0 7 .4 10.2 1.1l-.2 1.4-9.8 77c-.1.6 0 1.1.4 1.5.1.2.2.3.3.4.3.2.6.4 1 .5 11.4 2.1 19.6 8.3 24.5 18.7l.3.6c1.7 3.9 3 8.4 3.9 13.4-.5 1.9-2 4.4-4.5 7.8-.1.2-.2.3-.3.5-1-4.5-2.3-8.5-4-12.1-1.7-3.7-3.9-6.9-6.3-9.5-3.8-4.1-8.5-6.9-14-8.6-.4-.2-.9-.2-1.2 0-.4.1-.8.3-1 .6-.3.3-.5.7-.5 1.1l-3.5 27.2c-1.5 12.6-5.5 23-12 31.1-6.3 7.9-15.5 11.9-27.6 11.9-7.8 0-14.4-2.3-20-6.9-2-1.7-3.6-3.7-4.9-6-2.1-3.9-3.2-8.7-3.2-14.3.1-11.2 5.8-22.1 17.1-32.8.4-.4.6-.9.7-1.5v-.2c0-.5-.2-.9-.5-1.3-.2-.3-.5-.5-.8-.6-.2-.1-.4-.1-.7-.1-7.9-.7-14.1-3.3-18.9-7.7-1.9-1.8-3.4-3.8-4.5-6.1-.2-.4-.6-.8-1-1-.5-.2-.9-.3-1.4-.2-.5.1-.9.3-1.1.6-3.2 3.5-7 6.5-11.4 9-4.8 2.8-10.1 4.7-15.8 5.5-2.3.3-4.7.5-7.1.5-2.2 0-4.2-.2-6.3-.5-5.3-.9-9.7-3-13.2-6.3-1.4-1.4-2.6-3-3.6-4.8-.8-1.4-1.4-2.9-1.9-4.5 0-.2-.1-.4-.1-.5-.2-.5-.5-.9-.9-1.2-.5-.3-1-.4-1.5-.3-.5.1-1 .3-1.4.8-3.7 4.5-8.1 8.3-13.4 11.4-4.8 2.8-10.1 4.7-15.8 5.5-2.3.3-4.7.5-7.1.5-2.2 0-4.3-.2-6.3-.5-5.3-.9-9.7-3-13.2-6.3-1.4-1.4-2.6-3-3.5-4.8-2.2-3.9-3.2-8.7-3.2-14.3 0-.4.1-1.9.4-4.5v-.4c0-.4-.1-.7-.4-1-.3-.5-.7-.8-1.2-.9-.5-.1-1-.1-1.5.1s-.8.5-1 1c-2.5 5.7-6 10.7-10.3 15.2-9.2 9.3-20 14.6-32.5 15.9-1.9.2-3.8.2-5.7.2-2.1 0-4.2-.1-6.3-.2-11.9-1-21.5-5.2-29-12.4-3.3-3.3-6-6.8-8.1-10.7-2.3-4.5-3.8-9.3-4.5-14.6v-.2c-.1-.5-.3-.9-.5-1.1-.3-.4-.7-.6-1.1-.7-.5-.1-.9-.1-1.4.1-1.4.6-2.8 1.1-4.2 1.7-5.6 2.3-9.8 4-12.6 5.2-.4.1-.6.4-.9.7-.3.3-.4.6-.5 1l-7.2 50.8c-1.8 13.3-6.5 23.1-14.1 29.4-7.7 6.2-16.1 9.4-25.2 9.4-8.9 0-16-3.2-21.2-9.7-1.6-1.9-2.9-4-4.1-6.1-2.6-5-4-10.4-4-16.2.1-9.3 3-18.1 8.9-26.6 8-11.5 21.3-22.2 40-32.1.3-.2.6-.4.8-.7.2-.3.3-.6.4-1l2.2-17.6.9-8.1c1-9.1 2.1-17.8 3.1-26 1.4-11.1 2.9-21.3 4.4-30.8v-.5c0-.4-.1-.7-.3-1-.3-.4-.7-.7-1.1-.9-.5-.2-1-.1-1.5 0-8 3.2-16.3 4.9-25.1 4.9-8.4 0-15.3-2.3-20.6-6.9-2-1.7-3.6-3.7-4.8-5.9-.9-1.7-1.6-3.5-2.1-5.4-.3-1.4-.5-2.8-.6-4.3-.1-.7-.1-1.4-.1-2.1 0-7.2 2.5-12.9 7.8-17.1h.1v.1c5.3-4.2 12.1-6.4 20.3-6.4 5.1 0 12.6 1.6 22.5 4.9 10.3 3.4 18.3 5.1 24 5.1 9.4 0 17.4-2.2 24.1-6.7.3.5.6 1 .9 1.6.2.3.3.7.5 1 1.7 3.7 2.5 7.9 2.5 12.4v1.4c-1.7-.4-3.3-.6-4.8-.6-2.8-.1-5.5 1.5-8.2 4.9-.4.5-.8 1-1.1 1.6-.8 1.2-1.5 2.7-2 4.3-.7 2-1.2 4.4-1.5 7l-11 76.1c-.1.5 0 1 .2 1.5.1.2.3.4.5.5.2.1.4.3.7.4.5.1 1 .1 1.5-.1 5.6-2.5 10.5-4.7 14.9-6.8.3-.1.6-.4.9-.6.2-.3.3-.6.4-1 .2-1.6.5-3.1.9-4.5 2.3-10.3 7.1-18.9 14.4-25.9l.1-.1c10.9-10.5 24.6-15.7 41.4-15.7 12.7 0 23.4 4.1 31.9 12.3 1.1 1.1 2.2 2.2 3.1 3.4 2.3 2.7 4.2 5.6 5.7 8.7 1.1 2.4 2 4.9 2.6 7.5.1.4.3.7.6 1 .1 0 .1.1.2.1.4.3.9.5 1.5.5.5-.1 1-.3 1.4-.6.3-.4.5-.8.6-1.3.5-4.9 1.1-10.3 1.8-16 1.4-12.4 3.1-26.6 5-42.8.1-1.2.3-2.4.5-3.6.2-1.5.5-2.9.8-4.3 2-11.6 6.6-19.2 13.4-22.8m155.2 157c-.6-.2-1.1-.1-1.5.2-2.2 1.1-4.2 2.2-6.1 3.4-15.9 9.5-23.9 20.2-24.1 32.2 0 3.1.4 5.8 1.3 8 .7 1.6 1.6 3 2.8 4.1 2.6 2.7 6.2 4.1 10.7 4.1 4.6 0 8.2-1.9 10.7-5.8 2.1-3.3 3.8-10 5.1-19.9l2.8-24c0-.6-.1-1.1-.4-1.5-.1-.2-.3-.3-.4-.5l-.9-.3m-27.4 35.9v-.1c.5-11 8.6-21 24.3-29.9l-2.2 19.9c-1.2 9.1-2.7 15.2-4.6 18.2-1.6 2.5-4 3.7-7 3.7-3.2 0-5.8-.9-7.7-2.9-1.9-1.9-2.8-4.9-2.8-8.9m-303.7-49.2c-.3-.2-.6-.4-.9-.5-.5-.1-1 0-1.5.2-9.2 5.5-16.4 11.2-21.7 17.1-7.1 7.9-10.6 16-10.5 24.4 0 3 .5 5.7 1.6 8.1.5 1.1 1.1 2.2 1.9 3.2 2.8 3.8 6.3 5.7 10.5 5.6 4 0 7.6-1.2 10.6-3.6h.1c3-2.5 4.8-6.4 5.5-11.9l5.4-40.7c.1-.6-.1-1.1-.4-1.5-.3-.1-.5-.3-.6-.4m-8.8 42c-.5 4.2-1.8 7.2-4 9.1-2.2 1.8-4.9 2.7-7.9 2.7-2.8 0-5.1-1.3-7-3.9-1.7-2.5-2.6-5.4-2.6-8.8.1-8.4 4.2-16.5 12.3-24.4 3.8-3.7 8.4-7.4 14-11l-4.8 36.3zm20.1-158.6c-.1-.1-.1-.3-.3-.4-.3-.3-.7-.6-1.1-.7-4.2-1-8.5-2.1-12.8-3.2-1.5-.4-3.1-.8-4.6-1.2-6.2-1.8-10-2.7-11.2-2.6-3.6 0-6 1.3-7 3.9-.4 1-.6 2.3-.6 3.7v.6c.1 1.3.5 2.5 1.2 3.6.8 1.2 1.9 2.3 3.4 3.3 2.6 1.8 6.6 2.8 12 2.8 5.2 0 11.9-2.2 20.1-6.8.4-.2.6-.5.9-.9.2-.3.2-.7.2-1v-.2c0-.4-.1-.7-.2-.9m-33.1 0c0-.2 0-.4-.1-.6 0-2.2 1.1-3.2 3.3-3.2 1 0 4.4.9 10 2.5h.1c1.7.5 3.5.9 5.2 1.4 2.3.6 4.5 1.1 6.8 1.7-5.1 2.4-9.4 3.6-12.9 3.7-4.3 0-7.5-.7-9.6-2-1.6-1.2-2.5-2.3-2.8-3.5m123.9 44c-3.4 0-6.5.8-9.4 2.4-3.7 2.1-6.9 5.6-9.8 10.4-2.7 4.5-4.7 9.7-6 15.6-1 4.3-1.6 9-1.9 14v1c0 8 1.5 14.7 4.4 20.2.3.6.7 1.2 1 1.8 3.8 6.1 9.5 9.2 17.3 9.2 7.7.1 14.2-4.1 19.4-12.5 3.7-5.9 6-12.5 6.9-19.8.3-2.5.5-5.1.5-7.7 0-2.2-.1-4.3-.2-6.3-.5-6.1-1.8-11.4-3.8-15.7-.4-.9-.8-1.7-1.2-2.5-1.9-3.5-4.4-6.1-7.4-7.8-2.8-1.5-6.1-2.3-9.8-2.3m13.4 12.3c2.4 4.3 3.9 9.6 4.5 16.1.2 2 .2 4.1.2 6.3 0 2.6-.2 5.2-.5 7.7-.9 6.4-3 12.2-6.2 17.5-4.2 6.9-9.4 10.3-15.7 10.5-6.1 0-10.7-2.4-13.7-7.2-3.2-5.2-4.8-11.7-4.8-19.6v-1.1c.3-5.1.9-9.7 2-14 1.2-5 3-9.5 5.3-13.4 4.2-7 9.3-10.6 15.4-10.7 6.1-.1 10.6 2.6 13.5 7.9m135.4-56.3c-.6 3.5-1.1 7.7-1.6 12.7-.9 9.1-1.5 14.8-1.8 17v.1l-.6 6.6c0 .4.1.9.4 1.3.1.2.3.4.5.5.1.1.3.2.5.3.4.2.9.2 1.4.1.4-.1.8-.3 1.1-.6 12.7-13.9 19.5-26.5 20.4-37.9.1-1 .1-1.9.1-2.9v-1.4c-.1-2.3-.5-4.2-1.1-5.8-1.5-3.7-4.4-5.5-8.8-5.4h-.1c-4.4.3-7.3 3-8.6 8.1-.2.9-.5 1.9-.8 3.1-.5 1.2-.7 2.6-1 4.2m5.7-6.3c.8-2.9 2.3-4.6 4.8-4.9 3.3.2 5.1 2.5 5.4 6.9v1.4c0 1-.1 1.9-.1 2.9-.9 9-5.9 19-14.9 30 .3-2.3.9-7.9 1.9-16.9.5-5.2 1.1-9.6 1.7-13.1.3-1.6.6-3 .9-4.3 0-.8.1-1.4.3-2m-60.6-9.2h-.1c-4.4.3-7.3 2.9-8.6 8.1-.3.9-.5 1.9-.8 3.1-.3 1.3-.5 2.7-.8 4.3-.6 3.5-1.1 7.7-1.6 12.7-.9 9.1-1.5 14.8-1.8 17v.1l-.5 6.6c-.1.4 0 .9.3 1.3.1.2.3.4.5.5.2.1.3.2.5.3.4.2.9.2 1.4.1.4-.1.8-.3 1.1-.6 12.7-13.9 19.5-26.5 20.4-37.9.1-1 .1-1.9.1-2.9v-1.4c-.1-2.3-.5-4.2-1.1-5.8-1.7-3.8-4.6-5.6-9-5.5m-4.5 9.2c.7-2.9 2.3-4.6 4.7-4.9 3.3.2 5.1 2.5 5.4 6.9v1.4c0 1-.1 1.9-.1 2.9-.9 9-5.9 19-14.9 30 .3-2.3.9-7.9 1.8-16.9.5-5.2 1.1-9.6 1.7-13.1.3-1.6.6-3 .9-4.3.1-.8.3-1.4.5-2m323.9-22.8c-.4.3-.7.6-.9 1.1-.2.4-.2.8-.1 1.2 1.4 6.4 2.2 13.9 2.2 22.5V251.7c-.2 13.7-1.5 29.2-4 46.4-1 6.7-2.1 13.6-3.4 20.8-.3 1.8-.7 3.5-1.1 5.2-1.1 5-2.5 9.7-4 14-1.6 4.7-3.5 8.9-5.6 12.8-4.2 7.8-9 11.8-14.3 12-5.8-.1-8.8-3.6-8.8-10.5 0-3.9.3-8.6 1-14.2.5-4.2 1.1-8.9 2-14 .4-2.7.9-5.5 1.5-8.5.6-3.7 1.5-9.5 2.7-17.6 1.6-11.2 3.7-26.7 6.3-46.4.2-1.4.4-2.8.6-4.3.4-3.3.9-6.7 1.3-10.2v-.1l.2-2.8v-.1c.1-8.7-5.2-13.1-16.1-13.1-7 0-13 1.2-18 3.5-.4.1-.7.4-.8.7-.2.3-.4.6-.4.9l-14 109.8-.3 2.1c-2.5 16.1-8.1 24.3-16.9 24.6-6.1-.2-9.2-4.3-9.2-12.5 0-2.4.4-6.5 1.2-12v-.1c.6-4 1.3-8.7 2.1-13.9.3-2.3.7-4.7 1-7.2 1-7.3 1.8-13.5 2.7-18.8.1-.8.2-1.5.3-2.2.8-5.8 1.5-11.1 2.2-15.9.7-5 1.3-8.9 1.8-11.9v-.2c.4-2.9.8-5.6 1.2-8.1.3-2.4.6-4.2.8-5.5.2-1 .3-1.9.4-2.8v-.8c.1-.8.1-1.4.2-1.8.1-.6.1-1.1.1-1.5v-.3c-.1-20.1-10.3-30.2-30.6-30.2-9.2 0-17.1 2.8-23.6 8.4-6.3 5.4-9.6 12.7-9.8 21.8v1c0 1.1 0 2.2.1 3.4 1.1 12.9 8.7 24.7 23 35.3l-7.9 60c-.3 2.7-.4 4.8-.4 6.1 0 10.6 3.1 19.1 9.2 25.5 1.9 2 4 3.7 6.5 5.1 5.2 3.1 11.7 4.6 19.4 4.6 8.1 0 15.3-1.5 21.6-4.6 5.6-2.8 10.5-6.9 14.5-12.2 3.2 5.3 7.2 9.4 12.2 12.2 5.4 3.1 11.7 4.6 19.1 4.6 8.5 0 15.9-1.5 22.3-4.6 5.1-2.4 9.6-5.9 13.4-10.3 4-4.7 7.5-9.6 10.7-14.8 1.1-2.1 2.2-4.4 3.3-6.9 2 8.7 6.3 16.3 13 22.8 4 3.9 8.6 7 13.8 9.3 7 3.1 15.2 4.6 24.5 4.6 8.3 0 15.9-1.5 22.9-4.6 6.7-2.9 12.8-7.2 18.4-12.9 6-6.2 10.4-13.5 13.2-21.9-.2 1.4-.2 3.4-.2 6.1 0 9.5 2.3 17.3 6.9 23.6 1.5 2 3.2 3.7 5.2 5.1 4.5 3.1 10.2 4.6 17.2 4.6s13.2-1.5 18.5-4.6c2.3-1.3 4.4-2.9 6.5-4.8 6.6-6.1 10-15.1 10-27 0-4.8-.7-9.4-2.1-13.9-1.5-4.8-3.9-9.5-7.1-14-3.6-4.9-8.1-9.6-13.7-14.2 2.9-5.6 6.6-8.5 11.2-8.6 4.5 0 6.7 2.5 6.7 7.4 0 1.4-.1 2.8-.4 4.2-.1.4-.1.9.1 1.2.2.4.5.7.8 1 .3.2.7.3 1.2.4h.8c6.5 0 11.8-1.7 15.8-5.2 3.8-3.2 5.9-7.3 6.2-12.2v-1.5c0-5.7-2.1-10.2-6.2-13.6-3.9-3.3-9.4-5-16.5-5-8.1 0-14.9 2.5-20.6 7.6-1.5-5.1-6.5-7.6-14.9-7.6-5.6 0-11.1.8-16.5 2.5-.4.1-.8.3-1 .7-.3.3-.4.7-.5 1.1l-4.2 36.7c-.8-7.8-3.5-14.8-8-21-1.6-2.3-3.5-4.4-5.7-6.5-9.3-9-20.9-13.5-34.9-13.5-18 0-32.8 5.6-44.4 17l-3 3c0 .1-.1.1-.1.1v-.1c2.7-18.4 4.6-33.9 5.6-46.4.1-1.5.2-2.9.3-4.3.3-5.2.5-9.8.5-13.8 0-11.1-4.7-16.7-14.2-16.6-8.5.2-15.9 2.1-22 5.8m5.5 29.1V247.4c-.1-8.3-.7-15.6-2-21.9 5.2-2.8 11.4-4.2 18.5-4.2 4.4.1 7.4 1.9 8.8 5.6.7 1.8 1.1 4 1.1 6.7 0 4-.2 8.6-.5 13.8-.1 1.4-.2 2.8-.3 4.3-1 12.5-2.8 28-5.6 46.4-.1 1-.3 2.1-.5 3.1-.3 1.6-.5 3.2-.7 4.8-.1.5 0 .9.3 1.4.1.2.3.4.5.6.2.1.4.3.7.4.5.2.9.2 1.4 0 .5-.2.9-.5 1.2-1 2.1-3.4 4.6-6.5 7.6-9.3l.1-.1c10.8-10.5 24.6-15.7 41.4-15.7 12.7 0 23.4 4.1 31.9 12.3 1.1 1.1 2.2 2.2 3.2 3.4 2.3 2.7 4.2 5.7 5.7 8.8 2.5 5.2 3.7 11 3.8 17.3v.3c0 4.8-.4 9.4-1.2 13.7-2 11.8-6.9 21.7-14.5 29.7-9.2 9.3-20 14.6-32.5 15.9-1.9.2-3.8.2-5.7.2-2.1 0-4.2-.1-6.3-.2-11.9-1-21.6-5.2-29-12.4-3.3-3.3-6-6.8-8.1-10.7-2.8-5.3-4.3-11.2-4.7-17.6 0-.5-.2-.9-.5-1.4-.4-.4-.8-.6-1.3-.6-.5-.1-1 0-1.4.2-.5.2-.8.6-.9 1.1-1.9 5.4-3.9 10-6.1 13.9-3 4.9-6.3 9.6-10.1 14.2-6.7 7.7-15.6 12-26.7 13.1-1.9.2-3.8.2-5.8.2-1.7 0-3.3-.1-4.9-.2-11-1.3-19.1-7-24.2-17.3-.3-.5-.6-.8-1.1-1-.5-.3-1-.3-1.5-.1-.5.1-.9.4-1.2.9-6.7 10.3-16.3 16.1-28.9 17.4-1.8.2-3.7.2-5.6.2-1.8 0-3.5-.1-5-.2-7.4-.8-13.3-3.5-17.7-8.1-1.6-1.7-3-3.7-4.2-5.8-2.5-4.7-3.8-10.2-3.8-16.7 0-1.3.1-3.1.3-5.6l8.1-61.3v-.4c0-.3-.1-.5-.2-.8-.2-.4-.4-.6-.7-.9-8.5-6.1-14.5-12.7-18.2-19.6-2.2-4.1-3.5-8.4-4-12.9-.1-1.1-.2-2.2-.2-3.4v-1c.2-7.7 3-13.9 8.3-18.5 5.7-4.9 12.7-7.3 20.8-7.3 12.1 0 20 4.1 23.8 12.5 1.6 3.7 2.5 8.1 2.5 13.4v1.1c-.1.5-.2 1.2-.2 2.1 0 .4-.1.7-.2 1.1-.1.6-.1 1.3-.2 2-.2 1.3-.5 3.2-.8 5.6-.4 2.4-.8 5.1-1.2 8.1-.5 3-1.1 7-1.8 12-.7 4.8-1.5 10.1-2.3 15.9-.1.9-.3 1.9-.5 2.9-.7 5.1-1.5 11.2-2.5 18.2-.4 2.7-.8 5.3-1.1 7.8-.7 5-1.4 9.4-2 13.2 0 .3-.1.5-.2.8-.8 5.6-1.2 9.6-1.2 12 0 4.8.8 8.6 2.4 11.3 2.2 3.7 5.9 5.6 11.1 5.5 11.3.2 18.4-9.4 21.2-28.9.1-.5.2-1 .2-1.5l13.8-108.4c4.3-1.8 9.4-2.7 15.2-2.7 6.1 0 9.9 1.9 11.2 5.6.3.9.5 1.9.5 3l-.2 2.7.1-.1c-.5 3.7-1 7.2-1.4 10.7-.2 1.5-.4 2.9-.6 4.3-2.6 19.8-4.8 35.3-6.4 46.4-1.1 7.7-1.9 13.3-2.5 16.8-.6 3.2-1.1 6.3-1.5 9.2-.8 5.1-1.5 9.8-2 14-.6 5.6-1 10.3-1 14.2 0 4 .7 7.3 2.2 9.6 2.1 3.5 5.8 5.3 11 5.2 6.8.2 12.9-4.6 18.1-14.3 2.4-4.4 4.6-9.4 6.4-14.9 1.5-4.3 2.8-9 3.9-14l.9-4.5c1.4-7.4 2.5-14.6 3.5-21.5 2.4-16.6 3.8-32.1 3.9-45.8m121.1 103.2c0-2.6.1-4.5.2-5.8l7.4-64.8c4.6-1.3 9.2-2 13.9-2 5.9 0 9.5 1.7 10.7 5.2.3.7.4 1.6.5 2.5v.5c0 .5.1.9.3 1.2.1.2.3.3.5.5s.4.3.6.4c.4.1.8.1 1.2 0 .4-.2.8-.4 1.2-.7 5.4-6.3 12.2-9.5 20.5-9.5 5.9 0 10.5 1.3 13.8 4 1.6 1.3 2.8 2.9 3.5 4.8.7 1.7 1 3.5 1 5.5 0 .5 0 1-.1 1.5-.3 3.5-1.9 6.5-4.7 8.9-2.8 2.3-6.3 3.6-10.5 4h-.9c.1-.8.1-1.5.1-2.4 0-2.3-.3-4.3-1-5.9-.9-2.2-2.3-3.7-4.3-4.7-1.6-.7-3.5-1.1-5.8-1.1-2.1 0-4 .3-5.8 1.1-4 1.7-7.4 5.6-10.2 11.5-.2.5-.2 1-.2 1.5.1.5.4.9.8 1.2 4.9 3.8 9 7.8 12.2 11.9 2.6 3.2 4.7 6.5 6.3 9.9.6 1.4 1.2 2.7 1.7 4.1 1.6 4.5 2.4 9.1 2.4 13.9 0 10.4-2.9 18.3-8.7 23.8-4.8 4.4-10.5 7.1-17.3 7.9-1.5.2-3.1.2-4.7.2s-3.1-.1-4.5-.2c-6.4-.8-11.2-3.4-14.5-7.7-.7-1-1.4-2.1-2-3.2-2.2-5.1-3.6-11.1-3.6-18m43-16.4c-.1-.1-.2-.3-.2-.5-2.3-4.7-5.8-9.3-10.6-14-.4-.4-.9-.6-1.5-.6-.5 0-1 .1-1.5.5 0 0-.1 0 0 0-.4.4-.6.8-.7 1.3-.6 4.8-1.1 9-1.6 12.7-1.6 12.6-2.4 18.9-2.4 19.1 0 3.3.6 5.9 1.8 7.7 1.6 2.5 4.2 3.7 7.8 3.6 7.8.3 11.8-5.6 11.8-17.6 0-3.9-.9-8.1-2.9-12.2m-11.8-.4c.3-2.3.6-4.9 1-7.7 2.3 2.6 4.2 5.1 5.6 7.7 2.4 4.3 3.7 8.5 3.7 12.8 0 8.6-2.5 13-7.4 13.2-3.5-.1-5.3-2.5-5.3-7 .1-.1.9-6.5 2.4-19M614.6 244c0-2-.2-3.7-.7-5-.2-.6-.5-1.2-.8-1.6-1.2-1.8-3.1-2.8-5.5-2.8-3.6 0-6.2 1.3-7.8 4.1-1.6 2.4-2.4 5.1-2.4 8.2v.5c0 1.4.2 2.9.5 4.3.5 2 1.3 4 2.3 6 1.9 3.6 4.8 7.2 8.7 10.9.4.4.9.6 1.4.6.5 0 1-.2 1.5-.5.4-.4.7-.9.8-1.4l1.1-8.6c.3-2.3.5-4.6.6-6.9.1-1.4.2-2.9.2-4.3 0-1.3.1-2.4.1-3.5m-5.1-4.2c.6.9.8 2.3.8 4.2v3.4c-.1 1.4-.2 2.9-.2 4.3-.2 2.1-.4 4.2-.6 6.4l-.5 4.2c-3.2-3.6-5.3-7.1-6.4-10.6-.4-1.4-.7-2.9-.8-4.3v-.5c0-2.2.5-4.1 1.7-5.8.9-1.4 2.3-2 4.2-2 .7-.1 1.3.2 1.8.7m169.2 99.3c0 8.1 1.5 14.9 4.4 20.4.3.6.7 1.2 1 1.7 3.8 6.1 9.6 9.2 17.3 9.2 7.8.1 14.2-4.1 19.3-12.5 3.7-5.9 6-12.5 7-19.8.3-2.5.5-5.1.5-7.7 0-2.2-.1-4.3-.2-6.3-.5-6.1-1.8-11.4-3.9-15.7-.4-.8-.8-1.7-1.2-2.5-1.9-3.5-4.4-6.1-7.3-7.8-2.8-1.6-6.1-2.4-9.8-2.4-3.4 0-6.5.8-9.3 2.4-3.7 2.1-6.9 5.6-9.8 10.4-2.7 4.5-4.7 9.7-6 15.6-1 4.3-1.6 9-1.8 14-.2.3-.2.6-.2 1m4.3 0v-1c.2-5.1.9-9.7 2-14 1.2-5 2.9-9.5 5.2-13.4 4.2-7 9.3-10.6 15.5-10.7 6.1 0 10.5 2.6 13.5 8 2.4 4.2 3.8 9.6 4.4 16.1.2 2 .3 4.1.3 6.3 0 2.6-.2 5.2-.5 7.7-.9 6.4-3 12.2-6.2 17.5-4.2 6.9-9.4 10.4-15.7 10.5-6.1 0-10.6-2.4-13.6-7.2-3.2-5.2-4.8-11.7-4.8-19.6-.1-.1-.1-.1-.1-.2m333.8-119.3c-2.7-1.7-6.9-2.6-12.4-2.6-5.3 0-9.9.9-13.8 2.8-4.2 2-6.8 4.4-7.8 7.3-.1.2-.1.3-.1.6l-6.3 52.2c-4.7-1.3-9.7-2-14.9-2h-1.3c-17.7 0-32.3 5.9-43.9 17.6-.8.8-1.5 1.6-2.3 2.4-6.4 7.2-10.8 15.9-13.1 26-1 4.4-1.7 9.1-1.9 14-.1 1.5-.1 3-.1 4.5 0 1.3 0 2.6.1 3.9-1.3 2.2-2.8 4.4-4.2 6.4-5.6 7.5-11.7 11.3-18.2 11.4-5.1-.1-7.6-3.1-7.6-9.1 0-1.3.6-6.9 1.8-17.1.3-2.2.6-4.7.9-7.4.2-2.2.5-4.4.8-6.6.5-4.3 1-8.8 1.5-13.3 4.8-4.3 9.2-8.5 13-12.8 14.3-15.6 22.1-31.1 23.5-46.4 0-.4.1-.7.1-1.1.1-1.1.2-2.1.2-3.2v-1.5c0-19.1-10.2-28.7-30.8-28.7-6.1 0-11.2 1.2-15.5 3.6-8.1 4-13.5 12.9-16.3 26.6-.3 1.4-.5 2.8-.8 4.3-.1 1-.3 2-.4 3-1.9 16.4-3.6 30.8-5 43.3-1.1 9.9-2.1 18.5-3 26-.6 5.3-1.1 9.9-1.6 14-1.4 12.4-2 19.1-2 20.1 0 9.4 2.7 16.7 8.2 22.1 1.3 1.2 2.6 2.3 4.1 3.3 4.9 3.2 11 4.8 18.4 4.8 7.9 0 15.2-1.6 21.8-4.8 1.1-.5 2.2-1.1 3.3-1.8 6-3.5 11-7.8 15.2-13.1 1.6 2.5 3.5 4.8 5.6 7 3.4 3.3 7.1 5.9 11 7.9 6 3.1 12.8 4.6 20.2 4.6 6.9 0 13.1-1.5 18.7-4.6 3.6-2 6.8-4.6 9.8-7.9 2 3.3 4.7 5.9 7.9 7.9 4.8 2.9 10.9 4.4 18.4 4.4 4.7 0 9.8-1.3 15.2-3.9h.1c.3-.2.6-.3.9-.5 11.3-5.4 19.5-16.8 24.7-34.3.1-.4.1-.9-.1-1.3-1.2-3.5-3-6.8-5.6-10-1-1.3-2.2-2.6-3.4-3.8-.4-.4-.8-.6-1.3-.6s-1 .1-1.4.4c-.4.3-.7.6-.8 1.1-.3 1-.6 2-1 2.9-3 8.9-6.2 15.4-9.7 19.5-3.5 4.1-6.9 6.3-10.2 6.4-2.9-.1-4.3-2-4.3-5.6 0-2.3.7-9 1.9-20.3.5-4.1 1.1-8.7 1.7-14 .9-7.5 2-16.1 3.2-26 .9-7 2-14.7 3.1-23 1.1-8.6 2.1-16.5 3.1-23.5.2-1.5.4-2.9.6-4.3 1.4-10.6 2.5-19.1 3.4-25.5 0-.5 0-.9-.2-1.2-.4 0-.7-.3-1.1-.5m-12.4 1.8c3.8 0 6.8.4 8.9 1.3-.1.4-.1.8-.2 1.2-.8 6.2-1.8 13.9-3.1 23.3-.2 1.4-.4 2.8-.6 4.3-.9 6.9-1.9 14.5-3 22.9-1.1 8.5-2.2 16.3-3.1 23.5-1.3 9.9-2.3 18.5-3.2 26-.6 5.3-1.2 9.9-1.7 14-1.3 11.2-1.9 18-1.9 20.3 0 2.9.5 5.1 1.6 6.8 1.4 2.2 3.7 3.2 7 3.2 4.4.1 8.8-2.5 13.4-7.9 3.7-4.3 7.1-11.1 10.3-20.4 1.9 2.2 3.4 4.6 4.6 7 .3.6.5 1.2.8 1.8-4.9 16.1-12.6 26.6-23.1 31.4h-.1c-4.2 2-8.2 3.2-11.9 3.5h-3.7c-10.7-.5-17.9-4.7-21.6-12.6-.3-.5-.6-.8-1.1-1-.5-.2-.9-.2-1.4-.1-.5.1-.9.3-1.2.8-6.1 7.6-13.6 12-22.6 13.1-1.5.2-3 .2-4.6.2-1.7 0-3.4-.1-5-.2-9-1-16.7-4.6-23.2-11h.1c-2.7-2.7-4.9-5.6-6.7-8.8-.2-.4-.6-.8-1-1-.5-.2-.9-.2-1.4 0-.5.1-.9.4-1.2.8l-.9 1.2c-4 5.4-8.9 9.8-14.8 13.3-4.8 2.8-10.1 4.7-15.9 5.5-2.3.3-4.6.5-7 .5-2.2 0-4.3-.2-6.2-.5-5.3-.9-9.7-3-13.2-6.3-1.4-1.5-2.6-3.1-3.6-4.9-2.2-3.9-3.2-8.7-3.2-14.3 0-1 .7-7.7 2.1-20.1.5-4.1 1-8.7 1.6-14 .8-7.4 1.8-16.1 3-26 1.4-12.4 3.1-26.6 5-42.8.1-1.2.3-2.4.5-3.6.2-1.5.5-2.9.8-4.3 2.5-11.6 7.1-19.2 13.8-22.8v-.1c3.7-2 8.2-3 13.5-3 12.5 0 20.6 4.1 24.3 12.3 1.5 3.4 2.2 7.4 2.2 12.1v1.5c0 .9-.1 1.9-.2 2.9 0 .5-.1.9-.2 1.4-1.5 15.3-9.9 30.7-25 46.4-3.2 3.3-6.7 6.7-10.5 10.1-.4.4-.7.8-.8 1.4-.5 5-1 9.8-1.5 14.6-.3 2.1-.5 4.1-.8 6-.3 2.9-.7 5.5-1 7.9-1.1 10.1-1.7 15.8-1.7 17.1 0 3.7.7 6.7 2 8.9 1.9 3.1 5.2 4.7 9.9 4.6 7.8.1 15-4.2 21.7-13.2 1.7-2.3 3.4-4.8 4.9-7.4.2-.4.3-.8.2-1.2-.1-1.4-.2-2.8-.2-4.2 0-1.5 0-3.1.1-4.5.3-5 .9-9.6 2-14 2.5-10 7.2-18.4 14-25.4.2-.2.4-.4.7-.6 10.7-10.5 24.1-15.7 40.2-15.7h1.3c5.7 0 11 .8 16 2.5.4.1.8.1 1.2 0 .4-.2.8-.4 1.1-.7.2-.3.4-.7.4-1.1l6.6-54.4c.9-1.8 2.8-3.4 5.6-4.8 3.4-2 7.3-2.7 11.9-2.7m-74.7 117.3c-.2 1.3-.2 2.6-.2 3.9 0 5.9 1.1 10.9 3.3 14.9.7 1.2 1.4 2.3 2.2 3.3 3.8 4.8 8.8 7.2 14.8 7.2 10.1.2 17.7-6.8 22.8-20.8 0-.2.1-.3.1-.5l5.6-46.8v-.4c0-.4-.1-.7-.3-1-.2-.4-.5-.6-.8-.8-.1 0-.1-.1-.2-.1-5.1-2-9.6-3-13.4-3-5.2 0-9.8 1-13.9 3-3.8 1.9-7.1 4.7-9.8 8.4-3.5 4.5-6.2 10.3-7.9 17.7-1 4.2-1.7 8.9-2.2 14-.1.5-.2.8-.1 1zm4.2.5v-.1c0-.4.1-.8.1-1.2.5-5.2 1.2-9.8 2.3-14 1.6-6.1 3.8-11.1 6.8-15 5-6.5 11.7-9.7 20.3-9.7 3 0 6.4.7 10.3 2l-5.4 44.8c-4.3 11.6-10.5 17.5-18.6 17.7-4.7 0-8.5-1.9-11.4-5.5-3.1-3.9-4.6-9.1-4.6-15.6 0-1.1.1-2.3.2-3.4m-47.6-103.2c-4.4.3-7.3 2.9-8.6 8.1-.2.9-.5 1.9-.8 3.1-.3 1.3-.5 2.7-.8 4.3-.6 3.5-1.1 7.7-1.7 12.7-.9 9.1-1.5 14.8-1.8 17 0 0-.1.1 0 .1l-.6 6.6c0 .4.1.9.3 1.3.1.2.3.4.5.5.1.1.3.2.5.3.4.2.9.2 1.3.1s.8-.3 1.2-.6c12.6-13.9 19.4-26.5 20.4-37.9.1-1 .1-1.9.1-2.9v-1.4c-.1-2.3-.5-4.2-1.1-5.8-1.5-3.7-4.4-5.5-8.8-5.4 0-.1 0-.1-.1-.1m-4.4 9.2c.8-2.9 2.4-4.5 4.8-4.9 3.3.2 5.1 2.5 5.4 6.9v1.4c0 1-.1 1.9-.2 2.9-.9 9-5.9 19-14.9 30 .3-2.3.9-7.9 1.8-16.9.5-5.2 1.1-9.6 1.7-13.1.3-1.6.6-3 .8-4.3.3-.8.4-1.4.6-2z" transform="matrix(.24997 0 0 .24997 -40.05 -53)"/><path d="M520.9 385.7c0 .6-.2 1.1-.7 1.5-11.3 10.7-17 21.6-17.1 32.8 0 5.6 1.1 10.3 3.2 14.3-1.6-3.6-2.4-7.8-2.4-12.7.1-11.2 5.8-22.1 17.1-32.8.4-.4.6-.9.7-1.5 0-.6-.2-1.1-.5-1.5 0-.1-.1-.1-.2-.2l-.1.1zm-247.5-159c-.3-.5-.5-1-.9-1.6-6.7 4.5-14.7 6.7-24.1 6.7-5.7 0-13.7-1.7-24-5.1-9.8-3.2-17.3-4.8-22.5-4.9-8.2 0-15 2.1-20.3 6.4l-.1-.1c-5.2 4.2-7.8 9.9-7.8 17.1 0 .7.1 1.4.1 2.1.1 1.5.3 2.9.6 4.3.5 1.9 1.2 3.7 2.1 5.4-.8-1.7-1.3-3.5-1.6-5.4l-.3-2.7c-.1-.7-.1-1.4-.1-2.1 0-7.2 2.6-12.9 7.8-17.1 5.3-4.2 12.1-6.4 20.3-6.4 5.1 0 12.6 1.7 22.5 4.9 10.3 3.4 18.3 5.1 24 5.1 9.5.1 17.6-2.1 24.3-6.6zm-43.3 40.2v.5c-1.5 9.4-2.9 19.7-4.4 30.8-1 8.2-2.1 16.9-3.1 26-.3 2.7-.7 5.4-.9 8.1l-2.2 17.6c-.1.4-.2.7-.4 1-.2.3-.4.5-.8.7-18.7 9.9-32 20.6-40 32.1-5.8 8.4-8.8 17.3-8.9 26.6 0 5.8 1.3 11.2 4 16.2-2.1-4.5-3.2-9.4-3.2-14.6.1-9.3 3-18.1 8.9-26.6 8-11.5 21.3-22.2 40-32.1.3-.2.6-.4.8-.7.2-.3.3-.6.4-1l2.2-17.6.9-8.1c1.1-9.7 2.2-18.9 3.3-27.6 1.4-10.5 2.7-20.2 4.2-29.2.1-.5 0-1-.3-1.5-.2-.3-.3-.5-.5-.6m347.5 97.4c-.4-.1-.7-.2-1-.5 0 .4.2.8.5 1.2.3.5.8.8 1.3.9 10.8 2 18.7 7.7 23.7 17.1-4.9-10.4-13.1-16.6-24.5-18.7m-26-8.2c-5 7.4-11.4 11-19.2 11-5.6 0-9.5-1.8-11.7-5.5 2 4.7 6.2 7.1 12.5 7.1 7.8 0 14.2-3.6 19.2-11 .2-.3.3-.6.4-1 .3-2.6 1-8.8 2.2-18.7.4-3 .7-6.3 1.2-10 .1-.8.1-1.6.2-2.4 1.2-11 2.2-20.2 3.2-27.6.3-2.4.6-4.6.9-6.6 1.1-2.2 3.4-4 6.8-5.3 3.8-1.5 7-2.2 9.4-2.2 3.3 0 6.3.3 9.2.9l.2-1.4c-3.1-.8-6.5-1.1-10.2-1.1-2.4 0-5.6.8-9.4 2.2-3.4 1.3-5.6 3.1-6.8 5.3-.3 2.5-.7 5.2-1.1 8.2-.9 7.1-1.9 15.8-3 26-.1.8-.2 1.5-.2 2.4-.5 4.3-.9 8.2-1.3 11.6-1 9-1.7 14.7-2 17.1-.2.4-.3.7-.5 1m-83.1 12.5c-4.7.1-8-1.5-9.9-4.6 1.7 4.2 5.3 6.3 10.7 6.2 7.8.1 15-4.2 21.7-13.1 1-1.3 2-2.7 3-4.2.2-.3.3-.6.4-1 .2-3.1.6-6.8 1.1-11.1.1-.9.2-1.8.4-2.7.5-4 1.1-8.1 1.6-12.4.4-3.6.9-7.4 1.3-11.2.6-5.3 1.3-10.7 2-16.4.5-4 1-8.1 1.6-12.3 3.7-1.2 7.2-1.9 10.4-1.9 3.6 0 6.3.2 8.1.5 1.4.2 2.8 1.1 4.2 2.5l.2-.1c-.3-.6-.6-1.1-1-1.5-1.4-1.5-2.8-2.3-4.2-2.5-1.8-.3-4.5-.5-8.1-.5-3.2 0-6.7.6-10.4 1.9-.6 4.7-1.2 9.4-1.8 13.9-.6 5.1-1.2 10-1.8 14.8-.5 3.8-.9 7.6-1.4 11.2-.6 4.9-1.2 9.5-1.8 14-.1.4-.1.7-.1 1.1-.5 4.2-.9 7.9-1.1 11 0 .4-.1.7-.4 1-.9 1.5-1.9 3-3 4.2-6.7 8.9-13.9 13.3-21.7 13.2m-112.3-72.3 1.8 1.8c2.5 2.7 4.6 5.6 6.3 8.7-1.5-3.1-3.3-6-5.7-8.7-1-1.2-2-2.3-3.1-3.4-8.5-8.2-19.2-12.3-31.9-12.3-16.7 0-30.5 5.2-41.4 15.7l-.1.1c-7.3 7-12.1 15.6-14.4 25.9l-.9 4.5c-.1.4-.2.7-.4 1-.2.3-.5.5-.9.6-4.3 2-9.3 4.3-14.9 6.8-.5.2-1 .2-1.5.1-.3-.1-.5-.2-.7-.4 0 .4.1.7.3 1 .1.1.2.2.2.3.3.3.6.5 1 .6.5.1 1 .1 1.5-.1.4-.2.7-.3 1.1-.5 5.1-2.3 9.7-4.4 13.8-6.3.3-.1.6-.4.9-.6.2-.3.3-.6.4-1 .2-1.6.5-3.1.9-4.5 2.3-10.3 7.1-18.9 14.4-25.9.6-.6 1.2-1.1 1.8-1.7 10.6-9.4 23.8-14.1 39.7-14.1 12.7.1 23.3 4.2 31.8 12.4m102.1-71.7c-.1 0-.1 0 0 0-6.8 3.7-11.4 11.2-13.9 22.8-.3 1.4-.6 2.8-.8 4.3-.2 1.2-.4 2.4-.5 3.6-1.9 16.2-3.6 30.4-5 42.8-1.1 9.9-2.1 18.5-3 26-.6 5.3-1.1 9.9-1.6 14-.1 1.2-.2 2.3-.4 3.4 0 .2-.1.5-.2.6-2.3 5-5 9.4-8 13.3-6.6 8.9-13.9 13.3-21.7 13.2-4.7.1-8-1.5-9.9-4.6 1.7 4.2 5.3 6.3 10.7 6.2 7.8.1 15-4.2 21.7-13.2 3-3.9 5.6-8.3 8-13.3.1-.2.2-.4.2-.6.2-1.6.4-3.2.5-5 .4-3.7.9-7.8 1.4-12.4.9-7.9 1.9-17.1 3.2-27.6 1.4-12 3-25.7 4.8-41.2.2-1.8.5-3.5.8-5.2.2-.9.4-1.8.5-2.7 2.5-11.6 7.1-19.2 13.9-22.8v-.1c3.7-2 8.2-3 13.6-3 11.6 0 19.4 3.6 23.4 10.7-3.7-8.2-11.7-12.3-24.2-12.3-5.3.1-9.8 1.1-13.5 3.1m-229.5 28c0 .4 0 .7-.2 1-.2.4-.5.7-.9.9-8.2 4.5-14.9 6.8-20.1 6.8-5.4 0-9.4-.9-12-2.8-1.5-1-2.6-2.1-3.4-3.3.7 1.8 2.1 3.4 4.2 4.9 2.6 1.8 6.6 2.8 12 2.8 5.2 0 11.9-2.2 20.1-6.8.4-.2.7-.5.9-.9.2-.4.3-.8.2-1.2-.1-.4-.2-.8-.5-1.1l-.3-.3m112.8 71.5c.1 2 .2 4.1.2 6.3 0 2.6-.2 5.2-.5 7.7-.9 7.2-3.2 13.8-6.9 19.8-5.2 8.4-11.6 12.6-19.4 12.5-7.8 0-13.5-3.1-17.3-9.2h-.1c.3.5.6 1.1.9 1.5 3.8 6.1 9.5 9.2 17.3 9.2 7.7.1 14.2-4.1 19.4-12.5 3.9-6.4 6.3-13.5 7.1-21.4.2-2 .3-4 .3-6.1 0-2.2-.1-4.3-.2-6.3-.6-6.9-2.1-12.7-4.6-17.3 2 4.4 3.3 9.6 3.8 15.8m123.7-34c-.2-.1-.4-.2-.5-.3 0 .3.1.7.4 1 .2.4.5.6 1 .9.4.2.9.2 1.4.1.4-.1.8-.3 1.1-.6 13.3-14.6 20.1-27.7 20.5-39.5V249c-.1-3.1-.8-5.6-1.9-7.4.6 1.6 1 3.5 1.1 5.8v1.4c0 1 0 1.9-.1 2.9-.9 11.3-7.7 23.9-20.4 37.9-.3.3-.7.6-1.1.6-.6.1-1 .1-1.5-.1m-42.2-42.7v1.4c0 1 0 1.9-.1 2.9-.9 11.3-7.7 23.9-20.4 37.9-.3.3-.7.5-1.1.6-.5.1-.9.1-1.4-.1-.2-.1-.3-.2-.5-.3 0 .4.1.7.4 1 .2.4.5.6 1 .9.4.2.9.2 1.4.1.4-.1.8-.3 1.1-.6 13.3-14.6 20.1-27.7 20.5-39.5V249c-.1-3.1-.8-5.6-1.9-7.4.6 1.6.9 3.5 1 5.8m-30-22.8c-6.8 3.7-11.4 11.2-13.9 22.8-.3 1.4-.6 2.8-.8 4.3-.2 1.2-.4 2.4-.5 3.6-1.9 16.2-3.6 30.4-5 42.8-.6 5.7-1.2 11.1-1.8 16-.1.5-.3.9-.6 1.3-.4.3-.9.5-1.4.6-.6 0-1-.1-1.5-.5h-.1c0 .1.1.3.1.4.1.5.4.9.9 1.2.4.3.9.5 1.5.5.5-.1 1-.3 1.4-.6.3-.4.5-.8.6-1.3.6-5.4 1.2-11.3 2-17.6 1.4-12 3-25.7 4.8-41.2.2-1.8.5-3.5.8-5.2.2-.9.4-1.8.5-2.7 2.5-11.6 7.1-19.2 13.9-22.8v-.1c3.7-2 8.2-3 13.6-3 11.6 0 19.4 3.5 23.4 10.7-3.7-8.2-11.7-12.3-24.2-12.3-5.4.1-9.9 1.1-13.7 3.1z" style="fill:#ff7272" transform="matrix(.24997 0 0 .24997 -40.05 -53)"/><path d="M181.7 228.2z" style="fill:#d70000" transform="matrix(.24997 0 0 .24997 -40.05 -53)"/><path d="M273.4 226.7z" style="fill:red" transform="matrix(.24997 0 0 .24997 -40.05 -53)"/><path d="M407.5 223.2c-5.3 0-9.8 1-13.6 3v.1c-6.7 3.6-11.4 11.2-13.9 22.8-.2.9-.4 1.8-.5 2.7-.3 1.7-.5 3.4-.8 5.2-1.8 15.5-3.4 29.2-4.8 41.2-.7 6.3-1.4 12.2-2 17.6-.1.5-.3.9-.6 1.3-.4.3-.9.5-1.4.6-.6 0-1-.1-1.5-.5-.4-.3-.7-.7-.9-1.2 0-.1-.1-.3-.1-.4h.1c-.1-.1-.1-.1-.2-.1-.3-.3-.5-.7-.6-1-.6-2.6-1.5-5.1-2.6-7.5-1.6-3.1-3.7-6-6.3-8.7-.6-.6-1.1-1.2-1.8-1.8-8.5-8.2-19.2-12.3-31.9-12.3-15.8 0-29.1 4.7-39.7 14.1-.6.6-1.2 1.1-1.8 1.7-7.3 7-12.1 15.6-14.4 25.9l-.9 4.5c-.1.4-.2.7-.4 1-.2.3-.5.5-.9.6-4 1.9-8.6 4-13.8 6.3-.4.2-.7.3-1.1.5-.5.2-1 .2-1.5.1-.4-.1-.7-.3-1-.6-.1-.1-.2-.2-.2-.3-.2-.3-.3-.7-.3-1-.2-.2-.4-.3-.5-.5-.3-.5-.3-1-.2-1.5l11-76.1c.3-2.6.9-5 1.5-7 .6-1.6 1.3-3.1 2-4.3.4-.6.8-1.1 1.1-1.6 2.6-3.4 5.4-5 8.2-4.9 1.5 0 3.1.2 4.8.6v-1.4c0-4.5-.9-8.7-2.5-12.4-.2-.3-.3-.7-.5-1v.1c-6.7 4.5-14.7 6.7-24.1 6.7-5.7 0-13.7-1.7-24-5.1-9.8-3.2-17.3-4.8-22.5-4.9-8.2 0-15 2.1-20.3 6.4-5.2 4.2-7.8 9.9-7.8 17.1 0 .7.1 1.4.1 2.1l.3 2.7c.3 1.9.8 3.7 1.6 5.4 1.2 2.2 2.8 4.1 4.8 5.9 5.3 4.6 12.1 6.9 20.6 6.9 8.7 0 17.1-1.6 25.1-4.9.5-.2 1-.2 1.5 0s.8.5 1.1.9c.2.3.3.7.3 1 .2.2.4.3.5.5.3.5.4 1 .3 1.5-1.4 9-2.8 18.7-4.2 29.2-1.1 8.7-2.2 17.9-3.3 27.6-.3 2.7-.7 5.4-.9 8.1l-2.2 17.6c-.1.4-.2.7-.4 1-.2.3-.4.5-.8.7-18.7 9.9-32 20.6-40 32.1-5.8 8.4-8.8 17.3-8.9 26.6 0 5.2 1.1 10 3.2 14.6 1.1 2.1 2.5 4.1 4.1 6.1 5.2 6.5 12.3 9.7 21.2 9.7 9.1 0 17.5-3.1 25.2-9.4 7.6-6.3 12.3-16.1 14.1-29.4l7.2-50.8c0-.4.2-.7.5-1 .2-.3.5-.6.9-.7 2.8-1.2 7-2.9 12.6-5.2 1.4-.6 2.8-1.1 4.2-1.7.4-.2.9-.2 1.4-.1.4.1.8.3 1.1.7.3.3.4.7.5 1.1v.2c.6 5.3 2.1 10.1 4.5 14.6 2.1 3.9 4.8 7.4 8.1 10.7 7.4 7.2 17.1 11.3 29 12.4 2.1.2 4.2.2 6.3.2 1.9 0 3.8-.1 5.7-.2 12.5-1.2 23.3-6.5 32.5-15.9 4.3-4.5 7.8-9.5 10.3-15.2.2-.5.6-.9 1-1 .5-.2 1-.3 1.5-.1.5.1.9.4 1.2.9.2.3.3.7.4 1v.4c-.3 2.7-.4 4.2-.4 4.5 0 5.6 1.1 10.4 3.2 14.3 1 1.8 2.2 3.4 3.5 4.8 3.5 3.3 7.9 5.4 13.2 6.3 2 .3 4.1.5 6.3.5 2.4 0 4.8-.2 7.1-.5 5.7-.8 11-2.7 15.8-5.5 5.3-3.1 9.7-6.9 13.4-11.4.4-.4.8-.7 1.4-.8.5-.1 1-.1 1.5.3.4.3.7.7.9 1.2.1.2.1.4.1.5.5 1.6 1.1 3.1 1.9 4.5 1 1.8 2.1 3.4 3.6 4.8 3.5 3.3 7.9 5.4 13.2 6.3 2 .3 4.1.5 6.3.5 2.4 0 4.8-.2 7.1-.5 5.7-.8 11-2.7 15.8-5.5 4.4-2.5 8.2-5.5 11.4-9 .3-.4.7-.6 1.1-.6.5-.1.9 0 1.4.2.4.2.7.6 1 1 1.1 2.3 2.6 4.4 4.5 6.1 4.7 4.4 11 7 18.9 7.7.2 0 .4.1.7.1.3.1.6.3.8.6.4.4.5.8.5 1.3v.2l.1-.1.2.2c.4.4.6.9.5 1.5 0 .6-.2 1-.7 1.5-11.3 10.7-17 21.6-17.1 32.8 0 4.8.8 9.1 2.4 12.7 1.3 2.3 2.9 4.3 4.9 6 5.5 4.6 12.2 6.9 20 6.9 12.1 0 21.3-4 27.6-11.9 6.5-8.1 10.5-18.5 12-31.1l3.5-27.2c0-.4.2-.8.5-1.1.2-.3.6-.5 1-.6.4-.2.8-.2 1.2 0 5.5 1.6 10.2 4.5 14 8.6 2.5 2.6 4.6 5.8 6.3 9.5 1.7 3.6 3.1 7.6 4 12.1.1-.1.2-.3.3-.5 2.5-3.3 4-5.9 4.5-7.8-.9-5-2.1-9.5-3.9-13.4l-.3-.6c-5-9.4-12.8-15.1-23.7-17.1-.6-.1-1-.4-1.3-.9-.3-.4-.4-.8-.5-1.2-.1-.1-.2-.2-.3-.4-.4-.5-.5-1-.4-1.5l9.8-77c-2.8-.6-5.9-.9-9.2-.9-2.4 0-5.6.8-9.4 2.2-3.4 1.3-5.6 3.1-6.8 5.3-.3 2-.6 4.2-.9 6.6-.9 7.4-2 16.6-3.2 27.6-.1.8-.2 1.6-.2 2.4-.4 3.7-.8 7-1.2 10-1.1 9.9-1.8 16.1-2.2 18.7-.1.3-.2.6-.4 1-5 7.4-11.4 11-19.2 11-6.3 0-10.5-2.3-12.5-7.1-1.4-2.4-2.1-5.6-2.1-9.5 0-.9.2-2.6.5-5.1l7-55.1c0-1.7-.2-3.2-.7-4.4-.1-.2-.2-.5-.3-.7l.5-.3c-1.4-1.5-2.8-2.3-4.2-2.5-1.8-.3-4.5-.5-8.1-.5-3.2 0-6.7.6-10.4 1.9-.5 4.2-1.1 8.3-1.6 12.3-.7 5.7-1.4 11.1-2 16.4-.5 3.8-.9 7.6-1.3 11.2-.5 4.3-1.1 8.4-1.6 12.4-.1.9-.2 1.8-.4 2.7-.5 4.2-.9 7.9-1.1 11.1 0 .4-.2.7-.4 1-.9 1.5-1.9 2.9-3 4.2-6.6 8.9-13.9 13.2-21.7 13.1-5.4.1-9-2-10.7-6.2-1.3-2.2-2-5.1-2-8.9 0-1.2.6-6.9 1.8-17.1.3-2.4.6-5 1-7.9.2-2 .5-4 .8-6 .5-4.7 1-9.6 1.5-14.6.1-.6.3-1 .8-1.4 3.8-3.4 7.4-6.7 10.6-10.1 15.1-15.7 23.5-31.1 25-46.4.1-.5.1-.9.2-1.4.1-1 .2-2 .2-2.9v-1.5c0-4.7-.8-8.8-2.2-12.1-4-7.1-11.8-10.7-23.4-10.7-5.3 0-9.8 1-13.6 3v.1c-6.8 3.6-11.4 11.2-13.9 22.8-.2.9-.4 1.8-.5 2.7-.3 1.7-.5 3.4-.8 5.2-1.8 15.5-3.4 29.2-4.8 41.2-1.2 10.5-2.3 19.7-3.2 27.6-.5 4.6-1 8.7-1.4 12.4-.2 1.8-.4 3.4-.5 5 0 .2-.1.4-.2.6-2.3 5-5 9.4-8 13.3-6.6 8.9-13.9 13.3-21.7 13.2-5.4.1-9-2-10.7-6.2-1.3-2.2-2-5.1-2-8.9 0-1.2.6-6.9 1.8-17.1.3-2.4.6-5 1-7.9.2-2 .5-4 .8-6 .5-4.7 1-9.6 1.5-14.6.1-.6.3-1 .8-1.4 3.8-3.4 7.3-6.7 10.6-10.1 15.1-15.7 23.5-31.1 25-46.4.1-.5.1-.9.1-1.4.1-1 .2-2 .2-2.9v-1.5c0-4.7-.8-8.8-2.2-12.1-4.2-7-12-10.5-23.6-10.5m5.6 13h.1c4.4-.1 7.3 1.6 8.8 5.4 1.1 1.8 1.8 4.3 1.9 7.4v2.7c-.4 11.7-7.2 24.9-20.5 39.5-.3.3-.7.5-1.1.6-.5.1-.9.1-1.4-.1-.4-.2-.7-.5-1-.9-.2-.3-.3-.7-.4-1-.2-.1-.3-.3-.5-.5-.3-.4-.4-.9-.3-1.3l.5-6.6v-.1c.3-2.2.9-7.8 1.8-17 .5-4.9 1.1-9.2 1.6-12.7.2-1.6.5-3 .8-4.3.3-1.2.5-2.2.8-3.1 1.6-5 4.4-7.7 8.9-8m53.4 28.1c.5-4.9 1.1-9.2 1.6-12.7.2-1.6.5-3 .8-4.3.3-1.2.5-2.2.8-3.1 1.3-5.1 4.2-7.8 8.6-8.1h.1c4.4-.1 7.3 1.6 8.8 5.4 1.1 1.8 1.8 4.3 1.9 7.4v2.7c-.4 11.7-7.2 24.9-20.5 39.5-.3.3-.7.5-1.1.6-.5.1-.9.1-1.4-.1-.4-.2-.8-.5-1-.9-.2-.4-.3-.7-.4-1l-.5-.5c-.3-.4-.4-.9-.4-1.3l.6-6.6v-.1c.5-2.1 1.1-7.8 2.1-16.9m-156.6 33.8c2.9-1.6 6-2.4 9.4-2.4 3.8 0 7.1.8 9.9 2.4 3 1.7 5.5 4.3 7.4 7.8.5.8.9 1.6 1.2 2.5 2.5 4.6 4 10.4 4.6 17.3.1 2 .2 4.1.2 6.3 0 2.1-.1 4.1-.3 6.1-.8 7.8-3.2 15-7.1 21.4-5.2 8.4-11.6 12.6-19.4 12.5-7.8 0-13.5-3.1-17.3-9.2l-.9-1.5h.1c-.4-.6-.7-1.2-1-1.8-2.9-5.5-4.4-12.2-4.4-20.2v-1c.2-5 .8-9.7 1.9-14 1.3-5.9 3.3-11.1 6-15.6 2.8-5.1 6.1-8.5 9.7-10.6m-81.6-46.8c.1.1.2.3.3.4.1.2.2.5.2.8v.2c.1.1.2.2.3.2.3.3.4.7.5 1.1.1.4 0 .8-.2 1.2-.2.4-.5.7-.9.9-8.2 4.5-14.9 6.8-20.1 6.8-5.4 0-9.4-.9-12-2.8-2.1-1.4-3.5-3.1-4.2-4.9-.7-1.1-1.1-2.4-1.2-3.6v-.6c0-1.4.2-2.7.6-3.7 1-2.6 3.3-3.9 7-3.9 1.2 0 4.9.9 11.2 2.6 1.5.4 3 .8 4.6 1.2 4.3 1.1 8.6 2.2 12.8 3.2.4.3.7.5 1.1.9m-11.1 117c.1.1.3.2.4.4.3.5.5 1 .4 1.5l-5.4 40.7c-.7 5.4-2.5 9.4-5.5 11.9h-.1c-3 2.4-6.6 3.6-10.6 3.6-4.2 0-7.7-1.9-10.5-5.6-.7-1-1.3-2.1-1.9-3.2-1.6-2.8-2.4-6-2.4-9.7-.1-8.4 3.4-16.5 10.5-24.4 5.2-5.8 12.5-11.5 21.7-17.1.5-.3 1-.4 1.5-.2.5.1 1 .4 1.4.9.3.4.5.8.5 1.2M547.5 380c.5.1.9.4 1.2.9.2.3.4.7.4 1.2.1.1.3.3.4.5.3.4.4.9.4 1.5l-2.8 24c-1.3 9.9-3 16.6-5.1 19.9-2.5 3.8-6.1 5.8-10.7 5.8-4.5 0-8.1-1.4-10.7-4.1-1.2-1.1-2.1-2.5-2.8-4.1-1.4-2.5-2.2-5.7-2.2-9.6.2-11.9 8.2-22.7 24.1-32.2 1.9-1.2 3.9-2.3 6.1-3.4.6-.5 1.2-.6 1.7-.4z" style="fill:#8283a3" transform="matrix(.24997 0 0 .24997 -40.05 -53)"/><path d="M930.8 288c1.1.9 2 2 2.8 3.1-.8-1.8-1.9-3.4-3.5-4.8-3.3-2.7-7.9-4-13.8-4-8.3 0-15.2 3.1-20.5 9.5-.3.3-.7.5-1.2.7-.4.1-.8.1-1.2 0-.2-.1-.4-.2-.6-.4 0 .5.1.8.3 1.1.3.4.6.6 1 .9.4.1.8.1 1.2 0 .4-.2.8-.4 1.2-.7 5.4-6.3 12.2-9.5 20.5-9.5 5.8.1 10.4 1.4 13.8 4.1m-37.5 80.4c-3.6.1-6.2-1.1-7.8-3.6 1.4 3.6 4.3 5.3 8.6 5.2 7.8.3 11.8-5.6 11.8-17.6 0-4.7-1.2-9.3-3.7-14 1.9 4.1 2.9 8.2 2.8 12.4.1 12-3.8 17.9-11.7 17.6M860 356.5c0-2.6.1-4.5.2-5.8l7.4-64.8c4.6-1.3 9.2-2 13.9-2 4.9 0 8.2 1.2 9.9 3.6-1.2-3.4-4.7-5.2-10.7-5.2-4.7 0-9.3.6-13.9 2l-7.4 64.8c-.1 1.3-.2 3.2-.2 5.8 0 6.9 1.3 12.9 4 17.8-2.1-4.6-3.2-10-3.2-16.2m-249.9-70.7v.4l-8.1 61.3c-.2 2.5-.3 4.3-.3 5.6 0 6.5 1.3 12 3.8 16.7-2-4.3-3-9.4-3-15.1 0-1.3.1-3.1.3-5.6l8.1-61.3c0-.4 0-.8-.2-1.2-.1-.3-.3-.6-.6-.8m-23.2-38.4v1c0 1.1.1 2.2.2 3.4.5 4.5 1.8 8.8 4 12.9-2-4.1-3.1-8.4-3.3-12.9V249c.2-7.7 3-13.9 8.3-18.5 5.7-4.9 12.7-7.3 20.8-7.3 11.3 0 18.9 3.6 23 10.9-3.7-8.3-11.7-12.5-23.8-12.5-8.1 0-15.1 2.4-20.8 7.3-5.4 4.6-8.2 10.8-8.4 18.5m181.7 50.7-.1.1c-3 2.8-5.5 5.9-7.6 9.3-.3.4-.7.8-1.2 1-.5.2-.9.2-1.4 0-.2-.1-.5-.2-.7-.4 0 .3.2.7.3 1 .2.4.6.8 1.1 1 .5.2.9.2 1.4 0 .5-.2.9-.5 1.2-1 2.1-3.4 4.6-6.5 7.6-9.3.6-.6 1.2-1.1 1.8-1.7 10.6-9.4 23.8-14.1 39.7-14.1 12.7 0 23.4 4.1 31.9 12.3l1.8 1.8c2.6 2.7 4.7 5.6 6.3 8.8-1.5-3.1-3.3-6-5.7-8.8-1-1.2-2.1-2.3-3.2-3.4-8.5-8.2-19.2-12.3-31.9-12.3-16.7 0-30.5 5.2-41.3 15.7m-76.5-72.6c-5.8 0-10.9.9-15.2 2.7l-13.8 108.4c-.1.5-.2 1-.2 1.5-2.8 19.5-9.9 29.1-21.2 28.9-5.2.1-8.9-1.8-11.1-5.5 2 4.8 6 7.2 11.9 7.1 11.6.2 18.8-9.9 21.5-30.4l13.8-108.4c4.3-1.8 9.4-2.7 15.2-2.7 5.2 0 8.6 1.3 10.4 4-1.5-3.8-5.2-5.6-11.3-5.6m-76.7 20.1c0-3-.5-5.2-1.5-6.6.5 1.3.7 3 .7 5 0 1.1 0 2.2-.1 3.4-.1 1.4-.1 2.9-.2 4.3-.1 2.3-.3 4.6-.6 6.9l-1.1 8.6c-.1.5-.3 1-.8 1.4-.4.3-.9.5-1.5.5s-1-.2-1.4-.6c-3.9-3.7-6.8-7.3-8.7-10.9 1.9 4.1 5.1 8.3 9.5 12.5.4.4.9.6 1.4.6s1-.2 1.5-.5c.4-.4.7-.9.8-1.4l1.1-8.6c.3-2.9.6-5.7.7-8.5.1-.9.1-1.8.2-2.7-.1-1.2 0-2.3 0-3.4m123.6 4.5V249c-.1-8.3-.7-15.6-2-21.9 5.2-2.8 11.4-4.2 18.5-4.2 3.7.1 6.4 1.4 8 4-1.4-3.7-4.4-5.5-8.8-5.6-7.1 0-13.2 1.4-18.5 4.2 1.3 6.3 1.9 13.6 2 21.9V251.7c-.2 13.7-1.5 29.2-4 46.4-1 6.9-2.1 14.1-3.5 21.5l-.9 4.5c-1.1 5-2.4 9.7-3.9 14-1.8 5.5-4 10.4-6.4 14.9-5.2 9.7-11.3 14.5-18.1 14.3-5.2.1-8.8-1.7-11-5.2 1.9 4.6 5.8 6.9 11.8 6.8 6.8.2 12.9-4.6 18.1-14.3 2.7-4.8 5-10.3 7-16.4 1.3-3.9 2.4-8 3.4-12.4l.9-4.5c1.5-8 2.7-15.7 3.8-23.1 2.4-17.2 3.7-32.7 3.8-46.4-.2-.6-.2-1.2-.2-1.7m379.6 110.2c-4.6 5.4-9 8-13.4 7.9-3.3.1-5.6-1-7-3.2 1.2 3.2 3.8 4.8 7.8 4.8 4.4.1 8.8-2.5 13.4-7.9 3.7-4.3 7.1-11.1 10.3-20.4 1.5 1.7 2.8 3.5 3.8 5.4-1.1-2.4-2.6-4.8-4.6-7-3.2 9.4-6.6 16.2-10.3 20.4M966.4 224.6c-.1 0-.1 0 0 0-6.8 3.7-11.4 11.2-13.9 22.8-.3 1.4-.6 2.8-.8 4.3-.2 1.2-.4 2.4-.5 3.6-1.9 16.2-3.6 30.4-5 42.8-1.1 9.9-2.1 18.6-3 26-.6 5.3-1.1 9.9-1.6 14-1.4 12.4-2.1 19.1-2.1 20.1 0 5.6 1.1 10.3 3.2 14.3-1.6-3.6-2.5-7.8-2.5-12.7 0-1 .8-8.2 2.2-21.7.4-3.7.9-7.8 1.5-12.4.9-7.8 1.9-17 3.2-27.6 1.4-12 3-25.7 4.8-41.2.2-1.8.5-3.5.8-5.2.2-.9.4-1.8.5-2.7 2.5-11.6 7.1-19.2 13.8-22.8v-.1c3.7-2 8.2-3 13.5-3 11.7 0 19.5 3.5 23.5 10.7-3.7-8.2-11.7-12.3-24.3-12.3-5.1.1-9.6 1.1-13.3 3.1M1035 361c-.8-1-1.6-2.1-2.2-3.3.8 1.8 1.8 3.4 3.1 4.9 3.8 4.8 8.8 7.2 14.8 7.2 10.1.2 17.7-6.8 22.8-20.8 0-.2.1-.3.1-.5l5.6-46.8c0-.5-.1-1-.3-1.4-.1-.2-.3-.4-.5-.6v.4l-5.6 46.8c0 .2-.1.3-.1.5-5.1 14-12.7 20.9-22.8 20.8-6.2 0-11.1-2.4-14.9-7.2m-38.6-113.6v1.4c0 1 0 1.9-.1 2.9-.9 11.3-7.7 23.9-20.4 37.9-.3.3-.7.5-1.2.6-.5.1-.9.1-1.3-.1-.2-.1-.4-.2-.5-.3 0 .3.1.7.3 1 .2.4.5.6 1 .9s.9.2 1.3.1.8-.3 1.2-.6c13.2-14.6 20-27.7 20.4-39.5 0-.4.1-.9 0-1.3V249c-.1-3.1-.8-5.6-1.9-7.4.7 1.6 1.1 3.5 1.2 5.8m108.8-24.2c3.2 0 5.9.3 7.9.9.1-.4.1-.8.2-1.2-2.2-.9-5.2-1.3-8.9-1.3-4.6 0-8.6.8-11.9 2.3-2.8 1.4-4.7 3-5.6 4.8l-6.6 54.4c-.1.4-.2.8-.4 1.1-.3.3-.7.5-1.1.7-.4.1-.8.1-1.2 0-5-1.7-10.3-2.5-16-2.5h-1.3c-16.1 0-29.5 5.2-40.2 15.7-.2.2-.4.4-.7.6-6.8 6.9-11.5 15.4-14 25.4-1.1 4.4-1.8 9-2 14-.1 1.5-.1 3-.1 4.5 0 1.4 0 2.8.2 4.2 0 .4 0 .9-.2 1.2-1.5 2.6-3.2 5.1-4.9 7.4-6.6 8.9-13.8 13.3-21.7 13.2-4.7.1-8-1.5-9.9-4.6 1.7 4.2 5.3 6.3 10.7 6.2 7.8.1 15-4.2 21.7-13.2 1.7-2.3 3.4-4.8 4.9-7.4.2-.4.3-.8.2-1.2-.1-1.4-.2-2.8-.2-4.2 0-2.1.1-4.2.2-6.1.3-4.4 1-8.5 2-12.4 2.5-10 7.2-18.4 14-25.4.8-.8 1.6-1.5 2.3-2.2 10.4-9.4 23.2-14.1 38.5-14.1h1.3c5.7 0 11 .8 16 2.5.4.1.8.1 1.2 0 .4-.2.8-.4 1.1-.7.2-.3.4-.7.4-1.1l6.6-54.4c.9-1.8 2.8-3.4 5.6-4.8 3.4-1.6 7.3-2.3 11.9-2.3z" style="fill:#db19ff" transform="matrix(.24997 0 0 .24997 -40.05 -53)"/><path d="M860.2 350.7c-.1 1.3-.2 3.2-.2 5.8 0 6.2 1.1 11.6 3.2 16.2.6 1.1 1.3 2.2 2 3.2 3.3 4.3 8.1 6.9 14.5 7.7 1.4.2 2.9.2 4.5.2s3.2-.1 4.7-.2c6.8-.8 12.5-3.4 17.3-7.9 5.8-5.5 8.7-13.4 8.7-23.8 0-4.8-.8-9.4-2.4-13.9-.5-1.4-1.1-2.7-1.7-4.1-1.6-3.4-3.7-6.7-6.3-9.9-3.3-4.1-7.4-8.1-12.2-11.9-.4-.3-.6-.7-.8-1.2-.1-.5-.1-1 .2-1.5 2.7-5.9 6.1-9.7 10.2-11.5 1.8-.8 3.7-1.1 5.8-1.1 2.3 0 4.2.4 5.8 1.1 2 1 3.4 2.5 4.3 4.7.6 1.6 1 3.6 1 5.9 0 .8 0 1.6-.1 2.4h.9c4.2-.4 7.7-1.7 10.5-4 2.8-2.4 4.3-5.4 4.7-8.9.1-.5.1-1 .1-1.5 0-2-.3-3.8-1-5.5-.7-1.2-1.6-2.2-2.8-3.1-3.3-2.7-7.9-4-13.8-4-8.3 0-15.2 3.2-20.5 9.5-.3.3-.7.5-1.2.7-.4.1-.8.1-1.2 0-.4-.2-.8-.5-1-.9-.2-.3-.3-.7-.3-1.1-.2-.1-.3-.3-.5-.5-.2-.3-.3-.7-.3-1.2v-.4c0-.9-.2-1.7-.5-2.5-1.6-2.4-4.9-3.6-9.9-3.6-4.7 0-9.3.7-13.9 2l-7.8 64.8zm41.8-12.6c.1.2.2.3.2.5 2.5 4.6 3.7 9.3 3.7 14 0 12-3.9 17.8-11.8 17.6-4.3.1-7.2-1.6-8.6-5.2-1.2-1.8-1.8-4.4-1.8-7.7 0-.1.8-6.5 2.4-19.1.5-3.7 1-7.9 1.6-12.7 0-.5.2-.9.7-1.3.4-.4.9-.6 1.5-.5.6 0 1 .2 1.5.6 4.8 4.4 8.3 9.1 10.6 13.8M739 249v2.7c-.1 13.7-1.3 29.2-3.8 46.4-1 7.4-2.3 15.1-3.8 23.1l-.9 4.5c-1 4.4-2.1 8.5-3.4 12.4-2 6.1-4.3 11.6-7 16.4-5.2 9.7-11.3 14.5-18.1 14.3-5.9.1-9.8-2.2-11.8-6.8-1.4-2.4-2.2-5.6-2.2-9.6 0-3.9.3-8.6 1-14.2.5-4.2 1.1-8.9 2-14 .4-2.9.9-6 1.5-9.2.6-3.5 1.5-9.1 2.5-16.8 1.6-11.1 3.8-26.6 6.4-46.4.2-1.4.4-2.8.6-4.3.4-3.5.9-7 1.4-10.7l-.1.1.2-2.7c0-1.1-.2-2.1-.5-3-1.8-2.6-5.2-4-10.4-4-5.8 0-10.9.9-15.2 2.7l-13.8 108.4c-2.7 20.5-9.8 30.6-21.5 30.4-5.9.1-9.9-2.3-11.9-7.1-1.6-2.7-2.4-6.5-2.4-11.3 0-2.5.4-6.5 1.2-12 .1-.3.1-.5.2-.8.6-3.8 1.2-8.2 2-13.2.3-2.5.7-5.1 1.1-7.8 1-7 1.8-13.1 2.5-18.2.2-1 .3-1.9.5-2.9.8-5.8 1.6-11.1 2.3-15.9.7-5 1.3-9 1.8-12 .4-3 .8-5.7 1.2-8.1.3-2.4.6-4.3.8-5.6.1-.7.2-1.4.2-2 .1-.4.1-.7.2-1.1.1-1 .2-1.7.2-2.1v-1.1c0-5.2-.9-9.7-2.5-13.4-4-7.2-11.7-10.9-23-10.9-8.1 0-15.1 2.4-20.8 7.3-5.3 4.6-8.1 10.8-8.3 18.5v2.8c.3 4.5 1.4 8.8 3.3 12.9 3.7 6.9 9.7 13.5 18.2 19.6.3.2.5.5.7.9.1.3.1.5.2.8.2.2.5.5.7.8.1.4.2.8.2 1.2l-8.1 61.3c-.2 2.5-.3 4.3-.3 5.6 0 5.7 1 10.8 3 15.1 1.1 2.1 2.5 4 4.2 5.8 4.4 4.6 10.3 7.3 17.7 8.1 1.6.2 3.3.2 5 .2 1.9 0 3.8-.1 5.6-.2 12.6-1.3 22.2-7.1 28.9-17.4.3-.5.7-.8 1.2-.9.5-.2 1-.2 1.5.1.5.2.8.5 1.1 1 5.1 10.2 13.2 16 24.2 17.3 1.6.2 3.2.2 4.9.2 2 0 3.9-.1 5.8-.2 11.1-1.1 20-5.4 26.7-13.1 3.8-4.5 7.1-9.2 10.1-14.2 0 0 0-.1 0 0 2.2-3.9 4.2-8.5 6.1-13.9.1-.5.4-.9.9-1.1.4-.3.9-.4 1.4-.2.5 0 .9.2 1.3.6.3.4.5.9.5 1.4.4 6.4 1.9 12.3 4.7 17.6 2.1 3.9 4.8 7.4 8.1 10.7 7.4 7.2 17.1 11.3 29 12.4 2.1.2 4.2.2 6.3.2 1.9 0 3.8-.1 5.7-.2 12.5-1.2 23.3-6.5 32.5-15.9 7.7-8 12.5-17.8 14.5-29.7.8-4.3 1.2-8.9 1.2-13.7v-.3c0-6.3-1.3-12-3.8-17.3-1.6-3.1-3.7-6-6.3-8.8-.6-.6-1.1-1.2-1.8-1.8-8.5-8.2-19.2-12.3-31.9-12.3-15.9 0-29.1 4.7-39.7 14.1-.6.6-1.2 1.1-1.8 1.7-3 2.8-5.5 5.9-7.6 9.3-.3.4-.7.8-1.2 1-.5.2-.9.2-1.4 0-.5-.2-.9-.5-1.1-1-.2-.3-.3-.7-.3-1-.2-.2-.3-.4-.5-.6-.3-.5-.4-.9-.3-1.4.2-1.6.4-3.2.7-4.8.2-1.1.3-2.1.5-3.1 2.8-18.4 4.6-33.9 5.6-46.4.1-1.5.3-2.9.3-4.3.3-5.2.5-9.8.5-13.8 0-2.6-.4-4.9-1.1-6.7-1.6-2.6-4.3-3.9-8-4-7.1 0-13.2 1.4-18.5 4.2 1.5 5.8 2.2 13.1 2.3 21.4m39.7 90.1v-1c.2-5 .8-9.7 1.8-14 1.3-5.9 3.3-11.1 6-15.6 2.9-4.8 6.1-8.3 9.8-10.4 2.9-1.6 6-2.4 9.3-2.4 3.8 0 7 .8 9.8 2.4 3 1.7 5.4 4.3 7.3 7.8.5.8.9 1.6 1.2 2.5 2.5 4.6 4.1 10.4 4.7 17.3.1 2 .2 4.1.2 6.3 0 2.1-.1 4.1-.3 6.1-.8 7.8-3.2 15-7.2 21.4-5.1 8.4-11.6 12.6-19.3 12.5-7.7 0-13.5-3.1-17.3-9.2l-.9-1.5h.1c-.3-.5-.7-1.1-1-1.7-2.7-5.7-4.2-12.4-4.2-20.5M613.9 239c1 1.4 1.5 3.6 1.5 6.6 0 1.1 0 2.2-.1 3.4 0 .9-.1 1.8-.2 2.7-.1 2.8-.4 5.6-.7 8.5l-1.1 8.6c-.1.5-.3 1-.8 1.4-.4.3-.9.5-1.5.5s-1-.2-1.4-.6c-4.4-4.2-7.6-8.4-9.5-12.5-1.1-2-1.9-4-2.3-6-.3-1.4-.5-2.9-.5-4.3v-.5c0-3 .8-5.8 2.4-8.2 1.6-2.7 4.2-4.1 7.8-4.1 2.5 0 4.3.9 5.5 2.8.4.5.7 1.1.9 1.7m499.3-14.9c-2.1-.6-4.7-.9-7.9-.9-4.6 0-8.6.8-11.9 2.3-2.8 1.4-4.7 3-5.6 4.8l-6.6 54.4c-.1.4-.2.8-.4 1.1-.3.3-.7.5-1.1.7-.4.1-.8.1-1.2 0-5-1.7-10.3-2.5-16-2.5h-1.3c-15.3 0-28.1 4.7-38.5 14.1-.8.7-1.6 1.5-2.3 2.2-6.8 6.9-11.5 15.4-14 25.4-1 3.9-1.6 8-2 12.4-.1 2-.2 4-.2 6.1 0 1.4 0 2.8.2 4.2 0 .4-.1.9-.2 1.2-1.5 2.6-3.2 5.1-4.9 7.4-6.6 8.9-13.9 13.3-21.7 13.2-5.4.1-9-2-10.7-6.2-1.3-2.2-2-5.1-2-8.9 0-1.2.6-6.9 1.7-17.1.3-2.4.6-5 1-7.9.3-2 .5-4 .8-6 .5-4.7 1-9.6 1.5-14.6.1-.6.3-1 .8-1.4 3.8-3.4 7.4-6.7 10.5-10.1 15.1-15.7 23.5-31.1 25-46.4.1-.5.1-.9.2-1.4.1-1 .2-2 .2-2.9v-1.5c0-4.7-.8-8.7-2.2-12.1-4-7.1-11.8-10.6-23.5-10.7-5.3 0-9.8 1-13.5 3v.1c-6.8 3.6-11.4 11.2-13.8 22.8-.2.9-.4 1.8-.5 2.7-.3 1.7-.5 3.4-.8 5.2-1.8 15.5-3.4 29.2-4.8 41.2-1.2 10.6-2.3 19.8-3.2 27.6-.5 4.6-1 8.7-1.5 12.4-1.5 13.5-2.2 20.7-2.2 21.7 0 4.8.8 9 2.5 12.7 1 1.8 2.2 3.4 3.6 4.9 3.5 3.3 7.9 5.4 13.2 6.3 2 .3 4.1.5 6.2.5 2.4 0 4.8-.2 7-.5 5.7-.8 11-2.7 15.9-5.5 5.9-3.4 10.9-7.9 14.8-13.3l.9-1.2c.3-.4.7-.7 1.2-.8.5-.1.9-.1 1.4 0 .4.2.8.5 1 1 1.7 3.2 4 6.1 6.6 8.8h-.1c6.5 6.4 14.2 10 23.2 11 1.6.2 3.3.2 5 .2 1.6 0 3.1-.1 4.6-.2 9-1.1 16.5-5.4 22.6-13.1.3-.4.8-.6 1.2-.8.5-.1.9-.1 1.4.1.4.2.8.6 1.1 1 3.7 7.9 10.9 12.1 21.6 12.6h3.7c3.7-.3 7.7-1.4 11.9-3.5h.1c10.4-4.8 18.1-15.3 23.1-31.4-.2-.6-.5-1.2-.8-1.8-1-1.9-2.2-3.7-3.8-5.4-3.2 9.3-6.6 16.1-10.3 20.4-4.6 5.4-9 8-13.4 7.9-4 .1-6.6-1.5-7.8-4.8-1.1-1.6-1.6-3.9-1.6-6.8 0-2.3.7-9 1.9-20.3.5-4.1 1.1-8.7 1.7-14 .9-7.5 2-16.1 3.2-26 .9-7.2 2-15 3.1-23.5 1.1-8.4 2.1-16 3-22.9.2-1.5.4-2.9.6-4.3 1.2-9 2.3-16.7 3.1-22.9m-135.5 20.2c1.3-5.1 4.2-7.8 8.6-8.1h.2c4.4-.1 7.3 1.6 8.8 5.4 1.1 1.8 1.8 4.3 1.9 7.4v2.7c-.4 11.7-7.2 24.9-20.4 39.5-.3.3-.7.5-1.2.6-.5.1-.9.1-1.3-.1s-.8-.5-1-.9c-.2-.4-.3-.7-.3-1l-.5-.5c-.3-.4-.4-.9-.3-1.3l.6-6.6v-.1c.3-2.2.9-7.9 1.8-17 .5-4.9 1.1-9.2 1.7-12.7.2-1.6.5-3 .8-4.3.1-1.1.4-2.1.6-3m51.7 98.5c0-1.3.1-2.6.2-3.9h-.1c0-.3 0-.6.1-.9.4-5.1 1.1-9.8 2.2-14 1.8-7.3 4.4-13.2 7.9-17.7 2.8-3.7 6.1-6.5 9.8-8.4 4.1-2 8.7-3 13.9-3 3.8 0 8.3 1 13.4 3 .1 0 .1.1.2.1.3.2.6.4.8.8.2.3.3.6.3 1 .2.2.4.4.5.6.2.4.3.9.3 1.4l-5.6 46.8c0 .2-.1.3-.1.5-5.1 14-12.7 20.9-22.8 20.8-6 0-11-2.4-14.8-7.2-1.2-1.5-2.2-3.1-3.1-4.9-2-4.1-3.1-9.1-3.1-15z" style="fill:#8c10a3" transform="matrix(.24997 0 0 .24997 -40.05 -53)"/><path d="M784.1 361.1c.2.6.5 1.1.8 1.6 3.8 6.1 9.6 9.2 17.3 9.2 7.8.1 14.2-4.1 19.3-12.5 4-6.4 6.3-13.5 7.2-21.4.2-2 .3-4 .3-6.1 0-2.2-.1-4.3-.2-6.3-.6-6.9-2.1-12.7-4.7-17.3 2 4.3 3.3 9.6 3.9 15.7.1 2 .2 4.1.2 6.3 0 2.6-.2 5.2-.5 7.7-.9 7.2-3.3 13.8-7 19.8-5.1 8.4-11.6 12.6-19.3 12.5-7.7 0-13.5-3.1-17.3-9.2z" style="fill:#69d434" transform="matrix(.24997 0 0 .24997 -40.05 -53)"/><path class="st8" d="M23.4 16.7v.1c.7.2 1.5.2 2.3 0l-1.3-.1-.6-.3c.1.2-.1.3-.4.3.1 0 0 0 0 0m-.5.3v.1l.5-.5h-.1l-.4.4m-23-2.5c-.1.1-.2.1-.3.1.1.2.2.3.4.5l.4-.4c-.1.1-.3 0-.5-.2m-3.2-1.6c-.1-.1-.2-.1-.3-.2 0 .1.1.2.1.3 0 .1 0 .1-.1.1l.3-.2zM8.9-11.3l-.3-.3c-.2-.2-.4-.3-.4-.4 0-.1.4-.3 1.1-.7-.3 0-.6.1-1 .2l-2.3.9c-1 .3-2.1.9-3.4 1.8-2.1 1.6-3.6 3-4.1 4-1.2 2.4-1.9 3.9-2.1 4.4-.7 1.7-1.1 3.2-1.2 4.5C-5 4.2-5 4.8-5 5c0 .2.1 1.1.3 2.7 0 .5.2 1.3.6 2.4.1.3.3.8.6 1.5.2.3.3.6.3.7l1.2.7v-.7c.1-.2.2-.3.3-.4l.1.1.1-1.3V7.3c.1-.8.2-1.5.4-1.9.2-.6.3-1.5.5-2.8C-.7 2-.2.4.7-2c.5-1.5 1.6-3 3.2-4.5.3-.2 1.2-1.1 2.6-2.5.9-.8 1.6-1.4 1.9-1.6l.5-.7zM11-8.9c.1-.5.1-.9.1-1l-.7-.1c-.3 0-.6 0-.9.1h-1c-.5.6-1.8 1.8-3.9 3.7L2.5-4.1c-.6.8-1 1.6-1.2 2.3-.1.3-.3 1-.8 2.2-.3.9-.5 1.7-.6 2.4 0 .4-.2 1.2-.4 2.3-.3 1-.5 1.7-.5 2.3-.1.8-.1 1.2-.1 1.3 0 .2.1.8.2 1.8l-.2 2.1h.1c.1.2.4.3.7.4 0 .1.1.2.1.4.2.3.3.5.4.5v-.3c.1-.1.3-.2.6-.1.1 0 .6.4 1.4 1.3.8.7 1.6 1.1 2.6 1.2.3 0 .6-.1.8-.2H5.9v-.1c-.2-.6-.4-1-.5-1.1-.1-.2-.1-.5-.1-1s0-.9-.1-1l.2-1.9C5 8.1 5 6.3 5.1 5.3c.1-.8.2-1.7.5-2.6L5.8.9c1.3-3.2 2-5 2.3-5.4.4-.8 1-1.7 1.9-2.7l1.2-1.2c-.2-.1-.2-.3-.2-.5m1.4.4c-.4.2-.7.3-.9.4-.2.3-.6.6-1 1.1-1.1 1.4-1.8 2.4-2 3-1 2.1-1.7 3.9-2.2 5.3L6.2 3c-.3.8-.5 1.6-.5 2.3-.1 1 0 2.8.2 5.3l-.2 2 .2 1.8.5 1.5h.5c.3.3.5.5.6.5l3 .3c.4-.2.7-.3 1-.4v-.1c.1-.4.1-.6.1-.7-.1-.6-.1-1.1 0-1.4.1-.5.4-2 1-4.6.5-2.3.9-3.7 1.1-4.4l.1-1.7c.4-1.3.7-2.7.9-4.2 0-.9.1-2.6.3-5.2v-1.3c-.1-.2-.1-.4 0-.6l-.1-.1c-.3-.6-.5-.9-.6-1h-.9c-.1 0-.4.2-1 .5m7.1.2c-.8-.4-1.3-.7-1.7-.8l-.8-.1c-.1 0-.3.4-.7 1.1-.3.5-.6.8-.8.9l-.4 3.7c.1.5 0 1.6-.1 3.1-.1 1.1-.6 3.6-1.4 7.3l-.9 3.6c-.2 1.1-.4 1.8-.6 2.2-.1.2-.2.7-.3 1.5 0 .5 0 1.2.1 2v.2c.1 0 .3.1.5.2l-.1.1c.1.1.1.2.1.4.1.4.6.6 1.5.6l1.4.1c1.2-.2 2.1-.4 2.9-.7l.5-.7c.4-.6.7-1.2.8-1.7l.3-2.9c.2-1.4.3-2.5.3-3.3 0-.5 0-1.1-.1-1.8-.1-.6-.1-1.2-.1-1.6 0-.5.2-1.3.5-2.4s.4-1.8.5-2.3c0-1.9.1-3.4-.1-4.4-.1-1.2-.2-1.9-.3-2.3-.2-.4-.3-.8-.3-1.1 0-.2-.1-.4-.2-.7-.2 0-.3-.1-.5-.2m1.4.3v.2c.3.7.5 1.8.6 3.4.1 1.9.1 3.6-.1 5.1-.1.6-.2 1.5-.5 2.5s-.4 1.8-.5 2.2c0 .5 0 1.6.2 3.3l-.6 6.1c0 .6-.2 1.1-.5 1.7 0 .1-.1.2-.1.4.5.1 1.1 0 1.7-.1h.4c.2-.1.3-.2.5-.2.4-.2.8-.3 1.1-.3 0-.2.4-.7 1.1-1.6.7-.9 1.1-1.5 1.2-1.8.6-2 1-3.2 1.2-3.5l.2-1.9c.1-.5.3-1.5.4-3 .1-1.4.1-2.6 0-3.6 0 0-.4-1.3-1.1-4L25.6-5c0-.3-.1-.6-.4-1-.4-.5-.6-.8-.7-1-.3-.7-.7-1.4-1.2-1.9-.3-.4-.5-.7-.7-1 0-.1-.1-.2-.4-.4l-1.8-.2-.1.3.6 2.2zm5.7-.6c-1.3-1.2-2.6-2.1-4.2-2.8-.7-.3-1.5-.6-2.3-.8.1.1.3.1.4.2.5.2.9.5 1.2.7.8.2 1.7.7 2.7 1.4.2.1.4.2.6.4.3 0 .7.3 1.4 1.1v.2c.3 0 .8.5 1.5 1.6.1.2.4.8 1.1 1.7.5.8 1 2.1 1.7 3.9.7 1.8.9 4.3.6 7.6-.1.7-.2 1.8-.5 3.4l-.2 2.1c-.4 1-.7 1.6-.8 1.8-.4.8-.9 1.2-1.3 1.2-.2 0-.3-.1-.3-.4.9-1.2 1.5-2.2 1.8-2.8l.2-2.1c.2-1 .3-2 .5-3.2.3-2.7.1-5.1-.5-7.1-.3-1.2-.9-2.4-1.6-3.7-.6-1.3-1.5-2.5-2.5-3.6h-.2c-.1 0-.8-.6-2-1.7-.1-.1-.3-.2-.7-.4 0 .1.1.1.1.2.1.3.1.4.2.5l.9 1.1c.1.1.2.3.3.5.1.3.1.4.1.5.5.5.9 1.1 1.2 1.7.1.3.2.6.3 1 .1.3.1.6.2 1.1.7 2.4 1.1 3.8 1.2 4.3.1.8.1 2 0 3.6-.1 1.7-.3 2.9-.5 3.5L27 9.8c-.4.7-.8 1.8-1.2 3.4-.2.5-.6 1.2-1.2 2.1-.2.3-.4.6-.5.8h.3l.1.1 1.5.1c.1 0 .3-.1.5-.2.3-.1.6-.1.7-.1.2 0 .2.1.2.2.7-.4 1.5-.9 2.3-1.6 2.4-2.1 3.8-5 4.3-8.7.5-3.7-.1-6.4-1.6-8.1-.5-2.1-1.4-3.6-2.6-4.6-1.1-1.1-2.2-1.7-3.2-1.8m-15.2-5.1c-.7-.1-1.5-.1-2.3 0-1.2.2-2.6.7-4.2 1.4-.2.1-.4.2-.7.3-1.8.2-3.3.7-4.5 1.4-1.2.5-2.1 1.3-2.7 2.3-.1 0-.2.1-.3.1-3.3 1.8-5 4.8-5.2 9-.2 4.3.8 7.7 2.8 10.3.2.3.5.6.7.9 0-.1 0-.2-.1-.4 0-.1.1-.2.2-.3.1.1.2.2.3.2-.3-.8-.5-2-.7-3.6-.2-1.6-.3-2.6-.4-2.9 0-.2 0-.9.2-2.1.1-.9.2-1.6.3-2 .6-1.7.9-2.6.9-2.7.2-.2.6-1 1.1-2 .5-1 .9-1.8 1.1-2.3.2-.6.8-1.3 1.8-2.2 1.2-.9 2-1.6 2.6-2.1.8-.6 2-1.3 3.6-2 2-.9 3.5-1.3 4.6-1.2.1 0 .2 0 .2.1.2-.1.4-.2.5-.2l1.4.1c-.1 0-.3 0-.5-.1h-.7z" transform="rotate(-10.463 181.601 -159.527) scale(.53376)"/><path class="st9" d="M26.4-8.3v-.2c-.7-.8-1.1-1.1-1.4-1.1-.2-.1-.4-.2-.6-.4-1-.7-1.9-1.2-2.7-1.4-.3-.2-.6-.4-1.2-.7-.1-.1-.3-.1-.4-.2-.5-.2-1-.4-1.6-.5-.6-.1-2.1-.4-4.5-.8l-1 .2-.5-.1-1.4-.1c-.1 0-.2.1-.5.2h-.2c-1.1-.1-2.6.3-4.6 1.2-1.6.7-2.8 1.4-3.6 2-.5.4-1.4 1.1-2.5 2-1 .8-1.6 1.6-1.8 2.2-.2.5-.6 1.3-1.1 2.3s-.9 1.7-1 2.2c0 .1-.3 1-.9 2.7-.1.4-.2 1-.3 2-.1 1.1-.2 1.8-.2 2.1 0 .3.2 1.3.4 2.9.2 1.6.4 2.8.7 3.6-.1-.1-.2-.2-.3-.2-.1.1-.1.2-.2.3.1.1.1.3.1.4l.6.6c0 .1.1.2.1.3.2.2.4.3.6.5 1.1.9 2 1.2 2.8.9.2.2.3.3.5.6.1 0 .2 0 .3-.1.2.2.4.3.5.3l-.4.4c1.5 1.5 3.4 2.2 5.7 2.1h.4l.1.1c1.6.9 3.2 1.2 5 .9.1.2.9.5 2.4.9 1.4.4 3.1 0 5.3-1 .2-.1.3-.1.5-.2.1 0 .1 0 .1.1 1.2.2 2.4-.1 3.5-.9v-.1c.1-.2.3-.3.4-.4h.1c.3 0 .4-.1.4-.4l.6.3 1.3.1c.2-.1.3-.1.5-.1.3-.1.6-.2 1-.4.1 0 .2-.1.3-.2 0-.1-.1-.2-.2-.2s-.3.1-.7.1c-.3.1-.5.2-.5.2l-1.5-.1c-.1 0-.1-.1-.1-.1h-.3c.1-.2.3-.4.5-.8.6-.8 1-1.5 1.2-2.1.3-1.6.7-2.7 1.2-3.4L27.2 8c.2-.6.3-1.7.5-3.5.2-1.6.2-2.8 0-3.6-.1-.5-.5-1.9-1.2-4.3-.1-.4-.1-.8-.2-1.1-.1-.4-.2-.7-.3-1-.3-.6-.7-1.2-1.2-1.9 0 0 0-.2-.1-.5-.1-.2-.2-.4-.3-.5l-.9-1.1c-.1 0-.1-.2-.2-.5 0-.1-.1-.1-.1-.2.4.2.6.3.7.4 1.2 1.1 1.9 1.6 2 1.7h.2c1 1.1 1.9 2.3 2.5 3.6.7 1.3 1.2 2.5 1.6 3.7.6 2 .8 4.3.5 7.1-.1 1.1-.2 2.2-.5 3.2l-.2 2.2c-.3.6-.9 1.6-1.8 2.8 0 .2.1.3.3.4.4 0 .8-.4 1.3-1.2.1-.2.4-.8.8-1.8l.2-2.1c.3-1.5.4-2.7.5-3.4.3-3.2.1-5.8-.6-7.6-.7-1.6-1.2-2.9-1.7-3.7l-1.2-1.8c-.7-1.1-1.2-1.6-1.4-1.6m-5.5.4v-.2l-.6-1.9.1-.3 1.8.2c.3.2.4.3.4.4.1.3.4.6.7 1 .5.5.9 1.2 1.2 1.9.1.1.3.5.7 1 .3.4.4.7.4 1l.3 1.8C26.6-.4 27 1 27 1c.1 1 .1 2.2 0 3.6-.1 1.5-.3 2.5-.4 3l-.2 1.9c-.1.3-.5 1.4-1.2 3.5-.1.2-.5.8-1.2 1.8-.7.9-1 1.4-1.1 1.6-.3 0-.6.1-1.1.3-.2.1-.3.2-.5.2h-.4c-.6.1-1.2.2-1.7.1.1-.1.1-.3.1-.4.3-.6.4-1.1.5-1.7l.6-6.3c-.2-1.7-.2-2.8-.2-3.3 0-.4.2-1.1.5-2.2.3-1 .4-1.9.5-2.5.1-1.5.2-3.2.1-5.1.1-1.6-.1-2.7-.4-3.4m-3.1-1.2c.4.1.9.4 1.7.8.2.1.3.2.5.3.2.3.2.5.2.7 0 .3.1.6.3 1.1.1.2.2 1 .3 2.2.1 1 .1 2.6-.1 4.6 0 .5-.2 1.3-.5 2.3s-.4 1.8-.5 2.4c0 .4 0 .9.1 1.6.2.6.2 1.1.2 1.6 0 .7-.1 1.8-.3 3.3l-.3 2.9c-.1.5-.3 1-.8 1.7l-.4.6c-.7.3-1.7.5-2.9.7l-1.3-.1c-.9 0-1.4-.2-1.5-.6 0-.2 0-.3-.1-.4l.1-.1c-.2-.1-.3-.2-.5-.2v-.2c-.1-.8-.1-1.4-.1-2 .1-.7.2-1.2.3-1.5.2-.4.4-1.1.6-2.2l.9-3.6c.8-3.7 1.3-6.2 1.4-7.3.2-1.5.2-2.6.1-3.1l.4-3.7c.2 0 .5-.3.8-.9.3-.6.6-1 .6-1l.8.1zm-6.3 1c.2-.1.5-.2.9-.4.6-.3.9-.5 1-.5l.9.1c.1.1.2.4.6 1l.1.1v.6l-.1 1.5c-.2 2.6-.3 4.3-.3 5.2-.1 1.5-.4 2.9-.9 4.2l-.1 1.7c-.2.6-.6 2.1-1.1 4.4-.6 2.6-.9 4.1-1 4.6v1.4c0 .1 0 .3-.1.7v.1c-.3.1-.6.2-1 .4l-3-.3c-.1 0-.3-.2-.6-.5h-.4l-.5-1.5-.2-1.8.2-2c-.2-2.9-.3-4.6-.2-5.6 0-.7.2-1.5.5-2.3l.2-1.8C6.8-.2 7.5-1.9 8.5-4c.3-.6 1-1.6 2.1-3 .4-.5.7-.8.9-1.1m-.4-1.8c0 .1 0 .5-.1 1 0 .2 0 .4.1.5L9.9-7.2C9-6.2 8.4-5.3 8-4.5c-.3.4-1 2.2-2.3 5.4l-.1 1.8c-.3.9-.5 1.8-.5 2.6-.1 1-.1 2.8.1 5.4L5 12.6c0 .1.1.5.1 1 0 .4 0 .8.1 1 .1.1.3.5.5 1.1v.1h-.2c-.1.1-.4.2-.7.2-.9-.1-1.8-.5-2.6-1.3-.8-.9-1.3-1.3-1.4-1.3-.3 0-.5 0-.6.1v.3c-.1 0-.2-.2-.4-.5 0-.1-.1-.3-.1-.4-.3 0-.6-.1-.7-.4h-.1l.2-2.1c-.1-1-.2-1.6-.2-1.8 0-.1 0-.5.1-1.3 0-.5.2-1.2.5-2.2.2-1.1.3-1.9.4-2.3C0 2.1.2 1.3.5.4c.5-1.2.7-1.9.8-2.2.2-.7.7-1.5 1.3-2.3.3-.4 1-1.1 2.1-2.1 2.1-1.9 3.4-3.2 4-3.8h1c.3-.1.6-.1.9-.1l.5.2zm-2.5-1.7.3.3-.5.9c-.3.2-.9.7-1.9 1.6-1.4 1.3-2.2 2.1-2.6 2.4C2.3-5 1.2-3.5.7-2-.2.4-.7 2-.8 2.7-1 4-1.1 4.9-1.3 5.5c-.1.4-.3 1.1-.4 1.9V12l-.1-.1c-.2 0-.3.1-.3.3v.7l-1.2-.7c0-.1-.1-.4-.3-.7-.3-.6-.5-1.1-.6-1.5-.3-1-.5-1.8-.6-2.4C-4.9 6.1-5 5.2-5 5c0-.1 0-.8.2-1.9.1-1.3.5-2.8 1.2-4.5.2-.5.9-2 2.1-4.4.6-1 2-2.4 4.3-4.1 1.2-.8 2.4-1.4 3.4-1.8l2.3-.9c.4-.1.7-.2 1-.3-.7.4-1.1.6-1.1.7-.2.3-.1.4.2.6M-3.6 12.8c.1 0 .2.1.3.2l-.3.2v-.1c.1-.2.1-.3 0-.3z" transform="rotate(-10.463 181.601 -159.527) scale(.53376)"/><path class="st10" d="M12.5-13.5c-.2 0-.3-.1-.5-.1-.2-.1-.5-.1-.7-.2-.7-.1-1.5-.1-2.3 0-1.2.2-2.6.7-4.2 1.4-.2.1-.4.2-.7.3-1.8.2-3.3.7-4.5 1.4-1.1.6-2 1.4-2.6 2.4-.1 0-.2.1-.3.1-3.3 1.8-5 4.8-5.2 9-.2 4.3.8 7.7 2.8 10.3.2.3.5.6.7.9m18-25.4h-.5m7.7 1.3c.8.2 1.6.4 2.3.8 1.5.7 2.9 1.6 4.1 2.8h0c1 .1 2.1.7 3.3 1.8 1.2 1 2 2.5 2.6 4.6C34-.4 34.6 2.3 34.1 6c-.5 3.7-1.9 6.6-4.3 8.7-.8.7-1.5 1.2-2.3 1.6m-.3-.1c-.3.2-.7.3-1 .4 0 0-.1 0 0 0-.2 0-.3.1-.5.1-.8.2-1.6.2-2.3 0v-.1l-.5.5c-1.1.8-2.3 1.1-3.5.9 0-.1-.1-.1-.1-.1-.1.1-.3.1-.5.2-2.2 1-3.9 1.3-5.3 1-1.5-.4-2.3-.7-2.4-.9-1.8.3-3.4 0-5-.9m-.1-.1h.1m-.4 0c-2.2.1-4.1-.6-5.7-2.1-.2-.2-.3-.3-.4-.5-.1-.2-.3-.4-.5-.6-.8.3-1.7.1-2.8-.9-.2-.2-.4-.3-.6-.5 0-.1-.1-.2-.1-.3-.2-.1-.4-.3-.6-.6" transform="rotate(-10.463 181.601 -159.527) scale(.53376)"/><path class="st11" d="M19-15.6v1.1c0 .5.1 1.2.5 2s.6 1.5.6 1.9c0 .2-.1.3-.3.2-.2 0-.4-.1-.5-.4-.1-.2-.2-.3-.2-.4-.2.1-.3.1-.5.1h-.3l-.1-.2s-.1.1-.1.4v.1c.3 0 1.2.4 2.9 1.1-.7-1-1.2-1.7-1.3-2.1-.2-.6-.3-1.1-.4-1.4v-2.7c.2.2 0 .3-.3.3m1-4.2-.2.1c0 .2-.1.4-.3.5l.1 2.3v.6-1.1l.3-1.7c0-.3 0-.5.1-.7m-1.4 6.3v.2c.1-.1.1-.2 0-.2m-2-6.5c-.4-.2-.6-.4-.7-.6 0-.2.2-.3.5-.3.1 0 .7.2 1.8.6.3 0 .6 0 .9-.1.3-.1.5-.2.6-.1.2 0 .4.1.4.4.1-.2.1-.4.1-.7 0-.5-.1-.8-.5-1-.1 0-.5-.1-1.2-.2-1.6-.1-2.6 0-3 .5-.4.4-.6 1.6-.8 3.6-.3 3.5-1.4 5.4-3.1 5.9.1.3.6.5 1.3.6.4 0 1 .1 1.7.1.1 0 .4.1.7.3s.5.3.6.5c.1.1.2.3.3.6.2.3.4.5.6.5.1 0 .3-.2.5-.7.2-.3.4-.5.6-.6v-.1c-.3.4-.6.6-.9.6-.2 0-.3-.2-.4-.4.6-.8 1.1-1.5 1.4-1.9.1-.5.1-.8.2-1-.1-.2-.1-.3-.1-.4-.1-.3-.1-.6-.1-.8 0-.2 0-.8.2-1.8.1-.3.1-.7.2-1 0-.3.1-.6.2-.9v-.1c0-.2.1-.3.1-.5v-.5c-1.2-.2-1.8-.4-2.1-.5z" transform="rotate(-10.463 181.601 -159.527) scale(.53376)"/><path class="st12" d="M20-19.8v-.1.1zm-4-.7c0 .2.3.4.7.6.3.1.9.3 1.9.5v.5c-.1.1-.1.3-.1.5v.1c-.1.3-.2.6-.2.9-.1.3-.1.6-.2 1-.2 1-.3 1.6-.2 1.8 0 .2 0 .5.1.8 0 .1.1.2.1.4-.1.2-.2.5-.2 1-.3.4-.8 1.1-1.4 1.9 0 .2.2.4.4.4.3 0 .6-.2.9-.6v.1l.1-.1.1-.1c.1 0 .1-.1.2-.1v-.1c0-.2.1-.4.1-.4l.1.2h.3c.1 0 .3 0 .5-.1 0 .1 0 .2.2.4.1.3.3.4.5.4s.3-.1.3-.3c0-.4-.2-1.1-.6-1.9-.3-.8-.5-1.5-.5-2v-1.1c.3 0 .4-.1.5-.3v-1.1l-.1-2.3c.2-.1.3-.3.3-.5l.2-.1c0-.1.1-.1.1-.2 0 0 .1-.1 0-.1 0-.2-.1-.4-.4-.4-.1 0-.3 0-.6.1s-.6.1-.9.1c-1.1-.4-1.7-.6-1.8-.6-.3.3-.4.4-.4.7m2.6 7v.1-.1z" transform="rotate(-10.463 181.601 -159.527) scale(.53376)"/><path class="st10" d="M20.1-20.1c.1-.2.1-.4.1-.7 0-.5-.1-.8-.5-1-.1 0-.5-.1-1.2-.1-1.6-.1-2.6 0-3 .5-.4.4-.6 1.6-.8 3.6-.3 3.5-1.4 5.4-3.1 5.9.1.3.6.5 1.3.6.4 0 1 .1 1.7.1.1 0 .4.1.7.3s.5.3.6.5c.1.1.2.3.3.6.2.3.4.5.6.5.1 0 .3-.2.5-.7.2-.3.4-.5.6-.6m.1-.2c.1 0 .1-.1.2-.1m1.3-5V-16.5m.5-3.3c0-.1.1-.1.1-.1v-.2m-.6 3.7v-1.1l.3-1.7c0-.2.1-.5.1-.7m-1.7 9h0c.3 0 1.3.4 3 1.1-.7-1-1.2-1.7-1.3-2.1-.2-.6-.3-1.1-.4-1.4V-16" transform="rotate(-10.463 181.601 -159.527) scale(.53376)"/><path class="st13" d="M6.1-5.2 1.2-1l5.2 2-.3-6.2zm14 13.8L18.4 11l-1.3-2.7-3.4-.3-2.6 2.5-1.8-3.4-3.2-.3L4 9.5 1.8 6.3-3 5.7c1.8 2.9 4.7 5.2 8.6 6.7l1.5-2.7 1.3 3.7c.5.1 1 .2 1.6.3 1 .1 1.9.2 2.9.3l2.1-3.8 1.1 3.7c4.3-.4 8.2-1.9 11.9-4.4l-7.9-.9zm-.6-6.7L25 1l-3.4-5.2-2.1 6.1z" transform="rotate(-10.463 181.601 -159.527) scale(.53376)"/><path class="st14" d="M6.1-5.2 6-6.9-.3-1.6l1.5.6 4.9-4.2zm15.6 1-1-1.5-2.8 7.8 1.6-.2 2.2-6.1z" transform="rotate(-10.463 181.601 -159.527) scale(.53376)"/><path class="st10" d="m19.5 1.9-1.6.2 2.8-7.8 1 1.5L25 1l-5.5.9zm-1.1 9 1.7-2.4 7.8.9c-3.6 2.5-7.6 4-11.9 4.4l-1.1-3.7-2.1 3.9c-.9-.1-1.9-.2-2.9-.3-.5-.1-1.1-.2-1.6-.3L7.1 9.7l-1.5 2.7C1.7 10.9-1.1 8.6-3 5.7l4.8.6L4 9.5l2.2-2.7 3.2.3 1.9 3.3 2.6-2.5 3.4.3 1.1 2.7zM1.2-1l-1.5-.6L6-6.9l.1 1.8.3 6.1-5.2-2z" transform="rotate(-10.463 181.601 -159.527) scale(.53376)"/><g><path class="st8" d="m23.4 21.3.3.4.5-.5c-.1 0-.2-.1-.2-.2-.3.3-.5.3-.6.3m4.1-1.1V20c0-.1.1-.2.1-.3-.1.1-.2.1-.3.2l.2.3zM.7 19.5c-.2.1-.4.2-.6.2l-1.2-.1c.7.4 1.4.5 2.1.4h.1c.1.2.3.3.4.5l.1-.2c-.1-.2-.2-.3-.3-.4H1c-.3 0-.4-.1-.3-.4M8-12c.1-.1.3-.1.5-.2-.8.1-1.6.2-2.4.5-1.6.5-3 1.4-4.4 2.5v.1c-1 0-2.1.4-3.4 1.4S-4-5.1-4.8-2.9C-6.6-1.2-7.5 1.8-7.6 6c-.1 4.2.9 7.7 2.9 10.5.6.9 1.2 1.6 1.9 2.2 0-.1.1-.2.3-.2.1 0 .3.1.6.3.3.2.4.3.5.4H.5l-.5-1c-.4-1-.7-1.8-.8-2.4-.1-1.9-.3-3.2-.6-4.1l.1-2.1c-.1-.6 0-2 .1-4 .1-1.8.2-3.2.5-4.1C-.6 1 0-.6 1-3.2c.1-.5.3-.8.4-1.1.1-.4.3-.8.5-1.1.4-.6.8-1.3 1.4-2 0 0 .1-.2.2-.5.1-.2.3-.4.4-.5l1-1s.1-.2.2-.5c0-.1.1-.1.1-.2-.4.2-.6.3-.7.4-1.3 1-2 1.5-2.1 1.5h-.2C1-7.1 0-5.9-.8-4.5c-.9 1.3-1.6 2.7-2.1 4-.9 2.1-1.4 4.7-1.6 7.9-.1 1.3 0 2.5.1 3.7l-.2 2.4c.2.7.7 1.9 1.3 3.4 0 .2-.2.4-.4.4-.4 0-.7-.5-1-1.5-.1-.2-.3-.9-.6-2.1l.1-2.3V7.5C-5 3.8-4.4 1-3.4-1c.9-1.9 1.6-3.3 2.2-4.1.8-1 1.2-1.6 1.4-2C1-8.2 1.6-8.7 1.9-8.7v-.2c.8-.8 1.3-1.1 1.6-1 .2-.1.3-.2.5-.4 1.1-.6 2-1 2.8-1.2.3-.1.7-.3 1.2-.5m.1 2.4L8-10l-1.7-.1c-.3.2-.5.3-.5.4-.1.3-.4.6-.7 1-.6.5-1.1 1.2-1.5 2-.1.1-.3.5-.8 1-.2.4-.4.7-.5 1l-.7 2C.5.2-.1 1.7-.1 1.7c-.3 1-.5 2.3-.6 3.9-.1 1.8-.1 3 0 3.5l-.2 2.2c.1.3.3 1.7.6 4.1 0 .3.3 1 .9 2.1.5 1.1.8 1.7.8 1.9.3.1.6.3 1 .5.1.1.3.3.5.4h.4c.6.2 1.1.4 1.7.4-.1-.1-.1-.3-.2-.4-.2-.7-.2-1.4-.2-2.1l.4-7.1c.4-1.9.6-3.1.7-3.6 0-.5-.1-1.4-.2-2.6-.1-1.2-.1-2.1-.1-2.8.1-1.7.3-3.6.7-5.7.3-1.8.6-3.1 1-3.9v-.2l1-1.9zm.5 1.9c-.3.1-.5.2-.6.2-.2.3-.3.5-.3.7 0 .3-.2.7-.5 1.3-.1.3-.3 1.2-.5 2.5-.3 1.1-.6 2.9-.7 5.2 0 .6 0 1.5.1 2.7.1 1.1.2 2 .2 2.6 0 .5-.2 1.1-.4 1.8-.2.8-.3 1.4-.4 2-.1.8-.2 2.1-.2 3.7l-.2 3.3c0 .5.1 1.2.5 2l.4 1c.7.4 1.6.8 2.7 1.3H10c.8.2 1.3 0 1.5-.5 0-.2.1-.3.1-.4 0-.1-.1-.1-.1-.2.2-.1.4-.2.5-.2V21c.2-.8.3-1.6.3-2.2.1-.8.1-1.4 0-1.7-.1-.4-.2-1.3-.2-2.5l-.3-4.3c-.2-4.3-.3-7.2-.2-8.5.1-1.7.2-2.9.3-3.5l.3-4.2c-.2-.1-.4-.5-.6-1.2-.3-.8-.4-1.3-.5-1.4h-.7c-.5.2-1.1.4-1.8.8m5.9.2-.9-.1c-.1.1-.3.4-.7 1-.1 0-.1.1-.1.1 0 .2 0 .4-.1.7l-.1 1.7c-.2 3-.3 5-.5 6-.1 1.7 0 3.3.2 4.8l-.1 2c.1.7.2 2.4.4 5.1.2 3 .3 4.8.2 5.3 0 .4-.1.9-.2 1.6v1.1c.3.1.6.3.9.6l2.9.2c.1 0 .3-.2.6-.6.1 0 .2 0 .4.1l.7-1.8.5-2 .1-2.3c.6-2.7.9-4.7 1-5.9 0-.8 0-1.7-.1-2.8l.1-2c-.2-1.6-.7-3.6-1.3-6.2-.2-.7-.7-1.9-1.6-3.7-.3-.6-.6-1.1-.8-1.5-.2-.1-.4-.3-.8-.6-.4-.5-.7-.8-.7-.8m4.7-.3c-.3 0-.6-.1-.9-.2-.3-.1-.5-.2-.9-.2l-.7.1v1.2c0 .2 0 .4-.1.5.2.4.5.9.9 1.6.7 1.3 1.2 2.4 1.5 3.3.1.5.6 2.7 1.3 6.5l-.1 2c.1 1 .1 2 .1 2.9-.1 1.1-.4 3.2-1 6.1l-.1 2.2c0 .1-.1.5-.2 1.1-.1.5-.1.9-.2 1.1-.1.2-.2.6-.6 1.2 0 0-.1.1 0 .2h.2c.1.3.4.4.6.4.9.1 1.8-.3 2.8-1.2.9-.9 1.4-1.3 1.5-1.3.3 0 .4.1.5.2v.3c.1 0 .2-.2.5-.5 0-.1.1-.3.1-.4.3 0 .6-.1.8-.2l.1-.1.1-2.4c.2-1.1.4-1.8.4-1.9 0-.1 0-.6.1-1.5v-2.8c-.1-1.3-.1-2.2-.1-2.7 0-.7-.1-1.6-.3-2.8-.3-1.2-.5-2.1-.5-2.4-.1-.9-.4-1.8-.9-2.8-.3-.5-.9-1.4-1.7-2.7-1.7-2.4-2.7-4.1-3.2-4.8m9.1 6.3c-.4-1.3-1.5-3.1-3.5-5.3-1-1.2-2-2-2.9-2.5l-2.1-1.4c-.3-.2-.6-.3-.9-.5.6.6 1 1 1 1.1 0 .1-.2.2-.4.3-.2.2-.4.3-.4.4l.4 1c.2.3.7 1 1.5 2.1 1.1 1.8 1.9 2.9 2.2 3.3 1.3 1.9 2.2 3.7 2.5 5.5.5 2.8.7 4.6.7 5.4 0 1.5 0 2.6.1 3.2.1.6.1 1.3 0 2.3 0 .3-.2 1.5-.5 3.7l-.1 1.5.1-.1c.1.1.2.3.2.5s0 .4-.2.7l1.2-.6c.1-.2.2-.4.5-.8.4-.7.6-1.2.8-1.6.5-1.1.8-2 .9-2.6.4-1.8.7-2.8.7-3.1 0-.2.1-.9.2-2.2.1-1.5-.1-3.2-.5-5.3-.3-.4-.7-2.2-1.5-5m-.5-5.9c-1-1-2.4-1.7-4.2-2.3-.2-.2-.4-.3-.6-.5-1.4-1-2.6-1.7-3.8-2.1-.8-.3-1.5-.4-2.2-.4h-.7c-.3 0-.6.1-.9.1l1.8.1c.1 0 .2.1.4.2.1 0 .2-.1.3-.1 1.1.1 2.5.7 4.2 2 1.4 1 2.5 2 3.2 2.9.5.6 1.2 1.6 2.2 2.8.8 1 1.3 1.9 1.4 2.7.1.6.4 1.6.8 2.8.3 1.2.6 2.1.7 2.7 0 .1.2 1.2.5 3.2.1.4.1 1.2 0 2.3-.1 1.3-.1 2.1-.2 2.4-.1.3-.4 1.4-.8 3.1-.4 1.8-.8 3.1-1.2 3.9.1-.1.2-.1.3-.2.1.1.1.2 0 .4-.1.1-.1.2-.2.4.3-.3.5-.6.9-.9 2.3-2.6 3.7-6.3 4.2-11.1s-.8-8.4-3.7-10.9c-.1-.1-.1-.2-.2-.2-.4-1.3-1.1-2.3-2.2-3.3z" transform="translate(153.689 27.14) scale(.52048)"/><path class="st9" d="M28.9-1.8c-.1-.7-.6-1.6-1.4-2.7-1-1.2-1.7-2.2-2.2-2.8-.7-.9-1.8-1.8-3.2-2.9-1.7-1.3-3.1-1.9-4.2-2-.1 0-.2 0-.3.1-.1-.1-.3-.2-.4-.2l-1.8-.1-1.1-.1c-2.3 0-3.8 0-4.5.1-.6 0-1.1.1-1.6.3.1 0-.1.1-.2.1-.5.2-.9.4-1.2.6-.8.1-1.7.5-2.8 1.1-.2.2-.3.3-.5.4-.3-.1-.8.2-1.6 1v.2c-.3 0-.8.5-1.7 1.6-.2.3-.6 1-1.4 2-.6.8-1.3 2.2-2.2 4.1C-4.4.9-5 3.8-5.2 7.5v3.9l-.1 2.3c.3 1.2.5 1.9.6 2.1.3 1 .6 1.5 1 1.5.2 0 .3-.1.4-.4-.6-1.5-1.1-2.7-1.3-3.4l.2-2.4c-.1-1.1-.1-2.4-.1-3.7.2-3.1.7-5.8 1.6-7.9.5-1.3 1.2-2.6 2.1-4C0-5.9 1-7.1 2.2-8.2h.2c.1 0 .8-.5 2.1-1.5.1-.1.4-.2.8-.4 0 .1-.1.1-.1.2-.2.3-.3.5-.4.5l-1 1c-.1.2-.3.3-.4.5-.1.3-.2.5-.2.5-.6.7-1 1.4-1.4 2-.2.3-.3.7-.4 1.1-.1.3-.3.6-.4 1.1C0-.6-.6 1-.7 1.5c-.3.9-.4 2.3-.5 4-.1 2-.1 3.4-.1 4l-.1 2.1c.3.8.5 2.2.6 4.1.1.6.3 1.4.8 2.4.2.4.4.7.5 1h-2c-.1-.1-.2-.2-.5-.4s-.5-.2-.6-.3c-.2 0-.3.1-.3.2.1.1.2.1.3.2l.9.6h.1c.2.1.3.1.5.2l1.2.1.6-.3v.1c0 .2.1.4.3.4h.3c.1.1.2.2.3.4l-.1.2c.9 1.2 2 1.7 3.2 1.6H5c.1.1.2.2.4.3 1.9 1.4 3.6 2.1 5 1.9 1.4-.2 2.2-.4 2.4-.5 1.7.6 3.3.5 4.9-.2l.1-.1H18.1c2.1.4 4-.1 5.7-1.6l-.3-.4c.1 0 .3-.1.5-.2 0 .1.1.1.2.2l.6-.6c.7.5 1.6.3 2.8-.5l-.2-.3c.1-.1.2-.1.3-.2 0 .1-.1.2-.1.3v.2c.2-.2.4-.3.7-.5 0-.1.1-.1.2-.2.2-.2.4-.4.6-.5 0-.1.1-.2.2-.4v-.4c-.1.1-.2.1-.3.2.4-.8.8-2.1 1.2-3.9.4-1.7.6-2.8.8-3.1 0-.3.1-1.1.2-2.4.1-1.1.1-1.9 0-2.3-.3-2-.5-3.1-.5-3.2-.1-.6-.3-1.5-.7-2.7-.8-1.3-1-2.2-1.1-2.8m-4.1-5c2 2.2 3.1 4 3.5 5.3.8 2.8 1.3 4.6 1.4 5.2.4 2 .6 3.8.5 5.3-.1 1.3-.1 2-.2 2.2 0 .3-.3 1.3-.7 3.1-.1.6-.4 1.4-.9 2.6-.1.4-.4.9-.8 1.6-.2.3-.4.6-.5.8l-1.2.6c.1-.3.2-.5.2-.7 0-.2-.1-.4-.2-.5l-.1.1.2-1.8c.3-2.2.5-3.4.5-3.7V11c-.1-.6-.1-1.7-.1-3.2 0-.8-.2-2.6-.7-5.4-.3-1.8-1.1-3.6-2.5-5.5-.3-.3-1-1.4-2.2-3.3-.8-1.1-1.3-1.8-1.5-2.1l-.4-1c0-.1.1-.2.4-.4.2-.1.4-.2.4-.3 0-.1-.3-.5-1-1.1.3.1.6.3.9.5l2.1 1.4c.9.6 1.8 1.4 2.9 2.6M18.3-8c.3.1.6.2.9.2.5.7 1.5 2.4 3.2 4.9.8 1.3 1.4 2.2 1.7 2.7.5 1 .8 1.9.9 2.8 0 .3.2 1.2.4 2.6.2 1.1.3 2.1.3 2.8 0 .5 0 1.4.1 2.7.1 1.2.1 2.1 0 2.8-.1.9-.1 1.4-.1 1.5 0 .1-.2.8-.4 1.9l-.1 2.4-.1.1c-.2.1-.5.2-.8.2 0 .1-.1.3-.1.4-.3.3-.5.4-.5.5v-.3c-.1-.1-.2-.2-.5-.2-.1 0-.6.4-1.5 1.3-.9.8-1.9 1.2-2.8 1.2-.3 0-.5-.1-.6-.4h-.2v-.2l.6-1.2c.1-.2.2-.6.2-1.1.1-.6.2-.9.2-1.1l.1-2.2c.6-2.9.9-5 1-6.1 0-.9 0-1.9-.1-3.1l.1-2c-.7-3.8-1.2-6-1.3-6.5-.3-.9-.8-2-1.5-3.3-.4-.7-.7-1.2-.9-1.6.1-.1.1-.3.1-.5 0-.6.1-1 0-1.2l.7-.1c.5-.1.7 0 1 .1m-4.7.4.9.1s.3.3.8.7c.4.3.6.5.8.6.2.4.5.9.8 1.5.9 1.7 1.4 3 1.6 3.7.6 2.6 1.1 4.6 1.3 6.2l-.1 2c.1 1.1.1 2 .1 2.8-.1 1.2-.4 3.2-1 5.9l-.1 2.3-.5 2-.7 1.8c-.2-.1-.3-.1-.4-.1-.3.3-.6.5-.6.6l-2.9-.2c-.3-.3-.6-.5-.9-.6v-1.1c.1-.7.2-1.2.2-1.6 0-.5-.1-2.3-.2-5.3-.2-2.6-.3-4.3-.4-5.1l.1-2c-.3-1.6-.4-3.1-.3-4.8.1-1 .3-3 .5-6l.1-1.7c.1-.3.1-.5.1-.7l.1-.1c.4-.5.6-.8.7-.9M8-7.5c.1-.1.3-.2.6-.3.8-.4 1.4-.6 1.8-.7h.6c.1.1.2.6.5 1.4.2.7.4 1.1.6 1.2l-.3 4.2c-.1.6-.2 1.7-.3 3.5-.1 1.3 0 4.1.2 8.5l.3 4.3c0 1.2.1 2.1.2 2.5.1.3.1.9 0 1.7 0 .6-.1 1.3-.3 2.2v.3c-.1.1-.3.2-.5.2 0 0 .1.1.1.2-.1.1-.1.2-.1.4-.2.5-.7.6-1.5.5H8.6c-1.1-.4-2-.9-2.7-1.3l-.4-1c-.3-.8-.5-1.4-.5-2l.4-3.3c0-1.6.1-2.9.2-3.7 0-.5.2-1.2.4-2 .1-.7.2-1.3.3-1.8 0-.6 0-1.5-.2-2.7C6 3.6 6 2.8 6 2.2c.1-2.3.4-4.1.7-5.2.2-1.3.4-2.2.6-2.5.3-.5.5-1 .5-1.3-.1-.2 0-.4.2-.7M8-10l.1.4-1 2v.2c-.4.8-.7 2.1-1 3.9-.4 2.1-.6 4-.7 5.7 0 .7 0 1.7.1 2.9.1 1 .2 1.9.2 2.4-.1.5-.3 1.7-.7 3.6l-.4 7.2c0 .6 0 1.3.2 2.1 0 .1.1.3.2.4-.5 0-1.1-.2-1.7-.4h-.4c-.2-.1-.3-.3-.5-.4-.4-.2-.7-.4-1-.5 0-.2-.3-.8-.8-1.9-.5-1.1-.8-1.8-.9-2.1-.3-2.4-.5-3.8-.6-4.1l.2-2.2c-.1-.5-.1-1.7 0-3.5.2-1.7.3-3 .6-4 0 0 .6-1.5 1.7-4.5l.7-2c.1-.3.3-.6.6-1 .4-.5.7-.9.8-1 .4-.8.9-1.5 1.5-2 .3-.4.6-.7.7-1-.1 0 .1-.1.4-.3L8-10z" transform="translate(153.689 27.14) scale(.52048)"/><path class="st15" d="M28.9 18.9c.3-.3.5-.6.9-.9 2.3-2.6 3.7-6.3 4.2-11.1S33.2-1.5 30.3-4c-.1-.1-.1-.2-.2-.2-.4-1.2-1.2-2.3-2.3-3.2-1-1-2.4-1.7-4.2-2.3-.2-.2-.4-.3-.6-.5-1.4-1-2.6-1.7-3.8-2.1-.8-.3-1.5-.4-2.2-.4h-.7c-.3 0-.6.1-.9.1m13.5 31.5-.6.6-.2.2c-.2.2-.5.3-.7.5-1.2.8-2.1 1-2.8.5l-.6.6-.5.5c-1.7 1.5-3.6 2-5.7 1.6m-.1-.1h-.1m-.1.1c-1.6.7-3.2.8-4.9.2-.1.2-.9.3-2.4.5-1.4.2-3-.4-5-1.9-.1 0-.2-.1-.3-.2h-.3c-1.2.1-2.3-.4-3.2-1.6-.1-.2-.3-.3-.4-.5v.1c-.7.1-1.4 0-2.1-.3-.2-.1-.3-.1-.5-.2h-.1l-.9-.6m-.2-.3c-.7-.6-1.3-1.3-1.9-2.2-2-2.8-3-6.3-2.9-10.5.1-4.2 1-7.2 2.8-8.9C-4-5.1-3-6.7-1.7-7.7S.7-9.1 1.7-9.1h.1c1.3-1.1 2.8-1.9 4.4-2.5.8-.3 1.6-.4 2.4-.5" transform="translate(153.689 27.14) scale(.52048)"/><g><path class="st11" d="M16.1-15.2v1.1c-.1.5 0 1.2.3 2s.4 1.4.4 1.9c0 .2-.1.3-.4.3-.2 0-.4-.1-.5-.4-.1-.2-.1-.3-.1-.4-.1.1-.3.2-.4.2h-.3L15-11s-.1.2-.1.4v.1c.3 0 1.2.4 2.9 1-.7-.9-1-1.6-1.1-2-.1-.6-.2-1-.2-1.3l.1-1.3c0-.2 0-.6.1-1.4-.2.2-.3.3-.6.3m1.3-4.2h-.2c0 .2-.1.4-.4.6l-.1 2.3v.6c0-.3.1-.7.1-1.1l.4-1.7c.1-.3.1-.5.2-.7m-1.9 6.3v.1-.1zm-1.4-6.4c-.4-.2-.7-.4-.7-.6 0-.2.2-.3.5-.3.1 0 .7.2 1.8.6.3 0 .7-.1 1-.2.3-.1.5-.2.6-.2.2 0 .3.2.3.4.1-.2.2-.4.2-.7 0-.5-.1-.8-.4-1-.1 0-.5-.1-1.2-.1-1.6-.1-2.6.1-3.1.6-.4.4-.7 1.7-1.1 3.7-.6 3.4-1.9 5.4-3.8 5.9.1.3.6.5 1.3.6.4 0 1 0 1.7.1.1 0 .4.1.7.2.2.2.4.3.5.5 0 .1.1.3.3.6.1.2.3.4.5.4.1 0 .3-.2.6-.8.2-.3.4-.5.6-.6v-.1c-.4.4-.7.6-1 .6-.2 0-.3-.2-.3-.4.7-.9 1.2-1.5 1.5-1.9.1-.5.3-.9.4-1.1v-.4c-.1-.3-.1-.6-.1-.8 0-.2.1-.8.5-1.8.1-.3.2-.6.2-.9l.3-.9v-.1c.1-.2.1-.4.1-.5v-.5c-1 0-1.6-.2-1.9-.3z" transform="translate(153.689 27.14) scale(.52048)"/><path class="st12" d="M17.4-19.4c0-.1.1-.1.1-.1s-.1 0-.1.1m-3.9-.6c0 .2.2.4.7.6.3.1.9.3 1.8.5v.5c0 .1-.1.3-.1.5v.1l-.3.9c-.1.3-.2.6-.2.9-.3 1-.5 1.6-.5 1.8 0 .2 0 .5.1.8v.4c-.1.2-.2.6-.4 1.1-.3.4-.8 1-1.5 1.9 0 .2.1.4.3.4.3 0 .6-.2 1-.6h.1s.1-.1.2-.1.1-.1.2-.1v-.1c0-.2.1-.4.1-.4l.2.2h.3c.1 0 .3-.1.4-.1 0 .1.1.2.1.4.1.3.2.4.5.4.2 0 .3-.1.4-.3 0-.4-.1-1.1-.4-1.9-.3-.8-.4-1.5-.3-2v-1.1c.3 0 .4-.1.5-.3V-16.8l.1-2.3c.3-.2.4-.4.4-.6l.2-.1c0-.1.1-.1.1-.1v-.1c0-.2-.1-.4-.3-.4-.1 0-.3.1-.6.2s-.6.1-1 .1c-1-.4-1.6-.6-1.8-.6-.1.4-.3.5-.3.7m2 7.1V-13.2v.3z" transform="translate(153.689 27.14) scale(.52048)"/><path class="st15" d="M17.6-19.7c.1-.2.2-.4.2-.7 0-.5-.1-.8-.4-1-.1 0-.5-.1-1.2-.1-1.6-.1-2.6.1-3.1.6-.4.4-.7 1.7-1.1 3.7-.6 3.4-1.9 5.4-3.8 5.9.1.3.6.5 1.3.6.4 0 1 0 1.7.1.1 0 .4.1.7.2.2.2.4.3.5.5 0 .1.1.3.3.6.1.1.3.3.5.3.1 0 .3-.2.6-.8.2-.3.4-.5.6-.6m.2 0h.2m1.8-5.1V-16.1m.8-3.3c0-.1.1-.1.1-.1v0-.1m-.8 3.6c0-.3.1-.7.1-1.1l.4-1.7c.1-.2.1-.4.2-.6m-2.6 8.9h0c.3 0 1.3.4 2.9 1-.7-.9-1-1.6-1.1-2-.1-.6-.2-1-.2-1.3l.1-1.3c0-.2 0-.6.1-1.4" transform="translate(153.689 27.14) scale(.52048)"/></g><g><path class="st14" d="m11 3.7-.5-1-2.6 4.9H9l2-3.9zM3.9-4.8 3-6.4-.7 1 .9.9l3-5.7zm16.7-.9-.8-1.6L16.1 0h1.6l2.9-5.7z" transform="translate(153.689 27.14) scale(.52048)"/><path class="st13" d="m9 7.6 3.8-.2L11 3.7 9 7.6zM3.9-4.8.9.9 6.5.8 3.9-4.8zm13.4 16.2-3-.1-2.2 4.7-2.2-4.3-3.3-.1-1.6 4-1.2-4h-7.6C-.6 16.1 3 19 7 20.4L8.5 15l1.5 6.2c1 .1 1.9.1 2.9.1.5-.1 1-.1 1.5-.2l1.8-5.4 1 4.4c3.8-1.5 6.7-4.2 8.8-8.2v-.5h-4.5L18.9 16l-1.6-4.6zm3.3-17.1L17.7 0l5.6-.2-2.7-5.5z" transform="translate(153.689 27.14) scale(.52048)"/><path d="M25.9 11.4v.5c.1-.2.2-.3.2-.5h-.2z" style="fill:#642800" transform="translate(153.689 27.14) scale(.52048)"/><path class="st15" d="m17.7 0-1.6.1 3.7-7.3.8 1.6 2.7 5.5-5.6.1zm8.2 11.4h-4.5L18.9 16l-1.6-4.6-3-.1-2.2 4.7-2.2-4.3-3.3-.1-1.6 4-1.2-4h-7.6C-.6 16.1 3 19 7 20.4L8.5 15l1.5 6.2c1 .1 1.9.1 2.9.1.5-.1 1-.1 1.5-.2l1.8-5.4 1 4.4c3.8-1.5 6.7-4.2 8.8-8.2m-.1-.5h.2c-.1.2-.1.3-.2.5M.9.9-.7 1 3-6.4l.9 1.6L6.6.8.9.9zM11 3.7l1.9 3.8-3.9.1H7.9l2.6-4.9.5 1z" transform="translate(153.689 27.14) scale(.52048)"/></g></g><g><path class="st13" d="M535.7 469.2c-9.9 0-18.5-3-25.6-9-5.8-4.9-9.3-11.4-10.7-19.4-3.8-5.7-5.7-12.7-5.7-21 0-7.7 2.1-15.4 6.5-22.9-.6-.5-1.1-1-1.7-1.5l-1.5-1.5c-2.2 1.7-4.5 3.3-6.9 4.8-.1.1-.3.2-.4.3-8.1 4.8-17.3 7.2-27.4 7.2-10.7 0-19.3-3.1-25.6-9.3-.2-.2-.3-.4-.5-.6-1.1-1.1-2-2.3-2.9-3.6-2.6 2.2-5.3 4.2-8.3 5.9-.1.1-.3.2-.4.3-8.1 4.8-17.3 7.2-27.4 7.2-10.7 0-19.3-3.1-25.6-9.3l-.5-.5c-2.9-3-5.1-6.5-6.6-10.5-.4.5-.8.9-1.3 1.4-12.3 12.5-27.2 18.8-44.5 18.8-17.2 0-31.2-5.1-41.4-15.1-5.6-5.4-9.7-11.7-12.2-18.5-.5-1.3-.9-2.5-1.3-3.8-2.3.9-4.2 1.7-5.9 2.4l-6.6 47c-2.1 15.3-7.7 27-16.8 34.6-.1.2-.3.3-.5.4-9.3 7.5-19.6 11.3-30.7 11.3-11.7 0-21.1-4.4-28-13-4.7-5.8-7.8-12.3-9.1-19.2-3.9-6.7-5.9-14.1-5.9-22-.1-10.1 2.8-20 8.6-29.2 8.1-13 22.2-25.1 41.9-36l1.7-13.3v-.6c.3-2.5.6-5.1.8-7.5 1-9.2 2.1-17.9 3.1-26.1.3-2.1.5-4.1.8-6.1-3.5.5-7 .7-10.6.7-10.7 0-19.5-3-26.4-9-5.7-5.1-9.2-11.5-10.3-19.1-2.3-3.4-3.8-7.1-4.7-11.2-.3-1.6-.5-3.3-.6-5 0-.8-.1-1.6-.1-2.4 0-10.2 3.8-18.4 11.3-24.4 7-5.6 15.7-8.4 26.3-8.4 6 0 14.2 1.7 25.2 5.3 9.2 3.1 16.3 4.6 21.1 4.7 8.2 0 14.8-2 20.3-6.1.8-.7 2.1-1.3 3.4-1.4 1.4-.2 2.7 0 4 .6.8.4 1.7 1 2.4 1.8.1.1.2.3.3.4 3.7 5.2 5.9 11.1 6.6 17.7 2.8 5.3 4.2 11.3 4.2 17.9 0 1.6-.1 3.2-.2 4.8 0 .6-.2 1.6-.7 2.5-.2.5-.5.9-.9 1.3-1.1 1.2-2.3 2-3.8 2.2-1.1.2-2.3.1-3.4-.2-.2-.1-.3-.1-.5-.2-.4-.2-.9-.4-1.3-.5-.9-.3-1.8-.4-2.5-.4-.4.2-.9.6-1.6 1.5-1.5 1.9-2.5 4.8-3.1 8.6v.3l-3.9 27c1.4-2 2.8-3.8 4.5-5.6 1-1.1 2.1-2.2 3.2-3.3 12.5-12.2 28.6-18.4 47.9-18.4 15.2 0 28.2 5 38.4 14.9.9.9 1.8 1.8 2.6 2.7 1.2-10.8 2.6-22.9 4.2-36.2v-.2c.1-1.1.3-2.1.4-3.2.2-1.6.5-3.1.8-4.6 3.1-15.2 9.4-25.3 18.9-30.1.1-.1.2-.1.3-.1 4.9-2.6 10.8-3.9 17.5-3.9 20.5 0 29.6 8.8 33.4 18.9 3.4-7 8.1-11.9 13.9-14.9.1 0 .2-.1.3-.1 4.9-2.6 10.8-3.9 17.5-3.9 26.8 0 34.2 15.2 35.5 28.6 2.7 4.8 4.2 10.8 4.2 17.7v.8c0 1.7-.1 3.4-.3 5.2-.2 2.8-.6 5.7-1.2 8.6 5-.3 8.9.1 11.4.5 3.3.4 6.6 2.2 9.6 5.4 2.9 3.1 4.4 7.5 4.4 13v1.1c.6.7 1.3 1.6 1.9 2.5 1.5 2.8 2.2 6 2.2 9.7v.9l-6.6 51.5c4-.1 7.3-1.9 10.2-5.6.3-2.9.9-7.8 1.7-14.7l1.5-14c1.1-10.2 2.1-18.9 3-26.1.4-3.3.8-6.3 1.2-9 .1-.8.3-1.6.6-2.3 2-4.4 6-7.9 11.9-10.2 5.2-2 9.4-3 12.8-2.9 3 0 5.9.2 8.6.7-.3-1.1-.6-2.3-.8-3.4-3.3-5.8-5.2-11.9-5.8-18.3-.1-1.2-.2-2.5-.1-3.8v-.9c.3-10.7 4.2-19.2 11.6-25.6 7.4-6.3 16.4-9.6 26.9-9.6 26.2 0 33.7 15.6 35.2 29.1 2.5 4.7 4 10.4 4.3 17 0 .9.1 1.8.1 2.7 0 .5 0 1.2-.1 2-.1.5-.1 1-.2 1.6-.1 1.2-.3 2.5-.5 3.8-.3 1.4-.5 3-.8 5.1v.4l-1.2 8.1c-.5 3.1-1.1 7-1.9 11.9l-.7 4.9c-.5 3.4-1 7-1.5 10.7v.4c-.9 5.6-1.9 12.6-2.9 20.8l-3.1 21.2c-.3 2.1-.6 4-.8 5.6 5.6-.3 9.7-7.1 11.7-20.3.1-.7.2-1.3.3-2l13.9-109.6c.1-1 .5-2.2 1.2-3.2.7-1.1 1.8-2 3-2.5 5.6-2.6 12.4-3.9 20-3.9 7.4 0 12.9 1.9 16.5 5.5 3.1 3.1 4.6 7.4 4.5 12.6v.4l-.1 1.1c2.2 2.4 4.2 6.1 4.1 11.8v.5l-.2 2.6v.3c-.3 2.8-.7 5.5-1.1 8.1-2.1 15.7-3.8 28.9-5.3 39.6-2 14.8-3.5 25.1-4.5 30.6v.3c-2 11.2-3.4 20.6-4 27.9 3-.4 6.3-3.5 9.4-9.3 2-3.6 3.7-7.7 5.3-12 1.5-4.1 2.8-8.7 3.8-13.4.4-1.7.7-3.4 1.1-5.1 1.3-7 2.4-14 3.4-20.5 2.4-16.9 3.8-32.3 3.9-45.7v-4.3c-.1-8.2-.8-15.4-2.1-21.4-.3-1.6-.2-3.1.4-4.4.4-1.2 1.5-2.4 2.8-3.2 6.9-4.2 15.2-6.3 24.6-6.3h.3c5.5 0 10 1.6 13.3 4.9 3.5 3.5 5.4 8.7 5.6 15.5 2.7 3.5 4 8.4 4 14.5 0 3.6-.1 7.6-.4 11.9-.4 6.6-1.1 14.1-2 22.6 6.8-3.8 14.3-6.3 22.5-7.5l.1-.1v-.1c.2-.2.3-.4.5-.6 2.1-2.1 5.4-2.9 10.4-2.7 2.2.1 2.9.2 3.5.3.1 0 .3.1.4.1.2 0 .3.1.5.2 1.2.5 2.1 1.2 2.8 2.2 12.6 1.2 23.4 6.1 32.2 14.6.2.1.3.3.4.5 2.2 2.1 4.1 4.4 5.8 6.7.5.7 1 1.4 1.4 2.1l1.8-15.4c.1-1.2.6-2.6 1.5-3.7 1-1.2 2.3-2.1 3.8-2.4 5.5-1.7 11.6-2.6 17.6-2.6 8.3 0 13.3 2.3 16.2 5.3 5.6-3.5 12-5.3 19.2-5.3 8.3 0 14.9 2.1 19.7 6.1 1 .9 2 1.8 2.8 2.8 1-8.5 2.1-17.7 3.2-27.6v-.2c.1-1.1.3-2.1.4-3.2.2-1.6.5-3.1.8-4.6 3.1-15.2 9.4-25.4 18.9-30.1.1 0 .2-.1.3-.1 4.9-2.6 10.8-3.9 17.5-3.9 26.9 0 34.3 15.2 35.6 28.6 2.7 4.8 4.2 10.8 4.2 17.7v.8c0 1.7-.1 3.4-.3 5.2-.8 11.5-5.1 23.3-12.9 35.1 1.2-1.7 2.5-3.3 3.9-4.8.8-.9 1.6-1.8 2.5-2.6 12.5-12.6 28.4-19.1 47.4-19.1h1.3c3.6 0 7.1.3 10.5.9l5.6-46.5c0-.7.2-1.4.4-2 1.5-4 5-7.4 10.3-10 4.5-2.2 9.9-3.2 15.9-3.2 6.5 0 11.5 1.1 15 3.3 1.1.6 2.2 1.8 2.8 3.3.4.9.7 2.2.6 3.5l-.8 6.2c.6.3 1.2.6 1.7.9 1.1.8 1.8 1.6 2.4 2.5.1.1.1.3.2.4.5 1.1.7 2.3.5 3.5-.8 6.1-1.9 13.9-3.1 23.4-1.2 8.6-2.5 18.5-4 29.9-.5 3.4-.9 6.6-1.3 9.7-3.2 24.5-5.5 43-6.9 55.4 3-3.6 6-9.5 8.7-17.8.3-.9.6-1.8.9-2.8.4-1.5 1.5-3 3-3.9 1.1-.8 2.7-1.3 4.3-1.1 1.7.1 3.3.8 4.5 2 1.4 1.3 2.7 2.8 3.8 4.2 2.9 3.6 5 7.5 6.4 11.5.4 1.4.5 2.7.2 4-.1.4-.2.8-.3 1.1 1.8 2.7 3.2 5.5 4.2 8.4.4 1.4.4 2.8 0 4.1-.9 2.9-1.9 5.8-2.9 8.4-5.8 14.4-14.3 24.2-25.2 29.1-.2.1-.3.1-.5.2-5.8 2.7-11.3 4.1-16.6 4.1-11.8 0-20.8-3.3-26.8-10-7.8 6.8-17.1 10.2-27.9 10.2-13.4 0-25-4.6-34.3-13.8l-.5-.5c-.8-.8-1.6-1.7-2.3-2.5-3.5 3.6-7.6 6.8-12.1 9.5-.1.1-.3.2-.4.3-8.1 4.8-17.3 7.2-27.4 7.2-10.7 0-19.4-3.1-25.7-9.3-.2-.2-.3-.3-.4-.5-4.5-4.6-7.4-10.5-8.5-17.5-3.7-5.6-5.6-12.6-5.6-20.8 0-.6 0-1.7 2.1-20.7l.7-6.3c-3.5 1.4-7.4 2.1-11.8 2.1h-.7l1.2 3.3c.8 2.6 1.4 5.3 1.8 8 3 6.6 4.5 13.6 4.5 20.8 0 2-.1 3.9-.3 5.7-1 10.3-4.8 18.5-11.1 24.4-7.5 7-16.9 10.5-28 10.5-11.6 0-20.4-3.9-26-11.5-3.2-4.3-5.4-9.4-6.6-15.2-1.9 2.8-4.1 5.5-6.5 7.9-12.3 12.5-27.2 18.8-44.4 18.8s-31.2-5.1-41.4-15.1c-4.5-4.4-8.1-9.3-10.6-14.7-2.9 4.7-6.2 9.2-9.8 13.4-9.4 10.9-22.5 16.4-39.1 16.4-13.5 0-24.1-4.7-31.6-14-8.9 9.2-20.9 13.9-35.7 14-7.2 0-13.5-1.3-18.9-3.8.6 2.3 1.1 4.7 1.5 7.2 0 .3.1.5.1.8v.6c0 .3 0 .6-.1.9-.7 3.8-3.8 8.9-9.7 16-1.2 1.3-2.6 2.1-4.1 2.3-.2 0-.3 0-.5.1-1.6.1-3.2-.3-4.4-1.3-1.5-1-2.4-2.6-2.6-4.4-.5-3-1.1-5.8-2-8.4-.1-.1-.2-.1-.2-.2-1.6-1.3-2.5-2.8-2.9-4.5-.2-1.5-.5-2.8-.8-4.1-1.7-2.8-3.7-5.1-6.1-6.9l-2.4 17.9c-1.7 14.2-6.3 26.2-13.7 35.5-7.1 10.9-18.7 16-33.7 16zm-37.9-87.6h.7c1.5.2 2.9 1.1 3.7 2.5.9 1.5 2 2.9 3.3 4 1.3 1.3 2.7 2.3 4.2 3.2 1.2.7 2 1.9 2.3 3.2.3 1.3 0 2.8-.8 3.9-4.9 7-7.3 14.2-7.3 21.3 0 6.6 1.5 12.1 4.5 16.2.5.7.8 1.4.9 2.3.8 6.1 3.2 10.8 7.4 14.3 5.3 4.4 11.6 6.6 19.2 6.6 11.9 0 20.6-3.7 26.6-11.4 6.3-7.9 10.2-18.2 11.7-30.6l3.3-25.2c.2-1.5 1.1-2.9 2.4-3.6 1.3-.8 2.9-.9 4.3-.4 7.3 2.8 13.2 7.8 17.3 15 .3.4.4.9.5 1.4.3 1.2.5 2.4.8 3.6 1 .6 1.8 1.5 2.2 2.6.6 1.6 1.1 3.3 1.6 5.1 2-2.9 2.7-4.5 3-5.3-.8-4.9-2.1-9.3-3.8-13-.2-.4-.3-.7-.3-1.1-.4-2.4-1-4.7-1.6-6.7-.7-2.3.4-4.8 2.6-5.9 2.2-1.1 4.8-.4 6.3 1.6.7 1 1.5 2 2.4 2.9.1.2.3.3.4.5 5 5.1 12 7.6 21.4 7.6 14.2 0 24.7-5 32.1-15.1 1-1.4 2.6-2.2 4.3-2.1 1.7.1 3.2 1 4.1 2.5 5.7 9.9 14.5 14.7 26.9 14.7 13.7 0 24-4.2 31.5-12.9 3.6-4.3 6.9-8.9 9.8-13.7.1-.1.1-.3.2-.4.1-.2.2-.3.2-.4 1.3-2.4 2.3-4.6 3.4-7 .7-1.8 2.4-3 4.4-3.1 1.9-.1 3.7.9 4.6 2.6l.2.4c.3.5.5 1 .6 1.6.4 2 1 4 1.7 5.8 2 5.5 5.3 10.5 9.9 14.9 8.4 8.3 19.7 12.3 34.5 12.3 14.7 0 26.9-5.2 37.3-15.8 3.4-3.5 6.3-7.6 8.6-11.9.4-.7.8-1.5 1.1-2.2.9-1.9 2.8-3.1 4.9-2.9 2.1.1 3.8 1.6 4.4 3.5.8 2.7 2 5.2 3.4 7.5.4.6.6 1.2.7 1.9.9 4.8 2.6 9 5.1 12.5 3.7 5 9.6 7.5 18 7.5 8.6 0 15.5-2.6 21.2-7.8 4.6-4.3 7.2-10.2 8-18.1.2-1.5.2-3.1.2-4.8 0-6-1.3-11.8-3.9-17.3-.2-.5-.4-1-.4-1.5-.3-2.4-.8-4.7-1.5-7-1.4-4.3-3.5-8.5-6.4-12.6-1.5-2-3.2-4.1-5.1-6.1-.9-1-1.4-2.3-1.3-3.6 0-1.3.6-2.6 1.6-3.5 3.2-2.9 6.9-4.5 11-4.6 1.2 0 2.2.1 3.1.3.8.2 1.5.5 2.1 1 .9.1 1.7.4 2.4.9 2.2 1.5 4.7 4.7 4.7 10.7v1c3.8-.4 6.8-1.6 9.3-3.7.7-.6 1.3-1.2 1.9-1.9 1.4-1.7 3.8-2.3 5.8-1.5 2.1.9 3.3 3 3 5.2l-2 17.4c-1.8 16.2-2 19.1-2 19.6 0 6.5 1.5 11.8 4.4 15.9.5.7.8 1.5.9 2.3.7 5.6 2.8 10 6.2 13.4.1.1.2.3.4.4 4.4 4.1 10.4 6.1 18.3 6.1 8.1 0 15.5-1.9 21.9-5.5.1-.1.3-.2.4-.3 5.5-3.2 10.2-7.3 13.9-12.2 1-1.3 2.6-2 4.2-2 1.6.1 3.1.9 4 2.3 1.5 2.3 3.2 4.5 5.3 6.5.1.1.2.3.3.4 7.5 7.1 16.3 10.6 27 10.6 10.1 0 18.2-3.6 24.8-11.1 1.1-1.2 2.7-1.8 4.3-1.7 1.6.2 3 1.1 3.8 2.5 3.9 6.8 11 10.1 21.9 10.1 3.9 0 8.2-1.1 12.8-3.4.2-.1.5-.2.7-.3 8.2-3.9 14.7-11.7 19.4-23.4.8-2.1 1.6-4.3 2.3-6.6-.9-2.2-2.2-4.5-3.8-6.6-1-1.3-1.3-3.1-.8-4.7.2-.7.4-1.3.7-2-.9-2.5-2.4-5.1-4.3-7.5-3.1 8.7-6.3 15.1-10 19.4-4.4 5.1-8.7 7.8-13.3 8.1-1.5.1-2.9-.4-4-1.5-1-1.1-1.5-2.5-1.4-4 1.1-11.1 3.8-33.3 8.1-65.8.4-3.2.8-6.4 1.3-9.8 1.5-11.4 2.8-21.3 3.9-29.9 1-8.3 1.9-15.2 2.7-20.8-.3-.1-.7-.2-1.1-.3-2.5-.6-4.2-3-3.9-5.6l1.1-7.9c-1.7-.6-4.2-1.1-8.2-1.1-4.6 0-8.5.8-11.6 2.3-1.9.9-4.3 2.4-5.2 4.2l-6.3 51.9c-.2 1.4-1 2.7-2.2 3.6-1.2.8-2.7 1-4.1.7-4.2-1.2-8.8-1.8-13.5-1.8h-1.3c-16.5 0-29.7 5.3-40.3 16.1-.7.7-1.4 1.5-2.1 2.2-5.8 6.6-9.9 14.6-12 23.8-1 4.1-1.6 8.5-1.8 13.1-.1 1.4-.1 2.8-.1 4.3 0 1.2 0 2.4.1 3.6.1 1-.2 2-.7 2.8-1.4 2.4-2.9 4.6-4.5 6.8-6.6 8.8-14 13.3-22.1 13.4-2 0-3.6-.3-5.1-.9-2.1-.8-3.4-2.9-3.1-5.2.4-4.1 1.1-10.7 2.2-19.8v-.1c.8-6.4 1.6-13.1 2.3-19.9.1-1.2.7-2.4 1.7-3.2 9.4-8.4 17-16.7 22.7-24.8 7.4-10.7 11.5-21.4 12.2-31.7.2-1.6.2-3 .2-4.3v-.8c-.1-5.6-1.2-10.2-3.3-13.6-.4-.7-.7-1.5-.8-2.3-1-14.2-8.9-20.5-25.7-20.5-5.2 0-9.6 1-13.1 2.9l-.6.3c-6.4 3.4-10.9 11.1-13.2 22.9-.3 1.3-.5 2.7-.7 4.1-.1.9-.2 1.8-.4 2.7v.2c-1.9 16.4-3.6 30.8-5.1 43.3l-.5 4.6c-.2 2.2-2 4-4.2 4.4-2.2.4-4.4-.8-5.3-2.9-.5-1-1-1.9-1.8-2.8-.9-1-1.4-2.4-1.2-3.8v-1.5c0-4.2-1.4-7.3-4.3-9.8-3-2.5-7.5-3.8-13.3-3.8-6.9 0-12.5 2.1-17.3 6.3-1.3 1.1-3 1.6-4.7 1.1-1.6-.5-2.9-1.7-3.4-3.4-.3-1-1.2-4-10.1-4-4.4 0-8.9.6-13.3 1.8l-3.9 34.2c-.3 2.2-1.9 4-4.1 4.4-2.2.4-4.4-.7-5.3-2.7l-.2-.4c-.2-.5-.4-1-.5-1.6-.8-6.5-3.2-12.4-6.9-17.7-1.5-2-3.2-4-5.1-5.8l-.4-.4c-7.8-7.4-17.2-11.2-28.7-11.6-1.8-.1-3.4-1.1-4.2-2.6-1.2 0-2 0-2.5.1-.8 1.5-2.3 2.7-4 2.9-11.3 1.3-21.2 5.4-29.3 12.1-1.6 1.3-3.8 1.5-5.6.5-1.8-1-2.8-3-2.6-5 1.6-12.8 2.7-23.8 3.2-32.9.2-4.1.3-7.9.3-11.3 0-3-.4-7.1-2.5-9.1-.9-.9-1.5-2.2-1.5-3.5v-.7c0-3.2-.5-7.4-2.7-9.6-1.4-1.4-3.4-2.1-6.5-2-6.8 0-12.8 1.3-17.7 3.9 1.2 6.2 1.9 13.4 1.9 21.4v4.4c-.2 13.9-1.5 29.7-4.1 47-1 6.7-2.1 13.8-3.5 20.9-.3 1.9-.7 3.7-1.1 5.5-1.2 5.1-2.6 10-4.2 14.5-1.7 4.9-3.7 9.4-5.9 13.5-5.1 9.5-11.4 14.4-18.6 14.6-3 0-5.4-.7-7.4-1.8-1.6-.9-2.6-2.7-2.5-4.6.4-8.3 1.8-19.4 4.3-33.1v-.2c.9-5.3 2.4-15.6 4.5-30.5 1.5-10.7 3.3-23.9 5.3-39.6.4-2.6.7-5.1 1-7.8v-.1l.2-2.5c0-3.6-1.3-4.9-2.2-5.6-1.6-1.1-2.4-3-2-4.9v-.3l.2-2.7c0-2.4-.5-4.2-1.7-5.3-1.6-1.6-4.9-2.5-9.4-2.5-5.6 0-10.5.8-14.6 2.4l-13.7 108c-.1.8-.2 1.5-.3 2.2-2.9 18.8-10.2 28.5-21.7 28.8-3.3-.1-5.9-.9-8.1-2.4-1.4-1-2.3-2.7-2.1-4.5.2-2.6.6-6 1.2-10.2l3-21.1c1-8.1 2-15.2 2.9-20.8v-.1c.5-3.9 1-7.6 1.5-11l.7-4.9c.7-5 1.4-9 1.9-12l1.2-7.8v-.1c.3-2.5.6-4.5.9-5.9.1-.9.3-2 .4-2.9.1-.9.2-1.7.2-2.2v-2.8c-.2-5.4-1.4-9.9-3.4-13.3-.4-.6-.6-1.4-.7-2.1-1.3-14.4-9.4-21.1-25.4-21.1-8.1 0-14.7 2.3-20.3 7.1-5.3 4.5-7.9 10.4-8.1 18.1v.8c0 1 0 2 .1 2.9.4 5.1 2 10 4.8 14.7.3.5.5 1.1.6 1.7 1.5 8.3 6.5 16.3 14.8 23.7 1.2 1.1 1.9 2.7 1.6 4.4l-6.8 51.8c0 .2-.1.3-.1.5-.3 2.8-.3 4.3-.3 5 0 7.3 1.6 13.4 4.8 18.3.4.6.6 1.2.8 1.9.1.6.2 1.3.4 1.9.5 2.4-.7 4.8-3 5.7-2.3.9-4.8.1-6.1-2-3.7-5.8-8.6-9.8-15-12.2-2.2-.8-3.5-3-3.2-5.3l8-63.5c-.3-.1-.6-.1-.9-.2-2.6-.5-4.4-2.9-4-5.5l1-8.1c-2.9-.7-5.9-1.1-9.5-1-1.6 0-4.3.4-9 2.2-3.2 1.3-5.3 2.8-6.2 4.7-.4 2.6-.8 5.5-1.2 8.7-.9 7.1-1.9 15.8-3 25.9l-1.6 14c-.9 8.1-1.5 13.5-1.9 16.1-.1.8-.4 1.6-.9 2.2-5 7.2-11.5 10.8-19.4 10.9-2.9 0-5.4-.6-7.5-1.7-1.9-1-2.9-3.1-2.6-5.2l.1-.6 7-54.9c0-2.2-.3-3.7-.9-4.8-.1-.2-.3-.5-.6-.7l-1.1-1.1c-1.3-1.1-1.9-2.8-1.7-4.4l.3-2.3c0-2.9-.6-4.9-1.7-6.1-1.3-1.4-2.6-2.2-3.7-2.4-1.4-.2-3.7-.5-8.2-.5-2.3 0-4.8.3-7.4 1-1.8.5-3.7-.1-4.9-1.4-1.3-1.4-1.7-3.3-1-5 1.6-4.7 2.6-9.4 2.9-14 .2-1.6.2-3 .2-4.3v-.8c-.1-5.6-1.2-10.2-3.3-13.6-.4-.7-.7-1.5-.8-2.3-1-14.2-8.9-20.5-25.6-20.5-5.2 0-9.6 1-13.1 2.9l-.6.3c-6.4 3.4-10.9 11.1-13.2 22.9l-.1.4c-.4 2.3-2.3 4-4.6 4.1-2.3.1-4.4-1.3-5.1-3.5-.5-1.6-1.2-3.1-2-4.4-.4-.7-.7-1.5-.8-2.3-1-14.2-8.9-20.5-25.6-20.5-5.2 0-9.6 1-13.1 2.9l-.6.3c-6.4 3.4-10.9 11.1-13.3 22.9-.3 1.3-.5 2.7-.7 4-.1.9-.2 1.8-.4 2.7v.2c-1.9 16.4-3.6 30.8-5 43.3l-.7 6.3c-.3 2.2-1.9 4-4.1 4.4-2.2.4-4.4-.7-5.3-2.7-.9-1.9-2.1-3.8-3.4-5.6-1.5-2-3.2-4-5.1-5.9-8.4-8.1-18.7-12-31.4-12-16.8 0-30.2 5.1-40.9 15.5l-2.8 2.8c-5.8 6.5-9.8 14.5-11.7 23.7-.2.9-.4 1.8-.5 2.6-.3 1.6-1.3 3-2.8 3.7l-3.9 1.8c-1.7.8-3.6.5-5.1-.6-1.5-1.1-2.2-2.9-1.9-4.7l8-55.8v-.2c.8-5.9 2.5-10.3 5.1-13.6 1.4-1.8 3-3.3 4.8-4.2 1.1-.7 2.6-1.1 4.1-1.2 1.1 0 2.6.1 3.8.3 0-5.2-1.2-9.8-3.4-13.8-.4-.6-.6-1.4-.6-2.1-.3-4.3-1.4-8-3.3-11.4-6.9 4.4-14.8 6.5-23.9 6.5-6 0-13.9-1.7-24.2-5.2-9.8-3.2-17.2-4.8-22.1-4.8h-.1c-8.2 0-14.7 2-19.9 6.2-5 4-7.5 9.5-7.5 16.6v1.8c.1 1.2.2 2.4.5 3.6.6 3.1 1.9 5.9 3.7 8.3.5.7.9 1.6 1 2.5.6 5.7 2.9 10.3 7.1 14 5 4.4 11.5 6.5 19.7 6.5 5.2 0 10.4-.6 15.3-1.8 1.6-.4 3.3.1 4.5 1.2 1.2 1.1 1.8 2.8 1.6 4.4-.6 4.2-1.1 8.5-1.7 12.9-1.1 8.2-2.1 16.8-3.1 25.9-.2 2.3-.5 4.6-.8 6.9v.7l-2.1 16.5c-.2 1.6-1.2 3-2.6 3.8-19.4 10.4-33 21.7-40.4 33.7-4.7 7.6-7.1 15.6-7 23.9 0 6.5 1.6 12.2 4.9 17.6.3.5.6 1.1.7 1.8 1 5.6 3.4 10.8 7.2 15.5 5 6.2 11.6 9.2 20.3 9.2 8.7 0 16.6-2.9 24-8.8l.4-.4c7.3-5.9 11.9-15.6 13.6-28.6l7.1-49.8c.2-1.8 1.4-3.2 3-3.9 2.8-1.1 6.7-2.7 11.8-4.8.1 0 .2-.1.2-.1.5-.2 1-.4 1.4-.6 2.4-.9 5.1.1 6.3 2.4.3.6.7 1.3 1 1.9.3.4.4.9.5 1.4.4 2 1 4 1.7 5.9 2 5.5 5.3 10.5 9.9 14.9C293 392 304.2 396 319 396c14.7 0 26.9-5.2 37.3-15.8 2.2-2.3 4.3-4.9 6.1-7.6.9-1.4 2.4-2.3 4.3-2.3 1.7 0 3.3 1 4.2 2.4.3.5.6 1 .9 1.4.5.7.8 1.4.9 2.2.7 5.6 2.8 9.9 6.2 13.3.1.1.2.2.3.4 4.4 4.1 10.4 6.1 18.3 6.1 8.1 0 15.5-1.9 21.9-5.5.1-.1.3-.2.4-.3 4.3-2.5 8.1-5.6 11.4-9.1 1.2-1.3 2.9-1.8 4.6-1.5 1.7.3 3.1 1.4 3.7 3 1.1 2.6 2.6 5 4.6 7l.3.3c4.4 4.1 10.4 6.1 18.3 6.1 8.1 0 15.5-1.9 21.9-5.5.1-.1.3-.2.4-.3 3.6-2.1 6.8-4.5 9.6-7.3.6-.9 1.9-1.4 3.2-1.4zm93.6-22.7c.5.2.9.4 1.4.7-.3-2.1-.4-4.3-.4-6.6 0-.7 0-1.5.1-2.4l-1.1 8.3zm389.2-14.3c-.7 5.8-1.2 10.6-1.6 14.4 4-.9 8-3.9 11.9-9.1 1.1-1.5 2.2-3 3.2-4.7v-2.6c0-1.6 0-3.2.1-4.8.3-5.2.9-10.2 2-14.9 1.8-7.7 4.7-14.7 8.7-20.9-5.7 8.1-13.1 16.2-22.1 24.4-.8 6.3-1.5 12.4-2.2 18.2zm145.4-6.7zm4.7-1.4v.1-.1zm-207.1-8.4zm-10.6-8.3c.3.5.7.9 1 1.4.1.1.2.3.3.4 0-.6-.1-1-.2-1.4-.4-.1-.8-.3-1.1-.4zm-313.8-22.9-2.9 22.8 3-22.6c0-.1-.1-.2-.1-.2zm-7.6 1.7c.1 0 .2.1.2.1s-.1 0-.2-.1zm-31.8-7.7zm306.1-5.6c-.1 0-.1 0-.2.1.1-.1.1-.1.2-.1zm-278.6-.6c.1 0 .1 0 .2.1 0-.1-.1-.1-.2-.1zm280.4-2v.2-.2zm-65.7-5.9zm-522.4-19.3v.4-.4zm807.9-28.5zm.2-1.2zm-409.9-1v.2c-.1-.1-.1-.1 0-.2zm-402.7-2.7c-.1.1-.3.2-.4.3.1-.1.3-.2.4-.3zm839.1-.1c.1 0 .1.1.2.1-.1 0-.1 0-.2-.1zM531.4 434.3c-3.6 0-6.6-.9-9.2-2.6-1.1-.8-1.9-2-2.1-3.4-.1-.9 0-1.7.3-2.5 1.6-9.8 8.4-18.7 20.1-26.5 1.6-1.1 3.7-1.1 5.4-.1 1.7 1 2.6 2.9 2.4 4.8l-.5 4v.1c-1.2 9.4-2.8 15.6-4.8 19.4-.1.3-.3.6-.5.9-2.5 3.8-6.3 5.9-11.1 5.9zm-.3-10c1.3 0 2.2-.2 2.9-1.1 0-.1.1-.1.1-.2.5-.9 1.4-2.9 2.4-7.4-2.6 2.8-4.4 5.7-5.4 8.7zm-334.6 2.8c-3.4 0-6.5-1.3-9-3.6-1-.9-1.6-2.2-1.6-3.6 0-.7.1-1.4.4-2 1.4-11 8.7-21.5 21.7-31.2 1.6-1.2 3.8-1.3 5.5-.3 1.7 1 2.7 3 2.4 5l-2.6 19.4v.2c-.6 5.3-2.5 9.4-5.6 12.2-3.3 2.6-7 3.9-11.2 3.9zm-10.3-8.3v.1-.1zm18-15.4c-4.1 4.6-6.6 9.1-7.7 13.7 1.8 0 3.3-.5 4.7-1.6 1-.9 1.8-2.8 2.2-5.6v-.3l.8-6.2zm-16.8 12.9zm21-5.9zm260.2-41.1c-2 0-3.6-.3-5.1-.9-2.1-.8-3.4-2.9-3.2-5.2.4-4.1 1.1-10.7 2.2-19.8v-.1c.8-6.4 1.6-13.1 2.3-19.9.1-1.2.7-2.4 1.7-3.2 9.4-8.4 17-16.7 22.7-24.8.8-1.2 1.6-2.5 2.4-3.7 1.2-2 3.7-2.9 5.9-2.1 2.2.8 3.6 3 3.3 5.3l-.5 3.8c-.6 4.8-1.2 9.5-1.7 14.1v.2l-1.4 11.7c-.6 4.9-1.2 9.6-1.8 14.1 0 .2 0 .3-.1.5-.5 4-.8 7.5-1.1 10.5-.1.9-.3 1.7-.8 2.4-.8 1.3-1.7 2.5-2.6 3.7-.1.2-.3.4-.5.5-6.5 8.4-13.8 12.8-21.7 12.9zm3.9-24.7c-.7 5.8-1.2 10.6-1.6 14.4 4-.9 8-3.9 11.9-9.1.1-.2.2-.3.4-.4.4-.6.8-1.2 1.3-1.8.2-2.8.6-5.9 1-9.4v-.3l5 .1-5-.7c.6-4.4 1.2-9.1 1.8-13.9l1.4-11.2c-4.1 4.7-8.8 9.4-14 14.1-.8 6.3-1.5 12.4-2.2 18.2zm-69.1 24.7c-2 0-3.6-.3-5.1-.9-2.1-.8-3.4-2.9-3.2-5.2.4-4.1 1.2-10.7 2.3-19.8.8-6.4 1.5-13.1 2.2-19.9.1-1.2.7-2.4 1.7-3.2 9.4-8.4 17.1-16.7 22.7-24.9 2.6-3.8 4.8-7.6 6.6-11.4 1-2.2 3.5-3.3 5.9-2.7 2.4.7 3.9 3 3.6 5.4l-6.2 54.5c-.1.6-.2 1.1-.5 1.6-2.3 4.8-5 9.2-7.9 13.1-6.5 8.7-14 13.3-22.1 13.4zm4-24.7c-.7 5.8-1.3 10.6-1.7 14.4 4-.9 8-3.9 11.9-9.1 2.4-3.1 4.5-6.7 6.5-10.6l3.6-32c-5.1 6.4-11.2 12.8-18.2 19.1-.7 6.3-1.4 12.3-2.1 18.2zm485.9 24.5H892.4c-1.4-.1-2.6-.8-3.5-1.8-.9-1.1-1.3-2.4-1.1-3.8l2.7-21.5c.2-1.9 1.6-3.5 3.4-4.1 1.8-.6 3.9-.1 5.2 1.3 2.1 2.3 4 4.6 5.6 6.9.5.7.7 1.5.8 2.3.1.8.1 1.6.1 2.4 0 15.4-7.6 18.1-12.1 18.3h-.2zm156.6-.2c-6.3 0-11.6-2.6-15.5-7.4-.3-.4-.5-.7-.8-1-.6-.8-.9-1.7-.9-2.7v-1.5c0-1.3.1-2.7.2-4 1.1-14.8 4.5-25.6 10.4-33.2 6.1-7.9 14.4-11.9 24.7-11.9 1.7 0 3.5.2 5.3.5 2.6.5 4.4 2.9 4.1 5.5l-4.1 33.6c0 .4-.1.8-.3 1.1-5 13.7-12.8 20.8-23.1 21zm-7.2-13.1c1.9 2.1 4.2 3.1 7 3.1 2-.1 8.5-.2 13.7-13.9l3.4-27.8c-6.6.3-11.7 2.9-15.6 7.9-4.6 6-7.4 15.3-8.3 27.8v.4c-.1.9-.2 1.7-.2 2.5zm-4.8-3zM410.2 278c-.6 0-1.1-.1-1.7-.3-2.2-.8-3.5-3-3.3-5.3.8-6.6 1.6-11.5 2.5-15 0-.1.1-.3.1-.4 1.9-6.7 6.7-8.3 9.4-8.6h.8c.3 0 .6 0 .9.1 1.3.2 2.5.9 3.3 2 .8 1.1 1.1 2.4.9 3.8-1.1 6.8-4.1 14-9 21.5-.6 1.4-2.2 2.2-3.9 2.2zm573.3-.1c-.6 0-1.2-.1-1.7-.3-2.2-.8-3.5-3-3.2-5.3.8-6.6 1.6-11.5 2.5-14.9 0-.1.1-.3.1-.4 1.9-6.8 6.7-8.3 9.4-8.6h.8c.3 0 .6 0 .9.1 1.3.2 2.5.9 3.3 2 .8 1.1 1.1 2.4.9 3.8-1.1 6.8-4.1 14-9 21.4-.8 1.4-2.4 2.2-4 2.2zm-508.1 0c-.6 0-1.2-.1-1.7-.3-2.2-.8-3.5-3-3.2-5.3.8-6.6 1.6-11.5 2.5-14.9 0-.1.1-.3.1-.4 1.9-6.7 6.7-8.3 9.4-8.6h.8c.3 0 .6 0 .9.1 1.3.2 2.5.9 3.3 2 .8 1.1 1.1 2.4.9 3.8-1.1 6.8-4.1 14-9 21.4-.8 1.4-2.4 2.2-4 2.2zm133.4-10.6c-1.4 0-2.8-.6-3.7-1.7-1.3-1.5-2.5-2.9-3.5-4.4-.7-1.1-1-2.4-.8-3.7.4-2.1 1.1-4.1 2.3-5.9 0-.1.1-.1.1-.2 1.2-1.9 3-3.3 5.2-4.1 1.6-.5 3.3-.2 4.7.8 1.3 1 2 2.7 1.9 4.3l-.6 6-.6 4.3c-.3 1.9-1.6 3.6-3.5 4.1-.5.4-1 .5-1.5.5zm3.6-13zm0 0zm0 0zm0-.1z" transform="matrix(.24997 0 0 .24997 -40.05 -53)"/></g><g><g transform="matrix(1 0 0 1 -.005 -.006)"><defs><path id="SVGID_1_" d="M122.7 49.8H236v15.3H122.7z"/></defs><clipPath id="SVGID_00000060746383552810419110000006166683517050993549_"><use xlink:href="#SVGID_1_" style="overflow:visible"/></clipPath><text transform="translate(123.043 61.95)" class="st13" style="font-size:13.0847px;font-family:'Arial-BoldMT'">Happy Halloween!</text></g></g></svg>