<svg version="1.1" id="Layer_1" xmlns="http://www.w3.org/2000/svg" x="0" y="0" viewBox="0 0 338.7 64.7" style="enable-background:new 0 0 338.7 64.7" xml:space="preserve"><style>.st0{fill:#333}.st1{fill:#d70000}.st1,.st3,.st4{stroke:#333;stroke-miterlimit:10}.st3{fill:#3bad6d}.st4{fill:#3bd46d}</style><path class="st0" d="m150.7 42.5 2.6-20.4c-1-.3-2-.4-3.2-.4-.7 0-1.5.2-2.6.6-1.1.4-1.7 1-2.1 1.7-.3 2.3-.7 5.4-1.1 9.4-.4 4-.7 6.5-.8 7.3-1.1 1.7-2.6 2.5-4.4 2.5-2 0-3-1.1-3-3.3 0-.2 0-.6.1-1.2l1.8-14.1c0-.9-.2-1.6-.7-2-.4-.5-.9-.8-1.4-.8-.5-.1-1.2-.1-2.2-.1-1 0-2 .2-3.2.6-.3 2.7-.6 5.2-.9 7.6-.3 2.4-.6 4.6-.8 6.7-.3 2.1-.4 3.6-.4 4.7v.4c-1.3 1.3-2.6 2-4 2-1.7 0-2.5-1-2.5-2.9 0-.4.2-2.5.7-6.3.2-1.7.4-3.5.6-5.3 5.8-5.1 8.9-10.2 9.3-15.1 0-.4.1-.8.1-1.2 0-4.5-2.4-6.8-7.3-6.8-1.4 0-2.7.3-3.7.8-2.3 1.1-3.6 3.9-4.2 8.2-1.1 9.5-1.9 16.5-2.4 20.9-.7 1.7-1.5 3.2-2.4 4.4-1.6 2.1-3.3 3.1-5.1 3.1-1.7 0-2.5-1-2.5-2.9 0-.4.2-2.5.7-6.3.2-1.7.4-3.5.6-5.3 5.8-5.1 8.9-10.2 9.3-15.1 0-.4.1-.8.1-1.2 0-4.5-2.4-6.8-7.3-6.8-1.4 0-2.7.3-3.7.8-2.3 1.1-3.6 3.9-4.2 8.2-.6 5.1-1.1 9.4-1.5 13-.6-1.2-1.4-2.3-2.4-3.3-2.3-2.2-5.1-3.3-8.5-3.3-4.4 0-8.1 1.4-11 4.2-2.2 2.2-3.6 4.9-4.1 8.3-1 .5-2.1 1-3.4 1.5l2.8-19.4c.2-1.3.6-2.3 1.1-3 .6-.7 1.1-1.1 1.7-1.1.6 0 1.1.1 1.7.4 0-.4.1-.7.1-1.1 0-1.8-.5-3.3-1.4-4.6-1.7 1.3-3.8 1.9-6.3 1.9-1.4 0-3.4-.4-6-1.3-2.6-.8-4.5-1.3-5.9-1.3-2.2 0-4.1.6-5.5 1.7-1.5 1.2-2.2 2.8-2.2 4.8s.7 3.7 2.1 4.9c1.4 1.3 3.3 1.9 5.6 1.9s4.5-.4 6.6-1.3c-.7 4.7-1.5 10.2-2.2 16.6l-.6 4.5c-8.5 4.5-12.7 9.7-12.7 15.4 0 2.2.7 4.2 2.2 6 1.4 1.8 3.4 2.7 5.8 2.7 2.5 0 4.7-.8 6.8-2.5 2-1.7 3.3-4.3 3.8-7.8l1.8-13c.7-.3 1.8-.7 3.2-1.3.2-.1.5-.2.7-.3.3 2.6 1.4 4.8 3.3 6.7 2.3 2.3 5.4 3.4 9.4 3.4 3.9 0 7.3-1.4 10.1-4.3.7-.7 1.2-1.4 1.7-2.2.1 1.9.7 3.5 1.9 4.6 1.3 1.3 3.1 1.9 5.3 1.9 2.3 0 4.3-.5 6.1-1.6 1.5-.9 2.8-2 3.8-3.4.3 1.2.9 2.2 1.7 3.1 1.3 1.3 3.1 1.9 5.3 1.9 2.3 0 4.3-.5 6.1-1.6.7-.4 1.4-.9 2-1.4.2.3.4.5.6.7 1.3 1.2 3 1.9 5.1 2.1-3 2.8-4.5 5.8-4.5 8.7 0 2.4.8 4.3 2.3 5.6 1.5 1.3 3.3 1.9 5.4 1.9 3.3 0 5.8-1.1 7.5-3.2 1.7-2.2 2.7-4.9 3.2-8.2l.9-6.9c3.3 1 5.3 3.8 6.1 8.4 1.3-1.5 2-2.6 2.1-3.3-.6-4.8-3.2-7.7-7.5-8.5zM124.1 22c.1-.6.2-2 .5-4.3.2-2.3.5-4 .8-5 .3-1 .8-1.6 1.7-1.7 1.3 0 2 .9 2 2.7 0 3-1.7 6.3-5.1 10l.1-1.7zm-17 0c.1-.6.2-2 .5-4.3.2-2.3.5-4 .8-5s.8-1.6 1.7-1.7c1.3 0 2 .9 2 2.7 0 3-1.7 6.3-5.1 10l.1-1.7zm-48.2-5.7c-1.2 0-2.2-.2-2.8-.6-.6-.4-.9-.9-.9-1.4 0-.9.5-1.4 1.4-1.4.3 0 1.2.2 2.7.6 1.5.4 3 .8 4.4 1.1-1.9 1.1-3.5 1.7-4.8 1.7zm.6 38.2c-.1 1.2-.6 2.1-1.2 2.7-.7.6-1.4.8-2.4.8-.9 0-1.7-.4-2.2-1.2-.5-.7-.8-1.5-.8-2.5 0-3.5 2.6-6.9 7.9-10.1l-1.3 10.3zm30.9-13.4c-1.2 2-2.7 2.9-4.5 2.9s-3.1-.7-4-2.1c-.9-1.4-1.3-3.2-1.3-5.3.1-3 .8-5.5 1.9-7.5 1.2-2 2.6-3 4.4-3 1.8 0 3.1.8 3.9 2.3.8 1.5 1.3 3.5 1.3 6 .1 2.5-.5 4.8-1.7 6.7zm51.7 12.6c-.3 2.4-.7 4.1-1.2 4.9-.5.8-1.3 1.2-2.2 1.2-1 0-1.8-.3-2.4-.9-.6-.6-.9-1.5-.9-2.7.1-3.2 2.6-6.1 7.4-8.6l-.7 6.1z"/><path class="st0" d="M235.2 32.2c1.5 0 2.7-1.5 3.7-2.3.9-.8 1.4-2.4 1.4-3.6 0-1.3-.5-2.5-1.4-3.3-.9-.8-3-1.3-4.6-1.3-2.3 0-5.4.7-6.4 2.5v-.1c0-1.7-.4-2.5-2.6-2.5-1.4 0-2.3.2-3.7.6l-.9 9.1c-.3-2.4-1.3-4.6-3.2-6.4-2.3-2.2-5.1-3.3-8.4-3.3-4.4 0-8.1 1.4-10.9 4.2-1 1-1.9 2.1-2.5 3.4.1-.7.2-1.4.4-2.2 1.2-7.8 1.8-13.5 1.8-17.3 0-2.4-1-3.7-3.1-3.7s-3.8.4-5.3 1.3c.4 1.7.6 3.8.6 6.1 0 5.1-.6 11.1-1.9 18-.6 3.3-1.5 6.1-2.8 8.3-1.2 2.2-2.6 3.3-4.2 3.3-1.8 0-2.8-1.1-2.8-3.2 0-2.2.4-5.3 1.1-9.4.4-2.5 1.4-9.2 2.8-19.9l.1-.7c0-1.8-1.2-2.8-3.5-2.8-1.7 0-3.2.3-4.4.8l-3.5 28c-.6 4.8-2.3 7.3-4.9 7.3-1.9 0-2.9-1.2-2.9-3.7 0-.7.1-1.7.3-3.2.2-1.5.5-3.3.8-5.4s.5-3.9.7-5.3c.2-1.5.4-2.8.6-4.1.2-1.3.3-2.3.4-3 .1-.8.2-1.4.3-2.1.1-.6.2-1.1.2-1.4.1-.3.1-.6.1-.8 0-.2 0-.4.1-.5v-.3c0-4.8-2.4-7.2-7.3-7.2-2.2 0-4.1.7-5.6 2s-2.3 3.1-2.3 5.4c0 3.5 2 6.7 5.9 9.6l-2 15.6c-.1.7-.1 1.2-.1 1.5 0 2.5.7 4.6 2.2 6.1 1.5 1.5 3.5 2.3 6.2 2.3 4.1 0 7.2-1.6 9.2-4.8 1.6 3.2 4.2 4.8 7.9 4.8s6.6-1.2 8.7-3.6c1-1.2 1.9-2.4 2.7-3.7.7-1.3 1.4-2.9 1.9-4.7v.4c0 3.3 1.2 6.1 3.5 8.4 2.3 2.3 5.4 3.4 9.4 3.4 3.9 0 7.3-1.4 10.1-4.3 1.4-1.4 2.5-3.1 3.2-5.1v1.4c0 2.3.6 4.2 1.7 5.7s2.9 2.2 5.3 2.2 4.4-.7 6-2.2c1.6-1.5 2.4-3.6 2.4-6.5 0-3.9-2-7.4-6-10.6.9-1.9 2.1-2.9 3.6-2.9s2.2 1.9 2.2 3.5c0 .4 0 1.2-.1 2.2h-.2zM158.1 16l-.3 2.2c-1.8-1.8-2.8-3.5-2.8-5.1 0-.7.2-1.3.5-1.8s.8-.8 1.6-.8 1.3.6 1.2 1.8c.1 1.3 0 2.5-.2 3.7zm53.3 25.2c-1.2 2-2.7 2.9-4.5 2.9s-3.1-.7-4-2.1c-.9-1.4-1.3-3.2-1.3-5.3.1-3 .8-5.5 1.9-7.5 1.2-2 2.6-3 4.4-3 1.8 0 3.1.8 3.9 2.3.8 1.5 1.3 3.5 1.3 6 .1 2.5-.5 4.7-1.7 6.7zm20.2-1.6c0 2.6-.8 3.9-2.4 3.9-1.3 0-1.9-.8-1.9-2.3 0 0 .3-2.7 1-8 2.2 2.1 3.3 4.3 3.3 6.4zm55-3.8c-.8 2.7-1.8 4.7-2.8 5.9-1 1.2-2 1.8-3 1.8-1.1 0-1.7-.7-1.7-2s.8-8.4 2.5-21.3c.8-6.2 1.4-10.7 1.8-13.6-.6-.4-1.6-.6-2.8-.6-1.3 0-2.4.2-3.3.6-.9.4-1.5 1-1.7 1.6L274 23.1c-1.3-.4-2.7.1-4.3.1h-.3c-4.4 0-8 .7-10.8 3.5-2.8 2.9-4.3 6.3-4.3 11.2 0 1.5.2 2.6.6 3.8-1.3 1.4-2.7 2-4.2 2-1.7 0-2.5-1-2.5-2.9 0-.4.2-2.5.7-6.3.2-1.7.4-3.5.6-5.3 5.8-5.1 8.9-10.2 9.3-15.1 0-.4.1-.8.1-1.2 0-4.5-2.4-6.8-7.3-6.8-1.4 0-2.7.3-3.7.8-2.3 1.1-3.6 3.9-4.2 8.2-2 16.9-3 25.7-3 26.3 0 2.2.6 4 1.9 5.2 1.3 1.3 3.1 1.9 5.3 1.9 2.3 0 4.3-.5 6.1-1.6 1-.6 1.9-1.3 2.7-2.1l.6.6c2 2 4.6 3 7.6 3s5.4-1.2 7.4-3.6c1.1 2.4 3.3 3.5 6.6 3.5 1.1 0 2.4-.3 3.7-.9 2.8-1.3 4.9-4.1 6.3-8.5-.5-1-1.2-2.1-2.3-3.1zM250.3 22c.1-.6.2-2 .5-4.3.2-2.3.5-4 .8-5 .3-1 .8-1.6 1.7-1.7 1.3 0 2 .9 2 2.7 0 3-1.7 6.3-5.1 10l.1-1.7zM272 38.6c-1.2 3.3-2.9 4.9-5.3 4.9-1.4 0-2.5-.5-3.3-1.6-.9-1.1-1.3-2.5-1.3-4.3 0-.3 0-.6.1-.9.3-3.5 1.1-6.2 2.5-8 1.4-1.8 3.3-2.7 5.6-2.7.9 0 2 .2 3.2.7L272 38.6z"/><path class="st1" d="m149.1 39.2 2.6-20.4c-1-.3-2-.4-3.2-.4-.7 0-1.5.2-2.6.6-1.1.4-1.7 1-2.1 1.7-.3 2.3-.7 5.4-1.1 9.4-.4 4-.7 6.5-.8 7.3-1.1 1.7-2.6 2.5-4.4 2.5-2 0-3-1.1-3-3.3 0-.2 0-.6.1-1.2l1.8-14.1c0-.9-.2-1.6-.7-2-.4-.5-.9-.8-1.4-.8-.5-.1-1.2-.1-2.2-.1-1 0-2 .2-3.2.6-.3 2.7-.6 5.2-.9 7.6-.3 2.4-.6 4.6-.8 6.7-.3 2.1-.4 3.6-.4 4.7v.4c-1.3 1.3-2.6 2-4 2-1.7 0-2.5-1-2.5-2.9 0-.4.2-2.5.7-6.3.2-1.7.4-3.5.6-5.3 5.8-5.1 8.9-10.2 9.3-15.1 0-.4.1-.8.1-1.2 0-4.5-2.4-6.8-7.3-6.8-1.4 0-2.7.3-3.7.8-2.3 1.1-3.6 3.9-4.2 8.2-1.1 9.5-1.9 16.5-2.4 20.9-.7 1.7-1.5 3.2-2.4 4.4-1.6 2.1-3.3 3.1-5.1 3.1-1.7 0-2.5-1-2.5-2.9 0-.4.2-2.5.7-6.3.2-1.7.4-3.5.6-5.3 5.8-5.1 8.9-10.2 9.3-15.1 0-.4.1-.8.1-1.2 0-4.5-2.4-6.8-7.3-6.8-1.4 0-2.7.3-3.7.8-2.3 1.1-3.6 3.9-4.2 8.2-.6 5.1-1.1 9.4-1.5 13-.6-1.2-1.4-2.3-2.4-3.3-2.3-2.2-5.1-3.3-8.5-3.3-4.4 0-8.1 1.4-11 4.2-2.2 2.2-3.6 4.9-4.1 8.3-1 .5-2.1 1-3.4 1.5l2.8-19.4c.2-1.3.6-2.3 1.1-3 .6-.7 1.1-1.1 1.7-1.1.6 0 1.1.1 1.7.4 0-.4.1-.7.1-1.1 0-1.8-.5-3.3-1.4-4.6-1.7 1.3-3.8 1.9-6.3 1.9-1.4 0-3.4-.4-6-1.3-2.6-.8-4.5-1.3-5.9-1.3-2.2 0-4.1.6-5.5 1.7C48.8 5.4 48.1 7 48.1 9s.7 3.7 2.1 4.9c1.4 1.3 3.3 1.9 5.6 1.9s4.5-.4 6.6-1.3c-.7 4.7-1.5 10.2-2.2 16.6l-.4 4.9c-8.5 4.5-12.7 9.7-12.7 15.4 0 2.2.7 4.2 2.2 6 1.4 1.8 3.4 2.7 5.8 2.7 2.5 0 4.7-.8 6.8-2.5 2-1.7 3.3-4.3 3.8-7.8l1.8-13c.7-.3 1.8-.7 3.2-1.3.2-.1.5-.2.7-.3.3 2.6 1.4 4.8 3.3 6.7 2.3 2.3 5.4 3.4 9.4 3.4 3.9 0 7.3-1.4 10.1-4.3.7-.7 1.2-1.4 1.7-2.2.1 1.9.7 3.5 1.9 4.6 1.3 1.3 3.1 1.9 5.3 1.9 2.3 0 4.3-.5 6.1-1.6 1.5-.9 2.8-2 3.8-3.4.3 1.2.9 2.2 1.7 3.1 1.3 1.3 3.1 1.9 5.3 1.9s4.3-.5 6.1-1.6c.7-.4 1.4-.9 2-1.4.2.3.4.5.6.7 1.3 1.2 3 1.9 5.1 2.1-3 2.8-4.5 5.8-4.5 8.7 0 2.4.8 4.3 2.3 5.6 1.5 1.3 3.3 1.9 5.4 1.9 3.3 0 5.8-1.1 7.5-3.2 1.7-2.2 2.7-4.9 3.2-8.2l.9-6.9c3.3 1 5.4 3.8 6.1 8.4 1.3-1.5 2-2.6 2.1-3.3-.8-5.2-3.4-8.2-7.7-8.9zm-26.6-20.6c.1-.6.2-2 .5-4.3.2-2.3.5-4 .8-5 .3-1 .8-1.6 1.7-1.7 1.3 0 2 .9 2 2.7 0 3-1.7 6.3-5.1 10l.1-1.7zm-17 0c.1-.6.2-2 .5-4.3.2-2.3.5-4 .8-5s.8-1.6 1.7-1.7c1.3 0 2 .9 2 2.7 0 3-1.7 6.3-5.1 10l.1-1.7zm-48.2-5.7c-1.2 0-2.2-.2-2.8-.6-.6-.4-.9-.9-.9-1.4 0-.9.5-1.4 1.4-1.4.3 0 1.2.2 2.7.6 1.5.4 3 .8 4.4 1.1-1.9 1.2-3.5 1.7-4.8 1.7zm.6 38.2c-.1 1.2-.6 2.1-1.2 2.7-.7.6-1.4.8-2.4.8-.9 0-1.7-.4-2.2-1.2-.5-.7-.8-1.5-.8-2.5 0-3.5 2.6-6.9 7.9-10.1l-1.3 10.3zm30.9-13.3c-1.2 2-2.7 2.9-4.5 2.9s-3.1-.7-4-2.1c-.9-1.4-1.3-3.2-1.3-5.3.1-3 .8-5.5 1.9-7.5 1.2-2 2.6-3 4.4-3 1.8 0 3.1.8 3.9 2.3.8 1.5 1.3 3.5 1.3 6 .1 2.5-.5 4.7-1.7 6.7zm51.7 12.6c-.3 2.4-.7 4.1-1.2 4.9-.5.8-1.3 1.2-2.2 1.2-1 0-1.8-.3-2.4-.9-.6-.6-.9-1.5-.9-2.7.1-3.2 2.6-6.1 7.4-8.6l-.7 6.1z"/><path d="M233.6 28.4c1.5 0 2.7-1.3 3.7-2 .9-.8 1.4-2.2 1.4-3.5 0-1.3-.5-2.5-1.4-3.2-.9-.8-3-1.2-4.6-1.2-2.3 0-5.4.8-6.4 2.5v-.1c0-1.7-.4-2.5-2.6-2.5-1.4 0-2.3.2-3.7.6l-.9 9.1c-.3-2.4-1.3-4.6-3.2-6.4-2.3-2.2-5.1-3.3-8.5-3.3-4.4 0-8.1 1.4-10.9 4.2-1 1-1.9 2.1-2.5 3.4.1-.7.2-1.4.4-2.2 1.2-7.7 1.8-13.5 1.8-17.3 0-2.4-1-3.7-3.1-3.7s-3.8.4-5.3 1.3c.4 1.7.6 3.8.6 6.1 0 5.1-.6 11.1-1.9 18-.6 3.3-1.5 6.1-2.8 8.3-1.2 2.2-2.6 3.3-4.2 3.3-1.8 0-2.8-1.1-2.8-3.2 0-2.2.4-5.3 1.1-9.4.4-2.5 1.4-9.2 2.8-19.9l.1-.7c0-1.8-1.2-2.8-3.5-2.8-1.7 0-3.2.3-4.4.8l-3.5 28c-.6 4.8-2.3 7.3-4.9 7.3-1.9 0-2.9-1.2-2.9-3.7 0-.7.1-1.7.3-3.2.2-1.5.5-3.3.8-5.4.3-2.1.5-3.9.7-5.3.2-1.5.4-2.8.6-4.1.2-1.3.3-2.3.4-3 .1-.8.2-1.4.3-2.1.1-.6.2-1.1.2-1.4.1-.3.1-.6.1-.8 0-.2 0-.4.1-.5v-.3c0-4.8-2.4-7.2-7.3-7.2-2.2 0-4.1.7-5.6 2s-2.3 3.1-2.3 5.4c0 3.5 2 6.7 5.9 9.6l-2 15.6c-.1.7-.1 1.2-.1 1.5 0 2.5.7 4.6 2.2 6.1 1.5 1.5 3.5 2.3 6.2 2.3 4.1 0 7.2-1.6 9.2-4.8 1.6 3.2 4.2 4.8 7.9 4.8s6.6-1.2 8.7-3.6c1-1.2 1.9-2.4 2.7-3.7.7-1.3 1.4-2.9 1.9-4.7v.4c0 3.3 1.2 6.1 3.5 8.4 2.3 2.3 5.4 3.4 9.4 3.4 3.9 0 7.3-1.4 10.1-4.3 1.4-1.4 2.5-3.1 3.2-5.1v1.4c0 2.3.6 4.2 1.7 5.7s2.9 2.2 5.3 2.2 4.4-.7 6-2.2c1.6-1.5 2.4-3.6 2.4-6.5 0-3.9-2-7.4-6-10.6.9-1.9 2.1-2.9 3.6-2.9s2.2 1.7 2.2 3.3c0 .4 0 1-.1 2-.3-.2-.2-.2-.1-.2zm-77.1-15.7-.3 2.2c-1.8-1.8-2.8-3.5-2.8-5.1 0-.7.2-1.3.5-1.8s.8-.8 1.6-.8 1.3.6 1.2 1.8c.1 1.3 0 2.5-.2 3.7zm53.3 25.1c-1.2 2-2.7 2.9-4.5 2.9-1.8 0-3.1-.7-4-2.1-.9-1.4-1.3-3.2-1.3-5.3.1-3 .8-5.5 1.9-7.5 1.2-2 2.6-3 4.4-3 1.8 0 3.1.8 3.9 2.3.8 1.5 1.3 3.5 1.3 6 .1 2.6-.5 4.8-1.7 6.7zm20.2-1.5c0 2.6-.8 3.9-2.4 3.9-1.3 0-1.9-.8-1.9-2.3 0 0 .3-2.7 1-8 2.2 2.1 3.3 4.3 3.3 6.4zm55-3.8c-.8 2.7-1.8 4.7-2.8 5.9-1 1.2-2 1.8-3 1.8-1.1 0-1.7-.7-1.7-2s.8-8.4 2.5-21.3c.8-6.2 1.4-10.7 1.8-13.6-.6-.4-1.6-.6-2.9-.6-1.3 0-2.4.2-3.3.6-.9.4-1.5 1-1.7 1.6l-1.7 14.5c-1.3-.4-2.7-.1-4.3-.1h-.3c-4.4 0-8 .9-10.8 3.8-2.8 2.9-4.3 6.5-4.3 11.3 0 1.5.2 2.6.6 3.8-1.3 1.4-2.7 2-4.2 2-1.7 0-2.5-1-2.5-2.9 0-.4.2-2.5.7-6.3.2-1.7.4-3.5.6-5.3 5.8-5.1 8.9-10.2 9.3-15.1 0-.4.1-.8.1-1.2 0-4.5-2.4-6.8-7.3-6.8-1.4 0-2.7.3-3.7.8-2.3 1.1-3.6 3.9-4.2 8.2-2 16.9-3 25.7-3 26.3 0 2.2.6 4 1.9 5.2 1.3 1.3 3.1 1.9 5.3 1.9s4.3-.5 6.1-1.6c1-.6 1.9-1.3 2.7-2.1l.6.6c2 2 4.6 3 7.6 3s5.4-1.2 7.4-3.6c1.1 2.4 3.3 3.5 6.6 3.5 1.1 0 2.4-.3 3.7-.9 2.8-1.3 4.9-4.1 6.3-8.5-.3-.8-1-1.9-2.1-2.9zm-36.3-13.9c.1-.6.2-2 .5-4.3.2-2.3.5-4 .8-5 .3-1 .8-1.6 1.7-1.7 1.3 0 2 .9 2 2.7 0 3-1.7 6.3-5.1 10l.1-1.7zm21.7 16.6c-1.2 3.3-2.9 4.9-5.3 4.9-1.4 0-2.5-.5-3.3-1.6-.9-1.1-1.3-2.5-1.3-4.3 0-.3 0-.6.1-.9.3-3.5 1.1-6.2 2.5-8 1.4-1.8 3.3-2.7 5.6-2.7.9 0 2 .2 3.2.7l-1.5 11.9z" style="fill:#1f9891;stroke:#333;stroke-miterlimit:10"/><path class="st3" d="M35.3 28.7c-.9.2-1.4.4-2.2.2-.8-.1-1.4-.3-2.2-.7-1.5-.8-2.4-2.3-3.3-3.8-.2 1.2 0 2.4-.3 3.5-.4 1.4-1.1 2.2-2.3 3-2.5 1.8-5.5.7-7.1-1.9-.2-.4-.4-.7-.7-1 .1 2.1 0 4.4-2.1 5.8-1.4 1-3.2 1.3-4.4.2-.8-.7-1.3-1.8-2-2.7.1 1.9.7 3.8-.7 5.4-1.1 1.3-3.8 3.5-5.5 3.7 1.8.2 3.9 1 5.7 1.6 2.3.8 3.5 2.4 4.8 4.5-1-2.5 2.6-4.9 4.8-5.1 2.1-.1 3.7 1.7 4.8 3.4-.5-2.4 1.4-5 3.9-5.2 1.9-.2 4.8.7 5.8 2.5-1.2-1.7.7-5.4 1.6-6.8.7-1.1 1.6-1.9 2.9-2.5 1.1-.6 2.8-.8 2.7-2.4-.1-2.2-2.3-2.4-3.9-1.7"/><path class="st3" d="M39.3 18.8c-.7-.5-1.3-.8-1.7-1.4-.4-.6-.8-1.3-1-2.1-.4-1.6 0-3.3.5-5-1 .7-1.7 1.7-2.8 2.2-1.3.7-2.3.7-3.7.4-3.1-.6-4.3-3.5-3.6-6.4l.3-1.2c-1.5 1.5-3.2 3-5.6 2.5-1.6-.3-3.1-1.4-3.2-3 0-1.1.4-2.2.6-3.3-1.3 1.4-2.3 3.1-4.4 3.2-1.7.1-5.1-.2-6.5-1.4 1.2 1.4 2 3.5 2.8 5.2 1.1 2.2.7 4.2.1 6.5 1.1-2.4 5.4-1.5 7-.1 1.5 1.4 1.4 3.9.9 5.8 1.4-2.1 4.6-2.5 6.5-.8 1.4 1.2 2.8 4 2.2 5.9.4-2 4.4-3.2 6-3.6 1.3-.3 2.5-.1 3.8.3 1.2.4 2.5 1.5 3.6.3 1.5-1.6.2-3.3-1.4-4"/><circle class="st1" cx="45" cy="26.2" r="4.5"/><circle class="st1" cx="43" cy="21.2" r="4.5"/><circle class="st1" cx="43" cy="31.2" r="4.5"/><path class="st4" d="M34.9 23.9c-.9-.1-1.5-.1-2.2-.5-.7-.4-1.2-.8-1.8-1.4-1.1-1.3-1.5-3-1.8-4.7-.6 1.1-.9 2.2-1.5 3.2-.8 1.2-1.8 1.6-3.2 2-3 .8-5.4-1.3-6-4.2l-.3-1.2c-.7 2-1.5 4.1-3.9 4.7-1.6.4-3.4.1-4.2-1.4-.5-1-.6-2.2-.9-3.3-.6 1.8-.7 3.8-2.6 4.8-1.5.8-4.8 2-6.5 1.5 1.7.8 3.3 2.3 4.8 3.4 1.9 1.5 2.4 3.4 2.9 5.8 0-2.7 4.2-3.7 6.3-3.1 2 .6 2.9 2.9 3.3 4.8.3-2.5 3.1-4.2 5.5-3.6 1.8.5 4.2 2.4 4.5 4.4-.5-2 2.5-4.8 3.8-5.8 1-.8 2.2-1.2 3.6-1.3 1.3-.1 2.9.2 3.3-1.3.6-2.1-1.3-3-3-2.9"/><circle class="st1" cx="39" cy="26.2" r="4.5"/><g><path class="st3" d="M303.5 28.7c.9.2 1.4.4 2.2.2.8-.1 1.4-.3 2.2-.7 1.5-.8 2.4-2.3 3.3-3.8.2 1.2 0 2.4.3 3.5.4 1.4 1.1 2.2 2.3 3 2.5 1.8 5.5.7 7.1-1.9.2-.4.4-.7.7-1-.1 2.1 0 4.4 2.1 5.8 1.4 1 3.2 1.3 4.4.2.8-.7 1.3-1.8 2-2.7-.1 1.9-.7 3.8.7 5.4 1.1 1.3 3.8 3.5 5.5 3.7-1.8.2-3.9 1-5.7 1.6-2.3.8-3.5 2.4-4.8 4.5 1-2.5-2.6-4.9-4.8-5.1-2.1-.1-3.7 1.7-4.8 3.4.5-2.4-1.4-5-3.9-5.2-1.9-.2-4.8.7-5.8 2.5 1.2-1.7-.7-5.4-1.6-6.8-.7-1.1-1.6-1.9-2.9-2.5-1.1-.6-2.8-.8-2.7-2.4.1-2.2 2.3-2.4 3.9-1.7"/><path class="st3" d="M299.5 18.8c.7-.5 1.3-.8 1.7-1.4.4-.6.8-1.3 1-2.1.4-1.6 0-3.3-.5-5 1 .7 1.7 1.7 2.8 2.2 1.3.7 2.3.7 3.7.4 3-.6 4.3-3.5 3.6-6.4l-.3-1.2c1.5 1.5 3.2 3 5.6 2.5 1.6-.3 3.1-1.4 3.2-3 0-1.1-.4-2.2-.6-3.3 1.3 1.4 2.3 3.1 4.4 3.2 1.7.1 5.2-.3 6.5-1.5-1.2 1.4-2 3.5-2.8 5.2-1.1 2.2-.7 4.2-.1 6.5-1.1-2.4-5.4-1.5-7-.1-1.5 1.4-1.4 3.9-.9 5.8-1.4-2.1-4.6-2.5-6.5-.8-1.4 1.2-2.8 4-2.2 5.9-.4-2-4.4-3.2-6-3.6-1.3-.3-2.5-.1-3.8.3-1.2.4-2.5 1.5-3.6.3-1.5-1.6-.2-3.3 1.4-4"/><circle class="st1" cx="293.7" cy="26.2" r="4.5"/><circle class="st1" cx="295.7" cy="21.2" r="4.5"/><circle class="st1" cx="295.7" cy="31.2" r="4.5"/><path class="st4" d="M303.8 23.9c.9-.1 1.5-.1 2.2-.5.7-.4 1.2-.8 1.8-1.4 1.1-1.3 1.5-3 1.8-4.7.6 1.1.9 2.2 1.5 3.2.8 1.2 1.8 1.6 3.2 2 3 .8 5.4-1.3 6-4.2l.3-1.2c.7 2 1.5 4.1 3.9 4.7 1.6.4 3.4.1 4.2-1.4.5-1 .6-2.2.9-3.3.6 1.8.7 3.8 2.6 4.8 1.5.8 4.8 2 6.5 1.5-1.7.8-3.3 2.3-4.8 3.4-1.9 1.5-2.4 3.4-2.9 5.8 0-2.7-4.2-3.7-6.3-3.1-2 .6-2.9 2.9-3.3 4.8-.3-2.5-3.1-4.2-5.5-3.6-1.8.5-4.2 2.4-4.5 4.4.5-2-2.5-4.8-3.8-5.8-1-.8-2.2-1.2-3.6-1.3-1.3-.1-2.9.2-3.3-1.3-.6-2.1 1.3-3 3-2.9"/><circle class="st1" cx="299.7" cy="26.2" r="4.5"/></g><g><path d="M188.3 61.4v-6.1l-3 5.1h-.6l-3-5.1v6.1h-1.2V53h1l3.5 5.9 3.5-5.9h1v8.4h-1.2zm9.3-2.8h-5.2c.1.6.3 1 .7 1.3.4.3.9.5 1.6.5.8 0 1.4-.3 1.8-.8l.6.7c-.3.3-.6.6-1.1.8-.4.2-.9.3-1.4.3-.7 0-1.3-.1-1.8-.4-.5-.3-.9-.7-1.2-1.2s-.4-1.1-.4-1.7c0-.6.1-1.2.4-1.7.3-.5.7-.9 1.1-1.2.5-.3 1-.4 1.6-.4.6 0 1.1.1 1.6.4.5.3.8.7 1.1 1.2.3.5.4 1.1.4 1.7.2.2.2.3.2.5zm-4.6-2.2c-.4.3-.6.8-.7 1.3h4.1c-.1-.5-.3-1-.7-1.3-.4-.3-.8-.5-1.4-.5-.4 0-.9.2-1.3.5zm8.2-1.2c.4-.2.9-.3 1.4-.3V56h-.3c-.6 0-1.1.2-1.5.6-.4.4-.5.9-.5 1.6v3.2h-1.2V55h1.1v1.1c.3-.4.6-.7 1-.9zm4.8 0c.4-.2.9-.3 1.4-.3V56h-.3c-.6 0-1.1.2-1.5.6-.4.4-.5.9-.5 1.6v3.2H204V55h1.1v1.1c.2-.4.5-.7.9-.9zm8.7-.2-3.1 7c-.3.6-.6 1.1-1 1.4-.4.3-.8.4-1.3.4-.3 0-.6 0-.9-.1-.3-.1-.5-.2-.7-.4l.5-.9c.3.3.7.5 1.1.5.3 0 .5-.1.7-.2.2-.1.4-.4.5-.8l.2-.4L208 55h1.2l2.2 5.1 2.2-5.1h1.1zm6 5.9c-.7-.4-1.2-.9-1.6-1.5-.4-.7-.6-1.4-.6-2.2s.2-1.5.6-2.2c.4-.7.9-1.2 1.6-1.5s1.4-.6 2.3-.6c.7 0 1.3.1 1.8.3s1 .5 1.4 1l-.8.8c-.6-.7-1.4-1-2.4-1-.6 0-1.2.1-1.7.4-.5.3-.9.7-1.2 1.2-.3.5-.4 1-.4 1.7s.1 1.2.4 1.7c.3.5.7.9 1.2 1.2.5.3 1.1.4 1.7.4.9 0 1.7-.3 2.4-1l.8.8c-.4.4-.8.8-1.4 1s-1.2.3-1.8.3c-.9-.2-1.6-.4-2.3-.8zm12.3-5.2c.5.5.7 1.2.7 2.1v3.7h-1.2V58c0-.6-.1-1.1-.4-1.4-.3-.3-.7-.5-1.3-.5-.6 0-1.1.2-1.5.5-.4.4-.5.9-.5 1.6v3.3h-1.2v-8.9h1.2V56c.2-.3.6-.5.9-.7.4-.2.8-.3 1.3-.3.9-.1 1.6.2 2 .7zm4.9-.5c.4-.2.9-.3 1.4-.3V56h-.3c-.6 0-1.1.2-1.5.6-.4.4-.5.9-.5 1.6v3.2h-1.2V55h1.1v1.1c.3-.4.6-.7 1-.9zm2.8-1.6c-.1-.1-.2-.3-.2-.5s.1-.4.2-.5c.1-.1.3-.2.6-.2s.4.1.6.2c.1.1.2.3.2.5s-.1.4-.2.5c-.1.1-.3.2-.6.2s-.4-.1-.6-.2zm0 1.4h1.2v6.4h-1.2V55zm3.7 6.2c-.5-.1-.9-.3-1.1-.5l.5-.9c.3.2.6.4 1 .5.4.1.8.2 1.2.2 1 0 1.5-.3 1.5-.9 0-.2-.1-.3-.2-.5-.1-.1-.3-.2-.5-.2s-.5-.1-.9-.2c-.5-.1-.9-.2-1.3-.3-.3-.1-.6-.3-.8-.5s-.3-.6-.3-1c0-.6.2-1 .7-1.4.5-.3 1.1-.5 1.9-.5.4 0 .8.1 1.3.2.4.1.8.2 1 .4l-.5.9c-.5-.3-1.1-.5-1.8-.5-.5 0-.9.1-1.1.2s-.4.4-.4.6c0 .2.1.4.2.5.1.1.3.2.5.3.2.1.5.1.9.2.5.1.9.2 1.2.3.3.1.6.3.8.5.2.2.3.6.3 1 0 .6-.2 1-.7 1.4-.5.3-1.2.5-2 .5-.4-.1-.9-.1-1.4-.3zm9.3-.2c-.2.1-.4.3-.6.3s-.5.1-.8.1c-.6 0-1.1-.2-1.5-.5-.4-.3-.5-.8-.5-1.5V56h-1.1v-1h1.1v-1.4h1.2V55h1.8v1h-1.8v3.4c0 .3.1.6.3.8.2.2.4.3.7.3.4 0 .7-.1.9-.3l.3.8zm11.2-5.4c.5.5.7 1.2.7 2.1v3.7h-1.2v-3.5c0-.6-.1-1.1-.4-1.4-.3-.3-.7-.5-1.2-.5-.6 0-1 .2-1.4.5-.3.4-.5.9-.5 1.6v3.3h-1.2v-3.5c0-.6-.1-1.1-.4-1.4-.3-.3-.7-.5-1.2-.5-.6 0-1 .2-1.4.5-.3.4-.5.9-.5 1.6v3.3H255V55h1.1v1c.2-.3.5-.6.9-.8.4-.2.8-.3 1.3-.3s.9.1 1.3.3.7.5.9.9c.2-.4.6-.7 1-.9.4-.2.9-.3 1.4-.3.9 0 1.5.3 2 .7zm7.2 0c.5.4.7 1.1.7 1.9v3.8h-1.1v-.8c-.2.3-.5.5-.8.7-.4.2-.8.2-1.3.2-.7 0-1.3-.2-1.7-.5-.4-.3-.6-.8-.6-1.4 0-.6.2-1 .6-1.4s1.1-.5 1.9-.5h1.8v-.2c0-.5-.1-.9-.4-1.1s-.7-.4-1.3-.4c-.4 0-.7.1-1.1.2s-.7.3-.9.5l-.5-.9c.3-.3.7-.5 1.2-.6.5-.1.9-.2 1.5-.2.8 0 1.5.3 2 .7zm-1.2 4.7c.3-.2.6-.5.7-.8v-.9h-1.8c-1 0-1.5.3-1.5 1 0 .3.1.6.4.8.2.2.6.3 1 .3.5-.1.9-.2 1.2-.4zm4.3.9c-.5-.1-.9-.3-1.1-.5l.5-.9c.3.2.6.4 1 .5.4.1.8.2 1.2.2 1 0 1.5-.3 1.5-.9 0-.2-.1-.3-.2-.5-.1-.1-.3-.2-.5-.2s-.5-.1-.9-.2c-.5-.1-.9-.2-1.3-.3-.3-.1-.6-.3-.8-.5s-.3-.6-.3-1c0-.6.2-1 .7-1.4.5-.3 1.1-.5 1.9-.5.4 0 .8.1 1.3.2.4.1.8.2 1 .4l-.5.9c-.5-.3-1.1-.5-1.8-.5-.5 0-.9.1-1.1.2s-.4.4-.4.6c0 .2.1.4.2.5.1.1.3.2.5.3.2.1.5.1.9.2.5.1.9.2 1.2.3.3.1.6.3.8.5.2.2.3.6.3 1 0 .6-.2 1-.7 1.4-.5.3-1.2.5-2 .5-.4-.1-.9-.1-1.4-.3zm5.7 0c-.2-.1-.2-.3-.2-.5s.1-.4.2-.5c.2-.1.3-.2.6-.2.2 0 .4.1.6.2.1.1.2.3.2.5s-.1.4-.2.5c-.1.1-.3.2-.5.2-.4 0-.6 0-.7-.2zm-.1-8.2h1.4l-.2 5.7h-1l-.2-5.7z"/></g></svg>