<svg xmlns="http://www.w3.org/2000/svg" viewBox="0 0 40.6 33" style="enable-background:new 0 0 40.6 33" xml:space="preserve"><path d="m-31.9-59.4-1 1.5 11.5 7.5 3.4-5.4-11.4-7.4-.9 1.2-1.6 2.6m-.9-2.5c-.3.5-.6.9-.8 1.3l1.8 1.2 1.7-2.7-1.8-1.1c-.3.5-.6.9-.9 1.3m-14.1-20.3c-3.7.8-6.5 2.7-8.5 5.8-2 3.2-2.6 6.6-1.8 10.2.8 3.6 2.8 6.4 5.9 8.4 3.1 2 6.5 2.6 10 1.9 3.1-.7 5.6-2.2 7.5-4.6.3-.4.5-.8.8-1.3.3-.4.6-.9.8-1.3 1.4-2.7 1.7-5.6 1-8.8-.4-1.7-1-3.3-1.9-4.7-1-1.4-2.3-2.7-4-3.7-2.8-2.1-6.2-2.7-9.8-1.9m-4.3 8.4c1.3-2 3.1-3.2 5.4-3.7 2.3-.5 4.4-.1 6.5 1.2 2 1.3 3.2 3.1 3.8 5.4.4 2.3 0 4.4-1.2 6.3-1.3 2-3.1 3.3-5.5 3.8-2.3.5-4.4.1-6.3-1.2-2-1.3-3.3-3-3.8-5.4-.6-2.2-.2-4.4 1.1-6.4z" style="fill:#999" transform="translate(58 83)"/><path d="M-33.7-60.6c-2 2.4-4.5 3.9-7.5 4.6-3.6.8-6.9.1-10-1.9-3.1-2-5.1-4.8-5.9-8.4-.8-3.6-.2-7 1.8-10.2 2-3.1 4.8-5 8.5-5.8 3.6-.8 6.9-.2 10 1.8 1.6 1 2.9 2.3 4 3.7.9 1.4 1.5 3 1.9 4.7.7 3.1.3 6-1 8.8l1.8 1.1.9-1.2 11.4 7.4-3.4 5.4-11.6-7.4 1-1.5-1.9-1.1c.3-.4.5-.8.8-1.3.3-.4.6-.9.8-1.3m-4.7-1.3c-1.3 2-3.1 3.3-5.5 3.8-2.3.5-4.4.1-6.3-1.2-2-1.3-3.3-3-3.8-5.4-.5-2.4 0-4.6 1.2-6.5 1.3-2 3.1-3.2 5.4-3.7 2.3-.5 4.4-.1 6.5 1.2 2 1.3 3.2 3.1 3.8 5.4.3 2.3-.1 4.4-1.3 6.4zm6.6 2.4-1.7 2.7" style="fill:none;stroke:#333;stroke-linecap:round;stroke-linejoin:round" transform="translate(58 83)"/></svg>