<?xml version="1.0" encoding="utf-8"?>
<!-- Generator: Adobe Illustrator 26.0.1, SVG Export Plug-In . SVG Version: 6.00 Build 0)  -->
<svg version="1.1" id="Layer_1" xmlns="http://www.w3.org/2000/svg" xmlns:xlink="http://www.w3.org/1999/xlink" x="0px" y="0px"
	 viewBox="0 0 44.4 44.1" style="enable-background:new 0 0 44.4 44.1;" xml:space="preserve">
<style type="text/css">
	.st0{fill:#999999;}
	.st1{fill:none;stroke:#333333;stroke-width:2.2727;stroke-linecap:round;stroke-linejoin:round;stroke-miterlimit:3.0302;}
</style>
<g transform="matrix( 0.7575531005859375, 0, 0, 0.7575531005859375, 43.5,81.3) ">
	<g transform="matrix( 1, 0, 0, 1, 0,0) ">
		<g>
			<g id="Settings_2_0_Layer0_0_FILL">
				<path class="st0" d="M-19.3-97.8l-1-8.1h-15.6l-1,8.1l-3.8,2.4l-9.5-1.9l-5.7,9.6l0.1,0.4c1.5,1.1,2.7,2.6,3.8,4.3
					c0.3,0.4,0.5,0.9,0.7,1.3c0.6,1.6,0.6,3.2,0,4.8c-0.8,2-1.8,3.8-3.2,5.5c-0.4,0.6-0.9,1.1-1.4,1.7c0.1,0.3,0.2,0.6,0.4,0.8
					c1.8,3.5,3.9,6.7,6.3,9.7c0.3,0,0.7-0.1,1-0.1c0.4-0.1,0.7-0.2,1.1-0.2c0.3-0.2,0.6-0.3,0.9-0.5c0.6-0.3,1.2-0.6,1.8-1
					c0.2,0,0.3,0,0.5,0c0.1,0,0.3-0.1,0.4-0.1c0.4-0.1,0.9-0.1,1.2-0.1c1,0,2,0.1,2.8,0.5c0.5,0.2,1.1,0.5,1.7,0.8l1.9,9.5h15.6
					l1.9-9.5c0.6-0.3,1.2-0.5,1.7-0.8c0.9-0.3,1.9-0.5,2.9-0.5c0.4,0,0.8,0,1.2,0.1c0.1,0,0.3,0.1,0.4,0.1c0.2,0,0.3,0,0.5,0
					c0.6,0.4,1.2,0.8,1.8,1c0.3,0.2,0.6,0.4,1,0.5c0.4,0.1,0.7,0.2,1.1,0.2c0.3,0,0.6,0.1,0.9,0.1c2.4-3,4.5-6.2,6.3-9.7
					c0.2-0.2,0.3-0.5,0.3-0.8c-0.5-0.5-1-1.1-1.4-1.7c-1.4-1.7-2.4-3.5-3.2-5.5c-0.6-1.6-0.6-3.2,0-4.8c0.2-0.5,0.4-0.9,0.6-1.3
					c1.1-1.8,2.3-3.2,3.8-4.3l0.1-0.4L-6-97.3l-9.5,1.9L-19.3-97.8 M-20.3-86.1c2.2,2.2,3.2,4.8,3.2,7.9c0,3.1-1.1,5.7-3.2,7.8
					c-2.2,2.2-4.8,3.2-7.9,3.2c-3.1,0-5.7-1.1-7.9-3.2c-2.1-2.2-3.2-4.8-3.2-7.9c0-3.1,1.1-5.7,3.2-7.8c2.2-2.1,4.8-3.2,7.9-3.2
					C-25.1-89.3-22.4-88.3-20.3-86.1z"/>
			</g>
		</g>
		<g>
			<path id="Settings_2_0_Layer0_0_1_STROKES" class="st1" d="M-19.3-97.8l3.8,2.4l9.5-1.9l5.7,9.6l-0.1,0.4
				c-1.5,1.1-2.7,2.6-3.8,4.3c-0.3,0.4-0.5,0.9-0.6,1.3c-0.6,1.6-0.7,3.2,0,4.8c0.8,2,1.8,3.8,3.2,5.5c0.4,0.6,0.9,1.1,1.4,1.7
				c-0.1,0.3-0.2,0.6-0.3,0.8c-1.8,3.5-3.9,6.7-6.3,9.7c-0.3,0-0.6-0.1-0.9-0.1c-0.4-0.1-0.7-0.2-1.1-0.2c-0.3-0.2-0.7-0.3-1-0.5
				c-0.6-0.3-1.2-0.6-1.8-1c-0.2,0-0.3,0-0.5,0c-0.1,0-0.3-0.1-0.4-0.1c-0.4-0.1-0.8-0.1-1.2-0.1c-1,0-2,0.1-2.9,0.5
				c-0.5,0.2-1.1,0.5-1.7,0.8l-1.9,9.5h-15.6l-1.9-9.5c-0.6-0.3-1.2-0.5-1.7-0.8c-0.9-0.3-1.8-0.5-2.8-0.5c-0.4,0-0.8,0-1.2,0.1
				c-0.1,0-0.3,0.1-0.4,0.1c-0.2,0-0.3,0-0.5,0c-0.6,0.4-1.1,0.8-1.8,1c-0.3,0.2-0.6,0.4-0.9,0.5c-0.4,0.1-0.7,0.2-1.1,0.2
				c-0.3,0-0.6,0.1-1,0.1c-2.4-3-4.5-6.2-6.3-9.7c-0.2-0.2-0.3-0.5-0.4-0.8c0.5-0.5,1-1.1,1.4-1.7c1.4-1.7,2.4-3.5,3.2-5.5
				c0.6-1.6,0.6-3.2,0-4.8c-0.2-0.5-0.4-0.9-0.7-1.3c-1.1-1.8-2.3-3.2-3.8-4.3l-0.1-0.4l5.7-9.6l9.5,1.9l3.8-2.4l1-8.1h15.6
				L-19.3-97.8z M-17-78.2c0,3.1-1.1,5.7-3.2,7.8c-2.2,2.2-4.8,3.2-7.9,3.2c-3.1,0-5.7-1.1-7.9-3.2c-2.1-2.2-3.2-4.8-3.2-7.9
				c0-3.1,1.1-5.7,3.2-7.8c2.2-2.1,4.8-3.2,7.9-3.2c3.1,0,5.7,1.1,7.9,3.2C-18.1-84-17-81.3-17-78.2z"/>
		</g>
	</g>
</g>
</svg>
