<svg xmlns="http://www.w3.org/2000/svg" viewBox="0 0 44.4 44.1" style="enable-background:new 0 0 44.4 44.1" xml:space="preserve"><path d="m-19.3-97.8-1-8.1h-15.6l-1 8.1-3.8 2.4-9.5-1.9-5.7 9.6.1.4c1.5 1.1 2.7 2.6 3.8 4.3.3.4.5.9.7 1.3.6 1.6.6 3.2 0 4.8-.8 2-1.8 3.8-3.2 5.5-.4.6-.9 1.1-1.4 1.7.1.3.2.6.4.8 1.8 3.5 3.9 6.7 6.3 9.7.3 0 .7-.1 1-.1.4-.1.7-.2 1.1-.2.3-.2.6-.3.9-.5.6-.3 1.2-.6 1.8-1h.5c.1 0 .3-.1.4-.1.4-.1.9-.1 1.2-.1 1 0 2 .1 2.8.5.5.2 1.1.5 1.7.8l1.9 9.5h15.6l1.9-9.5c.6-.3 1.2-.5 1.7-.8.9-.3 1.9-.5 2.9-.5.4 0 .8 0 1.2.1.1 0 .3.1.4.1h.5c.6.4 1.2.8 1.8 1 .3.2.6.4 1 .5.4.1.7.2 1.1.2.3 0 .6.1.9.1 2.4-3 4.5-6.2 6.3-9.7.2-.2.3-.5.3-.8-.5-.5-1-1.1-1.4-1.7-1.4-1.7-2.4-3.5-3.2-5.5-.6-1.6-.6-3.2 0-4.8.2-.5.4-.9.6-1.3 1.1-1.8 2.3-3.2 3.8-4.3l.1-.4-5.6-9.6-9.5 1.9-3.8-2.4m-1 11.7c2.2 2.2 3.2 4.8 3.2 7.9 0 3.1-1.1 5.7-3.2 7.8-2.2 2.2-4.8 3.2-7.9 3.2-3.1 0-5.7-1.1-7.9-3.2-2.1-2.2-3.2-4.8-3.2-7.9 0-3.1 1.1-5.7 3.2-7.8 2.2-2.1 4.8-3.2 7.9-3.2 3.1 0 5.8 1 7.9 3.2z" style="fill:#999" transform="matrix(.75755 0 0 .75755 43.5 81.3)"/><path d="m-19.3-97.8 3.8 2.4 9.5-1.9 5.7 9.6-.1.4c-1.5 1.1-2.7 2.6-3.8 4.3-.3.4-.5.9-.6 1.3-.6 1.6-.7 3.2 0 4.8.8 2 1.8 3.8 3.2 5.5.4.6.9 1.1 1.4 1.7-.1.3-.2.6-.3.8-1.8 3.5-3.9 6.7-6.3 9.7-.3 0-.6-.1-.9-.1-.4-.1-.7-.2-1.1-.2-.3-.2-.7-.3-1-.5-.6-.3-1.2-.6-1.8-1h-.5c-.1 0-.3-.1-.4-.1-.4-.1-.8-.1-1.2-.1-1 0-2 .1-2.9.5-.5.2-1.1.5-1.7.8l-1.9 9.5h-15.6l-1.9-9.5c-.6-.3-1.2-.5-1.7-.8-.9-.3-1.8-.5-2.8-.5-.4 0-.8 0-1.2.1-.1 0-.3.1-.4.1h-.5c-.6.4-1.1.8-1.8 1-.3.2-.6.4-.9.5-.4.1-.7.2-1.1.2-.3 0-.6.1-1 .1-2.4-3-4.5-6.2-6.3-9.7-.2-.2-.3-.5-.4-.8.5-.5 1-1.1 1.4-1.7 1.4-1.7 2.4-3.5 3.2-5.5.6-1.6.6-3.2 0-4.8-.2-.5-.4-.9-.7-1.3-1.1-1.8-2.3-3.2-3.8-4.3l-.1-.4 5.7-9.6 9.5 1.9 3.8-2.4 1-8.1h15.6l.9 8.1zm2.3 19.6c0 3.1-1.1 5.7-3.2 7.8-2.2 2.2-4.8 3.2-7.9 3.2-3.1 0-5.7-1.1-7.9-3.2-2.1-2.2-3.2-4.8-3.2-7.9 0-3.1 1.1-5.7 3.2-7.8 2.2-2.1 4.8-3.2 7.9-3.2 3.1 0 5.7 1.1 7.9 3.2 2.1 2.1 3.2 4.8 3.2 7.9z" style="fill:none;stroke:#333;stroke-width:2.2727;stroke-linecap:round;stroke-linejoin:round;stroke-miterlimit:3.0302" transform="matrix(.75755 0 0 .75755 43.5 81.3)"/></svg>