<svg xmlns="http://www.w3.org/2000/svg" viewBox="0 0 31.1 31.3" style="enable-background:new 0 0 31.1 31.3" xml:space="preserve"><path d="M-232.4-177.9h-55v55h55v-55z" style="fill:#0f0;fill-opacity:0" transform="matrix(.56609 0 0 .56609 162.711 100.723)"/><path d="M-179-119.7c0-.1-.1-.1-.2-.1h-.2c-.1 0-.2.1-.2.1l-4.2 7.2c0 .1-.1.2 0 .2 0 .1.1.2.1.2.1 0 .1.1.2.1h2.2v16c0 .2.1.3.2.5.1.1.1.2.2.2h3.2c.1 0 .2-.1.3-.2.1-.2.1-.3.1-.5v-16h2c.1 0 .2 0 .3-.1 0-.1.1-.1.1-.2v-.3l-4.1-7.1m13.6 11.2c-.1-.1-.2-.1-.3-.1h-8.7c-.1 0-.3.1-.4.1-.1.1-.1.2-.1.4v2.9c0 .1.1.3.1.3.1.1.2.1.2.2h5.3v17.1h-20.5v-17.1H-184.4c.1 0 .2-.1.2-.2.1-.1.1-.2.1-.3v-2.9c0-.1-.1-.3-.1-.4-.1-.1-.2-.1-.4-.1h-8.7c-.1 0-.3.1-.3.1-.1.1-.1.2-.2.4v23.9c0 .1.1.3.2.3.1.1.2.1.3.2h27.4c.1 0 .3-.1.3-.2.1-.1.1-.2.2-.3v-23.9c.2-.2.1-.3 0-.4z" style="fill:#999" transform="translate(160.1 97.75) scale(.80348)"/><path d="M-165.7-108.6h-8.7c-.1 0-.3.1-.4.1-.1.1-.1.2-.1.4v2.9c0 .1.1.3.1.3.1.1.2.1.2.2h5.3v17.1h-20.5v-17.1H-184.4c.1 0 .2-.1.2-.2.1-.1.1-.2.1-.3v-2.9c0-.1-.1-.3-.1-.4-.1-.1-.2-.1-.4-.1h-8.7c-.1 0-.3.1-.3.1-.1.1-.1.2-.2.4v23.9c0 .1.1.3.2.3.1.1.2.1.3.2h27.4c.1 0 .3-.1.3-.2.1-.1.1-.2.2-.3v-23.9c0-.1-.1-.3-.2-.4.1-.1 0-.1-.1-.1zm-13.5-11.3h-.2c-.1 0-.2.1-.2.1l-4.2 7.2c0 .1-.1.2 0 .2 0 .1.1.2.1.2.1 0 .1.1.2.1h2.2v16c0 .2.1.3.2.5.1.1.1.2.2.2h3.2c.1 0 .2-.1.3-.2.1-.2.1-.3.1-.5v-16h2c.1 0 .2 0 .3-.1 0-.1.1-.1.1-.2v-.3l-4.1-7.2c0 .1-.1.1-.2 0z" style="fill:none;stroke:#333;stroke-width:1.607;stroke-linecap:round;stroke-linejoin:round;stroke-miterlimit:3.2139" transform="translate(160.1 97.75) scale(.80348)"/></svg>