<?xml version="1.0" encoding="utf-8"?>
<!-- Generator: Adobe Illustrator 26.0.1, SVG Export Plug-In . SVG Version: 6.00 Build 0)  -->
<svg version="1.1" id="Layer_1" xmlns="http://www.w3.org/2000/svg" xmlns:xlink="http://www.w3.org/1999/xlink" x="0px" y="0px"
	 viewBox="0 0 31.1 31.3" style="enable-background:new 0 0 31.1 31.3;" xml:space="preserve">
<style type="text/css">
	.st0{fill:#00FF00;fill-opacity:0;}
	.st1{fill:#999999;}
	.st2{fill:none;stroke:#333333;stroke-width:1.607;stroke-linecap:round;stroke-linejoin:round;stroke-miterlimit:3.2139;}
</style>
<g transform="matrix( 0.8034820556640625, 0, 0, 0.8034820556640625, 160.1,97.75) ">
	<g transform="matrix( 0.7045440673828125, 0, 0, 0.7045440673828125, 3.25,3.7) ">
		<g>
			<g id="Share_Button_2_0_Layer1_0_FILL">
				<path class="st0" d="M-232.4-177.9h-55v55h55V-177.9z"/>
			</g>
		</g>
	</g>
	<g transform="matrix( 1, 0, 0, 1, 0,0) ">
		<g>
			<g id="Share_Button_2_0_Layer0_0_FILL">
				<path class="st1" d="M-179-119.7c0-0.1-0.1-0.1-0.2-0.1s-0.2,0-0.2,0c-0.1,0-0.2,0.1-0.2,0.1l-4.2,7.2c0,0.1-0.1,0.2,0,0.2
					c0,0.1,0.1,0.2,0.1,0.2c0.1,0,0.1,0.1,0.2,0.1l2.2,0v16c0,0.2,0.1,0.3,0.2,0.5c0.1,0.1,0.1,0.2,0.2,0.2h3.2
					c0.1,0,0.2-0.1,0.3-0.2c0.1-0.2,0.1-0.3,0.1-0.5v-16h2c0.1,0,0.2,0,0.3-0.1c0-0.1,0.1-0.1,0.1-0.2c0-0.1,0-0.2,0-0.3L-179-119.7
					 M-165.4-108.5c-0.1-0.1-0.2-0.1-0.3-0.1h-8.7c-0.1,0-0.3,0.1-0.4,0.1c-0.1,0.1-0.1,0.2-0.1,0.4v2.9c0,0.1,0.1,0.3,0.1,0.3
					c0.1,0.1,0.2,0.1,0.2,0.2c0,0,0.1,0,0.1,0h5.2v17.1h-20.5v-17.1h5.3c0,0,0.1,0,0.1,0c0.1,0,0.2-0.1,0.2-0.2
					c0.1-0.1,0.1-0.2,0.1-0.3v-2.9c0-0.1-0.1-0.3-0.1-0.4c-0.1-0.1-0.2-0.1-0.4-0.1h-8.7c-0.1,0-0.3,0.1-0.3,0.1
					c-0.1,0.1-0.1,0.2-0.2,0.4v23.9c0,0.1,0.1,0.3,0.2,0.3c0.1,0.1,0.2,0.1,0.3,0.2h27.4c0.1,0,0.3-0.1,0.3-0.2
					c0.1-0.1,0.1-0.2,0.2-0.3v-23.9C-165.2-108.3-165.3-108.4-165.4-108.5z"/>
			</g>
		</g>
		<g>
			<path id="Share_Button_2_0_Layer0_0_1_STROKES" class="st2" d="M-165.7-108.6h-8.7c-0.1,0-0.3,0.1-0.4,0.1
				c-0.1,0.1-0.1,0.2-0.1,0.4v2.9c0,0.1,0.1,0.3,0.1,0.3c0.1,0.1,0.2,0.1,0.2,0.2c0,0,0.1,0,0.1,0h5.2v17.1h-20.5v-17.1h5.3
				c0,0,0.1,0,0.1,0c0.1,0,0.2-0.1,0.2-0.2c0.1-0.1,0.1-0.2,0.1-0.3v-2.9c0-0.1-0.1-0.3-0.1-0.4c-0.1-0.1-0.2-0.1-0.4-0.1h-8.7
				c-0.1,0-0.3,0.1-0.3,0.1c-0.1,0.1-0.1,0.2-0.2,0.4v23.9c0,0.1,0.1,0.3,0.2,0.3c0.1,0.1,0.2,0.1,0.3,0.2h27.4
				c0.1,0,0.3-0.1,0.3-0.2c0.1-0.1,0.1-0.2,0.2-0.3v-23.9c0-0.1-0.1-0.3-0.2-0.4C-165.5-108.6-165.6-108.6-165.7-108.6z
				 M-179.2-119.9c-0.1,0-0.2,0-0.2,0c-0.1,0-0.2,0.1-0.2,0.1l-4.2,7.2c0,0.1-0.1,0.2,0,0.2c0,0.1,0.1,0.2,0.1,0.2
				c0.1,0,0.1,0.1,0.2,0.1l2.2,0v16c0,0.2,0.1,0.3,0.2,0.5c0.1,0.1,0.1,0.2,0.2,0.2h3.2c0.1,0,0.2-0.1,0.3-0.2
				c0.1-0.2,0.1-0.3,0.1-0.5v-16h2c0.1,0,0.2,0,0.3-0.1c0-0.1,0.1-0.1,0.1-0.2c0-0.1,0-0.2,0-0.3l-4.1-7.2
				C-179-119.8-179.1-119.8-179.2-119.9z"/>
		</g>
	</g>
</g>
</svg>
