
<svg xmlns="http://www.w3.org/2000/svg" version="1.1" xmlns:xlink="http://www.w3.org/1999/xlink" preserveAspectRatio="none" x="0px" y="0px" width="174px" height="195px" viewBox="0 0 174 195">
<defs>
<filter id="Filter_1" x="-20%" y="-20%" width="140%" height="140%" color-interpolation-filters="sRGB">
<feColorMatrix in="SourceGraphic" type="matrix" values="0.75 0 0 0 0 0 0.75 0 0 0 0 0 0.75 0 0 0 0 0 1 0" result="result1"/>
</filter>

<filter id="Filter_2" x="-20%" y="-20%" width="140%" height="140%" color-interpolation-filters="sRGB">
<feColorMatrix in="SourceGraphic" type="matrix" values="0.75 0 0 0 0 0 0.75 0 0 0 0 0 0.75 0 0 0 0 0 0 0" result="result1"/>
</filter>

<filter id="Filter_3" x="-20%" y="-20%" width="140%" height="140%" color-interpolation-filters="sRGB">
<feColorMatrix in="SourceGraphic" type="matrix" values="1 0 0 0 0 0 1 0 0 0 0 0 1 0 0 0 0 0 0 0" result="result1"/>
</filter>

<g id="SinglePlayer_Icon_0_Layer2_0_FILL">
<path fill="#F9B61F" fill-opacity="0" stroke="none" d="
M 176.95 190
L 176.95 13.05 0 13.05 0 190 176.95 190 Z"/>
</g>

<g id="SinglePlayer_Icon_0_Layer1_0_FILL">
<path fill="#F9B61F" stroke="none" d="
M 173.75 113.25
Q 173.4 113.35 172.95 113.5 171.6 114 171.2 114.4 170.8 114.8 170.2 116.35 169.8 117.35 168.6 117.4 166.85 117.45 164.55 120.25 162.25 123 162.2 123 160.5 122.6 160 122.6 157.95 122.6 156.2 124.8 154.4 127 154.1 127 153.3 127 152.35 126.6 151.4 126.2 149.7 126.2 148.05 126.2 146.85 126.75 146.05 127.1 144.6 128.2 144.2 128.45 143.3 128.45 142.1 128.4 141.4 128.4 141.1 128.4 140.1 129.1 139.05 129.8 139 129.8 138.4 129.8 137.2 129.1 136.05 128.4 135.1 128.4 134.1 128.4 131.45 129.2 128.95 130 128.8 130 128.35 130 126.95 128.9 125.6 127.8 124 127.8 121.05 127.8 118.65 130.2 116.3 132.6 116 132.6 115.85 132.6 114.65 131.8 113.45 131 112 131 110.55 131 109.3 131.8 107.85 132.75 106.4 133 106.4 132.35 105.6 131.1 104.6 129.6 103.6 129.6 103.4 129.6 101.4 130.5 99.3 131.45 98.4 132 97.7 132.4 97.8 133.95 97.85 134.75 98 136.2 97.05 135.55 96.7 135.45 96.55 135.4 95.6 135.4 92.85 135.4 91.35 137.2 89.85 139 88.2 139 81.8 138.6 81.3 138.6 76.15 138.6 73.75 140.6 71.35 142.6 68.9 142.6 65.5 142.6 64.3 141.6 63.1 140.6 59.8 140.6 57.05 140.6 55.5 141.6 54 142.6 52.8 142.6 51.5 142.6 44.3 141.2 37.15 139.8 35.8 139.8 35.05 139.8 33 140.8 31 141.8 30.2 141.8 28.45 141.8 27.2 140.4 25.9 139 22.7 139 19 139 15.85 140.7 12.7 142.4 11.9 142.4 10.15 142.4 8.25 140.9 6.35 139.4 3.7 139.4 1.35 139.4 1 139.5 0.7 139.6 0 140.05
L 0 182.75 173.75 182.75 173.75 113.25 Z"/>

<path fill="#6FC7E5" stroke="none" d="
M 172.95 113.5
Q 173.4 113.35 173.75 113.25
L 173.75 10.25 0 10.25 0 140.05
Q 0.7 139.6 1 139.5 1.35 139.4 3.7 139.4 6.35 139.4 8.25 140.9 10.15 142.4 11.9 142.4 12.7 142.4 15.85 140.7 19 139 22.7 139 25.9 139 27.2 140.4 28.45 141.8 30.2 141.8 31 141.8 33 140.8 35.05 139.8 35.8 139.8 37.15 139.8 44.3 141.2 51.5 142.6 52.8 142.6 54 142.6 55.5 141.6 57.05 140.6 59.8 140.6 63.1 140.6 64.3 141.6 65.5 142.6 68.9 142.6 71.35 142.6 73.75 140.6 76.15 138.6 81.3 138.6 81.8 138.6 88.2 139 89.85 139 91.35 137.2 92.85 135.4 95.6 135.4 96.55 135.4 96.7 135.45 97.05 135.55 98 136.2 97.85 134.75 97.8 133.95 97.7 132.4 98.4 132 99.3 131.45 101.4 130.5 103.4 129.6 103.6 129.6 104.6 129.6 105.6 131.1 106.4 132.35 106.4 133 107.85 132.75 109.3 131.8 110.55 131 112 131 113.45 131 114.65 131.8 115.85 132.6 116 132.6 116.3 132.6 118.65 130.2 121.05 127.8 124 127.8 125.6 127.8 126.95 128.9 128.35 130 128.8 130 128.95 130 131.45 129.2 134.1 128.4 135.1 128.4 136.05 128.4 137.2 129.1 138.4 129.8 139 129.8 139.05 129.8 140.1 129.1 141.1 128.4 141.4 128.4 142.1 128.4 143.3 128.45 144.2 128.45 144.6 128.2 146.05 127.1 146.85 126.75 148.05 126.2 149.7 126.2 151.4 126.2 152.35 126.6 153.3 127 154.1 127 154.4 127 156.2 124.8 157.95 122.6 160 122.6 160.5 122.6 162.2 123 162.25 123 164.55 120.25 166.85 117.45 168.6 117.4 169.8 117.35 170.2 116.35 170.8 114.8 171.2 114.4 171.6 114 172.95 113.5 Z"/>
</g>

<g id="Characters_Character1_Skin1_Shoulder_0_Layer1_0_FILL">
<path fill="#FFCCCC" stroke="none" d="
M 4.6 -2.6
Q 4.6 -2.85 4.6 -3.05
L -4.65 -3.05
Q -4.65 -2.85 -4.65 -2.6 -4.65 -2.4 -4.65 -2.25 -4.65 5.05 -4.65 12.2 -4.65 16.1 -4.65 19.75 -4.6 21.6 -4.6 23.4 -4.35 24.9 -3.35 26.05 -1.9 27.5 0 27.5 1.9 27.5 3.3 26.05 4.3 24.9 4.55 23.4 4.55 21.6 4.55 19.75 4.6 16.1 4.6 12.2 4.6 5.05 4.6 -2.25 4.6 -2.4 4.6 -2.6
M 2.25 7.1
L 2.25 0.75 2.25 7.1 Z"/>

<path fill="#269A4D" fill-opacity="0.996078431372549" stroke="none" d="
M 0.15 -26.9
L 0.2 -27.45
Q 0.1015625 -27.45 0 -27.45 -3.25 -27.45 -5.65 -25 -7.4 -23.05 -7.8 -20.45 -7.9 -13.5 -7.9 -6 -7.9 -4.45 -7.9 -3.05
L -4.65 -3.05 4.6 -3.05 7.85 -3.05
Q 7.85 -4.291015625 7.85 -5.65
L -2.85 -5.65
Q -2.85 -6.65 -3 -10.2 -3 -15.6 -2.55 -17.6 -2.15 -19.45 0.15 -26.9 Z"/>

<path fill="#33CC66" stroke="none" d="
M 0.2 -27.45
L 0.15 -26.9
Q -2.15 -19.45 -2.55 -17.6 -3 -15.6 -3 -10.2 -2.85 -6.65 -2.85 -5.65
L 7.85 -5.65
Q 7.85 -5.8240234375 7.85 -6 7.85 -13.5 7.7 -20.45 7.35 -23.05 5.6 -25 3.3234375 -27.3734375 0.2 -27.45 Z"/>
</g>

<g id="TransparentBox_0_Layer0_0_FILL">
<path fill="#000000" fill-opacity="0.00392156862745098" stroke="none" d="
M -81.15 54.3
L 81.2 54.3 81.2 -54.3 -81.15 -54.3 -81.15 54.3 Z"/>
</g>

<g id="Characters_Character1_Skin1_Arm_0_Layer1_0_FILL">
<path fill="#FFCCCC" stroke="none" d="
M 4.55 -12.8
Q 4.55 -13.55 4.55 -14.25 4.55 -15.0732421875 4.55 -15.9 4.55 -16.9009765625 4.55 -17.9 4.3 -19.4 3.3 -20.55 3.1166015625 -20.73984375 2.9 -20.9 2.518359375 -21.251171875 2.05 -21.5 1.1240234375 -22 0 -22 -0.084375 -22 -0.2 -22 -1.366796875 -21.9572265625 -2.4 -21.35 -2.8873046875 -21.0126953125 -3.35 -20.55 -3.930078125 -19.8828125 -4.25 -19.1 -4.494921875 -18.5298828125 -4.6 -17.9 -4.6 -16.1 -4.65 -14.25 -4.65 -13.55 -4.65 -12.8 -4.65 -10.45 -4.65 -7.95 -4.65 -7.8 -4.65 -7.7 -4.65 -7.6 -4.65 -7.5
L -4.65 -7.25
Q -4.65 -0.15 -4.65 6.75 -4.65 7.05 -4.65 7.3 -4.65 7.45 -4.65 7.55 -4.65 11.05 -4.65 14.3 -4.6 16.15 -4.6 17.95 -4.35 19.45 -3.35 20.6 -1.9 22.05 0 22.05 1.9 22.05 3.3 20.6 4.3 19.45 4.55 17.95 4.55 16.15 4.55 14.3 4.6 11.05 4.6 7.55 4.6 7.45 4.6 7.3 4.6 7.05 4.6 6.75 4.6 -0.15 4.6 -7.25 4.6 -7.4 4.6 -7.5 4.6 -7.6 4.6 -7.7 4.6 -7.8 4.6 -7.95 4.6 -10.45 4.55 -12.8
M 2.5 -15.65
L 2.5 15.25 2.5 -15.65 Z"/>
</g>

<g id="Characters_Character1_Skin1_Hand_0_Layer1_0_FILL">
<path fill="#FFCCCC" stroke="none" d="
M 10 -6.4
Q 9.7849609375 -6.662890625 9.55 -6.9 7.8654296875 -8.6359375 5.4 -8.9 2.35 -9.1 1.05 -6.65 1.0345703125 -6.6244140625 1 -6.6 0.5572265625 -5.8845703125 -0.65 -5.45 -1.4 -5 -1.75 -4.2 -2.2 -3 -2.15 -1.25 -2.95 -0.8 -4.65 -0.8 -6.65 -0.8 -7.95 -1.5 -9.25 -2.2 -9.65 -2.2 -10.3 -2.2 -10.3 -0.95 -10.3 -0.15 -9.65 0.45 -9 1.05 -7.7 1.45 -6.95 1.65 -3.95 2.15 -6.95 1.65 -7.7 1.45 -9 1.05 -9.65 0.45
L -9.95 1.75
Q -9.85 2.25 -9.65 2.65 -9 3.7 -7.6 4.15 -7.4 4.2 -3.95 4.75 -7.4 4.2 -7.6 4.15 -9 3.7 -9.65 2.65 -10.15 4.2 -9 5.8 -8.9 5.85 -8.8 5.95 -7.65 6.6 -6.05 6.75 -3.7 6.9 -3.45 6.95 -3.7 6.9 -6.05 6.75 -7.65 6.6 -8.8 5.95 -7.25 8.95 -4.6 8.9 -1.95 8.8 -0.55 8.8 4.25 8.8 7.15 5.9 10.25 2.85 10.25 -2.55
L 10 -6.4
M 8.35 -4.1
L 8.35 -3.25
Q 7.75 0.55 5.65 2.9 4.15 4.6 0.75 6.5 0.75 4.45 0.6 3.35 0.4 2 0.25 0.75 0.4 2 0.6 3.35 0.75 4.45 0.75 6.5 4.15 4.6 5.65 2.9 7.75 0.55 8.35 -3.25
L 8.35 -4.1 Z"/>
</g>

<g id="Characters_Character1_Skin1_Thigh_0_Layer1_0_FILL">
<path fill="#FFCCCC" stroke="none" d="
M 7.55 -8
Q 7.6 -8.2 7.6 -8.3 7.6 -8.55 7.6 -8.7
L 7.55 -8 Z"/>

<path fill="#0033CC" stroke="none" d="
M 5.25 -31.25
L 3.75 -31.25
Q 0.8109375 -29.273828125 -1.25 -25.95 -5.2708984375 -19.420703125 -5.9 -7.7
L -7.6 -7.55
Q -7.3 3.7 -7.05 13.85 -7.05 14.3 -7.05 14.7
L -7.05 15
Q -7.0142578125 16.13359375 -7 17.25 -6.8880859375 20.812109375 -6.85 24.2 -6.6 26.65 -6.6 28.95 -6.2 30.8 -4.8 32.3 -2.6 34.05 0 34.05 2.65 34.05 4.65 32.3 6.15 30.8 6.5 28.95 6.6 26.65 6.65 24.2 6.85 19.75 6.95 15 6.9943359375 14.866796875 6.95 14.75
L 6.95 14.7
Q 7 14.3 7 13.85 7.3 3.7 7.5 -7.55 7.6 -7.75 7.5 -7.9
L 7.5 -7.95 7.55 -8 7.6 -8.7
Q 7.7 -13 7.8 -17 7.8 -18.4 7.7 -19.55 7.7365234375 -20.03203125 7.75 -20.55 7.95 -23.3392578125 7.95 -26.2 7.6 -29.05 5.9 -31.2 5.73046875 -31.397265625 5.55 -31.6
L 5.25 -31.25 Z"/>

<path fill="#002493" stroke="none" d="
M 5.55 -31.6
Q 3.211328125 -34.05 0 -34.05 -3.4 -34.05 -5.9 -31.2 -6.2181640625 -30.79765625 -6.5 -30.4 -7.6748046875 -28.5166015625 -8 -26.2 -7.9 -22.85 -7.9 -19.55 -7.9 -18.4 -7.8 -17 -7.75 -13 -7.6 -8.7 -7.6 -8.55 -7.6 -8.3
L -7.6 -7.55 -5.9 -7.7
Q -5.2708984375 -19.420703125 -1.25 -25.95 0.8109375 -29.273828125 3.75 -31.25
L 5.25 -31.25 5.55 -31.6 Z"/>
</g>

<g id="Characters_Character1_Skin1_Leg_0_Layer1_0_FILL">
<path fill="#FFFFFF" stroke="none" d="
M 3.05 26.2
L 3.15 23.2 -1.55 23.2 -1.55 29.45
Q 0.4693359375 31.3615234375 3.05 26.2 Z"/>

<path fill="#CCCCCC" stroke="none" d="
M 4.65 21.6
L 4.65 21.55 -4.6 21.55 -4.6 21.6 -3.7 21.6 3.25 21.6 4.65 21.6
M 3.15 23.2
L 3.25 21.6 -3.7 21.6 -3.7 21.7 -3.4 25.85
Q -2.5427734375 28.50390625 -1.55 29.45
L -1.55 23.2 3.15 23.2 Z"/>

<path fill="#002493" stroke="none" d="
M 4.65 21.55
Q 4.6859375 20.938671875 4.7 20.3 0.1904296875 19.6978515625 -1.3 16.95 -2.35 15.05 -3 8.25 -3.65 -0.1 -4.1 -4.85 -4.8796875 -12.6013671875 -6.15 -19.3
L -6.45 -19.2
Q -6.2 -15.05 -6.15 -10.9 -5.8 -4 -5.55 2.2
L -5.55 2.6
Q -5.45 3.05 -5.4 3.6 -4.9513671875 13.22109375 -4.6 21.55
L 4.65 21.55 Z"/>

<path fill="#0033CC" stroke="none" d="
M 4.95 -26
Q 2.95 -30.05 0.05 -29.95 -0.4490234375 -29.9677734375 -0.95 -29.85 -3.1509765625 -29.328125 -5 -26 -6.03046875 -23.526953125 -6.35 -20.5 -6.369921875 -20.3052734375 -6.4 -20.1 -6.4255859375 -19.662109375 -6.45 -19.2
L -6.15 -19.3
Q -4.8796875 -12.6013671875 -4.1 -4.85 -3.65 -0.1 -3 8.25 -2.35 15.05 -1.3 16.95 0.1904296875 19.6978515625 4.7 20.3 5.13046875 12.5146484375 5.5 3.6 5.55 3.05 5.5 2.6 5.6 2.45 5.55 2.2 5.9 -4 6.1 -10.9 6.35 -15.05 6.45 -19.2 6.35 -23 4.95 -26
M 0.05 12
L 0 11.4
Q 0.05 11.55 0.05 11.65 0.05 11.9 0.05 12 Z"/>

<path fill="#FFCCCC" stroke="none" d="
M 0 11.4
L 0.05 12
Q 0.05 11.9 0.05 11.65 0.05 11.55 0 11.4 Z"/>
</g>

<g id="Characters_Character1_Skin1_Feet_0_Layer1_0_FILL">
<path fill="#412000" stroke="none" d="
M -7.05 -0.6
Q -7.194921875 -1.8083984375 -7.35 -5.4
L -11.45 -5.4 -11.45 5.45 10.75 5
Q 11.274609375 4.1783203125 11.4 3.35 8.958984375 3.0513671875 4.75 2.45 -3.2 1.35 -4.5 1.35 -6.85 1.4 -7.05 -0.6 Z"/>

<path fill="#663300" stroke="none" d="
M -7.35 -5.4
Q -7.194921875 -1.8083984375 -7.05 -0.6 -6.85 1.4 -4.5 1.35 -3.2 1.35 4.75 2.45 8.958984375 3.0513671875 11.4 3.35 11.725390625 1.77578125 10.75 0.15 6.35 -1.7 -3.2 -5.4
L -7.35 -5.4 Z"/>
</g>

<g id="Vehicles_VehicleBike_Bicycle_WheelFront_0_Layer0_0_FILL">
<path fill="#333333" stroke="none" d="
M 91.75 91.7
Q 108 75.5 108 52.5 108 29.5 91.75 13.25 75.5 -3 52.5 -3 29.5 -3 13.3 13.25 -3 29.5 -3 52.5 -3 75.5 13.3 91.7 29.5 108 52.5 108 75.5 108 91.75 91.7
M 102.85 52.5
Q 102.85 73.4 88.15 88.1 73.4 102.85 52.5 102.85 31.6 102.85 16.9 88.1 2.15 73.4 2.15 52.5 2.15 31.6 16.9 16.85 31.6 2.15 52.5 2.15 73.4 2.15 88.15 16.85 102.85 31.6 102.85 52.5 Z"/>

<path fill="#CCCCCC" stroke="none" d="
M 88.15 88.1
Q 102.85 73.4 102.85 52.5 102.85 31.6 88.15 16.85 73.4 2.15 52.5 2.15 31.6 2.15 16.9 16.85 2.15 31.6 2.15 52.5 2.15 73.4 16.9 88.1 31.6 102.85 52.5 102.85 73.4 102.85 88.15 88.1
M 84.9 20.1
Q 87 22.2 88.75 24.5 90.6 26.75 92.05 29.2 95.3 34.6 96.8 40.7 97.5 43.3 97.85 46.05 98.25 49.2 98.25 52.5 98.25 58.5 96.85 64 95.95 67.75 94.35 71.25 92.65 75.1 90.1 78.65 89.6 79.35 89.05 80.05 87.2 82.5 84.9 84.8 82.95 86.75 80.85 88.45 78.85 90.1 76.65 91.45 69.2 96.2 60.35 97.65 59.05 97.85 57.7 98 55.15 98.25 52.5 98.25 46.7 98.25 41.45 97 39.2 96.45 37.05 95.7 31.15 93.55 25.9 89.7 25.8 89.6 25.7 89.55 22.9 87.4 20.3 84.8 18 82.55 16.1 80.1 14.35 77.9 12.95 75.55 8.8 68.7 7.45 60.75 6.8 56.95 6.75 52.9 6.75 52.7 6.75 52.5 6.75 46.8 7.95 41.65 10 32.9 15.5 25.6 15.7 25.25 15.95 25 17.9 22.45 20.3 20.1 22.45 17.95 24.7 16.2 25.8 15.35 26.9 14.6 30.55 12 34.55 10.3 39.35 8.25 44.65 7.4 48.45 6.75 52.5 6.75 54 6.75 55.45 6.85 58.45 7 61.25 7.5 66.85 8.5 71.9 10.9 73.05 11.4 74.1 12 77.9 14.05 81.3 16.85 83.15 18.35 84.9 20.1 Z"/>

<path fill="#666666" stroke="none" d="
M 44.55 44.55
Q 44.05 45.05 43.6 45.6 42 47.6 41.5 50.1 41.25 51.25 41.25 52.5 41.25 52.7 41.25 52.9 41.25 53.05 41.25 53.2 41.35 54.7 41.8 56.1 42.55 58.35 44.25 60.2 44.4 60.35 44.55 60.5 45.55 61.5 46.7 62.2 47.75 62.85 48.9 63.2 50.6 63.75 52.5 63.75 53.5 63.75 54.4 63.6 54.6 63.55 54.8 63.55 56.45 63.2 57.85 62.45 59.25 61.7 60.45 60.5 61.3 59.65 61.95 58.7
L 61.95 58.65
Q 62.9 57.2 63.35 55.6 63.75 54.1 63.75 52.5 63.75 50.25 62.95 48.3 62.15 46.25 60.45 44.55 60.15 44.25 59.8 44 59.75 43.9 59.65 43.8 57.85 42.3 55.7 41.7 55.05 41.5 54.35 41.4 54.05 41.35 53.75 41.35 53.15 41.25 52.5 41.25 51.5 41.25 50.55 41.4 48.1 41.8 46.05 43.25 45.85 43.4 45.65 43.55 45.1 44 44.55 44.55
M 46.9 48.25
Q 47.2 47.9 47.5 47.6 47.85 47.25 48.2 46.95 48.3 46.85 48.45 46.8 49.75 45.85 51.25 45.6 51.85 45.55 52.45 45.55 52.85 45.55 53.25 45.6 53.45 45.6 53.6 45.6 54.05 45.7 54.45 45.8 55.8 46.2 56.9 47.1 57 47.2 57 47.25 57.25 47.4 57.4 47.6 58.45 48.65 58.95 49.9 59.45 51.15 59.45 52.55 59.45 53.55 59.2 54.45 58.95 55.45 58.35 56.35
L 58.35 56.4
Q 57.95 57 57.4 57.5 56.65 58.25 55.8 58.75 54.9 59.2 53.9 59.4 53.75 59.4 53.65 59.45 53.1 59.55 52.45 59.55 51.3 59.55 50.2 59.2 49.5 59 48.85 58.55 48.15 58.15 47.5 57.5 47.4 57.4 47.35 57.35 46.25 56.2 45.8 54.8 45.5 53.9 45.45 52.95 45.45 52.9 45.45 52.8 45.45 52.65 45.45 52.55 45.45 51.75 45.6 51.05 45.95 49.5 46.9 48.25 Z"/>

<path fill="#383838" stroke="none" d="
M 47.5 47.6
Q 47.2 47.9 46.9 48.25 45.95 49.5 45.6 51.05 45.45 51.75 45.45 52.55 45.45 52.65 45.45 52.8 45.45 52.9 45.45 52.95 45.5 53.9 45.8 54.8 46.25 56.2 47.35 57.35 47.4 57.4 47.5 57.5 48.15 58.15 48.85 58.55 49.5 59 50.2 59.2 51.3 59.55 52.45 59.55 53.1 59.55 53.65 59.45 53.75 59.4 53.9 59.4 54.9 59.2 55.8 58.75 56.65 58.25 57.4 57.5 57.95 57 58.35 56.4
L 58.35 56.35
Q 58.95 55.45 59.2 54.45 59.45 53.55 59.45 52.55 59.45 51.15 58.95 49.9 58.45 48.65 57.4 47.6 57.25 47.4 57 47.25 57 47.2 56.9 47.1 55.8 46.2 54.45 45.8 54.05 45.7 53.6 45.6 53.45 45.6 53.25 45.6 52.85 45.55 52.45 45.55 51.85 45.55 51.25 45.6 49.75 45.85 48.45 46.8 48.3 46.85 48.2 46.95 47.85 47.25 47.5 47.6 Z"/>
</g>

<g id="Vehicles_VehicleBike_Bicycle_WheelBack_0_Layer0_0_FILL">
<path fill="#333333" stroke="none" d="
M 91.7 91.7
Q 108 75.5 108 52.5 108 29.5 91.7 13.25 75.5 -3 52.5 -3 29.5 -3 13.25 13.25 -3 29.5 -3 52.5 -3 75.5 13.25 91.7 29.5 108 52.5 108 75.5 108 91.7 91.7
M 102.85 52.5
Q 102.85 73.4 88.1 88.1 73.4 102.85 52.5 102.85 31.6 102.85 16.85 88.1 2.15 73.4 2.15 52.5 2.15 31.6 16.85 16.85 31.6 2.15 52.5 2.15 73.4 2.15 88.1 16.85 102.85 31.6 102.85 52.5 Z"/>

<path fill="#CCCCCC" stroke="none" d="
M 88.1 88.1
Q 102.85 73.4 102.85 52.5 102.85 31.6 88.1 16.85 73.4 2.15 52.5 2.15 31.6 2.15 16.85 16.85 2.15 31.6 2.15 52.5 2.15 73.4 16.85 88.1 31.6 102.85 52.5 102.85 73.4 102.85 88.1 88.1
M 89.5 25.55
Q 94.996484375 32.8904296875 97.05 41.65 98.25 46.8208984375 98.25 52.5 98.25 52.7001953125 98.25 52.9 98.2185546875 56.9556640625 97.55 60.75 96.176171875 68.7017578125 92.05 75.55 90.633203125 77.8873046875 88.9 80.1 86.9912109375 82.5255859375 84.7 84.8 82.109375 87.4099609375 79.3 89.5 79.1841796875 89.612109375 79.05 89.7 73.8716796875 93.5513671875 67.95 95.65 65.8015625 96.4439453125 63.55 96.95 58.2904296875 98.25 52.5 98.25 49.8458984375 98.25 47.3 98 45.9599609375 97.860546875 44.65 97.65 35.7904296875 96.2125 28.3 91.45 26.1642578125 90.07578125 24.1 88.4 22.0484375 86.7556640625 20.1 84.8 17.8134765625 82.4962890625 15.9 80 15.3978515625 79.3435546875 14.9 78.65 12.3681640625 75.1109375 10.6 71.25 9.0482421875 67.75234375 8.1 64 6.75 58.5224609375 6.75 52.5 6.75 49.190234375 7.15 46.05 7.5044921875 43.3125 8.15 40.7 9.7162109375 34.5982421875 12.95 29.2 14.4134765625 26.76015625 16.2 24.45 17.9951171875 22.212890625 20.1 20.1 21.8494140625 18.35703125 23.7 16.85 27.1234375 14.0265625 30.85 12 31.9748046875 11.4009765625 33.1 10.85 38.1412109375 8.5224609375 43.75 7.5 46.574609375 6.9955078125 49.55 6.8 51.007421875 6.75 52.5 6.75 56.5509765625 6.75 60.35 7.35 65.646875 8.231640625 70.45 10.3 74.4546875 12.0123046875 78.1 14.55 79.2078125 15.331640625 80.25 16.15 82.562890625 17.962890625 84.7 20.1 87.081640625 22.4552734375 89.05 24.95 89.27734375 25.2681640625 89.5 25.55 Z"/>

<path fill="#383838" stroke="none" d="
M 55.25 52.5
Q 55.25 52.2 55.2 51.9 55.05 51.3 54.65 50.8 54.6162109375 50.7662109375 54.55 50.7 54.5162109375 50.64921875 54.45 50.55 54.3 50.45 54.15 50.3 54.15 50.25 54.05 50.25 53.55 49.9 52.95 49.8 52.75 49.75 52.5 49.75 52.35 49.75 52.2 49.8 52.1 49.8 52.05 49.8 51.9 49.8 51.7 49.85 51.3607421875 49.9517578125 51.05 50.15 50.89453125 50.2375 50.75 50.35 50.7 50.4 50.7 50.45 50.65 50.5 50.55 50.55 50.15 51 49.95 51.45 49.75 51.95 49.75 52.5 49.75 52.9 49.85 53.25 49.95 53.65 50.2 54 50.35 54.25 50.55 54.45 50.85 54.75 51.2 54.95 51.55 55.1 51.95 55.2 52 55.2 52.05 55.2 52.25 55.25 52.5 55.25 52.95 55.25 53.4 55.1 53.65 55.05 53.9 54.85 53.9498046875 54.825 54 54.8 54.2416015625 54.6583984375 54.45 54.45
L 54.5 54.4
Q 54.95 53.95 55.1 53.4 55.2 53.05 55.25 52.65
L 55.25 52.6
Q 55.25 52.55 55.25 52.5 Z"/>
</g>

<g id="Vehicles_VehicleBike_Bicycle_Body_0_Layer0_0_FILL">
<path fill="#383838" stroke="none" d="
M -27.15 83
L -27.2 82.95
Q -27.85 82.35 -28.65 82.1 -29.2 81.9 -29.8 81.9 -31.35 81.9 -32.45 83 -33.55 84.1 -33.55 85.65 -33.55 87.2 -32.45 88.3 -31.35 89.4 -29.8 89.4 -28.45 89.4 -27.4 88.55 -27.25 88.4 -27.15 88.3 -26.05 87.2 -26.05 85.65 -26.05 85.25 -26.15 84.85 -26.2 84.45 -26.4 84.05 -26.65 83.5 -27.15 83
M 108.3 -37.15
Q 109.6 -38.45 109.6 -40.25 109.6 -42.1 108.3 -43.4 107.3 -44.4 106 -44.6 105.6 -44.7 105.15 -44.7 103.3 -44.7 102 -43.4 100.7 -42.1 100.7 -40.25 100.7 -38.45 102 -37.15 103.3 -35.85 105.15 -35.85 105.6 -35.85 106 -35.9 107.3 -36.15 108.3 -37.15
M 115 -42.9
Q 114.6 -43.7 113.95 -44.35 112.25 -46.05 109.85 -46.05 107.65 -46.05 106 -44.6 107.3 -44.4 108.3 -43.4 109.6 -42.1 109.6 -40.25 109.6 -38.45 108.3 -37.15 107.3 -36.15 106 -35.9 107.6 -34.45 109.85 -34.45 110 -34.45 110.2 -34.45 112.35 -34.55 113.95 -36.15 115.65 -37.85 115.65 -40.25 115.65 -41.1 115.45 -41.8 115.3 -42.4 115 -42.9 Z"/>

<path fill="#FF0000" stroke="none" d="
M 22.4 39.25
L 20.75 34 -28.35 81.8 -27.2 82.95 -27.15 83
Q -26.65 83.5 -26.4 84.05
L 22.4 39.25
M 20 36.45
L -22 77.45 20 36.45
M 25.6 22.1
L 22.8 23 18.35 24.45 16.2 25.1 16.9 28.3 18.55 28.35 18.9 28.2 25.15 26.2 25.25 26.35 26.55 25.45 25.6 22.1
M 17.85 25.55
L 24.6 23.45 17.85 25.55
M 129.65 63.2
Q 137.35 75.8 147.9 87.45 150.35 87.75 149.9 85.2 140.25 73.4 133.9 60.7
L 123.65 30.7 119.15 32.45 129.65 63.2
M 92.9 9.5
L 105.55 4.65 102.9 -1.3 26.15 29.6 27.65 34.45 92.9 9.5
M 101.75 0.45
L 28.1 30.05 101.75 0.45
M 110.9 16.7
L 108.65 11.65 101.35 21.95 52.65 90.7
Q 49.05 94.05 45.15 92.2
L 27.65 34.45 26.15 29.6 25.2 26.4 25.15 26.2 18.9 28.2 18.9 28.25 20.75 34 22.4 39.25 39.9 94.45 -25.95 84.9 -26.05 85.65
Q -26.05 87.2 -27.15 88.3
L -27.2 88.55 43.15 99.7
Q 48.6 101.7 54.4 96.7
L 110.9 16.7
M 52.85 92.3
Q 49.225 94.969140625 45.6 93.7 49.225 94.969140625 52.85 92.3
M 108.35 14.2
L 53.6 91.55 108.35 14.2
M 108.65 11.65
L 105.55 4.65 92.9 9.5 94.9 11.8 100.65 10.65 102.15 13.3 99.9 19.65 101.35 21.95 108.65 11.65
M 108.9 -8.8
L 108.1 -8.4 102.7 -5.9 101.15 -5.2 102.9 -1.3 105.55 4.65 108.65 11.65 110.9 16.7
Q 111.15 17.2 111.35 17.7
L 113.55 22.5 120.3 20.05 113.55 22.5 119.15 32.45 123.65 30.7 120.9 19.7 108.9 -8.8
M 102.6 -4.45
L 107.95 -6.8 102.6 -4.45 Z"/>

<path fill="#CCCCCC" stroke="none" d="
M 18.75 9.55
Q 17.05 10 15.3 10.4
L 15.25 10.4
Q 14.65 10.5 14.05 10.65
L 18.35 24.45 22.8 23 18.75 9.55
M 115.45 -41.8
Q 115.65 -41.1 115.65 -40.25 115.65 -37.85 113.95 -36.15 112.35 -34.55 110.2 -34.45
L 102.05 -21.35 100.55 -22.45 97.2 -20.85 102.7 -5.9 108.1 -8.4 107.8 -9.1 105.8 -14.2 115.05 -31.85 118.3 -33.8 119.55 -38.45 117.65 -42.3 115.45 -41.8
M 98.6 -20.45
L 102.75 -8.55 98.6 -20.45
M 111 -33.2
L 102.85 -20.45 111 -33.2 Z"/>

<path fill="#006E93" stroke="none" d="
M 1.5 -2.55
Q 1.5 -2.8822265625 1.5 -3.2 1.428125 -3.2 1.35 -3.2 -4.4 -2.85 -3.5 2.95 -2.55 9.35 4.35 10.4 8.8 11.3 13.3 10.75 13.65 10.7 14.05 10.65 14.65 10.5 15.25 10.4
L 15.3 10.4
Q 17.05 10 18.75 9.55 19.15 9.45 19.55 9.35 19.7 9.3 19.85 9.25 22.85 8.45 25.75 7.5 31.4 5.65 37.3 5.05 38.7 5.05 40.1 5.05 41.176171875 2.7982421875 41.05 1.15 40.37890625 1.1875 39.6 1.2 30.25 1.35 28.35 1.75 26.55 2.15 19.15 4.2 14.95 5.4 11.15 5.4 5.65 5.4 3.6 3.75 1.5 2.05 1.5 -2.55 Z"/>

<path fill="#0099CC" stroke="none" d="
M 1.5 -3.2
Q 1.5 -2.8822265625 1.5 -2.55 1.5 2.05 3.6 3.75 5.65 5.4 11.15 5.4 14.95 5.4 19.15 4.2 26.55 2.15 28.35 1.75 30.25 1.35 39.6 1.2 40.37890625 1.1875 41.05 1.15 40.816796875 -2.1970703125 35.7 -3.1 30.15 -4.25 24.6 -3.6 18.85 -3.4 13.1 -3.3 7.230078125 -3.2013671875 1.5 -3.2 Z"/>
</g>

<g id="Vehicles_VehicleBike_Bicycle_Pedals_0_Layer0_0_FILL">
<path fill="#666666" stroke="none" d="
M 55.2 37.1
Q 53.9 36.9 52.5 36.9 51.6 36.9 50.75 37.05 50.35 37.05 49.95 37.1 48.95 37.25 48.05 37.5 45.1 38.35 42.6 40.45 42.45 40.55 42.4 40.7 41.9 41.05 41.5 41.5 39.1 43.85 38 46.7 36.9 49.4 36.9 52.5 36.9 54.7 37.45 56.8 38.1 59 39.4 61.05
L 39.4 61.1
Q 40.3 62.4 41.5 63.6 43.15 65.25 45.1 66.3 47 67.35 49.3 67.8 49.6 67.8 49.85 67.9 51.1 68.1 52.5 68.1 55.15 68.1 57.5 67.35 59.1 66.85 60.55 65.95 62.15 65 63.5 63.6 63.75 63.4 63.95 63.2 66.3 60.6 67.35 57.5 67.95 55.55 68.1 53.45 68.1 53.25 68.1 53.05 68.1 52.8 68.1 52.5 68.1 50.75 67.75 49.15 67.05 45.7 64.85 42.95 64.2 42.15 63.5 41.5 62.75 40.7 62 40.1 61.7 39.9 61.45 39.65 58.6 37.65 55.2 37.1
M 41.7 49.05
Q 41.8453125 48.6462890625 42 48.25 42.85 46.2 44.5 44.5 44.75 44.25 45.15 43.95 45.15 43.9 45.35 43.7 47.1 42.25 49.3 41.6 49.95 41.4 50.65 41.3 50.940234375 41.3 51.2 41.3 51.443359375 44.6857421875 49.65 48.9 49.6341796875 48.920703125 49.6 48.95 49.5 49 49.5 49.05 49.35 49.15 49.25 49.25
L 49.2 49.1
Q 45.305078125 49.842578125 41.7 49.05
M 53.85 41.25
Q 54.2185546875 41.266796875 54.55 41.3 56.95 41.7 59.05 43.25 59.25 43.3 59.45 43.45 60.05 43.95 60.6 44.5 61.1 45 61.55 45.6 62.780078125 47.1375 63.35 49 59.587109375 50.109765625 55.8 49.05
L 55.8 49.25
Q 55.68359375 49.13359375 55.55 49 55.4544921875 48.9044921875 55.35 48.8 55.3041015625 48.776953125 55.25 48.75 55.226953125 48.75 55.2 48.75
L 55.25 48.7
Q 53.8064453125 45.0751953125 53.85 41.25
M 63.35 56.2
Q 62.6 58.5 60.85 60.4 60.75 60.45 60.6 60.6 60.5087890625 60.6912109375 60.4 60.75 57.5513671875 57.957421875 56.6 54.75 56.8296875 54.38125 56.95 54 57.103515625 53.5775390625 57.15 53.1 57.1884765625 52.95078125 57.2 52.8
L 57.3 53.05
Q 60.6779296875 51.3634765625 63.85 51.35 63.95 51.9216796875 63.95 52.55 63.95 52.7 63.95 52.95 63.95 53.1 63.95 53.2 63.85 54.75 63.35 56.2
M 54 56.95
Q 54.18203125 56.8953125 54.35 56.8 57.0498046875 59.364453125 58.45 62.25
L 58.4 62.3
Q 57.35 63 56.2 63.35 54.4 63.95 52.55 63.95 51.5 63.95 50.6 63.75 50.45 63.65 50.2 63.65 48.6107421875 63.3611328125 47.2 62.65 48.4962890625 59.8 51.1 56.95 51.343359375 57.01328125 51.6 57.05 51.7 57.05 51.75 57.1 52.1 57.2 52.55 57.2 53.3 57.2 54 56.95
M 48.65 55.1
L 48.4 55
Q 47.60625 58.18671875 45.35 61.35 44.9322265625 61.01484375 44.5 60.6 43.65 59.8 43 58.8 42 57.3 41.6 55.65 41.2 54.2 41.2 52.55 41.2 51.8861328125 41.25 51.25 44.73828125 50.850390625 47.85 52.6
L 47.9 52.55
Q 47.9 52.6001953125 47.9 52.65 47.9115234375 53.2462890625 48.05 53.8 48.20078125 54.290234375 48.45 54.75 48.5517578125 54.940234375 48.65 55.1 Z"/>
</g>

<g id="Characters_Character1_Skin1_Belly_0_Layer2_0_FILL">
<path fill="#0033CC" stroke="none" d="
M 18.8 43.25
L 18.75 43.3
Q -0.75 47.5 -18.35 43.3
L -17.8 53.3
Q -17.35 54.4 -16.95 55.5 -15.75 57.25 -14.15 58.85 -8.2 64.65 0.15 64.65 8.55 64.65 14.45 58.85 16.1 57.25 17.25 55.5 17.75 54.4 18.05 53.3
L 18.8 43.25 Z"/>

<path fill="#970000" stroke="none" d="
M 18.8 43.25
Q 18.8 42.95 18.8 42.75 18.95 41.35 18.1 39.8 0.15 36.95 -17.85 39.7 -18.8 41.6 -18.35 43.3 -0.75 47.5 18.75 43.3
L 18.8 43.25
M 5.8 42.45
Q 4.45 42.45 0.35 41.7 -3.5 40.4 -6.8 41.1 -6.7515625 41.1 -6.65 41.1 -6.7515625 41.103125 -6.8 41.2
L -6.8 41.1
Q -7.6 41.1 -9.75 41.4 -12.75 41.7 -13.2 41.95 -12.75 41.7 -9.75 41.4 -7.6 41.1 -6.8 41.1 -3.5 40.4 0.35 41.7 4.45 42.45 5.8 42.45 6.8 42.45 8.25 42.15 9.1 42.05 10.15 41.7 9.1 42.05 8.25 42.15 6.8 42.45 5.8 42.45
M -6.8 41.1
L -6.8 41.2
Q -6.7515625 41.103125 -6.65 41.1 -6.7515625 41.1 -6.8 41.1 Z"/>
</g>

<g id="Characters_Character1_Skin1_Belly_0_Layer1_0_FILL">
<path fill="#FFFFFF" stroke="none" d="
M -12.45 34.35
L -12.45 41.2 -4.75 40.4 -4.75 34.35 -12.45 34.35
M -3.9 34.35
L -3.9 31.1 -13.2 31.1 -13.2 34.35 -12.45 34.35 -4.75 34.35 -3.9 34.35
M -4.75 24.7
L -12.45 24.7 -12.45 30.85 -4.75 30.85 -4.75 24.7
M -4.75 24.7
L -3.9 24.7 -3.9 21.45 -13.2 21.45 -13.2 24.7 -12.45 24.7 -4.75 24.7 Z"/>
</g>

<g id="Characters_Character1_Skin1_Core_0_Layer2_0_FILL">
<path fill="#269A4D" fill-opacity="0.996078431372549" stroke="none" d="
M -6.8 -45.15
L -8.25 -47
Q -11.069140625 -44.6013671875 -13.45 -40.45 -17.85 -32.85 -18.8 -22.75 -19 4.55 -19 33.85 -19 39.95 -19 45.5
L -8.5 45.5
Q -8.9 32 -9.7 20.1 -10.25 12.1 -10.25 -0.1 -10.25 -16.6 -9.45 -24.25 -8.26875 -35.81640625 -4.65 -41.35
L -4.55 -41.55
Q -4.584375 -41.6046875 -4.65 -41.65 -6.8 -43.1 -6.8 -45.15 Z"/>

<path fill="#33CC66" stroke="none" d="
M -4.45 -48.75
L -4.45 -49.25
Q -6.4365234375 -48.4708984375 -8.25 -47
L -6.8 -45.15
Q -6.8 -47.15 -4.65 -48.6 -4.55 -48.65 -4.45 -48.75
M 6.2 -48.25
L 6.2 -48.15
Q 7.7 -46.85 7.7 -45.15 7.7 -43.55 6.4 -42.3 6.05 -41.95 5.6 -41.65 5.1533203125 -41.348828125 4.65 -41.1 2.8267578125 -40.2 0.45 -40.2 -2.45625 -40.2 -4.55 -41.55
L -4.65 -41.35
Q -8.26875 -35.81640625 -9.45 -24.25 -10.25 -16.6 -10.25 -0.1 -10.25 12.1 -9.7 20.1 -8.9 32 -8.5 45.5
L 18.95 45.5
Q 18.95 39.95 18.95 33.85 18.95 4.55 18.65 -22.75 17.75 -32.85 13.4 -40.45 10.15 -45.95 6.2 -48.25
M 4.9 -40.7
Q 7.65 -36.05 7.15 -31.2 7.65 -36.05 4.9 -40.7 Z"/>

<path fill="#26984C" stroke="none" d="
M 7.7 -45.15
Q 7.7 -46.85 6.2 -48.15
L 6.2 -48.1
Q 6.05 -46.3 4.7 -44.95 3.1 -43.35 0.9 -43.35 -1.3 -43.35 -2.85 -44.95 -4.25 -46.3 -4.45 -48.1
L -4.45 -48.75
Q -4.55 -48.65 -4.65 -48.6 -6.8 -47.15 -6.8 -45.15 -6.8 -43.1 -4.65 -41.65 -4.584375 -41.6046875 -4.55 -41.55 -2.45625 -40.2 0.45 -40.2 2.8267578125 -40.2 4.65 -41.1 5.1533203125 -41.348828125 5.6 -41.65 6.05 -41.95 6.4 -42.3 7.7 -43.55 7.7 -45.15 Z"/>

<path fill="#FFCCCC" stroke="none" d="
M 6.2 -48.15
L 6.2 -48.25 6.2 -55.15
Q 1.1 -51.45 -4.35 -55.1
L -4.45 -49.25 -4.45 -48.75 -4.45 -48.1
Q -4.25 -46.3 -2.85 -44.95 -1.3 -43.35 0.9 -43.35 3.1 -43.35 4.7 -44.95 6.05 -46.3 6.2 -48.1
L 6.2 -48.15
M 4 -47.85
L 4 -50.75 4 -47.85 Z"/>

<path fill="#990000" stroke="none" d="
M 6.2 -55.15
L 6.2 -56.25
Q 1.1 -59.95 -4.35 -56.25
L -4.35 -55.1
Q 1.1 -51.45 6.2 -55.15 Z"/>
</g>

<g id="Characters_Character1_Skin1_Head_Idle_0_Layer2_0_FILL">
<path fill="#FFCCCC" stroke="none" d="
M -3.65 -16.1
Q -9.9 -15.3 -13.05 -9.95 -16.1 -4.8 -14.45 0.95 -14.45 1.4 -16.05 2.1 -17.6 2.8 -17.6 4.45 -17.6 5.1 -17.3 6 -16.95 6.85 -16.95 7.1 -16.95 7.5 -18.1 7.95 -18.75 8.25 -20.35 8.9 -20.7 7.4 -21 6.55 -21.5 5 -22.95 4.55 -24.3 3.85 -25.5 3.7 -25.85 3.65 -26.15 3.65 -28.2 3.65 -28.95 5.05 -29.45 5.95 -29.45 7.85 -29.45 8.85 -28.85 10.45 -28.5 11.35 -27.7 13.15 -27.15 14.4 -26.3 14.95 -25.45 15.55 -24.1 15.55 -23.55 15.55 -23.2 15.5 -22.25 15.4 -21.95 15.05 -21.8 14.85 -21.2 14.45 -20.95 14.3 -20.85 13.4 -20.95 14.3 -21.2 14.45 -21.8 14.85 -21.95 15.05 -22.25 15.4 -23.2 15.5 -21 20.5 -16.85 24.65 -11.7 29.8 -5.35 31.9 -0.95 33.3 4 33.3 16.2 33.3 24.85 24.65 33.5 16 33.5 3.8 33.5 -7.15 26.55 -15.2 20.7 -16.75 14.55 -16.6
L 2.75 -16.85
Q -0.45 -16.55 -3.65 -16.1
M 3.5 -3.6
Q 5 -3.6 6.05 -2.55 7.1 -1.5 7.1 0 7.1 1.5 6.05 2.55 5 3.6 3.5 3.6 2 3.6 0.95 2.55 -0.1 1.5 -0.1 0 -0.1 -1.5 0.95 -2.55 2 -3.6 3.5 -3.6
M 27.2 -3.6
Q 28.7 -3.6 29.75 -2.55 30.8 -1.5 30.8 0 30.8 1.5 29.75 2.55 28.7 3.6 27.2 3.6 25.7 3.6 24.65 2.55 23.6 1.5 23.6 0 23.6 -1.5 24.65 -2.55 25.7 -3.6 27.2 -3.6
M 20.5 21.9
Q 20.9525390625 21.775 22.5 21.55 20.9525390625 21.775 20.5 21.9 10.2548828125 33.2728515625 1.95 20.7 12.9318359375 24.4234375 20.5 21.9
M 16.15 16.15
Q 15.1 15.65 13.65 15.65 15.1 15.65 16.15 16.15 17.2 16.65 18.05 16.65 19.15 16.65 19.9 16.05 20.65 15.45 20.65 14.6 20.65 12.95 19.4 11.95 17.65 10.55 16.8 8.8
L 16.8 8.3 16.8 8.8
Q 17.65 10.55 19.4 11.95 20.65 12.95 20.65 14.6 20.65 15.45 19.9 16.05 19.15 16.65 18.05 16.65 17.2 16.65 16.15 16.15
M 9.9 29.95
Q 9.6 29.75 9.25 29.55 9.6 29.75 9.9 29.95 11.65 30.35 13.1 29.6 11.65 30.35 9.9 29.95 Z"/>

<path fill="#FFFFFF" stroke="none" d="
M 1.95 20.7
Q 10.2548828125 33.2728515625 20.5 21.9 12.9318359375 24.4234375 1.95 20.7 Z"/>

<path fill="#990000" stroke="none" d="
M 29.75 -2.55
Q 28.7 -3.6 27.2 -3.6 25.7 -3.6 24.65 -2.55 23.6 -1.5 23.6 0 23.6 1.5 24.65 2.55 25.7 3.6 27.2 3.6 28.7 3.6 29.75 2.55 30.8 1.5 30.8 0 30.8 -1.5 29.75 -2.55
M 6.05 -2.55
Q 5 -3.6 3.5 -3.6 2 -3.6 0.95 -2.55 -0.1 -1.5 -0.1 0 -0.1 1.5 0.95 2.55 2 3.6 3.5 3.6 5 3.6 6.05 2.55 7.1 1.5 7.1 0 7.1 -1.5 6.05 -2.55 Z"/>

<path fill="#FFCC00" stroke="none" d="
M -23.9 -23.65
Q -33.45 -14.05 -33.45 -0.55 -33.45 13 -23.9 22.6 -15.95 30.5 -5.35 31.9 -11.7 29.8 -16.85 24.65 -21 20.5 -23.2 15.5 -23.55 15.55 -24.1 15.55 -25.45 15.55 -26.3 14.95 -27.15 14.4 -27.7 13.15 -28.5 11.35 -28.85 10.45 -29.45 8.85 -29.45 7.85 -29.45 5.95 -28.95 5.05 -28.2 3.65 -26.15 3.65 -25.85 3.65 -25.5 3.7 -24.3 3.85 -22.95 4.55 -21.5 5 -21 6.55 -20.7 7.4 -20.35 8.9 -18.75 8.25 -18.1 7.95 -16.95 7.5 -16.95 7.1 -16.95 6.85 -17.3 6 -17.6 5.1 -17.6 4.45 -17.6 2.8 -16.05 2.1 -14.45 1.4 -14.45 0.95 -16.1 -4.8 -13.05 -9.95 -9.9 -15.3 -3.65 -16.1 -0.45 -16.55 2.75 -16.85
L 14.55 -16.6
Q 20.7 -16.75 26.55 -15.2 27.7 -14.9 28.85 -14.55 33.2 -20 24.45 -26.7 15.75 -33.45 0.7 -33.3 -14.3 -33.2 -23.9 -23.65 Z"/>
</g>

<g id="Characters_Character1_Skin1_Head_Idle_0_Layer1_0_FILL">
<path fill="#000000" fill-opacity="0.2" stroke="none" d="
M -26.1 9.65
Q -26.1 10.3 -25.7 10.75 -25.25 11.2 -24.65 11.2 -24.05 11.2 -23.65 10.75 -23.2 10.3 -23.2 9.65 -23.2 9 -23.65 8.55 -24.05 8.1 -24.65 8.1 -25.25 8.1 -25.7 8.55 -26.1 9 -26.1 9.65
M 12.45 32.15
Q 8.3052734375 32.0607421875 4.8 31 -1.45 29.2 -3.45 28.3 -7.25 26.35 -7.5 26.2 -10.65 24.5 -12.1 23.25 -12.45 22.95 -14.6 21.4 -16.5 20.05 -16.85 19.55 -20.9 14.45 -20.85 13.4 -20.95 14.3 -21.2 14.45 -21.8 14.85 -21.95 15.05 -22.25 15.4 -23.2 15.5 -23.55 15.55 -24.1 15.55 -25.45 15.55 -26.3 14.95 -27.15 14.4 -27.7 13.15 -28.5 11.35 -28.85 10.45 -29.45 8.85 -29.45 7.85 -29.45 5.95 -28.95 5.05 -28.2 3.65 -26.15 3.65 -25.8697265625 3.65 -25.55 3.7 -27.35078125 2.4291015625 -28.4 0.5 -28.65 -0.1 -29.4 -4.75 -29.8 -7.05 -30.15 -10.25 -30.4765625 -12.9708984375 -30.55 -14.35 -33.45 -8.0359375 -33.45 -0.55 -33.45 13 -23.9 22.6 -15.95 30.5 -5.35 31.9 -0.95 33.3 4 33.3 8.46171875 33.3 12.45 32.15
M 19.5 12.8
Q 19.45 13.45 19.3 13.8 19.15 14.1 18.65 14.45 18.1 14.85 17.75 14.9
L 15.6 15.05
Q 15.4 15.05 14.65 15.3 13.9 15.55 13.65 15.65 15.1 15.65 16.15 16.15 17.2 16.65 18.05 16.65 19.15 16.65 19.9 16.05 20.65 15.45 20.65 14.6 20.65 13.051171875 19.55 12.05 19.5419921875 12.296875 19.5 12.8
M 23.2 -4.8
Q 21.8 -3.45 21.8 -0.5 21.8 0.7 23.55 1.75 23.75 2.15 24.15 2.55 24.35 2.75 24.55 2.9 25.5 3.6 26.7 3.6 28.15 3.6 29.2 2.6 30.4 2.25 30.9 1.4 31.8 -0.1 31.8 -2.05 31.8 -3.15 31.55 -3.75 31.25 -4.5 30.3 -5.3 29.55 -5.9 28.9 -6.05 28.55 -6.1 27.25 -6.1 24.5 -6.1 23.2 -4.8
M 4.05 -6.1
Q 1.3 -6.1 0 -4.8 -1.4 -3.45 -1.4 -0.5 -1.3962890625 0.72109375 0.3 1.7 0.5701171875 2.1701171875 0.95 2.55 1.146875 2.746875 1.35 2.9 2.28125 3.6 3.5 3.6 4.9599609375 3.6 6 2.6 7.1962890625 2.239453125 7.7 1.4 8.6 -0.1 8.6 -2.05 8.6 -3.15 8.35 -3.75 8.05 -4.5 7.1 -5.3 6.35 -5.9 5.7 -6.05 5.35 -6.1 4.05 -6.1
M 2.75 -16.85
L 14.55 -16.6
Q 20.7 -16.75 26.55 -15.2 27.7 -14.9 28.85 -14.55 31.0021484375 -17.2462890625 29.95 -20.25 26.769921875 -20.2287109375 17.4 -21.4 7.809375 -22.6109375 1.6 -22.65 -5.7 -22.45 -6 -22.5 -7.65 -22.55 -9.4 -21.65 -11.05 -20.85 -12.4 -19.4 -14.6 -17.05 -15.25 -14.2 -15.65 -12.45 -15.65 -8.55 -15.518359375 -6.5658203125 -15.45 -5
L -15.4 -5
Q -15.2888671875 -4.822265625 -15 -4.25 -14.687109375 -7.1859375 -13.05 -9.95 -9.9 -15.3 -3.65 -16.1 -0.45 -16.55 2.75 -16.85
M 1.6 -22.65
Q 1.6 -22.8 1.5 -22.75 1.30625 -22.653125 1.2 -22.65 1.4001953125 -22.65 1.6 -22.65 Z"/>
</g>

<g id="Characters_Character1_Skin1_Eye_0_Layer2_0_FILL">
<path fill="#FFFFFF" stroke="none" d="
M 15.4 7.7
Q 15.4 6.4 15 5.25
L 0.4 5.1
Q 0 6.3 0 7.7 0 10.9 2.25 13.15 4.5 15.4 7.7 15.4 10.9 15.4 13.15 13.15 15.4 10.9 15.4 7.7 Z"/>

<path fill="#FFCCCC" stroke="none" d="
M 15 5.25
Q 14.5 3.6 13.15 2.25 10.9 0 7.7 0 4.5 0 2.25 2.25 1 3.5 0.4 5.1
L 15 5.25 Z"/>
</g>

<g id="Characters_Character1_Skin1_Eye_0_Layer1_0_FILL">
<path fill="#000000" fill-opacity="0.2" stroke="none" d="
M 6.3 2.25
Q 7.801171875 0.748828125 9.7 0.25 8.765234375 0 7.7 0 4.5 0 2.25 2.25 1 3.5 0.4 5.1 0 6.3 0 7.7 0 10.9 2.25 13.15 4.5 15.4 7.7 15.4 8.765234375 15.4 9.7 15.15 7.801171875 14.651171875 6.3 13.15 4.05 10.9 4.05 7.7 4.05 6.3 4.45 5.1 5.05 3.5 6.3 2.25 Z"/>
</g>

<g id="Characters_Character1_Skin1_Eye_0_Layer0_0_FILL">
<path fill="#000000" stroke="none" d="
M 10.05 9.3
Q 10.45 9.75 11.05 9.75 11.65 9.75 12.1 9.3 12.5 8.9 12.5 8.3 12.5 7.7 12.1 7.25 11.65 6.85 11.05 6.85 10.45 6.85 10.05 7.25 9.6 7.7 9.6 8.3 9.6 8.9 10.05 9.3 Z"/>
</g>

<path id="SinglePlayer_Icon_0_Layer1_0_1_STROKES" stroke="#333333" stroke-width="1" stroke-linejoin="round" stroke-linecap="round" fill="none" d="
M 0 140.05
Q 0.7 139.6 1 139.5 1.35 139.4 3.7 139.4 6.35 139.4 8.25 140.9 10.15 142.4 11.9 142.4 12.7 142.4 15.85 140.7 19 139 22.7 139 25.9 139 27.2 140.4 28.45 141.8 30.2 141.8 31 141.8 33 140.8 35.05 139.8 35.8 139.8 37.15 139.8 44.3 141.2 51.5 142.6 52.8 142.6 54 142.6 55.5 141.6 57.05 140.6 59.8 140.6 63.1 140.6 64.3 141.6 65.5 142.6 68.9 142.6 71.35 142.6 73.75 140.6 76.15 138.6 81.3 138.6 81.8 138.6 88.2 139 89.85 139 91.35 137.2 92.85 135.4 95.6 135.4 96.55 135.4 96.7 135.45 97.05 135.55 98 136.2 97.85 134.75 97.8 133.95 97.7 132.4 98.4 132 99.3 131.45 101.4 130.5 103.4 129.6 103.6 129.6 104.6 129.6 105.6 131.1 106.4 132.35 106.4 133 107.85 132.75 109.3 131.8 110.55 131 112 131 113.45 131 114.65 131.8 115.85 132.6 116 132.6 116.3 132.6 118.65 130.2 121.05 127.8 124 127.8 125.6 127.8 126.95 128.9 128.35 130 128.8 130 128.95 130 131.45 129.2 134.1 128.4 135.1 128.4 136.05 128.4 137.2 129.1 138.4 129.8 139 129.8 139.05 129.8 140.1 129.1 141.1 128.4 141.4 128.4 142.1 128.4 143.3 128.45 144.2 128.45 144.6 128.2 146.05 127.1 146.85 126.75 148.05 126.2 149.7 126.2 151.4 126.2 152.35 126.6 153.3 127 154.1 127 154.4 127 156.2 124.8 157.95 122.6 160 122.6 160.5 122.6 162.2 123 162.25 123 164.55 120.25 166.85 117.45 168.6 117.4 169.8 117.35 170.2 116.35 170.8 114.8 171.2 114.4 171.6 114 172.95 113.5 173.4 113.35 173.75 113.25"/>

<path id="Characters_Character1_Skin1_Shoulder_0_Layer1_0_1_STROKES" stroke="#000000" stroke-width="1.25" stroke-linejoin="round" stroke-linecap="round" fill="none" d="
M 7.85 -5.65
Q 7.85 -5.8240234375 7.85 -6 7.85 -13.5 7.7 -20.45 7.35 -23.05 5.6 -25 3.3234375 -27.3734375 0.2 -27.45 0.1015625 -27.45 0 -27.45 -3.25 -27.45 -5.65 -25 -7.4 -23.05 -7.8 -20.45 -7.9 -13.5 -7.9 -6 -7.9 -4.45 -7.9 -3.05
L -4.65 -3.05 4.6 -3.05 7.85 -3.05
Q 7.85 -4.291015625 7.85 -5.65 Z
M -4.65 -3.05
Q -4.65 -2.85 -4.65 -2.6 -4.65 -2.4 -4.65 -2.25 -4.65 5.05 -4.65 12.2 -4.65 16.1 -4.65 19.75 -4.6 21.6 -4.6 23.4 -4.35 24.9 -3.35 26.05 -1.9 27.5 0 27.5 1.9 27.5 3.3 26.05 4.3 24.9 4.55 23.4 4.55 21.6 4.55 19.75 4.6 16.1 4.6 12.2 4.6 5.05 4.6 -2.25 4.6 -2.4 4.6 -2.6 4.6 -2.85 4.6 -3.05"/>

<path id="Characters_Character1_Skin1_Shoulder_0_Layer1_0_2_STROKES" stroke="#FFE5E5" stroke-width="1" stroke-linejoin="round" stroke-linecap="round" fill="none" d="
M 2.25 7.1
L 2.25 0.75"/>

<path id="Characters_Character1_Skin1_Arm_0_Layer1_0_1_STROKES" stroke="#000000" stroke-width="1.25" stroke-linejoin="round" stroke-linecap="round" fill="none" d="
M 4.55 -15.875
Q 4.55 -15.0732421875 4.55 -14.25 4.55 -13.55 4.55 -12.8 4.6 -10.45 4.6 -7.95 4.6 -7.8 4.6 -7.7 4.6 -7.6 4.6 -7.5 4.6 -7.4 4.6 -7.25 4.6 -0.15 4.6 6.75 4.6 7.05 4.6 7.3 4.6 7.45 4.6 7.55 4.6 11.05 4.55 14.3 4.55 16.15 4.55 17.95 4.3 19.45 3.3 20.6 1.9 22.05 0 22.05 -1.9 22.05 -3.35 20.6 -4.35 19.45 -4.6 17.95 -4.6 16.15 -4.65 14.3 -4.65 11.05 -4.65 7.55 -4.65 7.45 -4.65 7.3 -4.65 7.05 -4.65 6.75 -4.65 -0.15 -4.65 -7.25
L -4.65 -7.5
Q -4.65 -7.6 -4.65 -7.7 -4.65 -7.8 -4.65 -7.95 -4.65 -10.45 -4.65 -12.8 -4.65 -13.55 -4.65 -14.25 -4.6 -16.1 -4.6 -17.9 -4.494921875 -18.5298828125 -4.25 -19.1 -3.930078125 -19.8828125 -3.35 -20.55 -2.8873046875 -21.0126953125 -2.375 -21.325"/>

<path id="Characters_Character1_Skin1_Arm_0_Layer1_0_2_STROKES" stroke="#FFE5E5" stroke-width="1" stroke-linejoin="round" stroke-linecap="round" fill="none" d="
M 2.5 -15.65
L 2.5 15.25"/>

<path id="Characters_Character1_Skin1_Hand_0_Layer1_0_1_STROKES" stroke="#000000" stroke-width="1.25" stroke-linejoin="round" stroke-linecap="round" fill="none" d="
M -8.8 5.95
Q -7.25 8.95 -4.6 8.9 -1.95 8.8 -0.55 8.8 4.25 8.8 7.15 5.9 10.25 2.85 10.25 -2.55
L 10 -6.4
Q 9.7849609375 -6.662890625 9.55 -6.9
M 1.05 -6.65
Q 1.0345703125 -6.6244140625 1.025 -6.6 0.5572265625 -5.8845703125 -0.65 -5.45 -1.4 -5 -1.75 -4.2 -2.2 -3 -2.15 -1.25 -2.95 -0.8 -4.65 -0.8 -6.65 -0.8 -7.95 -1.5 -9.25 -2.2 -9.65 -2.2 -10.3 -2.2 -10.3 -0.95 -10.3 -0.15 -9.65 0.45 -9 1.05 -7.7 1.45 -6.95 1.65 -3.95 2.15
M -9.65 2.65
Q -10.15 4.2 -9 5.8 -8.9 5.85 -8.8 5.95 -7.65 6.6 -6.05 6.75 -3.7 6.9 -3.45 6.95
M -9.65 2.65
Q -9 3.7 -7.6 4.15 -7.4 4.2 -3.95 4.75
M -9.65 0.45
L -9.95 1.75
Q -9.85 2.25 -9.65 2.65"/>

<path id="Characters_Character1_Skin1_Hand_0_Layer1_0_2_STROKES" stroke="#FFE5E5" stroke-width="1" stroke-linejoin="round" stroke-linecap="round" fill="none" d="
M 8.35 -4.1
L 8.35 -3.25
Q 7.75 0.55 5.65 2.9 4.15 4.6 0.75 6.5 0.75 4.45 0.6 3.35 0.4 2 0.25 0.75"/>

<path id="Characters_Character1_Skin1_Thigh_0_Layer1_0_1_STROKES" stroke="#000000" stroke-width="1.25" stroke-linejoin="round" stroke-linecap="round" fill="none" d="
M -6.5 -30.375
Q -7.6748046875 -28.5166015625 -8 -26.2 -7.9 -22.85 -7.9 -19.55 -7.9 -18.4 -7.8 -17 -7.75 -13 -7.6 -8.7 -7.6 -8.55 -7.6 -8.3
L -7.6 -7.55
M 7.775 -20.525
Q 7.7365234375 -20.03203125 7.7 -19.55 7.8 -18.4 7.8 -17 7.7 -13 7.6 -8.7 7.6 -8.55 7.6 -8.3 7.6 -8.2 7.55 -8
L 7.5 -7.95 7.5 -7.9
Q 7.6 -7.75 7.5 -7.55 7.3 3.7 7 13.85 7 14.3 6.95 14.7
L 6.95 14.775
Q 6.9943359375 14.866796875 6.95 15 6.85 19.75 6.65 24.2 6.6 26.65 6.5 28.95 6.15 30.8 4.65 32.3 2.65 34.05 0 34.05 -2.6 34.05 -4.8 32.3 -6.2 30.8 -6.6 28.95 -6.6 26.65 -6.85 24.2 -6.8880859375 20.812109375 -6.975 17.25 -7.0142578125 16.13359375 -7.05 15
L -7.05 14.7
Q -7.05 14.3 -7.05 13.85 -7.3 3.7 -7.6 -7.55"/>

<path id="Characters_Character1_Skin1_Leg_0_Layer1_0_1_STROKES" stroke="#000000" stroke-width="1.25" stroke-linejoin="round" stroke-linecap="round" fill="none" d="
M 4.725 20.325
Q 5.13046875 12.5146484375 5.5 3.6 5.55 3.05 5.5 2.6 5.6 2.45 5.55 2.2 5.9 -4 6.1 -10.9 6.35 -15.05 6.45 -19.2 6.35 -23 4.95 -26 2.95 -30.05 0.05 -29.95 -0.4490234375 -29.9677734375 -0.925 -29.85
M -6.375 -20.1
Q -6.4255859375 -19.662109375 -6.45 -19.2
M 4.725 20.325
Q 4.6859375 20.938671875 4.65 21.55
L 4.65 21.6 3.25 21.6 3.175 23.2 3.05 26.2
Q 0.4693359375 31.3615234375 -1.55 29.45 -2.5427734375 28.50390625 -3.4 25.85
L -3.7 21.7 -3.7 21.6 -4.6 21.6 -4.6 21.55
Q -4.9513671875 13.22109375 -5.4 3.6 -5.45 3.05 -5.55 2.6
L -5.55 2.2
Q -5.8 -4 -6.15 -10.9 -6.2 -15.05 -6.45 -19.2
M 3.25 21.6
L -3.7 21.6"/>

<path id="Characters_Character1_Skin1_Feet_0_Layer1_0_1_STROKES" stroke="#000000" stroke-width="1.25" stroke-linejoin="round" stroke-linecap="round" fill="none" d="
M 11.425 3.35
Q 11.725390625 1.77578125 10.75 0.15 6.35 -1.7 -3.2 -5.4
L -7.35 -5.4 -11.45 -5.4 -11.45 5.45 10.75 5
Q 11.274609375 4.1783203125 11.425 3.35 Z"/>

<path id="Vehicles_VehicleBike_Bicycle_WheelFront_0_Layer0_0_1_STROKES" stroke="#000000" stroke-width="1.25" stroke-linejoin="round" stroke-linecap="round" fill="none" d="
M 96.8 40.7
Q 97.5 43.3 97.85 46.05 98.25 49.2 98.25 52.5 98.25 58.5 96.85 64 95.95 67.75 94.35 71.25 92.65 75.1 90.1 78.65 89.6 79.35 89.05 80.05 87.2 82.5 84.9 84.8 82.95 86.75 80.85 88.45 78.85 90.1 76.65 91.45 69.2 96.2 60.35 97.65 59.05 97.85 57.7 98 55.15 98.25 52.5 98.25 46.7 98.25 41.45 97 39.2 96.45 37.05 95.7 31.15 93.55 25.9 89.7 25.8 89.6 25.7 89.55 22.9 87.4 20.3 84.8 18 82.55 16.1 80.1 14.35 77.9 12.95 75.55 8.8 68.7 7.45 60.75 6.8 56.95 6.75 52.9 6.75 52.7 6.75 52.5 6.75 46.8 7.95 41.65 10 32.9 15.5 25.6 15.7 25.25 15.95 25 17.9 22.45 20.3 20.1 22.45 17.95 24.7 16.2 25.8 15.35 26.9 14.6 30.55 12 34.55 10.3 39.35 8.25 44.65 7.4 48.45 6.75 52.5 6.75 54 6.75 55.45 6.85 58.45 7 61.25 7.5 66.85 8.5 71.9 10.9 73.05 11.4 74.1 12 77.9 14.05 81.3 16.85 83.15 18.35 84.9 20.1 87 22.2 88.75 24.5 90.6 26.75 92.05 29.2 95.3 34.6 96.8 40.7
L 62.95 48.3
Q 63.75 50.25 63.75 52.5 63.75 54.1 63.35 55.6
L 96.85 64
M 102.85 52.5
Q 102.85 31.6 88.15 16.85 73.4 2.15 52.5 2.15 31.6 2.15 16.9 16.85 2.15 31.6 2.15 52.5 2.15 73.4 16.9 88.1 31.6 102.85 52.5 102.85 73.4 102.85 88.15 88.1 102.85 73.4 102.85 52.5 Z
M 108 52.5
Q 108 29.5 91.75 13.25 75.5 -3 52.5 -3 29.5 -3 13.3 13.25 -3 29.5 -3 52.5 -3 75.5 13.3 91.7 29.5 108 52.5 108 75.5 108 91.75 91.7 108 75.5 108 52.5 Z
M 62.95 48.3
Q 62.15 46.25 60.45 44.55 60.15 44.25 59.8 44 59.75 43.9 59.65 43.8 57.85 42.3 55.7 41.7 55.05 41.5 54.35 41.4 54.05 41.35 53.75 41.35 53.15 41.25 52.5 41.25 51.5 41.25 50.55 41.4 48.1 41.8 46.05 43.25 45.85 43.4 45.65 43.55 45.1 44 44.55 44.55 44.05 45.05 43.6 45.6 42 47.6 41.5 50.1 41.25 51.25 41.25 52.5 41.25 52.7 41.25 52.9 41.25 53.05 41.25 53.2 41.35 54.7 41.8 56.1 42.55 58.35 44.25 60.2 44.4 60.35 44.55 60.5 45.55 61.5 46.7 62.2 47.75 62.85 48.9 63.2 50.6 63.75 52.5 63.75 53.5 63.75 54.4 63.6 54.6 63.55 54.8 63.55 56.45 63.2 57.85 62.45 59.25 61.7 60.45 60.5 61.3 59.65 61.95 58.7
L 61.95 58.65
Q 62.9 57.2 63.35 55.6
M 46.9 48.25
Q 45.95 49.5 45.6 51.05 45.45 51.75 45.45 52.55 45.45 52.65 45.45 52.8 45.45 52.9 45.45 52.95 45.5 53.9 45.8 54.8 46.25 56.2 47.35 57.35 47.4 57.4 47.5 57.5 48.15 58.15 48.85 58.55 49.5 59 50.2 59.2 51.3 59.55 52.45 59.55 53.1 59.55 53.65 59.45 53.75 59.4 53.9 59.4 54.9 59.2 55.8 58.75 56.65 58.25 57.4 57.5 57.95 57 58.35 56.4
L 58.35 56.35
Q 58.95 55.45 59.2 54.45 59.45 53.55 59.45 52.55 59.45 51.15 58.95 49.9 58.45 48.65 57.4 47.6 57.25 47.4 57 47.25 57 47.2 56.9 47.1 55.8 46.2 54.45 45.8 54.05 45.7 53.6 45.6 53.45 45.6 53.25 45.6 52.85 45.55 52.45 45.55 51.85 45.55 51.25 45.6 49.75 45.85 48.45 46.8 48.3 46.85 48.2 46.95 47.85 47.25 47.5 47.6 47.2 47.9 46.9 48.25 Z
M 53.75 41.35
L 61.25 7.5
M 74.1 12
L 55.7 41.7
M 50.55 41.4
L 44.65 7.4
M 76.65 91.45
L 57.85 62.45
M 48.9 63.2
L 41.45 97
M 54.4 63.6
L 60.35 97.65
M 43.6 45.6
L 15.5 25.6
M 26.9 14.6
L 45.65 43.55
M 7.95 41.65
L 41.5 50.1
M 41.25 53.2
L 7.45 60.75
M 12.95 75.55
L 41.8 56.1
M 44.25 60.2
L 25.9 89.7
M 59.8 44
L 88.75 24.5
M 61.95 58.65
L 90.1 78.65"/>

<path id="Vehicles_VehicleBike_Bicycle_WheelBack_0_Layer0_0_1_STROKES" stroke="#000000" stroke-width="1.25" stroke-linejoin="round" stroke-linecap="round" fill="none" d="
M 26.900000000000006 14.575
Q 25.792187499999997 15.331640625 24.724999999999994 16.175 22.437109375000006 17.962890625 20.299999999999997 20.1 17.918359374999994 22.4552734375 15.950000000000003 24.975 15.72265625 25.2681640625 15.5 25.575 10.003515625000006 32.8904296875 7.950000000000003 41.65 6.75 46.8208984375 6.75 52.5 6.75 52.7001953125 6.75 52.9 6.781445312499997 56.9556640625 7.450000000000003 60.75 8.823828125000006 68.7017578125 12.950000000000003 75.55 14.366796875000006 77.8873046875 16.099999999999994 80.1 18.0087890625 82.5255859375 20.299999999999997 84.8 22.890625 87.4099609375 25.700000000000003 89.525 25.815820312499994 89.612109375 25.924999999999997 89.7 31.128320312499994 93.5513671875 37.05 95.675 39.1984375 96.4439453125 41.45 96.975 46.7095703125 98.25 52.5 98.25 55.1541015625 98.25 57.7 98 59.0400390625 97.860546875 60.35 97.65 69.2095703125 96.2125 76.675 91.45 78.8357421875 90.07578125 80.875 88.425 82.9515625 86.7556640625 84.9 84.8 87.1865234375 82.4962890625 89.075 80.025 89.6021484375 79.3435546875 90.1 78.65 92.6318359375 75.1109375 94.375 71.25 95.9517578125 67.75234375 96.875 64 98.25 58.5224609375 98.25 52.5 98.25 49.190234375 97.85 46.05 97.4955078125 43.3125 96.825 40.7 95.2837890625 34.5982421875 92.05 29.2 90.5865234375 26.76015625 88.775 24.475 87.0048828125 22.212890625 84.9 20.1 83.1505859375 18.35703125 81.3 16.85 77.8765625 14.0265625 74.125 12 73.0251953125 11.4009765625 71.9 10.875 66.8587890625 8.5224609375 61.25 7.5 58.425390625 6.9955078125 55.45 6.825 53.992578125 6.75 52.5 6.75 48.4490234375 6.75 44.65 7.375 39.353125000000006 8.231640625 34.55 10.3 30.545312499999994 12.0123046875 26.900000000000006 14.575 Z
M 26.900000000000006 14.575
L 51.15 49.8
M 13.299999999999997 91.7
Q 29.5 108 52.5 108 75.5 108 91.75 91.7 108 75.5 108 52.5 108 29.5 91.75 13.25 75.5 -3 52.5 -3 29.5 -3 13.299999999999997 13.25 -3 29.5 -3 52.5 -3 75.5 13.299999999999997 91.7 Z
M 16.900000000000006 88.1
Q 31.599999999999994 102.85 52.5 102.85 73.4 102.85 88.15 88.1 102.85 73.4 102.85 52.5 102.85 31.6 88.15 16.85 73.4 2.15 52.5 2.15 31.599999999999994 2.15 16.900000000000006 16.85 2.1500000000000057 31.6 2.1500000000000057 52.5 2.1500000000000057 73.4 16.900000000000006 88.1 Z
M 51.65 49.4
L 44.65 7.375
M 50.425 50.725
Q 50.3837890625 50.7662109375 50.35 50.8 49.95 51.3 49.8 51.9 49.75 52.2 49.75 52.5 49.75 52.55 49.75 52.6
L 49.75 52.65 12.950000000000003 75.55
M 52.5 49.75
Q 52.25 49.75 52.05 49.8 51.45 49.9 50.95 50.25 50.85 50.25 50.85 50.3 50.7 50.45 50.55 50.55 50.4837890625 50.64921875 50.425 50.725
L 15.5 25.575
M 54.8 54
Q 55.05 53.65 55.15 53.25 55.25 52.9 55.25 52.5 55.25 51.95 55.05 51.45 54.85 51 54.45 50.55 54.35 50.5 54.3 50.45 54.3 50.4 54.25 50.35 54.10546875 50.2375 53.95 50.15
L 88.775 24.475
M 53.95 50.15
Q 53.6392578125 49.9517578125 53.3 49.85 53.1 49.8 52.95 49.8 52.9 49.8 52.8 49.8 52.65 49.75 52.5 49.75
L 61.25 7.5
M 52.5 55.25
Q 52.75 55.25 52.95 55.2 53 55.2 53.05 55.2 53.45 55.1 53.8 54.95
L 76.675 91.45
M 49.75 52.65
Q 49.8 53.05 49.9 53.4 50.05 53.95 50.5 54.4
L 50.55 54.45
Q 50.7583984375 54.6583984375 51 54.8
L 41.45 96.975
M 51 54.8
Q 51.0501953125 54.825 51.1 54.85 51.35 55.05 51.6 55.1 52.05 55.25 52.5 55.25
L 60.35 97.65
M 53.8 54.95
Q 54.15 54.75 54.45 54.45 54.65 54.25 54.8 54
L 90.1 78.65
M 25.924999999999997 89.7
L 49.9 54.2
M 74.125 12
L 53.7 49.3
M 96.825 40.7
L 55.3 51.05
M 96.875 64
L 55.85 52.75
M 7.450000000000003 60.75
L 49.35 52.2
M 7.950000000000003 41.65
L 49.6 51.2"/>

<path id="Vehicles_VehicleBike_Bicycle_Body_0_Layer0_0_1_STROKES" stroke="#000000" stroke-width="1.25" stroke-linejoin="round" stroke-linecap="round" fill="none" d="
M 41.05 1.15
Q 40.816796875 -2.1970703125 35.7 -3.1 30.15 -4.25 24.6 -3.6 18.85 -3.4 13.1 -3.3 7.230078125 -3.2013671875 1.5 -3.2 1.428125 -3.2 1.35 -3.2 -4.4 -2.85 -3.5 2.95 -2.55 9.35 4.35 10.4 8.8 11.3 13.3 10.75 13.65 10.7 14.05 10.65 14.65 10.5 15.25 10.4
L 15.3 10.4
Q 17.05 10 18.75 9.55 19.15 9.45 19.55 9.35 19.7 9.3 19.85 9.25 22.85 8.45 25.75 7.5 31.4 5.65 37.3 5.05 38.7 5.05 40.1 5.05 41.176171875 2.7982421875 41.05 1.15 Z
M 115.45 -41.8
Q 115.3 -42.4 115 -42.9 114.6 -43.7 113.95 -44.35 112.25 -46.05 109.85 -46.05 107.65 -46.05 106 -44.6 107.3 -44.4 108.3 -43.4 109.6 -42.1 109.6 -40.25 109.6 -38.45 108.3 -37.15 107.3 -36.15 106 -35.9 107.6 -34.45 109.85 -34.45 110 -34.45 110.2 -34.45 112.35 -34.55 113.95 -36.15 115.65 -37.85 115.65 -40.25 115.65 -41.1 115.45 -41.8 Z
M 117.65 -42.3
L 115 -42.9
M 107.8 -9.1
L 105.8 -14.2 115.05 -31.85 118.3 -33.8 119.55 -38.45 117.65 -42.3
M 106 -35.9
Q 105.6 -35.85 105.15 -35.85 103.3 -35.85 102 -37.15 100.7 -38.45 100.7 -40.25 100.7 -42.1 102 -43.4 103.3 -44.7 105.15 -44.7 105.6 -44.7 106 -44.6
M 110.2 -34.45
L 102.05 -21.35 100.55 -22.45 97.2 -20.85 102.7 -5.9 108.1 -8.4 108.9 -8.8 120.9 19.7 123.65 30.7 133.9 60.7
Q 140.25 73.4 149.9 85.2 150.35 87.75 147.9 87.45 137.35 75.8 129.65 63.2
L 119.15 32.45 113.55 22.5 111.35 17.7
Q 111.15 17.2 110.9 16.7
L 54.4 96.7
Q 48.6 101.7 43.15 99.7
L -27.2 88.55 -27.4 88.55
Q -28.45 89.4 -29.8 89.4 -31.35 89.4 -32.45 88.3 -33.55 87.2 -33.55 85.65 -33.55 84.1 -32.45 83 -31.35 81.9 -29.8 81.9 -29.2 81.9 -28.65 82.1
L -28.35 81.8 20.75 34 18.9 28.25 18.9 28.2
M 18.55 28.35
L 16.9 28.3 16.2 25.1 18.35 24.45 14.05 10.65
M 25.2 26.4
L 26.15 29.6 102.9 -1.3 101.15 -5.2 102.7 -5.9
M 113.55 22.5
L 120.3 20.05
M 102.9 -1.3
L 105.55 4.65 108.65 11.65 110.9 16.7
M 108.65 11.65
L 101.35 21.95 52.65 90.7
Q 49.05 94.05 45.15 92.2
L 27.65 34.45 26.15 29.6
M 101.35 21.95
L 99.9 19.65 102.15 13.3 100.65 10.65 94.9 11.8 92.9 9.5 27.65 34.45
M 92.9 9.5
L 105.55 4.65
M 123.65 30.7
L 119.15 32.45
M 22.8 23
L 25.6 22.1 26.55 25.45 25.25 26.35 25.2 26.4 25.15 26.2 18.9 28.2
M 22.4 39.25
L 20.75 34
M 18.75 9.55
L 22.8 23 18.35 24.45
M -25.95 84.9
L 39.9 94.45 22.4 39.25 -26.4 84.05
Q -26.2 84.45 -26.15 84.85
L -25.95 84.9 -26.05 85.65
Q -26.05 87.2 -27.15 88.3
L -27.2 88.55
M -26.4 84.05
Q -26.65 83.5 -27.15 83
L -27.2 82.95
Q -27.85 82.35 -28.65 82.1
M -26.05 85.65
Q -26.05 85.25 -26.15 84.85
M -27.15 88.3
Q -27.25 88.4 -27.4 88.55"/>

<path id="Vehicles_VehicleBike_Bicycle_Body_0_Layer0_0_2_STROKES" stroke="#FFCCCC" stroke-width="1.25" stroke-linejoin="round" stroke-linecap="round" fill="none" d="
M 102.6 -4.45
L 107.95 -6.8
M 17.85 25.55
L 24.6 23.45
M 52.85 92.3
Q 49.225 94.969140625 45.6 93.7
M 108.35 14.2
L 53.6 91.55
M 101.75 0.45
L 28.1 30.05
M 20 36.45
L -22 77.45"/>

<path id="Vehicles_VehicleBike_Bicycle_Body_0_Layer0_0_3_STROKES" stroke="#FFFFFF" stroke-width="1.25" stroke-linejoin="round" stroke-linecap="round" fill="none" d="
M 98.6 -20.45
L 102.75 -8.55
M 111 -33.2
L 102.85 -20.45"/>

<path id="Vehicles_VehicleBike_Bicycle_Pedals_0_Layer0_0_1_STROKES" stroke="#000000" stroke-width="1.25" stroke-linejoin="round" stroke-linecap="round" fill="none" d="
M 52.5 36.9
Q 51.1 36.9 49.8 37.1 46.4 37.65 43.55 39.65 43.3 39.9 43 40.1 42.25 40.7 41.5 41.5 40.8 42.15 40.150000000000006 42.95 37.95 45.7 37.25 49.15 36.900000000000006 50.75 36.900000000000006 52.5 36.900000000000006 52.8 36.900000000000006 53.05 36.900000000000006 53.25 36.900000000000006 53.45 37.05 55.55 37.650000000000006 57.5 38.7 60.6 41.05 63.2 41.25 63.4 41.5 63.6 42.85 65 44.45 65.95 45.9 66.85 47.5 67.35 49.85 68.1 52.5 68.1 53.9 68.1 55.15 67.9 55.4 67.8 55.7 67.8 58 67.35 59.9 66.3 61.85 65.25 63.5 63.6 64.7 62.4 65.6 61.1
L 65.6 61.05
Q 66.9 59 67.55 56.8 68.1 54.7 68.1 52.5 68.1 49.4 67 46.7 65.9 43.85 63.5 41.5 63.1 41.05 62.6 40.7 62.55 40.55 62.4 40.45 59.9 38.35 56.95 37.5 56.05 37.25 55.05 37.1 54.65 37.05 54.25 37.05 53.4 36.9 52.5 36.9 Z
M 55.775 49.1
Q 59.694921875 49.842578125 63.275 49.05 63.1546875 48.6462890625 63 48.25 62.15 46.2 60.5 44.5 60.25 44.25 59.85 43.95 59.85 43.9 59.65 43.7 57.9 42.25 55.7 41.6 55.05 41.4 54.35 41.3 54.059765625 41.3 53.775 41.3 53.556640625 44.6857421875 55.325 48.9 55.3658203125 48.920703125 55.4 48.95 55.5 49 55.5 49.05 55.65 49.15 55.75 49.25
M 55.5 49.05
Q 55.6373046875 49.077734375 55.775 49.1
M 49.75 48.725
Q 51.1935546875 45.0751953125 51.125 41.25 50.7814453125 41.266796875 50.45 41.3 48.05 41.7 45.95 43.25 45.75 43.3 45.55 43.45 44.95 43.95 44.4 44.5 43.9 45 43.45 45.6 42.219921875 47.1375 41.65 49 45.412890625 50.109765625 49.175 49.075
M 49.2 49.25
Q 49.31640625 49.13359375 49.45 49 49.5455078125 48.9044921875 49.65 48.8 49.6958984375 48.776953125 49.725 48.775 49.773046875 48.75 49.8 48.75
M 49.725 48.775
Q 49.7353515625 48.74921875 49.75 48.725
M 49.175 49.075
Q 49.312890625 49.0404296875 49.45 49
M 47.7 53.05
Q 44.3220703125 51.3634765625 41.125 51.35 41.05 51.9216796875 41.05 52.55 41.05 52.7 41.05 52.95 41.05 53.1 41.05 53.2 41.15 54.75 41.65 56.2 42.4 58.5 44.15 60.4 44.25 60.45 44.4 60.6 44.4912109375 60.6912109375 44.575 60.775 47.4486328125 57.957421875 48.375 54.75 48.1703125 54.38125 48.05 54 47.896484375 53.5775390625 47.825 53.1 47.764453125 53.06953125 47.7 53.05 Z
M 51 56.95
Q 51.7 57.2 52.45 57.2 52.9 57.2 53.25 57.1 53.3 57.05 53.4 57.05 53.656640625 57.01328125 53.9 56.95 56.5037109375 59.8 57.8 62.65 56.3892578125 63.3611328125 54.8 63.65 54.55 63.65 54.4 63.75 53.5 63.95 52.45 63.95 50.6 63.95 48.8 63.35 47.65 63 46.6 62.3
L 46.55 62.275
Q 47.9501953125 59.364453125 50.65 56.825 50.81796875 56.8953125 51 56.95 Z
M 56.575 55
Q 57.39375 58.18671875 59.625 61.375 60.0677734375 61.01484375 60.5 60.6 61.35 59.8 62 58.8 63 57.3 63.4 55.65 63.8 54.2 63.8 52.55 63.8 51.8861328125 63.725 51.25 60.26171875 50.850390625 57.125 52.625
M 57.1 52.55
Q 57.1 52.6001953125 57.1 52.65 57.0884765625 53.2462890625 56.95 53.8 56.79921875 54.290234375 56.525 54.775 56.4482421875 54.940234375 56.35 55.1
M 56.525 54.775
Q 56.5517578125 54.88671875 56.575 55
M 57.125 52.625
Q 57.11484375 52.6416015625 57.1 52.65"/>

<path id="Characters_Character1_Skin1_Belly_0_Layer2_0_1_STROKES" stroke="#000000" stroke-width="1.25" stroke-linejoin="round" stroke-linecap="round" fill="none" d="
M 10.15 41.7
Q 9.1 42.05 8.25 42.15 6.8 42.45 5.8 42.45 4.45 42.45 0.35 41.7 -3.5 40.4 -6.8 41.1 -6.7515625 41.1 -6.65 41.1 -6.7515625 41.103125 -6.8 41.2
L -6.8 41.1
Q -7.6 41.1 -9.75 41.4 -12.75 41.7 -13.2 41.95"/>

<path id="Characters_Character1_Skin1_Belly_0_Layer2_0_2_STROKES" stroke="#000000" stroke-width="1" stroke-linejoin="round" stroke-linecap="round" fill="none" d="
M -18.35 43.3
Q -18.8 41.6 -17.85 39.7 0.15 36.95 18.1 39.8 18.95 41.35 18.8 42.75 18.8 42.95 18.8 43.25
L 18.05 53.3
Q 17.75 54.4 17.25 55.5 16.1 57.25 14.45 58.85 8.55 64.65 0.15 64.65 -8.2 64.65 -14.15 58.85 -15.75 57.25 -16.95 55.5 -17.35 54.4 -17.8 53.3
L -18.35 43.3
Q -0.75 47.5 18.75 43.3
L 18.8 43.25"/>

<path id="Characters_Character1_Skin1_Belly_0_Layer1_0_1_STROKES" stroke="#000000" stroke-width="1.25" stroke-linejoin="round" stroke-linecap="round" fill="none" d="
M -4.75 24.7
L -3.9 24.7 -3.9 21.45 -13.2 21.45 -13.2 24.7 -12.45 24.7 -4.75 24.7 -4.75 30.85 -12.45 30.85 -12.45 24.7
M -4.75 34.35
L -3.9 34.35 -3.9 31.1 -13.2 31.1 -13.2 34.35 -12.45 34.35 -4.75 34.35 -4.75 40.4 -12.45 41.2 -12.45 34.35"/>

<path id="Characters_Character1_Skin1_Core_0_Layer2_0_1_STROKES" stroke="#000000" stroke-width="1.25" stroke-linejoin="round" stroke-linecap="round" fill="none" d="
M -4.35 -55.1
L -4.35 -56.25
Q 1.1 -59.95 6.2 -56.25
L 6.2 -55.15 6.2 -48.25
M -4.45 -49.25
L -4.35 -55.1
Q 1.1 -51.45 6.2 -55.15
M 6.2 -48.25
L 6.2 -48.15
Q 7.7 -46.85 7.7 -45.15 7.7 -43.55 6.4 -42.3 6.05 -41.95 5.6 -41.65 5.1533203125 -41.348828125 4.675 -41.1 2.8267578125 -40.2 0.45 -40.2 -2.45625 -40.2 -4.525 -41.55
M 6.2 -48.15
L 6.2 -48.1
Q 6.05 -46.3 4.7 -44.95 3.1 -43.35 0.9 -43.35 -1.3 -43.35 -2.85 -44.95 -4.25 -46.3 -4.45 -48.1
L -4.45 -48.75
Q -4.55 -48.65 -4.65 -48.6 -6.8 -47.15 -6.8 -45.15 -6.8 -43.1 -4.65 -41.65 -4.584375 -41.6046875 -4.525 -41.55
M 4.9 -40.7
Q 7.65 -36.05 7.15 -31.2
M -4.45 -48.75
L -4.45 -49.25"/>

<path id="Characters_Character1_Skin1_Core_0_Layer2_0_2_STROKES" stroke="#000000" stroke-width="1" stroke-linejoin="round" stroke-linecap="round" fill="none" d="
M 6.2 -48.25
Q 10.15 -45.95 13.4 -40.45 17.75 -32.85 18.65 -22.75 18.95 4.55 18.95 33.85 18.95 39.95 18.95 45.5
L -8.5 45.5 -19 45.5
Q -19 39.95 -19 33.85 -19 4.55 -18.8 -22.75 -17.85 -32.85 -13.45 -40.45 -11.069140625 -44.6013671875 -8.25 -46.975 -6.4365234375 -48.4708984375 -4.45 -49.25"/>

<path id="Characters_Character1_Skin1_Core_0_Layer2_0_3_STROKES" stroke="#FFE5E5" stroke-width="1" stroke-linejoin="round" stroke-linecap="round" fill="none" d="
M 4 -47.85
L 4 -50.75"/>

<path id="Characters_Character1_Skin1_Head_Idle_0_Layer2_0_1_STROKES" stroke="#000000" stroke-width="1.25" stroke-linejoin="round" stroke-linecap="round" fill="none" d="
M 26.55 -15.2
Q 27.7 -14.9 28.85 -14.55 33.2 -20 24.45 -26.7 15.75 -33.45 0.7 -33.3 -14.3 -33.2 -23.9 -23.65 -33.45 -14.05 -33.45 -0.55 -33.45 13 -23.9 22.6 -15.95 30.5 -5.35 31.9 -11.7 29.8 -16.85 24.65 -21 20.5 -23.2 15.5 -23.55 15.55 -24.1 15.55 -25.45 15.55 -26.3 14.95 -27.15 14.4 -27.7 13.15 -28.5 11.35 -28.85 10.45 -29.45 8.85 -29.45 7.85 -29.45 5.95 -28.95 5.05 -28.2 3.65 -26.15 3.65 -25.85 3.65 -25.5 3.7 -24.3 3.85 -22.95 4.55 -21.5 5 -21 6.55 -20.7 7.4 -20.35 8.9 -18.75 8.25 -18.1 7.95 -16.95 7.5 -16.95 7.1 -16.95 6.85 -17.3 6 -17.6 5.1 -17.6 4.45 -17.6 2.8 -16.05 2.1 -14.45 1.4 -14.45 0.95 -16.1 -4.8 -13.05 -9.95 -9.9 -15.3 -3.65 -16.1 -0.45 -16.55 2.75 -16.85
L 14.55 -16.6
Q 20.7 -16.75 26.55 -15.2 33.5 -7.15 33.5 3.8 33.5 16 24.85 24.65 16.2 33.3 4 33.3 -0.95 33.3 -5.35 31.9
M 0.95 -2.55
Q -0.1 -1.5 -0.1 0 -0.1 1.5 0.95 2.55 2 3.6 3.5 3.6 5 3.6 6.05 2.55 7.1 1.5 7.1 0 7.1 -1.5 6.05 -2.55 5 -3.6 3.5 -3.6 2 -3.6 0.95 -2.55 Z
M 24.65 -2.55
Q 23.6 -1.5 23.6 0 23.6 1.5 24.65 2.55 25.7 3.6 27.2 3.6 28.7 3.6 29.75 2.55 30.8 1.5 30.8 0 30.8 -1.5 29.75 -2.55 28.7 -3.6 27.2 -3.6 25.7 -3.6 24.65 -2.55 Z
M 20.5 21.925
Q 20.9525390625 21.775 22.5 21.55
M 16.8 8.3
L 16.8 8.8
Q 17.65 10.55 19.4 11.95 20.65 12.95 20.65 14.6 20.65 15.45 19.9 16.05 19.15 16.65 18.05 16.65 17.2 16.65 16.15 16.15 15.1 15.65 13.65 15.65
M 13.1 29.6
Q 11.65 30.35 9.9 29.95 9.6 29.75 9.25 29.55
M 1.95 20.7
Q 12.9318359375 24.4234375 20.5 21.925 10.2548828125 33.2728515625 1.95 20.7 Z
M -23.2 15.5
Q -22.25 15.4 -21.95 15.05 -21.8 14.85 -21.2 14.45 -20.95 14.3 -20.85 13.4"/>

<path id="Characters_Character1_Skin1_Head_Idle_0_Layer1_0_1_STROKES" stroke="#000000" stroke-width="1.25" stroke-linejoin="round" stroke-linecap="round" fill="none" d="
M -26.1 9.65
Q -26.1 9 -25.7 8.55 -25.25 8.1 -24.65 8.1 -24.05 8.1 -23.65 8.55 -23.2 9 -23.2 9.65 -23.2 10.3 -23.65 10.75 -24.05 11.2 -24.65 11.2 -25.25 11.2 -25.7 10.75 -26.1 10.3 -26.1 9.65 Z"/>

<path id="Characters_Character1_Skin1_Eye_0_Layer2_0_1_STROKES" stroke="#000000" stroke-width="1.25" stroke-linejoin="round" stroke-linecap="round" fill="none" d="
M 11.6 -2.5
L 3.65 -2.5
M 0.4 5.1
Q 1 3.5 2.25 2.25 4.5 0 7.7 0 10.9 0 13.15 2.25 14.5 3.6 15 5.25 15.4 6.4 15.4 7.7 15.4 10.9 13.15 13.15 10.9 15.4 7.7 15.4 4.5 15.4 2.25 13.15 0 10.9 0 7.7 0 6.3 0.4 5.1
L 15 5.25"/>
</defs>

<g transform="matrix( 1.0014190673828125, 0, 0, 0.9987030029296875, 0,12.35) ">
<g transform="matrix( 0.9819793701171875, 0, 0, 0.975128173828125, 0,-2.5) ">
<use xlink:href="#SinglePlayer_Icon_0_Layer2_0_FILL"/>
</g>

<g transform="matrix( 1, 0, 0, 1, 0,0) ">
<use xlink:href="#SinglePlayer_Icon_0_Layer1_0_FILL"/>

<use xlink:href="#SinglePlayer_Icon_0_Layer1_0_1_STROKES"/>
</g>

<g transform="matrix( 0.410064697265625, -0.06097412109375, 0.06097412109375, 0.410064697265625, 26.25,66.25) ">
<g transform="matrix( 0.997314453125, 0.073211669921875, -0.073211669921875, 0.997314453125, 158.75,-27.7) ">
<g transform="matrix( 1, 0, 0, 1, 0,0) ">
<use filter="url(#Filter_1)" xlink:href="#Characters_Character1_Skin1_Shoulder_0_Layer1_0_FILL"/>

<use filter="url(#Filter_1)" xlink:href="#Characters_Character1_Skin1_Shoulder_0_Layer1_0_1_STROKES"/>

<use filter="url(#Filter_1)" xlink:href="#Characters_Character1_Skin1_Shoulder_0_Layer1_0_2_STROKES"/>
</g>

<g transform="matrix( 0.252227783203125, 0, 0, 0.644317626953125, -0.05,0) ">
<g transform="matrix( 1, 0, 0, 1, 0,0) ">
<use filter="url(#Filter_2)" xlink:href="#TransparentBox_0_Layer0_0_FILL"/>
</g>
</g>
</g>

<g transform="matrix( -0.0120086669921875, -0.999908447265625, 0.999908447265625, -0.0120086669921875, 177.5,-3.55) ">
<g transform="matrix( 1, 0, 0, 1, 0,0) ">
<use filter="url(#Filter_1)" xlink:href="#Characters_Character1_Skin1_Arm_0_Layer1_0_FILL"/>

<use filter="url(#Filter_1)" xlink:href="#Characters_Character1_Skin1_Arm_0_Layer1_0_1_STROKES"/>

<use filter="url(#Filter_1)" xlink:href="#Characters_Character1_Skin1_Arm_0_Layer1_0_2_STROKES"/>
</g>

<g transform="matrix( 0.2217254638671875, 0, 0, 0.524658203125, 0,0) ">
<g transform="matrix( 1, 0, 0, 1, 0,0) ">
<use filter="url(#Filter_2)" xlink:href="#TransparentBox_0_Layer0_0_FILL"/>
</g>
</g>
</g>

<g transform="matrix( -0.0120086669921875, -0.999908447265625, 0.999908447265625, -0.0120086669921875, 204.55,1.6) ">
<g transform="matrix( 1, 0, 0, 1, 0,0) ">
<use filter="url(#Filter_1)" xlink:href="#Characters_Character1_Skin1_Hand_0_Layer1_0_FILL"/>

<use filter="url(#Filter_1)" xlink:href="#Characters_Character1_Skin1_Hand_0_Layer1_0_1_STROKES"/>

<use filter="url(#Filter_1)" xlink:href="#Characters_Character1_Skin1_Hand_0_Layer1_0_2_STROKES"/>
</g>

<g transform="matrix( 0.28302001953125, 0, 0, 0.36834716796875, -0.05,0) ">
<g transform="matrix( 1, 0, 0, 1, 0,0) ">
<use filter="url(#Filter_2)" xlink:href="#TransparentBox_0_Layer0_0_FILL"/>
</g>
</g>
</g>

<g transform="matrix( 0.9842071533203125, -0.1769256591796875, 0.1769256591796875, 0.9842071533203125, 132.3,61.9) ">
<g transform="matrix( 1, 0, 0, 1, 0,0) ">
<use filter="url(#Filter_1)" xlink:href="#Characters_Character1_Skin1_Thigh_0_Layer1_0_FILL"/>

<use filter="url(#Filter_1)" xlink:href="#Characters_Character1_Skin1_Thigh_0_Layer1_0_1_STROKES"/>
</g>

<g transform="matrix( 0.3326263427734375, 0, 0, 0.80950927734375, 0,0) ">
<g transform="matrix( 1, 0, 0, 1, 0,0) ">
<use filter="url(#Filter_2)" xlink:href="#TransparentBox_0_Layer0_0_FILL"/>
</g>
</g>
</g>

<g transform="matrix( 0.86602783203125, 0.4999847412109375, -0.4999847412109375, 0.86602783203125, 128.35,112.65) ">
<g transform="matrix( 1, 0, 0, 1, 0,0) ">
<use filter="url(#Filter_1)" xlink:href="#Characters_Character1_Skin1_Leg_0_Layer1_0_FILL"/>

<use filter="url(#Filter_1)" xlink:href="#Characters_Character1_Skin1_Leg_0_Layer1_0_1_STROKES"/>
</g>

<g transform="matrix( 0.3018035888671875, 0, 0, 0.66302490234375, 0,0) ">
<g transform="matrix( 1, 0, 0, 1, 0,0) ">
<use filter="url(#Filter_2)" xlink:href="#TransparentBox_0_Layer0_0_FILL"/>
</g>
</g>
</g>

<g transform="matrix( 0.86602783203125, 0.499969482421875, -0.499969482421875, 0.86602783203125, 119.95,144.05) ">
<g transform="matrix( 1, 0, 0, 1, 0,0) ">
<use filter="url(#Filter_1)" xlink:href="#Characters_Character1_Skin1_Feet_0_Layer1_0_FILL"/>

<use filter="url(#Filter_1)" xlink:href="#Characters_Character1_Skin1_Feet_0_Layer1_0_1_STROKES"/>
</g>

<g transform="matrix( 0.406494140625, 0, 0, 0.193359375, 0,0) ">
<g transform="matrix( 1, 0, 0, 1, 0,0) ">
<use filter="url(#Filter_2)" xlink:href="#TransparentBox_0_Layer0_0_FILL"/>
</g>
</g>
</g>

<g transform="matrix( 1, 0, 0, 1, 182.45,79.55) ">
<g transform="matrix( 1, 0, 0, 1, 0,0) ">
<use xlink:href="#Vehicles_VehicleBike_Bicycle_WheelFront_0_Layer0_0_FILL"/>

<use xlink:href="#Vehicles_VehicleBike_Bicycle_WheelFront_0_Layer0_0_1_STROKES"/>
</g>
</g>

<g transform="matrix( 1, 0, 0, 1, 3,79.55) ">
<g transform="matrix( -1, 0, 0, 1, 105,0) ">
<use xlink:href="#Vehicles_VehicleBike_Bicycle_WheelBack_0_Layer0_0_FILL"/>

<use xlink:href="#Vehicles_VehicleBike_Bicycle_WheelBack_0_Layer0_0_1_STROKES" transform="matrix( -1, 0, 0, 1, 105,0) "/>
</g>
</g>

<g transform="matrix( 1, 0, 0, 1, 88,46.05) ">
<g transform="matrix( 1, 0, 0, 1, 0,0) ">
<use xlink:href="#Vehicles_VehicleBike_Bicycle_Body_0_Layer0_0_FILL"/>

<use xlink:href="#Vehicles_VehicleBike_Bicycle_Body_0_Layer0_0_1_STROKES"/>

<use xlink:href="#Vehicles_VehicleBike_Bicycle_Body_0_Layer0_0_2_STROKES"/>

<use xlink:href="#Vehicles_VehicleBike_Bicycle_Body_0_Layer0_0_3_STROKES"/>
</g>
</g>

<g transform="matrix( 1, 0, 0, 1, 84.45,90) ">
<g transform="matrix( -1, 0, 0, 1, 105,0) ">
<use xlink:href="#Vehicles_VehicleBike_Bicycle_Pedals_0_Layer0_0_FILL"/>

<use xlink:href="#Vehicles_VehicleBike_Bicycle_Pedals_0_Layer0_0_1_STROKES" transform="matrix( -1, 0, 0, 1, 105,0) "/>
</g>
</g>

<g transform="matrix( 0.9471588134765625, 0.3207550048828125, -0.3207550048828125, 0.9471588134765625, 144.25,-16.9) ">
<g transform="matrix( 1, 0, 0, 1, 0,0) ">
<use xlink:href="#Characters_Character1_Skin1_Belly_0_Layer2_0_FILL"/>

<use xlink:href="#Characters_Character1_Skin1_Belly_0_Layer2_0_1_STROKES"/>

<use xlink:href="#Characters_Character1_Skin1_Belly_0_Layer2_0_2_STROKES"/>
</g>

<g transform="matrix( 1, 0, 0, 1, 0,0) ">
<use xlink:href="#Characters_Character1_Skin1_Belly_0_Layer1_0_FILL"/>

<use xlink:href="#Characters_Character1_Skin1_Belly_0_Layer1_0_1_STROKES"/>
</g>

<g transform="matrix( 0.8389739990234375, 0, 0, 0.43511962890625, -0.1,42.9) ">
<g transform="matrix( 1, 0, 0, 1, 0,0) ">
<use filter="url(#Filter_3)" xlink:href="#TransparentBox_0_Layer0_0_FILL"/>
</g>
</g>
</g>

<g transform="matrix( 0.9471588134765625, 0.3207550048828125, -0.3207550048828125, 0.9471588134765625, 144.25,-17) ">
<g transform="matrix( 1, 0, 0, 1, 0,0) ">
<use xlink:href="#Characters_Character1_Skin1_Core_0_Layer2_0_FILL"/>

<use xlink:href="#Characters_Character1_Skin1_Core_0_Layer2_0_1_STROKES"/>

<use xlink:href="#Characters_Character1_Skin1_Core_0_Layer2_0_2_STROKES"/>

<use xlink:href="#Characters_Character1_Skin1_Core_0_Layer2_0_3_STROKES"/>
</g>

<g transform="matrix( 1, 0, 0, 1, 0,-8.8) ">
<g transform="matrix( 1, 0, 0, 1, 0,0) ">
<use filter="url(#Filter_3)" xlink:href="#TransparentBox_0_Layer0_0_FILL"/>
</g>
</g>
</g>

<g transform="matrix( 0.997894287109375, 0.064697265625, -0.064697265625, 0.997894287109375, 170.35,-97.9) ">
<g transform="matrix( 1, 0, 0, 1, 0,0) ">
<use xlink:href="#Characters_Character1_Skin1_Head_Idle_0_Layer2_0_FILL"/>

<use xlink:href="#Characters_Character1_Skin1_Head_Idle_0_Layer2_0_1_STROKES"/>
</g>

<g transform="matrix( 1, 0, 0, 1, 0,0) ">
<use xlink:href="#Characters_Character1_Skin1_Head_Idle_0_Layer1_0_FILL"/>

<use xlink:href="#Characters_Character1_Skin1_Head_Idle_0_Layer1_0_1_STROKES"/>
</g>

<g transform="matrix( 0.59124755859375, 0, 0, 0.8839111328125, 0,0) ">
<g transform="matrix( 1, 0, 0, 1, 0,0) ">
<use filter="url(#Filter_3)" xlink:href="#TransparentBox_0_Layer0_0_FILL"/>
</g>
</g>
</g>

<g transform="matrix( 0.997894287109375, 0.064697265625, -0.064697265625, 0.997894287109375, 166,-106.75) ">
<g transform="matrix( 1, 0, 0, 1, 0,0) ">
<use xlink:href="#Characters_Character1_Skin1_Eye_0_Layer2_0_FILL"/>

<use xlink:href="#Characters_Character1_Skin1_Eye_0_Layer2_0_1_STROKES"/>
</g>

<g transform="matrix( 1, 0, 0, 1, 0,0) ">
<use xlink:href="#Characters_Character1_Skin1_Eye_0_Layer1_0_FILL"/>
</g>

<g transform="matrix( 1, 0, 0, 1, 0,0) ">
<use xlink:href="#Characters_Character1_Skin1_Eye_0_Layer0_0_FILL"/>
</g>
</g>

<g transform="matrix( 0.997894287109375, 0.064697265625, -0.064697265625, 0.997894287109375, 188,-105.35) ">
<g transform="matrix( 1, 0, 0, 1, 0,0) ">
<use xlink:href="#Characters_Character1_Skin1_Eye_0_Layer2_0_FILL"/>

<use xlink:href="#Characters_Character1_Skin1_Eye_0_Layer2_0_1_STROKES"/>
</g>

<g transform="matrix( 1, 0, 0, 1, 0,0) ">
<use xlink:href="#Characters_Character1_Skin1_Eye_0_Layer1_0_FILL"/>
</g>

<g transform="matrix( 1, 0, 0, 1, 0,0) ">
<use xlink:href="#Characters_Character1_Skin1_Eye_0_Layer0_0_FILL"/>
</g>
</g>

<g transform="matrix( 0.997314453125, 0.0732574462890625, -0.0732574462890625, 0.997314453125, 141.3,-30.45) ">
<g transform="matrix( 1, 0, 0, 1, 0,0) ">
<use xlink:href="#Characters_Character1_Skin1_Shoulder_0_Layer1_0_FILL"/>

<use xlink:href="#Characters_Character1_Skin1_Shoulder_0_Layer1_0_1_STROKES"/>

<use xlink:href="#Characters_Character1_Skin1_Shoulder_0_Layer1_0_2_STROKES"/>
</g>

<g transform="matrix( 0.252227783203125, 0, 0, 0.644317626953125, -0.05,0) ">
<g transform="matrix( 1, 0, 0, 1, 0,0) ">
<use filter="url(#Filter_3)" xlink:href="#TransparentBox_0_Layer0_0_FILL"/>
</g>
</g>
</g>

<g transform="matrix( 0.763916015625, -0.6453094482421875, 0.6453094482421875, 0.763916015625, 141.45,60.65) ">
<g transform="matrix( 1, 0, 0, 1, 0,0) ">
<use xlink:href="#Characters_Character1_Skin1_Thigh_0_Layer1_0_FILL"/>

<use xlink:href="#Characters_Character1_Skin1_Thigh_0_Layer1_0_1_STROKES"/>
</g>

<g transform="matrix( 0.3326263427734375, 0, 0, 0.80950927734375, 0,0) ">
<g transform="matrix( 1, 0, 0, 1, 0,0) ">
<use filter="url(#Filter_3)" xlink:href="#TransparentBox_0_Layer0_0_FILL"/>
</g>
</g>
</g>

<g transform="matrix( 0.86602783203125, 0.4999847412109375, -0.4999847412109375, 0.86602783203125, 151.25,106.8) ">
<g transform="matrix( 1, 0, 0, 1, 0,0) ">
<use xlink:href="#Characters_Character1_Skin1_Leg_0_Layer1_0_FILL"/>

<use xlink:href="#Characters_Character1_Skin1_Leg_0_Layer1_0_1_STROKES"/>
</g>

<g transform="matrix( 0.3018035888671875, 0, 0, 0.66302490234375, 0,0) ">
<g transform="matrix( 1, 0, 0, 1, 0,0) ">
<use filter="url(#Filter_3)" xlink:href="#TransparentBox_0_Layer0_0_FILL"/>
</g>
</g>
</g>

<g transform="matrix( 0.9659271240234375, 0.2588043212890625, -0.2588043212890625, 0.9659271240234375, 142.8,137.4) ">
<g transform="matrix( 1, 0, 0, 1, 0,0) ">
<use xlink:href="#Characters_Character1_Skin1_Feet_0_Layer1_0_FILL"/>

<use xlink:href="#Characters_Character1_Skin1_Feet_0_Layer1_0_1_STROKES"/>
</g>

<g transform="matrix( 0.406494140625, 0, 0, 0.193359375, 0,0) ">
<g transform="matrix( 1, 0, 0, 1, 0,0) ">
<use filter="url(#Filter_3)" xlink:href="#TransparentBox_0_Layer0_0_FILL"/>
</g>
</g>
</g>

<g transform="matrix( -0.0120086669921875, -0.9999237060546875, 0.9999237060546875, -0.0120086669921875, 159.65,-6.45) ">
<g transform="matrix( 1, 0, 0, 1, 0,0) ">
<use xlink:href="#Characters_Character1_Skin1_Arm_0_Layer1_0_FILL"/>

<use xlink:href="#Characters_Character1_Skin1_Arm_0_Layer1_0_1_STROKES"/>

<use xlink:href="#Characters_Character1_Skin1_Arm_0_Layer1_0_2_STROKES"/>
</g>

<g transform="matrix( 0.2217254638671875, 0, 0, 0.524658203125, 0,0) ">
<g transform="matrix( 1, 0, 0, 1, 0,0) ">
<use filter="url(#Filter_3)" xlink:href="#TransparentBox_0_Layer0_0_FILL"/>
</g>
</g>
</g>

<g transform="matrix( -0.0120086669921875, -0.9999237060546875, 0.9999237060546875, -0.0120086669921875, 186.1,-1.45) ">
<g transform="matrix( 1, 0, 0, 1, 0,0) ">
<use xlink:href="#Characters_Character1_Skin1_Hand_0_Layer1_0_FILL"/>

<use xlink:href="#Characters_Character1_Skin1_Hand_0_Layer1_0_1_STROKES"/>

<use xlink:href="#Characters_Character1_Skin1_Hand_0_Layer1_0_2_STROKES"/>
</g>

<g transform="matrix( 0.28302001953125, 0, 0, 0.36834716796875, -0.05,0) ">
<g transform="matrix( 1, 0, 0, 1, 0,0) ">
<use filter="url(#Filter_3)" xlink:href="#TransparentBox_0_Layer0_0_FILL"/>
</g>
</g>
</g>
</g>
</g>
</svg>
