<svg version="1.1" id="Layer_1" xmlns="http://www.w3.org/2000/svg" x="0" y="0" viewBox="0 0 174.8 188.5" style="enable-background:new 0 0 174.8 188.5" xml:space="preserve"><style>.st4{fill:#fcc}.st5{fill:#269a4d;fill-opacity:.996}.st6{fill:#3c6}.st7,.st8{fill:none;stroke:#000;stroke-width:.5182;stroke-linecap:round;stroke-linejoin:round;stroke-miterlimit:1.6583}.st8{stroke:#ffe5e5;stroke-width:.4146}.st9{fill-opacity:4.000000e-03}.st10{fill:#03c}.st11{fill:#002493}.st12{fill:#fff}.st13{fill:#ccc}.st14{fill:#412000}.st15{fill:#630}.st16{fill:#333}.st17{fill:#666}.st18{fill:#383838}.st25{fill:none;stroke:#000;stroke-width:.4146;stroke-linecap:round;stroke-linejoin:round;stroke-miterlimit:1.6583}.st27{fill:#900}.st29{fill-opacity:.2}</style><g transform="matrix(.98198 0 0 .97513 33.15 24.9)"><path id="a" d="M174.3 188.5V16H.5v172.5h173.8z" style="fill:#f9b61f;fill-opacity:0"/></g><g transform="translate(31.55 27.4)"><g id="b"><path d="M142.7 91.6c-.2.1-.5.2-.8.2-.9.3-1.5.6-1.8.9-.3.3-.6.9-1 1.9-.3.7-.8 1-1.6 1.1-1.2 0-2.5 1-4.1 2.8-1.5 1.8-2.3 2.8-2.4 2.8-1.1-.3-1.9-.4-2.2-.4-1.4 0-2.6.7-3.8 2.2-1.2 1.5-1.9 2.2-2.1 2.2-.5 0-1.1-.1-1.8-.4s-1.5-.4-2.6-.4-2.1.2-2.9.6c-.5.2-1.3.7-2.2 1.5-.3.2-.7.2-1.3.2-.8 0-1.4-.1-1.9-.1-.2 0-.6.2-1.3.7-.7.5-1.1.7-1.1.7-.4 0-1-.2-1.8-.7-.8-.5-1.5-.7-2.1-.7-.7 0-1.9.3-3.6.8-1.7.5-2.5.8-2.6.8-.3 0-.9-.4-1.9-1.1-.9-.7-1.9-1.1-2.9-1.1-2 0-3.8.8-5.3 2.4-1.6 1.6-2.4 2.4-2.7 2.4-.1 0-.5-.3-1.3-.8s-1.7-.8-2.7-.8-1.9.3-2.7.8c-1 .6-1.9 1-2.9 1.2 0-.4-.3-1.1-.8-1.9-.7-1-1.3-1.5-2-1.5-.1 0-.9.3-2.2.9-1.4.6-2.4 1.1-3 1.5-.5.3-.7.9-.6 1.9 0 .5.1 1.3.2 2.2-.6-.4-1.1-.7-1.3-.8-.1 0-.5-.1-1.1-.1-1.8 0-3.2.6-4.2 1.8s-2 1.8-3.1 1.8c-4.3-.3-6.6-.4-6.9-.4-3.4 0-5.9.7-7.6 2-1.6 1.3-3.2 2-4.8 2-2.3 0-3.8-.3-4.6-1-.8-.7-2.3-1-4.5-1-1.8 0-3.3.3-4.3 1s-1.9 1-2.7 1c-.9 0-3.7-.5-8.5-1.4-4.8-.9-7.6-1.4-8.5-1.4-.5 0-1.4.3-2.8 1-1.3.7-2.3 1-2.8 1-1.2 0-2.2-.5-3-1.4-.9-.9-2.4-1.4-4.5-1.4-2.5 0-4.8.6-6.9 1.7s-3.4 1.7-3.9 1.7c-1.2 0-2.4-.5-3.7-1.5s-2.8-1.5-4.5-1.5c-1.6 0-2.5 0-2.7.1-.2.1-.5.3-1 .6v42.7h173.8V91.6h-.1z" style="fill:#f9b61f"/><path d="M141.9 91.9c.3-.1.6-.2.8-.2v-103H-31v129.8c.5-.3.8-.5 1-.6.2-.1 1.1-.1 2.7-.1 1.8 0 3.3.5 4.5 1.5s2.5 1.5 3.6 1.5c.5 0 1.9-.6 4-1.7s4.4-1.7 6.9-1.7c2.1 0 3.6.5 4.5 1.4.8.9 1.8 1.4 3 1.4.5 0 1.5-.3 2.8-1 1.4-.7 2.3-1 2.8-1 .9 0 3.7.5 8.5 1.4 4.8.9 7.6 1.4 8.5 1.4.8 0 1.7-.3 2.7-1 1-.7 2.5-1 4.3-1 2.2 0 3.7.3 4.5 1 .8.7 2.3 1 4.6 1 1.6 0 3.2-.7 4.8-2 1.6-1.3 4.1-2 7.6-2 .3 0 2.6.1 6.9.4 1.1 0 2.2-.6 3.2-1.8 1-1.2 2.4-1.8 4.2-1.8.6 0 1 0 1.1.1.2.1.7.3 1.3.8-.1-1-.2-1.7-.2-2.2-.1-1 .1-1.7.6-1.9.6-.4 1.6-.9 3-1.5 1.3-.6 2.1-.9 2.2-.9.7 0 1.3.5 2 1.5.5.8.8 1.5.8 1.9 1-.2 1.9-.6 2.9-1.2.8-.5 1.7-.8 2.7-.8s1.8.3 2.7.8c.8.5 1.2.8 1.3.8.2 0 1.1-.8 2.7-2.4 1.6-1.6 3.4-2.4 5.3-2.4 1.1 0 2 .4 2.9 1.1.9.7 1.5 1.1 1.9 1.1.1 0 1-.3 2.6-.8 1.8-.5 3-.8 3.6-.8.6 0 1.3.2 2.1.7.8.5 1.4.7 1.8.7 0 0 .4-.2 1.1-.7.7-.5 1.1-.7 1.3-.7.5 0 1.1 0 1.9.1.6 0 1-.1 1.3-.2 1-.7 1.7-1.2 2.2-1.4.8-.4 1.8-.6 2.9-.6 1.1 0 2 .1 2.6.4.6.3 1.2.4 1.8.4.2 0 .9-.7 2.1-2.2 1.2-1.5 2.4-2.2 3.8-2.2.3 0 1.1.1 2.2.4 0 0 .8-.9 2.4-2.8 1.5-1.9 2.9-2.8 4.1-2.8.8 0 1.3-.4 1.6-1.1.4-1 .7-1.7 1-1.9.2-.6.8-.9 1.7-1.2z" style="fill:#6fc7e5"/></g></g><g transform="translate(31.55 27.4)"><path id="c" d="M-31 118.4c.5-.3.8-.5 1-.6.2-.1 1.1-.1 2.7-.1 1.8 0 3.3.5 4.5 1.5s2.5 1.5 3.6 1.5c.5 0 1.9-.6 4-1.7s4.4-1.7 6.9-1.7c2.1 0 3.6.5 4.5 1.4.8.9 1.8 1.4 3 1.4.5 0 1.5-.3 2.8-1 1.4-.7 2.3-1 2.8-1 .9 0 3.7.5 8.5 1.4 4.8.9 7.6 1.4 8.5 1.4.8 0 1.7-.3 2.7-1 1-.7 2.5-1 4.3-1 2.2 0 3.7.3 4.5 1 .8.7 2.3 1 4.6 1 1.6 0 3.2-.7 4.8-2 1.6-1.3 4.1-2 7.6-2 .3 0 2.6.1 6.9.4 1.1 0 2.2-.6 3.2-1.8 1-1.2 2.4-1.8 4.2-1.8.6 0 1 0 1.1.1.2.1.7.3 1.3.8-.1-1-.2-1.7-.2-2.2-.1-1 .1-1.7.6-1.9.6-.4 1.6-.9 3-1.5 1.3-.6 2.1-.9 2.2-.9.7 0 1.3.5 2 1.5.5.8.8 1.5.8 1.9 1-.2 1.9-.6 2.9-1.2.8-.5 1.7-.8 2.7-.8s1.8.3 2.7.8c.8.5 1.2.8 1.3.8.2 0 1.1-.8 2.7-2.4 1.6-1.6 3.4-2.4 5.3-2.4 1.1 0 2 .4 2.9 1.1.9.7 1.5 1.1 1.9 1.1.1 0 1-.3 2.6-.8 1.8-.5 3-.8 3.6-.8.6 0 1.3.2 2.1.7.8.5 1.4.7 1.8.7 0 0 .4-.2 1.1-.7.7-.5 1.1-.7 1.3-.7.5 0 1.1 0 1.9.1.6 0 1-.1 1.3-.2 1-.7 1.7-1.2 2.2-1.4.8-.4 1.8-.6 2.9-.6 1.1 0 2 .1 2.6.4.6.3 1.2.4 1.8.4.2 0 .9-.7 2.1-2.2 1.2-1.5 2.4-2.2 3.8-2.2.3 0 1.1.1 2.2.4 0 0 .8-.9 2.4-2.8 1.5-1.9 2.9-2.8 4.1-2.8.8 0 1.3-.4 1.6-1.1.4-1 .7-1.7 1-1.9.3-.3.8-.6 1.8-.9.3-.1.6-.2.8-.2" style="fill:none;stroke:#333;stroke-linecap:round;stroke-linejoin:round"/></g><g transform="rotate(-4.255 1037.645 -1615.107) scale(.41457)"><g id="e"><path class="st4" d="M-70.1-60.5v-.5h-9.3v22.8c0 1.2.1 2.5.1 3.7.2 1 .6 1.9 1.2 2.6 1 1 2.1 1.5 3.4 1.5 1.3 0 2.4-.5 3.3-1.5.7-.8 1.1-1.6 1.2-2.7v-3.7c0-2.4.1-5 0-7.6l.1-14.6m-2.3 9.7v-6.4 6.4z"/><path class="st5" d="m-74.5-84.8.1-.6h-.2c-2.2 0-4.1.8-5.7 2.5-1.2 1.3-1.9 2.8-2.2 4.6-.1 4.6-.1 9.5-.1 14.5v3h15.8v-2.6h-10.7c0-.7-.1-2.2-.2-4.6 0-3.6.1-6.1.4-7.4.4-1.3 1.3-4.4 2.8-9.4z"/><path class="st6" d="m-74.5-85.4-.1.5c-1.5 5-2.4 8.1-2.7 9.3-.3 1.3-.4 3.8-.4 7.4.1 2.4.2 3.9.2 4.5h10.7v-.3c0-5-.1-9.8-.2-14.5-.2-1.7-.9-3.3-2.1-4.6-1.5-1.4-3.3-2.2-5.4-2.3z"/></g></g><g transform="rotate(-4.255 1037.645 -1615.107) scale(.41457)"><path id="f" class="st7" d="M-66.8-63.6v-.4c0-5-.1-9.8-.2-14.5-.2-1.7-.9-3.3-2.1-4.6-1.5-1.6-3.3-2.4-5.4-2.4h-.2c-2.2 0-4.1.8-5.7 2.5-1.2 1.3-1.9 2.8-2.2 4.6-.1 4.6-.1 9.5-.1 14.5v3h15.8c.1-.1.1-2.7.1-2.7zM-79.3-61v22.8c0 1.2.1 2.5.1 3.7.2 1 .6 1.9 1.2 2.6 1 1 2.1 1.5 3.4 1.5 1.3 0 2.4-.5 3.3-1.5.7-.8 1.1-1.6 1.2-2.7v-3.7c0-2.4.1-5 0-7.6v-15.3"/></g><g transform="rotate(-4.255 1037.645 -1615.107) scale(.41457)"><path id="g" class="st8" d="M-72.4-50.8v-6.4"/></g><g transform="matrix(.10428 -.00777 .01984 .26638 122.788 72.613)"><path id="i" class="st9" d="m82.8 66.1 16.9-1.3-2.2-28.9-16.9 1.3 2.2 28.9z"/></g><g transform="matrix(-.0659 -.4093 .4093 -.0659 131.97 81.371)"><path id="j" class="st4" d="M68.6-82.3v-5.1c-.2-1-.6-1.9-1.2-2.7-.1-.1-.3-.2-.4-.3-.3-.2-.5-.4-.8-.6-.6-.3-1.3-.5-2-.5H64c-.8 0-1.5.2-2.2.7-.3.2-.6.5-1 .8-.4.4-.7.9-.9 1.5-.2.4-.3.8-.3 1.2V-51.4c.2 1 .6 1.9 1.2 2.6 1 1 2.1 1.4 3.4 1.5 1.3 0 2.4-.5 3.3-1.5.7-.8 1.1-1.7 1.2-2.7v-3.6c0-2.2.1-4.4.1-6.8v-15.5c-.1-1.7-.2-3.3-.2-4.9m-2-2.8v30.9-30.9z"/></g><g transform="matrix(-.0659 -.4093 .4093 -.0659 131.97 81.371)"><path id="k" class="st7" d="M68.6-85.3v3.1c0 1.6.1 3.2.1 4.8v15.5c0 2.3 0 4.6-.1 6.8v3.6c-.2 1-.6 1.9-1.2 2.7-.9 1-2 1.4-3.3 1.5-1.3 0-2.4-.5-3.4-1.5-.7-.8-1.1-1.7-1.2-2.7V-87.3l.3-1.2c.2-.5.5-1 .9-1.5.3-.3.6-.6 1-.8"/></g><g transform="matrix(-.0659 -.4093 .4093 -.0659 131.97 81.371)"><path id="l" class="st8" d="M66.6-85.1v30.9"/></g><g transform="matrix(-.01461 -.09075 .21473 -.03457 131.971 81.372)"><path id="i_00000153693725206289091750000017649206634169552528_" class="st9" d="m112.2 65.2-2.4-14.7-23.3 3.8L88.8 69l23.4-3.8z"/></g><g transform="matrix(-.0659 -.4093 .4093 -.0659 143.376 81.834)"><path id="m" class="st4" d="M74.1-75.9c-.1-.2-.3-.3-.5-.5-1.1-1.2-2.5-1.8-4.1-2-2-.1-3.5.6-4.4 2.2v.1c-.3.5-.8.9-1.7 1.2-.5.3-.9.7-1.1 1.2-.3.8-.4 1.8-.4 2.9-.5.3-1.4.4-2.5.4-1.3 0-2.4-.2-3.3-.7-.9-.5-1.4-.7-1.7-.7-.4 0-.6.4-.6 1.2 0 .5.2 1 .6 1.4s1.1.7 2 1c.5.1 1.8.4 3.8.7-2-.3-3.2-.6-3.8-.7-.9-.3-1.5-.6-2-1l-.3 1.3.3.9c.4.7 1.1 1.2 2 1.5.1 0 1.4.2 3.7.6-2.3-.4-3.5-.6-3.7-.6-.9-.3-1.6-.8-2-1.5-.3 1-.1 2.1.7 3.1.1 0 .1.1.2.1.8.4 1.7.7 2.8.8 1.6.1 2.4.2 2.6.2-.2 0-1-.1-2.6-.2-1.1-.1-2-.4-2.8-.8 1 2 2.4 3 4.2 3 1.8-.1 3.1-.1 4-.1 3.2 0 5.8-1 7.7-2.9 2.1-2 3.1-4.9 3.1-8.5l-.2-3.6m-1.7 2.3v.8c-.4 2.5-1.3 4.6-2.7 6.2-1 1.1-2.6 2.3-4.9 3.6 0-1.4-.1-2.4-.2-3.2.1.7.2 1.8.2 3.2 2.3-1.3 3.9-2.5 4.9-3.6 1.4-1.6 2.3-3.6 2.7-6.2v-.8z"/></g><g transform="matrix(-.0659 -.4093 .4093 -.0659 143.376 81.834)"><path id="n" class="st7" d="M55.3-63.5c1 2 2.4 3 4.2 3 1.8-.1 3.1-.1 4-.1 3.2 0 5.8-1 7.7-2.9 2.1-2 3.1-4.9 3.1-8.5l-.2-3.8c-.1-.2-.3-.3-.5-.5m-8.5.2s0 0 0 0c-.3.5-.9.9-1.7 1.2-.5.3-.9.7-1.1 1.2-.3.8-.4 1.8-.4 3-.5.3-1.4.4-2.5.4-1.3 0-2.4-.2-3.3-.7-.9-.5-1.4-.7-1.7-.7-.4 0-.6.4-.6 1.2 0 .5.2 1 .6 1.4s1.1.7 2 1c.5.1 1.8.4 3.8.7m-5.8.6c-.3 1-.1 2.1.7 3.1.1 0 .1.1.2.1.8.4 1.7.7 2.8.8 1.6.1 2.4.2 2.6.2m-6.3-4.2c.4.7 1.1 1.2 2 1.5.1 0 1.4.2 3.7.6M54.4-69l-.3 1.3.3.9"/></g><g transform="matrix(-.0659 -.4093 .4093 -.0659 143.376 81.834)"><path id="o" class="st8" d="M72.4-73.6v.8c-.4 2.5-1.3 4.6-2.7 6.2-1 1.1-2.6 2.3-4.9 3.6 0-1.4-.1-2.4-.2-3.2-.1-.9-.2-1.8-.3-2.6"/></g><g transform="rotate(-99.146 106.555 -20.144) scale(.11733 .1527)"><path id="i_00000083800496298742423700000008203624153900361659_" class="st9" d="m120.4 68.3-3-18.8-16.4 2.6 3 18.8 16.4-2.6z"/></g><g transform="matrix(.3928 -.13256 .13256 .3928 117.426 110.966)"><g id="p"><path class="st4" d="M-50.4-82.6v-.7.7z"/><path class="st10" d="M-52.7-105.9h-1.5c-2 1.3-3.6 3.1-5 5.3-2.7 4.4-4.2 10.4-4.7 18.2l-1.7.2c.2 7.5.4 14.6.5 21.4v1.2c0 .8 0 1.5.1 2.2.1 2.4.1 4.7.2 7 .2 1.6.2 3.2.2 4.8.3 1.2.9 2.3 1.8 3.3 1.5 1.2 3.1 1.8 4.8 1.8 1.8 0 3.3-.6 4.6-1.8 1-1 1.6-2.1 1.9-3.4.1-1.5.1-3.1.1-4.8.1-3 .2-6 .3-9.2v-1c.2-6.8.4-13.9.5-21.4.1-.1.1-.2 0-.3V-83.2c.1-2.9.1-5.6.2-8.3 0-.9 0-1.8-.1-2.6v-1c.1-1.9.2-3.7.2-5.6-.2-1.9-.9-3.6-2-5-.1-.1-.2-.3-.4-.4.3-.1 0 .2 0 .2z"/><path class="st11" d="M-52.4-106.2c-1.6-1.6-3.4-2.5-5.5-2.5-2.3 0-4.2 1-5.9 2.9-.2.3-.4.5-.6.8-.8 1.3-1.3 2.7-1.5 4.2.1 2.2.1 4.5.1 6.7 0 .8 0 1.6.1 2.6 0 2.7.1 5.4.2 8.3v1.2l1.7-.2c.4-7.8 2-13.9 4.7-18.2 1.4-2.2 3-4 5-5.3h1.5c-.1-.2.2-.5.2-.5z"/></g></g><g transform="matrix(.3928 -.13256 .13256 .3928 117.426 110.966)"><path id="q" class="st7" d="M-64.4-105c-.8 1.2-1.3 2.6-1.5 4.2.1 2.2.1 4.5.1 6.7 0 .8 0 1.6.1 2.6 0 2.7.1 5.4.2 8.3v1.2m15.3-13.2-.1 1c.1.8.1 1.6.1 2.6-.1 2.7-.1 5.4-.2 8.3v.7h0v.1c.1.1.1.2 0 .3-.1 7.5-.3 14.6-.5 21.4v1.2c-.1 3.2-.2 6.2-.3 9.2 0 1.6-.1 3.2-.1 4.8-.2 1.2-.9 2.3-1.9 3.3-1.3 1.2-2.9 1.8-4.6 1.8-1.7 0-3.3-.6-4.8-1.8-.9-1-1.5-2.1-1.8-3.4 0-1.5-.1-3.1-.2-4.8 0-2.3-.1-4.6-.1-6.9 0-.7-.1-1.5-.1-2.2v-1.2c-.2-6.8-.3-13.9-.5-21.4"/></g><g transform="matrix(.13066 -.0441 .10731 .31798 117.426 110.966)"><path id="i_00000127727332409931782240000015164219030779804587_" class="st9" d="m80 110.2 21.2-7.2-11.6-34.5-21.2 7.2L80 110.2z"/></g><g transform="rotate(21.541 -287.543 378.521) scale(.41457)"><g id="r"><path class="st12" d="m-89.4 6.6.1-3H-94v6.3c1.4 1.2 2.9.1 4.6-3.3z"/><path class="st13" d="m-87.8 2-9.2-.1 9.2.1m-1.5 1.6.1-1.6h-7v.1l.3 4.2c.6 1.8 1.2 3 1.8 3.6V3.6h4.8z"/><path class="st11" d="M-87.8 1.9c0-.4 0-.8.1-1.3-3-.4-5-1.5-6-3.4-.7-1.3-1.3-4.2-1.7-8.7-.4-5.6-.8-9.9-1.1-13.1-.5-5.2-1.2-10-2-14.5l-.3.1c.2 2.8.3 5.5.3 8.3.2 4.6.4 9 .6 13.1v.4c.1.3.1.6.2 1 .3 6.4.6 12.4.8 18-.1.1 9.1.1 9.1.1z"/><path class="st10" d="M-87.5-45.6c-1.3-2.7-3-4-4.9-4-.3 0-.7 0-1 .1-1.5.3-2.8 1.6-4.1 3.9-.7 1.6-1.1 3.5-1.3 5.5 0 .1 0 .3-.1.4 0 .3 0 .6-.1.9l.3-.1c.8 4.5 1.5 9.3 2 14.5.3 3.2.7 7.5 1.1 13.1.4 4.5 1 7.4 1.7 8.7 1 1.8 3 2.9 6 3.4.3-5.2.6-10.8.8-16.7v-1c.1-.1.1-.2 0-.4.2-4.1.4-8.5.6-13.1.2-2.8.3-5.5.4-8.3.1-2.7-.4-4.9-1.4-6.9m-4.9 38-.1-.6c0 .1.1.2.1.3v.3z"/><path class="st4" d="m-92.4-8.2.1.6V-8c-.1-.1-.1-.1-.1-.2z"/></g></g><g transform="rotate(21.541 -287.543 378.521) scale(.41457)"><path id="s" class="st7" d="M-87.7.7c.3-5.2.5-10.8.8-16.7v-1c.1-.1.1-.2 0-.4.2-4.1.4-8.5.6-13.1.2-2.8.3-5.5.4-8.3-.1-2.5-.6-4.8-1.5-6.8-1.3-2.7-3-4-4.9-4-.3 0-.7 0-1 .1m-5.5 9.8c0 .3-.1.6-.1.9M-87.7.7c0 .4-.1.8-.1 1.2v0h-1.4l-.1 1.6-.1 3c-1.7 3.4-3.3 4.5-4.6 3.3-.7-.6-1.3-1.8-1.8-3.6l-.3-4.2v0h-.9v0c-.2-5.6-.5-11.5-.8-18 0-.4-.1-.7-.2-1v-.4c-.2-4.1-.4-8.5-.6-13.1 0-2.8-.1-5.5-.3-8.3M-89.2 2h-7"/></g><g transform="matrix(.11638 .04594 -.10093 .25567 118.9 132.018)"><path id="i_00000025401558364991935990000011356197480071055286_" class="st9" d="m71.3 120.5 18.9 7.5 11-27.8-18.9-7.5-11 27.8z"/></g><g transform="rotate(21.542 -323.504 381.213) scale(.41457)"><g id="t"><path class="st14" d="M-99.5-20.2c-.1-.8-.2-2.4-.3-4.8h-4.1v10.8l22.2-.4c.3-.5.6-1.1.7-1.6-1.6-.2-3.8-.5-6.7-.9-5.3-.7-8.4-1.1-9.2-1.1-1.6-.1-2.4-.7-2.6-2z"/><path class="st15" d="M-99.8-25c.1 2.4.2 4 .3 4.8.1 1.3 1 2 2.5 2 .9 0 3.9.4 9.2 1.1 2.8.4 5 .7 6.7.9.2-1 0-2.1-.7-3.2-2.9-1.2-7.6-3.1-13.9-5.6h-4.1z"/></g></g><g transform="rotate(21.542 -323.504 381.213) scale(.41457)"><path id="u" class="st7" d="M-81-16.3c.2-1 0-2.1-.7-3.2-2.9-1.2-7.6-3.1-13.9-5.6h-8.2v10.8l22.2-.4c.3-.5.5-1 .6-1.6z"/></g><g transform="matrix(.15675 .06187 -.02943 .07456 117.37 145.406)"><path id="i_00000088119254623363359460000005567152357682799805_" class="st9" d="m70.4 122.8 25.4 10 3.2-8.1-25.4-10-3.2 8.1z"/></g><g transform="rotate(-8.459 848.249 -882.85) scale(.41457)"><g id="v"><path class="st16" d="M21.5 28.5C32.4 17.7 37.8 4.6 37.8-10.7S32.4-39.1 21.5-50-2.4-66.2-17.7-66.2-46.1-60.8-56.9-50c-10.9 10.8-16.3 23.9-16.3 39.2s5.4 28.4 16.3 39.2C-46.1 39.3-33 44.7-17.7 44.7s28.4-5.4 39.2-16.2m11.1-39.2c0 13.9-4.9 25.8-14.7 35.6-9.8 9.8-21.7 14.7-35.6 14.7-13.9 0-25.8-4.9-35.6-14.7-9.8-9.8-14.8-21.7-14.8-35.6s4.9-25.8 14.8-35.7c9.8-9.8 21.7-14.7 35.6-14.7S8.1-56.2 18-46.4c9.7 9.9 14.6 21.7 14.6 35.7z"/><path class="st13" d="M17.9 24.9c9.8-9.8 14.7-21.7 14.7-35.6s-4.9-25.8-14.7-35.7C8.1-56.2-3.8-61.1-17.7-61.1c-13.9 0-25.8 4.9-35.6 14.7-9.8 9.8-14.8 21.7-14.8 35.7s4.9 25.8 14.8 35.6c9.8 9.8 21.7 14.7 35.6 14.7s25.8-4.9 35.6-14.7m-3.2-68c1.4 1.4 2.7 2.9 3.8 4.4 1.2 1.5 2.3 3.1 3.3 4.7 2.2 3.6 3.8 7.4 4.8 11.5.5 1.7.8 3.5 1.1 5.3.3 2.1.4 4.3.4 6.5 0 4-.5 7.8-1.4 11.5-.7 2.5-1.5 4.9-2.6 7.2-1.1 2.6-2.5 5-4.2 7.4-.3.5-.7.9-1.1 1.4-1.2 1.6-2.6 3.2-4.2 4.7-1.3 1.3-2.7 2.5-4.1 3.7-1.3 1.1-2.7 2.1-4.2 3-5 3.2-10.4 5.2-16.3 6.2l-2.7.3c-1.7.2-3.4.2-5.2.2-3.9 0-7.5-.4-11-1.2-1.5-.4-3-.8-4.4-1.3-3.9-1.4-7.6-3.4-11.1-6l-.2-.2c-1.9-1.4-3.7-3-5.4-4.8-1.5-1.5-2.9-3.1-4.2-4.7-1.2-1.5-2.2-3-3.1-4.6-2.8-4.6-4.6-9.5-5.5-14.8-.4-2.5-.7-5.2-.7-7.8v-.4c0-3.8.4-7.4 1.2-10.9 1.4-5.8 3.9-11.2 7.5-16 .1-.2.3-.4.5-.6 1.3-1.7 2.8-3.3 4.3-4.9 1.4-1.4 2.9-2.7 4.4-3.9.7-.6 1.5-1.1 2.2-1.6 2.4-1.7 5-3.2 7.6-4.3 3.2-1.4 6.6-2.3 10.1-2.9 2.5-.4 5.1-.6 7.8-.6 1 0 2 0 3 .1 2 .1 3.9.3 5.8.7 3.7.7 7.3 1.8 10.7 3.4.8.3 1.5.7 2.2 1.1 2.5 1.4 4.9 3 7.2 4.8 1.3 1.1 2.5 2.2 3.7 3.4z"/><path class="st17" d="m-25.7-18.7-1 1c-1.1 1.3-1.8 2.8-2.1 4.5-.2.8-.2 1.6-.2 2.4v.7c.1 1 .2 2 .5 2.9.5 1.5 1.3 2.9 2.5 4.1l.3.3c.7.7 1.4 1.2 2.2 1.7.7.4 1.4.8 2.2 1 1.1.4 2.3.5 3.6.5.7 0 1.3 0 1.9-.2h.4c1.1-.2 2.1-.6 3-1.1.9-.5 1.8-1.2 2.6-2 .6-.6 1.1-1.2 1.5-1.8.6-1 1.1-2 1.4-3 .3-1 .4-2 .4-3.1 0-1.5-.3-2.9-.8-4.2-.5-1.4-1.4-2.6-2.5-3.8-.2-.2-.4-.4-.7-.5 0-.1-.1-.1-.2-.2-1.2-1-2.5-1.7-4-2.1-.4-.1-.9-.2-1.3-.3h-.6c-.4-.1-.8-.1-1.2-.1-.7 0-1.3 0-2 .2-1.6.3-3.1.9-4.5 1.8l-.4.3c-.2.3-.6.7-1 1m2.4 3.7c.2-.2.4-.5.6-.7l.7-.7c.1-.1.2-.1.2-.2.9-.6 1.8-1 2.8-1.2h2.3c.3.1.6.1.8.2.9.3 1.7.7 2.5 1.3.1.1.1.1.1.2.2.1.3.2.4.3.7.7 1.2 1.5 1.5 2.3.3.8.5 1.7.5 2.7 0 .7-.1 1.3-.2 1.9-.2.7-.4 1.3-.8 1.9-.3.4-.6.8-1 1.1-.5.5-1 .9-1.6 1.2-.5.5-1.2.7-1.8.9h-.2c-.4.1-.8.1-1.2.1-.8 0-1.5-.1-2.2-.3-.5-.1-.9-.3-1.3-.7-.5-.3-.9-.6-1.3-1l-.2-.2c-.7-.8-1.2-1.6-1.5-2.5-.2-.6-.3-1.2-.3-1.8v-.4c0-.5 0-1 .2-1.5-.1-1.1.3-2 1-2.9z"/><path class="st18" d="M-22.7-15.6c-.2.2-.4.4-.6.7-.6.8-1.1 1.8-1.3 2.8-.1.5-.2 1-.2 1.5v.4c0 .6.2 1.2.3 1.8.3.9.8 1.8 1.5 2.5l.2.2c.4.4.9.8 1.3 1 .4.3.9.5 1.3.7.7.2 1.5.3 2.2.3.4 0 .8 0 1.2-.1h.2c.7-.1 1.3-.4 1.9-.7.6-.3 1.1-.8 1.6-1.2.4-.3.7-.7 1-1.1.4-.6.7-1.2.8-1.9.2-.6.2-1.2.2-1.9 0-.9-.2-1.8-.5-2.7-.3-.8-.9-1.6-1.5-2.3-.1-.1-.2-.3-.4-.3 0 0 0-.1-.1-.2-.7-.6-1.6-1-2.5-1.3-.3-.1-.6-.1-.8-.2H-19c-1 .2-1.9.6-2.8 1.2-.1 0-.2.1-.2.2-.3.1-.5.3-.7.6z"/></g></g><g transform="rotate(-8.459 848.249 -882.85) scale(.41457)"><path id="w" class="st7" d="M26.6-22.5c.5 1.7.8 3.5 1.1 5.3.3 2.1.4 4.2.4 6.5 0 4-.5 7.8-1.4 11.5-.7 2.5-1.5 4.9-2.6 7.2-1.1 2.6-2.5 5-4.2 7.4-.3.5-.7.9-1.1 1.4-1.2 1.6-2.6 3.2-4.2 4.7-1.3 1.3-2.7 2.5-4.1 3.7-1.3 1.1-2.7 2.1-4.2 3-5 3.2-10.4 5.2-16.3 6.2l-2.7.3c-1.7.2-3.4.2-5.2.2-3.9 0-7.5-.4-11-1.2-1.5-.4-3-.8-4.4-1.3-3.9-1.4-7.6-3.4-11.1-6l-.2-.2c-1.9-1.4-3.7-3-5.4-4.8-1.5-1.5-2.9-3.1-4.2-4.7-1.2-1.5-2.2-3-3.1-4.6-2.8-4.6-4.6-9.5-5.5-14.8-.4-2.5-.7-5.2-.7-7.8v-.4c0-3.8.4-7.4 1.2-10.9 1.4-5.8 3.9-11.2 7.5-16 .1-.2.3-.4.5-.6 1.3-1.7 2.8-3.3 4.3-4.9 1.4-1.4 2.9-2.7 4.4-3.9.7-.6 1.5-1.1 2.2-1.6 2.4-1.7 5-3.2 7.6-4.3 3.2-1.4 6.6-2.3 10.1-2.9 2.5-.4 5.1-.6 7.8-.6 1 0 2 0 3 .1 2 .1 3.9.3 5.8.7 3.7.7 7.3 1.8 10.7 3.4.8.3 1.5.7 2.2 1.1 2.5 1.4 4.9 3 7.2 4.8 1.2 1 2.4 2.1 3.6 3.2 1.4 1.4 2.7 2.9 3.8 4.4 1.2 1.5 2.3 3.1 3.3 4.7 2.3 3.8 3.9 7.6 4.9 11.7l-33.9 7.6c.5 1.3.8 2.7.8 4.2 0 1.1-.1 2.1-.4 3.1L26.6.8m6-11.5c0-13.9-4.9-25.8-14.7-35.7-9.8-9.8-21.7-14.7-35.6-14.7-13.9 0-25.8 4.9-35.6 14.7-9.8 9.8-14.8 21.7-14.8 35.7s4.9 25.8 14.8 35.6c9.8 9.8 21.7 14.7 35.6 14.7S8.1 34.7 18 24.8c9.7-9.7 14.6-21.6 14.6-35.5zm5.2 0c0-15.3-5.4-28.4-16.3-39.2S-2.4-66.2-17.7-66.2-46.1-60.8-56.9-50c-10.9 10.8-16.3 23.9-16.3 39.2s5.4 28.4 16.3 39.2C-46.1 39.3-33 44.7-17.7 44.7s28.4-5.4 39.2-16.3C32.4 17.7 37.8 4.6 37.8-10.7zm-45.1-4.2c-.5-1.4-1.4-2.6-2.5-3.8-.2-.2-.4-.4-.7-.5 0-.1-.1-.1-.2-.2-1.2-1-2.5-1.7-4-2.1-.4-.1-.9-.2-1.3-.3h-.6c-.4-.1-.8-.1-1.2-.1-.7 0-1.3 0-2 .2-1.6.3-3.1.9-4.5 1.8l-.4.3c-.4.3-.7.6-1.1 1-.3.3-.6.7-1 1-1.1 1.3-1.8 2.8-2.1 4.5-.2.8-.2 1.6-.2 2.4v.7c.1 1 .2 2 .5 2.9.5 1.5 1.3 2.9 2.5 4.1l.3.3c.7.7 1.4 1.2 2.2 1.7.7.4 1.4.8 2.2 1 1.1.4 2.3.5 3.6.5.7 0 1.3-.1 1.9-.2h.4c1.1-.2 2.1-.6 3-1.1.9-.5 1.8-1.2 2.6-2 .6-.6 1.1-1.2 1.5-1.8v0c.6-1 1.1-2 1.4-3M-23.3-15c-.6.8-1.1 1.8-1.3 2.8-.1.5-.2 1-.2 1.5v.4c0 .6.2 1.2.3 1.8.3.9.8 1.8 1.5 2.5l.2.2c.4.4.9.8 1.3 1 .4.3.9.5 1.3.7.7.2 1.5.3 2.2.3.4 0 .8 0 1.2-.1h.2c.7-.1 1.3-.4 1.9-.7.6-.3 1.1-.8 1.6-1.2.4-.3.7-.7 1-1.1v0c.4-.6.7-1.2.8-1.9.2-.6.2-1.2.2-1.9 0-.9-.2-1.8-.5-2.7-.3-.8-.9-1.6-1.5-2.3-.1-.1-.2-.3-.4-.3 0 0 0-.1-.1-.2-.7-.6-1.6-1-2.5-1.3-.3-.1-.6-.1-.8-.2H-19c-1 .2-1.9.6-2.8 1.2-.1 0-.2.1-.2.2-.2.2-.5.4-.7.7l-.6.6zm6.8-6.9L-9-55.7m12.9 4.5-18.4 29.7m-5.2-.3-5.9-34m32 84-18.8-29m-8.9.8-7.4 33.8M-15.8.4l6 34m-16.8-52-28.1-20m11.4-11 18.8 28.9m-37.8-1.9 33.6 8.5M-29-10l-33.8 7.5m5.5 14.8 28.8-19.4M-26-3l-18.3 29.5m33.9-45.7 29-19.5M-8.3-4.6l28.1 20"/></g><g transform="matrix(-.41006 .06097 .06097 .41006 108.537 119.685)"><g id="x"><path class="st16" d="M161.9 28.5c10.9-10.8 16.3-23.9 16.3-39.2s-5.4-28.4-16.3-39.2c-10.8-10.8-23.9-16.2-39.2-16.2S94.3-60.8 83.5-50 67.2-26.1 67.2-10.7s5.4 28.4 16.2 39.2c10.8 10.9 23.9 16.3 39.2 16.3s28.5-5.5 39.3-16.3m11.2-39.2c0 13.9-4.9 25.8-14.8 35.6-9.8 9.8-21.7 14.8-35.6 14.7-13.9 0-25.8-4.9-35.7-14.8C77.2 15 72.3 3.1 72.3-10.8S77.2-36.6 87-46.5c9.8-9.8 21.7-14.7 35.7-14.7 13.9 0 25.8 4.9 35.6 14.7 9.9 10 14.8 21.8 14.8 35.8z"/><path class="st13" d="M158.3 24.9c9.8-9.8 14.8-21.7 14.8-35.6s-4.9-25.8-14.8-35.7c-9.8-9.8-21.7-14.7-35.6-14.7S96.9-56.2 87-46.4c-9.8 9.8-14.7 21.7-14.7 35.7S77.2 15.1 87 24.9c9.8 9.8 21.7 14.8 35.7 14.8s25.8-5 35.6-14.8m1.4-62.6c3.7 4.9 6.2 10.3 7.6 16.1.8 3.4 1.2 7.1 1.2 10.8v.4c0 2.7-.3 5.3-.7 7.8-.9 5.3-2.7 10.2-5.5 14.8-.9 1.6-2 3.1-3.2 4.6-1.3 1.6-2.7 3.2-4.2 4.7-1.7 1.7-3.5 3.3-5.4 4.7-.1.1-.2.1-.2.2-3.5 2.6-7.2 4.6-11.1 5.9-1.4.5-2.9 1-4.4 1.3-3.5.9-7.2 1.3-11.1 1.3-1.8 0-3.5-.1-5.2-.2l-2.7-.3c-5.9-1-11.4-3-16.3-6.2-1.4-.9-2.8-1.9-4.2-3.1-1.4-1.1-2.7-2.3-4-3.6a48.1 48.1 0 0 1-4.2-4.8c-.3-.4-.7-.9-1-1.3C83.4 13 82 10.6 80.8 8c-1-2.3-1.9-4.7-2.5-7.2-.9-3.7-1.3-7.5-1.3-11.5 0-2.2.1-4.4.4-6.5.2-1.8.6-3.6 1-5.3 1-4.1 2.6-7.9 4.8-11.5 1-1.6 2.1-3.2 3.2-4.8 1.2-1.5 2.5-2.9 3.9-4.4 1.2-1.2 2.4-2.2 3.6-3.2 2.3-1.9 4.7-3.5 7.2-4.8.8-.4 1.5-.8 2.2-1.2 3.4-1.6 6.9-2.7 10.7-3.3 1.9-.3 3.8-.6 5.8-.7h3c2.7 0 5.3.2 7.8.6 3.5.6 6.9 1.6 10.1 3 2.7 1.1 5.2 2.6 7.6 4.2.7.5 1.5 1.1 2.2 1.6 1.5 1.2 3 2.5 4.4 4 1.6 1.6 3 3.2 4.3 4.9.2 0 .4.2.5.4z"/><path class="st18" d="M125.5-10.7c0-.2 0-.4-.1-.6-.1-.4-.3-.8-.5-1.1l-.1-.1-.1-.2c-.1-.1-.2-.1-.3-.2h-.1c-.3-.2-.7-.4-1.1-.5H122c-.2.1-.4.2-.7.3-.1.1-.2.1-.3.2l-.1.1s-.1.1-.2.1c-.3.3-.5.6-.6.9-.1.3-.2.7-.2 1 0 .3 0 .5.1.8.1.3.2.5.3.8.1.2.2.3.3.5.2.2.4.4.7.5.2.1.5.2.8.2h.5c.3 0 .6 0 .9-.2.2 0 .3-.1.5-.2h.1c.2-.1.3-.2.5-.3.3-.3.5-.6.6-1 .1-.2.1-.5.2-.8.1-.1.1-.2.1-.2z"/></g></g><g transform="rotate(-8.459 885.427 -379.745) scale(.41457)"><path id="y" class="st7" d="M148.3-48.6c.7.5 1.5 1 2.2 1.6 1.5 1.2 3 2.5 4.4 3.9 1.6 1.6 3 3.2 4.4 4.9.2.2.3.4.4.6 3.7 4.9 6.2 10.2 7.6 16.1.8 3.4 1.2 7.1 1.2 10.8v.4c0 2.7-.3 5.3-.7 7.8-.9 5.3-2.7 10.2-5.5 14.8-.9 1.6-2 3.1-3.2 4.6-1.3 1.6-2.7 3.2-4.2 4.7-1.7 1.7-3.5 3.3-5.4 4.7-.1.1-.2.1-.2.2-3.5 2.6-7.2 4.6-11.1 6-1.4.5-2.9.9-4.4 1.3-3.5.9-7.2 1.3-11.1 1.3-1.8 0-3.5-.1-5.2-.2l-2.7-.3c-5.9-1-11.3-3-16.3-6.2-1.4-.9-2.8-1.9-4.2-3-1.4-1.1-2.7-2.3-4-3.6a48.1 48.1 0 0 1-4.2-4.8c-.4-.5-.7-.9-1-1.4-1.7-2.4-3.1-4.8-4.3-7.4-1.1-2.3-1.9-4.7-2.5-7.2-.9-3.9-1.3-7.7-1.3-11.7 0-2.2.1-4.4.4-6.5.2-1.8.6-3.6 1-5.3 1-4.1 2.6-7.9 4.8-11.5 1-1.6 2.1-3.2 3.3-4.7 1.2-1.5 2.5-3 3.9-4.4 1.2-1.2 2.4-2.2 3.6-3.2 2.3-1.9 4.7-3.5 7.2-4.8.7-.4 1.5-.8 2.2-1.1 3.4-1.6 6.9-2.7 10.7-3.4 1.9-.3 3.8-.6 5.8-.7 1-.1 2-.1 3-.1 2.7 0 5.3.2 7.8.6 3.5.6 6.9 1.5 10.1 2.9 2.5 1.1 5.1 2.5 7.5 4.3zm0 0L124-13.4m37.9 41.9c-10.8 10.9-23.9 16.3-39.2 16.3s-28.4-5.4-39.2-16.3C72.6 17.7 67.2 4.6 67.2-10.7S72.6-39.1 83.5-50s23.9-16.2 39.2-16.2 28.4 5.4 39.2 16.2c10.9 10.8 16.3 23.9 16.3 39.2s-5.4 28.5-16.3 39.3zm-3.6-3.6c-9.8 9.8-21.7 14.7-35.6 14.7S96.9 34.7 87 24.8C77.2 15 72.3 3.1 72.3-10.8S77.2-36.6 87-46.5c9.8-9.8 21.7-14.7 35.7-14.7 13.9 0 25.8 4.9 35.6 14.7 9.8 9.8 14.8 21.7 14.8 35.7s-4.9 25.9-14.8 35.7zm-34.7-38.7 7-42m-5.8 43.3h0c.3.4.5.8.6 1.2v.8l36.8 22.9m-39.5-25.9h.5c.4.1.8.2 1.1.5h.1c.1.1.2.2.3.2 0 .1.1.1.1.2l34.9-25.1M120.4-9.2c-.2-.2-.3-.5-.3-.8-.1-.2-.1-.5-.1-.8 0-.4.1-.7.2-1 .1-.3.3-.6.6-.9.1 0 .1-.1.2-.1v-.1c.1-.1.2-.1.3-.2L86.4-38.7m34.9 25.6c.2-.1.4-.2.7-.3h.8L114-55.7M122.7-8h-.6c-.3-.1-.5-.1-.8-.2L98.5 28.2m27-38.8c0 .3-.1.5-.2.8-.1.4-.3.7-.6 1h-.1c-.1.1-.3.3-.4.3l9.6 42.2m-9.6-42.1h0c-.3.2-.4.3-.6.3-.3.1-.6.1-.9.1l-7.8 42.4m6.5-42.7c-.2-.1-.4-.3-.7-.5-.1-.1-.2-.3-.3-.5L85.1 15.4m64.2 11.1L125.3-9m-24.2-42.2 20.4 37.3m-43.1-8.6 41.5 10.4M78.3.8l41-11.2m48.5 7.9L125.9-11m41.4-10.6L125.6-12"/></g><g transform="rotate(-8.459 773.901 -611.111) scale(.41457)"><g id="z"><path class="st18" d="M-97.4 19.8c-.5-.5-1-.7-1.5-.9-.4-.1-.8-.2-1.1-.2-1 0-1.9.4-2.7 1.1-.7.7-1.1 1.6-1.1 2.7 0 1 .4 1.9 1.1 2.7.7.7 1.6 1.1 2.6 1.1.9 0 1.7-.3 2.4-.8l.2-.2c.7-.7 1.1-1.6 1.1-2.7 0-.3 0-.5-.1-.8 0-.3-.1-.5-.2-.8-.1-.5-.3-.9-.7-1.2M38.1-100.4c.9-.9 1.3-1.9 1.3-3.1 0-1.2-.4-2.3-1.3-3.2-.7-.7-1.4-1.1-2.3-1.2-.3-.1-.5-.1-.8-.1-1.2 0-2.3.4-3.2 1.3-.9.9-1.3 1.9-1.3 3.2 0 1.2.4 2.2 1.3 3.1.9.9 1.9 1.3 3.2 1.3.3 0 .6 0 .8-.1.8-.1 1.6-.5 2.3-1.2m6.7-5.7c-.3-.5-.6-1-1.1-1.4-1.1-1.1-2.5-1.7-4.1-1.7-1.5 0-2.8.5-3.8 1.5.9.1 1.6.5 2.3 1.2.9.9 1.3 1.9 1.3 3.2 0 1.2-.4 2.2-1.3 3.1-.7.7-1.4 1.1-2.3 1.2 1.1 1 2.3 1.5 3.8 1.5h.4c1.4-.1 2.7-.6 3.8-1.7 1.1-1.1 1.7-2.5 1.7-4.1 0-.6-.1-1.1-.2-1.5-.2-.6-.3-1-.5-1.3z"/><path d="m-47.8-24-1.6-5.2-49.1 47.8 1.2 1.2v.1c.3.3.6.7.8 1.1l48.7-45m-2.4-2.8-42 41 42-41m5.6-14.3-2.8.9-4.4 1.5-2.2.7.7 3.2h1.7l.3-.2 6.2-2 .1.2 1.3-.9-.9-3.4m-7.8 3.4 6.8-2.1-6.8 2.1M59.4 0c5.1 8.4 11.2 16.5 18.3 24.2 1.6.2 2.3-.5 2-2.2-6.4-7.9-11.8-16-16-24.5l-10.2-30-4.5 1.8L59.4 0M22.7-53.7l12.6-4.8-2.7-6-76.8 30.9 1.5 4.9 65.4-25m8.8-9.1-73.6 29.6 73.6-29.6m9.2 16.3-2.2-5-7.3 10.3-48.7 68.7c-2.4 2.2-4.9 2.7-7.5 1.5l-17.5-57.8-1.5-4.9-1-3.2v-.2l-6.2 2 1.9 5.8 1.6 5.2 17.5 55.2-65.8-9.6-.1.8c0 1-.4 1.9-1.1 2.7l-.1.2L-27 36.3c3.6 1.3 7.4.3 11.2-3l56.5-79.8m-58.1 75.6c-2.4 1.8-4.8 2.2-7.2 1.4 2.4.8 4.8.4 7.2-1.4M38.1-49l-54.8 77.3L38.1-49m.3-2.6-3.1-7-12.6 4.8 2 2.3 5.7-1.1 1.5 2.6-2.2 6.4 1.4 2.3 7.3-10.3m.3-20.4-.8.4-5.4 2.5-1.6.7 1.8 3.9 2.7 6 3.1 7 2.2 5.1c.2.3.3.7.4 1l2.2 4.8 6.8-2.5-6.8 2.5 5.6 10 4.5-1.8-2.8-11L38.7-72m-6.3 4.3 5.3-2.3-5.3 2.3z" style="fill:red"/><path class="st13" d="M-51.5-53.7c-1.1.3-2.3.6-3.5.9-.4.1-.8.1-1.2.2l4.3 13.8 4.5-1.5-4.1-13.4M45.2-105c.1.5.2 1 .2 1.5 0 1.6-.6 3-1.7 4.1-1.1 1.1-2.3 1.6-3.8 1.7l-8.2 13.1-1.5-1.1-3.2 1.6 5.5 14.9 5.4-2.5-.3-.7-2-5.1 9.2-17.7 3.2-1.9 1.2-4.7-1.9-3.8-2.1.6M28.4-83.7l4.2 11.9-4.2-11.9m12.4-12.7-8.2 12.8 8.2-12.8z"/><path d="M-68.7-65.8v-.7h-.2c-3.8.2-5.4 2.3-4.8 6.1.6 4.3 3.2 6.8 7.8 7.5 3 .6 6 .7 9 .3.2 0 .5-.1.8-.1.4-.1.8-.2 1.2-.2 1.2-.3 2.3-.6 3.5-.9l.8-.2.3-.1c2-.5 4-1.1 5.9-1.8 3.8-1.2 7.6-2 11.6-2.5h2.8c.7-1.5 1-2.8 1-3.9h-1.5c-6.2.1-10 .3-11.2.5-1.2.3-4.3 1.1-9.2 2.5-2.8.8-5.5 1.2-8 1.2-3.7 0-6.2-.5-7.5-1.7-1.6-.8-2.3-2.9-2.3-6z" style="fill:#006e93"/><path d="M-68.7-66.4v.7c0 3.1.7 5.2 2.1 6.3 1.4 1.1 3.9 1.7 7.5 1.7 2.5 0 5.2-.4 8-1.2 4.9-1.4 8-2.2 9.2-2.5 1.3-.3 5-.5 11.2-.5h1.5c-.2-2.2-1.9-3.6-5.3-4.2-3.7-.8-7.4-.9-11.1-.5l-11.5.3c-3.9-.2-7.8-.1-11.6-.1z" style="fill:#09c"/></g></g><g transform="rotate(-8.459 773.901 -611.111) scale(.41457)"><path id="A" class="st7" d="M-29.2-62.1c-.2-2.2-1.9-3.6-5.3-4.2-3.7-.8-7.4-.9-11.1-.5l-11.5.3c-3.9.1-7.8.1-11.6.1h-.2c-3.8.2-5.4 2.3-4.8 6.1.6 4.3 3.2 6.8 7.8 7.5 3 .6 6 .7 9 .3.2 0 .5-.1.8-.1.4-.1.8-.2 1.2-.2h0c1.2-.3 2.3-.6 3.5-.9l.8-.2.3-.1c2-.5 4-1.1 5.9-1.8 3.8-1.2 7.6-2 11.6-2.5h2.8c.6-1.4.9-2.7.8-3.8zM45.2-105c-.1-.4-.3-.8-.4-1.1-.3-.5-.6-1-1.1-1.5-1.1-1.1-2.5-1.7-4.1-1.7-1.5 0-2.8.5-3.8 1.4.9.1 1.6.5 2.3 1.2.9.9 1.3 1.9 1.3 3.2 0 1.2-.4 2.2-1.3 3.1-.7.7-1.4 1.1-2.3 1.2 1.1 1 2.3 1.4 3.8 1.4h.4c1.4-.1 2.7-.6 3.8-1.7 1.1-1.1 1.7-2.5 1.7-4.1-.1-.4-.1-1-.3-1.4zm2.2-.5-2.7-.6m-7.1 33.8-2-5.1 9.2-17.7L48-97l1.2-4.7-1.9-3.8m-11.5 6.4c-.3 0-.5.1-.8.1-1.2 0-2.3-.4-3.2-1.3-.9-.9-1.3-1.9-1.3-3.1 0-1.2.4-2.3 1.3-3.2.9-.9 1.9-1.3 3.2-1.3.3 0 .6 0 .8.1M40-97.7l-8.2 13.1-1.5-1.1-3.3 1.6 5.5 15 5.4-2.5.8-.4 12 28.5 2.8 11 10.2 30c4.2 8.5 9.6 16.6 16 24.5.3 1.7-.4 2.5-2 2.2C70.6 16.5 64.6 8.4 59.4 0L48.9-30.8l-5.6-10-2.2-4.8c-.1-.3-.3-.7-.4-1l-56.5 80c-3.9 3.3-7.6 4.3-11.2 3l-70.3-11.1h-.2c-.7.6-1.5.8-2.4.8-1 0-1.9-.4-2.6-1.1-.7-.7-1.1-1.6-1.1-2.7 0-1 .4-1.9 1.1-2.7.7-.7 1.6-1.1 2.6-1.1.4 0 .8.1 1.2.2l.3-.3 49.1-47.8-1.9-5.8v0m-.5.3h-1.7l-.7-3.2 2.2-.7-4.3-13.8M-45-36.8l1 3.2 76.8-30.9-1.8-3.9 1.6-.7m10.7 28.4 6.8-2.5M32.7-64.5l2.7 6 3.1 7 2.2 5.1m-2.3-5.2-7.3 10.3-48.7 68.7c-2.4 2.2-4.9 2.7-7.5 1.5l-17.5-57.8-1.5-4.9m75.2-7.5-1.4-2.3 2.2-6.4-1.5-2.6-5.7 1.2-2-2.3-65.2 25m65.2-25 12.6-4.8m18.1 26-4.5 1.8m-96.3-9.5 2.8-.9 1 3.3-1.3.9h0v-.2l-6.2 2m3.3 11.1-1.7-5.2m-2-24.5 4 13.5-4.5 1.5m-44.2 60.4 65.8 9.6L-47.8-24l-48.8 44.8c.1.3.2.5.2.8l.2.1-.1.8c0 1-.4 1.9-1.1 2.7v.2m.8-4.6c-.2-.4-.4-.7-.8-1.1v-.1c-.4-.4-.9-.7-1.5-.8m2.6 3.6c0-.3 0-.5-.1-.8m-1 3.5-.2.2"/></g><g transform="rotate(-8.459 773.901 -611.111) scale(.41457)"><path id="B" d="m32.4-67.7 5.3-2.4m-90.1 32.4 6.8-2.1m28.2 68.9c-2.4 1.8-4.8 2.2-7.2 1.4M38.1-49l-54.8 77.3m48.2-91.1-73.6 29.6m-8.1 6.4-42 41" style="fill:none;stroke:#fcc;stroke-width:.5182;stroke-linecap:round;stroke-linejoin:round;stroke-miterlimit:1.6583"/></g><g transform="rotate(-8.459 773.901 -611.111) scale(.41457)"><path id="C" d="m28.4-83.7 4.2 11.9m8.2-24.6-8.2 12.8" style="fill:none;stroke:#fff;stroke-width:.5182;stroke-linecap:round;stroke-linejoin:round;stroke-miterlimit:1.6583"/></g><g><g transform="matrix(-.41006 .06097 .06097 .41006 142.574 119.004)"><path id="D" class="st17" d="M125.4-26.1c-.9-.1-1.8-.2-2.7-.2-.6 0-1.2 0-1.8.2h-.8c-.7.1-1.3.2-1.9.4-2 .6-3.8 1.5-5.4 3l-.2.2c-.3.2-.6.5-.9.8-1.6 1.6-2.8 3.3-3.5 5.2-.7 1.8-1.1 3.7-1.1 5.8 0 1.5.2 2.9.6 4.3.4 1.5 1.1 2.9 1.9 4.2.6.9 1.3 1.7 2.1 2.5 1.1 1.1 2.3 2 3.6 2.7 1.3.7 2.7 1.2 4.2 1.5.2 0 .4 0 .5.1.8.1 1.7.2 2.7.2 1.8 0 3.4-.2 5-.8 1.1-.3 2.1-.8 3-1.4 1.1-.6 2.1-1.4 3-2.3.2-.1.3-.3.4-.4 1.6-1.7 2.7-3.6 3.4-5.7.4-1.3.7-2.7.8-4v-.9c0-1.2-.1-2.3-.3-3.3-.5-2.3-1.4-4.4-2.9-6.2-.4-.5-.9-1-1.3-1.5-.5-.5-1-1-1.5-1.4-.2-.1-.4-.3-.6-.5-1.9-1.3-4-2.2-6.3-2.5m-13.5 11.9c.1-.3.2-.5.3-.8.6-1.4 1.4-2.6 2.5-3.7.2-.2.4-.4.7-.5l.2-.2c1.2-1 2.5-1.7 4-2.1.4-.1.9-.2 1.3-.3h.5c.2 2.3-.4 4.8-1.5 7.6h-.1c-.1 0-.1.1-.1.1-.1.1-.2.1-.2.2v-.2c-2.7.5-5.2.5-7.6-.1m12.2-7.8h.7c1.6.3 3.1.9 4.5 2 .1 0 .3.1.4.2.4.3.8.7 1.1 1 .3.3.7.7.9 1.1.8 1 1.4 2.2 1.8 3.4-2.5.7-5 .8-7.5 0v.2l-.2-.2-.2-.2h-.1c-1-2.4-1.5-4.9-1.4-7.5m9.5 15c-.5 1.5-1.3 2.9-2.5 4.2-.1 0-.1.1-.2.2l-.2.2c-1.9-1.9-3.2-3.9-3.8-6 .2-.2.3-.5.3-.8.1-.3.2-.6.2-.9v-.3l.1.2c2.3-1.1 4.4-1.7 6.6-1.7.1.4.1.8.1 1.2v.7c-.1 1-.3 2-.6 3m-9.4.7c.1 0 .2-.1.3-.2 1.8 1.7 3.2 3.5 4.1 5.5-.7.5-1.4.8-2.2 1-1.2.4-2.4.6-3.7.6-.7 0-1.4-.1-2-.2-.1-.1-.2-.1-.4-.1-1.1-.2-2.1-.5-3-1 .9-1.9 2.2-3.8 3.9-5.7.2 0 .3.1.5.1h.2c.2.1.5.1.8.1.6.2 1.1.1 1.5-.1m-5.3-1.8-.2-.1c-.5 2.1-1.5 4.2-3 6.3-.3-.2-.6-.5-.8-.8-.6-.5-1.1-1.1-1.5-1.8-.7-1-1.1-2-1.4-3.2-.3-1-.4-2-.4-3.1v-1.3c2.3-.3 4.5.2 6.6 1.3h.1v.1c0 .4.1.8.2 1.2.1.3.2.6.4 1-.2.2-.1.3 0 .4z"/></g><g transform="rotate(-8.459 897.848 -610.263) scale(.41457)"><path id="E" class="st7" d="M122.7-26.3c.9 0 1.8.1 2.7.2 2.3.4 4.4 1.2 6.2 2.5.2.2.4.3.6.5.5.4 1 .9 1.5 1.4.5.4.9.9 1.3 1.5 1.5 1.8 2.4 3.9 2.9 6.2.2 1.1.3 2.2.3 3.3v.9c-.1 1.4-.3 2.8-.8 4-.7 2.1-1.8 4-3.4 5.7l-.4.4c-.9.9-1.9 1.7-3 2.4-1 .6-2 1.1-3 1.4-1.6.5-3.2.8-5 .8-.9 0-1.8-.1-2.7-.2-.2-.1-.3-.1-.5-.1-1.5-.3-2.9-.8-4.2-1.5-1.3-.7-2.5-1.6-3.6-2.7-.8-.8-1.5-1.6-2.1-2.5v0c-.9-1.4-1.5-2.8-1.9-4.2-.4-1.4-.6-2.8-.6-4.3 0-2.1.4-4 1.1-5.8.7-1.9 1.9-3.6 3.5-5.2.3-.3.6-.6.9-.8 0-.1.1-.2.2-.2 1.7-1.4 3.5-2.4 5.5-3 .6-.2 1.2-.3 1.9-.4h.8c.6-.3 1.2-.3 1.8-.3zm-3.3 12.2c-2.6.5-5.1.5-7.5 0 .1-.3.2-.5.3-.8.6-1.4 1.4-2.6 2.5-3.7.2-.2.4-.3.7-.5l.2-.2c1.2-1 2.5-1.7 4-2.1.4-.1.9-.2 1.3-.3h.6c.1 2.3-.4 4.8-1.5 7.6h-.1c-.1 0-.1.1-.1.1-.1.1-.2.1-.2.2m.1-.4h-.3m6.1-.3c-1-2.4-1.4-4.9-1.4-7.5h.7c1.6.3 3.1.9 4.5 2 .1 0 .3.1.4.2.4.3.8.7 1.2 1 .3.3.6.7.9 1.1.8 1 1.4 2.2 1.8 3.4-2.5.7-5 .8-7.5.1m-.1.2-.2-.2-.2-.2h-.2m.1 0c0-.1 0-.1 0 0m.5.3c-.1 0-.2 0-.3-.1m1.8 4c2.3-1.1 4.4-1.7 6.6-1.7.1.4.1.8.1 1.2v.7c-.1 1-.3 2-.6 3-.5 1.5-1.3 2.9-2.5 4.2-.1 0-.2.1-.2.2l-.2.2c-1.9-1.9-3.2-3.9-3.8-6 .1-.2.2-.5.3-.8.1-.3.2-.6.2-.9l.1-.1zm-3.3 3.9c-.5.2-1 .2-1.5.2-.3 0-.6 0-.8-.1h-.2c-.2 0-.3-.1-.5-.1-1.7 1.9-3 3.8-3.9 5.7.9.5 1.9.8 3 1 .2 0 .3 0 .4.1.6.1 1.2.2 1.9.2 1.2 0 2.5-.2 3.7-.6.8-.2 1.5-.6 2.2-1h.1c-.9-1.9-2.3-3.8-4.1-5.5 0 .1-.2.1-.3.1zm-5.6-1.9c-.5 2.1-1.6 4.2-3 6.4-.3-.2-.6-.5-.9-.8-.6-.5-1.1-1.1-1.5-1.8-.7-1-1.1-2-1.4-3.2-.3-1-.4-2-.4-3.1 0-.4 0-.9.1-1.3 2.3-.3 4.5.2 6.6 1.4m0-.1h0c0 .5.1.9.2 1.2.1.3.2.7.4 1 .1.1.1.2.2.3m-.2-.2c0 .1 0 .1-.1.2m-.5-2.4s0 0 0 0"/></g></g><g><g transform="rotate(10.25 -375.631 694.053) scale(.41457)"><g id="F"><path class="st10" d="M-68 5.9c-13 2.8-25.4 2.8-37.1 0l.5 10c.3.7.6 1.5.8 2.2.8 1.2 1.7 2.3 2.8 3.3 4 3.9 8.7 5.8 14.3 5.8 5.6 0 10.4-1.9 14.3-5.8 1.1-1.1 2-2.2 2.8-3.3.3-.7.6-1.5.8-2.2.1 0 .8-10 .8-10z"/><path d="M-68 5.9v-.5c.1-.9-.1-1.9-.7-2.9-12-1.9-23.9-1.9-35.9-.1-.6 1.3-.8 2.5-.5 3.6C-93.4 8.7-81 8.7-68 5.9m-13-.8c-.9 0-2.7-.3-5.4-.8-2.6-.9-4.9-1.1-7.1-.6h.2c-.1 0-.1 0-.2.1v-.1c-.5 0-1.5.1-2.9.3-2 .2-3.2.4-3.4.5.3-.2 1.4-.3 3.4-.5 1.4-.2 2.4-.3 2.9-.3 2.2-.5 4.6-.3 7.1.6 2.7.5 4.5.8 5.4.8.7 0 1.5-.1 2.4-.3.6-.1 1.2-.2 1.9-.4-.7.2-1.3.4-1.9.4-.9.2-1.7.3-2.4.3m-12.6-1.4h.1-.1z" style="fill:#970000"/></g></g><g transform="rotate(10.25 -375.631 694.053) scale(.41457)"><path id="G" class="st7" d="M-76.6 4.3c-.7.2-1.3.4-1.9.4-1 .2-1.8.3-2.4.3-.9 0-2.7-.3-5.4-.8-2.6-.9-4.9-1.1-7.1-.6h.2c-.1 0-.1 0-.2.1v0c-.5 0-1.5.1-2.9.3-2 .2-3.2.4-3.5.5"/></g><g transform="rotate(10.25 -375.631 694.053) scale(.41457)"><path id="H" class="st25" d="M-105.1 5.9c-.3-1.1-.1-2.3.5-3.6 12-1.8 24-1.8 35.9.1.6 1 .8 2 .7 2.9v.5l-.8 10c-.2.7-.5 1.5-.8 2.2-.8 1.2-1.7 2.3-2.8 3.3-3.9 3.9-8.7 5.8-14.3 5.8-5.6 0-10.3-1.9-14.3-5.8-1.1-1.1-2-2.2-2.8-3.3-.3-.7-.5-1.5-.8-2.2l-.5-9.9C-93.4 8.7-81 8.7-68 5.9h.1"/></g></g><g><g transform="rotate(10.25 -375.631 694.053) scale(.41457)"><path id="I" class="st12" d="M-99.2-3v6.8l7.7-.8v-6h-7.7m8.5 0v-3.2h-9.3V-3h9.3m-.8-9.7h-7.7v6.1h7.7v-6.1m0 0h.8v-3.2h-9.3v3.2h8.5z"/></g><g transform="rotate(10.25 -375.631 694.053) scale(.41457)"><path id="J" class="st7" d="M-91.5-12.7h.8v-3.2h-9.3v3.2h8.5v6.1h-7.7v-6.1m7.7 9.7h.8v-3.2h-9.3V-3h8.5v6l-7.7.8V-3"/></g></g><g transform="matrix(.34226 .0619 -.0321 .1775 114.315 95.418)"><path id="i_00000036227157150039249440000008109164404598915216_" class="st9" d="m52.1 78.4 55.6 10 3.5-19.3-55.6-10-3.5 19.3z"/></g><g><g transform="rotate(10.25 -375.406 693.999) scale(.41457)"><g id="L"><path class="st5" d="m-93.6-82.5-1.5-1.8c-1.9 1.6-3.6 3.8-5.2 6.5-2.9 5.1-4.7 11-5.3 17.7-.1 18.2-.2 37.1-.2 56.6V8.1h10.5c-.3-9-.7-17.5-1.2-25.4-.4-5.3-.5-12.1-.5-20.2 0-11 .3-19 .8-24.1.8-7.7 2.4-13.4 4.8-17.1l.1-.2-.1-.1c-1.5-1-2.2-2.1-2.2-3.5z"/><path class="st6" d="M-91.2-86.1v-.5c-1.3.5-2.6 1.3-3.8 2.2l1.5 1.8c0-1.3.7-2.5 2.1-3.4 0 0 .1 0 .2-.1m10.6.5c1 1 1.5 2 1.5 3.1s-.4 2-1.3 2.8c-.2.2-.5.4-.8.7-.3.2-.6.4-.9.5-1.2.6-2.6.9-4.2.9-1.9 0-3.6-.4-5-1.3l-.1.2c-2.4 3.7-4 9.4-4.8 17.1-.5 5.1-.8 13.1-.8 24.1 0 8.1.2 14.9.5 20.2.5 7.9.9 16.4 1.2 25.4h27.4V-3.5c0-19.5-.1-38.4-.3-56.6-.6-6.7-2.3-12.6-5.2-17.7-2.2-3.7-4.6-6.3-7.2-7.8m-1.3 7.5c1.8 3.1 2.6 6.3 2.2 9.5.4-3.2-.4-6.4-2.2-9.5z"/><path d="M-79.1-82.5c0-1.1-.5-2.1-1.5-3-.1 1.2-.6 2.2-1.5 3.2-1.1 1.1-2.3 1.6-3.8 1.6s-2.7-.5-3.7-1.6c-.9-.9-1.5-1.9-1.6-3.2v-.7l-.2.2c-1.4 1-2.1 2.1-2.1 3.4 0 1.4.7 2.5 2.1 3.5l.1.1c1.4.9 3.1 1.3 5 1.3 1.6 0 3-.3 4.2-.9.3-.2.7-.3.9-.5.3-.2.6-.4.8-.7.9-.7 1.3-1.6 1.3-2.7z" style="fill:#26984c"/><path class="st4" d="M-80.6-85.5v-7c-3.4 2.5-6.9 2.5-10.5 0l-.1 5.8v1.2c.1 1.2.7 2.2 1.6 3.2 1 1.1 2.3 1.6 3.7 1.6s2.7-.5 3.8-1.6c.9-.9 1.4-2 1.5-3.2m-2.2.3v-2.9 2.9z"/><path class="st27" d="M-80.6-92.5v-1.1c-3.4-2.5-6.9-2.5-10.5 0v1.2c3.6 2.4 7.1 2.4 10.5-.1z"/></g></g><g transform="rotate(10.25 -375.406 693.999) scale(.41457)"><path id="M" class="st7" d="M-91.1-92.5v-1.2c3.6-2.5 7.1-2.5 10.5 0v8m-10.6-.9.1-5.8c3.6 2.4 7.1 2.4 10.5 0m0 6.8h0c1 1 1.5 2 1.5 3.1s-.4 2-1.3 2.8c-.2.2-.5.4-.8.7-.3.2-.6.4-.9.5-1.2.6-2.6.9-4.2.9-1.9 0-3.6-.4-5-1.3m10.7-6.6h0c-.1 1.2-.6 2.3-1.5 3.2-1.1 1.1-2.3 1.6-3.8 1.6s-2.7-.5-3.7-1.6c-.9-.9-1.5-1.9-1.6-3.2v-.7l-.2.2c-1.4 1-2.1 2.1-2.1 3.4 0 1.4.7 2.5 2.1 3.5l.1.1m9.4.9c1.8 3.1 2.6 6.3 2.2 9.5m-11.5-17.5v-.5"/></g><g transform="rotate(10.25 -375.406 693.999) scale(.41457)"><path id="N" class="st25" d="M-80.6-85.6c2.6 1.5 5 4.1 7.2 7.8 2.9 5.1 4.7 11 5.2 17.7.2 18.2.3 37.1.3 56.6V8.1h-37.9V-3.5c0-19.5.1-38.4.2-56.6.6-6.7 2.4-12.6 5.3-17.7 1.6-2.8 3.3-4.9 5.2-6.5 1.2-1 2.5-1.8 3.8-2.3"/></g><g transform="rotate(10.25 -375.406 693.999) scale(.41457)"><path id="O" class="st8" d="M-82.8-85.2v-2.9"/></g></g><g transform="rotate(10.25 -355.07 695.823) scale(.41457)"><path id="i_00000060027078094196962300000015120826607161724037_" class="st9" d="m48.4 68.8 66.2 12 8-44.3-66.2-12-8 44.3z"/></g><g><g transform="rotate(-4.75 581.71 -1465.279) scale(.41457)"><g id="P"><path class="st4" d="M-77.8-74.6c-4.2.5-7.3 2.6-9.4 6.2-2 3.4-2.5 7.1-1.4 10.9 0 .3-.5.7-1.6 1.2-1 .5-1.6 1.2-1.6 2.3 0 .4.1 1 .3 1.5.2.6.4.9.4 1.1 0 .3-.4.5-1.2.8-.4.2-1.2.5-2.2 1-.2-1-.5-1.8-.7-2.4-.3-1-1-1.7-2-2-.9-.5-1.8-.8-2.5-.9h-.7c-1.4 0-2.3.5-2.8 1.4-.3.6-.5 1.5-.5 2.8 0 .7.2 1.5.6 2.6.2.6.6 1.5 1.2 2.7.4.8.8 1.4 1.4 1.8.6.4 1.3.6 2.2.6h.9c.6-.1 1.1-.2 1.2-.5.1-.1.3-.3.8-.6.2-.1.3-.4.3-1-.1.6-.2 1-.3 1-.4.3-.7.5-.8.6-.2.2-.6.4-1.2.5 1.5 3.3 3.6 6.4 6.3 9.2 3.4 3.4 7.3 5.9 11.5 7.3 2.9.9 6.1 1.4 9.4 1.4 8.1 0 15.1-2.9 20.9-8.6s8.7-12.7 8.7-20.9c0-7.3-2.3-13.6-6.9-19-3.9-1-7.9-1.5-12-1.4l-11.8-.3c-2.2.1-4.4.4-6.5.7m7.1 12.5c1 0 1.8.4 2.5 1.1.7.7 1.1 1.5 1.1 2.5s-.4 1.9-1.1 2.6c-.7.7-1.6 1-2.6 1s-1.8-.4-2.6-1.1c-.7-.7-1-1.5-1-2.6 0-1 .3-1.8 1.1-2.5s1.6-1 2.6-1m23.7 0c1 0 1.9.4 2.5 1.1.7.7 1 1.6 1 2.6s-.4 1.8-1 2.5c-.7.7-1.5 1-2.6 1-1 0-1.8-.4-2.5-1.1-.7-.7-1-1.5-1-2.5s.3-1.9 1-2.6c.8-.7 1.6-1 2.6-1m-6.7 25.5c.3-.1 1-.2 2-.3-1 .1-1.7.2-2 .3-6.8 7.6-13 7.2-18.6-1.2 7.4 2.4 13.6 2.8 18.6 1.2m-4.3-5.8c.7.3 1.3.5 1.9.5.7 0 1.3-.2 1.8-.6.5-.4.8-.9.8-1.5 0-1.1-.4-2-1.2-2.7-1.2-.9-2-2-2.6-3.2v-.5.5c.6 1.2 1.4 2.2 2.6 3.2.8.7 1.2 1.5 1.2 2.7 0 .6-.2 1-.8 1.5-.5.4-1.1.6-1.8.6-.6 0-1.2-.2-1.9-.5m-6.3 13.8c-.2-.1-.4-.3-.6-.4.2.1.4.3.6.4 1.2.3 2.2.2 3.2-.3-.9.5-2 .6-3.2.3z"/><path class="st12" d="M-72.2-37.8c5.5 8.4 11.7 8.8 18.6 1.2-5.1 1.6-11.3 1.2-18.6-1.2z"/><path class="st27" d="M-44.4-61.1c-.7-.7-1.5-1-2.5-1.1-1 0-1.8.4-2.5 1-.7.7-1.1 1.6-1.1 2.6s.3 1.8 1 2.5S-47.9-55-47-55c1 0 1.9-.3 2.6-1 .7-.7 1-1.5 1-2.5s-.3-1.9-1-2.6m-23.7 0c-.7-.7-1.5-1.1-2.5-1.1s-1.9.3-2.6 1c-.7.7-1.1 1.5-1.1 2.5s.3 1.9 1 2.6c.7.7 1.6 1 2.6 1.1 1 0 1.8-.3 2.6-1 .7-.7 1.1-1.5 1.1-2.6-.1-.9-.4-1.8-1.1-2.5z"/><path d="M-98.1-82.2c-6.4 6.4-9.6 14.1-9.6 23.1 0 9 3.2 16.8 9.5 23.2 5.3 5.3 11.5 8.4 18.6 9.3-4.2-1.4-8.1-3.8-11.5-7.3-2.8-2.8-4.9-5.8-6.3-9.2h-.9c-.9 0-1.6-.2-2.2-.6-.6-.4-1-1-1.4-1.8-.5-1.2-.9-2.1-1.1-2.7-.4-1.1-.6-1.9-.6-2.6 0-1.3.2-2.2.5-2.8.5-.9 1.4-1.4 2.8-1.4h.6c.8.1 1.7.4 2.6.9 1 .3 1.6 1 1.9 2 .2.6.4 1.3.7 2.3 1.1-.4 1.8-.8 2.2-.9.8-.3 1.2-.6 1.2-.9 0-.2-.1-.5-.3-1.1-.2-.6-.3-1.1-.3-1.6 0-1.1.5-1.9 1.6-2.3 1.1-.5 1.6-.8 1.6-1.2-1.1-3.8-.6-7.5 1.4-10.9 2.1-3.6 5.2-5.6 9.4-6.2 2.1-.3 4.3-.5 6.4-.7l11.8.3c4.1-.1 8.1.4 12 1.4.8.2 1.5.4 2.3.7 2.9-3.6 1.4-7.7-4.4-12.2-5.8-4.5-13.7-6.7-23.8-6.6-10.1.2-18.3 3.4-24.7 9.8z" style="fill:#fc0"/></g></g><g transform="rotate(-4.75 581.71 -1465.279) scale(.41457)"><path id="Q" class="st7" d="M-47.6-73.7c.8.2 1.5.4 2.3.7 2.9-3.6 1.4-7.7-4.4-12.2-5.8-4.5-13.7-6.7-23.8-6.6-10 .1-18.2 3.3-24.6 9.6-6.4 6.4-9.6 14.1-9.6 23.1 0 9 3.2 16.8 9.5 23.2 5.3 5.3 11.5 8.4 18.6 9.3-4.2-1.4-8.1-3.8-11.5-7.3-2.8-2.8-4.9-5.8-6.3-9.2h-.9c-.9 0-1.6-.2-2.2-.6-.6-.4-1-1-1.4-1.8-.5-1.2-.9-2.1-1.1-2.7-.4-1.1-.6-1.9-.6-2.6 0-1.3.2-2.2.5-2.8.5-.9 1.4-1.4 2.8-1.4h.6c.8.1 1.7.4 2.6.9 1 .3 1.6 1 1.9 2 .2.6.4 1.3.7 2.3 1.1-.4 1.8-.8 2.2-.9.8-.3 1.2-.6 1.2-.9 0-.2-.1-.5-.3-1.1-.2-.6-.3-1.1-.3-1.6 0-1.1.5-1.9 1.6-2.3 1.1-.5 1.6-.8 1.6-1.2-1.1-3.8-.6-7.5 1.4-10.9 2.1-3.6 5.2-5.6 9.4-6.2 2.1-.3 4.3-.5 6.4-.7l11.8.3c4 .1 8 .5 11.9 1.6 4.6 5.4 6.9 11.7 6.9 19 0 8.1-2.9 15.1-8.7 20.9s-12.7 8.6-20.9 8.6c-3.3 0-6.4-.5-9.4-1.4m6.5-34.5c-.7.7-1.1 1.5-1.1 2.5s.3 1.9 1 2.6c.7.7 1.6 1 2.6 1.1 1 0 1.8-.3 2.6-1 .7-.7 1.1-1.5 1.1-2.6 0-1-.3-1.8-1.1-2.5-.7-.7-1.5-1.1-2.5-1.1-1.1 0-1.9.3-2.6 1zm23.7 0c-.7.7-1.1 1.6-1.1 2.6s.3 1.8 1 2.5 1.6 1.1 2.5 1.1c1 0 1.9-.3 2.6-1 .7-.7 1-1.5 1-2.5s-.3-1.9-1-2.6c-.7-.7-1.5-1-2.5-1.1-1 0-1.8.3-2.5 1zm-4.2 24.5c.3-.1 1-.2 2-.4m-5.7-13.2v.5c.6 1.2 1.4 2.2 2.6 3.2.8.7 1.2 1.6 1.2 2.7 0 .6-.2 1.1-.8 1.5-.5.4-1.1.6-1.8.6-.6 0-1.2-.2-1.9-.5s-1.5-.5-2.5-.5m-.5 13.8c-1 .5-2 .6-3.2.3-.2-.1-.4-.3-.6-.4m-7.3-8.8c7.3 2.5 13.5 2.9 18.6 1.2-6.9 7.5-13.1 7.1-18.6-1.2zM-97.4-43c.6-.1 1-.2 1.2-.5.1-.1.3-.3.8-.6.2-.1.3-.5.3-1"/></g><g transform="rotate(-4.75 581.71 -1465.279) scale(.41457)"><path id="R" class="st29" d="M-100.3-48.9c0 .4.1.8.4 1.1.3.3.6.5 1 .5s.7-.1 1-.5c.3-.3.5-.7.5-1.1s-.2-.8-.5-1.1c-.3-.3-.6-.5-1-.5s-.8.2-1 .5c-.2.3-.4.7-.4 1.1m38.6 22.5c-2.8-.1-5.3-.4-7.7-1.2-4.2-1.2-6.9-2.1-8.2-2.7-2.5-1.3-3.9-2-4.1-2.1-2.1-1.1-3.6-2.1-4.6-3-.2-.2-1.1-.8-2.5-1.9-1.3-.9-2-1.5-2.2-1.9-2.7-3.4-4-5.5-4-6.2-.1.6-.2 1-.3 1-.4.3-.7.5-.8.6-.2.2-.6.4-1.3.4h-.9c-.9 0-1.6-.2-2.2-.6-.6-.4-1-1-1.4-1.8-.5-1.2-.9-2.1-1.1-2.7-.4-1.1-.6-1.9-.6-2.6 0-1.3.2-2.2.5-2.8.5-.9 1.4-1.4 2.8-1.4.2 0 .4 0 .6.1-1.2-.8-2.2-1.9-2.8-3.2-.2-.4-.5-2.2-1-5.2-.3-1.5-.5-3.4-.8-5.5-.2-1.8-.4-3.2-.4-4.1-1.9 4.2-2.9 8.8-2.9 13.8 0 9 3.2 16.8 9.5 23.2 5.3 5.3 11.5 8.4 18.6 9.3 2.9.9 6.1 1.4 9.4 1.4 2.9.3 5.7-.1 8.4-.9m7-19.3c0 .4-.1.8-.2 1-.1.2-.3.4-.6.6-.4.3-.7.4-.9.5l-2.2.1c-.1 0-.5.1-1 .2s-.8.3-1 .3c1 0 1.8.2 2.5.5s1.3.5 1.9.5c.7 0 1.4-.2 1.9-.6.5-.4.8-.9.8-1.5 0-1-.4-1.9-1.1-2.6 0 .4 0 .6-.1 1m3.7-17.6c-.9.9-1.4 2.3-1.4 4.3 0 .8.6 1.6 1.8 2.3.1.3.3.5.6.8.1.1.3.2.4.3.6.5 1.4.7 2.2.7 1 0 1.8-.3 2.5-1 .8-.2 1.4-.6 1.7-1.2.6-1 .9-2.2.9-3.5 0-.7-.1-1.3-.2-1.7-.2-.5-.6-1-1.2-1.5-.5-.4-1-.7-1.4-.8-.2 0-.8-.1-1.6-.1-2 .1-3.4.5-4.3 1.4m-19.1-1.3c-1.8 0-3.2.4-4.1 1.3-.9.9-1.4 2.3-1.4 4.3 0 .8.6 1.5 1.7 2.2.2.3.4.6.6.8.1.1.3.2.4.4.6.5 1.3.7 2.2.7 1 0 1.8-.3 2.5-1 .8-.2 1.4-.6 1.7-1.2.6-1 .9-2.1.9-3.5 0-.7-.1-1.3-.2-1.7-.2-.5-.6-1-1.2-1.5-.5-.4-1-.7-1.4-.8h-1.7m-1.3-10.8 11.8.3c4.1-.1 8.1.4 12 1.4.8.2 1.5.4 2.3.7 1.4-1.8 1.8-3.7 1.1-5.7-2.1 0-6.3-.4-12.6-1.2-6.4-.8-11.7-1.2-15.8-1.3-4.9.1-7.4.2-7.6.1-1.1 0-2.2.2-3.4.8-1.1.5-2.1 1.3-3 2.2-1.5 1.6-2.4 3.3-2.9 5.2-.3 1.2-.4 3.1-.4 5.7.1 1.3.2 2.5.2 3.5h.1c.1.1.2.4.4.8.2-2 .9-3.9 2-5.7 2.1-3.6 5.2-5.6 9.4-6.1 2.1-.2 4.3-.5 6.4-.7m-1.2-5.8c0-.1 0-.1-.1-.1-.1.1-.2.1-.3.1h.4z"/></g><g transform="rotate(-4.75 581.71 -1465.279) scale(.41457)"><path id="S" class="st7" d="M-100.3-48.9c0-.4.1-.8.4-1.1.3-.3.7-.5 1-.5.4 0 .7.2 1 .5.3.3.5.7.5 1.1s-.2.8-.5 1.1c-.3.3-.6.5-1 .5s-.8-.2-1-.5c-.2-.3-.4-.7-.4-1.1z"/></g><g transform="matrix(.24427 -.02029 .03033 .36518 123.285 43.118)"><path id="i_00000021835331796432143700000016567645928886376887_" class="st9" d="m72.5 43 39.7-3.3L108.8 0 69.2 3.3 72.5 43z"/></g></g><g><g transform="rotate(-4.75 539.978 -1438.941) scale(.41457)"><g id="T"><path class="st12" d="M-58.8-50.8c0-.9-.1-1.7-.4-2.5l-14.6-.2c-.3.8-.4 1.7-.4 2.6 0 2.1.7 4 2.2 5.5s3.3 2.3 5.5 2.3c2.1 0 3.9-.8 5.5-2.2 1.5-1.6 2.2-3.4 2.2-5.5z"/><path class="st4" d="M-59.2-53.3c-.3-1.1-1-2.1-1.8-3-1.5-1.5-3.3-2.2-5.5-2.3-2.1 0-4 .8-5.5 2.2-.8.8-1.5 1.8-1.8 2.8l14.6.3z"/></g></g><g transform="rotate(-4.75 539.978 -1438.941) scale(.41457)"><path id="U" class="st7" d="M-62.6-61h-8m-3.2 7.6c.4-1.1 1-2 1.8-2.8 1.5-1.5 3.3-2.2 5.5-2.2 2.1 0 3.9.8 5.5 2.3.9.9 1.5 1.9 1.8 3 .3.8.4 1.6.4 2.5 0 2.1-.8 4-2.3 5.5-1.5 1.5-3.3 2.2-5.5 2.2-2.1 0-4-.8-5.5-2.3s-2.2-3.3-2.2-5.5c.1-1.1.3-1.9.5-2.7l14.6.2"/></g><g transform="rotate(-4.75 539.978 -1438.941) scale(.41457)"><path id="V" class="st29" d="M91 18.8c.4-.4.8-.8 1.3-.9-.3 0-.5-.1-.8 0-.9.1-1.6.4-2.2 1.1-.3.4-.5.8-.7 1.2-.1.3-.1.7-.1 1.1.1.9.4 1.6 1.1 2.2.7.6 1.4.8 2.3.7.3 0 .6-.1.8-.2-.5-.1-1-.3-1.5-.7-.7-.6-1-1.3-1.1-2.2 0-.4 0-.7.1-1.1.3-.4.5-.8.8-1.2z"/></g><g transform="rotate(-4.75 539.978 -1438.941) scale(.41457)"><path id="W" d="M92.8 21.6c.1.1.3.2.4.2.2 0 .3-.1.4-.2.1-.1.1-.3.1-.4s-.1-.3-.2-.4c-.1-.1-.3-.1-.4-.1-.2 0-.3.1-.4.2-.1.1-.2.3-.1.4s.1.2.2.3z"/></g></g><g><g transform="rotate(-4.75 535.281 -1549.156) scale(.41457)"><g id="T_00000025441413363352330490000018289279466661297288_"><path class="st12" d="M-58.8-50.8c0-.9-.1-1.7-.4-2.5l-14.6-.2c-.3.8-.4 1.7-.4 2.6 0 2.1.8 4 2.2 5.5s3.3 2.3 5.5 2.3c2.1 0 3.9-.8 5.5-2.2 1.5-1.6 2.2-3.4 2.2-5.5z"/><path class="st4" d="M-59.2-53.3c-.3-1.1-1-2.1-1.9-3-1.5-1.5-3.3-2.3-5.4-2.3-2.1 0-4 .8-5.5 2.2-.8.8-1.5 1.8-1.9 2.8l14.7.3z"/></g></g><g transform="rotate(-4.75 535.281 -1549.156) scale(.41457)"><path id="U_00000047738760713942229000000002572776503885571991_" class="st7" d="M-62.6-61h-8m-3.2 7.6c.4-1.1 1-2 1.9-2.8 1.5-1.5 3.3-2.2 5.5-2.2 2.1 0 3.9.8 5.4 2.3.9.9 1.5 1.9 1.9 3 .3.8.4 1.6.4 2.5 0 2.1-.8 3.9-2.3 5.5-1.5 1.5-3.3 2.2-5.5 2.2-2.1 0-4-.8-5.5-2.3s-2.2-3.3-2.2-5.5c0-1.1.2-1.9.4-2.7l14.6.2"/></g><g transform="rotate(-4.75 535.281 -1549.156) scale(.41457)"><path id="V_00000065761189792126080510000001248722439371983517_" class="st29" d="M100.2 18.1c.4-.4.8-.8 1.3-.9-.3 0-.5-.1-.8 0-.9.1-1.6.4-2.2 1.1-.3.4-.5.8-.7 1.2-.1.3-.1.7-.1 1.1.1.9.4 1.6 1.1 2.2.7.6 1.4.8 2.3.7.3 0 .6-.1.8-.2-.5-.1-1-.3-1.5-.7-.7-.6-1-1.3-1.1-2.2 0-.4 0-.7.1-1.1.2-.4.4-.8.8-1.2z"/></g><g transform="rotate(-4.75 535.281 -1549.156) scale(.41457)"><path id="W_00000041293800205061887520000002749033101453240996_" d="M101.9 20.9c.1.1.3.2.4.2.2 0 .3-.1.4-.2.1-.1.1-.3.1-.4s-.1-.3-.2-.4c-.1-.1-.3-.1-.4-.1-.2 0-.3.1-.4.2-.1.1-.2.3-.1.4s.1.2.2.3z"/></g></g><g><g transform="matrix(.41343 -.03077 .03077 .41343 115.485 72.548)"><g id="e_00000161596088855535925670000009948654766977245865_"><path class="st4" d="M-70.1-60.5v-.5h-9.2v26.5c.2 1 .6 1.9 1.2 2.6 1 1 2.1 1.5 3.4 1.5 1.3 0 2.4-.5 3.3-1.5.7-.8 1.1-1.6 1.2-2.6v-3.7c0-2.4.1-5 .1-7.5v-14.8m-2.3 9.7v-6.3 6.3z"/><path class="st5" d="m-74.5-84.8.1-.5h-.2c-2.2 0-4.1.8-5.7 2.4-1.2 1.3-1.9 2.8-2.2 4.6-.1 4.6-.1 9.4-.1 14.4v3h15.8v-2.6h-10.7c0-.7 0-2.2-.1-4.5 0-3.6.1-6.1.4-7.4.3-1.3 1.2-4.4 2.7-9.4z"/><path class="st6" d="m-74.5-85.4-.1.6c-1.5 5-2.4 8.1-2.7 9.3-.3 1.3-.4 3.8-.4 7.4.1 2.4.1 3.9.1 4.6h10.7v-.3c0-5-.1-9.8-.2-14.5-.2-1.7-.9-3.2-2.1-4.5-1.4-1.7-3.2-2.5-5.3-2.6z"/></g></g><g transform="matrix(.41343 -.03077 .03077 .41343 115.485 72.548)"><path id="f_00000174590365479771304130000007331681725466331561_" class="st7" d="M-66.8-63.6v-.3c0-5-.1-9.8-.2-14.5-.2-1.7-.9-3.2-2.1-4.5-1.5-1.6-3.3-2.4-5.4-2.5h-.2c-2.2 0-4.1.8-5.7 2.5-1.2 1.3-1.9 2.8-2.2 4.5-.1 4.6-.1 9.5-.1 14.5v3h15.8c.1-.1.1-2.7.1-2.7zM-79.3-61v26.5c.2 1 .6 1.9 1.2 2.6 1 1 2.1 1.5 3.4 1.5 1.3 0 2.4-.5 3.3-1.5.7-.8 1.1-1.6 1.2-2.6v-3.7c0-2.4.1-5 .1-7.5V-61"/></g><g transform="matrix(.41343 -.03077 .03077 .41343 115.485 72.548)"><path id="g_00000023965934965794197680000009164222463591086506_" class="st8" d="M-72.4-50.8v-6.3"/></g><g transform="matrix(.10428 -.00776 .01983 .26638 115.465 72.55)"><path id="i_00000072250212451362613240000008148356171756611988_" class="st9" d="m75.4 66 16.9-1.3-2.2-28.9-16.9 1.3L75.4 66z"/></g></g><g><g transform="rotate(-48.646 182.114 -79.013) scale(.41457)"><g id="p_00000067232922513456731570000007710485774189033600_"><path class="st4" d="M-5.3-101.6c0-.1.1-.2.1-.3v-.4l-.1.7z"/><path class="st10" d="M-7.6-124.9h-1.5c-2 1.3-3.6 3.1-5 5.3-2.7 4.4-4.2 10.4-4.7 18.2l-1.7.1c.2 7.5.4 14.6.5 21.4V-76.5c.1 2.4.1 4.7.1 6.9.2 1.6.2 3.2.2 4.8.3 1.2.9 2.4 1.8 3.4 1.5 1.2 3.1 1.8 4.8 1.8 1.8 0 3.3-.6 4.7-1.7 1-1 1.6-2.1 1.9-3.3.1-1.5.1-3.1.2-4.8.1-3 .2-6 .3-9.2v-.2c0-.3.1-.6.1-.8.2-6.8.4-13.9.5-21.4.1-.1.1-.2 0-.3v-.2l.1-.7c.1-2.9.1-5.6.2-8.3 0-.9 0-1.8-.1-2.6 0-.3 0-.7.1-1 .1-1.9.2-3.7.2-5.7-.2-1.9-.9-3.6-2-5-.1-.1-.2-.3-.3-.4-.1 0-.4.3-.4.3z"/><path class="st11" d="M-7.3-125.2c-1.6-1.6-3.4-2.5-5.5-2.5-2.3 0-4.2.9-5.9 2.8-.2.3-.4.5-.6.8-.8 1.3-1.3 2.7-1.5 4.2.1 2.2.1 4.4.1 6.7 0 .8 0 1.6.1 2.5 0 2.7.1 5.4.2 8.3v1.2l1.7-.1c.4-7.8 2-13.9 4.7-18.2 1.4-2.2 3-4 5-5.3h1.5c-.1-.1.2-.4.2-.4z"/></g></g><g transform="rotate(-48.646 182.114 -79.013) scale(.41457)"><path id="q_00000044899718188542978130000006417832007847066278_" class="st7" d="M-19.4-124c-.8 1.2-1.3 2.6-1.5 4.2.1 2.2.1 4.4.1 6.7 0 .8 0 1.6.1 2.5 0 2.7.1 5.4.2 8.3v1.2m15.4-13-.1 1c.1.8.1 1.6.1 2.6-.1 2.7-.1 5.4-.2 8.3v.4c0 .1 0 .2-.1.3l-.1.1v.1c.1.1.1.2 0 .3-.1 7.5-.3 14.6-.5 21.4 0 .3 0 .6-.1.8V-78.5c-.1 3.2-.2 6.2-.3 9.2 0 1.6-.1 3.2-.2 4.7-.2 1.2-.9 2.4-1.9 3.3-1.3 1.2-2.9 1.7-4.7 1.7-1.7 0-3.3-.6-4.8-1.8-.9-1-1.5-2.1-1.8-3.4 0-1.5-.1-3.1-.2-4.8 0-2.3-.1-4.6-.1-6.9 0-.7-.1-1.5-.1-2.2v-1.2c-.2-6.8-.3-13.9-.5-21.4"/></g><g transform="matrix(.0911 -.10352 .25192 .22172 121.105 109.9)"><path id="i_00000031912374118542589290000008804380672077986706_" class="st9" d="m94.7 108.7 14.8-16.8-27.3-24.1-14.8 16.8 27.3 24.1z"/></g></g><g><g transform="rotate(21.541 -273.05 400.368) scale(.41457)"><g id="r_00000016075469370606298140000007020292679730928266_"><path class="st12" d="m-89.4 6.6.1-3H-94v6.3c1.4 1.2 2.9.1 4.6-3.3z"/><path class="st13" d="m-87.8 2-9.2-.1 9.2.1m-1.5 1.6.1-1.6h-7v.1l.3 4.2c.6 1.8 1.2 3 1.8 3.6V3.6h4.8z"/><path class="st11" d="M-87.8 1.9c0-.4 0-.8.1-1.3-3-.4-5-1.5-6-3.4-.7-1.3-1.3-4.2-1.7-8.7-.4-5.6-.8-9.9-1.1-13.1-.5-5.2-1.2-10-2-14.5l-.3.1c.2 2.8.3 5.5.3 8.3.2 4.6.4 9 .6 13.1v.4c.1.3.1.6.2 1 .3 6.4.6 12.4.8 18-.1.1 9.1.1 9.1.1z"/><path class="st10" d="M-87.5-45.6c-1.3-2.7-3-4-4.9-4-.3 0-.7 0-1 .1-1.5.3-2.8 1.6-4.1 3.9-.7 1.6-1.1 3.5-1.3 5.5 0 .1 0 .3-.1.4 0 .3 0 .6-.1.9l.3-.1c.8 4.5 1.5 9.3 2 14.5.3 3.2.7 7.5 1.1 13.1.4 4.5 1 7.4 1.7 8.7 1 1.8 3 2.9 6 3.4.3-5.2.6-10.8.8-16.7v-1c.1-.1.1-.2 0-.4.2-4.1.4-8.5.6-13.1.2-2.8.3-5.5.4-8.3.1-2.7-.4-4.9-1.4-6.9m-4.9 38-.1-.6c0 .1.1.2.1.3v.3z"/><path class="st4" d="m-92.4-8.2.1.6V-8c-.1-.1-.1-.1-.1-.2z"/></g></g><g transform="rotate(21.541 -273.05 400.368) scale(.41457)"><path id="s_00000155127989426131643570000012494720320777131948_" class="st7" d="M-87.7.7c.3-5.2.5-10.8.8-16.7v-1c.1-.1.1-.2 0-.4.2-4.1.4-8.5.6-13.1.2-2.8.3-5.5.4-8.3-.1-2.5-.6-4.8-1.5-6.8-1.3-2.7-3-4-4.9-4-.3 0-.7 0-1 .1m-5.5 9.8c0 .3-.1.6-.1.9M-87.7.7c0 .4-.1.8-.1 1.2v0h-1.4l-.1 1.6-.1 3c-1.7 3.4-3.3 4.5-4.6 3.3-.7-.6-1.3-1.8-1.8-3.6l-.3-4.2v0h-.9v0c-.2-5.6-.5-11.5-.8-18 0-.4-.1-.7-.2-1v-.4c-.2-4.1-.4-8.5-.6-13.1 0-2.8-.1-5.5-.3-8.3M-89.2 2h-7"/></g><g transform="matrix(.11638 .04594 -.10093 .25567 127.944 128.23)"><path id="i_00000097491148226957119170000004870446386745077414_" class="st9" d="m80.4 116.7 18.9 7.5 11-27.8-19-7.4-10.9 27.7z"/></g></g><g><g transform="rotate(6.539 -1173.014 1175.914) scale(.41457)"><g id="t_00000028296639417096966750000014673293175786933937_"><path class="st14" d="M-91.2-43.5c-.1-.8-.2-2.4-.3-4.8h-4.1v10.9l22.2-.5c.3-.5.6-1.1.7-1.6-1.6-.2-3.8-.5-6.7-.9-5.3-.7-8.4-1.1-9.2-1.1-1.7 0-2.5-.7-2.6-2z"/><path class="st15" d="M-91.5-48.3c.1 2.4.2 4 .3 4.8.1 1.3 1 2 2.6 1.9.9 0 3.9.4 9.2 1.1 2.8.4 5 .7 6.7.9.2-1 0-2.1-.7-3.2-2.9-1.2-7.6-3.1-14-5.6 0 .1-4.1.1-4.1.1z"/></g></g><g transform="rotate(6.539 -1173.014 1175.914) scale(.41457)"><path id="u_00000143575899387204541400000004860884958952926905_" class="st7" d="M-72.8-39.5c.2-1 0-2.1-.7-3.2-2.9-1.2-7.6-3.1-14-5.6h-8.2v10.9l22.2-.5c.4-.5.6-1.1.7-1.6z"/></g><g transform="matrix(.16742 .0192 -.00913 .07964 126.335 141.286)"><path id="i_00000137836008349103510550000015002659469831872696_" class="st9" d="m79.6 122.4 27.2 3.1 1-8.6-27.2-3.1-1 8.6z"/></g></g><g><g transform="rotate(-99.146 96.853 -12.383) scale(.41457)"><path id="j_00000151512147871849048880000011108988245530790024_" class="st4" d="M68.6-82.3v-5.1c-.2-1-.6-1.9-1.2-2.7-.1-.1-.3-.2-.4-.3-.3-.2-.5-.4-.8-.6-.6-.3-1.3-.5-2.1-.5h-.2c-.8 0-1.5.2-2.2.7-.3.2-.6.5-1 .8-.4.4-.7.9-.9 1.5-.2.4-.3.8-.3 1.2V-55c0 1.2.1 2.5.1 3.7.2 1 .6 1.9 1.2 2.7 1 1 2.1 1.4 3.4 1.4 1.3 0 2.4-.5 3.3-1.5.7-.8 1.1-1.7 1.2-2.7v-3.7c0-2.2.1-4.4 0-6.8v-15.5c0-1.7-.1-3.3-.1-4.9m-2-2.8v30.9-30.9z"/></g><g transform="rotate(-99.146 96.853 -12.383) scale(.41457)"><path id="k_00000017491637731230554380000010194899815950391951_" class="st7" d="M68.6-85.3v3.1c0 1.6 0 3.2.1 4.9v26c-.2 1-.6 1.9-1.2 2.7-.9 1-2 1.5-3.3 1.5-1.3 0-2.4-.5-3.3-1.5-.7-.8-1.1-1.7-1.3-2.7 0-1.2 0-2.4-.1-3.7V-87.3l.3-1.2c.2-.5.5-1 .9-1.5.3-.3.6-.6 1-.8"/></g><g transform="rotate(-99.146 96.853 -12.383) scale(.41457)"><path id="l_00000075137863192343902230000014879748230959186817_" class="st8" d="M66.6-85.1v30.9"/></g><g transform="rotate(-99.146 96.853 -12.384) scale(.09192 .21751)"><path id="i_00000158021074468437657880000017745692547488689837_" class="st9" d="m104.7 65.1-2.4-14.7L79 54.1l2.4 14.7 23.3-3.7z"/></g></g><g><g transform="rotate(-99.146 102.615 -16.914) scale(.41457)"><path id="m_00000183958622566995137970000006186427901197057408_" class="st4" d="M74.1-75.9c-.1-.2-.3-.3-.4-.5-1.1-1.2-2.5-1.8-4.2-2-2-.1-3.5.6-4.3 2.3h-.1c-.3.5-.8.9-1.6 1.2-.5.3-.9.7-1.1 1.3-.3.8-.4 1.8-.4 2.9-.5.3-1.4.5-2.5.5-1.3 0-2.4-.2-3.3-.7s-1.4-.7-1.7-.7c-.4 0-.7.4-.7 1.2 0 .5.2 1 .7 1.4.4.4 1.1.7 2 1 .5.1 1.8.4 3.8.7-2-.3-3.2-.6-3.8-.7-.9-.3-1.5-.6-2-1l-.3 1.3.3.9c.4.7 1.1 1.2 2.1 1.5.1 0 1.4.2 3.7.6-2.3-.4-3.5-.6-3.7-.6-.9-.3-1.6-.8-2.1-1.5-.3 1-.1 2.1.7 3.2.1 0 .1.1.2.2.8.4 1.7.7 2.8.8 1.6.1 2.4.2 2.6.2-.2 0-1-.1-2.6-.2-1.1-.1-2-.4-2.8-.8 1 2 2.4 3 4.2 3 1.8-.1 3.1-.1 4.1-.1 3.2 0 5.8-1 7.7-2.9 2.1-2 3.1-4.9 3.1-8.5l-.4-4m-1.7 2.3v.8c-.4 2.5-1.3 4.6-2.7 6.2-1 1.1-2.6 2.3-4.9 3.6 0-1.4-.1-2.4-.2-3.2.1.7.2 1.8.2 3.2 2.3-1.3 3.9-2.5 4.9-3.6 1.4-1.6 2.3-3.6 2.7-6.2v-.8z"/></g><g transform="rotate(-99.146 102.615 -16.914) scale(.41457)"><path id="n_00000097482248287938317370000006139997459509183641_" class="st7" d="M55.3-63.5c1 2 2.4 3 4.2 3 1.8-.1 3.1-.1 4.1-.1 3.2 0 5.8-1 7.7-2.9 2.1-2 3.1-4.9 3.1-8.5l-.3-3.9c-.1-.2-.3-.3-.4-.5m-8.6.3s0 0 0 0c-.3.5-.9.9-1.7 1.2-.5.3-.9.7-1.1 1.3-.3.8-.4 1.8-.4 2.9-.5.3-1.4.5-2.5.5-1.3 0-2.4-.2-3.3-.7s-1.4-.7-1.7-.7c-.4 0-.7.4-.7 1.2 0 .5.2 1 .7 1.4.4.4 1.1.7 2 1 .5.1 1.8.4 3.8.7m-5.8.5c-.3 1-.1 2.1.7 3.2.1 0 .1.1.2.2.8.4 1.7.7 2.8.8 1.6.1 2.4.2 2.6.2m-6.3-4.4c.4.7 1.1 1.2 2.1 1.5.1 0 1.4.2 3.7.6M54.4-69l-.3 1.3.3.9"/></g><g transform="rotate(-99.146 102.615 -16.914) scale(.41457)"><path id="o_00000031905151310163240060000004091150188785294759_" class="st8" d="M72.4-73.6v.8c-.4 2.5-1.3 4.6-2.7 6.2-1 1.1-2.6 2.3-4.9 3.6 0-1.4-.1-2.4-.2-3.2-.1-.9-.2-1.8-.3-2.6"/></g><g transform="rotate(-99.146 102.625 -16.906) scale(.11733 .15271)"><path id="i_00000120541299139755260080000009561709956522604982_" class="st9" d="m112.7 68.2-3-18.8L93.3 52l3 18.8 16.4-2.6z"/></g></g></svg>