<svg version="1.1" id="Layer_1" xmlns="http://www.w3.org/2000/svg" x="0" y="0" viewBox="0 0 832.1 867.1" style="enable-background:new 0 0 832.1 867.1" xml:space="preserve"><style>.st1{fill:#6ec6e4}.st2{fill:#333}.st4{fill:#6fc6e4}.st12{fill:#091313}.st13{fill:#fecbcb}.st14{fill:#33cb66}.st18{fill:#cba2a2}.st19{fill:#fdfdfd}.st21{fill:#25994c}.st23{fill:#c8c8c8}.st35{fill:#343330}.st37{fill:#cbcbcb}.st39{fill:#fe0000}.st41{fill:#656565}.st44{fill:#030303}.st46{fill:#fc0000}.st50{fill:#373737}.st65{fill:#160b0d}.st66{fill:#376372}.st67{fill:#1c1d1e}.st68{fill:#1a2123}.st69{fill:#1a1315}.st70{fill:#132429}.st72{fill:#11090b}.st74{fill:#111314}.st75{fill:#0e0f10}.st77{fill:#172125}.st78{fill:#121718}.st79{fill:#002697}.st83{fill:#cacaca}.st84{fill:#002492}.st92{fill:#001a6c}.st109{fill:#472300}.st121{fill:#666}.st122{fill:#5aa0b9}.st124{fill:#15181a}.st126{fill:#180b0d}.st127{fill:#151113}.st131{fill:#14252a}.st134{fill:#2e0000}.st135{fill:#151617}.st136{fill:#1d0e11}.st137{fill:#f4b1b1}.st138{fill:#130809}.st139{fill:#efa7a7}.st141{fill:#0e1314}.st142{fill:#060c0d}.st146{fill:#14252b}.st147{fill:#101d21}.st151{fill:#0f0c0c}.st155{fill:#fee1e1}.st156{fill:#131314}.st157{fill:#020c23}.st162{fill:#132227}.st163{fill:#f7b0b0}.st167{fill:#060c0e}.st168{fill:#5da7c0}</style><g id="aWAaEr.tif"><path d="M446.1 0c0 .3 0 .6.1.8-6 2.5-12.1 2.5-18.1 0 0-.3 0-.5.1-.8h17.9z" style="fill:#bfbfbf"/><path class="st1" d="M0 660.8c0-2 .1-4 .1-6V42.7c1-1.2 2.3-.7 3.4-.7h362.3c.8 0 1.7.1 2.5.1 1.3 1.8.4 3.5-.1 5.2-10.5 36.2 7.3 68.1 40 81.5 1.9.8 4.4 1.1 4.7 3.8.3 3-1.7 4.5-4.1 5.5-.8.3-1.6.6-2.4 1-.3.2-.7.4-1 .6l-.9.6c-.3.2-.6.4-1 .5l-.9.6c-.1.1-.3.2-.4.3-.4.4-.9.7-1.4 1-1 .6-1.9 1.4-2.7 2.3-2.6 2.3-5 4.8-7.2 7.4-1.5 1.6-3.3 2.8-5.3 3.6-7 2.8-10.4 8.7-9.7 15.3.9 8.6-1.2 16.5-2.8 24.6-7.7 38.4-14.6 76.9-20.8 115.6-1.4 8.8-3.6 18.6.2 27.9 1.1 1.9 2 3.8 3.1 5.6.4.5.8 1.1 1.3 1.6 2.3 2.4 4.7 4.9 7.3 7.1 1.3 1.4 3.6 2.4 1.7 4.9-8.4 3.6-17.4 3.9-26.2 5.7-7.8 1.7-15.7 2.4-23.6 3.8-4.8.9-10.1 1.5-10.8 7.7-.6 5.9 1.6 11.1 6.5 14.7 5.1 3.8 10.9 4.6 17 3.9.3 0 .6-.2 1-.2 13.4-2.3 13.7-2.3 18.8 10.3 1.6 4 4.1 7.6 5 11.9-2.5 6.2-2.5 6.2 3.1 10.2 2.3 1.6 3 4.3 4.2 6.5 1 2.2.4 4.2-1 6.1-5.7 7.6-11.6 15-17.2 22.6-2.6 3.5-5 2.2-7.6.4-12.1-8.2-25.2-14.6-39.6-17-46.4-7.5-84.8 5.8-112.7 45-13.6 19.2-21 40.6-20.3 64.1.8 28.2 9.7 53.8 29.7 74.2 18.7 19 41.2 31.4 68.1 34.5 3.8 1.4 8.3-.9 12.4 2.6-8.9 4.6-16.1 11-27.4 8.8-20.4-4-40.9-7.9-61.4-11.6-10.1-1.8-19.5-1.4-28.3 4.2-1.8 1.2-3.9 1.8-5.9 2.6-6.3 2.6-11.8 1.4-16.6-3.2-6.1-6-13.3-8-21.7-8.3-14.4-.6-27.8 2.4-40.2 9.7-1.9 1.1-4 1.8-5.8 2.9-7.7 4.9-15.3 3.8-21.8-1.6-10.4-8.6-22.3-10.4-35.1-9.9-2.9.2-5.4 2.5-8.5 1.6z"/><path class="st2" d="M0 660.8c3-2.2 6.3-3.2 10.1-2.8 2.8.3 5.7 0 8.5.1 8.8.2 16.7 2.7 23.4 8.5 3.7 3.2 8.1 4.7 12.6 6.2 2.2.8 4.3-.4 6.1-1.2 4.8-2.1 9.5-4.4 14-7 5.7-3.2 11.8-5.2 18.2-6.6 8.2-1.9 16.5-1.1 24.8-.8 5.7.2 10.7 2.8 14.8 6.8 1.1 1 2 2.3 3.3 3.1 3.5 2.2 7 3.7 11.5 2.1 3.7-1.3 7.2-2.9 10.7-4.6 3.1-1.5 6.2-2.8 9.5-3.8 1.5-.4 2.9-.8 4.3-.7 3.9.4 7.8 1 11.6 1.6 4.7.7 9.3 1.5 14 2.3 4.5.8 9 1.5 13.5 2.4 5.7 1.1 11.4 2.5 17.1 3.6 7.3 1.4 14.7 2.8 22.1 3.9 4.8.7 9.2-1.2 12.8-4 2.8-2.2 5.8-3.2 9-4.9h-9.2c-.9 0-2.1.4-2.6-.9 2.9-2.5 6.5-1.8 9.5-1.3 7 1.2 13.8 0 20.7-.8 8.2.9 15.4 4.3 23 7.3 12 4.9 24.9 4.5 35.7-4.8 7.9-6.8 17.3-9.5 27.4-11 13-1.9 25.9 0 38.8.9 6.5.4 12.7.3 17.4-5.2 7.4-8.8 17-12.5 28.4-11.6 1 .1 2 .1 2.9-.4 1.2-1 .9-2.4.8-3.7-.4-6.4 2.3-10.9 8-13.7 6.7-3.3 13.6-6.3 20.6-9.1 2.9-1.1 5.6-.7 8.1.9 3.8 2.3 6.9 5.3 8.8 9.4 1.8 3.9 4.3 4.1 7.6 2.2 1.6-.9 3.2-1.9 4.8-2.8 9.2-5.2 18.3-5.2 27.6 0 6 3.4 6 3.3 11-1.6 6.3-6.1 11.8-13.3 21.1-15.4 3.1.2 6.1.5 7.4 4-.4 1-1.3 1.5-2.3 1.7-7.6 1.8-13.5 6.2-18.6 11.9-2.5 2.7-5.4 5-8.1 7.4-3.1 2.7-6.1 2.7-9.6.9-3.5-1.8-6.6-4.6-10.8-4.9-5.6-.4-10.9-.1-15.8 3.4-3.3 2.3-6.9 4-10.9 5-3.6.9-6.2-.1-7.7-3.7-6.2-15.5-10.1-12-20.6-7-2.9 1.4-5.7 2.8-8.5 4.3-3.7 1.9-5.3 4.9-4.5 9 .5 2.6.7 5.3.4 8-.4 4.2-2.2 5.5-6 4-11.4-4.5-20.6-1.8-28.7 7.3-5.5 6.3-12.6 8.1-21.2 7.4-14-1.1-28.2-3.1-42.3-.6-7.5 1.3-14.4 3.7-20.5 8.6-15.2 12.1-32.7 13.1-49.3 3.1-.9-.5-1.7-1.2-2.7-1.3-12.1-1.8-24.3-3.8-35.5 3-7 4.2-14 5.3-22 4-21.7-3.5-43.2-8.3-64.9-11.7-6.7-1.1-12.9-.6-18.8 2.8-2 1.2-4.3 1.9-6.4 2.9-10.2 4.8-19 3-26.8-5.1-3.5-3.6-8.1-4.6-12.8-5-12.9-1.1-25.3.9-36.8 6.9-4 2.1-8 4.1-12 6.1-7.1 3.7-14.1 3.5-21-.3-1.5-.8-3.1-1.4-4.3-2.5-9.4-8.9-21-9-32.8-8.5-2.9 0-5.1 2.1-7.9 1.5-2-.7-2.4-2.2-1.9-4 .6-.4 1.3-.8 1.9-1.2zM832.1 538h-.5l-.5.1c-.7.7-1.4 1.5-2.3 1.8-5.5 1.5-8.5 5.6-10.4 10.6-1.9 5-5.4 7.7-10.7 8.4-7.9.9-12 7.3-17 12.2-1.2 1.2-2.1 2.6-3.1 3.9-5.4 6.3-10.8 12-20.6 9.5-5-1.3-9.3 1.4-12.9 5-3.3 3.3-6.2 6.9-9.3 10.4-3.9 4.5-8.6 5.2-14 3.5-12.4-3.9-24.2-3.5-34.8 5.2-2.9 2.4-6.3 3-9.9 2.7-5.8-.4-11.2.5-15.9 4.4-2.8 2.3-6.2 2.7-9.4 1-4-2.1-8.8-2.8-11.8-6.6 2.3-2.2 5.2-2.5 8.1-2.6 5.1 3.3 9.9 2.8 14.6-.9 2.8-2.2 6.3-2 9.6-1.8 5 .3 9.4-1 13.5-4 10.9-8.1 23-8.7 35.7-5.1 6.6 1.9 6.6 2 11-3.2 1.6-1.9 3.2-3.9 4.8-5.7 6.6-7.5 14.7-11.4 24.8-9.7 3.5.6 5.7-.3 7.7-3 2.6-3.5 5.4-6.7 8.2-10 5.3-6.2 11.4-11.2 19.9-12.4 3.6-.5 4.9-3.2 6-6 2.7-7 8.1-10.7 15-12.8 1.5-.5 2.9-.9 4.2.2.7.3 1.3.7 2 1v3c-.6.4-.9 1.6-2 .9z"/><path d="M407.1 138c.2-.7.9-.8 1.5-1 3.2-1.2 3.3-1.4 3.2-5.6-9.8-3-18.5-8.2-26.1-15.1-11.1-10-18.3-22-20.7-36.9-1.9-11.9-1.8-23.6 2.8-34.9.3-.7.3-1.6.4-2.4 3.2-5.5 6.2-11.2 10.2-16.2 6.7-8.5 15.1-14.6 24.9-18.9 7.9-3.5 16.3-4.8 24.7-6.1 6 .3 12.1.2 18.1 0 9.3.9 18.3 2.7 26.5 7.3 4.6 2.6 8.9 5.7 12.6 9.6 1.1 1.2 2.1 2.5 3 4 3.2 5.3 2.4 10.2-2.1 14.8 1.4 1.8 2.7 3.7 4.1 5.5 1.9 1.2 3.1 2.8 4.2 4.8 12.5 23.7 8.2 51.7-10.6 71-11.7 12-25.4 18.5-42.1 18.6-1.8 0-3.8-.2-4.8 1.9s-.7 4.2.8 6.1c1.1 1.3 2.2 2.5 2 4.4-.2.8-.6 1.4-1.3 1.7-4.2 3.8-8 7.7-6.2 14.4.8 3 .5 6.3-.3 9.4-.4 1.5-1 3.1-2.8 3-2-.1-2.1-1.9-2.2-3.4-.3-3-.1-6-.2-9-.1-3.5-1.3-5.8-5.3-5.6-4.7.2-8.7-1.7-12.5-4.4-3.2-3.4-5.8-7-4.4-12.1.1-.4.3-.8.6-1.2-.1-.5 1.2-.1.5-1-.3-.2-.6-.5-.8-.8-.1-.4 0-.7.3-1 .5-.5 1.5-.3 2-.9z" style="fill:#010100"/><path class="st4" d="M439.2 148.7c-.6-2.8-3.4-4-4.8-6.4 1.4-2-.2-4.8 1.7-7.1 2.1-.6 4.4-.2 6.7-.2 14.2-.4 26.6-5.4 37-15.1 5.1-4.8 9.7-9.9 13.1-16.1 2.9-5.2 4.8-10.7 6.1-16.5.8-3.5 1.1-7.1 1.1-10.8.2-12.5-3.3-23.9-9.9-34.5H832v491c-4.6.7-8.7 2.6-12.5 5.1-3.3 2.2-4.8 5.9-6.1 9.4-1.3 3.8-3.4 5.8-7.5 5.6-3.5-.2-6.1 2-8.9 3.6-3.5 1.9-6.3 4.9-8.8 7.9-4 4.6-7.6 9.4-11.6 14.3-1.3.3-2.8.2-4.2-.1-8.7-2.4-16.2.2-22.6 6.2-3.2 3-6 6.6-8.7 10.1-1.1 1.5-2.3 2.8-3.8 4-4.2-.6-7.9-2.8-12.1-3.4-5.1-.8-10.1-.7-15.2-.1-6.8.7-12.2 4.3-17.3 8.4-1.6 1.3-3.6 1.5-5.4 2.1-.5.1-1 0-1.5 0-3.8.2-7.8-.9-11.4.5-3.5 1.3-6.5 3.7-9.9 5.7-2.6-1-5.4-1.7-7.4-4 1.4-2.5 4.1-2.7 6.4-3.5 14.9-5.6 28.2-13.6 39.3-24.9 18.6-19.1 30.4-41.8 32.5-68.5 2.3-29.5-5-56.6-24.3-79.6-18.1-21.5-40.8-35.8-69-39.5-22.8-3-45.2-.3-66.2 10-9.5 4.6-9.8 4.9-13.3-5.1-6.3-18.1-17.3-33.7-27-50-3-5-6-10-9.1-14.9-1.5-2.4-3.3-4.5-5.3-6.5-3.8-3.9-6.1-8.4-3.9-14.4 3.4-9.4 6.8-18.8 9.9-28.3 1.6-5.1 5.4-8.5 9.9-10.7 8.3-3.9 10-6.6 8.7-15.8-.4-3-.7-6-1.7-8.8-3.8-9.9-12.9-14.8-24.2-12.9-2.8.5-5.5 1.2-8.3 1.9-4.8 1.2-9.6 1.3-14.2-.8-5.7-2.7-11.5-3-17.5-1.4-10.9 3-22.2 4.1-33.4 5.8-5.2.8-6-.2-5.2-5.3 1.7-10.3 3.3-20.7 5.4-30.9 2.8-13.6 1.8-26.8-1.7-40-.2-.7-.3-1.4-.4-2.1-.2-.7-.4-1.3-.6-2-1.2-4-3.8-7.3-4.7-11.4z"/><path d="M831.1 538.1v328.3c-1.2 1.1-2.4.6-3.5.6H.1c0-1.8-.1-3.7-.1-5.5V666c2.8-2.3 5.8-3.5 9.5-3.1 3.1.3 6.3.2 9.5 0 7.4-.3 13.8 2.1 19.4 6.8 3 2.5 6.5 4.4 10.1 5.9 4.7 2 9.6 2 14.3-.2 5-2.4 9.9-5.1 14.8-7.6 5.5-2.8 11.4-4.6 17.4-5.9 5.5-1.2 11.2-.9 16.8-1 4.2-.1 8.1 1.1 11.9 2.4 2.1.7 3.8 2.1 5.4 3.9 5.3 6 13.6 9.1 22.2 5.1 3.4-1.6 7-2.8 10.2-4.6 5.8-3.2 11.7-3.4 18.1-2.1 4.5.9 9 1.4 13.5 2.3 6.1 1.1 12.2 2.1 18.3 3.2 4.8.9 9.5 1.9 14.3 2.8 7 1.3 14 2.8 21.1 3.8 6.1.9 12.2.2 17.4-3.5 5.2-3.7 11-5.6 17.5-5.4 4 .1 8 0 12 .1 5 0 9.5 1.2 13.6 4.5 4 3.2 9.1 4.2 14.2 4.5 3.5.2 7 0 10.5.1 3.3.1 6.5-.9 9.5-2.1 5-2.1 9.6-4.9 13.6-8.6 3.9-3.6 8.8-4.9 13.6-6.2 9.7-2.6 19.7-2.5 29.5-1.8 4.9.4 9.9.6 14.8.7 2 .1 3.9.6 5.8.9 6.5.9 11.9-1.4 16.6-5.8 2.2-2.1 4.2-4.5 6.6-6.5 3.6-3 7.8-4.7 12.6-4.6 1.7 0 3.3.1 5 0 2.2-.1 4.1.2 6 1.7 1.3 1.1 3.1 2 5.4.9-.1-3.6.4-7.2-.6-11-1.3-4.7.3-7.9 4.7-10.1 5.9-3 11.9-6 18-8.6 3.2-1.4 5.3-.6 7.6 1.3 3.3 2.7 4.6 6.7 6.1 10.4 1.4 3.4 2.3 4.3 5.6 3.3 4.2-1.3 8.3-3.1 11.8-5.7 3.2-2.3 6.6-3.3 10.6-3.3 5.1 0 9.9.2 13.8 4 .6.5 1.4.8 2.2 1.1 5.5 2.4 4.2 3.2 8.9-.9 3.7-3.1 7.1-6.5 10.5-9.9 5.1-5.2 11-8.7 18.3-9.5.2 0 .4-.5.6-.7 6-1.3 11.1 1.9 16.6 3 6.4 6.2 13.6 7.2 21.6 3.1 1-.5 2.2-.5 3.3-.9.7-.2 1.4-.4 2.1-.7.7-.3 1.5-.5 2.2-.6 4.7.3 9.2-2.6 14-.9 2.5 1.4 5.6 1.5 7.9 3.4 2.4 2 5.4 2.1 8.1 3.4 2.6-1 4.9-2.4 7.1-4.1 2.3-1.8 5-3.2 8.2-2.7.6.1 1.3-.1 2 0 6.2.7 11.5-.7 16.4-4.9 4.5-3.9 10.2-5.8 16.4-5.2 1.7.1 3.3 0 5 0 3.4 0 6.8-.1 10 1.9 2.7 1.7 6 1.3 9.4 1.1 2.7-2.7 5.5-5.4 8.1-8.5 3.4-4.1 6.8-8.6 12.2-10.7.8-.3 1.4-.9 2.3-.8 4.8.1 9.6-.7 14.4 1.2 4.2-3.6 8.1-7.4 11.5-11.7 3.3-4.2 7.1-7.8 11-11.5 2.8-2.7 6.6-3.5 10.3-3.9 3.5-.3 5.8-1.9 7.1-5 .9-2.1 2.1-4.1 2.9-6.2" style="fill:#f8b51f"/><path d="M633 612.8c-.7.1-1.3.1-2 .2-4.6.8-9.1 2-13.8.8-.8-.3-1.7-.3-2.5-.3-3.2.1-6.1-.7-8.8-2.4-5.6-1.3-11.2-2.7-16.9-4-2.4-1-4.7-2-7.1-3-4 .3-7-2.1-10.1-3.8-34.9-19.6-54.8-49.4-58.8-89.2-3.1-30.5 6.2-57.5 25.2-81.4 4.5-5.6 9.3-10.9 14.8-15.5 2.1-1.7 3.1-3.5 1.5-6-5.9-9.3-13.6-17.1-19.9-27.2-7.6 13.3-12.9 26.4-19.9 38.6-.5.6-1.1 1.2-1.7 1.8-.2.3-.4.6-.7.9-.3.4-.5.9-.8 1.4-.1.3-.3.6-.5 1-.1.3-.3.6-.5 1-.1.3-.3.6-.5 1-.1.3-.3.6-.5 1-.1.3-.3.6-.5.9-.3.5-.5.9-.8 1.4-.2.3-.6.4-.9.5-.6-.2-.9-.6-1.1-1.1-.1-.3-.1-.7-.1-1.1 0-.4.1-.7.2-1 .2-.5.4-.9.7-1.4.1-.3.3-.6.4-.9.2-.4.5-.9.7-1.3.1-.3.3-.6.4-.9.2-.5.5-.9.7-1.4.1-.4.3-.7.5-1 .2-.6.5-1.1.7-1.7 6.2-12.7 12.6-25.3 18.9-38 1.2-2.5 2.3-4.9.4-7.5-.4-.7-.7-1.4-1-2.1-.1-.4-.4-.5-.7-.3.2.3.3.6.1.9-3.4 7.5-7 14.8-11 22-.3.5-.7 1-1.1 1.5-.2.3-.4.7-.6 1-.3.5-.6 1-.8 1.5-.2.3-.4.7-.6 1-.3.3-.6.5-.9.7-.2 0-.4.1-.6.1-.6-.1-1-.5-1.3-1-.1-.4-.2-.7-.2-1.1 0-.4.1-.7.2-1.1.2-.5.5-1 .7-1.4.1-.3.3-.6.5-.9.2-.5.5-.9.7-1.4.1-.3.2-.7.3-1 .1-.6.1-1.2.1-1.7-2.7-4.3-1.8-8.8-1-13.4 1-5.6-.2-6.6-5.3-4.8-3.4 1.2-6.6 2-9.9-.4-1.6-1.2-3.5.1-5.3-.1-.5-.1-.9-.3-1.3-.5-.3-.4-.4-.9-.4-1.3 1.7-3.5 5.5-4.2 8.3-6 4.1-2.6 8.4-4.8 12.6-7.1 5.7-3.1 5.7-4.2.9-9-4.7.9-8.2 4.1-12.3 6.3-5.2 2.8-10.1 6.3-15.6 8.7-.5.1-1 .1-1.5 0s-.9-.4-1.3-.7c-.2-.4-.3-.9-.3-1.4 3.1-4.1 8-5.7 12.2-8.3 4.1-2.5 8.2-4.9 12.4-7.4 1.3-.7 3.4-1.7 2.7-3.1-2-3.8-.3-7.8-1.6-11.6-.2-.4-.3-.8-.5-1.1-.1-.2-.2-.4-.3-.5-.2-.3-.4-.7-.6-1-.2-.3-.4-.6-.5-1-.2-.5-.4-.9-.7-1.4-.2-.3-.3-.6-.4-.9-.2-.4-.4-.9-.6-1.3-.2-.3-.3-.6-.4-.9-.2-.4-.4-.9-.7-1.3-.2-.3-.3-.6-.5-.9-.3-.5-.5-.9-.8-1.4-.2-.3-.4-.6-.7-1-.3-.3-.6-.6-.8-.9l-.5-.5c-.3-.4-.6-.7-.9-1.1-.3-.4-.6-.8-.8-1.3-4.4-8.1-4-9.7 4.5-13.5 1.9-.9 3.4-1.9 4.2-3.9 2.3-5.5 4.8-10.9 7.2-17.2-6.5-1.6-12.3-4.8-19.2-2.9-5.5 1.5-7.9-.6-7.3-6.4.2-2.3 1.2-4.6-.4-6.7-1.8-.9-3.7-.3-5.4 0-12.8 2.1-25.7 4-38.5 6-3.5.5-5 2.1-5.6 5.7-2.9 16.9-5.9 33.8-8.9 50.7-1.2 6.6-3.7 12.8-5.2 19.3-.3 1.5-1 2.8-2.7 3.3-.8-.2-1.4-.7-1.8-1.4-.7-3.3.7-6.2 1.5-9.3.7-2.8.3-4.5-2.8-5-19.5-3.5-39-7.2-58.5-10.5-3.3-.5-4.6.8-5.1 3.8-.9 5-.4 9.9.1 14.9-.3.8-.7 1.5-1.7 1.3-2.7-3.1-3.5-6.8-2.6-10.5.9-3.6 0-7.3 1.4-10.7.6-1.5-1.1-2.9-1-4.7.2-2.5.9-4.9 1.3-7.3 1.4-8.2 3.5-16.3 4.6-24.6.9-6.8 2.3-13.6 3.4-20.4 1.3-8.2 3.5-16.3 4.6-24.6 1.1-8.3 2.9-16.5 4.5-24.7 2.1-10.7 3.6-21.6 6.5-32.2.5-1.9.1-3.8-.3-5.9-1.5-6.7 1.6-16.1 8.2-19.6.4-.2.8-.7 1.3-.7 3.1-.2 4.9-2.5 7-4.3.2.1.4.1.6.2.3.2.7.5.9.8.2.1.3.3.5.4 4.6 1.8 9.5 3.2 12.7 7.3 4.8 6.3 3.8 14 4.6 21.2.6 5.6 1.5 11.2 1.3 16.9-.2 3.1-.5 6-3.7 7.6-1.6.8-1.8 2.2-1.7 3.8.7 10.1 1.4 20.3 2.4 30.4.3 3.2 1.8 3.8 4.6 3.4 7.1-1 14.1-2.3 21.2-3.4 2.6-.4 4.2-1.9 4.7-4.5 2.9-15.6 6.5-31 7.3-46.9.4-7.6-1.8-15.2-2.5-22.8.3-1.1.5-2.4 2.1-2.3 1.9 3.6 2.3 7.6 2.8 11.4.6 4.4 1.3 8.8 1.2 13.3-.1 6.8-1.4 13.4-2.5 20.1-1 6.6-2.3 13.2-3.5 19.8-.5 2.9-1 5.8-1.7 8.7-.2 1.1-.5 2.2 0 3.3 5.3-.9 10.6-1.9 16-2.5 7.8-1 15.5-2.2 23.1-4.3 5.7-1.5 11.2-1 16.3 1.6 4.6 2.4 9.1 1.9 13.8.8 4.8-1.2 9.5-2.2 14.5-2.3 8.8-.3 17.5 7.2 20 15.5 1.1 3.8 1 7.8 2 11.6.8 3.2-.4 6.2-3 8.5-2.3 2-3.9 5.2-7.8 4.6-.3 0-.8.1-.9.3-2.5 3.6-6.7 5.5-8.2 10.2-3.4 10.9-7.3 21.7-11 32.8.9 1.6 1.9 3.5 2.9 5.4.8 1.5.9 3.5 3.5 3.5.9 0 1.3 1.4 1.8 2.2l15.9 26.1c4.4 7.1 8.8 14.3 13.2 21.4 2.9 4.6 4.6 9.8 6.7 14.8 2.1 5 4.1 10 6.2 14.9 1.7-.1 2.9-1 4.1-1.7 10.2-5.5 21.1-8.6 32.3-11.2 12.1-2.7 24.1-2 36.1-1.4 9.3.4 18.3 3.4 27 7 10.4 4.3 20 10 28.8 17 10.4 8.3 19.2 18.1 26.1 29.6 6.3 10.5 10.5 21.8 13.1 33.7 2.4 11 3.2 22.3 2.1 33.6-1.3 13.3-4.6 26.1-10.6 38.1-4.3 8.7-9.6 16.8-16.1 24.2-2.3 2.6-4.5 5.3-7 7.7-12 12-26.2 20.3-42.2 25.7-1.2.4-2.5.8-3.7 1.2-2.8.6-5.5 1.3-8.3 1.9-4.8 1.1-9.7 2.1-14.7 2.1.1-.3-.2 0-.7.2z"/><path d="M291.2 663.1c-2.9-.4-5.7.8-8.5 1.2-3.3.5-6.1.5-9.4-.1-4.3-.8-8.9-.2-13.3-.1-5.2.1-10.1-1.4-15-2.6-16.1-3.9-30.1-11.9-43-22.2-12.4-9.9-22.4-22-29.3-36.4-4.9-10.2-8.1-21-9.8-32.3-.7-4.7-1.3-9.5-1.5-14.2-1-24.1 5.9-46 19.6-65.9 9.4-13.7 20.8-25.3 35.1-33.9 9.2-5.5 19.2-9 29.6-11.7 12.8-3.3 25.9-3.6 38.9-2.8 10.3.6 20.2 3.6 29.8 7.5 9 3.7 17.3 8.6 25.2 14.1 6.6-8.6 13.1-17.1 19.7-25.6 1.3-1.7 1.6-3.4.8-5.3-.8-1-.4-1.8.6-2.3 3.1.2 3.2 2.9 4.2 4.9l.6 1.8c.2.4.3.7.4 1.1.2.5.5 1 .8 1.6.2.3.4.7.6 1 .4.5.7 1 1.1 1.6 5.5 12.1 12.1 23.7 17.5 35.8.2.6.4 1.2.5 1.8.1.3.3.7.4 1 .2.5.4 1 .6 1.4.2.3.3.6.4.9.2.4.4.9.7 1.3.2.3.3.6.4.9.2.5.5.9.8 1.4.2.3.4.6.6 1 .4.5.7 1 1.1 1.5 6.1 12.8 12.5 25.3 18.8 38 5-3.3 5.1-4 2.8-8.8-15.5-32.2-30.7-64.6-45.9-97-.4-.9-.6-1.7-.6-2.7.1-1.4 1.8-2.7.4-4.3-2.9-1-5.1 2.9-8.1 1.3-.2-.4-.3-.9-.3-1.3.8-2.3.5-4.4-.6-6.7-2.3-4.6-4.1-9.4-6.6-13.9-.7-1.2-1.3-2.5-3-1.7-1.1.5-1.5 1.6-1.1 2.5 3.1 6.2 4.8 13.1 9.2 18.6.4.5 1.1.7 1.7 1 .3.4.4.9.4 1.4-.6 2-2.1 2.6-4 2.5-.8-.2-1.2-.8-1.4-1.6-4.1-7.5-6.9-15.6-11.3-23-4-.4-7.8.9-11.7 1.4-4.8.7-9.5.6-14.1-1-6-2.1-9.7-6.3-11.6-12.4-2.7-8.5.9-13.6 8.8-15 7.3-1.3 14.6-2 21.9-3.2 6-1 11.9-2.2 17.8-3.3 4.3-.8 8.6-1.7 12.9-2.6.5-.4.8-1.2 1.6-1.3.7.1 1.4.4 1.7.9 5.9 10.6 16.7 16.1 25.2 24.1 2.4 2.3 5 4.3 7.6 6.4 15.8 13.5 32.1 26.5 47.7 40.1 1.4 1.2 2.7 2.9 4.4 3.2 5.7 1.1 4.6 4.2 3 7.9-1 2.3-1.2 4.8-2.3 7.1-6.9 19.9-13.2 40-20.4 59.9-1.2 3.3-.8 5.4 2.8 6.4 2.7.7 5 2.6 8 1.9 4.9-7.4 7.6-15.9 11.3-23.9 6.7-14.3 12.6-29 19.4-43.3 2.8-5.8 3.1-11.8 2.6-18-.2-1.9-.9-3.6-2.1-5-8.9-10.1-18.9-19.1-28.8-28.2-12-11.1-24.2-21.8-35.9-33.2-3.1-3-6.2-6-9.6-8.8-1.9-1.5-3.8-3.4-2.2-6.5 4.4.8 6.7 4.4 10.2 6.2.6.4 1.1.9 1.6 1.5 5.6 6.1 11.5 11.9 17.6 17.4 3.7 3.3 7.3 6.7 10.8 10.2.8.8 1.5 1.6 2.3 2.3.7.5 1.5 1 2.2 1.5 3.9 5.6 8.2 1.6 12.3.5.5 0 1 .1 1.4.3.7.4 1 1 1 1.8-.7 2.7-4.3 2.5-5.5 5.7 5.8 4.8 10.6 10.9 16.7 15.8 3.9 3.2 7 7.1 10.3 10.7 5 5.6 4 12.8 2.6 19.5-2 9.2-7 17.2-10.6 25.8-5.9 14.1-12.3 28-18.8 41.8-.6 1-1 2-1.4 3.1-.5 1.1-1.2 2.2-1.7 3.3-.2.4-.4.7-.5 1.1-.2.5-.4 1-.7 1.3 0 0 .4.1.4 0 0-.4.1-.7.3-.9.2-.3.3-.7.5-1 .5-1.1 1.1-2.1 1.7-3.2.5-.9.8-2 1.3-2.9 2.5-5.1 4.6-10.4 7.6-15.3.5-.6 1.1-1.1 1.6-1.7l.6-.9c.3-.4.5-.9.7-1.4.1-.3.3-.6.5-.9.1-.3.3-.6.5-1 .1-.3.3-.6.5-.9.1-.3.3-.6.5-.9.1-.3.3-.6.5-.9.3-.5.5-.9.8-1.4.3-.3.6-.4.9-.5.6.2.9.6 1.1 1.1.1.4.1.7.1 1.1 0 .4-.1.7-.2 1.1-.2.5-.5 1-.7 1.5-.1.3-.3.7-.5 1-.1.3-.3.6-.5 1-.1.3-.3.6-.5 1-.1.3-.3.6-.5.9-.1.3-.3.6-.5.9-.2.5-.5.9-.7 1.4-.1.3-.3.7-.4 1-.2.6-.4 1.1-.5 1.7-.4 1.2-.9 2.3-1.7 3.4-.3.5-.7.9-1 1.4l-.6.9c-.3.5-.5.9-.8 1.4-.1.3-.3.7-.5 1-.2.3-.3.7-.5 1-.1.3-.3.7-.5 1-.2.3-.3.7-.5 1-.1.3-.3.7-.5 1-.2.3-.3.7-.5 1-.1.3-.3.7-.5 1-.2.3-.3.7-.5 1-.1.3-.3.7-.5 1-.2.3-.3.7-.5 1-.1.3-.3.7-.5 1-.2.3-.3.7-.5 1-.1.3-.3.7-.5 1-.2.3-.3.7-.5 1-.1.3-.3.7-.5 1-.1.3-.3.6-.5.9-.1.3-.3.6-.5.8-.5.5-.6-.3-.3.3.1.2.6.2.9.3.4.1.7.3 1 .5 1.3.8 2.5 1.3 3.8.1.4-.4.7-.8 1-1.3.2-.3.3-.6.5-.9.3-.4.5-.9.7-1.3.1-.3.3-.6.4-.9.2-.5.5-.9.7-1.4l.6-.9c.3-.3.6-.5.9-.6.2 0 .4 0 .6-.1.6.2 1 .6 1.1 1.2v.6c0 .2-.1.4-.1.5l-.6 1.5c-.1.3-.3.6-.5.9-.2.4-.5.9-.7 1.3-.1.3-.3.6-.5.9-.2.5-.4.9-.6 1.4-.1.4-.2.7-.3 1.1-.2.8-.2 1.6 0 2.4 2.2 4.7 5.4 8.7 7.8 13.4 1.2 2.5 1.9 4.9 1.6 7.6-1 10.4-3.9 19.5-11.7 27.3-9.3 9.4-27.9 11.2-37.6 5.3-10.1-6.1-21.5-8.9-32.2-13.4-.9-.4-1.9-.7-2.9-.2-1.3 1.2-1.4 2.9-1.7 4.5-5.3 33-23 58.1-49.9 76.9-11.5 8-24.4 13.5-38.6 15.4-1 .2-2.7.5-4.3-.2z"/><path d="M353.2 417c.8.1 1 .7 1 1.3.4.9.1 2 .6 2.9 2 2.3 3.5-.1 5.1-.5 2.4-.6 4.2-3.2 7.1-1.7.3.7.7 1.3 1 2-.3.6-.5 1.4-1.1 1.6-4.3 1.2-6.2 4.1-5.9 8.4-1.3.2-.9 1.2-1 2-1.3-.4-1.3-1.8-1.8-2.7-.5-1-1.5-1.8-1.3-3.2h-4.1c-1.7-2.3-2.3-4.8-2.9-7 .5-2.1 2.7-1.7 3.3-3.1z" style="fill:#0d0405"/><path d="M391 150.9c1.7-2.9 4.3-5 7-7 .2.1.5.2.7.2.4.3.6.7.8 1.2 0 .2 0 .5-.1.7-1.9 2.6-3.3 5.8-7.3 6h-.1l-.9-.9-.1-.2z" style="fill:#06160e"/><path d="M363 354.1c-2.8-1.9-5.1-4.2-7-7 .1-.2.2-.4.2-.7.3-.4.7-.6 1.2-.7.2.1.4.1.7.2 2.1 1.7 3.7 3.9 5.8 5.6.3.4.4.8.5 1.2-.1.4-.4.8-.7 1.1-.2.1-.4.2-.7.3z" style="fill:#030813"/><path d="M403.1 140.1c.2-.2.5-.2.8-.2.4-.3.9-.2 1.3.1.2.4.3.8.1 1.3-1.4 2.2-3.2 3.9-6.1 3.7l-.9-.9-.2-.2c.6-1.1 1.5-1.9 2.8-2 .6-.1 1-.5 1.3-.9.2-.3.5-.6.9-.9z" style="fill:#081610"/><path d="M352.1 341c.6 0 1-.4 1-1 2.9.2 2.9 2.5 3.4 4.5-.1.8-.6 1.2-1.4 1.4-1.6-1.2-2.2-3.1-3-4.9z" style="fill:#01091c"/><path d="M367.1 357c-.1.7-.4 1-1.1.9.1-.8.3-1.6-.9-2-.9-.3-1.7-.9-2.1-1.9l.1-.2c.3-.3.6-.5.9-.8h.1c1.1-.5 1.9.1 2.6.8.8 1 1.5 2 .4 3.2z" style="fill:#0c1928"/><path d="M355.1 345.9c0-.6.4-.9 1-.9.9-.2 1.2.1 1 1h-.1l-.9.9-.1.1c-.6-.1-.9-.5-.9-1.1z"/><path class="st12" d="M407.1 138c-.1 1.4-1.2 1-2 1 .2-1.1 1.1-1 2-1zM402 140.9c0 .9-.5 1.1-1.3.9.3-.5.7-.8 1.3-.9zM403.1 140.1c-.1.6-.4.9-1.1.9.1-.6.5-.9 1.1-.9zM405.1 140c-.4 0-.8-.1-1.3-.1.2-.6.6-.9 1.3-.9v1z"/><path class="st4" d="M291.2 663.1c6.5-.3 12.5-2.3 18.5-4.4 15.3-5.3 28.8-13.3 40.3-24.9 9.4-9.5 17.4-19.8 23.3-31.8 4.9-9.9 8.4-20.2 9.7-31.2.3-2.3.9-4.5 1.3-6.8 2.1-.2 3.8 1 5.6 1.6 7.1 2.5 14.1 5.2 21.1 7.8 2.8 1 5.5 2.1 7.9 3.9 9.7 7.1 26.8 6 34.9-.3 7.4-5.7 12.9-12.5 14.2-22.2.4-3.1.2-6.3 1.5-9.2.6-1.4-.2-3-.8-3.7-3.6-4.5-4.7-10.6-9.6-14.1.3-1.1.5-2 .7-2.9.6-.5.4-1.4 1-2 .6-.5.4-1.4 1-2 .6-.5.4-1.4 1-2 .6-.5.4-1.4 1-2 .4-.4.5-.8.5-1.4 0-.4.1-.7.2-1 .1-.3.3-.7.4-1 .1-.3.3-.6.5-1 .1-.3.3-.6.5-1 .1-.3.3-.7.5-1 .2-.5.5-1 .7-1.5.1-.4.3-.7.5-1.1.2-.6.5-1.2.8-1.8 11-22 21.7-44 33-65.8.4-.5.7-1 1.1-1.5l.6-.9c.3-.4.6-.9.8-1.4.1-.3.3-.6.5-.9.2-.4.5-.9.7-1.4.1-.3.3-.6.4-.9.1-.3.3-.6.5-1 .1-.3.3-.6.5-1l.6-.9c.2-.3.5-.5.8-.7.6-.5.4-1.4 1-2 .6-.5.4-1.4 1-2 .6-.5.4-1.4 1-2 .6-.5.4-1.4 1-2 .6-.5.4-1.4 1-2 3.3-4.7 5.3-10.1 8-15.1 4.1-7.9 8-15.8 12-23.7.4-.7.8-1.4 1.5-2.6 4.2 5.6 7.9 11.2 12 16.4 4.1 5.3 9 10.1 11.2 16.7-2 2.6-5 4.2-7.4 6.5-9.4 9.2-17.1 19.6-23.5 31-5.7 10.1-9.2 20.9-11.6 32.1-1.4 6.8-1.4 13.8-1.3 20.8.2 19.2 4.8 37.4 14.2 54.1 6 10.7 13.8 20 23.2 28.1 9.4 7.9 19.5 14.4 30.5 19.8-.4 1.4-1.8 1.5-2.7 1.8-3.8 1-6.8 3.3-9.5 5.9-3.5 3.4-6.8 6.8-10.3 10.2-1.2 1.1-2.1 2.6-3.9 3.2-1.6-.3-2.9-1.3-4.2-2.2-9.8-6.6-19.9-6.8-29.9-.6-3.1 1.9-6.3 3.4-9.9 4.7-.9-1.8-1.8-3.7-2.7-5.6-1.7-3.3-4.3-6-7.2-8.1-2.3-1.7-4.9-2.9-8.1-1.4-7.7 3.5-15.6 6.4-23 10.7-4.5 2.6-4.8 6.4-4.8 10.7 0 2.1.2 4.2.3 6.6-6.6-1.4-12.9-1.3-19.1.6-4.5 1.4-8.2 4-11.4 7.4-2.4 2.5-4.6 5.3-7.8 6.8-1.8.9-3.6 1.4-5.7 1.4-8.4-.1-16.8-1.1-25.3-1.3-4.1-.1-8.2-.9-12.3-.6-10.1.7-20.1 1.8-29.2 7-1.4.8-2.8 1.6-4 2.8-3.8 4.1-8.8 6.2-13.7 8.5-.3.1-.6.4-.9.4-7.8.1-15.6.9-23.2-1.1-1.2-.3-2.4-1.2-3.3-2-4.5-4-10.1-5-15.8-5.8-.6 0-2.1 1-2.9-.7z"/><path class="st13" d="M491 48.9c-2.2-.7-4.3-1.5-6.5-2.2-7.6-2.4-15.2 1.4-18.5 7.6-3.6 6.7-2.2 16 3.3 20.4 10 8 23.2 4.4 27.4-8 2 15.6-.6 29.6-10 41.9-6.5 8.6-14.4 15.5-24.5 19.6-2 .8-3.9 1.9-6.1 1.7-16.5.9-31.2-4.4-45.1-12.6-5.7-3.3-11.7-6.4-15.4-12.3-1.1-1.6-2.7-3.1-1.6-5.4.1-1.1-.2-2-1.2-2.6-1 0-1.2.8-1.6 1.5-2.6 3.9-7 4.5-9.9 1-3.3-4-5.5-8.6-5.3-14 .1-3.4 1.6-4.7 5-4.8 5 0 8.1 2 9.9 6.5.4.9.2 2 1.2 2.7l.5.5c2.2-1.3 4.8-1.7 6.6-3.8.7-1.8-.7-3.2-.9-4.8-.4-2.6-.5-5.2 1.9-6.8 2.6-1.7 2.8-3.8 2-6.4-1.8-5.8-.8-11.5 1.3-17 .8-2 1.5-4.1 3.9-4.9 3.4-3.4 6.9-6.7 11.7-8 3.3-.9 6.7-1.4 10.1-2.1 7-1.3 14-1.8 21.1-2.1 7.1-.3 14.2-1.4 21.3-.9 1.5.1 3 0 4.5.1 4.2.3 7.3 2.3 9.4 6.5-5.2.9-10.3.1-15.1 1.8-.3 1 0 1.7 1 1.6 4-.1 8 .3 11.9-.6 1.5-.4 2.9-.3 4.5-.3 1.4 2 2.3 4.1 3.2 6.2 0 .1 0 0 0 0z"/><path class="st14" d="M445.1 165.1c-.1 3 .9 5.8 1.5 8.6.3 1.6.3 3.2.5 4.9.2 2.1-.1 4.2.8 6.3.7 1.7.7 4.1 0 5.9-1.4 4.1-.4 8.4-1.7 12.6-1.3 4.5-1.2 9.4-2.3 13.9-1.3 5.1-1.7 10.2-2.7 15.3-.5 2.2-2 4.3-.7 7-11.2 2.5-22 3.9-32.6 5.5-1-.8-.8-1.5-.8-2.1-.5-7.5-.7-15.1-1.9-22.5-.2-1.1-.2-2.3 0-3.5.6-4.3-1.2-8.4-1-12.6 6-.8 5.9-.8 5.9-7.1 0-6.9-.9-13.7-1.9-20.5-.2-1-.1-2-.1-3 .5-5.5-1.3-10.3-4.1-14.8.7-2.8 1.7-5.2 5.2-5.1 5.2 3.7 11 4.9 17.2 3.9 3.1 6.3 1.1 12.8 1.9 19.2 3.6-2.5 4-11 1-19.8 3.2-2.3 7.1-4.1 7-9.1 1 .5.7 1.8 1.8 1.8 4.4 4.1 6.1 9.5 7 15.2z"/><path d="M369 50c1.1-7 4.6-13 8.5-18.7 8.5-12.4 20.3-20.6 34.7-24.8 4.4-1.3 9-1.9 13.5-2.7 5.3-.9 10.6-.8 15.8-.7 9.9.3 19.6 1.9 28.5 6.5 5.8 3 11.4 6.6 15.1 12.3-1 3.4-3.9 2.5-6.1 2.5-13.8.1-27.7 0-41.5.1-7.3 0-14.6.9-21.9 2.1-7.6 1.3-13.9 7.8-14.8 15.6-.6 4.6-.7 9.3.2 13.9.3 5-.2 10 1.2 14.8.4 1.4-.2 2.7-1.4 3.5-3.5 2.1-4 5.1-2.7 8.6.4 1.3.1 2.3-1.1 3-1.2-.2-2.1.8-3.5 1.2-1.5-4.8-4.4-8-9.6-8.4-7.5 1-10.1-3.9-11.6-10-1.4-6.1-3.3-12.3-3.3-18.8z" style="fill:#fecb00"/><path d="M400.2 57.1c-.2-1.1-1.2-1.8-1.1-3.2.2-3.8-.2-7.7.1-11.5.3-4.7 2.8-8.5 5.9-11.9 3.1-3.5 6.9-4.9 11.4-5.6 21.1-3.3 42.2-1.4 63.3-1.9h4c.8 0 1.2-.4 1.4-1.1 2.7 2.5 2.1 5.7 1.9 8.7-.1 1.9-1.5 2.8-3.6 2.3-5.9-1.4-12.1-2.6-18-1.7-6.9 1.1-13.8-.2-20.6 1.6-2 .5-4.3.1-6.5.2-7.4.3-14.6 2-21.5 4.2-4.4 1.4-8.6 4.1-10.8 8.7-2.4 3.6-2.1 8.5-5.9 11.2z" style="fill:#cba200"/><path d="M369 50c.5.1 1 .3 1.1.8 1 7.1 2.6 14.1 4.8 21 .6 2 2.3 3.1 2.7 5.1.2.9 1.4 1.1 2.5 1.2 1.3.1 3-1 4 .8-1.5 0-3 .1-4.5.1-4.1.1-6.3 2.2-6.5 6.3-.1 2 .2 3.8.8 5.8 1.1 3.5 2.9 6.6 4.7 9.6 1.8 3.2 5.2 3.8 8.9 3.2 4.8 9.3 12.5 15.9 20.6 22.1.3.2.4.5.3.7-.1.2-.2.3-.3.3-6.1-1.6-11.2-5.2-16.2-8.8-9.2-6.5-15.9-15.1-20.4-25.5-2.4-5.5-4.2-11.3-4.4-17.4-.1-3-1.2-5.7-1-8.8.4-5.5 1.1-11 2.5-16.4 0 0 .2-.1.4-.1z" style="fill:#caa200"/><path class="st18" d="M394 99.9c1.7 4.6 4.8 8.4 8.7 10.9 5.4 3.5 10.6 7.3 16.5 9.8 4.1 1.8 8.1 3.9 12.4 5.1 3.2.9 6.5 1.6 9.8 2.2 4.9 1 9.9 1.5 14.8 2.1-2.6 1.3-5.4 1.9-8.3 2-4.5.1-9 .2-13.5.1-5.6-.2-10.9-1.5-16.1-3.9-6.3-2.9-12.2-6.5-17.3-11.1-4.3-3.8-8-8.3-10.8-13.7 2-.4 2.5-2.4 3.8-3.5z"/><path class="st19" d="M477.1 59.1c5.5-.4 11-.8 16.5-1.1 2.5 8.1-1 15.5-9.4 18-6.5.4-14-8.8-12-14.7.9-2.6 3.3-1.2 4.9-2.2z"/><path d="M415.5 132.3c5.7 1.3 11.7.5 17.5 2.9.2 2.9-.6 5.7-1.8 8.4-2.2 5.2-6.3 7.1-11.4 5.4-4.6-1.5-7.3-6.4-6-11.3.4-1.6-.2-3.4 1-4.8.2-.2.5-.4.7-.6z" style="fill:#fccaca"/><path class="st21" d="M409.2 153.9c-2.5 1-3.4 3.6-5.2 5.1-3.9-2.6-7.6-5.5-12.8-5 .4-.8.6-1.4.9-2 2.7-2 5-4.3 7-7 2-1.3 4-2.7 6-4l.4.1c.1.3.2.6.4.8-1.4 2.6-1.1 5.2.4 7.6.9 1.6 1.9 3 2.9 4.4z"/><path d="M408 148.3c.5-2.5-1.2-5.5 2.4-7.7.9 3.6 2.4 6.7 4.8 8.8 2.6 2.3 6.1 3.2 9.6 2.5 3.3-.7 5.7-3.3 8.9-5.3-.2 4.3-1.7 7.1-5.3 8.2-6.9 2.2-13.1.9-18.3-4.2-.6-.7-1.3-1.4-2.1-2.3z" style="fill:#25944a"/><path class="st23" d="M477.1 59.1c-.3.7-.8.9-1.5.9h-2.4c-.5 5.3 1.4 9.6 5.2 13 1.6 1.4 3 3.6 5.8 3-2.5 2.1-5 .4-7.4-.1-5.8-1.2-10.2-6.8-10.5-12.7-.1-2.2.3-2.7 2.5-3.4 2.7-.8 5.5-.9 8.3-.7z"/><path d="M400.2 57.1c1.9-2.6 1.9-6 3.8-8.7.7-.9 1-2 2.1-2.5.1.7.5 1.1 1.2 1.1-2.5 4.1-4 8.6-4.8 13.3-.6 3.4.6 6.5 1.3 9.7.3 1.3.6 2.5.6 3.1-.4 1.8-1.3 2-2 2.4-3.2 1.9-3.9 3.4-2.9 6.8.3 1.1 1 2.1 1.5 3.2-.5.5-.7 1.5-1.7 1.5-.2-1.3-1.2-.9-1.9-.9.2-.6.8-1.3.6-1.7-2.5-7.5-2.5-7.5 4-11.8-2.7-5-1.9-10.3-1.8-15.5z" style="fill:#090703"/><path d="M479.1 49.1c2.7-.5 5.2.1 7.7.9 2.7.9 4.2 2.8 5.5 5.5-4.3.7-8.2.4-12.1.6-2 .6-4.1.6-6.3 0 .1-3.7 2.3-5.6 5.2-7z" style="fill:#f9c7c7"/><path d="M479.1 49.1c-1.6 2.2-3.3 4.4-5.2 7h6.4c-.3.7-.9.8-1.6.8h-10.4c2.1-5.7 4.9-7.8 10.8-7.8z" style="fill:#c69e9e"/><path d="M445.1 165.1c-2-4.5-4-8.9-6-13.4-.3-.6-.6-1.1-.9-1.7.8 0 1-.6 1.1-1.2 3.1 3.2 4.4 7.3 6 11.3.2.3.5.7.7 1.1 0 .6.1 1.3.1 1.9-1.4.1-.9 1.2-1 2z" style="fill:#07140e"/><path d="M413 128.1c.9 0 1.3.7 1.8 1.4-1 1-1.5.6-1.8-.5-.3-.2-.5-.4-.4-.6.2-.2.3-.3.4-.3z" style="fill:#2f2500"/><path d="M408.1 127v-1c.7.3 1.3.7 2 1 .3.2.3.4.3.6-.1.2-.2.3-.3.3-.8.1-1.8.3-2-.9z" style="fill:#be9700"/><path d="M413 128.1c0 .3.1.6.1.9-.8 0-1.8.5-2-.9.6-.1 1.3-.1 1.9 0z" style="fill:#7f6500"/><path d="M405.1 141v-1c.6.1 1.3 0 1.7.3.3.2-.2.7-.7.7-.3.4-.6.4-1 .1v-.1z" style="fill:#16592c"/><path d="M405.1 141.1c.3-.1.7-.1 1-.1 0 .3 0 .7-.1 1-.6-.1-.9-.4-.9-.9z" style="fill:#2cb159"/><path d="M491 49c.3.1.7.2.8.4.2.3-.1.5-.4.4-.2-.2-.2-.6-.4-.8 0-.1 0 0 0 0z" style="fill:#4f3f3f"/><path d="M410.1 128v-.9c.7 0 1 .3 1 1-.4-.1-.7-.1-1-.1z" style="fill:#987a00"/><path class="st14" d="M445.9 161.1c-.5-.1-.8-.5-.7-1.1.6.1.9.5.7 1.1z"/><path class="st35" d="M606 611.1c3 1.1 6.1.9 9.1 1 .7.6 1.3.6 1.9 0 1.3.8 2.6 1 4.1 1 3.3-.1 6.6 0 9.9 0-4.7 2.3-9.9 3.1-14.8 4.8-.4.2-1.1-.5-1.7-.7-3.2-1.5-6-3.6-8.5-6.1zM633 612.8c.2-.7.6-.8 1.2-.7-.2.6-.5.9-1.2.7z"/><path class="st4" d="M440.1 384c-8-7.2-16-14.3-23.6-21.9-1.3-1.3-2.5-2.7-4.1-3.5-.9-.5-1.5-1.3-1.3-2.5.4-1.2 1.4-1.9 2.4-2.6.5-.4.9-.8 1.4-1.2.8-.8 1.6-1.5 2.3-2.3l1.3-1.3c.5-.5 1-1.2 1.7-1.4 1.9-1.5 1.6-3.8 2.2-5.8 1.4-4.9 3-9.7 4.2-14.6 1.1-4.4 1.7-9 2.5-13.5 1.2-6.9 2.5-13.9 3.7-20.8 1.1-6.3 2.4-12.6 3.2-18.9.3-2.2 1.1-4.1 1.2-5.9 17.4-2.1 34.3-5.4 51.7-7.8.3 3.3 1 6.4-.4 9.4-.1.3-.3.6-.3.9 0 1.5-.7 3.1.9 4.2 1.5 1 3.1.7 4.7.1.3-.1.6-.4.8-.6 1.3-1.4 3.6-1.5 4.6-.9 4 2.3 8.8 1.2 12.7 3.3 1.3.7 2.6.2 3.9 1-3.4 7.9-6.8 15.8-10.1 23.5-1.2.3-1.8-.6-2.8-.7-2.5 1.7-5.1 3.4-7.8 5.2 1.8 3.3 3.5 6.5 5.2 9.6.2.4.4.7.8 1 .4.4.7.7.9 1.2 0 .3.1.5.2.8.3.4.7.7.8 1.2 0 .3.1.6.2.8.3.4.6.7.8 1.1 0 .3.1.6.2.9.2.4.5.7.8 1.1 0 .3 0 .6.3.9.2.4.4.7.8 1 .1.3.2.7.3 1 .2.4.4.7.8 1 .3.4.7.7.8 1.3.2 1.7 1.4 2.9 2 4.4.3 1.5-1.8 1.2-1.9 2.6-.1 1.3.8 2.1 1.3 3.1.5 1.3 2.2 2.1 1.7 4.1-9.6 5.8-19.3 11.6-29 17.5-.2.3-.4.5-.7.8-.2.2-.5.5-.8.7-.1.1-.3.2-.4.3-.3.2-.5.4-.8.6-.3.2-.6.3-.9.5-.4.2-.9.4-1.3.7-.3.2-.6.3-.9.5-.4.3-.9.5-1.3.8-.4.3-.8.6-1.3.8-.4.3-.9.5-1.3.7-.3.2-.6.3-.9.4-.4.2-.9.4-1.3.7-.3.2-.6.3-.9.5-.4.3-.9.5-1.3.9-.4.3-.8.6-1.3.9-.5.3-.9.5-1.4.8-.3.2-.6.3-.9.5-.5.3-.9.6-1.3.9-.4.3-.9.6-1.4.9l-1.5.9c-.3.2-.7.4-1 .6-.5.3-1 .7-1.5 1.1-4.1 2.3-8.2 4.8-12.2 7.2-.5.3-1.1.6-1.7.9-.3.2-.7.3-1.1.5-.5.2-1.1.5-1.6.6-.4-.3-.7-.4-1-.7z"/><path d="M357.1 346c0-.6-.4-.9-1-1-1.1-1.6-1.4-3.7-3-5-2.6-7-1-13.9.3-21.3 23.4 3.8 46.5 8.2 69.8 12.5-1.8 5-2.8 9.9-4 14.7.5.8-.1 1.5-.4 2.1-.2.3-.5.6-.8.9l-.4.4-.8.8-.4.4-.8.8c-.4.4-.8.8-1.3 1.2-.4.4-.8.9-1.3 1.2-.8.8-2 .5-2.8 1.1-.6-.1-1.4.2-1.9-.4-2.1-2.6-5.2-4-7.6-6.4-1 1.2-.8 2.2.1 3.1.8.8 1.6 1.7 2.5 2.4 5.3 3.8 9.3 9 14.2 13.2 6 5.2 11.3 11.1 17.7 15.9.3.2.5.5.7.7 5.2 5.4 10.9 10.1 16.3 15.3 6.1 5.9 12.7 11.1 18.5 17.4 1.1 1.2 2.7 2 2.5 4.1-.1.9.9 1.6 1.6 1.7 4.2.7 5 4.2 5.3 7.2.7 7.1-.2 13.8-3.6 20.5-5.4 10.7-9.5 22-14.5 32.8-3.1 6.8-6.1 13.6-9.2 20.4-1.8 4.1-3.7 8.3-5.7 12.4-.2.4-.6.7-1 1-6.5-2.7-9.2-7.7-8-15.2 1.2-7.6 3.8-14.8 6-22.1 3.4-10.9 7-21.8 10-32.8.9-4.2 2.1-8.4 4-12.2-1.4-1.6-2.2.3-3.1.2-18-15.1-35.9-30.1-53.8-45.1-1.5-3.4-4.4-5.7-6.8-8.4-7.7-8.7-14-18.1-16-29.9-.5-3.3-.6-6.6 0-10.2-5.3.5-7.6 4-9.4 7.9-.9 1.9-.7 4.3-2.8 5.6-.7-.3-1.3-.7-2-1-2.8-1.9-5.1-4.3-7.1-6.9z" style="fill:#0033cb"/><path class="st2" d="M572.5 413.8c-1.1-2.3-2.2-4.3-3.3-6.6 5.3-3.2 10.8-6.1 16.7-8.1 5.9-2 11.9-3.9 18-4.9 3.5-.6 7-1.2 10.7-1.4 4.1-.2 8.1-.9 12.2-.8 6.2 0 12.3 1.2 18.4 1.9 6.5.7 12.5 2.8 18.5 5.1 9.7 3.7 18.9 8.3 26.9 15 4.8 4 9.7 7.8 14.1 12.2 7.4 7.5 13.3 15.9 18.1 25.3 4.6 8.9 7.2 18.4 9.4 28.2 2.7 11.8 2 23.7 1.6 35.4-.3 8.4-2.9 16.7-6 24.6-3.6 9.2-8.6 17.6-14.5 25.6-4.4 6-9.3 11.5-14.7 16.6-5.3 5.1-11.3 9.2-17.5 13.2-8.5 5.5-17.9 8.7-27.4 11.4-4.9 1.4-10.1 2.1-15.2 2.7-7.1.8-14.2.9-21.2.7-5.5-.1-10.9-1.4-16.3-2.4-6.9-1.2-13.3-3.7-19.5-6.7-5.8-2.8-11.7-5.4-16.8-9.5-3.4-2.8-7.3-4.9-10.5-7.8-4.8-4.3-9.7-8.8-13.7-13.8-5.5-6.9-10.3-14.4-14-22.6-3.5-7.8-6.1-15.8-7.6-24.2-1-5.6-1.8-11.2-2.1-16.9-.2-3-1.3-6.2-.7-9.2 1.4-6.5-.1-13.4 2.9-19.6 1.6-12.7 11.4-30.6 19.2-41.2 5.4-7.2 11.8-13.3 18-19.7.6-.6 1-1.3 2-1.3h1.2c.9 1.9 2.4 3.7 2.7 6.2-.5.5-.9 1.3-1.6 1.7-4.2 2.5-6.7 6.6-10 10-5.4 5.5-9.6 11.9-13.5 18.5-3.9 6.7-7.1 13.7-9.2 21.1-1.3 4.7-2.1 9.4-3 14.1-1.2 6.6-.7 13.2-.8 19.7-.1 5.5 1.2 10.9 2.3 16.3 1.4 6.9 3.9 13.5 6.4 20.1 2.6 6.6 6.5 12.2 10.4 17.9 4.7 6.9 11.1 12.3 17.1 18 3.5 3.3 7.7 5.9 11.9 8.4 2.5 1.5 4.9 3 7.5 4.4 6.5 3.6 13.4 6.3 20.5 8.1 5 1.3 10 2.7 15.2 2.6 5.2-.1 10.3 0 15.5 0 7.7 0 15-1.8 22.4-3.6 5.7-1.4 11.1-3.4 16.2-5.8 5.7-2.7 11.1-6 16.1-9.8 6.3-4.7 11.7-10.4 16.9-16.1 4.1-4.5 7.3-9.8 10.6-15.1 5.7-9.1 8.8-19.2 11.6-29.4.9-3.2 1.3-6.7 1.4-10.1.2-3.9 1-7.8.8-11.7-.4-7.1-1.4-14.1-2.7-21.2-2-10.2-5.6-19.7-10.4-28.8-2.9-5.4-6.4-10.5-10.8-15-3.5-3.6-7-7.2-10.6-10.6-5.3-4.9-11-9.1-17.4-12.5-6.7-3.5-13.4-6.8-20.7-8.8-4.3-1.2-8.8-1.8-13.2-2.8-5.6-1.3-11.2-.7-16.7-.8-5.9-.1-11.6.3-17.5 1.7-4.3 1-8.9 1.6-13.1 3-7.1 2.3-14.2 5.4-21.2 9.1z"/><path class="st37" d="M706.1 545c4.6-6.2 6.6-13.5 8.7-20.6 2.1-6.9 3.2-14.1 3.1-21.4-.1-9.9-1.6-19.6-4.3-29.2-2.5-8.8-6.2-16.9-11.4-24.4-5.3-7.5-11.6-14-18.7-19.8-5.5-4.5-11.3-8.6-17.7-11.6-8.2-3.9-16.6-6.7-25.7-8.1-7.3-1.2-14.6-1.1-21.8-.6-14.4 1-28 5.1-40.4 12.7-.1.1-.3 0-1 0-.9-1.6-1.8-3.3-2.9-5.3 3.7-3.1 8-4.8 12.2-6.6 7.4-3.2 15.3-4.9 23.2-6.3 10.2-1.8 20.6-1.6 30.8-.6 12.4 1.1 23.9 5.5 34.7 11.8 8.3 4.9 15.9 10.8 22.5 17.8 12 12.7 20.1 27.5 24 44.7 2.5 10.7 3.5 21.5 2.7 32.5-.7 11.1-3.5 21.7-8.2 31.7-5.8 12.2-13.5 23.2-23.5 32.3-11.6 10.6-25 18-40.3 22.1-10.9 2.9-22 4.4-33.3 3.8-9.7-.5-19.2-2.6-28.3-6.1-9.9-3.9-18.7-9.6-27.1-16-9-7-16.4-15.4-22.3-25.1-5.8-9.5-9.8-19.6-12.1-30.5-2.3-11-2.6-22.1-1.8-33.1.6-8 2.6-15.8 5.7-23.3 6.1-14.9 15.2-27.7 27-38.7 1.1-1 2.1-2 3.2-3 5 2.1 5.8 5.5 1.8 9.3-7.7 7.5-14.3 15.8-19.6 25.1-.3.5-.7 1-1 1.6-.2.3-.4.7-.6 1-.3.5-.6.9-.9 1.4-.2.3-.5.5-.8.7-.3.3-.6.6-.7 1-3.4 7-5.7 14.4-7 21.9-1.3 7.6-1.7 15.3-.6 23.2 1 7.2 2.3 14.3 4.3 21.2 3.4 11.8 9.7 22 17.9 30.9 9.4 10.2 20.3 18.5 33 24.1 10.6 4.7 21.6 7.7 33.4 7.7 11.7 0 23-1.4 34-5.1 11.1-3.8 21-9.4 29.6-17.4.5-.4.8-1 1.2-1.6 0-.2.1-.5.1-.7.6-1.3 1.6-2.2 2.5-3.2 5-4.6 8.9-10 12.6-15.7 1.1-1.6 2.1-3.4 3.8-4.5z"/><path class="st14" d="M385 229c-.2 6.6 1.4 13.1 1.3 19.7 0 2.5.5 5.2.9 7.7.7 4.2 3.9 6.9 7.7 8.3 1.8.6 3.7 1.1 5.5 1.8 1.9.7 4 .7 5.9.3 4.3-.9 8.7-1.2 13-2.1 4-.8 8-1.5 12.1-1.8 1.5-.1 2.8-.6 4.6-1.4-4 22.7-8 44.9-11.9 67.1-1.7.4-3-.2-4.4-.4-6.4-1.3-12.8-2.2-19.2-3.3-6.1-1.1-12.1-2.3-18.2-3.4-3.2-.6-6.4-1.1-9.6-1.6-.7-.1-1.3-.2-1.5-.9-1.4-5 .4-9.9.9-14.8 1.2-10.4 2.8-20.7 4-31.1 1.9-12.7 3.2-25.5 5.7-38.1.4-2.2.1-5.1 3.2-6z"/><path class="st4" d="m453.1 509 11.4-26.1c4.2-9.4 8.3-18.8 12.5-28.2 1.1-2.5 2.4-5 3.4-7.6 2.7-6.9 3.8-13.9 1.6-21.2-.8-2.7-2.2-5.1-5-6.3-.6-.2-1.4-.6-1.6-1.1-1.5-4.6-5.9-6.5-9-9.7-2.6-2.8-5.4-5.4-8.2-8.1-2.3-2.2-4.7-4.2-7.1-6.3 1.9-3 5.7-3.1 7.9-5.5.4-.6.7-1.2 1.3-1.6.4-.3.9-.5 1.3-.8.3-.2.6-.3.9-.4.4-.2.9-.4 1.3-.7.3-.2.6-.3.9-.4.4-.2.9-.5 1.3-.7.3-.2.6-.3.9-.5l.9-.6c.1-.1.3-.2.4-.4.5-.4 1-.7 1.5-1.1 3.8-1.8 7.2-4.4 11.1-6 .7-.3 1.4-.6 2.1-1l.9-.6.9-.6c.3-.2.6-.3.9-.4.4-.2.9-.4 1.3-.7.3-.2.6-.3.9-.4.4-.2.9-.5 1.3-.7.3-.2.6-.3.9-.5.3-.2.6-.3.9-.4.2 0 .3-.1.5-.1.3-.1.6-.2 1-.3 1.6-.1 2.6-1.3 4.3-1.9 1.7 1 2.9 3.2 5.4 3.7 3.1-1.1 6.3-2.3 9.7-3.5 1.3.6 2.1 2.1 3.1 3.2-.8 4.4-1.6 8.7-2.4 13.2 1.3 1.7 3.5 3.3 2.6 6.2-.3.3-.6.6-.7 1-.1.3-.2.7-.3 1-.3.3-.6.6-.7 1-.1.3-.2.7-.3 1-.3.3-.6.6-.7 1-.1.3-.2.7-.3 1-.4.4-.5.8-.5 1.4 0 .4-.1.7-.2 1-.1.3-.3.6-.4 1-.1.3-.3.6-.5 1-.2.5-.5 1-.7 1.5-.1.4-.3.7-.5 1.1-.2.6-.5 1.2-.8 1.8-11 22.3-22.2 44.5-33.3 66.8-.2.4-.4.7-.7 1.1-.1.2-.3.3-.4.5-.2.3-.5.6-.7.9l-.6.9c-.3.4-.6.9-.8 1.3-.1.3-.3.6-.5.9-.2.4-.5.9-.7 1.4-.1.3-.3.6-.4.9-.1.3-.3.6-.5 1-.1.3-.3.6-.5 1l-.6.9c-.2.3-.5.5-.8.7-.6.5-.4 1.4-1 2-.6.5-.4 1.4-1 2-.6.5-.4 1.4-1 2-.6.5-.4 1.4-1 2-.6.5-.4 1.4-1 2-3 3.8-4.3 8.4-6.7 12.5-.7 1.2-1 2.8-2.2 3.7-.6-.1-.7-.8-1-1.2z"/><path class="st13" d="M506.2 257c-1.5-1.2-2.1-.1-2.1 1.1-.1 2.3.1 4.7.1 7 0 1.4.1 3-1.9 3.6-.4-3.5.3-7.1-.9-10.6-2.7 3.6.3 8.8-3.9 12.4-1.1-4.1.6-8-1-11.5-1.9.4-1.6 1.6-1.5 2.5.3 2.9-.5 5.6-.9 8.3-.2 1.3-1 2.4-2.6 2.1-.7-1-.3-1.9 0-2.8 1-2.6.8-5.2.2-7.8-1.1-4.5-1.7-5-6.4-5-2.2 0-4-.5-5.1-2.3-1.4-2-2.9-1.9-5.1-1.4-6.2 1.4-12.6 2.4-18.9 3.5-6.8 1.1-13.7 1.9-20.4 3.3-5.3 1.1-10.7 1.5-16 2.6-3.9.8-7.7 1.4-11.6 1.9-3.8.5-7.7 1-10.8-2.2-.3-.3-.9-.6-1.3-.5-3.4 1-4.6-1.5-5.7-3.8-.7-1.3-.9-2.8-1-4.3-.2-5.1-.5-10.2-1-15.3-.9-8.2-.9-16.5-2-24.7-.3-2.5 0-5 0-7.7 2.4-.9 5.1-.4 7.7-.6 2.4-.2 4.8-1.4 7.2-.6 1 3.2 3.4 35.9 3.1 43.5 4.2 1 8.1-.7 12.1-1.2 7.5-.9 14.9-2.4 22.4-3.7 7.5-1.3 14.9-2.6 22.4-3.8 3.6-.6 7.2-.9 10.8-1.1 3.2-.2 5.9-2 9-2.6 4-.8 8-1 11.9-.3 5 1 8.7 4.4 11.4 8.8 2.2 3.6 3.2 7.6 3 11.8.3 1.3-.3 1.5-1.2 1.4z"/><path class="st4" d="M708.6 467c5.2 13.5 7.1 27.3 6.4 42-2.5-.1-4.9.4-7.3-.6-.6-.2-1.3-.3-1.9-.3-5.5.3-10.9-.8-16.3-1.4-8.3-.9-16.7-1.3-25-2.5-4.9-.7-9.9-.8-15.2-1.6 0-4-.9-8.1-2.4-12.2 19.6-7.6 38.9-15.1 58.3-22.5 1-.3 2.1-.5 3.4-.9zM650.1 513.8c14.6 7.4 29.1 14.8 43.7 22.2 3.3 1.7 6.6 3.5 10.1 5 1.6.7 1.1 1.7 1.1 2.8-3.3 8.4-9.3 14.9-15.1 21.4-1 .9-1.8 2.1-3.1 2.6-.2 0-.5.1-.7.1-.4.2-.9.4-1.7.8-14.4-16.3-28.9-32.7-43.6-49.4 2.8-2 3.7-5.4 6.3-7.3.3.3.7.5 1.1.7.3.2.6.3 1 .3.2.3.5.6.9.8zM652.3 586.3c-11.1 4.2-22.4 4-33.7 3.7-.2-.5-.5-.8-.5-1.1 1.5-6.3 0-12.9 1.7-19.1.1-.3 0-.7 0-1-.3-7.3.6-14.6 1.4-21.8.8-7.5-.1-15.2 2-22.8h8.5c6.8 20.6 13.7 41.3 20.6 62.1zM630.9 477c8.6-19.8 17.3-39.8 26-60 11.5 4.1 20.9 10.3 29.3 18.3-.3 2.4-2.4 2.7-3.7 3.9-5.8 5.5-11.6 10.9-17.5 16.3-8.4 7.7-16.9 15.4-25.3 23.2-1.4 1.3-2.8 1.9-4.4.9-1.4-.8-3.4-.4-4.4-2.6z"/><path d="M385 229c-1.9 1 0 3.6-1.9 4.6-.1 5-1.5 9.9-2.2 14.8-.5 3.4-1 7-1.5 10.5-.6 3.8-1.8 7.7-1.3 11.6.1.9.5 2.1-1 2.4-7.2-.4-7.3-.3-7.2 7.2 0 2.5-.2 5-1.2 7.3-1.9 4.3-2.9 8.6-2.7 13.4.1 5.3-5.2 7-11.8 4.1-.1-4.6 1.5-8.9 2.3-13.4.5-2.8.8-5.7 1.5-8.6 1.2-5.2 2.2-10.4 2.9-15.7.6-4.7 1.8-9.2 2.3-13.9.6-4.6 1.8-9.2 2.6-13.8.7-4.1 1.4-8.3 2.3-12.4 1.8-8.3 2.9-16.8 4.9-25.2.6-2.6 1.6-5.3 1.3-8.2.6-.6 1.3-.6 1.9 0 0 2 .2 4 .1 6-.2 2.1 1.1 3.7 1.4 5.9h5.1c1.5 5.3 1.8 10.3 1.5 15.4-.4 3 1.4 5.4.7 8z" style="fill:#25994d"/><path class="st4" d="M583.4 579.9c-12-6.8-22.7-15.7-26.7-22.3 15.9-14.5 31.9-29.1 48-43.8 2.4 1.1 3.2 3.7 5.1 5.2-8.7 20.3-17.5 40.6-26.4 60.9zM688.7 437.3c8.3 7.7 14 16.8 18.5 27-20.6 7.9-41 15.8-61.3 23.7l-5.7-5.7v-.3c0-.2 0-.4.1-.5 1.3-1.3 2.5-2.7 3.9-3.9 14.7-13.3 29.4-26.6 44.5-40.3z"/><path class="st1" d="M598.1 487c1.6 1.7 4 2.1 6 3.6-.3 2.5-1.5 4.8-2.3 7.3-5.2.5-10.2-.7-15.2-1.3-4.4-.5-8.8-.7-13.2-1.3-4.9-.7-9.8-1-14.7-1.5-4.9-.5-9.8-.5-14.6-1.6-2.3-.5-4.9-.1-7.7-.1-.3-3.7.7-6.8 1.2-10 1.1-5.9 3.5-11.5 5.5-17.2.6-.6.5-1.3.4-2 1-3.8 3.6-2.8 5.9-1.7 10.7 5.4 21.6 10.4 32.1 16.2.5.4 1 .8 1.5 1.1l.9.6c.4.3.9.6 1.4.8.3.1.6.3.9.5.4.2.9.5 1.3.7.3.1.6.3.9.4.3.1.6.3.9.5.3.1.6.3.9.5.4.2.9.5 1.4.7.3.1.6.3.9.4.3.1.6.3.9.4.3.1.6.3.9.5.3.1.6.3.9.5.3.1.6.3.9.5.4.2.8.5 1.3.8.3.2.5.4.7.7z"/><path class="st4" d="M615.9 589.6c-6.8.7-18.4-2.5-30-8.2 8.5-20.2 17.4-40.3 26.2-60.3 2.8 1.2 5.1 2.2 7.9 3.4.1 2.8.4 5.9-.6 8.9-.1.5-.2 1-.2 1.5.2 6.1-.8 12.2-1.1 18.3-.5 8.2-.9 16.4-1.8 24.6-.4 3.9-.3 7.9-.4 11.8zM540.9 528.2c-3.4-4.8-5.7-22.8-4.5-33.9 21.8 2.2 43.6 4.3 65.3 6.5.3 4.1.3 4.1-2.9 5.3-17.7 6.8-35.3 13.6-52.9 20.4-1.7.6-3.4 1.2-5 1.7z"/><path class="st1" d="M634.3 523.5c1.2-.8 2.4-1.6 3.7-2.4 3.2 2.4 37 40.1 44.3 49.4-7.7 7.1-17 11.4-27.2 15.4-3.9-10.2-6.8-20.8-10.3-31.2-3.4-10.5-7-20.9-10.5-31.2z"/><path class="st4" d="M598.5 415.5c10.2-2.8 19.5-4 29.4-3.6.2 2.9.5 5.6-.4 8.4-.2.6-.3 1.3-.3 1.9.3 7.5-.7 14.9-1.4 22.3-.6 6.7-.1 13.5-1.5 20.1-.6 3-.2 6.3-.3 9.5-.1 3.7-.2 3.7-4.9 3.8-6.8-20.6-13.6-41.3-20.6-62.4z"/><path class="st1" d="M650.1 511.2c-.8-.5-1.7-1-2.6-1.6.4-1.2.7-2.4 1.1-3.7 3.7.1 7.3-.2 10.9.6 3.7.9 7.5.7 11.3 1 5.3.4 10.6.9 15.8 1.5 5.2.6 10.5.5 15.7 1.6 3.8.8 7.9-.1 12.1 1.7-.8 9.4-3.7 18.3-7.6 27.3-2-.9-4.1-1.8-6-2.8l-41.7-21c-2.6-1.3-4.8-3.5-7.9-4-.4-.1-.7-.4-1.1-.6zM540.9 531.2c20.7-7.9 41.1-15.7 61.6-23.5.6 1.3 1.1 2.3 1.6 3.3-16.5 15-32.9 30-49.4 45-3-3.9-5.4-7.8-7.7-11.8-2.4-3.8-4-8.1-6.1-13zM583.1 460c-.2 1.8 1.2 2.6 2.1 3.7 5.9 7.2 12.5 13.7 19.1 20.2.8.8 1.7 1.6 2.5 2.2-.5 1.8-1.6 2.4-3 1.7-1.5-.7-2.8-1.8-4.5-1.9-.5-.2-1.1-.3-1.6-.5-.3-.2-.7-.3-1-.5-.3-.2-.7-.3-1-.5-.3-.2-.7-.3-1-.5-.3-.1-.7-.3-1-.5-.3-.2-.7-.3-1-.5-.3-.1-.7-.3-1-.5-.3-.2-.7-.3-1-.5-.3-.1-.7-.3-1-.5-.3-.2-.7-.3-1-.5-.3-.1-.7-.3-1-.5-.5-.3-1-.5-1.5-.7-.4-.1-.7-.3-1.1-.5-.6-.3-1.2-.5-1.8-.8-10.7-5.5-21.5-10.7-32.1-16.2-5.7-2.9-6-4-2.5-9.5 3.1-4.8 6.5-9.3 10.4-13.4 3.6-3.8 5.6-4 9.2-.3 3.7 3.8 7.1 7.9 10.5 12 2.2 2.6 3.7 5.6 4.3 9zM614.5 480c-6.6-6.4-11.9-13.6-17.4-20.6-5.9-7.6-9.3-16.6-14-24.9-1.7-3-3.2-6-5-9.3 5.2-4 11.2-6.1 17-8.3 1.2.8 1.6 1.7 1.9 2.9 6.1 18.8 12.3 37.5 18.5 56.2.6 1.5 1 2.8-1 4zM631 411.8c8.4.2 16 1.2 23.1 4.7-9 20.4-17.5 40.7-26.5 60.7-2-.4-1.7-1.7-1.5-2.4 1.1-3.9.3-8 1-11.8 1.3-6.7.1-13.5 1.7-20.2.1-.3 0-.7 0-1 .4-7.6.9-15.2 1.2-22.8.1-2.5 1-4.6 1-7.2z"/><path class="st39" d="M462.3 516c-.1.3-.1.7-.2 1-.3.3-.6.6-.8 1-.1.3-.1.7-.2 1-.3.3-.6.6-.8 1-.1.3-.1.7-.2 1-.3.3-.6.6-.8 1-.6 1-1.1 2-1.8 3.1-1.7-.6-3.3-1.3-4.3-2.9 0-.2 0-.3-.1-.5.1-.3.2-.6.4-.9.1-.1.2-.3.3-.4.2-.3.3-.6.5-.9.1-.3.3-.6.5-.9.2-.3.3-.6.5-1 .1-.3.3-.7.5-1 .2-.3.3-.7.5-1 .1-.3.3-.7.5-1 .2-.3.3-.7.5-1 .1-.3.3-.7.5-1 .2-.3.3-.7.5-1 .1-.3.3-.7.5-1 .2-.3.3-.7.5-1 .1-.3.3-.7.5-1 .2-.3.3-.7.5-1 .1-.3.3-.7.5-1 .3-.5.5-1 .7-1.5.1-.4.3-.7.5-1.1.3-.6.5-1.2.8-1.8 9.1-18.3 18.2-36.6 27.3-54.8.2-.4.4-.7.7-1.1.1-.2.3-.3.4-.5.2-.3.5-.6.7-.9l.6-.9c.3-.4.6-.9.8-1.3.1-.3.3-.6.5-.9.2-.4.5-.9.7-1.4.1-.3.3-.6.4-.9.1-.3.3-.6.5-1 .1-.3.3-.6.5-1 .2-.3.3-.6.5-1 .1-.3.3-.7.5-1 .2-.5.5-1 .7-1.5.1-.4.3-.7.5-1.1.3-.6.5-1.2.8-1.8 9.1-18.9 18.9-37.5 28.3-56.3.7-1.4.9-3.4 3.2-3.2 1.8.7 1.9 2.6 3 3.9-7.3 14.7-14.7 29.4-22.1 44.2-.3.3-.6.6-.8 1-.1.3-.1.7-.2 1-.3.3-.6.6-.8 1-.1.3-.1.7-.2 1-.3.3-.6.6-.8 1-.1.3-.1.7-.2 1-.3.3-.6.6-.8 1-.1.3-.1.7-.2 1-.4.4-.5.8-.5 1.4 0 .4-.1.7-.2 1-.1.3-.3.7-.4 1-.1.3-.3.6-.5 1-.2.3-.3.6-.5 1-.1.3-.3.7-.5 1-.2.5-.5 1-.7 1.5-.1.4-.3.7-.5 1.1-.3.6-.5 1.2-.8 1.8-11.2 21.9-21.9 43.9-33 65.8-.4.5-.7 1-1.1 1.5l-.6.9c-.3.4-.6.9-.8 1.4-.1.3-.3.6-.5.9-.2.4-.5.9-.7 1.4-.1.3-.3.6-.4.9-.1.3-.3.6-.5 1-.1.3-.3.6-.5 1l-.6.9c-.2.3-.5.5-.8.7-.4.4-.7.7-.9 1.1z"/><path d="M565.1 421c-2.7-5.4-5.3-10.8-8.1-16.3 2-1.2 3.6-2.8 5.9-3.5.4.5.9.9 1.2 1.5 5.4 10.6 10.5 21.3 16.4 31.7 4.2 7.5 7.4 15.6 12.3 22.8 4.4 6.4 9.3 12.3 14.2 18.3 6.6 7.9 14.2 14.9 21.4 22.2 1 1.1 2.3 2 1.5 3.8-.9.7-1.8.7-2.7-.1-1.8-1.7-3.8-3.2-5.7-4.8-8.4-7.3-16.6-14.8-24.1-23.1-4.6-5.1-9.6-9.9-13.4-15.6-2.4-2.2-3.9-5-5.2-7.8-4.5-9.7-10.4-18.7-13.7-29.1z" style="fill:#fd0000"/><path class="st39" d="M523 329.1c3 3 4.6 7 6.8 10.5 7.5 11.8 14.7 23.9 22 35.9.5.8.8 1.7 1.4 2.9-3.7 2.1-7.3 4.1-11 6.1-2.8-2.4-4.2-5.5-5.9-8.1-7.9-12.6-15.4-25.4-23.8-37.6-.3-.4-.3-.9-.4-1.4 2.8-3.8 7.8-4.9 10.9-8.3z"/><path class="st14" d="M390 156.9c8.8-.6 14.9 4.6 15 13.2 0 3 1.2 5.7 1.1 8.7-.1 2.7-.1 5.4.7 8.2.7 2.4.2 5.2.3 7.9.7 3.3-1.8 3.9-4.1 4.3-4.3.6-8.6.4-13 .7-2.1.1-3.6-1.1-4-3.1-2.9-13-1.8-25.8 2.6-38.3.3-.7 1-1.1 1.4-1.6z"/><path class="st41" d="M609.2 488.7c.7.6 1.1.9 1.4 1.3l2.1 2.1c-.9 3.9-3.7 7.5-2.1 11.9 1.2 3.2 2.1 6.6 5 8.7 4.2 2.9 7.3 3.7 12.5 3.1 2.4-.3 4.5-1.3 6.6-2.8 7.1-5.4 6.7-15.1 3.4-20.4-3.1-4.9-10.4-8.6-17.4-5.7-1.4-1.5-2.8-3.1-4.3-4.6 9.2-4.3 18.9-3.7 25.6 5.5 8.4 11.6 6 21.9-3 29.5-9.7 8.1-22.9 6.2-30.7-4-2.8-3.6-4.6-8.4-3.9-13.2.4-3.9.5-8.5 4.8-11.4z"/><path class="st39" d="M457.1 388c-2.7 1.4-5.4 2.7-8.4 4.2-1.6-1.7-3.2-3.3-4.8-4.9.7-2.1 2.7-2.8 4.4-3.8 20.1-11.9 40.4-23.6 60.6-35.4 1.4-.8 2.9-1.7 3.9-3.1 2.9 1.9 3.8 5.2 6 8-6.4 3.5-12.1 6.7-17.9 10-3.3 1.9-6.6 4-9.8 5.9-.6 1.2-1.6 2-2.8 2.5-.5.3-1.1.5-1.6.8-.3.2-.7.4-1 .5-.5.2-1 .5-1.5.8-.3.2-.7.4-1 .6-.5.4-1 .7-1.5 1-4.5 2.3-8.7 5.1-13.2 7.3-.5.3-1.1.6-1.6.9-.6.4-1.3.8-1.9 1.2-.5.3-.9.5-1.4.7-.3.2-.6.3-.9.4-.4.2-.9.4-1.3.7-.3.2-.6.3-.9.4-.4.2-.9.5-1.4.6h-1c-.5.3-.8.4-1 .7z"/><path class="st37" d="M519.2 277c1.5-1.6 3.9-2 5.4-3.8 2.3-2.6 3.8-5.3 3.6-8.9-.1-1.8 0-3.6 0-5.7 3.5 1.5 5.3 4.4 5.6 7.2.5 4-.1 8.4-4.3 10.8-2.2 1.2-2.7 3.2-3.4 5.2-4 11.4-7.9 22.8-12 34.5 1.8 3.2 3.6 6.6 5.7 10.3-2.4 1.7-4.9 3.4-7.4 5-1-.7-1.5-1.5-1.7-2.5-2-6.9-6.3-12.6-9.1-19.1-.7-1.6-2.3-2.9-1.7-5 .9-.6 1.9-1.3 2.8-1.9 1.3.6 2.6 1.6 4.1.7 1.7-.1 2.1-1.5 2.6-2.7 3.3-7.1 6.6-14.1 9.6-21.3.6-.9.8-1.8.2-2.8z"/><path d="M536.2 264c-.7-1.1-1.3-2.3-1.9-3.4-1.8-3.3-4.2-5.5-8.3-4.4-4.5-5.1-9.8-6.5-16.1-3.7-.7-2.6-1-4.9-1.9-6.9-.9-2.1-1.7-4.3-3.8-6 1.8-.7 3.1-1.3 5-1.2 2.6.2 5.2-1.3 7.9-1.7 3.8-.6 7.4-1.7 11.5-1.1 9 1.3 16.2 11 15.7 19.3.5 1.2.7 2.3-1.2 2.2-1.4.5-2.1 1.2-1.5 2.9 1 2.7.8 5.4-.4 8.1-.4.8-.9 1.3-1.8 1.6-.5-3.4.3-6.9-.5-10.2 0-.1-.2-.2-.4-.3-1-.2-1.4.4-1.4 1.4 0 1.1-.1 2.3-.1 3.4-.3.5-.6.4-.8 0z" style="fill:#bd9797"/><path d="M354.1 305h9.4c1.2-2.1 2.4-3.9.9-6.4-.9-1.6.7-6.7 2-8.7.7-1.2 1.6-2.6 1.5-3.9-.2-2.5 1.2-4.8.2-7.4-.9-2.4.4-5 1.5-7.6 2.6.2 5.4-.8 7.4 2 .1 5.4-.9 10.6-1.9 15.9-.6 3.1-.5 6.4-1.1 9.7-.8 4.4-.8 9-2 13.4-.6 2.3.5 4.9-1.1 7.1-4.3 0-8.4-.8-12.5-1.9-1.1-.3-2.3-.1-3.5-.2-2.6-.2-3.7-1.5-2.8-4 1.1-2.6.8-5.5 2-8z" style="fill:#25984c"/><path class="st21" d="M390 156.9c-1.4 5.7-2.9 11.5-3.7 17.3-.8 5.4-1.3 11.1.6 16.6.6 1.6 0 3.6.1 5.5.1 1.8 1.4 3.2 2.7 2.6 4.2-1.7 8.5-.7 12.7-.8 1.6-.1 2.8-.8 4.1-1.4.4-.2.4-1.2.5-1.8 1.3.5 1.2 1.9.7 2.4-1.2 1.2.5 2.1-.1 3.5-9.2.8-18.6 1.6-27.8 2.4-1.5-1.3-.7-2.7-.9-4-1.2-6.4-.6-13-1.8-19.4-.7-4-.7-8.4 0-12.4 1.1-5.3 6.6-11.8 12.9-10.5z"/><path class="st44" d="M565.1 421c2.4 2.7 3.4 6.1 5 9.2 4.4 8.3 8.7 16.7 13 25 .4.9 1.2 1.6 1 2.7-1.3.2-.9 1.2-.9 1.9-1.8-1.6-2-4.1-3.4-5.8-4.8-6-9.9-11.9-15.3-17.4-6 4.1-12.7 12.4-17.4 21.4.3 1.3 1.5 1.5 2.5 2 11 5.5 21.9 11.1 32.8 16.7.9.4 1.7.9 2.6 1.4.4.2.7.4 1.1.8.3 0 .7 0 .9.2.4.2.7.4 1.1.8.3 0 .7 0 .9.2.4.2.7.4 1.1.8.3 0 .7 0 .9.2.4.2.7.4 1.1.8.3.1.6.2 1 .3.4.2.7.4 1 .7.3.1.6.2 1 .2.4.2.7.4 1 .7.3.1.6.2 1 .3.4.2.7.4 1 .7.6 0 1 .3 1.2.9-.7.1-1.2.3-1.2 1.1-.3-.1-.7-.2-1-.2-.4-.2-.7-.4-1-.7-.3-.1-.6-.2-1-.3-.4-.2-.7-.4-1-.7-.3-.1-.6-.2-1-.3-.4-.2-.7-.4-1-.7-.3-.1-.6-.2-1-.2-.4-.2-.7-.4-1.1-.8-.3 0-.7 0-.9-.2-.4-.2-.7-.4-1.1-.8-.3 0-.7 0-.9-.2-.4-.2-.7-.4-1.1-.8-.3 0-.7 0-.9-.2-.4-.2-.7-.4-1.1-.8l-.9-.3c-.4-.2-.7-.4-1-.8l-36-18c-1.6.4-1.8 1.7-2.3 2.9-.2.4-.5.4-.7 0 0-.6-.3-.9-1-1 .1-.3.2-.7.2-1 .2-.4.4-.7.7-1 .1-.3.2-.7.3-1 .2-.4.4-.7.7-1 2.2-5.3 5.5-9.9 9-14.5 4.1-5.4 8.9-10.2 14.1-14.9-1.5-1.8-1.3-4.7-4-5.7 0-1 2.9-.5 2-2.6z"/><path d="M614.7 495.1c2.2.4 3.7 1.8 5.2 3.3 2.1 2.1 4.2 4.1 6.7 5.8 1.5 1 2.6 1.2 3.9-.1.9-1 2-1.7 2.7-3.3-1.1-5.6-7.7-6.6-9.8-11.6.4-.5 1-1.5 2.2-1.2 3.4.8 7.2 1.5 9.3 4.5 4.1 5.7 4.6 11.6-.2 17.3-2 2.3-4.6 3.7-7.5 4.1-2.9.4-6-.2-8.3-1.8-6.3-4.3-7.6-10.6-4.2-17z" style="fill:#383838"/><path class="st46" d="M499.9 366.7c6.2-4.5 13.3-7.4 19.8-11.7 3.3 3.2 4.5 7.8 7.8 11.1-3.3 6.7-6.6 13.2-9.9 19.9-2.1-.4-3.1-1.7-2.1-3.5 1.1-2.1.7-4.5 1.4-6.7 1.3-4.3.3-6.2-4.1-10.5-3.1 1-6.3 2.1-9.4 3.1-1.6.5-1.6.5-3.5-1.7z"/><path d="M474 472.8c2.5-6.4 5.9-12.3 9-18.5 8.1-16.1 16.1-32.1 24.2-48.2l1.2-2.1c.2-.4.4-.7.7-1 .1-.3.2-.7.3-1 .2-.4.4-.7.7-1 .1-.3.2-.7.3-1 .2-.4.4-.7.7-1 .1-.3.2-.6.3-1 .2-.3.5-.3.7 0 0 .6.4 1 1 1 .3.2.4.5.3.9-.1.5-.3.9-.5 1.4-.1.3-.2.6-.4.9-.2.4-.5.8-.7 1.3-.1.3-.3.6-.4.9-.2.5-.4.9-.6 1.4-.1.4-.3.7-.4 1-.2.6-.3 1.2-.5 1.7-3.3 7-6.7 14-10.6 20.7-.3.5-.6 1.1-.9 1.6-.2.3-.4.7-.5 1-.3.5-.5.9-.8 1.4-.1.3-.3.6-.4.9-.2.4-.5.9-.7 1.3-.1.3-.3.6-.4.9-.2.4-.4.9-.6 1.3l-.2.4-.2.4c-.1.3-.3.6-.4.9-.1.3-.3.6-.4.9-.2.4-.5.8-.7 1.3-.1.3-.3.6-.4.9-.2.5-.5.9-.7 1.4-.1.4-.3.7-.5 1-.2.6-.5 1.1-.9 1.6-4.5 9.4-9.2 18.8-14 28-.3.5-.7 1-1.1 1.5-.2.3-.4.6-.6 1-.3.5-.6.9-.8 1.4-.1.3-.3.7-.5 1-.2.3-.3.7-.5 1-.1.3-.3.7-.5 1-.2.3-.3.6-.5 1-.1.3-.3.6-.5 1-.3.5-.5.9-.8 1.4-.2.3-.5.6-.8.8-.4.1-.7 0-.9-.4 0-.6-.3-1-1-1 .1-.3.2-.7.2-1 .2-.4.4-.7.7-1 .1-.3.2-.7.3-1 .2-.4.4-.7.7-1 .1-.3.2-.7.3-1 .2-.4.4-.7.7-1 .1-.3.2-.7.3-1 .2-.4.4-.7.7-1 .1-.3.2-.7.3-1 .2-.4.4-.7.7-1 .5-.5.8-.8 1-1.3z" style="fill:#070505"/><path d="M503.1 436c.1-.3.1-.7.2-1 .2-.4.5-.7.8-1 .1-.3.1-.7.2-1 .2-.4.5-.7.8-1 .1-.3.1-.7.2-1 .2-.4.5-.7.8-1 .1-.3.1-.7.2-1 .3-.3.5-.3.8 0 0 .6.3 1 1 1-.1.3-.2.7-.3 1-.2.4-.4.7-.7 1-.1.3-.2.7-.3 1-.2.4-.4.7-.7 1-.1.3-.2.7-.3 1-.2.4-.4.7-.7 1-.1.3-.2.7-.3 1-.2.4-.4.7-.7 1-.1.3-.2.7-.3 1-.2.4-.4.7-.7 1-10.8 21.5-21.5 43.1-32.3 64.6-.6 1.2-1.3 2.3-2 3.4-.2.4-.4.7-.7 1-.1.3-.2.7-.3 1-.2.4-.4.7-.7 1-.1.3-.2.7-.3 1-.2.4-.4.7-.7 1-.1.3-.2.7-.3 1-.2.4-.4.7-.7 1-.1.3-.2.7-.3 1-.2.3-.5.3-.7 0 0-.6-.4-1-1-1 .1-.3.1-.7.2-1 .2-.4.5-.7.8-1 .1-.3.1-.7.2-1 .2-.4.5-.7.8-1 .1-.3.1-.7.2-1 .2-.4.5-.7.8-1 .1-.3.1-.7.2-1 .2-.4.5-.7.8-1 .1-.3.1-.7.2-1 .2-.4.5-.7.8-1 11-22 22-43.9 33-65.9l1.2-2.1c.2-.4.5-.7.8-1z" style="fill:#060303"/><path d="M512.8 345.1c.6 1.9-.9 2.8-2.1 3.5-6.4 3.8-12.9 7.6-19.4 11.3-12.7 7.4-25.3 14.8-38 22.2-3.1 1.8-6.3 3.5-9.4 5.2-.7-.3-1.6-.3-1.8-1.3-.7-.5-.3-1 .1-1.4.4-.4.9-.6 1.4-.9.3-.2.6-.3 1-.5.5-.2 1-.5 1.4-.8.3-.2.6-.4 1-.6.5-.3 1-.7 1.5-1.1 2.8-1.6 5.5-3.6 8.5-4.8.7-.4 1.4-.7 2.1-1.1l.9-.6.9-.6c.3-.2.6-.3.9-.4.4-.2.9-.4 1.3-.7.3-.2.6-.3.9-.5.3-.2.5-.3.8-.5l.4-.3c.2-.2.5-.4.8-.6.3-.2.6-.3.9-.4.4-.2.9-.4 1.3-.7.3-.2.6-.3.9-.4.3-.2.6-.3.8-.4l.4-.2c.3-.2.6-.3.8-.4.3-.2.5-.3.8-.5l.4-.3c.2-.2.5-.4.8-.6.3-.2.6-.3.9-.4.4-.2.9-.4 1.3-.7.3-.2.6-.3.8-.4.3-.2.5-.3.8-.5l.4-.3c.2-.2.5-.4.8-.6.3-.2.6-.3.9-.4.4-.2.9-.4 1.3-.7.3-.2.6-.3.9-.4.3-.2.6-.3.9-.4l.5-.1c.3 0 .7-.1 1-.1.4 0 .6-.2.8-.5 7.5-4.3 15.1-8.7 22.6-13 1.6-1.4 3.4-3 5.8-3.1z" style="fill:#fbc6c6"/><path class="st46" d="M543.1 386.4c3.5-1.9 6.8-3.7 10.2-5.4.3-.1.7 0 1.3 0 2.3 5.8 4.7 11.6 7.2 17.7-1.4 1.5-3.4 2.4-5.7 3.8-5-4.9-8.5-10.8-13-16.1z"/><path class="st50" d="M513.1 273.4c.1-2.1 2.7-2.6 2.9-4.4.3-2.8.1-5.6.1-8.5-1.9-1.7-3.2-3.9-5.6-4.8 4.1-2.5 9.3-2.4 12.2.4 3.8 3.6 4.4 8.1 1.9 12.9-2.5 4.8-5 5.8-11.5 4.4z"/><path d="M498.1 430c.7-3.5 3.2-6 4.5-9.2 2-4.7 4.8-8.9 6.5-13.7.3-.3.5-.7.7-1.1.2-.3.3-.6.3-.9.3-.3.5-.7.7-1.1.2-.3.3-.6.3-.9.3-.3.5-.7.7-1.1.2-.3.3-.6.3-.9.3-.3.5-.7.7-1.1.1-.3.2-.7.3-1 .3-.3.5-.7.7-1.1.2-.3.3-.6.3-.9.3-.3.5-.7.7-1.1.2-.3.3-.6.3-.9.3-.3.5-.7.7-1.1 3.4-6.7 6.8-13.3 10.2-20l2.1-3.9c.3-.4.6-.5 1-.1.9.3.9 1.1 1 1.9-1.3.6-1.4 2.1-2 3.2-9.4 18.6-18.7 37.2-28.1 55.8l-1.2 2.1c-.2.4-.5.7-.8 1-.1.3-.2.7-.2 1-.2.4-.5.7-.8 1-.1.3-.2.7-.2 1-.2.4-.5.7-.8 1-.1.3-.2.6-.2 1-.2.3-.5.4-.9.3-.5-.3-.8-.7-.9-1.3.1-.3.2-.7.3-1 .2-.4.4-.7.7-1.1l.3-.9c.2-.4.4-.7.7-1.1l.3-.9c.2-.4.4-.7.7-1 .1-.3.2-.6.3-1 .2-.3.5-.6.8-.9z" style="fill:#fdc4c4"/><path d="M437.5 265.2c.4-2.9 1.5-4 4.1-4.3 5.3-.6 10.6-1.7 15.9-2.6 4.7-.8 9.3-1.8 14.1-2.2 2-.2 3.7-1.3 5.8-1.2 1.2.9 2.2 1.9 2.7 3.7-14.2 2.4-28.3 4.8-42.6 6.6z" style="fill:#b89393"/><path d="M519.2 277c2.1-.2 2.3 1 1.7 2.5-1 2.3-2.1 4.7-3.1 7-2.8 6.6-6.1 13-9.1 19.4-1.9.2-1.4-1.2-1.7-2 3.8-9.1 7.5-18.2 12.2-26.9z" style="fill:#f8f8f8"/><path d="M443.1 384.9c-.5.2-.9.5-.9 1.1-1.1-.2-1.8-.9-2.1-2 .3-.1.6-.1.9-.1.4-.3.7-.6 1.1-.8.2-.2.5-.3.8-.2.5-.2.9-.5 1.2-.9 4.5-2.9 9.1-5.8 13.9-8.1.3-.3.7-.6 1-.8.3-.2.5-.3.9-.2.5-.2.8-.5 1.2-.9.7-.4 1.3-.7 2-1.1.3-.3.6-.6 1-.8.3-.2.5-.3.9-.3.4-.2.8-.5 1.1-.8.7-.4 1.4-.7 2-1.1.3-.3.6-.6 1-.8.3-.1.6-.2 1-.3.3-.3.7-.6 1.1-.8.2-.2.5-.3.8-.2.5-.2.8-.5 1.2-.9.7-.4 1.3-.7 2-1.1.3-.3.7-.6 1-.8.3-.2.5-.3.9-.2.4-.2.8-.5 1.1-.9.2-.1.5-.2.8-.2.5-.1.9-.5 1.2-.9.3-.3.6-.6 1-.8.3-.1.7-.2 1-.3v1.1c.3.2.5.4.4.7-.1.2-.2.3-.3.3-.3.3-.7.6-1 .8-.2.2-.5.3-.8.3-.5.2-.8.5-1.2.8-.2.1-.4.2-.7.2-.6.1-1 .5-1.3.9-.3.3-.6.5-1 .7-.2.3-.5.4-.9.3-.4.3-.8.5-1.1.8-.2.2-.5.3-.8.2-.5.2-.9.5-1.3.9-.3.3-.6.4-1 .5-.4.1-.7.3-1 .5-.3.3-.7.6-1 .8-.2.2-.5.3-.8.3-.5.2-.8.5-1.2.8-.2.1-.4.2-.7.2-.6.1-1 .5-1.3.9-.3.3-.6.5-1 .7-.2.3-.5.4-.9.3-.4.3-.8.5-1.1.8-.2.2-.5.2-.7.2-.5.1-.9.5-1.3.9-.5.6-1.5.4-1.9 1.1-3.1 2.3-6.5 4.3-10 5.9-.3.3-.6.6-1 .7l-.9.3c-.4.3-.7.5-1.1.8-.2.2-.5.3-.8.3-.7.5-1 .9-1.4 1.2z" style="fill:#0d0f10"/><path d="M483.1 373.2c.3-.1.6-.1 1-.2.3-.3.7-.6 1-.8.3-.2.6-.2.9-.2.4-.2.7-.6 1.1-.9 1.3-.7 2.7-1.4 4-2.1v1c.3.2.3.4.3.7-.1.2-.2.3-.3.3-.3.3-.6.6-1 .8-.3.2-.6.3-.9.3-.4.3-.7.5-1.1.8-.2.2-.5.3-.8.2-.5.2-.8.5-1.2.8-.2.1-.5.2-.8.2-.5.1-.9.5-1.3.9-.5.6-1.5.4-2 1.1-4.1 2.6-8.1 5.4-12.8 7-.5.2-.9.5-1.3.9-.3.3-.6.5-.9.7-.3.1-.7.2-1 .3-.3.3-.7.6-1 .8-.3.2-.6.3-.9.2-.4.3-.8.5-1.1.8-.2.2-.5.2-.8.2-.5.2-.8.5-1.2.9-.7.3-1.3.7-2 1 0-.6-.4-.9-1-1-.2-.2-.3-.4-.2-.5.1-.2.2-.3.2-.3.3-.1.7-.1 1-.2.3-.3.6-.6 1-.8.3-.2.6-.2.9-.2.4-.3.7-.6 1.1-.9.3-.1.6-.2.9-.1.4-.2.8-.6 1.1-.9.7-.4 1.3-.7 2-1.1.3-.3.6-.6 1-.8 5-2.8 9.8-5.9 15-8.2.4-.2.7-.5 1.1-.7z" style="fill:#0f0708"/><path d="M689 564.9c5.3-6.5 10.7-12.9 14.9-20.1.2-.4.7-.7 1.1-1 .1.7.4 1.2 1.1 1.2-1.2 3.6-3.7 6.5-5.8 9.6-2.9 4.2-6 8.3-10.1 11.5l-.5-.1c-.3-.2-.5-.4-.7-.7v-.4z" style="fill:#080a0b"/><path d="M500.1 305.1c1.8 2.3 3 4.9 4.2 7.5 2.4 4.9 4.9 9.7 7.4 14.5.6 1.2.4 1.8-.9 2.1-.3-.3-.6-.7-1-1-.1-.4-.4-.8-.7-1.1l-.3-.9c-.2-.4-.4-.8-.7-1.2l-.2.1c-.2-.5-.6-.8-.7-1.2 0-.3-.1-.6-.3-.8-.2-.4-.5-.8-.8-1.1 0-.3-.1-.6-.3-.9-.2-.4-.4-.8-.7-1.1l-.3-.9c-.2-.4-.4-.8-.7-1.1l-.3-.9c-.2-.4-.4-.7-.7-1l-.3-.9c-.1-.4-.3-.7-.7-1-1.3-2.7-2.7-5.5-3.9-8.1.6-1.1 1.2-1.1 1.9-1z" style="fill:#f5f5f5"/><path d="M504.1 271.4c3.4-3.3 7.1-6.2 7.1-11.5 1.5 1.3 2.9 2.1 2.9 4.1 0 2.2-.3 4.2-1.6 6-1.2 1.6-2.9 2.6-4.8 3-1.3.3-2.6 0-3.6-1.6z" style="fill:#363636"/><path d="M523 329.1c.2 1.3-.3 2.3-1.4 2.9-3.2 1.7-6 4.4-9.6 5.3-.9-.5-1.4-1.3-.5-1.9 3.5-2.2 6.6-4.9 10.4-6.5.4-.3.8-.2 1.1.2z" style="fill:#f7b8b8"/><path d="M542.9 257.1c1.4-.2 1-1.4 1.2-2.2 1.1 3 2.8 5.9.8 9.1l-.4.3-.4-.3c-.4-2.3.6-4.8-1.2-6.9z" style="fill:#896e6e"/><path d="M506.2 257c.7-.1.8-.6 1-1.1 1.7 2.5 1 5.2.3 7.9-.5-2.3-.9-4.6-1.3-6.8z" style="fill:#e0b3b3"/><path d="M376 194h-1.9v-2c.5-.6.8-1.6 2-1 0 1-.1 2-.1 3z" style="fill:#1a6f37"/><path d="M418.1 348c.4-.7.7-1.3 1.1-2 .7.1.9.6 1 1.2-.1.8-.1 1.6-1.1 1.8-.2.1-.4.3-.5.4l-.6-.3c-.3-.4-.3-.7.1-1.1z"/><path d="M376.1 191c-.7.3-1.3.7-2 1-.4-1.6 1.1-2.5 1.5-3.9.8.9.4 2 .5 2.9z" style="fill:#0e3d1e"/><path d="M536.2 264c.3.1.5 0 .8 0 .1 1.6.3 3.2-.3 5.3-1-2.1-.5-3.8-.5-5.3z" style="fill:#725b5b"/><path class="st65" d="M513.1 420c0 .8.1 1.7-1 2 0-.8-.3-1.8 1-2zM512.1 422c0 .8.1 1.7-1 2 0-.8-.3-1.8 1-2zM511.1 424c0 .8.1 1.7-1 2 0-.8-.3-1.8 1-2z"/><path class="st66" d="M617.1 612c-.8 1.4-1.1 1.4-1.9 0h1.9z"/><path class="st65" d="M510.1 426c0 .8.1 1.7-1 2 0-.8-.3-1.8 1-2zM509.1 428c0 .8.1 1.7-1 2 0-.8-.3-1.8 1-2zM507.1 429h-.8c-.1-.7.2-.9.8-1v1zM507.3 427c-.1-.7.2-.9.8-1 0 .6-.2.9-.8 1zM508.3 425c-.1-.7.2-.9.8-1 0 .6-.2.9-.8 1zM509.3 423c-.1-.7.2-.9.8-1 0 .6-.2.9-.8 1zM510.3 421c-.1-.7.2-.9.8-1 0 .6-.2.9-.8 1z"/><path class="st67" d="M541.4 464c-.2-.7.2-.9.7-1 0 .5-.2.9-.7 1zM543.1 464h.7c.2.7-.2.9-.7 1.1V464z"/><path class="st68" d="M501.9 317.2c-.6-.2-.9-.6-.9-1.2.8.1 1.1.5.9 1.2z"/><path d="M391.1 151.1c.6 0 .9.3.9.9-.6 0-.9-.3-.9-.9z"/><path class="st69" d="M513.8 398c.2.6-.2.9-.7 1.1-.1-.6.2-1 .7-1.1zM512.1 398h-.8c-.2-.6.2-.9.7-1 .1.3.1.7.1 1zM514.8 396c.2.6-.2.9-.7 1.1-.1-.6.1-1 .7-1.1zM512.4 396c-.2-.7.2-.9.7-1 0 .5-.2.9-.7 1z"/><path class="st70" d="M650.1 511.2c.7-.2.9.2 1 .7-.6.1-.9-.1-1-.7z"/><path class="st69" d="M515.8 394c.2.6-.2.9-.7 1.1-.1-.6.1-1 .7-1.1zM513.4 394c-.2-.7.2-.9.7-1 0 .5-.2.9-.7 1zM514.4 392c-.2-.7.2-.9.7-1 0 .5-.2.9-.7 1z"/><path class="st70" d="M648.1 512.8c-.7.2-.9-.2-1.1-.7.6-.2 1 .1 1.1.7zM650.1 513.8c-.7.2-.9-.2-1.1-.7.6-.1 1 .1 1.1.7z"/><path d="M544.2 264h.8c0 .4 0 .8-.6.7-.1 0-.1-.5-.2-.7z" style="fill:#826868"/><path class="st72" d="M491.1 371v-1c.4 0 .8.1 1.3.1-.3.6-.7.9-1.3.9z"/><path d="M529.1 370c-.3 0-.7 0-1 .1 0-.4-.1-.9.6-.9.2.1.3.6.4.8z" style="fill:#ce0000"/><path class="st74" d="M484 361c-.1.5-.2 1-.9.7v-.7h.9z"/><path class="st75" d="M483.1 361v.7c-.3.1-.7.2-1 .4v-1c.3-.1.6-.1 1-.1z"/><path class="st68" d="M502.1 314c.5.2 1 .3.7 1-.6-.1-.8-.5-.7-1zM501.1 316c-.6-.1-.9-.4-.8-1 .6.1.8.4.8 1z"/><path d="M523 329.1c-.4-.1-.8-.1-1.1-.2.2-.4.3-.9.9-.6.1.1.2.5.2.8z" style="fill:#de0000"/><path class="st4" d="M509.2 327c.7.1.9.5.7 1.1-.5-.1-.8-.5-.7-1.1z"/><path class="st77" d="M507.9 328.2c-.6-.2-.9-.6-.8-1.3.8.2 1 .6.8 1.3z"/><path class="st77" d="M507.1 327c-.5-.1-.9-.3-.8-1 .6.1.8.4.8 1z"/><path class="st4" d="M508.2 325c.6.1.9.5.7 1.2-.6-.2-.8-.6-.7-1.2z"/><path class="st77" d="M507.2 323.8c.6.2.9.6.7 1.2-.6-.1-.9-.5-.7-1.2z"/><path class="st78" d="M506.1 325c-.5-.1-.9-.4-.8-1 .6.1.8.4.8 1zM506.1 321.9c.5.2.9.5.8 1.1-.6-.1-.9-.5-.8-1.1zM505 323.1c-.5-.2-.9-.4-.8-1.1.7.1.9.5.8 1.1zM505.1 319.9c.5.2.9.4.7 1.1-.6-.1-.8-.5-.7-1.1zM504 321.1c-.6-.2-.9-.5-.8-1.1.7.1.9.5.8 1.1z"/><path d="M687.2 569.1c-.7-.1-1.1-.5-1.2-1.2 1-.2 1.4.2 1.2 1.2z"/><path class="st78" d="M504.1 317.9c.5.2.9.4.7 1.1-.6-.1-.8-.5-.7-1.1zM503 319.2c-.6-.2-.9-.5-.8-1.2.7.1.9.5.8 1.2zM503.1 316c.5.2.9.4.7 1-.6-.1-.8-.5-.7-1z"/><path class="st2" d="M374.1 559.1h7.4c.9.6.7 1.6.6 2.3-1.3 6.8-1.5 13.8-3.4 20.5-2.5 8.8-6 17.3-10.7 25.2-3.6 6-7.6 11.7-12.2 17-2.7 3.1-5.3 6.3-8.3 9.1-8.3 7.8-17.5 14.4-28 19.1-8.1 3.6-16.3 6.4-25.1 7.9-2.8.5-5.6.2-8.2.9-6.1 1.6-12.2.7-18.2.9-10.5.4-20.6-2-30.4-5.3-10.9-3.8-20.7-9.7-29.9-16.6-5.1-3.9-10.2-7.8-14.5-12.6-6.1-6.9-11.9-14.1-16.1-22.5-3.1-6.3-6.1-12.7-8.2-19.5-1.2-3.7-1.8-7.5-2.6-11.2-2-9.5-2.6-19.2-2-28.9.6-10.7 2.8-21 6.8-30.9 4.3-10.8 10.5-20.3 17.5-29.5 3-3.9 6.4-7.4 9.7-11.1 3-3.3 6.6-6.3 10.4-8.9 5.7-4 11.5-7.8 17.9-10.6 7.6-3.4 15.6-5.5 23.7-7.5 12.4-3 25-1.8 37.4-1.7 6.5 0 13 2 19.2 4.1 9.8 3.3 18.9 8.1 27.5 13.7 1.4.9 2.5 2.2 3.7 3.3-1.3 2-3.7 3.1-4.3 5.5-10-7.3-20.9-12.8-32.8-16.2-4.6-1.3-9.3-2.3-14.2-2.8-4.8-.5-9.5-.6-14.2-.8-8.4-.3-16.6 1.2-24.6 3.2-8.2 2-16.3 4.7-23.8 8.8-5.3 2.9-10.4 6-14.8 10.2-2.1 2-4.7 3.5-6.8 5.7-6.8 7.1-12.5 14.9-17.7 23.3-4.7 7.6-8 15.8-10.4 24.2-1.4 5-2.9 10.3-2.5 15.8.3 3.8-2.1 7.5-.9 11.2 1.6 4.8.5 9.7 1.6 14.5 1.1 5 1.8 10.1 3.3 15 3.5 11.3 8.7 21.8 16.2 31 6.6 8.1 14 15.2 22.6 21.1 5.6 3.9 11.5 7.2 17.6 10.1 7 3.4 14.3 5.6 21.9 6.9 6.8 1.2 13.6 2.4 20.4 1.8 4.6-.4 9.3-1 14-1.7 7.1-.9 13.8-2.8 20.5-5.2 8-2.9 15.5-7 22.5-12 5.7-4 10.8-8.7 15.5-13.8 4.8-5.3 9.2-10.9 12.9-17.1 4.5-7.5 7.7-15.5 10.2-23.8 1.3-4.3 2.1-8.7 2.8-13.2.5-2.7 1.2-5.5 1-8.9z"/><path class="st37" d="M187.1 521c-2.8 5.1-3.8 10.8-5 16.4-1.7 7.7-1.6 15.6-.9 23.3 1.8 18.4 7.4 35.3 19.5 49.7 12.3 14.5 27.1 25 45.1 30.9 7.4 2.4 14.9 4.1 22.8 3.8 3.8-.1 7.7.2 11.5-.1 18.3-1.4 35-7.1 49.4-18.8 15.3-12.4 25.9-27.9 31.8-46.7 2.1-6.6 3-13.4 3.9-20.2h6.5c-1.2 20.4-8.1 38.3-20.5 54.2-7.2 9.2-15.4 17.3-25.4 23.4-10.6 6.5-21.9 11-34.1 13.3-9.9 1.9-19.8 2.4-29.7 1.6-8-.6-15.8-2.6-23.4-5.6-11.9-4.6-22.2-11.4-31.7-19.7-13.4-11.8-23-26-28.2-43.2-1.8-6-3-12.1-3.9-18.3-.9-6.1-1-12.2-.7-18.3.4-10.9 2.9-21.5 7.3-31.5 6.3-14.5 15.5-26.9 27.3-37.3 12.5-10.9 27-17.8 43.4-21.1 11-2.2 22.1-2.2 33.1-1.6 8 .4 15.8 2.8 23.3 5.6 8.2 3.1 15.8 7.4 22.9 12.6-.3 2.3-2.2 3.6-3.8 5.5-4.7-2.6-8.9-6.1-13.8-8.4-9.4-4.4-19.1-7.4-29.5-8.8-9.2-1.2-18.1 0-27 1.1-16.9 2-31.3 9.4-44.1 20.3-7.4 6.2-13.6 13.4-18.2 21.9-.8 2.5-1.6 5-2.9 7.3-.3.5-.6 1.1-.9 1.6-.2.3-.4.7-.5 1-.3.5-.6 1-.8 1.4-.1.3-.3.7-.5 1-.2.3-.3.7-.5 1-.1.3-.3.7-.5 1l-.6.9c-.2.3-.4.5-.7.8z"/><path class="st79" d="M413.9 451.3c-1.2 0-1.5 1.2-2.6 1.5-3.7-10.1-7.5-20.1-11.3-30.4 7.4-4.2 14.7-8.3 22.4-12.7.8 2.2 1.5 4.2 2.2 6.3 1.7 5.7 3.3 11.4 5.1 17.1.6 1.9.7 3.8-.3 5.5.7.9 1.6 1.1 2.5 1.5 3.2 1.4 5 3.9 5.3 7.6.6 7.5-1.1 14.4-4.4 21.3-3.5 7.4-6.8 15-10 22.5-2.8 6.5-5.4 13.2-9.3 19.6-2.6-7.6-7-14.2-9.7-21.7-.6-1.7-.7-2.9-.1-4.6 3.4-9.9 6.5-19.8 9.9-29.6.4-1.4.6-2.6.3-3.9z"/><path class="st4" d="M299.9 638.7c-11 3.3-22 4.5-33.7 4.2-.4-3.5-.4-6.9.2-10.3.4-2 .5-3.9.6-5.9.3-7.4.9-14.8 1.9-22.1v-1c.4-7.1.5-14.2 1.3-21.3.9-7.3.6-14.8 2.3-23.1 4.7 13.9 9.1 27 13.6 40.1 4.6 13.1 9.2 26.2 13.8 39.4zM265.9 559c-11.6 24.4-23.2 48.7-35 73.4-10.2-6.3-19.2-13.2-26.8-22 3.7-4.3 8.4-7.4 12.5-11.2 5.2-4.8 10.9-9.1 16.3-13.7 8.3-7 16.6-14.1 25-21.1 2.3-1.9 3.8-4.6 6.9-5.5.5-.3.8-.3 1.1.1zM388.1 490c.1.3.2.7.3 1 .1.4.4.7.7 1 .3 2.7 1.8 5 3.2 7.1 2.2 3.3 1.8 6.3.4 9.7-2.7 6.4-4.7 13.2-6.9 19.8-.2.6-.8 1.5-.6 1.8 2.3 2.6-.4 5-.2 7.5-.6.8-1.2.8-1.8 0-.4-8.4-3-16.4-5.9-24.2C373 502 367 491.4 358.8 482c-3.2-3.6-6.4-7.1-10.2-10.8 5.8-7.8 11.9-15.2 18.7-23.1 5.9 12.1 11.5 23.5 17.1 34.9.1.4.4.7.7 1 .1.3.2.7.3 1 .1.4.4.7.7 1 .1.3.2.7.3 1 .1.4.4.7.7 1 .1.3.2.7.3 1 .1.4.4.7.7 1zM312.1 573.8c.3.2.6.3.9.2.3.3.7.6 1.1.8.3.1.6.2 1 .2.3.3.6.6 1 .7.3.1.6.2 1 .3.3.3.7.6 1.1.8.3.2.6.3.9.2.3.3.7.6 1.1.8.3.2.6.3.9.2.3.3.7.6 1.1.8.3.1.6.2 1 .2.3.3.6.6 1 .7.3.1.6.2 1 .3.3.3.7.6 1.1.8.3.2.6.3.9.2.3.3.7.6 1.1.8.3.2.6.3.9.2.3.3.7.6 1.1.8.3.2.6.3.9.2.3.3.6.6 1.1.7 6.9 3.4 13.8 6.8 21 10.2-5.7 10.3-12.8 19-21 27.3-17.3-20.3-34.3-40.2-51.6-60.5 2-1.3 3.3-1 5-.2 3.9 1.8 7.4 4.2 11.5 5.4.3.3.7.6 1.1.7.3.1.6.2 1 .3.3.3.6.6 1.1.7.3.2.6.3.9.3.3.3.7.6 1.1.8.3.2.6.3.9.2.3.3.7.6 1.1.8.3.2.6.3.9.2.3.3.7.6 1.1.8.3.1.6.2 1 .2.3.3.6.6 1 .7.3.1.6.2 1 .3.3.3.7.6 1.1.8.3.2.6.3.9.2 0 .4.3.7.7.9z"/><path class="st1" d="m262.7 553.7-74.4 27c-3-5.1-5.5-21.8-5-33.5 4.2-.4 8.4-.3 12.6.3.6.1 1.3.4 1.9.4 5.8-.2 11.5.8 17.3 1.2 7.1.5 14.2.6 21.2 1.8.7.1 1.3.1 2 .1 6.8-.3 13.5 1.6 20.3 1.1 1.7-.2 2.8.9 4.1 1.6z"/><path class="st4" d="M265.9 542.1c-6.8-5.9-12.3-13-18.5-19.4-7-7.1-13.9-14.3-20.5-21.7-4.2-4.8-9-9.2-13.4-14.6 8.8-8 18.6-13.9 30-17.5 3.2 10 6.4 19.7 9.6 29.4 4.6 14.3 9.3 28.5 13.9 42.8.1.3 0 .7 0 1-.4.4-.8.4-1.1 0z"/><path class="st1" d="M276.4 559.9c18 21.1 35.8 41.9 53.6 62.7-8.1 7.1-17.4 11.8-27.3 15.4-9.5-25.3-26.1-74.4-26.3-78.1zM263.1 550c-6.8-1.1-13.8-.5-20.6-1.9-.6-.1-1.3-.1-2-.1-6.8.2-13.5-.9-20.3-1.3-8.5-.5-17.1-1.3-25.6-2-3.4-.3-6.8-.8-10.6-.9-.2-6.7 1.6-12.8 3.6-18.8.3-1 .5-1.9.6-2.9.1-.5.5-.9.3-1.4-.1-.3 0-.7.1-1 .2-.4.5-.9.7-1.3.1-.3.3-.6.4-.9.3-.5.5-1 .7-1.4.1-.4.3-.7.5-1 .2-.6.6-1.1 1-1.6 1.9-1.8 3.8-.6 5.5.3 5.1 2.5 10.1 5 14.9 8 .5.3 1.1.6 1.6.9.3.2.7.4 1 .5.5.3.9.5 1.4.8.3.1.6.3.9.5.4.2.9.5 1.4.7.3.1.6.3.9.4.3.1.6.3 1 .5.3.1.7.3 1 .5.3.2.7.3 1 .5.3.1.7.3 1 .5.3.2.7.3 1 .5.3.1.7.3 1 .5.3.2.7.3 1 .5.3.1.7.3 1 .5.3.2.7.3 1 .5.3.1.7.3 1 .5.3.2.7.3 1 .5.3.1.7.3 1 .5.3.2.6.3 1 .5.3.1.6.3 1 .5.5.2 1 .5 1.4.7.3.2.6.3 1 .5.3.2.6.4.9.7.2.1.3.2.5.3.4.2.7.4 1.1.6 1.1.6 2.3 1.1 3.4 1.6.5.3 1 .6 1.5.8.3.2.7.3 1 .5.5.3.9.5 1.4.8.3.1.7.3 1 .5.3.2.7.3 1 .5.3.1.7.3 1 .5.3.2.7.3 1 .5.3.1.7.3 1 .5.3.2.7.3 1 .5.3.1.7.3 1 .5.3.2.7.3 1 .5.3.1.7.3 1 .5.3.2.7.3 1 .5.3.1.7.3 1 .5.3.2.6.3 1 .5.3.1.6.3.9.5.5.2.9.5 1.4.7.3.1.6.3.9.5.3.2.6.4.8.6.1.1.3.2.4.3l.9.6c.1.1.3.2.4.3.1.1.2.3.3.4v.5c-.4.2-.5.4-.6.5z"/><path class="st4" d="M269 560c.2 8.1-.7 16.1-1.8 24.1-.1.7 0 1.3-.1 2-.4 7.1-.6 14.2-1.2 21.3-.8 8.9-1.6 17.7-2 26.6-.1 2.5-.8 5.1-.8 8.1-10.8-.5-20.4-3.9-29.8-8.5 5.5-11.4 11.1-22.7 16.5-34.1 5.8-12.1 11.5-24.3 17.3-36.4.5-1 .6-2.5 1.9-3.1z"/><path class="st1" d="M275.7 464.3c-.1.8-.4 1.5-.4 2.3.3 9.8-1 19.5-1.3 29.3-.2 7.1-.4 14.2-1.1 21.3-.5 5.3-.6 10.5-.8 15.8-.1 3.6-1.3 7.1-1.6 10.8l-24.3-75.3c4.9-3 19.8-5.1 29.5-4.2zM292.1 541c5.8-7.8 12-15.3 18.2-22.8 3-3.7 6.1-7.4 9.1-11.2 4.9-6.4 11.2-11.3 16.7-17.5 8.4 7.7 14.2 16.8 18.7 26.8-1.2 1-2.7 1.3-4.1 1.9-17.8 7.3-35.6 14.7-53.4 22.1-1.3.6-2.7 1-4.1 1.5-.6-.1-.9-.4-1.1-.8zM196 507c3-4.1 6-8.1 9.1-12.1 1.8-2.3 3.9-4.5 6.3-6.1 1.8.5 2.7 1.7 3.6 2.9 3.2 4.2 7.2 7.8 10.8 11.6 10.6 11.4 21.3 22.7 31.9 34.1 2.6 2.8 5 5.7 7.4 8.6-.1.6-.5.9-1 1.2-.3.1-.7.2-1.1.2-.5-.1-1-.3-1.5-.6-.3-.1-.7-.3-1-.5-.3-.2-.6-.3-1-.5-.3-.1-.7-.3-1-.5-.3-.2-.6-.4-1-.5-.3-.1-.7-.3-1-.5-.3-.2-.7-.4-1-.5-.3-.1-.7-.3-1-.5-.3-.2-.7-.4-1-.5-.3-.1-.7-.3-1-.5-.3-.2-.6-.4-1-.5-.3-.1-.7-.3-1-.5-.3-.2-.6-.3-.9-.5-.3-.1-.6-.3-.9-.5-.4-.3-.9-.5-1.3-.7-.3-.1-.6-.3-.9-.4-.4-.3-.9-.5-1.4-.7-.6-.4-1.2-.8-1.9-1.2-.5-.3-1-.6-1.5-.8-1.1-.5-2.2-1-3.3-1.6-.5-.3-1-.6-1.5-.8-.3-.2-.7-.3-1-.5-.5-.3-.9-.6-1.4-.8-.3-.1-.7-.3-1-.5-.3-.2-.6-.3-1-.5-.3-.1-.7-.3-1-.5-.3-.2-.6-.4-1-.5-.3-.1-.7-.3-1-.5-.3-.2-.7-.4-1-.5-.3-.1-.7-.3-1-.5-.3-.2-.7-.4-1-.5-.3-.1-.7-.3-1-.5-.3-.2-.7-.4-1-.5-.3-.1-.7-.3-1-.5-.3-.2-.6-.4-1-.5-.3-.1-.7-.3-1-.5-.3-.2-.6-.3-.9-.5-.3-.1-.6-.3-.9-.5-.4-.3-.9-.5-1.4-.7-.3-.1-.6-.3-.9-.5-.3-.2-.6-.4-.8-.6-.1-.1-.3-.2-.4-.3-.3-.2-.6-.4-1-.5-.4-.2-.7-.3-1.1-.5-.6-.3-1.2-.5-1.7-.8-5.3-2.6-10.6-5.3-15.8-8-3.7-1.9-3.7-3.1-.6-6.4zM326.1 578.2c-.3-.1-.6-.2-1-.2-.3-.3-.6-.6-1-.7-.3-.1-.6-.2-1-.3-.3-.3-.6-.6-1.1-.8-.3-.2-.6-.3-.9-.2-.3-.3-.6-.6-1.1-.8-.3-.2-.6-.3-.9-.2-.3-.3-.6-.6-1.1-.8-.3-.1-.6-.2-1-.2-.3-.3-.6-.6-1-.7-.3-.1-.6-.2-1-.3-.3-.3-.6-.6-1.1-.8-.3-.2-.6-.3-.9-.2-.3-.3-.6-.6-1.1-.8-.3-.2-.6-.3-.9-.2-.3-.3-.6-.6-1.1-.8-.3-.1-.6-.2-1-.2-.3-.3-.6-.6-1-.7-.3-.1-.6-.2-1-.3-.3-.3-.6-.6-1.1-.8-.3-.2-.6-.3-.9-.2-.3-.3-.6-.6-1.1-.8-.3-.2-.6-.3-.9-.2-.3-.3-.6-.6-1.1-.8-.3-.2-.6-.3-.9-.2-.3-.3-.6-.6-1.1-.7-4.3-2.2-8.9-3.9-13.8-7.2 9 0 17-.5 25 .2 7.5.7 15 1.4 22.5 2.4 7 .9 14 2.1 21.1 2.4 2.3.1 4.4 1.3 6.7.9.7 5.6-3.3 20.3-7.6 28-4.9-2.4-9.8-4.9-14.7-7.2-1.3-.6-2.4-1.7-4-1.7-.3-.3-.7-.6-1.1-.7-.3-.1-.6-.2-1-.3-.3-.3-.6-.6-1.1-.7-.3-.2-.6-.3-.9-.3-.3-.3-.6-.6-1.1-.8-.3-.2-.6-.3-.9-.2-.3-.3-.6-.6-1.1-.8-.3-.2-.6-.3-.9-.2-.1-.4-.4-.7-.8-.9zM260 559c-19.1 16.3-38.2 32.6-57.5 49.2-6.4-7.2-10.6-15.4-13.8-24.6 4.9-1.9 9.5-3.8 14.2-5.5 18.4-6.7 36.8-13.4 55.2-20 .3-.1.7 0 1 0 .3.2.5.3.8.4l.1.5z"/><path class="st4" d="M355.7 519.2c3.5 6.9 6.5 20.4 6.3 28.6-24.9.3-49.7.1-74.8-.5 22.8-9.3 45.7-18.7 68.5-28.1z"/><path class="st39" d="M361.1 431c.2-2.1-1.8-3.4-2-5.5 2.4-2.6 6.2-2.6 9-4.5 5.3 11.3 10.7 22.7 16.1 34l14.4 30c6.1 12.8 12.1 25.7 18.2 38.7-1.8 2.1-4.4 4-6 7.5-7.2-14.4-14.3-28.2-20.8-42.3-.2-.4-.5-.7-.8-1-.1-.3-.1-.7-.2-1-.2-.4-.5-.7-.8-1-.1-.3-.1-.7-.2-1-.2-.4-.5-.7-.8-1-.1-.3-.1-.7-.2-1-.2-.4-.5-.7-.8-1-.1-.3-.1-.7-.2-1-.2-.4-.5-.7-.8-1-1.5-5-4.4-9.3-6.6-14-2.9-6.1-6.1-12.2-9.1-18.2-.9-1.9-1.7-3.8-2.6-5.7-.2-.4-.5-.7-.8-1 0-.3 0-.7-.2-1-.2-.4-.5-.7-.8-1 0-.3 0-.7-.2-1-.2-.4-.5-.7-.8-1-.4-2.3-1.5-4.2-3-6z"/><path class="st1" d="M427.4 414.3c8.8 7.4 17.7 14.8 26.7 22.3-3.8 11.2-7.8 22.4-11.6 33.6-4.3 13-8.7 26-13.3 38.9-.5 1.3-1.4 2.6-.3 4.6 1.2 2.3-.7 5.3-3.4 6-2.1.5-3.8 1.8-6 2.3-2-2-2.6-4.9-4.2-7.6 5.5-12.2 11-24.5 16.6-36.9 1.8-4 3.7-8.1 5.4-12.1 2.7-6.5 3.8-13.2 2-20.2-.6-2.4-1.4-4.5-3.3-5.9-2.1-1.5-2.9-3.6-3.5-5.8-1.5-5.8-3.2-11.7-5.2-17.3-.3-.5-.4-1.3.1-1.9zM304.4 469.2c8.3 2.9 17.2 7.9 21.7 12.4-15.4 19.9-30.7 39.9-46.1 59.8-.5.7-1.1 1.7-2.8 1.3 9.1-24.4 18.1-48.8 27.2-73.5zM374.8 422.9c-.6.2-1.3.3-1.9.5-1.7-2.5-2.2-3.2-1.7-3.7 2.4-2.5.1-4.7-.3-6.9-.1-.9-.9-1.7-1.4-2.5-2.1-.6-3.3 1.2-5.5 1.6-3.5-7.4-7.1-14.9-10.8-22.7 9-4 17.6-9.1 27.4-12.1 4.2 11.5 8.3 23 12.5 34.5-.7.5-1.4 1-2 1.5-.4.3-.7.6-1.2.8-.3 0-.6.1-.8.2-.4.2-.7.5-1.1.8l-.9.3c-.4.2-.7.4-1 .7-.4.3-.7.7-1.2.9-.3 0-.6.1-.8.2-.4.3-.7.5-1.1.8-.3 0-.6.1-.9.3-.4.2-.7.4-1 .8-1.3 2.7-3.8 3.3-6.3 4zM274.7 541.6c-.5-3.4-1.1-6.8 0-10.2.2-.8.1-1.6.2-2.5.3-5.8.6-11.5.8-17.3.4-9.6 1.1-19.1 1.5-28.7.2-6.2.7-12.4.9-18.6 6.9-.7 17.1 1.2 23.5 4.5-8.9 24.3-17.9 48.6-26.9 72.8zM400.8 483.8c-7.9-16.6-15.3-32.3-22.9-48.4 6-4.5 12.9-7.3 19.3-11.3 3.1 5.5 4.7 11.5 6.8 17.3 1.1 3.1 2.2 6.2 3.3 9.2.7 1.9 2 3.4 3.5 4.8-3.2 9.1-6.4 18.3-10 28.4z"/><path class="st41" d="M423.1 526c.3 2.3-.3 4.1-2.2 5.6-3.6 2.9-5.6 7-7.4 11.3-.7 1.6-.6 3.1-.3 5 10.5-.2 20.7.4 30.4 2.1 1 1.9-.4 2.9-.6 4.1 1.7 2.6 3.6 5 4.9 7.8-.4.3-.8.5-1.3.5-3.6-.5-5.7-4.7-10.3-3.6-3.2.8-4.5 3.7-7.3 4.5-.5 0-.9-.2-1.3-.5-.2-.6-.2-1.3-.2-2 .4-3 2.5-6.7-1.2-8.6-3.9-2-8.4-3.3-13-.2.8 4 1.9 7.7 4.2 11 3.4 4.8 4.1 4.9 9.1 2.1.5 0 .9.2 1.3.4.8 1.6-.7 3.2-.1 4.8 7.3 3.9 17.2 2.3 21.4-3.5.2-.4.6-.7 1-1 .2-.1.5-.1.7-.2 1.3.1 2.5.1 3.6-1 2.1-2 3.6-4.4 4.2-7.1.5-2.2 1.6-4.3 1.2-6.5 2.4-1.1 3.8 1.2 6.1.5-2.4 12.9-8.2 22.3-20.8 26.3-8.9 2.8-17.1 2.1-25.1-3.1-3.8-2.5-7.4-5.2-9.3-9.1-1.8-3.5-3.9-7.2-3.8-11.3.1-2.2-1.6-4.2-.9-6.2 1-3.2.8-6.7 2.5-9.8 1.6-3 3.1-6.1 5.6-8.6 1.9-1.9 3.5-4.2 5.9-5.7.6-.4 1.2-.4 1.9-.5 1.9.4 1.7 1.4 1.1 2.5z"/><path d="M372.1 368c2.9 1.6 4.3 5 7.9 5.9-1.1 1.5-2.4 1.7-3.7 2.2-4.4 1.6-8.5 3.7-12.8 5.6-8.5 3.8-16.8 8.1-26 10.1-5.8 1.3-11.8 1.9-17.6 1.1-7-1-10.7-4.5-12.8-11.6-.1-.5 0-1-.1-1.5-1.6-6.6 0-8.9 7.1-9.8 1.3.9 1.9 2.3 2.3 3.7 1.7 5.6 5.7 7.9 11.3 7.9 11 .1 20.7-4.2 30.4-8.7 4.5-2 9.1-4.1 14-4.9z" style="fill:#006d92"/><path d="M372.1 368c-1.1 1.8-3.1 2.5-4.8 2.9-6.1 1.6-11.4 4.9-17.2 7.1-4.8 1.8-9.4 3.7-14.7 4.2-3.1.3-6.1.7-9.2.7-5.9 0-10.1-3.5-11.2-9.3-.2-1.3-1.4-2.2-1.1-3.7 1.1-.4 2-.9 3.3-1 6.2-.6 12.2-1.9 18.4-2.7 4.7-.6 9.2-2.1 14-2.3 2.1-.1 4.2-.8 6.2-1.2 3.6-.8 7.2-1.7 11-2.4.8 3.3 3.5 5.2 5.3 7.7z" style="fill:#0098cb"/><path d="M285.9 556.1c.8-2.3 1.5-3.9 1.2-5.8h116.6c1 1.8 0 4 .9 6.4-20 1.2-39.4-.8-58.9-.6-19.7.1-39.4 0-59.8 0z" style="fill:#fa0000"/><path class="st2" d="M381.9 547.9h-7.6c-2.1-26.8-11.7-50.2-32.2-69 .9-2.1 3.6-3.2 4.5-5.6 22.7 19.5 33.1 44.9 35.3 74.6z"/><path class="st83" d="M336.4 486.6c.7-2.3 2.4-3.9 4.3-5.5 19.1 18.1 29.1 40.2 30.7 66.6h-6c-1.9-4-1.4-8.5-2.2-12.8-2.9-15-9.1-28.4-18.9-40.1-2.4-3-4.5-6.3-7.9-8.2z"/><path class="st84" d="M366.1 354c.8-2.6.9-5.4 2.3-7.8 2.2-3.7 4.6-7.2 9.7-7.2.9 0 1.5-1.5 2.6-.7.1.3.4.8.3.9-3 2.8-2.4 6.6-1.8 9.8 1.4 7.9 4.1 15.4 9.1 22 2.8 3.6 5.4 7.4 8.7 10.6 2.1 2 4.2 4.1 4.1 7.4-6.2-4.9-11.7-10.6-18.3-15-1.4-.9-2.5-2.2-3.7-3.3-1.1-1-2-2.4-3.2-3.1-3.3-1.6-5-4.5-6.5-7.7-.5-1.2-.8-2.5-2.4-2.8.4-1.3-.7-2.1-.9-3.1z"/><path d="M435.1 528c3.5-.4 6.7.6 9.7 2.3 6.4 3.5 12.9 6.9 19.4 10.3 3.1 1.7 3.5 3.3 1.9 6.4-1.5 1.2-3.2.6-4.8.2-8.3-1.9-16.5-4-24.8-5.9-5.7-1.3-7.7-9-3.7-13.2.7-.6 1.5-.7 2.3-.1z" style="fill:#653300"/><path class="st79" d="M387.1 381c1.1.6 2.4 1.1 3.3 2 6.2 5.9 12.9 11.1 19.5 16.4.5.4.8.9 1.5 1.7-5.3 3.1-10.3 6.1-15.8 9.3-3.2-9-6.3-17.7-9.4-26.4-.6-1.3-.1-2.2.9-3z"/><path d="M435.1 528c-.5 0-1 .1-1.6.1-1.1 1.3-.3 3-1.2 4.6-1.1 1.8-.1 4.1 1.1 6 .4.7 1 1.3 2 1.3 9.4.9 18.3 4.5 27.6 6 1.1.2 1.9 1.4 3.2 1 0 .5-.1 1-.2 1.8-3 .1-6.1.8-9.1-.4-.4-.2-.9-.4-1.4-.3-5.4.7-10.7-1-16.1-1.2-4.2-.1-8.4-1.1-12.7-.9-1.5.1-2.5-.8-2.6-2.3 0-1.5-.5-3.1.3-4.4.7-1.1.7-2.2.6-3.3-.2-3 .1-5.8 1.6-9h7.5c.6 0 .9.5 1 1z" style="fill:#412000"/><path d="M290.1 533.1c17.7-23.2 35.4-46.5 53.1-69.7 6-7.9 12-15.7 18-23.5.7-.5 1.3-.5 1.8.2l.1-.1c.3.4.4.8.4 1.3-1.8 5.3-5.9 9.2-9.2 13.5-14.8 19.4-29.5 38.9-44.4 58.2-1.6 1.6-2.9 3.4-4.2 5.2-.9 1.3-1.9 2.5-3 3.5-.3.5-.6 1.1-1 1.6-.4.7-.9 1.4-1.5 1.9-.8.7-1.4 1.4-1.7 2.4-.3.5-.8.9-1.2 1.4-.7.7-1.5 1.4-2.1 2.2-.6.6-.7 1.5-1.2 2.2-1.4 1.4-3 3.5-3.9-.3z" style="fill:#fcc7c7"/><path d="M309 512.9c2.6-4.8 6.4-8.7 9.6-13 10.8-14.5 21.6-28.9 32.6-43.2 4-5.2 8.2-10.3 11.8-15.8.4-.2.7-.1 1 .2 0 .3 0 .7.2 1 .2.4.5.7.8 1 0 .3 0 .7.2 1 .2.4.5.8.8 1.1-8 9.8-16 19.7-24 29.5-9 11.2-17.8 22.4-26.9 33.5-1.6 2-2.8 4.5-5.1 5.9-.9.1-1.3-.2-1-1.2z" style="fill:#fc0101"/><path d="M415.1 404.1c2 .9 3.2 2.8 5.2 4.5-14.5 8.1-28.7 16.1-43 24.1-2.3-1.4-2.6-4-3.3-6.5-.1-.4.2-.9.8-1 2.3.9 3.8-.8 5.4-1.8 10-5.9 20.2-11.6 30.2-17.7 1.5-.9 2.9-1.8 4.7-1.6z" style="fill:#fd0101"/><path class="st84" d="M454.1 446c0 4.9-1.8 9.4-3.1 14-2.8 10.4-6.4 20.6-9.1 31.1-1.1 4.2-2.4 8.3-2.8 12.6-.4 4.9 1.8 8.8 6.2 11.3.5.3.7.6.8 1.1-.2.8-.8 1.1-1.5.8-4.5-1.7-9-3.5-13.3-5.2 1.9-5.9 3.6-11.8 5.8-17.5 5.9-15.8 10.9-31.8 16.2-47.8.1-.2.5-.3.8-.4z"/><path d="M494.1 438c.6 0 1 .4 1 1 .3.2.4.5.3.7-.1.2-.2.3-.3.3-.1.3-.2.7-.2 1-.2.4-.5.7-.8 1-.1.3-.2.7-.2 1-.2.4-.5.7-.8 1-.1.3-.2.7-.2 1-.2.4-.5.7-.8 1-.4.3-.7.7-.9 1.2-1.6 4.8-4.3 9.1-6.5 13.6-6.4 13-13 25.9-19.6 38.8-.7 1.5-1.5 2.9-2.3 4.3-.2.4-.5.7-.8 1-.1.3-.2.7-.2 1-.2.4-.5.7-.8 1-.1.3-.2.7-.2 1-.2.4-.5.7-.8 1-.1.3-.2.7-.2 1-.2.4-.5.7-.8 1-.1.3-.2.7-.2 1-.2.4-.5.7-.8 1-.1.3-.2.7-.2 1-.2.4-.5.7-.8 1-.1.3-.2.7-.2 1-.2.4-.5.7-.8 1-.1.3-.1.7-.2 1-.2.4-.5.7-.8 1-.1.3-.1.6-.2 1-.2.4-.5.7-.8 1-.3.3-.6.6-.9 1v.3c-.3-.2-.7-.3-1-.5-.2-.2-.3-.3-.3-.5.1-.2.1-.3.2-.3-.1-.4 0-.7.2-.9.2-.4.5-.8.8-1.1 0-.3 0-.6.3-.9.2-.4.5-.7.7-1.1l.3-.9c.2-.4.4-.7.7-1 .1-.3.2-.6.3-1 .2-.4.4-.7.7-1 .1-.3.2-.6.3-1 .2-.4.4-.7.7-1 .1-.3.2-.6.3-1 .2-.4.4-.7.7-1 .1-.3.2-.6.3-1 .2-.4.4-.7.7-1 .1-.3.2-.6.3-1 .2-.4.4-.7.7-1 .1-.3.2-.6.3-1 .2-.4.4-.7.7-1 .1-.3.2-.6.3-1 .2-.4.4-.7.7-1 .4-1.8 2-3.1 2-5 .3-.3.6-.6.7-1 .1-.3.2-.7.3-1 .3-.3.5-.6.7-1 .1-.3.2-.7.3-1 .3-.3.5-.6.7-1 .1-.3.2-.7.3-1 .3-.3.5-.6.7-1 .1-.3.2-.7.3-1 .3-.3.5-.6.7-1 .1-.3.2-.7.3-1 .3-.3.5-.7.7-1l.3-.9c.3-.3.6-.6.7-1l.3-.9c.3-.3.5-.7.7-1.1.2-.3.3-.6.3-.9.3-.3.5-.7.7-1.1.2-.3.3-.6.3-.9.3-.3.5-.7.7-1.1.2-.3.3-.6.3-.9.3-.3.5-.7.7-1.1 4.4-8.6 8.8-17.1 13.2-25.7.7-1.5 1.5-2.9 2.3-4.3.2-.4.4-.7.7-1.1l.3-.9c.2-.4.4-.7.7-1.1l.3-.9c.2-.4.4-.7.7-1.1l.3-.9c.3-.5.6-.8.9-1.1z" style="fill:#fcc4c4"/><path class="st23" d="M358.1 415.1c-.8.2-1.5.5-2.5.8-3.6-7.6-7.2-15.3-10.8-22.8 1.8-1.9 4.1-1.8 6-3 3.6 7.6 7.1 15.1 10.4 22-.1 2-1.8 1.5-2.1 2.6-.2.6-.5.8-1 .4z"/><path d="M249.3 539.9c.3 0 .5 0 .8.2.4.3.7.7 1.2.8.3 0 .5 0 .8.2.4.3.7.6 1.2.8.3 0 .6 0 .8.2.4.3.7.6 1.2.8.3 0 .6 0 .8.2.4.3.7.6 1.2.8.3 0 .6 0 .8.2.4.3.7.5 1.1.8.3 0 .6 0 .9.2.4.2.7.5 1.1.8.3-.1.7 0 .9.2.4.2.7.5 1.1.8.3 0 .7 0 1-.1l.5.2c.3.2.5.4.7.7.1.2.1.3.2.5 0 .4-.1.6-.4.8-.3.3-.6.5-1 .6-.4 0-.8-.2-1.1-.4l.1-.3c-.3-.2-.6-.4-1-.4-.4-.1-.7-.2-1.1-.3l.1-.3c-.4-.3-.8-.7-1.3-.8-.3 0-.5 0-.8-.2-.4-.3-.7-.7-1.2-.8-.3 0-.5 0-.8-.2-.4-.3-.7-.6-1.2-.8-.3 0-.6 0-.8-.2-.4-.3-.7-.6-1.2-.8-.3 0-.6 0-.8-.2-.4-.3-.7-.6-1.2-.8-.3 0-.6 0-.8-.2-.4-.3-.7-.5-1.1-.8-.3 0-.6 0-.9-.2-.4-.2-.7-.5-1.1-.8-.3.1-.7 0-.9-.2-.4-.2-.7-.5-1.1-.8-.3.1-.7 0-.9-.2-.4-.2-.7-.5-1-.8-.3-.1-.6-.2-1-.3-.4-.2-.7-.4-1-.7-1.9 0-3.2-1.7-5-2-.2-.4-.6-.6-1-.7l.1-.3c-.4-.3-.7-.7-1.3-.8-.3 0-.5 0-.8-.2-.4-.4-.7-.7-1.2-.8-.3 0-.5 0-.8-.2-.4-.4-.7-.7-1.2-.8-.3 0-.5-.1-.8-.2-.4-.3-.7-.6-1.2-.8-.3 0-.6 0-.8-.2-.4-.3-.7-.6-1.2-.8-.3 0-.6 0-.8-.2-.4-.3-.7-.6-1.2-.8-.3 0-.6 0-.8-.2-.4-.3-.7-.6-1.1-.8-.3 0-.6 0-.9-.2-.4-.2-.7-.5-1.1-.8-.3.1-.7 0-.9-.2-.4-.2-.7-.5-1.1-.8-.3.1-.7 0-.9-.2-.4-.2-.7-.5-1.1-.8l-.9-.3c-.4-.2-.7-.4-1-.7-.3-.1-.7-.1-1-.2-.4-.2-.7-.5-1.1-.8-3.3-.6-5.7-3-8.7-4.3-3.7-1.6-7.2-3.7-11-5.6-.5.7-1 1.3-1.5 1.9-.2.4-.5.7-.7 1.1.1.3 0 .7-.2.9-.3.4-.5.7-.8 1.1 0 .3 0 .6-.2.9-.2.4-.6.7-.8 1.2 0 .3 0 .6-.1.8-.3.4-.6.4-.9 0h-1c.1-.3.1-.7.2-1 .2-.4.5-.7.7-1.1-.1-.3 0-.6.2-.9.3-.4.7-.7.8-1.3 0-.3.1-.5.2-.7.4-.4.7-.7.8-1.3 0-.3.1-.5.2-.7.4-.4.7-.8.8-1.3.9-2.8 2.2-5.4 4.2-7.6 0 .8-.3 1.7.9 1.9-.5 1.2-1.1 2.4-1.8 3.9 6.5 3.4 13.2 6.9 19.8 10.3.4.2.7.5 1.1.8.3 0 .7 0 .9.2.4.2.7.5 1 .8.4.4.7.7 1.3.9.3 0 .5 0 .8.2.4.4.7.7 1.2.8.3 0 .5 0 .8.2.4.4.7.7 1.2.8.3 0 .5 0 .8.2.4.3.7.7 1.2.9.3 0 .6 0 .8.2.4.3.7.6 1.2.8.3 0 .6 0 .8.2.4.3.7.6 1.2.8.3 0 .6 0 .8.2.4.3.7.6 1.2.8.3 0 .6 0 .9.2.4.3.7.5 1.1.8.3-.1.7 0 .9.2.4.2.7.5 1.1.8.3-.1.7 0 .9.2.4.2.7.5 1.1.8l.9.3c.4.2.7.5 1 .8 2 .1 3.4 1.4 5 2.2.4.2.7.4 1 .7.7.4 1.3.7 2 1.1.4.4.7.7 1.2.8.3 0 .5 0 .8.2.2 0 .5.4 1 .5z" style="fill:#070b0c"/><path class="st92" d="M403.1 534c0 .5-.1 1-.2 1.8-4.9-2.3-10.1-3.6-14.9-6.3 2.6-7.2 5.1-14.3 7.9-22.2 1.1 1.9 2.2 3 2.2 4.7 0 .8.3 1.7.1 2.5-2 7.4-.5 13.9 4.9 19.5z"/><path d="M403.1 534c-1.3-1.1-2.8-2-4-3.2-4-3.8-3.4-8.7-2.7-13.3.2-1.5.5-3.1.7-4.7 0-.3.7-.6 1-.9.2.4.6.7 1 1 1.9 3.7 3.6 7.5 5.7 11.1 1.5 2.7 1.8 5.1-.1 7.6-.6.9-.3 2.2-1.6 2.4z" style="fill:#002596"/><path d="M406.1 563c1.4 2.1 2.8 4.1 4.4 6.6-3.8.4-6.3-1.9-9.2-2.7-3-.8-6-2-8.9-3.3-2.8-1.2-6.1-1.4-8.4-3.4.4-1 .8-1.2 1.3-1.2h18.4c.8 0 1.2.3 1.4 1-.3.5-1 .6-1.5 1 .8.7 1.7 1.3 2.5 2z" style="fill:#2f1700"/><path class="st50" d="M284.2 549.5c-.5 2.1.7 4.2-1 5.8-1 1-1.8 2.4-3.4 2.7-2.4.5-6.6-1.4-7.6-3.5s.8-6.9 3-8.1c1.4-.8 2.9-.4 4.3-.3 2.2 0 2.9 2.1 4.7 3.4z"/><path d="M441.7 526.4c.8-2.2 1.1-4 2.8-5.2 7.3 3.6 14.9 7 18.6 16-7.4-3.5-14-7.5-21.4-10.8z" style="fill:#626262"/><path d="M415.1 404.1c-5.4 3.9-11.3 6.8-17 10.3-6.2 3.8-12.6 7.4-18.9 11-1.1.6-2.3 1.1-3.2 1.6-.9-.5-.9-1.2-1-1.9.5-.2 1-.5 1.2-1.2 1.1-2.2 3.1-2.8 5.2-3.4.6 0 1.3 0 1.7-.6.4-.3.7-.7 1.2-.9.3 0 .5-.1.8-.3.4-.3.8-.5 1.1-.8.3 0 .6-.1.9-.3.4-.2.7-.4 1-.7.4-.4.7-.7 1.3-.9.3 0 .5-.1.7-.2.4-.3.7-.6 1.2-.8.3 0 .6-.1.8-.3.4-.2.7-.5 1-.8.5-.6 1.5-.4 1.9-1.1 5.4-2.5 10.3-6 15.5-8.9 1.6-.8 3.1-1.9 4.6.2z" style="fill:#fac3c3"/><path d="M452.9 563.1c-3.4-2.1-4.7-5.9-6.6-9-1.3-2 .6-4.1 3.1-4 2.8.1 5.3 1.5 8.1.8-.3 4.8-1.4 8.8-4.6 12.2z" style="fill:#6cc1de"/><path d="M387.1 538.4c.6-1.8 1.1-3.3 1.8-5.2 3.4 1.4 6.7 2.7 10.1 4.1-.3 2.1-1.5 3.6-2.3 5.3-3.1-1.4-6.5-2.1-9.6-4.2z" style="fill:#b7b7b7"/><path d="M290.1 533.1c.1.9.8 1.3 1.6 1.6.8-.6 1.5-1.2 2.3-1.8.4-.5.7-.4 1 .1-3.3 4.2-6.6 8.4-10.3 12.9-.8-.7-1.6-1.4-2.5-2.2 2.2-3.9 5-7.3 7.9-10.6z" style="fill:#f00101"/><path d="M441.3 521.3c-.5 1.7-.9 3.4-2.9 4.5-1.5-.8-3.4-.7-5.2-1-3.3-1.8-1.6-4.2-.6-6.3 1.1-2.1 3.1-1.5 4.7-.7s4 .8 4 3.5z" style="fill:#f4f4f4"/><path d="M398.1 546c1.3-.2 2.2.3 2.9 1.8h-15.5c-1.3-2.3 1.3-3.6.6-5.4 1.3-.6 2.2-.6 3 .2 1.7 1.5 4.3.8 5.9 2.4.7 1.6 1.9 1.3 3.1 1z" style="fill:#2e1600"/><path d="M367.1 419c-2.8.3-5 2.2-7.5 3.3-1.5.6-2.8 1.5-4.4 1.9-1.3-.8-1.6-2.1-1.9-3.2 5-2.2 9.7-5.1 15-6.9 1.4 2.6 1.3 2.9-1.2 4.9z" style="fill:#f80303"/><path d="M368.2 414c-.5 1.4-1.8 1.8-3 2.3-2.6 1.3-5.3 2.4-7.8 3.9-1.4.8-2.8.9-4.2.7-.4-1.2.6-1.8 1-2.6 1.5-.4 2.9-1 4-2 .1-.6.4-.7.9-.4 2.5-.2 4.3-1.9 6.4-2.8 1.1-.3 2.2-.7 2.7.9z" style="fill:#f6bbbb"/><path d="M441.3 521.3c-2.2-2.1-4.5-3.7-7.8-3.2-.2 2.4-2.7 4.4-.3 6.7h-2.6c-1.4-3.6 1-6.5 1.2-10.1 3.5 1.3 6.3 2.4 9.1 3.6 1.2.6 1.9 1.7.4 3z" style="fill:#c4c4c4"/><path d="m406.9 537-3 9c-1.6-.8-3-1.6-4.6-2.4-.2-2 1.7-3.3 2-5.6 2.2.6 3.8-.1 4.7-2.1.5.2.7.6.9 1.1z" style="fill:#66b6d2"/><path d="M420.6 545c-1 0-1.9.2-2.6 0-1.9-.6-2.6-2.4-1.4-3.9 1.7-1.9 2.6-4.6 5.3-6.2.2 3.5.6 6.7-1.3 10.1z" style="fill:#f20000"/><path d="M349.1 559c4.6 0 9.2-.5 13.7.3.2 1.4-.4 1.9-1.4 1.8-2.6-.2-5.3.2-7.9-.8-1.3-.5-2.9-.3-4.4-.4-.3-.2-.5-.4-.4-.6.2-.2.3-.3.4-.3z" style="fill:#6abeda"/><path d="M382.1 420.7c-1.9 1.3-3.9 2.5-6 3.3 0-.8-.6-1-1.3-1.1 1.6-2.1 4.1-2.7 6.3-3.8 0 .6.4.9 1 1 .2.2.3.3.2.5-.1 0-.2.1-.2.1z" style="fill:#0e1012"/><path class="st109" d="M406.1 563c-.1.3-.3.5-.4.8-1.8-1.1-3.6-2.3-6-3.8h5.4c1.8.5.7 2 1 3z"/><path d="M309 512.9c.1.6.3 1.1 1 1.1-1.3 1.7-2.7 3.3-4 5l-.4-.1c-.2-.1-.4-.3-.6-.5l-.1-.4c1.5-1.7 2.1-3.9 4.1-5.1z" style="fill:#f10b0b"/><path d="M423.1 526c-.1-.8.3-1.9-1-2 1.6-1.6 3.7-1.7 6-2.2-1 2.8-4.4 1.8-5 4.2z" style="fill:#565656"/><path class="st109" d="M398.1 546c-1.6 2.2-3.8.4-5.9 1.3.6-2 1.6-2.4 3-2.3 1.1-.4 1.8.8 2.9 1z"/><path d="M387.1 381c.4 1.2-.8 2-1 3-2-.9-.6-2.7-1-4-.3-.2-.4-.5-.3-.7.1-.2.2-.3.3-.3 1 .3 1.7.9 2 2z" style="fill:#001762"/><path d="M302.1 522c1-1.3 2-2.7 3-4l.1.1.9.9.1.1c-.6 1.4-1.6 2.3-2.8 3.1-.5.2-1 .2-1.3-.2z" style="fill:#f50c0c"/><path d="M383.2 537.8h1.8c.2 1.5.4 3-1.5 4-.7-1.3-.3-2.6-.3-4z" style="fill:#1f3941"/><path d="M406.2 535c-.1-1.3 1.5-1.7 1-2.9 1.4-.2 2.1.5 1.7 1.2-.5.9-.5 2.3-1.8 2.7-.5 0-.6-.6-.9-1z" style="fill:#579bb3"/><path d="M451 517c-.5 1.1-.5 2.5-1.9 3-.3-.3-.6-.6-.8-.9.4-1.1.6-2.4 1.7-3.2.6.1.7.7 1 1.1z" style="fill:#579cb3"/><path d="M410.1 355c.6-1.3 2-1.3 3-2l.4.1c.2.1.4.3.5.5l.1.4c-.6 1.3-1.9 1.4-2.9 2.1-.1-.7-.4-1.1-1.1-1.1z" style="fill:#0a141b"/><path d="M453 513c-.5 1.1-.7 2.4-1.8 3.2-.6-.1-.7-.7-.9-1.1.5-1.1.6-2.4 1.7-3.3.6.1.7.7 1 1.2z" style="fill:#61aec8"/><path class="st4" d="M453 513c-.7 0-.9-.6-1.1-1.2-.1-1.1.7-1.9 1.2-2.8.7.1 1 .6 1.1 1.2.1 1.2-.7 1.9-1.2 2.8z"/><path class="st39" d="M298 527.7c.1-1.4.9-2.3 2.1-2.9.5.4.6.8.1 1.3-.7.9-.7 2.3-2.1 2.8-.2-.2-.3-.5-.3-.8 0-.2.1-.4.2-.4z"/><path class="st4" d="M292.1 541c.6 0 .9.2 1 .8-.8.2-1.3 1.4-2.6.9.2-.9.7-1.4 1.6-1.7z"/><path d="M449.2 564c1 .3 1.6 1 1.9 2v.1c-.4.3-.8.4-1.3.4-1-.2-1.7-.8-1.9-1.9 0-.2.1-.5.1-.7.4-.3.8-.3 1.2.1z" style="fill:#575757"/><path class="st39" d="M300.1 526.1c0-.4-.1-.8-.1-1.3l1.2-1.8c.9-.2 1.3 0 .9.9-.3 1.1-1 1.8-2 2.2z"/><path d="M295.1 531c.2-1.1.9-1.7 1.9-2.2.5.4.6.8.1 1.2 0 .6-.3.9-.9 1-.4.4-.7.4-1.1 0z" style="fill:#fe0c0c"/><path class="st39" d="M295.1 531h1c-.4.7-.8 1.3-1.2 2-.3 0-.7 0-1-.1.2-.8.2-1.7 1.2-1.9z"/><path class="st4" d="M264.1 546.9c0-.7.5-.9 1.1-.9.6 0 .9.4 1 .9.3.4.3.8.1 1.3-.4.3-.8.3-1.2-.1-.3-.3-.7-.6-1.1-.8l.1-.4z"/><path class="st66" d="M347.1 559.9c-.9 0-1.9.3-2.9-.4.9-.9 1.9-.5 2.9-.5.3.2.4.4.3.6-.1.2-.2.3-.3.3z"/><path class="st121" d="M447 562h1c.6.1 1 .3 1 1-.2.4-.5.7-.9.9-1.7.2-1.6-.7-1.1-1.9z"/><path class="st39" d="M302.1 523.9c0-.6-.3-.9-.9-.9 0-.6.3-.9.9-1 .4 0 .8.1 1.2.1-.3.7-.1 1.7-1.2 1.8z"/><path class="st122" d="M262 557c-.2 1.1-1 1.7-2 2l-.1-.1c-.2-.4-.2-.7.1-1 .3-1.2 1.3-.8 2-.9z"/><path d="M266.1 548c0-.4.1-.7.1-1.1.8.2 1.2 1 1.7 1.6-.4.7-1 .4-1.6.5-.4-.1-.5-.3-.5-.6.1-.3.2-.4.3-.4z" style="fill:#569ab1"/><path class="st124" d="M395 413c-.2 1.1-1.1 1-1.9 1.1.1-1.4 1.1-1.1 1.9-1.1z"/><path d="M270.1 554v2c-1.3-.2-.9-1.2-1-2 .3-.5.6-.4 1 0z" style="fill:#2a2a2a"/><path class="st126" d="M461.1 523c0 .8.1 1.7-1 2 0-.8-.3-1.8 1-2z"/><path class="st127" d="M466.1 488c0-.8-.1-1.7 1-2-.1.8.3 1.8-1 2zM465.1 490c0-.8-.1-1.7 1-2-.1.8.3 1.8-1 2z"/><path class="st39" d="M297.1 530c0-.4-.1-.8-.1-1.2.1-.6.5-.9 1-1.1 0 .4.1.8.1 1.2-.1.7-.4 1-1 1.1z"/><path d="M267.1 543c.2.1.5.3.7.4-.2.2-.3.5-.5.6-.7.1-1.2-.3-1.2-1 .4-.4.7-.4 1 0z" style="fill:#3e6f80"/><path class="st127" d="M464.1 492c0-.8-.1-1.7 1-2-.1.8.3 1.8-1 2zM463.1 494c0-.8-.1-1.7 1-2-.1.8.3 1.8-1 2z"/><path d="M347.1 559.9c0-.3-.1-.6-.1-.9h2v.9h-1.9z" style="fill:#5394aa"/><path d="M385.1 379v1c-.7-.1-1.1-.6-.9-1.3 0-.2.3-.3.5-.5.1.3.2.6.4.8z" style="fill:#001455"/><path class="st4" d="M406.2 535c.7 0 .9.5 1 1.1 0 .3-.1.6-.3.9-.6-.1-.8-.6-.9-1.1 0-.3 0-.6.2-.9z"/><path class="st126" d="M463.1 519c0 .8.1 1.7-1 2 0-.8-.3-1.8 1-2z"/><path class="st131" d="M265.1 550c-.8 1.4-1.1 1.4-2 0l-.1-.3c.3-.2.7-.2 1.1-.2.4.1.7.2 1 .5z"/><path d="M363 440.1c-.6-.1-1.2-.1-1.8-.2.1-.8.6-1 1.3-.9.2.1.3.7.5 1.1z" style="fill:#ee0c0c"/><path d="M270.1 554h-1c.1-.6-.3-1.6.3-1.6 1.2-.1.5 1 .7 1.6z" style="fill:#1c1c1c"/><path class="st126" d="M462.1 521c0 .8.1 1.7-1 2 0-.8-.3-1.8 1-2z"/><path class="st4" d="M450.2 515c.7.1.9.6.9 1.1 0 .3-.1.5-.2.8-.7 0-.9-.5-1-1.1.1-.2.2-.5.3-.8z"/><path class="st126" d="M464.1 517c0 .8.1 1.7-1 2 0-.8-.3-1.8 1-2z"/><path class="st127" d="M467.1 486c0-.8-.1-1.7 1-2-.1.8.3 1.8-1 2z"/><path class="st134" d="M364.1 437c.6.1 1 .4.8 1-.6-.1-.8-.4-.8-1zM365.1 439c.6.1 1 .4.8 1-.6-.1-.8-.4-.8-1z"/><path class="st135" d="M382.1 420.7v-.7h1c-.2.5-.3 1-1 .7z"/><path class="st134" d="M364.1 441c-.3 0-.6-.1-1-.2-.1-.3-.1-.6 0-.8.7 0 1 .4 1 1z"/><path class="st135" d="M384.3 419.1c-.2.6-.6.9-1.2.9.1-.8.5-1 1.2-.9zM386.2 418c-.2.5-.5.9-1.1.8.1-.6.5-.8 1.1-.8z"/><path class="st134" d="M366.1 441c.6.1 1 .4.8 1-.6-.1-.8-.4-.8-1zM365.1 443c-.6-.1-1-.4-.8-1 .5.1.8.4.8 1z"/><path class="st135" d="M381.1 419c.1-.5.3-.9 1-.8-.1.6-.5.8-1 .8z"/><path class="st134" d="M366 445.1c-.6-.2-.9-.5-.8-1.1.7.1.9.5.8 1.1z"/><path class="st135" d="M388.1 417c-.1.5-.3 1-1 .7.1-.5.4-.7 1-.7zM383 418c.2-.5.5-.9 1.1-.8-.1.6-.5.8-1.1.8zM389.4 416.1c-.2.6-.6.9-1.3.9.1-.8.5-1 1.3-.9zM384.9 416.9c.2-.6.6-.9 1.2-.9-.1.7-.5 1-1.2.9z"/><path class="st124" d="M391.3 415.1c-.2.6-.6.9-1.2.8.1-.7.5-.9 1.2-.8zM386.1 416c.1-.5.3-.9 1-.7-.1.5-.5.7-1 .7z"/><path d="M359.1 415.9c-.3.1-.6.3-.9.4 0-.4-.1-.8-.1-1.2.3-.2.6-.3.9-.4 0 .4 0 .8.1 1.2z"/><path class="st124" d="M393.1 414c-.1.5-.4.9-1 .8.1-.6.4-.8 1-.8z"/><path class="st136" d="M385.1 480c.5.1.9.4.8 1-.6-.1-.8-.4-.8-1z"/><path class="st124" d="M388 415c.1-.6.4-.9 1.1-.8-.1.6-.5.8-1.1.8z"/><path class="st136" d="M386.1 482c.6.1.9.3.8 1-.6-.1-.8-.4-.8-1zM385.1 484c-.5-.1-1-.3-.7-1 .5.1.7.5.7 1zM387.1 484c.6.1.9.3.8 1-.6-.1-.8-.4-.8-1z"/><path class="st124" d="M389.9 413.9c.2-.6.5-.9 1.2-.8-.1.7-.5.9-1.2.8z"/><path class="st136" d="M386.1 486c-.5-.1-1-.3-.7-1 .5.1.7.5.7 1z"/><path class="st127" d="M469.8 485c.2.6-.2.9-.7 1v-1h.7z"/><path class="st136" d="M388.1 486c.6.1.9.3.8 1-.6-.1-.8-.4-.8-1zM387.1 488c-.5-.1-1-.3-.7-1 .5.1.7.5.7 1z"/><path class="st127" d="M468.8 487c.3.7-.2.9-.7 1-.1-.5.1-.9.7-1z"/><path class="st136" d="M389.1 488c.6.1.9.3.8 1-.6-.1-.8-.4-.8-1zM388.1 490c-.5-.1-1-.3-.7-1 .5.1.7.5.7 1z"/><path class="st127" d="M467.8 489c.3.7-.2.9-.7 1-.1-.5.1-.9.7-1z"/><path class="st136" d="M389.1 492c-.5-.2-1-.3-.7-1 .5.1.7.5.7 1z"/><path class="st127" d="M466.8 491c.3.7-.2.9-.7 1-.1-.5.1-.9.7-1zM465.8 493c.3.7-.2.9-.7 1-.1-.5.1-.9.7-1zM464.8 495c.3.7-.2.9-.7 1-.1-.5.2-.9.7-1z"/><path class="st137" d="M462.1 501c0 .5-.2.9-.7 1-.3-.7.2-.9.7-1zM461.1 503c0 .5-.1.9-.7 1-.3-.7.2-.9.7-1zM460.1 505c0 .5-.1.9-.7 1-.3-.7.2-.9.7-1zM459.1 507c0 .5-.1.9-.7 1-.3-.7.2-.9.7-1zM458.1 509c0 .5-.1.9-.7 1-.3-.7.2-.9.7-1zM457.1 511c0 .5-.1.9-.7 1-.3-.7.2-.9.7-1z"/><path class="st92" d="M399.1 513c-.6 0-1-.4-1-1 .6 0 1 .4 1 1z"/><path class="st138" d="M458.1 387.2v.8h-1c.1-.5.3-.9 1-.8z"/><path class="st137" d="M456.1 513c0 .5-.1.9-.7 1-.3-.7.2-.9.7-1zM455.1 515c0 .5-.1.9-.7 1-.3-.7.2-.9.7-1z"/><path class="st126" d="M462.3 516c-.1-.7.2-.9.8-1 0 .6-.2.9-.8 1zM464.1 516h.7c.2.7-.2.9-.7 1v-1z"/><path class="st139" d="M454.1 516.9c0 .6-.1 1-.7 1.1-.3-.6.1-.9.7-1.1z"/><path class="st126" d="M461.3 518c-.1-.7.2-.9.8-1 0 .6-.2.9-.8 1z"/><path d="M448.3 519.1c.6 0 .8.3.8.9-.7 0-1-.3-.8-.9z" style="fill:#68b9d5"/><path class="st139" d="M453 518.9c.1.6-.1 1-.8 1.1 0-.6.3-.9.8-1.1z"/><path class="st126" d="M460.3 520c-.1-.7.2-.9.8-1 0 .6-.2.9-.8 1z"/><path class="st141" d="M188.1 521h.9c.1.6-.2 1-.8 1.3 0-.5-.1-.9-.1-1.3z"/><path class="st139" d="M452 520.9c0 .3.1.6.1.8-.3-.1-.6-.2-.8-.3.2-.1.5-.3.7-.5z"/><path class="st126" d="M459.3 522c-.1-.7.2-.9.8-1 0 .6-.2.9-.8 1z"/><path class="st4" d="M267.1 543c-.3 0-.6 0-.9-.1l-.3-.9c.4 0 .7-.1 1.1-.1 0 .4 0 .8.1 1.1z"/><path class="st142" d="M266.1 548c0 .3.1.6.2.9-.4 0-.8.1-1.2.1v-1h1zM265.1 550c-.4 0-.8 0-1.2-.1-.3-.3-.3-.6 0-.9.4 0 .8-.1 1.2-.1v1.1z"/><path d="M262.1 557c.1-.3.2-.6.4-.8.3-.2.5.1.4.4-.2.2-.6.3-.8.4z" style="fill:#223e47"/><path d="M270.1 556c.3.1.5.2.8.4l-.4.4c-.2-.3-.3-.5-.4-.8z" style="fill:#151515"/><path d="M266.1 558c.1-.3.2-.7.4-.8.3-.2.6.1.4.4-.2.2-.6.3-.8.4z" style="fill:#4c879c"/><path class="st4" d="M260.1 557.9c0 .3-.1.7-.1 1-.6 0-.8-.3-.8-.8.2-.1.5-.1.9-.2zM265.9 559c-.3 0-.7 0-1-.1.2-.6.5-1 1.2-.9-.1.3-.1.7-.2 1z"/><path class="st66" d="M269.1 560.1c.1-.3.2-.7.4-.8.3-.2.6.1.4.4-.2.1-.6.2-.8.4z"/><path class="st121" d="M448.1 563.9c0-.6.3-.9.9-.9.1.3.2.6.2 1-.4 0-.7 0-1.1-.1z"/><path class="st70" d="M300.1 565.2c.7-.2.9.2 1.1.7-.7.1-1-.1-1.1-.7zM298.1 566.8c-.7.2-.9-.2-1.1-.7.6-.2 1 .1 1.1.7z"/><path class="st146" d="M302.1 566.2c.7-.2.9.2 1.1.8-.7.1-1-.2-1.1-.8z"/><path class="st70" d="M300.1 567.8c-.7.2-.9-.2-1.1-.7.6-.1 1 .1 1.1.7z"/><path class="st146" d="M304.1 567.2c.7-.2.9.2 1.1.8-.7.1-1-.2-1.1-.8zM302.1 568.8c-.7.2-.9-.2-1.1-.8.6-.1 1 .2 1.1.8zM306.1 568.2c.7-.2.9.2 1.1.8-.7.1-1-.2-1.1-.8zM304.1 569.8c-.7.2-.9-.2-1.1-.8.6-.1 1 .2 1.1.8z"/><path class="st147" d="M308.1 569.3c.7-.2.9.2 1 .7-.6 0-.9-.2-1-.7z"/><path class="st146" d="M306.1 570.8c-.7.2-.9-.2-1.1-.8.6-.1 1 .2 1.1.8zM310.1 570.2c.7-.2.9.2 1.1.8-.7.1-1-.2-1.1-.8z"/><path class="st147" d="M308.1 571.7c-.7.2-.9-.2-1-.7.5 0 .9.2 1 .7z"/><path class="st146" d="M312.1 571.2c.7-.2.9.2 1.1.8-.7.1-1-.2-1.1-.8zM310.1 572.8c-.7.2-.9-.2-1.1-.8.6-.1 1 .2 1.1.8zM314.1 572.2c.7-.2.9.2 1.1.8-.7.1-1-.2-1.1-.8zM312.1 573.8c-.7.2-.9-.2-1.1-.8.6-.1 1 .2 1.1.8z"/><path class="st147" d="M316.1 573.3c.7-.2.9.2 1 .7-.6 0-.9-.2-1-.7z"/><path class="st146" d="M314.1 574.8c-.7.2-.9-.2-1.1-.8.6-.1 1 .2 1.1.8zM318.1 574.2c.7-.2.9.2 1.1.8-.7.1-1-.2-1.1-.8z"/><path class="st147" d="M316.1 575.7c-.7.2-.9-.2-1-.7.5 0 .9.2 1 .7z"/><path class="st146" d="M320.1 575.2c.7-.2.9.2 1.1.8-.7.1-1-.2-1.1-.8zM318.1 576.8c-.7.2-.9-.2-1.1-.8.6-.1 1 .2 1.1.8zM322.1 576.2c.7-.2.9.2 1.1.8-.7.1-1-.2-1.1-.8zM320.1 577.8c-.7.2-.9-.2-1.1-.8.6-.1 1 .2 1.1.8z"/><path class="st147" d="M324.1 577.3c.7-.2.9.2 1 .7-.6 0-.9-.2-1-.7z"/><path class="st146" d="M322.1 578.8c-.7.2-.9-.2-1.1-.8.6-.1 1 .2 1.1.8zM326.1 578.2c.7-.2.9.2 1.1.8-.7.1-1-.2-1.1-.8z"/><path class="st147" d="M324.1 579.7c-.7.2-.9-.2-1-.7.5 0 .9.2 1 .7z"/><path class="st146" d="M328.1 579.2c.7-.2.9.2 1.1.8-.7.1-1-.2-1.1-.8zM326.1 580.8c-.7.2-.9-.2-1.1-.8.6-.1 1 .2 1.1.8zM330.1 580.2c.7-.2.9.2 1.1.8-.7.1-1-.2-1.1-.8zM328.1 581.8c-.7.2-.9-.2-1.1-.8.6-.1 1 .2 1.1.8z"/><path class="st70" d="M332.1 581.2c.7-.2.9.2 1.1.7-.7.1-1-.1-1.1-.7z"/><path class="st146" d="M330.1 582.8c-.7.2-.9-.2-1.1-.8.6-.1 1 .2 1.1.8z"/><path class="st70" d="M334.1 582.2c.7-.2.9.2 1.1.7-.7.2-1-.1-1.1-.7zM332.1 583.8c-.7.2-.9-.2-1.1-.7.6-.1 1 .1 1.1.7z"/><path d="M398.1 144c.6 0 .9.3.9.9-.6.1-.9-.2-.9-.9zM364 353c0 .6-.2.9-.9.8 0-.5.3-.8.9-.8zM356.1 346.9c0-.6.3-.9.9-.9.1.7-.2 1-.9.9z"/><path class="st65" d="M507.1 432c0-.5.2-.9.7-1 .2.7-.2.9-.7 1zM506.1 434c0-.5.2-.9.7-1 .2.7-.2.9-.7 1zM505.1 436c0-.5.2-.9.7-1 .2.7-.2.9-.7 1zM504.1 438c0-.5.2-.9.7-1 .2.7-.2.9-.7 1zM503.1 440c0-.5.2-.9.7-1 .2.7-.2.9-.7 1z"/><path class="st126" d="M468.1 509c0-.5.2-.9.7-1 .2.7-.2.9-.7 1zM467.1 511c0-.5.2-.9.7-1 .2.7-.2.9-.7 1zM466.1 513c0-.5.2-.9.7-1 .2.7-.2.9-.7 1zM465.1 515c0-.5.2-.9.7-1 .2.7-.2.9-.7 1z"/><path d="M453.2 66.4c0 9-7 16.7-15.6 16.5-10.2-.2-17.2-6.3-17.4-16.3-.2-9.4 6.8-16.3 15.9-16.6 10.4-.5 17.8 8.2 17.1 16.4z" style="fill:#050404"/><path d="M480.9 107.9c-4.5 1.1-6.8 4.8-10 7.7-1.5 1.3-3.1 2.5-4.8 3.5-5.8 3.5-11.7 3.9-17.7.1-4.3-2.7-8.4-5.7-10.8-10.5 1.7-1.3 3.3-.9 4.6-.5 7.3 2.3 14.7 1.9 22.1 1.9 3.2 0 6-1.5 9.1-2.2 1.6-.4 3.1-1.2 4.6-1.6 1.4-.5 2.3.1 2.9 1.6z" style="fill:#070606"/><path d="M472.1 91c-1.1-2-3.4-2.5-4.7-4.3-1.2-1.7-2.7-3.2-2-6 2.4 1.4 3.1 3.8 4.9 5.2 1.7 1.3 3.3 2.8 4.7 4.5 1.6 1.8 1.4 3.9.5 6-1.1 2.6-3.5 3.6-5.6 3.3-2.9-.4-5.9-.5-8.7-1.3-.6-.2-1.2-.6-1-2 1.7-1 3.9-.1 5.9-.5 5.4.1 5.9-.3 6-4.9z" style="fill:#0b0909"/><path class="st151" d="M386.4 87.3c2.6 3.9 2.7 5.2.9 7.2-1.5 1.6-2.8 1.8-4.8.7-1.8-1.1-3.1-3.8-2.3-5.4 1.3-2.6 3.5-3.2 6.2-2.5zM444.1 45.6c-3.1 1.9-12.1 2.8-17.8 1.9-.6-1.7.7-2.2 1.7-2.3 1.8-.3 3.6-.1 5.5-.2 2.4-.2 4.9.3 7.4-.7 1-.5 2.2-.1 3.2 1.3z"/><path d="M454.2 124.2h9.4c-2.4 3.6-5.6 2.8-8.5 2.7-1.3-.1-1.3-1.2-.9-2.7z" style="fill:#201a1a"/><path d="M472.1 91c2 1.1.8 2.9 1 4.3-2.3 1.9-4.6 2.4-7.1.6.4-1.1 1.2-.8 2-.9 2.6-.1 4-1.5 4.1-4z" style="fill:#c09a9a"/><path d="M484.3 63.6c.7-2 1.4-3.8 3.7-3.4 1.2.2 1.9 1.1 2 2.4.1 1.2-.1 2.4-1.2 3-2.1 1.2-3.3-.2-4.5-2z" style="fill:#080808"/><path class="st155" d="M429.6 136.1c1.1 1.7.6 5.4-1 7.8-.4-.3-1.1-.9-1-.9 1.2-2.1-.6-5 2-6.9z"/><path d="M414.1 352c0-.6.4-.9 1-1 .3-.3.6-.7 1-1l1-1c.3-.3.6-.3 1 0 .2.2.3.5.3.8-.1.3-.1.4-.2.4-.8 1.2-1.8 2.2-3.1 2.9-.6-.1-.9-.5-1-1.1z"/><path d="M414.1 352c.7 0 .9.5 1 1.1-.1.6-.5.9-1.1.9l-.1-.1c-.3-.3-.6-.6-.9-.8h-.1c.3-.7.6-1.1 1.2-1.1z"/><path class="st156" d="M442.1 383.1c-.1.6-.5.9-1.1.8.2-.5.4-.8 1.1-.8zM444.1 382c-.1.7-.5 1-1.2.9.2-.5.5-.9 1.2-.9z"/><path class="st75" d="M459.1 373.2c-.1.6-.5.8-1 .8.1-.5.3-.9 1-.8zM461.1 372.1c-.1.7-.5.9-1.2.9.2-.6.5-1 1.2-.9zM464.1 370.2c-.1.6-.5.8-1 .8.1-.5.3-.9 1-.8zM466.1 369.1c-.1.7-.5.9-1.1.8.1-.5.4-.9 1.1-.8z"/><path class="st74" d="M469.1 367.3c-.1.6-.4.8-1 .8.1-.6.3-1.1 1-.8zM471.1 366.1c-.1.6-.5.9-1.1.8.2-.4.4-.8 1.1-.8zM473.1 365.1c-.1.7-.5 1-1.2.9.2-.6.5-1 1.2-.9zM476.1 363.2c-.1.6-.5.8-1 .8.1-.5.3-1 1-.8zM478.1 362.1c-.1.7-.5.9-1.1.9.1-.6.4-1 1.1-.9zM480.1 361c-.1.8-.5 1-1.2.9.2-.6.5-.9 1.2-.9zM481.1 360.2c-.1.6-.5.8-1 .8.1-.5.3-.9 1-.8z"/><path class="st157" d="M418.2 350.2c0-.4-.1-.8-.1-1.2h1c0 .6-.3 1-.9 1.2z"/><path d="M445.8 497.3v.3c-.2.3-.4.2-.6-.2l.3-.3c.1.1.2.2.3.2z" style="fill:#0f3ccb"/><path class="st157" d="M416.1 350c0 .6-.4.9-1 1 0-.6.4-1 1-1zM417.1 349c-.1.6-.4.9-1 1 0-.6.4-1 1-1zM418.1 349h-1c0-.6.4-1 1-1v1z"/><path d="M687.2 569.1c-.1-.7-.5-1.1-1.2-1.2.7-1.3 1.7-2.3 3-3l.2.2.9.9.2.2c-.8 1.2-1.7 2.3-3.1 2.9z" style="fill:#050708"/><path class="st67" d="M544.1 459c.1.5-.1.9-.7 1-.3-.7.2-.9.7-1zM543.1 461c0 .5-.2.9-.7 1-.3-.7.2-.9.7-1z"/><path class="st72" d="M482.1 376.1c.1-1.4 1.2-1 2-1.1-.3 1-1.2 1-2 1.1z"/><path class="st127" d="M474 472.8c.1.7-.1 1.2-.9 1.3 0-.7.3-1.1.9-1.3zM473.1 474c0 .5-.2.9-.7 1-.3-.7.2-.9.7-1zM472.1 476c0 .5-.2.9-.7 1-.3-.7.2-.9.7-1zM471.1 478c0 .5-.2.9-.7 1-.3-.7.2-.9.7-1zM470.1 480c0 .5-.2.9-.7 1-.3-.7.2-.9.7-1zM469.1 482c0 .5-.2.9-.7 1-.3-.7.2-.9.7-1z"/><path class="st69" d="M509.1 403c0 .5-.2.9-.7 1-.3-.7.2-.9.7-1zM510.1 401c0 .5-.2.9-.7 1-.3-.7.2-.9.7-1zM511.1 399c0 .5-.2.9-.7 1-.3-.7.2-.9.7-1z"/><path class="st138" d="M461.1 387.9c.1-.7.5-1 1.2-.9-.2.6-.6 1-1.2.9zM463.1 386.9c.1-.7.5-.9 1.1-.8-.2.5-.5.9-1.1.8zM465.1 385.8c.1-.6.4-.8 1-.8-.1.5-.4.9-1 .8zM467.1 384.7c.1-.5.5-.7.9-.7-.1.5-.2 1-.9.7zM468.1 384c.1-.8.6-1 1.3-.9-.3.6-.7.9-1.3.9z"/><path class="st72" d="M484.1 375c.1-.8.6-1 1.3-.9-.3.6-.7.9-1.3.9zM486.1 373.9c.1-.7.5-.9 1.2-.8-.2.5-.6.9-1.2.8zM488.1 372.8c.1-.6.5-.8 1.1-.8-.2.6-.5.9-1.1.8zM490.1 371.8c.1-.6.4-.8 1-.8-.1.5-.3.9-1 .8z"/><path d="M405.2 250.8c4.8-1.2 9.5-2.2 14.2-3 7.3-1.2 14.6-2.3 21.8-3.6 5.2-1 10.5-2 15.8-2.4 2.6-.2 5.5-.4 8-1.4 1.2-.5 1.3.6 1.9.9-.3.9-1 1.6-1.7 1.6-5.2-.2-10.3 1.4-15.3 2.2-5.2.9-10.5 1.6-15.6 2.6-5.2.9-10.4 2.2-15.8 2.3-2.8.1-5.7.9-8.5 1.6-1.8.5-3.4.7-4.8-.8z" style="fill:#fee3e3"/><path d="M504.4 250c-4.7 1.4-8.7 2.7-13.7 3.1 3.2-3.3 7.2-2.8 10-4.5-5-7.6-12.4-10.5-21.2-9.5-.5-1.4-.3-1.9.8-2 10.7-1.3 18 3.9 24.1 12.9z" style="fill:#fee2e2"/><path class="st155" d="M399.3 224.2c-2.6-4.2-.1-8.9-1.8-13-.1-.2.6-.8 1-1.3.6.6 1.3 1 1.4 1.6.6 3.8-.2 7.7.7 11.5 0 .2-.5.4-1.3 1.2z"/><path class="st131" d="M582.1 479c.5 0 .9.2 1 .8-.7.1-.9-.3-1-.8zM584 480c.6-.1.9.2 1.1.8-.7.1-.9-.3-1.1-.8z"/><path class="st146" d="M586 481c.6-.1.9.2 1.1.8-.7.1-.9-.3-1.1-.8zM588 482c.6-.1.9.2 1.1.8-.7.1-.9-.3-1.1-.8zM590 483c.6-.1.9.2 1.1.8-.7.1-.9-.3-1.1-.8z"/><path class="st147" d="M592.1 484c.5 0 .9.2 1 .7-.7.2-.9-.2-1-.7z"/><path class="st162" d="M594.1 485c.6-.1.9.2 1 .7-.7.2-.9-.2-1-.7zM596.1 486c.6-.1.9.2 1 .7-.7.2-.9-.2-1-.7z"/><path class="st131" d="M586.1 479c-.6.1-.9-.2-1.1-.8.7-.1 1 .3 1.1.8z"/><path class="st146" d="M588.1 480c-.6.1-.9-.2-1.1-.8.7-.1 1 .3 1.1.8zM590.1 481c-.6.1-.9-.2-1.1-.8.7-.1 1 .3 1.1.8zM592.1 482c-.6.1-.9-.2-1.1-.8.7-.1 1 .3 1.1.8z"/><path class="st147" d="M594.1 483c-.5 0-.9-.2-1-.7.6-.2.9.2 1 .7z"/><path class="st162" d="M596.1 484c-.6.1-.9-.2-1-.7.6-.2.9.2 1 .7zM598.1 485c-.6.1-.9-.2-1-.7.6-.2.9.2 1 .7z"/><path class="st65" d="M506.1 430c0 .5-.2.9-.8 1-.1-.7.2-.9.8-1zM505.1 432c0 .5-.2.9-.8 1-.1-.7.2-.9.8-1z"/><path class="st163" d="M498.1 434c0-.6.2-.9.8-1 .1.7-.3.9-.8 1z"/><path class="st65" d="M504.1 434c0 .5-.2.9-.8 1-.1-.7.2-.9.8-1z"/><path class="st163" d="M497.1 436c0-.6.2-.9.8-1 .1.7-.3.9-.8 1z"/><path class="st65" d="M503.1 436c0 .5-.2.9-.8 1-.1-.7.2-.9.8-1z"/><path class="st163" d="M496.1 438c0-.6.2-.9.8-1 .1.7-.3.9-.8 1zM495.1 440v-1h.8c.1.6-.3.9-.8 1zM494.1 442c0-.6.2-.9.8-1 .1.7-.3.9-.8 1zM493.1 444c0-.6.2-.9.8-1 .1.7-.3.9-.8 1zM492.1 446c0-.5.2-.9.8-1 .1.7-.3.9-.8 1zM491.2 447.2c-.1-.7.1-1.1.9-1.2 0 .6-.3 1-.9 1.2z"/><path class="st137" d="M462.1 505c0-.6.2-.9.8-1 .1.7-.3.9-.8 1z"/><path class="st126" d="M468.1 505c0 .5-.2.9-.8 1-.1-.7.2-.9.8-1z"/><path class="st137" d="M461.1 507c0-.6.2-.9.8-1 .1.7-.3.9-.8 1z"/><path class="st126" d="M467.1 507c0 .5-.2.9-.8 1-.1-.7.2-.9.8-1z"/><path class="st137" d="M460.1 509c0-.6.2-.9.8-1 .1.7-.3.9-.8 1z"/><path class="st126" d="M466.1 509c0 .5-.2.9-.8 1-.1-.7.2-.9.8-1z"/><path class="st137" d="M459.1 511c0-.6.2-.9.8-1 .1.7-.3.9-.8 1z"/><path class="st126" d="M465.1 511c0 .5-.2.9-.8 1-.1-.7.2-.9.8-1z"/><path class="st137" d="M458.1 513c0-.6.2-.9.8-1 .1.7-.3.9-.8 1z"/><path class="st126" d="M464.1 513c0 .5-.2.9-.8 1-.1-.7.2-.9.8-1z"/><path class="st137" d="M457.1 515c0-.6.2-.9.8-1 .1.7-.3.9-.8 1zM456.1 517c0-.6.2-.9.8-1 .1.7-.3.9-.8 1z"/><path class="st139" d="M455.1 519c0-.6.2-.9.8-1 .1.6-.3.9-.8 1zM454.1 521c0-.6.2-.9.8-1 .1.7-.3.9-.8 1z"/><path class="st137" d="M453.1 522c0-.6.3-.9.9-1 0 .6-.2 1-.9 1z"/><path class="st138" d="M460.1 386.2c-.1.6-.4.9-1 .8.1-.5.3-.9 1-.8zM462.1 385.1c-.1.7-.5.9-1.1.9.1-.6.4-1 1.1-.9zM464.1 384.1c-.1.7-.5.9-1.1.9.1-.6.4-1 1.1-.9zM467.1 382.2c-.1.6-.4.8-1 .8.1-.5.3-.9 1-.8z"/><path class="st72" d="M483.1 373.2c-.1.6-.4.8-1 .8.1-.5.3-1 1-.8zM485.1 372.1c-.1.6-.5.9-1 .8.1-.5.3-.8 1-.8zM487.1 371.1c-.1.7-.5.9-1.1.9.1-.6.4-1 1.1-.9z"/><path d="M528.2 253.6c2.6-3.1 6.6-2.9 10.2-4.2-2.4-4-6.1-6.3-9.8-8.2-3.8-2-8.3-1-12.4-1.3 0-1-.1-1.8.5-1.8 3.7.1 7.4-.6 11.2.6 2.5.8 4.4 1.9 6.2 3.6 2.4 2.3 4.8 4.6 6.9 6.6.3 1.8-.7 2.8-1.5 2.7-3.2-.1-5.9 1.4-8.9 2.2-.7.4-1.6.4-2.4-.2z" style="fill:#bda8a8"/><path d="M571.1 440c-2.4-1.3-2.8-4.3-5-5.3.2-2 1.7-1.8 2.6-2.6l3.3 6.9c-.2.3-.3.5-.4.8-.1.1-.5.2-.5.2z" style="fill:#62afca"/><path class="st122" d="M573.1 442c-1.1-.2-1.7-.9-2-2l.1-.1c.4-.3.7-.2 1 .1 1.2.3.9 1.2.9 2z"/><path class="st131" d="M574 443c.2.1.5.3.7.4-.2.2-.3.5-.5.5-.7.1-1.2-.2-1.2-1 .4-.3.8-.2 1 .1z"/><path class="st4" d="M572.2 440c-.3 0-.7-.1-1-.1-.1-.6.2-.8.8-.8.1.2.2.5.2.9z"/><path d="M574 443h-1c0-.3-.1-.7 0-1 .8 0 1 .3 1 1z" style="fill:#457c8e"/><path class="st163" d="M498.1 430c0 .5-.1.9-.7 1-.3-.7.2-.9.7-1zM497.1 431.9c.1.6-.1.9-.7 1-.3-.6.2-.8.7-1zM496.1 433.9c.1.6-.1.9-.7 1.1-.2-.6.2-.9.7-1.1zM495.1 435.9c.1.6-.1.9-.7 1.1-.2-.6.2-.9.7-1.1zM494.1 438c.1.5-.1.9-.7 1-.3-.7.1-.9.7-1zM493.1 439.9c.1.6-.1.9-.7 1.1-.2-.6.2-.9.7-1.1zM492.1 441.9c.1.6-.1.9-.7 1.1-.2-.6.2-.9.7-1.1zM491.1 443.9c.1.6-.1.9-.7 1.1-.2-.6.2-.9.7-1.1z"/><path class="st127" d="M474.9 475c.1.6-.2.9-.7 1.1-.1-.6.1-1 .7-1.1zM473.8 477c.2.6-.2.9-.7 1.1-.1-.6.1-1 .7-1.1zM472.8 479c.2.6-.2.9-.7 1.1-.1-.6.1-1 .7-1.1zM471.8 481c.2.6-.2.9-.7 1.1-.1-.6.1-1 .7-1.1zM470.8 483c.2.7-.2.9-.7 1-.1-.5.1-.9.7-1z"/><path class="st69" d="M509.9 406c.2.6-.2.9-.7 1.1-.1-.6.1-1 .7-1.1zM510.9 404c.2.6-.2.9-.7 1.1-.1-.6.1-1 .7-1.1zM511.9 402c.2.6-.2.9-.7 1.1-.1-.6.1-1 .7-1.1zM512.9 400c.2.6-.2.9-.7 1.1-.1-.6.1-1 .7-1.1z"/><path class="st75" d="M458.1 376.1c.1-1.4 1.1-1 1.9-1.1-.2 1-1.1 1-1.9 1.1z"/><path class="st156" d="M443.1 384.9c.1-.7.5-.9 1.2-.8-.2.5-.6.9-1.2.8zM445.1 383.8c.1-.6.5-.8 1.1-.8-.2.6-.5.9-1.1.8zM447.1 382.7c.1-.5.5-.7 1-.7-.2.5-.3 1-1 .7z"/><path class="st75" d="M460.1 375c.1-.8.6-1 1.3-.9-.3.6-.7.9-1.3.9zM462.1 373.9c.1-.7.5-.9 1.1-.8-.2.5-.5.8-1.1.8zM464.1 372.7c.1-.6.5-.8 1-.7-.2.5-.3.9-1 .7zM465.1 372c.1-.8.6-1 1.3-.9-.3.6-.7.9-1.3.9zM467.1 370.9c.1-.7.6-.9 1.2-.8-.2.5-.6.9-1.2.8zM469.1 369.8c.1-.6.4-.8 1-.8-.1.5-.4.9-1 .8z"/><path class="st74" d="M471.1 368h1c-.1.5-.3 1-1 .7v-.7z"/><path class="st75" d="M471.1 368v.7c-.3.1-.7.2-1 .4 0-.7.3-1.1 1-1.1z"/><path class="st74" d="M472.1 368c.1-.8.6-1 1.3-.9-.3.6-.7.9-1.3.9zM474.1 366.9c.1-.7.5-.9 1.1-.8-.2.5-.5.9-1.1.8zM476.1 365.7c.1-.5.5-.7 1-.7-.2.5-.3 1-1 .7z"/><path class="st75" d="M477.1 365c.1-.8.6-1 1.3-.9-.3.6-.7.9-1.3.9z"/><path class="st74" d="M479.1 363.9c.1-.7.6-.9 1.2-.8-.2.5-.6.8-1.2.8zM481.1 362.8c.1-.6.4-.8 1-.8-.1.5-.4.9-1 .8z"/><path d="M690 566c-.6 0-.9-.3-.9-.9.6-.1.9.2.9.9z"/><path class="st141" d="M191 512.7c.2.7 0 1.2-.8 1.3-.1-.6.2-1 .8-1.3zM190 514.7c.2.7 0 1.2-.8 1.3-.1-.6.2-1 .8-1.3zM189 516.7c.1.7 0 1.1-.8 1.3-.1-.6.2-1 .8-1.3zM188 518.9c.1.6-.1 1-.7 1.1-.2-.7.2-.9.7-1.1zM191.1 516.1c-.1-.6.1-.9.7-1.1.2.7-.2.9-.7 1.1zM190.1 518.1c0-.6.1-1 .8-1.1.1.6-.3.9-.8 1.1zM189.2 520.2c-.1-.6.1-1.1.8-1.2 0 .6-.3 1-.8 1.2z"/><path class="st70" d="M213 523c.6-.1.9.2 1.1.8-.7.1-.9-.3-1.1-.8z"/><path class="st167" d="M215.1 524c.5 0 .9.2 1 .7-.7.2-.9-.2-1-.7zM217 525c.6 0 1 .1 1.1.8-.7.1-.9-.3-1.1-.8zM219 526c.6 0 1 .1 1.1.8-.7.1-.9-.3-1.1-.8zM221 527c.6 0 1 .1 1.1.8-.7.1-.9-.3-1.1-.8zM223 528c.6 0 1 .2 1.1.8-.7.2-1-.2-1.1-.8zM224.9 529.1c.6-.1 1.1.1 1.2.8-.7.1-1-.3-1.2-.8zM226.9 530.1c.6-.1 1.1.1 1.2.8-.7.1-1-.3-1.2-.8zM228.9 531.1c.6-.1 1.1.1 1.2.8-.7 0-1-.3-1.2-.8zM230.8 532.1c.7-.1 1.2.1 1.2.8-.6.1-.9-.2-1.2-.8zM232.8 533.1c.7-.1 1.2.1 1.2.8-.6.1-.9-.2-1.2-.8zM234.8 534.1c.7-.1 1.2.1 1.3.8-.6.1-1-.2-1.3-.8z"/><path class="st1" d="M236 535.3c.7-.2.9.2 1 .7-.5 0-.8-.3-1-.7z"/><path class="st147" d="M242 538c.6 0 .9.2 1 .7-.6.2-.8-.2-1-.7z"/><path class="st142" d="M244 539c.6 0 .9.2 1 .8-.6.2-.8-.3-1-.8zM246 540c.6 0 1 .1 1.1.8-.7.1-.9-.3-1.1-.8zM248 541c.6 0 1 .1 1.1.8-.7.1-.9-.3-1.1-.8zM250 542c.6 0 1 .2 1.1.8-.7.1-.9-.2-1.1-.8zM251.9 543.1c.6-.1 1.1.1 1.2.8-.7.1-1-.3-1.2-.8zM253.9 544.1c.6-.1 1.1.1 1.2.8-.7.1-1-.3-1.2-.8zM255.9 545.1c.6-.1 1.1.1 1.2.8-.7.1-1-.3-1.2-.8zM257.9 546.1c.7-.1 1.1.1 1.2.8-.7.1-1-.3-1.2-.8zM259.8 547.1c.7-.1 1.2.1 1.3.8-.6.1-1-.2-1.3-.8z"/><path class="st168" d="M261 548.2c.3-.1.6-.2.9-.1.3.1.4.3.4.5s-.1.4-.2.4c-.6 0-.9-.2-1.1-.8z"/><path class="st142" d="M262.1 549c-.1-.3-.1-.6-.2-.9.7-.1 1.1.2 1.2.9h-1z"/><path class="st168" d="M263.9 549.1c.1.3.1.6 0 .9-.3 0-.6 0-.9-.2.1-.2.1-.4 0-.6.3-.1.6-.2.9-.1z"/><path class="st70" d="M215.1 522c-.6.1-.9-.2-1.1-.8.7-.1 1 .3 1.1.8zM217.1 523c-.6 0-.9-.2-1-.8.6-.1.9.3 1 .8z"/><path class="st167" d="M218.3 523.9c-.7.1-1.2-.1-1.3-.9.7 0 1.1.3 1.3.9zM220.3 524.9c-.7.1-1.2-.1-1.2-.8.6-.1 1 .2 1.2.8zM222.3 525.9c-.7.1-1.2-.1-1.2-.8.6-.1 1 .2 1.2.8zM224.3 526.9c-.7.1-1.1-.1-1.2-.9.6 0 1 .4 1.2.9zM226.3 527.9c-.6.1-1.1-.1-1.2-.8.6-.1 1 .3 1.2.8zM228.3 528.9c-.6.1-1.1-.1-1.2-.8.6-.1 1 .3 1.2.8zM230.3 529.9c-.6.1-1.1-.1-1.2-.8.6-.1 1 .3 1.2.8zM232.2 531c-.6 0-1-.2-1.1-.8.6-.1.9.3 1.1.8zM234.2 532c-.6 0-1-.1-1.1-.8.6-.1.9.3 1.1.8zM236.2 533c-.6 0-1-.1-1.1-.8.6-.1.9.3 1.1.8zM238.1 534c-.5 0-.9-.2-1-.8.7-.1.9.3 1 .8z"/><path class="st147" d="M244.1 537c-.6 0-.9-.2-1-.7.6-.2.9.2 1 .7z"/><path class="st142" d="M247.3 538.9c-.7.1-1.2-.1-1.2-.8.6-.1 1 .2 1.2.8zM249.3 539.9c-.7.1-1.2-.1-1.2-.8.6-.1 1 .2 1.2.8zM251.3 540.9c-.7.1-1.1-.1-1.2-.8.6-.1 1 .3 1.2.8zM253.3 541.9c-.6.1-1.1-.1-1.2-.8.6-.1 1 .3 1.2.8zM255.3 542.9c-.6.1-1.1-.1-1.2-.8.6-.1 1 .3 1.2.8zM257.3 543.9c-.6.1-1.1-.1-1.2-.8.6-.1 1 .3 1.2.8zM259.2 545c-.6 0-1-.2-1.1-.8.6-.1.9.2 1.1.8zM261.2 546c-.6 0-1-.1-1.1-.8.6-.1.9.3 1.1.8zM263.2 547c-.6 0-1-.1-1.1-.8.6-.1.9.3 1.1.8z"/><path class="st44" d="M427 566c-2.1.5-1.7 3.1-3.9 4-3.8-2.4-7.1-5.4-8.6-10.1-.6-1.8-1.5-3.5-2.2-5.4-.9-2.6-.2-3.6 2.4-4.7 4.1-1.8 7.9-.4 11.7 1 2.6.9 4.4 4 3.4 6.1-.8 2-.5 4.2-1.8 6 .3.2.4.5.4.9-.2.5-.4 1-.7 1.4-.1.3-.4.6-.7.8z"/><path d="M447 562c.1.8-.1 1.8 1.1 2 .3 1 .9 1.7 1.9 2 .3.2.4.4.4.6 0 .2-.1.4-.2.4.3 1 .9 1.9-.4 2.8-3.5 2.6-7.4 3.8-11.7 4.1-3.1.2-6.2.1-9.2-.9-3-1-3.4-1.5-2.1-4.4.4-.9.7-1.8 1.1-2.6-.3-.3-.3-.6-.2-.9.3-.4.7-.7.9-1.2.1-.3.2-.6.5-.8 1.5-1.7 2.9-3.4 4.2-4.9 2.6-.4 5 .5 6.9-1.3 2.2 2 4.4 3.7 6.8 5.1z" style="fill:#050707"/><path class="st121" d="M429.1 563c0 .3 0 .7-.1 1-.3.4-.7.4-1 0 0-.3 0-.7.1-1h1zM428.1 565c0 .3-.1.7-.1 1h-.9c0-.3 0-.7.1-1 .2-.4.6-.4.9 0zM450.2 567c-.1-.3-.2-.6-.2-1h1c.1.6-.2 1-.8 1z"/><path class="st142" d="M264 547.2c.7-.1.9.2 1.1.8-.6 0-.9-.3-1.1-.8z"/><path class="st39" d="M306 518.9c-.6 0-.9-.2-.9-.9.7 0 1 .3.9.9z"/><path d="M413.1 353c.6 0 .9.2.9.8-.6.1-.9-.2-.9-.8z"/><path class="st19" d="M430.1 63.1c6.4-.5 12.8-.9 19.3-1.4 2.9 4.1 1.7 8.1-.5 11.5-2.4 3.7-5.5 7.2-10.8 6.6-5.9-1.7-8.5-6.2-9.7-11.8-.4-1.9-.7-3.8 1.7-4.9z"/><path class="st83" d="M430.1 63.1c-.9 1.1-1.4 2.3-1 3.7 1.5 4.6 2.6 9.5 7.8 11.6.5.2.8 1 1.2 1.5-7.4.3-11.8-2.4-14.4-8.6-1-2.3-.5-4.5-.7-6.7 2.2-1.8 4.7-1.6 7.1-1.5z"/><path d="M439.2 52.9c4 .3 7.2 1.8 9.2 5.7-5.1 1.5-10.2 1.4-15.2 1.4-3.1.8-3.1-1.2-2.3-3 1.6-3.3 4.2-5.4 8.3-4.1z" style="fill:#fbc9c9"/><path d="M439.2 52.9c-4.6-.4-6.6 2.6-8.1 6.1.4 1.2 1.4.8 2.1 1-2.6 1.7-5.4.6-8.1.8-.3-.2-.6-.5-.7-.8 2.5-5.9 7.5-7.5 13.3-8 .6 0 1.2.2 1.5.9z" style="fill:#c19a9a"/><path class="st18" d="M424.3 60c.5 0 .7.3.7.8-.6.1-.9 0-.7-.8z"/><path d="M470 112.9c-.5.4-1 .8-1.5 1.3-6.2 6-14.1 6.6-21.5 1.1-1.4-1.1-2.9-2.3-4.1-4.3 9.2 2.4 18.2 2.5 27.1.9.3.2.4.5.2.7 0 .2-.1.3-.2.3z" style="fill:#fafafa"/><path d="M470 112.9v-1.1c.2-.2.3-.4.5-.6.2.2.5.3.5.5.1.8-.2 1.2-1 1.2z" style="fill:#8e8e8e"/><path d="M386 91.3c.1 1.1-.4 1.7-1.3 1.7-.9.1-1.6-.1-1.7-1.2-.1-1.1.2-1.9 1.5-1.9 1 .1 1.6.5 1.5 1.4z" style="fill:#b48f8f"/><path d="M426.9 557h-7.7c-3.8 0-3.8-.1-4-4.5 3.4-1.5 6.7.2 10 .6 1.6.2 2.2 1.7 1.7 3.9z" style="fill:#e80000"/><path d="M426.1 559.2c0 2.6-.9 4.3-2.1 5.5-2-1.8-3.9-3.4-6.2-5.5h8.3z" style="fill:#63b1cc"/><path d="M428.1 565h-1c0-.6.3-1 .9-1h1c0 .6-.3.9-.9 1z" style="fill:#595959"/><path d="M428.9 570.5c1.5-3.3 2.6-5.9 4.2-8.1 1.8-2.5 4.9-1 7.1-2.6 2.6 2.8 5.8 4.6 7.2 8.3-5.8 3.9-11.8 3.3-18.5 2.4z" style="fill:#6ec5e3"/><path d="M446.2 67c0 1.7-1 2.9-2.6 2.9-1.5 0-2.7-1.2-2.8-2.8-.1-2 1-3.2 2.9-3.1 1.8.2 2.6 1.1 2.5 3z" style="fill:#171717"/></g></svg>