<?xml version="1.0" encoding="utf-8"?>
<!-- Generator: Adobe Illustrator 26.0.1, SVG Export Plug-In . SVG Version: 6.00 Build 0)  -->
<svg version="1.1" id="Layer_1" xmlns="http://www.w3.org/2000/svg" xmlns:xlink="http://www.w3.org/1999/xlink" x="0px" y="0px"
	 viewBox="0 0 174.8 188.5" style="enable-background:new 0 0 174.8 188.5;" xml:space="preserve">
<style type="text/css">
	.st0{fill:#F9B61F;fill-opacity:0;}
	.st1{fill:#F9B61F;}
	.st2{fill:#6FC7E5;}
	.st3{fill:none;stroke:#333333;stroke-linecap:round;stroke-linejoin:round;}
	.st4{fill:#FFCCCC;}
	.st5{fill:#269A4D;fill-opacity:0.996;}
	.st6{fill:#33CC66;}
	.st7{fill:none;stroke:#000000;stroke-width:0.5182;stroke-linecap:round;stroke-linejoin:round;stroke-miterlimit:1.6583;}
	.st8{fill:none;stroke:#FFE5E5;stroke-width:0.4146;stroke-linecap:round;stroke-linejoin:round;stroke-miterlimit:1.6583;}
	.st9{fill-opacity:4.000000e-03;}
	.st10{fill:#0033CC;}
	.st11{fill:#002493;}
	.st12{fill:#FFFFFF;}
	.st13{fill:#CCCCCC;}
	.st14{fill:#412000;}
	.st15{fill:#663300;}
	.st16{fill:#333333;}
	.st17{fill:#666666;}
	.st18{fill:#383838;}
	.st19{fill:#FF0000;}
	.st20{fill:#006E93;}
	.st21{fill:#0099CC;}
	.st22{fill:none;stroke:#FFCCCC;stroke-width:0.5182;stroke-linecap:round;stroke-linejoin:round;stroke-miterlimit:1.6583;}
	.st23{fill:none;stroke:#FFFFFF;stroke-width:0.5182;stroke-linecap:round;stroke-linejoin:round;stroke-miterlimit:1.6583;}
	.st24{fill:#970000;}
	.st25{fill:none;stroke:#000000;stroke-width:0.4146;stroke-linecap:round;stroke-linejoin:round;stroke-miterlimit:1.6583;}
	.st26{fill:#26984C;}
	.st27{fill:#990000;}
	.st28{fill:#FFCC00;}
	.st29{fill-opacity:0.2;}
</style>
<g transform="matrix(.98198 0 0 .97513 33.15 24.9)">
	<path id="a" class="st0" d="M174.3,188.5V16H0.5v172.5H174.3z"/>
</g>
<g transform="translate(31.55 27.4)">
	<g>
		<g id="b">
			<path class="st1" d="M142.7,91.6c-0.2,0.1-0.5,0.2-0.8,0.2c-0.9,0.3-1.5,0.6-1.8,0.9c-0.3,0.3-0.6,0.9-1,1.9
				c-0.3,0.7-0.8,1-1.6,1.1c-1.2,0-2.5,1-4.1,2.8c-1.5,1.8-2.3,2.8-2.4,2.8c-1.1-0.3-1.9-0.4-2.2-0.4c-1.4,0-2.6,0.7-3.8,2.2
				c-1.2,1.5-1.9,2.2-2.1,2.2c-0.5,0-1.1-0.1-1.8-0.4s-1.5-0.4-2.6-0.4c-1.1,0-2.1,0.2-2.9,0.6c-0.5,0.2-1.3,0.7-2.2,1.5
				c-0.3,0.2-0.7,0.2-1.3,0.2c-0.8,0-1.4-0.1-1.9-0.1c-0.2,0-0.6,0.2-1.3,0.7c-0.7,0.5-1.1,0.7-1.1,0.7c-0.4,0-1-0.2-1.8-0.7
				c-0.8-0.5-1.5-0.7-2.1-0.7c-0.7,0-1.9,0.3-3.6,0.8c-1.7,0.5-2.5,0.8-2.6,0.8c-0.3,0-0.9-0.4-1.9-1.1c-0.9-0.7-1.9-1.1-2.9-1.1
				c-2,0-3.8,0.8-5.3,2.4c-1.6,1.6-2.4,2.4-2.7,2.4c-0.1,0-0.5-0.3-1.3-0.8c-0.8-0.5-1.7-0.8-2.7-0.8s-1.9,0.3-2.7,0.8
				c-1,0.6-1.9,1-2.9,1.2c0-0.4-0.3-1.1-0.8-1.9c-0.7-1-1.3-1.5-2-1.5c-0.1,0-0.9,0.3-2.2,0.9c-1.4,0.6-2.4,1.1-3,1.5
				c-0.5,0.3-0.7,0.9-0.6,1.9c0,0.5,0.1,1.3,0.2,2.2c-0.6-0.4-1.1-0.7-1.3-0.8c-0.1,0-0.5-0.1-1.1-0.1c-1.8,0-3.2,0.6-4.2,1.8
				s-2,1.8-3.1,1.8c-4.3-0.3-6.6-0.4-6.9-0.4c-3.4,0-5.9,0.7-7.6,2c-1.6,1.3-3.2,2-4.8,2c-2.3,0-3.8-0.3-4.6-1c-0.8-0.7-2.3-1-4.5-1
				c-1.8,0-3.3,0.3-4.3,1c-1,0.7-1.9,1-2.7,1c-0.9,0-3.7-0.5-8.5-1.4c-4.8-0.9-7.6-1.4-8.5-1.4c-0.5,0-1.4,0.3-2.8,1
				c-1.3,0.7-2.3,1-2.8,1c-1.2,0-2.2-0.5-3-1.4c-0.9-0.9-2.4-1.4-4.5-1.4c-2.5,0-4.8,0.6-6.9,1.7s-3.4,1.7-3.9,1.7
				c-1.2,0-2.4-0.5-3.7-1.5s-2.8-1.5-4.5-1.5c-1.6,0-2.5,0-2.7,0.1c-0.2,0.1-0.5,0.3-1,0.6v42.7h173.8V91.6L142.7,91.6z"/>
			<path class="st2" d="M141.9,91.9c0.3-0.1,0.6-0.2,0.8-0.2v-103H-31v129.8c0.5-0.3,0.8-0.5,1-0.6c0.2-0.1,1.1-0.1,2.7-0.1
				c1.8,0,3.3,0.5,4.5,1.5s2.5,1.5,3.6,1.5c0.5,0,1.9-0.6,4-1.7s4.4-1.7,6.9-1.7c2.1,0,3.6,0.5,4.5,1.4c0.8,0.9,1.8,1.4,3,1.4
				c0.5,0,1.5-0.3,2.8-1c1.4-0.7,2.3-1,2.8-1c0.9,0,3.7,0.5,8.5,1.4c4.8,0.9,7.6,1.4,8.5,1.4c0.8,0,1.7-0.3,2.7-1c1-0.7,2.5-1,4.3-1
				c2.2,0,3.7,0.3,4.5,1c0.8,0.7,2.3,1,4.6,1c1.6,0,3.2-0.7,4.8-2c1.6-1.3,4.1-2,7.6-2c0.3,0,2.6,0.1,6.9,0.4c1.1,0,2.2-0.6,3.2-1.8
				c1-1.2,2.4-1.8,4.2-1.8c0.6,0,1,0,1.1,0.1c0.2,0.1,0.7,0.3,1.3,0.8c-0.1-1-0.2-1.7-0.2-2.2c-0.1-1,0.1-1.7,0.6-1.9
				c0.6-0.4,1.6-0.9,3-1.5c1.3-0.6,2.1-0.9,2.2-0.9c0.7,0,1.3,0.5,2,1.5c0.5,0.8,0.8,1.5,0.8,1.9c1-0.2,1.9-0.6,2.9-1.2
				c0.8-0.5,1.7-0.8,2.7-0.8s1.8,0.3,2.7,0.8c0.8,0.5,1.2,0.8,1.3,0.8c0.2,0,1.1-0.8,2.7-2.4c1.6-1.6,3.4-2.4,5.3-2.4
				c1.1,0,2,0.4,2.9,1.1c0.9,0.7,1.5,1.1,1.9,1.1c0.1,0,1-0.3,2.6-0.8c1.8-0.5,3-0.8,3.6-0.8c0.6,0,1.3,0.2,2.1,0.7
				c0.8,0.5,1.4,0.7,1.8,0.7c0,0,0.4-0.2,1.1-0.7c0.7-0.5,1.1-0.7,1.3-0.7c0.5,0,1.1,0,1.9,0.1c0.6,0,1-0.1,1.3-0.2
				c1-0.7,1.7-1.2,2.2-1.4c0.8-0.4,1.8-0.6,2.9-0.6c1.1,0,2,0.1,2.6,0.4c0.6,0.3,1.2,0.4,1.8,0.4c0.2,0,0.9-0.7,2.1-2.2
				c1.2-1.5,2.4-2.2,3.8-2.2c0.3,0,1.1,0.1,2.2,0.4c0,0,0.8-0.9,2.4-2.8c1.5-1.9,2.9-2.8,4.1-2.8c0.8,0,1.3-0.4,1.6-1.1
				c0.4-1,0.7-1.7,1-1.9C140.4,92.5,141,92.2,141.9,91.9L141.9,91.9z"/>
		</g>
	</g>
	<g>
		<path id="c" class="st3" d="M-31,118.4c0.5-0.3,0.8-0.5,1-0.6c0.2-0.1,1.1-0.1,2.7-0.1c1.8,0,3.3,0.5,4.5,1.5s2.5,1.5,3.6,1.5
			c0.5,0,1.9-0.6,4-1.7s4.4-1.7,6.9-1.7c2.1,0,3.6,0.5,4.5,1.4c0.8,0.9,1.8,1.4,3,1.4c0.5,0,1.5-0.3,2.8-1c1.4-0.7,2.3-1,2.8-1
			c0.9,0,3.7,0.5,8.5,1.4c4.8,0.9,7.6,1.4,8.5,1.4c0.8,0,1.7-0.3,2.7-1c1-0.7,2.5-1,4.3-1c2.2,0,3.7,0.3,4.5,1c0.8,0.7,2.3,1,4.6,1
			c1.6,0,3.2-0.7,4.8-2c1.6-1.3,4.1-2,7.6-2c0.3,0,2.6,0.1,6.9,0.4c1.1,0,2.2-0.6,3.2-1.8c1-1.2,2.4-1.8,4.2-1.8c0.6,0,1,0,1.1,0.1
			c0.2,0.1,0.7,0.3,1.3,0.8c-0.1-1-0.2-1.7-0.2-2.2c-0.1-1,0.1-1.7,0.6-1.9c0.6-0.4,1.6-0.9,3-1.5c1.3-0.6,2.1-0.9,2.2-0.9
			c0.7,0,1.3,0.5,2,1.5c0.5,0.8,0.8,1.5,0.8,1.9c1-0.2,1.9-0.6,2.9-1.2c0.8-0.5,1.7-0.8,2.7-0.8s1.8,0.3,2.7,0.8
			c0.8,0.5,1.2,0.8,1.3,0.8c0.2,0,1.1-0.8,2.7-2.4c1.6-1.6,3.4-2.4,5.3-2.4c1.1,0,2,0.4,2.9,1.1c0.9,0.7,1.5,1.1,1.9,1.1
			c0.1,0,1-0.3,2.6-0.8c1.8-0.5,3-0.8,3.6-0.8c0.6,0,1.3,0.2,2.1,0.7c0.8,0.5,1.4,0.7,1.8,0.7c0,0,0.4-0.2,1.1-0.7
			c0.7-0.5,1.1-0.7,1.3-0.7c0.5,0,1.1,0,1.9,0.1c0.6,0,1-0.1,1.3-0.2c1-0.7,1.7-1.2,2.2-1.4c0.8-0.4,1.8-0.6,2.9-0.6
			c1.1,0,2,0.1,2.6,0.4c0.6,0.3,1.2,0.4,1.8,0.4c0.2,0,0.9-0.7,2.1-2.2c1.2-1.5,2.4-2.2,3.8-2.2c0.3,0,1.1,0.1,2.2,0.4
			c0,0,0.8-0.9,2.4-2.8c1.5-1.9,2.9-2.8,4.1-2.8c0.8,0,1.3-0.4,1.6-1.1c0.4-1,0.7-1.7,1-1.9c0.3-0.3,0.8-0.6,1.8-0.9
			c0.3-0.1,0.6-0.2,0.8-0.2"/>
	</g>
</g>
<g transform="rotate(-4.255 1037.645 -1615.107) scale(.41457)">
	<g>
		<g id="e">
			<path class="st4" d="M-70.1-60.5V-61l-9.3,0l0,22.8c0,1.2,0.1,2.5,0.1,3.7c0.2,1,0.6,1.9,1.2,2.6c1,1,2.1,1.5,3.4,1.5
				c1.3,0,2.4-0.5,3.3-1.5c0.7-0.8,1.1-1.6,1.2-2.7l0-3.7c0-2.4,0.1-5,0-7.6L-70.1-60.5 M-72.4-50.8l0-6.4L-72.4-50.8z"/>
			<path class="st5" d="M-74.5-84.8l0.1-0.6h-0.2c-2.2,0-4.1,0.8-5.7,2.5c-1.2,1.3-1.9,2.8-2.2,4.6c-0.1,4.6-0.1,9.5-0.1,14.5v3
				l15.8,0v-2.6l-10.7,0c0-0.7-0.1-2.2-0.2-4.6c0-3.6,0.1-6.1,0.4-7.4C-76.9-76.7-76-79.8-74.5-84.8z"/>
			<path class="st6" d="M-74.5-85.4l-0.1,0.5c-1.5,5-2.4,8.1-2.7,9.3c-0.3,1.3-0.4,3.8-0.4,7.4c0.1,2.4,0.2,3.9,0.2,4.5l10.7,0v-0.3
				c0-5-0.1-9.8-0.2-14.5c-0.2-1.7-0.9-3.3-2.1-4.6C-70.6-84.5-72.4-85.3-74.5-85.4z"/>
		</g>
	</g>
	<g>
		<path id="f" class="st7" d="M-66.8-63.6v-0.4c0-5-0.1-9.8-0.2-14.5c-0.2-1.7-0.9-3.3-2.1-4.6c-1.5-1.6-3.3-2.4-5.4-2.4h-0.2
			c-2.2,0-4.1,0.8-5.7,2.5c-1.2,1.3-1.9,2.8-2.2,4.6c-0.1,4.6-0.1,9.5-0.1,14.5v3l15.8,0C-66.8-61-66.8-63.6-66.8-63.6z M-79.3-61
			l0,22.8c0,1.2,0.1,2.5,0.1,3.7c0.2,1,0.6,1.9,1.2,2.6c1,1,2.1,1.5,3.4,1.5c1.3,0,2.4-0.5,3.3-1.5c0.7-0.8,1.1-1.6,1.2-2.7l0-3.7
			c0-2.4,0.1-5,0-7.6l0-15.3"/>
	</g>
	<g>
		<path id="g" class="st8" d="M-72.4-50.8l0-6.4"/>
	</g>
</g>
<g transform="matrix(.10428 -.00777 .01984 .26638 122.788 72.613)">
	<path id="i" class="st9" d="M82.8,66.1l16.9-1.3l-2.2-28.9l-16.9,1.3L82.8,66.1z"/>
</g>
<g transform="matrix(-.0659 -.4093 .4093 -.0659 131.97 81.371)">
	<g>
		<path id="j" class="st4" d="M68.6-82.3v-5.1c-0.2-1-0.6-1.9-1.2-2.7c-0.1-0.1-0.3-0.2-0.4-0.3c-0.3-0.2-0.5-0.4-0.8-0.6
			c-0.6-0.3-1.3-0.5-2-0.5h-0.2c-0.8,0-1.5,0.2-2.2,0.7c-0.3,0.2-0.6,0.5-1,0.8c-0.4,0.4-0.7,0.9-0.9,1.5c-0.2,0.4-0.3,0.8-0.3,1.2
			c0,1.2,0,2.4,0,3.7v28.5c0,1.2,0,2.5,0,3.7c0.2,1,0.6,1.9,1.2,2.6c1,1,2.1,1.4,3.4,1.5c1.3,0,2.4-0.5,3.3-1.5
			c0.7-0.8,1.1-1.7,1.2-2.7v-3.6c0-2.2,0.1-4.4,0.1-6.8v-15.5C68.7-79.1,68.6-80.7,68.6-82.3 M66.6-85.1v30.9V-85.1z"/>
	</g>
	<g>
		<path id="k" class="st7" d="M68.6-85.3v3.1c0,1.6,0.1,3.2,0.1,4.8v15.5c0,2.3,0,4.6-0.1,6.8v3.6c-0.2,1-0.6,1.9-1.2,2.7
			c-0.9,1-2,1.4-3.3,1.5c-1.3,0-2.4-0.5-3.4-1.5c-0.7-0.8-1.1-1.7-1.2-2.7c0-1.2,0-2.4,0-3.6v-28.5c0-1.2,0-2.4,0-3.7
			c0.1-0.4,0.2-0.8,0.3-1.2c0.2-0.5,0.5-1,0.9-1.5c0.3-0.3,0.6-0.6,1-0.8"/>
	</g>
	<g>
		<path id="l" class="st8" d="M66.6-85.1v30.9"/>
	</g>
</g>
<g transform="rotate(-99.146 100.645 -15.526) scale(.09192 .2175)">
	<path id="i_00000153693725206289091750000017649206634169552528_" class="st9" d="M112.2,65.2l-2.4-14.7l-23.3,3.8L88.8,69
		L112.2,65.2z"/>
</g>
<g transform="matrix(-.0659 -.4093 .4093 -.0659 143.376 81.834)">
	<g>
		<path id="m" class="st4" d="M74.1-75.9c-0.1-0.2-0.3-0.3-0.5-0.5c-1.1-1.2-2.5-1.8-4.1-2c-2-0.1-3.5,0.6-4.4,2.2c0,0,0,0,0,0.1
			c-0.3,0.5-0.8,0.9-1.7,1.2c-0.5,0.3-0.9,0.7-1.1,1.2c-0.3,0.8-0.4,1.8-0.4,2.9c-0.5,0.3-1.4,0.4-2.5,0.4c-1.3,0-2.4-0.2-3.3-0.7
			c-0.9-0.5-1.4-0.7-1.7-0.7c-0.4,0-0.6,0.4-0.6,1.2c0,0.5,0.2,1,0.6,1.4s1.1,0.7,2,1c0.5,0.1,1.8,0.4,3.8,0.7
			c-2-0.3-3.2-0.6-3.8-0.7c-0.9-0.3-1.5-0.6-2-1l-0.3,1.3c0.1,0.3,0.2,0.6,0.3,0.9c0.4,0.7,1.1,1.2,2,1.5c0.1,0,1.4,0.2,3.7,0.6
			c-2.3-0.4-3.5-0.6-3.7-0.6c-0.9-0.3-1.6-0.8-2-1.5c-0.3,1-0.1,2.1,0.7,3.1c0.1,0,0.1,0.1,0.2,0.1c0.8,0.4,1.7,0.7,2.8,0.8
			c1.6,0.1,2.4,0.2,2.6,0.2c-0.2,0-1-0.1-2.6-0.2c-1.1-0.1-2-0.4-2.8-0.8c1,2,2.4,3,4.2,3c1.8-0.1,3.1-0.1,4-0.1
			c3.2,0,5.8-1,7.7-2.9c2.1-2,3.1-4.9,3.1-8.5L74.1-75.9 M72.4-73.6v0.8c-0.4,2.5-1.3,4.6-2.7,6.2c-1,1.1-2.6,2.3-4.9,3.6
			c0-1.4-0.1-2.4-0.2-3.2c-0.1-0.9-0.2-1.8-0.3-2.6c0.1,0.8,0.2,1.7,0.3,2.6c0.1,0.7,0.2,1.8,0.2,3.2c2.3-1.3,3.9-2.5,4.9-3.6
			c1.4-1.6,2.3-3.6,2.7-6.2V-73.6z"/>
	</g>
	<g>
		<path id="n" class="st7" d="M55.3-63.5c1,2,2.4,3,4.2,3c1.8-0.1,3.1-0.1,4-0.1c3.2,0,5.8-1,7.7-2.9c2.1-2,3.1-4.9,3.1-8.5
			l-0.2-3.8c-0.1-0.2-0.3-0.3-0.5-0.5 M65.1-76.1C65.1-76.1,65.1-76.1,65.1-76.1c-0.3,0.5-0.9,0.9-1.7,1.2c-0.5,0.3-0.9,0.7-1.1,1.2
			c-0.3,0.8-0.4,1.8-0.4,3c-0.5,0.3-1.4,0.4-2.5,0.4c-1.3,0-2.4-0.2-3.3-0.7c-0.9-0.5-1.4-0.7-1.7-0.7c-0.4,0-0.6,0.4-0.6,1.2
			c0,0.5,0.2,1,0.6,1.4s1.1,0.7,2,1c0.5,0.1,1.8,0.4,3.8,0.7 M54.4-66.8c-0.3,1-0.1,2.1,0.7,3.1c0.1,0,0.1,0.1,0.2,0.1
			c0.8,0.4,1.7,0.7,2.8,0.8c1.6,0.1,2.4,0.2,2.6,0.2 M54.4-66.8c0.4,0.7,1.1,1.2,2,1.5c0.1,0,1.4,0.2,3.7,0.6 M54.4-69l-0.3,1.3
			c0.1,0.3,0.2,0.6,0.3,0.9"/>
	</g>
	<g>
		<path id="o" class="st8" d="M72.4-73.6v0.8c-0.4,2.5-1.3,4.6-2.7,6.2c-1,1.1-2.6,2.3-4.9,3.6c0-1.4-0.1-2.4-0.2-3.2
			c-0.1-0.9-0.2-1.8-0.3-2.6"/>
	</g>
</g>
<g transform="rotate(-99.146 106.555 -20.144) scale(.11733 .1527)">
	<path id="i_00000083800496298742423700000008203624153900361659_" class="st9" d="M120.4,68.3l-3-18.8L101,52.1l3,18.8L120.4,68.3z
		"/>
</g>
<g transform="matrix(.3928 -.13256 .13256 .3928 117.426 110.966)">
	<g>
		<g id="p">
			<path class="st4" d="M-50.4-82.6c0-0.1,0-0.2,0-0.3v-0.4L-50.4-82.6z"/>
			<path class="st10" d="M-52.7-105.9h-1.5c-2,1.3-3.6,3.1-5,5.3c-2.7,4.4-4.2,10.4-4.7,18.2l-1.7,0.2c0.2,7.5,0.4,14.6,0.5,21.4
				v1.2c0,0.8,0,1.5,0.1,2.2c0.1,2.4,0.1,4.7,0.2,7c0.2,1.6,0.2,3.2,0.2,4.8c0.3,1.2,0.9,2.3,1.8,3.3c1.5,1.2,3.1,1.8,4.8,1.8
				c1.8,0,3.3-0.6,4.6-1.8c1-1,1.6-2.1,1.9-3.4c0.1-1.5,0.1-3.1,0.1-4.8c0.1-3,0.2-6,0.3-9.2c0-0.1,0-0.2,0-0.2v0c0-0.3,0-0.5,0-0.8
				c0.2-6.8,0.4-13.9,0.5-21.4c0.1-0.1,0.1-0.2,0-0.3v-0.1l0,0l0-0.7c0.1-2.9,0.1-5.6,0.2-8.3c0-0.9,0-1.8-0.1-2.6c0-0.3,0-0.7,0-1
				c0.1-1.9,0.2-3.7,0.2-5.6c-0.2-1.9-0.9-3.6-2-5c-0.1-0.1-0.2-0.3-0.4-0.4C-52.4-106.2-52.7-105.9-52.7-105.9z"/>
			<path class="st11" d="M-52.4-106.2c-1.6-1.6-3.4-2.5-5.5-2.5c-2.3,0-4.2,1-5.9,2.9c-0.2,0.3-0.4,0.5-0.6,0.8
				c-0.8,1.3-1.3,2.7-1.5,4.2c0.1,2.2,0.1,4.5,0.1,6.7c0,0.8,0,1.6,0.1,2.6c0,2.7,0.1,5.4,0.2,8.3v1.2l1.7-0.2
				c0.4-7.8,2-13.9,4.7-18.2c1.4-2.2,3-4,5-5.3h1.5C-52.7-105.9-52.4-106.2-52.4-106.2z"/>
		</g>
	</g>
	<g>
		<path id="q" class="st7" d="M-64.4-105c-0.8,1.2-1.3,2.6-1.5,4.2c0.1,2.2,0.1,4.5,0.1,6.7c0,0.8,0,1.6,0.1,2.6
			c0,2.7,0.1,5.4,0.2,8.3v1.2 M-50.2-95.2l-0.1,1c0.1,0.8,0.1,1.6,0.1,2.6c-0.1,2.7-0.1,5.4-0.2,8.3v0.4c0,0.1,0,0.2,0,0.3l0,0v0.1
			c0.1,0.1,0.1,0.2,0,0.3c-0.1,7.5-0.3,14.6-0.5,21.4c0,0.3,0,0.6,0,0.9v0.1c0,0.1,0,0.1,0,0.2c-0.1,3.2-0.2,6.2-0.3,9.2
			c0,1.6-0.1,3.2-0.1,4.8c-0.2,1.2-0.9,2.3-1.9,3.3c-1.3,1.2-2.9,1.8-4.6,1.8c-1.7,0-3.3-0.6-4.8-1.8c-0.9-1-1.5-2.1-1.8-3.4
			c0-1.5-0.1-3.1-0.2-4.8c0-2.3-0.1-4.6-0.1-6.9c0-0.7-0.1-1.5-0.1-2.2v-1.2c-0.2-6.8-0.3-13.9-0.5-21.4"/>
	</g>
</g>
<g transform="matrix(.13066 -.0441 .10731 .31798 117.426 110.966)">
	<path id="i_00000127727332409931782240000015164219030779804587_" class="st9" d="M80,110.2l21.2-7.2L89.6,68.5l-21.2,7.2L80,110.2
		z"/>
</g>
<g transform="rotate(21.541 -287.543 378.521) scale(.41457)">
	<g>
		<g id="r">
			<path class="st12" d="M-89.4,6.6l0.1-3l-4.7,0v6.3C-92.6,11.1-91.1,10-89.4,6.6z"/>
			<path class="st13" d="M-87.8,2L-87.8,2L-97,1.9v0L-87.8,2 M-89.3,3.6l0.1-1.6l-7,0v0.1l0.3,4.2c0.6,1.8,1.2,3,1.8,3.6V3.6
				C-94,3.6-89.3,3.6-89.3,3.6z"/>
			<path class="st11" d="M-87.8,1.9c0-0.4,0-0.8,0.1-1.3c-3-0.4-5-1.5-6-3.4c-0.7-1.3-1.3-4.2-1.7-8.7c-0.4-5.6-0.8-9.9-1.1-13.1
				c-0.5-5.2-1.2-10-2-14.5l-0.3,0.1c0.2,2.8,0.3,5.5,0.3,8.3c0.2,4.6,0.4,9,0.6,13.1l0,0.4c0.1,0.3,0.1,0.6,0.2,1
				c0.3,6.4,0.6,12.4,0.8,18C-97,1.9-87.8,1.9-87.8,1.9z"/>
			<path class="st10" d="M-87.5-45.6c-1.3-2.7-3-4-4.9-4c-0.3,0-0.7,0-1,0.1c-1.5,0.3-2.8,1.6-4.1,3.9c-0.7,1.6-1.1,3.5-1.3,5.5
				c0,0.1,0,0.3-0.1,0.4c0,0.3,0,0.6-0.1,0.9l0.3-0.1c0.8,4.5,1.5,9.3,2,14.5c0.3,3.2,0.7,7.5,1.1,13.1c0.4,4.5,1,7.4,1.7,8.7
				c1,1.8,3,2.9,6,3.4c0.3-5.2,0.6-10.8,0.8-16.7c0-0.4,0-0.7,0-1c0.1-0.1,0.1-0.2,0-0.4c0.2-4.1,0.4-8.5,0.6-13.1
				c0.2-2.8,0.3-5.5,0.4-8.3C-86-41.4-86.5-43.6-87.5-45.6 M-92.4-7.6l-0.1-0.6c0,0.1,0.1,0.2,0.1,0.3V-7.6z"/>
			<path class="st4" d="M-92.4-8.2l0.1,0.6V-8C-92.4-8.1-92.4-8.1-92.4-8.2z"/>
		</g>
	</g>
	<g>
		<path id="s" class="st7" d="M-87.7,0.7c0.3-5.2,0.5-10.8,0.8-16.7c0-0.4,0-0.7,0-1c0.1-0.1,0.1-0.2,0-0.4
			c0.2-4.1,0.4-8.5,0.6-13.1c0.2-2.8,0.3-5.5,0.4-8.3c-0.1-2.5-0.6-4.8-1.5-6.8c-1.3-2.7-3-4-4.9-4c-0.3,0-0.7,0-1,0.1 M-98.8-39.7
			c0,0.3-0.1,0.6-0.1,0.9 M-87.7,0.7c0,0.4-0.1,0.8-0.1,1.2v0l-1.4,0l-0.1,1.6l-0.1,3c-1.7,3.4-3.3,4.5-4.6,3.3
			c-0.7-0.6-1.3-1.8-1.8-3.6l-0.3-4.2V2L-97,2v0c-0.2-5.6-0.5-11.5-0.8-18c0-0.4-0.1-0.7-0.2-1v-0.4c-0.2-4.1-0.4-8.5-0.6-13.1
			c0-2.8-0.1-5.5-0.3-8.3 M-89.2,2l-7,0"/>
	</g>
</g>
<g transform="matrix(.11638 .04594 -.10093 .25567 118.9 132.018)">
	<path id="i_00000025401558364991935990000011356197480071055286_" class="st9" d="M71.3,120.5l18.9,7.5l11-27.8l-18.9-7.5
		L71.3,120.5z"/>
</g>
<g transform="rotate(21.542 -323.504 381.213) scale(.41457)">
	<g>
		<g id="t">
			<path class="st14" d="M-99.5-20.2c-0.1-0.8-0.2-2.4-0.3-4.8l-4.1,0v10.8l22.2-0.4c0.3-0.5,0.6-1.1,0.7-1.6
				c-1.6-0.2-3.8-0.5-6.7-0.9c-5.3-0.7-8.4-1.1-9.2-1.1C-98.5-18.3-99.3-18.9-99.5-20.2z"/>
			<path class="st15" d="M-99.8-25c0.1,2.4,0.2,4,0.3,4.8c0.1,1.3,1,2,2.5,2c0.9,0,3.9,0.4,9.2,1.1c2.8,0.4,5,0.7,6.7,0.9
				c0.2-1,0-2.1-0.7-3.2c-2.9-1.2-7.6-3.1-13.9-5.6C-95.6-25-99.8-25-99.8-25z"/>
		</g>
	</g>
	<g>
		<path id="u" class="st7" d="M-81-16.3c0.2-1,0-2.1-0.7-3.2c-2.9-1.2-7.6-3.1-13.9-5.6l-8.2,0l0,10.8l22.2-0.4
			C-81.3-15.2-81.1-15.7-81-16.3z"/>
	</g>
</g>
<g transform="matrix(.15675 .06187 -.02943 .07456 117.37 145.406)">
	<path id="i_00000088119254623363359460000005567152357682799805_" class="st9" d="M70.4,122.8l25.4,10l3.2-8.1l-25.4-10L70.4,122.8
		z"/>
</g>
<g transform="matrix(.41006 -.06097 .06097 .41006 139.067 115.146)">
	<g>
		<g id="v">
			<path class="st16" d="M21.5,28.5C32.4,17.7,37.8,4.6,37.8-10.7S32.4-39.1,21.5-50S-2.4-66.2-17.7-66.2S-46.1-60.8-56.9-50
				c-10.9,10.8-16.3,23.9-16.3,39.2s5.4,28.4,16.3,39.2c10.8,10.9,23.9,16.3,39.2,16.3S10.7,39.3,21.5,28.5 M32.6-10.7
				c0,13.9-4.9,25.8-14.7,35.6C8.1,34.7-3.8,39.6-17.7,39.6c-13.9,0-25.8-4.9-35.6-14.7c-9.8-9.8-14.8-21.7-14.8-35.6
				s4.9-25.8,14.8-35.7c9.8-9.8,21.7-14.7,35.6-14.7s25.8,4.9,35.7,14.7C27.7-36.5,32.6-24.7,32.6-10.7z"/>
			<path class="st13" d="M17.9,24.9c9.8-9.8,14.7-21.7,14.7-35.6s-4.9-25.8-14.7-35.7C8.1-56.2-3.8-61.1-17.7-61.1
				c-13.9,0-25.8,4.9-35.6,14.7c-9.8,9.8-14.8,21.7-14.8,35.7s4.9,25.8,14.8,35.6c9.8,9.8,21.7,14.7,35.6,14.7S8.1,34.7,17.9,24.9
				 M14.7-43.1c1.4,1.4,2.7,2.9,3.8,4.4c1.2,1.5,2.3,3.1,3.3,4.7c2.2,3.6,3.8,7.4,4.8,11.5c0.5,1.7,0.8,3.5,1.1,5.3
				c0.3,2.1,0.4,4.3,0.4,6.5c0,4-0.5,7.8-1.4,11.5C26,3.3,25.2,5.7,24.1,8c-1.1,2.6-2.5,5-4.2,7.4c-0.3,0.5-0.7,0.9-1.1,1.4
				c-1.2,1.6-2.6,3.2-4.2,4.7c-1.3,1.3-2.7,2.5-4.1,3.7c-1.3,1.1-2.7,2.1-4.2,3c-5,3.2-10.4,5.2-16.3,6.2c-0.9,0.1-1.8,0.2-2.7,0.3
				c-1.7,0.2-3.4,0.2-5.2,0.2c-3.9,0-7.5-0.4-11-1.2c-1.5-0.4-3-0.8-4.4-1.3c-3.9-1.4-7.6-3.4-11.1-6c-0.1-0.1-0.1-0.1-0.2-0.2
				c-1.9-1.4-3.7-3-5.4-4.8c-1.5-1.5-2.9-3.1-4.2-4.7c-1.2-1.5-2.2-3-3.1-4.6c-2.8-4.6-4.6-9.5-5.5-14.8c-0.4-2.5-0.7-5.2-0.7-7.8
				v-0.4c0-3.8,0.4-7.4,1.2-10.9c1.4-5.8,3.9-11.2,7.5-16c0.1-0.2,0.3-0.4,0.5-0.6c1.3-1.7,2.8-3.3,4.3-4.9c1.4-1.4,2.9-2.7,4.4-3.9
				c0.7-0.6,1.5-1.1,2.2-1.6c2.4-1.7,5-3.2,7.6-4.3c3.2-1.4,6.6-2.3,10.1-2.9c2.5-0.4,5.1-0.6,7.8-0.6c1,0,2,0,3,0.1
				c2,0.1,3.9,0.3,5.8,0.7c3.7,0.7,7.3,1.8,10.7,3.4c0.8,0.3,1.5,0.7,2.2,1.1c2.5,1.4,4.9,3,7.2,4.8C12.3-45.4,13.5-44.3,14.7-43.1z
				"/>
			<path class="st17" d="M-25.7-18.7c-0.3,0.3-0.7,0.7-1,1c-1.1,1.3-1.8,2.8-2.1,4.5c-0.2,0.8-0.2,1.6-0.2,2.4v0.7
				c0.1,1,0.2,2,0.5,2.9c0.5,1.5,1.3,2.9,2.5,4.1l0.3,0.3c0.7,0.7,1.4,1.2,2.2,1.7c0.7,0.4,1.4,0.8,2.2,1c1.1,0.4,2.3,0.5,3.6,0.5
				c0.7,0,1.3,0,1.9-0.2c0.1,0,0.3,0,0.4,0c1.1-0.2,2.1-0.6,3-1.1c0.9-0.5,1.8-1.2,2.6-2c0.6-0.6,1.1-1.2,1.5-1.8v0
				c0.6-1,1.1-2,1.4-3c0.3-1,0.4-2,0.4-3.1c0-1.5-0.3-2.9-0.8-4.2c-0.5-1.4-1.4-2.6-2.5-3.8c-0.2-0.2-0.4-0.4-0.7-0.5
				c0-0.1-0.1-0.1-0.2-0.2c-1.2-1-2.5-1.7-4-2.1c-0.4-0.1-0.9-0.2-1.3-0.3c-0.2,0-0.4,0-0.6,0c-0.4-0.1-0.8-0.1-1.2-0.1
				c-0.7,0-1.3,0-2,0.2c-1.6,0.3-3.1,0.9-4.5,1.8l-0.4,0.3C-24.9-19.4-25.3-19-25.7-18.7 M-23.3-15c0.2-0.2,0.4-0.5,0.6-0.7
				c0.2-0.2,0.5-0.5,0.7-0.7c0.1-0.1,0.2-0.1,0.2-0.2c0.9-0.6,1.8-1,2.8-1.2c0.4,0,0.8,0,1.2,0c0.3,0,0.5,0,0.8,0h0.3
				c0.3,0.1,0.6,0.1,0.8,0.2c0.9,0.3,1.7,0.7,2.5,1.3c0.1,0.1,0.1,0.1,0.1,0.2c0.2,0.1,0.3,0.2,0.4,0.3c0.7,0.7,1.2,1.5,1.5,2.3
				c0.3,0.8,0.5,1.7,0.5,2.7c0,0.7-0.1,1.3-0.2,1.9c-0.2,0.7-0.4,1.3-0.8,1.9v0c-0.3,0.4-0.6,0.8-1,1.1c-0.5,0.5-1,0.9-1.6,1.2
				C-15-4.2-15.7-4-16.3-3.8c-0.1,0-0.2,0-0.2,0c-0.4,0.1-0.8,0.1-1.2,0.1c-0.8,0-1.5-0.1-2.2-0.3c-0.5-0.1-0.9-0.3-1.3-0.7
				c-0.5-0.3-0.9-0.6-1.3-1l-0.2-0.2c-0.7-0.8-1.2-1.6-1.5-2.5c-0.2-0.6-0.3-1.2-0.3-1.8v-0.4c0-0.5,0-1,0.2-1.5
				C-24.4-13.2-24-14.1-23.3-15z"/>
			<path class="st18" d="M-22.7-15.6c-0.2,0.2-0.4,0.4-0.6,0.7c-0.6,0.8-1.1,1.8-1.3,2.8c-0.1,0.5-0.2,1-0.2,1.5v0.4
				c0,0.6,0.2,1.2,0.3,1.8c0.3,0.9,0.8,1.8,1.5,2.5l0.2,0.2c0.4,0.4,0.9,0.8,1.3,1c0.4,0.3,0.9,0.5,1.3,0.7c0.7,0.2,1.5,0.3,2.2,0.3
				c0.4,0,0.8,0,1.2-0.1c0.1,0,0.2,0,0.2,0c0.7-0.1,1.3-0.4,1.9-0.7c0.6-0.3,1.1-0.8,1.6-1.2c0.4-0.3,0.7-0.7,1-1.1v0
				c0.4-0.6,0.7-1.2,0.8-1.9c0.2-0.6,0.2-1.2,0.2-1.9c0-0.9-0.2-1.8-0.5-2.7c-0.3-0.8-0.9-1.6-1.5-2.3c-0.1-0.1-0.2-0.3-0.4-0.3
				c0,0,0-0.1-0.1-0.2c-0.7-0.6-1.6-1-2.5-1.3c-0.3-0.1-0.6-0.1-0.8-0.2H-17c-0.3,0-0.5,0-0.8,0c-0.4,0-0.8,0-1.2,0
				c-1,0.2-1.9,0.6-2.8,1.2c-0.1,0-0.2,0.1-0.2,0.2C-22.3-16.1-22.5-15.9-22.7-15.6z"/>
		</g>
	</g>
	<g>
		<path id="w" class="st7" d="M26.6-22.5c0.5,1.7,0.8,3.5,1.1,5.3c0.3,2.1,0.4,4.2,0.4,6.5c0,4-0.5,7.8-1.4,11.5
			C26,3.3,25.2,5.7,24.1,8c-1.1,2.6-2.5,5-4.2,7.4c-0.3,0.5-0.7,0.9-1.1,1.4c-1.2,1.6-2.6,3.2-4.2,4.7c-1.3,1.3-2.7,2.5-4.1,3.7
			c-1.3,1.1-2.7,2.1-4.2,3c-5,3.2-10.4,5.2-16.3,6.2c-0.9,0.1-1.8,0.2-2.7,0.3c-1.7,0.2-3.4,0.2-5.2,0.2c-3.9,0-7.5-0.4-11-1.2
			c-1.5-0.4-3-0.8-4.4-1.3c-3.9-1.4-7.6-3.4-11.1-6c-0.1-0.1-0.1-0.1-0.2-0.2c-1.9-1.4-3.7-3-5.4-4.8c-1.5-1.5-2.9-3.1-4.2-4.7
			c-1.2-1.5-2.2-3-3.1-4.6c-2.8-4.6-4.6-9.5-5.5-14.8c-0.4-2.5-0.7-5.2-0.7-7.8v-0.4c0-3.8,0.4-7.4,1.2-10.9
			c1.4-5.8,3.9-11.2,7.5-16c0.1-0.2,0.3-0.4,0.5-0.6c1.3-1.7,2.8-3.3,4.3-4.9c1.4-1.4,2.9-2.7,4.4-3.9c0.7-0.6,1.5-1.1,2.2-1.6
			c2.4-1.7,5-3.2,7.6-4.3c3.2-1.4,6.6-2.3,10.1-2.9c2.5-0.4,5.1-0.6,7.8-0.6c1,0,2,0,3,0.1c2,0.1,3.9,0.3,5.8,0.7
			c3.7,0.7,7.3,1.8,10.7,3.4c0.8,0.3,1.5,0.7,2.2,1.1c2.5,1.4,4.9,3,7.2,4.8c1.2,1,2.4,2.1,3.6,3.2c1.4,1.4,2.7,2.9,3.8,4.4
			c1.2,1.5,2.3,3.1,3.3,4.7C24-30.4,25.6-26.6,26.6-22.5l-33.9,7.6c0.5,1.3,0.8,2.7,0.8,4.2c0,1.1-0.1,2.1-0.4,3.1l33.5,8.4
			 M32.6-10.7c0-13.9-4.9-25.8-14.7-35.7C8.1-56.2-3.8-61.1-17.7-61.1c-13.9,0-25.8,4.9-35.6,14.7c-9.8,9.8-14.8,21.7-14.8,35.7
			s4.9,25.8,14.8,35.6c9.8,9.8,21.7,14.7,35.6,14.7s25.8-4.9,35.7-14.8C27.7,15.1,32.6,3.2,32.6-10.7z M37.8-10.7
			c0-15.3-5.4-28.4-16.3-39.2S-2.4-66.2-17.7-66.2S-46.1-60.8-56.9-50c-10.9,10.8-16.3,23.9-16.3,39.2s5.4,28.4,16.3,39.2
			c10.8,10.9,23.9,16.3,39.2,16.3s28.4-5.4,39.2-16.3C32.4,17.7,37.8,4.6,37.8-10.7z M-7.3-14.9c-0.5-1.4-1.4-2.6-2.5-3.8
			c-0.2-0.2-0.4-0.4-0.7-0.5c0-0.1-0.1-0.1-0.2-0.2c-1.2-1-2.5-1.7-4-2.1c-0.4-0.1-0.9-0.2-1.3-0.3c-0.2,0-0.4,0-0.6,0
			c-0.4-0.1-0.8-0.1-1.2-0.1c-0.7,0-1.3,0-2,0.2c-1.6,0.3-3.1,0.9-4.5,1.8l-0.4,0.3c-0.4,0.3-0.7,0.6-1.1,1c-0.3,0.3-0.6,0.7-1,1
			c-1.1,1.3-1.8,2.8-2.1,4.5c-0.2,0.8-0.2,1.6-0.2,2.4v0.7c0.1,1,0.2,2,0.5,2.9c0.5,1.5,1.3,2.9,2.5,4.1l0.3,0.3
			c0.7,0.7,1.4,1.2,2.2,1.7c0.7,0.4,1.4,0.8,2.2,1c1.1,0.4,2.3,0.5,3.6,0.5c0.7,0,1.3-0.1,1.9-0.2c0.1,0,0.3,0,0.4,0
			c1.1-0.2,2.1-0.6,3-1.1c0.9-0.5,1.8-1.2,2.6-2c0.6-0.6,1.1-1.2,1.5-1.8v0c0.6-1,1.1-2,1.4-3 M-23.3-15c-0.6,0.8-1.1,1.8-1.3,2.8
			c-0.1,0.5-0.2,1-0.2,1.5v0.4c0,0.6,0.2,1.2,0.3,1.8c0.3,0.9,0.8,1.8,1.5,2.5l0.2,0.2c0.4,0.4,0.9,0.8,1.3,1
			c0.4,0.3,0.9,0.5,1.3,0.7c0.7,0.2,1.5,0.3,2.2,0.3c0.4,0,0.8,0,1.2-0.1c0.1,0,0.2,0,0.2,0c0.7-0.1,1.3-0.4,1.9-0.7
			c0.6-0.3,1.1-0.8,1.6-1.2c0.4-0.3,0.7-0.7,1-1.1v0c0.4-0.6,0.7-1.2,0.8-1.9c0.2-0.6,0.2-1.2,0.2-1.9c0-0.9-0.2-1.8-0.5-2.7
			c-0.3-0.8-0.9-1.6-1.5-2.3c-0.1-0.1-0.2-0.3-0.4-0.3c0,0,0-0.1-0.1-0.2c-0.7-0.6-1.6-1-2.5-1.3c-0.3-0.1-0.6-0.1-0.8-0.2H-17
			c-0.3,0-0.5,0-0.8,0c-0.4,0-0.8,0-1.2,0c-1,0.2-1.9,0.6-2.8,1.2c-0.1,0-0.2,0.1-0.2,0.2c-0.2,0.2-0.5,0.4-0.7,0.7
			C-22.9-15.4-23.1-15.2-23.3-15z M-16.5-21.9L-9-55.7 M3.9-51.2l-18.4,29.7 M-19.7-21.8l-5.9-34 M6.4,28.2l-18.8-29 M-21.3,0
			l-7.4,33.8 M-15.8,0.4l6,34 M-26.6-17.6l-28.1-20 M-43.3-48.6l18.8,28.9 M-62.3-21.6l33.6,8.5 M-29-10l-33.8,7.5 M-57.3,12.3
			l28.8-19.4 M-26-3l-18.3,29.5 M-10.4-19.2l29-19.5 M-8.3-4.6l28.1,20"/>
	</g>
</g>
<g transform="matrix(-.41006 .06097 .06097 .41006 108.537 119.685)">
	<g>
		<g id="x">
			<path class="st16" d="M161.9,28.5c10.9-10.8,16.3-23.9,16.3-39.2s-5.4-28.4-16.3-39.2c-10.8-10.8-23.9-16.2-39.2-16.2
				S94.3-60.8,83.5-50S67.2-26.1,67.2-10.7s5.4,28.4,16.2,39.2c10.8,10.9,23.9,16.3,39.2,16.3S151.1,39.3,161.9,28.5 M173.1-10.7
				c0,13.9-4.9,25.8-14.8,35.6c-9.8,9.8-21.7,14.8-35.6,14.7c-13.9,0-25.8-4.9-35.7-14.8c-9.8-9.8-14.7-21.7-14.7-35.6
				s4.9-25.8,14.7-35.7c9.8-9.8,21.7-14.7,35.7-14.7c13.9,0,25.8,4.9,35.6,14.7C168.2-36.5,173.1-24.7,173.1-10.7z"/>
			<path class="st13" d="M158.3,24.9c9.8-9.8,14.8-21.7,14.8-35.6s-4.9-25.8-14.8-35.7c-9.8-9.8-21.7-14.7-35.6-14.7
				s-25.8,4.9-35.7,14.7c-9.8,9.8-14.7,21.7-14.7,35.7s4.9,25.8,14.7,35.6c9.8,9.8,21.7,14.8,35.7,14.8S148.5,34.7,158.3,24.9
				 M159.7-37.7c3.7,4.9,6.2,10.3,7.6,16.1c0.8,3.4,1.2,7.1,1.2,10.8v0.4c0,2.7-0.3,5.3-0.7,7.8c-0.9,5.3-2.7,10.2-5.5,14.8
				c-0.9,1.6-2,3.1-3.2,4.6c-1.3,1.6-2.7,3.2-4.2,4.7c-1.7,1.7-3.5,3.3-5.4,4.7c-0.1,0.1-0.2,0.1-0.2,0.2c-3.5,2.6-7.2,4.6-11.1,5.9
				c-1.4,0.5-2.9,1-4.4,1.3c-3.5,0.9-7.2,1.3-11.1,1.3c-1.8,0-3.5-0.1-5.2-0.2c-0.9-0.1-1.8-0.2-2.7-0.3c-5.9-1-11.4-3-16.3-6.2
				c-1.4-0.9-2.8-1.9-4.2-3.1c-1.4-1.1-2.7-2.3-4-3.6c-1.5-1.5-2.9-3.1-4.2-4.8c-0.3-0.4-0.7-0.9-1-1.3c-1.7-2.4-3.1-4.8-4.3-7.4
				c-1-2.3-1.9-4.7-2.5-7.2C77.4-2.9,77-6.7,77-10.7c0-2.2,0.1-4.4,0.4-6.5c0.2-1.8,0.6-3.6,1-5.3c1-4.1,2.6-7.9,4.8-11.5
				c1-1.6,2.1-3.2,3.2-4.8c1.2-1.5,2.5-2.9,3.9-4.4c1.2-1.2,2.4-2.2,3.6-3.2c2.3-1.9,4.7-3.5,7.2-4.8c0.8-0.4,1.5-0.8,2.2-1.2
				c3.4-1.6,6.9-2.7,10.7-3.3c1.9-0.3,3.8-0.6,5.8-0.7c1,0,2,0,3,0c2.7,0,5.3,0.2,7.8,0.6c3.5,0.6,6.9,1.6,10.1,3
				c2.7,1.1,5.2,2.6,7.6,4.2c0.7,0.5,1.5,1.1,2.2,1.6c1.5,1.2,3,2.5,4.4,4c1.6,1.6,3,3.2,4.3,4.9C159.4-38.1,159.6-37.9,159.7-37.7z
				"/>
			<path class="st18" d="M125.5-10.7c0-0.2,0-0.4-0.1-0.6c-0.1-0.4-0.3-0.8-0.5-1.1l-0.1-0.1l-0.1-0.2c-0.1-0.1-0.2-0.1-0.3-0.2
				c0,0,0,0-0.1,0c-0.3-0.2-0.7-0.4-1.1-0.5c-0.1,0-0.3,0-0.4,0c-0.1,0-0.2,0-0.3,0h-0.2c-0.1,0-0.2,0-0.3,0
				c-0.2,0.1-0.4,0.2-0.7,0.3c-0.1,0.1-0.2,0.1-0.3,0.2c0,0-0.1,0.1-0.1,0.1c0,0-0.1,0.1-0.2,0.1c-0.3,0.3-0.5,0.6-0.6,0.9
				c-0.1,0.3-0.2,0.7-0.2,1c0,0.3,0,0.5,0.1,0.8c0.1,0.3,0.2,0.5,0.3,0.8c0.1,0.2,0.2,0.3,0.3,0.5c0.2,0.2,0.4,0.4,0.7,0.5
				c0.2,0.1,0.5,0.2,0.8,0.2h0.1c0.1,0,0.3,0,0.4,0c0.3,0,0.6,0,0.9-0.2c0.2,0,0.3-0.1,0.5-0.2l0.1,0c0.2-0.1,0.3-0.2,0.5-0.3l0,0
				c0.3-0.3,0.5-0.6,0.6-1c0.1-0.2,0.1-0.5,0.2-0.8C125.5-10.6,125.5-10.7,125.5-10.7z"/>
		</g>
	</g>
	<g transform="matrix(-1 0 0 1 105 0)">
		<path id="y" class="st7" d="M148.3-48.6c0.7,0.5,1.5,1,2.2,1.6c1.5,1.2,3,2.5,4.4,3.9c1.6,1.6,3,3.2,4.4,4.9
			c0.2,0.2,0.3,0.4,0.4,0.6c3.7,4.9,6.2,10.2,7.6,16.1c0.8,3.4,1.2,7.1,1.2,10.8v0.4c0,2.7-0.3,5.3-0.7,7.8
			c-0.9,5.3-2.7,10.2-5.5,14.8c-0.9,1.6-2,3.1-3.2,4.6c-1.3,1.6-2.7,3.2-4.2,4.7c-1.7,1.7-3.5,3.3-5.4,4.7c-0.1,0.1-0.2,0.1-0.2,0.2
			c-3.5,2.6-7.2,4.6-11.1,6c-1.4,0.5-2.9,0.9-4.4,1.3c-3.5,0.9-7.2,1.3-11.1,1.3c-1.8,0-3.5-0.1-5.2-0.2c-0.9-0.1-1.8-0.2-2.7-0.3
			c-5.9-1-11.3-3-16.3-6.2c-1.4-0.9-2.8-1.9-4.2-3c-1.4-1.1-2.7-2.3-4-3.6c-1.5-1.5-2.9-3.1-4.2-4.8c-0.4-0.5-0.7-0.9-1-1.4
			c-1.7-2.4-3.1-4.8-4.3-7.4c-1.1-2.3-1.9-4.7-2.5-7.2C77.4-2.9,77-6.7,77-10.7c0-2.2,0.1-4.4,0.4-6.5c0.2-1.8,0.6-3.6,1-5.3
			c1-4.1,2.6-7.9,4.8-11.5c1-1.6,2.1-3.2,3.3-4.7c1.2-1.5,2.5-3,3.9-4.4c1.2-1.2,2.4-2.2,3.6-3.2c2.3-1.9,4.7-3.5,7.2-4.8
			c0.7-0.4,1.5-0.8,2.2-1.1c3.4-1.6,6.9-2.7,10.7-3.4c1.9-0.3,3.8-0.6,5.8-0.7c1-0.1,2-0.1,3-0.1c2.7,0,5.3,0.2,7.8,0.6
			c3.5,0.6,6.9,1.5,10.1,2.9C143.3-51.8,145.9-50.4,148.3-48.6z M148.3-48.6l-24.3,35.2 M161.9,28.5c-10.8,10.9-23.9,16.3-39.2,16.3
			s-28.4-5.4-39.2-16.3C72.6,17.7,67.2,4.6,67.2-10.7S72.6-39.1,83.5-50s23.9-16.2,39.2-16.2s28.4,5.4,39.2,16.2
			c10.9,10.8,16.3,23.9,16.3,39.2S172.8,17.7,161.9,28.5z M158.3,24.9c-9.8,9.8-21.7,14.7-35.6,14.7s-25.8-4.9-35.7-14.8
			c-9.8-9.8-14.7-21.7-14.7-35.6s4.9-25.8,14.7-35.7c9.8-9.8,21.7-14.7,35.7-14.7c13.9,0,25.8,4.9,35.6,14.7
			c9.8,9.8,14.8,21.7,14.8,35.7S168.2,15.1,158.3,24.9z M123.6-13.8l7-42 M124.8-12.5L124.8-12.5c0.3,0.4,0.5,0.8,0.6,1.2
			c0,0.2,0,0.4,0,0.6v0.2l36.8,22.9 M122.7-13.5c0.2,0,0.3,0,0.5,0c0.4,0.1,0.8,0.2,1.1,0.5c0.1,0,0.1,0,0.1,0
			c0.1,0.1,0.2,0.2,0.3,0.2c0,0.1,0.1,0.1,0.1,0.2l34.9-25.1 M120.4-9.2c-0.2-0.2-0.3-0.5-0.3-0.8c-0.1-0.2-0.1-0.5-0.1-0.8
			c0-0.4,0.1-0.7,0.2-1c0.1-0.3,0.3-0.6,0.6-0.9c0.1,0,0.1-0.1,0.2-0.1c0,0,0-0.1,0-0.1c0.1-0.1,0.2-0.1,0.3-0.2L86.4-38.7
			 M121.3-13.1c0.2-0.1,0.4-0.2,0.7-0.3c0.1,0,0.2,0,0.3,0h0.2c0.1,0,0.2,0,0.3,0L114-55.7 M122.7-8c-0.2,0-0.3,0-0.5,0h-0.1
			c-0.3-0.1-0.5-0.1-0.8-0.2L98.5,28.2 M125.5-10.6c0,0.3-0.1,0.5-0.2,0.8c-0.1,0.4-0.3,0.7-0.6,1l-0.1,0c-0.1,0.1-0.3,0.3-0.4,0.3
			l9.6,42.2 M124.2-8.4L124.2-8.4c-0.3,0.2-0.4,0.3-0.6,0.3C123.3-8,123-8,122.7-8l-7.8,42.4 M121.4-8.3c-0.2-0.1-0.4-0.3-0.7-0.5
			c-0.1-0.1-0.2-0.3-0.3-0.5L85.1,15.4 M149.3,26.5L125.3-9 M101.1-51.2l20.4,37.3 M78.4-22.5l41.5,10.4 M78.3,0.8l41-11.2
			 M167.8-2.5L125.9-11 M167.3-21.6L125.6-12"/>
	</g>
</g>
<g transform="matrix(.41006 -.06097 .06097 .41006 98.294 107.168)">
	<g>
		<g id="z">
			<path class="st18" d="M-97.4,19.8L-97.4,19.8c-0.5-0.5-1-0.7-1.5-0.9c-0.4-0.1-0.8-0.2-1.1-0.2c-1,0-1.9,0.4-2.7,1.1
				c-0.7,0.7-1.1,1.6-1.1,2.7c0,1,0.4,1.9,1.1,2.7c0.7,0.7,1.6,1.1,2.6,1.1c0.9,0,1.7-0.3,2.4-0.8l0.2-0.2c0.7-0.7,1.1-1.6,1.1-2.7
				c0-0.3,0-0.5-0.1-0.8c0-0.3-0.1-0.5-0.2-0.8C-96.8,20.5-97,20.1-97.4,19.8 M38.1-100.4c0.9-0.9,1.3-1.9,1.3-3.1
				c0-1.2-0.4-2.3-1.3-3.2c-0.7-0.7-1.4-1.1-2.3-1.2c-0.3-0.1-0.5-0.1-0.8-0.1c-1.2,0-2.3,0.4-3.2,1.3c-0.9,0.9-1.3,1.9-1.3,3.2
				c0,1.2,0.4,2.2,1.3,3.1c0.9,0.9,1.9,1.3,3.2,1.3c0.3,0,0.6,0,0.8-0.1C36.6-99.3,37.4-99.7,38.1-100.4 M44.8-106.1
				c-0.3-0.5-0.6-1-1.1-1.4c-1.1-1.1-2.5-1.7-4.1-1.7c-1.5,0-2.8,0.5-3.8,1.5c0.9,0.1,1.6,0.5,2.3,1.2c0.9,0.9,1.3,1.9,1.3,3.2
				c0,1.2-0.4,2.2-1.3,3.1c-0.7,0.7-1.4,1.1-2.3,1.2c1.1,1,2.3,1.5,3.8,1.5H40c1.4-0.1,2.7-0.6,3.8-1.7c1.1-1.1,1.7-2.5,1.7-4.1
				c0-0.6-0.1-1.1-0.2-1.5C45.1-105.4,45-105.8,44.8-106.1z"/>
			<path class="st19" d="M-47.8-24l-1.6-5.2l-49.1,47.8l1.2,1.2l0,0.1c0.3,0.3,0.6,0.7,0.8,1.1L-47.8-24 M-50.2-26.8l-42,41
				L-50.2-26.8 M-44.6-41.1l-2.8,0.9l-4.4,1.5l-2.2,0.7l0.7,3.2l1.7,0l0.3-0.2l6.2-2l0.1,0.2l1.3-0.9L-44.6-41.1 M-52.4-37.7
				l6.8-2.1L-52.4-37.7 M59.4,0c5.1,8.4,11.2,16.5,18.3,24.2c1.6,0.2,2.3-0.5,2-2.2c-6.4-7.9-11.8-16-16-24.5l-10.2-30l-4.5,1.8
				L59.4,0 M22.7-53.7l12.6-4.8l-2.7-6l-76.8,30.9l1.5,4.9L22.7-53.7 M31.5-62.8l-73.6,29.6L31.5-62.8 M40.7-46.5l-2.2-5l-7.3,10.3
				l-48.7,68.7c-2.4,2.2-4.9,2.7-7.5,1.5l-17.5-57.8l-1.5-4.9l-1-3.2l0-0.2l-6.2,2v0l1.9,5.8l1.6,5.2l17.5,55.2l-65.8-9.6l-0.1,0.8
				c0,1-0.4,1.9-1.1,2.7l-0.1,0.2l70.3,11.1c3.6,1.3,7.4,0.3,11.2-3L40.7-46.5 M-17.4,29.1c-2.4,1.8-4.8,2.2-7.2,1.4
				C-22.2,31.3-19.8,30.9-17.4,29.1 M38.1-49l-54.8,77.3L38.1-49 M38.4-51.6l-3.1-7l-12.6,4.8l2,2.3l5.7-1.1l1.5,2.6l-2.2,6.4
				l1.4,2.3L38.4-51.6 M38.7-72l-0.8,0.4l-5.4,2.5l-1.6,0.7l1.8,3.9l2.7,6l3.1,7l2.2,5.1c0.2,0.3,0.3,0.7,0.4,1l2.2,4.8l6.8-2.5
				l-6.8,2.5l5.6,10l4.5-1.8l-2.8-11L38.7-72 M32.4-67.7l5.3-2.3L32.4-67.7z"/>
			<path class="st13" d="M-51.5-53.7c-1.1,0.3-2.3,0.6-3.5,0.9h0c-0.4,0.1-0.8,0.1-1.2,0.2l4.3,13.8l4.5-1.5L-51.5-53.7 M45.2-105
				c0.1,0.5,0.2,1,0.2,1.5c0,1.6-0.6,3-1.7,4.1c-1.1,1.1-2.3,1.6-3.8,1.7l-8.2,13.1l-1.5-1.1L27-84.1l5.5,14.9l5.4-2.5l-0.3-0.7
				l-2-5.1l9.2-17.7l3.2-1.9l1.2-4.7l-1.9-3.8L45.2-105 M28.4-83.7l4.2,11.9L28.4-83.7 M40.8-96.4l-8.2,12.8L40.8-96.4z"/>
			<path class="st20" d="M-68.7-65.8v-0.7h-0.2c-3.8,0.2-5.4,2.3-4.8,6.1c0.6,4.3,3.2,6.8,7.8,7.5c3,0.6,6,0.7,9,0.3
				c0.2,0,0.5-0.1,0.8-0.1c0.4-0.1,0.8-0.2,1.2-0.2h0c1.2-0.3,2.3-0.6,3.5-0.9l0.8-0.2l0.3-0.1c2-0.5,4-1.1,5.9-1.8
				c3.8-1.2,7.6-2,11.6-2.5h2.8c0.7-1.5,1-2.8,1-3.9c-0.4,0-0.9,0-1.5,0c-6.2,0.1-10,0.3-11.2,0.5c-1.2,0.3-4.3,1.1-9.2,2.5
				c-2.8,0.8-5.5,1.2-8,1.2c-3.7,0-6.2-0.5-7.5-1.7C-68-60.6-68.7-62.7-68.7-65.8z"/>
			<path class="st21" d="M-68.7-66.4v0.7c0,3.1,0.7,5.2,2.1,6.3c1.4,1.1,3.9,1.7,7.5,1.7c2.5,0,5.2-0.4,8-1.2c4.9-1.4,8-2.2,9.2-2.5
				c1.3-0.3,5-0.5,11.2-0.5c0.5,0,1,0,1.5,0c-0.2-2.2-1.9-3.6-5.3-4.2c-3.7-0.8-7.4-0.9-11.1-0.5c-3.8,0.1-7.7,0.2-11.5,0.3
				C-61-66.5-64.9-66.4-68.7-66.4z"/>
		</g>
	</g>
	<g>
		<path id="A" class="st7" d="M-29.2-62.1c-0.2-2.2-1.9-3.6-5.3-4.2c-3.7-0.8-7.4-0.9-11.1-0.5c-3.8,0.1-7.7,0.2-11.5,0.3
			c-3.9,0.1-7.8,0.1-11.6,0.1h-0.2c-3.8,0.2-5.4,2.3-4.8,6.1c0.6,4.3,3.2,6.8,7.8,7.5c3,0.6,6,0.7,9,0.3c0.2,0,0.5-0.1,0.8-0.1
			c0.4-0.1,0.8-0.2,1.2-0.2h0c1.2-0.3,2.3-0.6,3.5-0.9l0.8-0.2l0.3-0.1c2-0.5,4-1.1,5.9-1.8c3.8-1.2,7.6-2,11.6-2.5h2.8
			C-29.4-59.7-29.1-61-29.2-62.1z M45.2-105c-0.1-0.4-0.3-0.8-0.4-1.1c-0.3-0.5-0.6-1-1.1-1.5c-1.1-1.1-2.5-1.7-4.1-1.7
			c-1.5,0-2.8,0.5-3.8,1.4c0.9,0.1,1.6,0.5,2.3,1.2c0.9,0.9,1.3,1.9,1.3,3.2c0,1.2-0.4,2.2-1.3,3.1c-0.7,0.7-1.4,1.1-2.3,1.2
			c1.1,1,2.3,1.4,3.8,1.4H40c1.4-0.1,2.7-0.6,3.8-1.7c1.1-1.1,1.7-2.5,1.7-4.1C45.4-104,45.4-104.6,45.2-105z M47.4-105.5l-2.7-0.6
			 M37.6-72.3l-2-5.1l9.2-17.7l3.2-1.9l1.2-4.7l-1.9-3.8 M35.8-99.1c-0.3,0-0.5,0.1-0.8,0.1c-1.2,0-2.3-0.4-3.2-1.3
			c-0.9-0.9-1.3-1.9-1.3-3.1c0-1.2,0.4-2.3,1.3-3.2c0.9-0.9,1.9-1.3,3.2-1.3c0.3,0,0.6,0,0.8,0.1 M40-97.7l-8.2,13.1l-1.5-1.1
			L27-84.1l5.5,15l5.4-2.5l0.8-0.4l12,28.5l2.8,11l10.2,30c4.2,8.5,9.6,16.6,16,24.5c0.3,1.7-0.4,2.5-2,2.2
			C70.6,16.5,64.6,8.4,59.4,0L48.9-30.8l-5.6-10l-2.2-4.8c-0.1-0.3-0.3-0.7-0.4-1l-56.5,80c-3.9,3.3-7.6,4.3-11.2,3l-70.3-11.1h-0.2
			c-0.7,0.6-1.5,0.8-2.4,0.8c-1,0-1.9-0.4-2.6-1.1c-0.7-0.7-1.1-1.6-1.1-2.7c0-1,0.4-1.9,1.1-2.7c0.7-0.7,1.6-1.1,2.6-1.1
			c0.4,0,0.8,0.1,1.2,0.2l0.3-0.3l49.1-47.8l-1.9-5.8v0 M-51.7-34.9l-1.7,0l-0.7-3.2l2.2-0.7l-4.3-13.8 M-45-36.8l1,3.2l76.8-30.9
			l-1.8-3.9l1.6-0.7 M43.3-40.7l6.8-2.5 M32.7-64.5l2.7,6l3.1,7l2.2,5.1 M38.4-51.6l-7.3,10.3l-48.7,68.7c-2.4,2.2-4.9,2.7-7.5,1.5
			l-17.5-57.8l-1.5-4.9 M31.1-41.3l-1.4-2.3l2.2-6.4l-1.5-2.6l-5.7,1.2l-2-2.3l-65.2,25 M22.7-53.7l12.6-4.8 M53.4-32.5l-4.5,1.8
			 M-47.4-40.2l2.8-0.9l1,3.3l-1.3,0.9l0,0l0-0.2l-6.2,2 M-47.8-24l-1.7-5.2 M-51.5-53.7l4,13.5l-4.5,1.5 M-96.2,21.7l65.8,9.6
			L-47.8-24l-48.8,44.8c0.1,0.3,0.2,0.5,0.2,0.8L-96.2,21.7l-0.1,0.8c0,1-0.4,1.9-1.1,2.7l0,0.2 M-96.6,20.8
			c-0.2-0.4-0.4-0.7-0.8-1.1l0-0.1c-0.4-0.4-0.9-0.7-1.5-0.8 M-96.3,22.4c0-0.3,0-0.5-0.1-0.8 M-97.4,25.1l-0.2,0.2"/>
	</g>
	<g>
		<path id="B" class="st22" d="M32.4-67.7l5.3-2.4 M-52.4-37.7l6.8-2.1 M-17.4,29.1c-2.4,1.8-4.8,2.2-7.2,1.4 M38.1-49l-54.8,77.3
			 M31.5-62.8l-73.6,29.6 M-50.2-26.8l-42,41"/>
	</g>
	<g>
		<path id="C" class="st23" d="M28.4-83.7l4.2,11.9 M40.8-96.4l-8.2,12.8"/>
	</g>
</g>
<g transform="matrix(-.41006 .06097 .06097 .41006 142.574 119.004)">
	<g>
		<path id="D" class="st17" d="M125.4-26.1c-0.9-0.1-1.8-0.2-2.7-0.2c-0.6,0-1.2,0-1.8,0.2c-0.3,0-0.5,0-0.8,0
			c-0.7,0.1-1.3,0.2-1.9,0.4c-2,0.6-3.8,1.5-5.4,3c-0.1,0.1-0.2,0.2-0.2,0.2c-0.3,0.2-0.6,0.5-0.9,0.8c-1.6,1.6-2.8,3.3-3.5,5.2
			c-0.7,1.8-1.1,3.7-1.1,5.8c0,1.5,0.2,2.9,0.6,4.3c0.4,1.5,1.1,2.9,1.9,4.2v0c0.6,0.9,1.3,1.7,2.1,2.5c1.1,1.1,2.3,2,3.6,2.7
			c1.3,0.7,2.7,1.2,4.2,1.5c0.2,0,0.4,0,0.5,0.1c0.8,0.1,1.7,0.2,2.7,0.2c1.8,0,3.4-0.2,5-0.8c1.1-0.3,2.1-0.8,3-1.4
			c1.1-0.6,2.1-1.4,3-2.3c0.2-0.1,0.3-0.3,0.4-0.4c1.6-1.7,2.7-3.6,3.4-5.7c0.4-1.3,0.7-2.7,0.8-4v-0.9c0-1.2-0.1-2.3-0.3-3.3
			c-0.5-2.3-1.4-4.4-2.9-6.2c-0.4-0.5-0.9-1-1.3-1.5c-0.5-0.5-1-1-1.5-1.4c-0.2-0.1-0.4-0.3-0.6-0.5
			C129.8-24.9,127.7-25.8,125.4-26.1 M111.9-14.2c0.1-0.3,0.2-0.5,0.3-0.8c0.6-1.4,1.4-2.6,2.5-3.7c0.2-0.2,0.4-0.4,0.7-0.5
			c0,0,0.1-0.1,0.2-0.2c1.2-1,2.5-1.7,4-2.1c0.4-0.1,0.9-0.2,1.3-0.3h0.5c0.2,2.3-0.4,4.8-1.5,7.6c0,0,0,0-0.1,0
			c-0.1,0-0.1,0.1-0.1,0.1c-0.1,0.1-0.2,0.1-0.2,0.2l0-0.2C116.8-13.6,114.3-13.6,111.9-14.2 M124.1-22c0.2,0,0.5,0,0.7,0
			c1.6,0.3,3.1,0.9,4.5,2c0.1,0,0.3,0.1,0.4,0.2c0.4,0.3,0.8,0.7,1.1,1c0.3,0.3,0.7,0.7,0.9,1.1c0.8,1,1.4,2.2,1.8,3.4
			c-2.5,0.7-5,0.8-7.5,0v0.2l-0.2-0.2l-0.2-0.2l-0.1,0h0l0,0C124.5-16.9,124-19.4,124.1-22 M133.6-7c-0.5,1.5-1.3,2.9-2.5,4.2
			c-0.1,0-0.1,0.1-0.2,0.2c-0.1,0.1-0.1,0.1-0.2,0.2c-1.9-1.9-3.2-3.9-3.8-6c0.2-0.2,0.3-0.5,0.3-0.8c0.1-0.3,0.2-0.6,0.2-0.9
			c0-0.1,0-0.2,0-0.3l0.1,0.2c2.3-1.1,4.4-1.7,6.6-1.7c0.1,0.4,0.1,0.8,0.1,1.2v0.7C134.1-9,133.9-8,133.6-7 M124.2-6.3
			c0.1,0,0.2-0.1,0.3-0.2c1.8,1.7,3.2,3.5,4.1,5.5l0,0c-0.7,0.5-1.4,0.8-2.2,1c-1.2,0.4-2.4,0.6-3.7,0.6c-0.7,0-1.4-0.1-2-0.2
			c-0.1-0.1-0.2-0.1-0.4-0.1c-1.1-0.2-2.1-0.5-3-1c0.9-1.9,2.2-3.8,3.9-5.7c0.2,0,0.3,0.1,0.5,0.1c0.1,0,0.1,0,0.2,0
			c0.2,0.1,0.5,0.1,0.8,0.1C123.3-6,123.8-6.1,124.2-6.3 M118.9-8.1l-0.2-0.1c-0.5,2.1-1.5,4.2-3,6.3c-0.3-0.2-0.6-0.5-0.8-0.8
			c-0.6-0.5-1.1-1.1-1.5-1.8c-0.7-1-1.1-2-1.4-3.2c-0.3-1-0.4-2-0.4-3.1c0-0.4,0-0.9,0-1.3c2.3-0.3,4.5,0.2,6.6,1.3l0.1,0v0.1
			c0,0.4,0.1,0.8,0.2,1.2c0.1,0.3,0.2,0.6,0.4,1C118.7-8.3,118.8-8.2,118.9-8.1z"/>
	</g>
	<g transform="matrix(-1 0 0 1 105 0)">
		<path id="E" class="st7" d="M122.7-26.3c0.9,0,1.8,0.1,2.7,0.2c2.3,0.4,4.4,1.2,6.2,2.5c0.2,0.2,0.4,0.3,0.6,0.5
			c0.5,0.4,1,0.9,1.5,1.4c0.5,0.4,0.9,0.9,1.3,1.5c1.5,1.8,2.4,3.9,2.9,6.2c0.2,1.1,0.3,2.2,0.3,3.3v0.9c-0.1,1.4-0.3,2.8-0.8,4
			c-0.7,2.1-1.8,4-3.4,5.7c-0.1,0.1-0.3,0.3-0.4,0.4c-0.9,0.9-1.9,1.7-3,2.4c-1,0.6-2,1.1-3,1.4c-1.6,0.5-3.2,0.8-5,0.8
			c-0.9,0-1.8-0.1-2.7-0.2c-0.2-0.1-0.3-0.1-0.5-0.1c-1.5-0.3-2.9-0.8-4.2-1.5c-1.3-0.7-2.5-1.6-3.6-2.7c-0.8-0.8-1.5-1.6-2.1-2.5v0
			c-0.9-1.4-1.5-2.8-1.9-4.2c-0.4-1.4-0.6-2.8-0.6-4.3c0-2.1,0.4-4,1.1-5.8c0.7-1.9,1.9-3.6,3.5-5.2c0.3-0.3,0.6-0.6,0.9-0.8
			c0-0.1,0.1-0.2,0.2-0.2c1.7-1.4,3.5-2.4,5.5-3c0.6-0.2,1.2-0.3,1.9-0.4c0.3,0,0.5,0,0.8,0C121.5-26.3,122.1-26.3,122.7-26.3z
			 M119.4-14.1c-2.6,0.5-5.1,0.5-7.5,0c0.1-0.3,0.2-0.5,0.3-0.8c0.6-1.4,1.4-2.6,2.5-3.7c0.2-0.2,0.4-0.3,0.7-0.5
			c0,0,0.1-0.1,0.2-0.2c1.2-1,2.5-1.7,4-2.1c0.4-0.1,0.9-0.2,1.3-0.3h0.6c0.1,2.3-0.4,4.8-1.5,7.6c0,0-0.1,0-0.1,0
			c-0.1,0-0.1,0.1-0.1,0.1c-0.1,0.1-0.2,0.1-0.2,0.2 M119.7-14.2c-0.1,0-0.2,0-0.3,0 M125.5-14.5c-1-2.4-1.4-4.9-1.4-7.5
			c0.2,0,0.5,0,0.7,0c1.6,0.3,3.1,0.9,4.5,2c0.1,0,0.3,0.1,0.4,0.2c0.4,0.3,0.8,0.7,1.2,1c0.3,0.3,0.6,0.7,0.9,1.1
			c0.8,1,1.4,2.2,1.8,3.4c-2.5,0.7-5,0.8-7.5,0.1 M126-14l-0.2-0.2l-0.2-0.2c0,0-0.1,0-0.1,0c0,0-0.1,0-0.1,0 M125.5-14.4
			C125.5-14.5,125.5-14.5,125.5-14.4 M126-14.1c-0.1,0-0.2,0-0.3-0.1 M127.5-10.2c2.3-1.1,4.4-1.7,6.6-1.7c0.1,0.4,0.1,0.8,0.1,1.2
			v0.7c-0.1,1-0.3,2-0.6,3c-0.5,1.5-1.3,2.9-2.5,4.2c-0.1,0-0.2,0.1-0.2,0.2l-0.2,0.2c-1.9-1.9-3.2-3.9-3.8-6
			c0.1-0.2,0.2-0.5,0.3-0.8c0.1-0.3,0.2-0.6,0.2-0.9C127.4-10.1,127.5-10.2,127.5-10.2z M124.2-6.3c-0.5,0.2-1,0.2-1.5,0.2
			c-0.3,0-0.6,0-0.8-0.1c0,0-0.1,0-0.2,0c-0.2,0-0.3-0.1-0.5-0.1c-1.7,1.9-3,3.8-3.9,5.7c0.9,0.5,1.9,0.8,3,1c0.2,0,0.3,0,0.4,0.1
			c0.6,0.1,1.2,0.2,1.9,0.2c1.2,0,2.5-0.2,3.7-0.6c0.8-0.2,1.5-0.6,2.2-1l0.1,0c-0.9-1.9-2.3-3.8-4.1-5.5
			C124.5-6.3,124.3-6.3,124.2-6.3z M118.6-8.2c-0.5,2.1-1.6,4.2-3,6.4c-0.3-0.2-0.6-0.5-0.9-0.8c-0.6-0.5-1.1-1.1-1.5-1.8
			c-0.7-1-1.1-2-1.4-3.2c-0.3-1-0.4-2-0.4-3.1c0-0.4,0-0.9,0.1-1.3c2.3-0.3,4.5,0.2,6.6,1.4 M118.1-10.7L118.1-10.7
			c0,0.5,0.1,0.9,0.2,1.2c0.1,0.3,0.2,0.7,0.4,1c0.1,0.1,0.1,0.2,0.2,0.3 M118.7-8.4c0,0.1,0,0.1-0.1,0.2 M118.1-10.6
			C118.1-10.6,118.1-10.6,118.1-10.6"/>
	</g>
</g>
<g transform="rotate(10.25 -375.631 694.053) scale(.41457)">
	<g>
		<g id="F">
			<path class="st10" d="M-68,5.9L-68,5.9c-13,2.8-25.4,2.8-37.1,0l0.5,10c0.3,0.7,0.6,1.5,0.8,2.2c0.8,1.2,1.7,2.3,2.8,3.3
				c4,3.9,8.7,5.8,14.3,5.8c5.6,0,10.4-1.9,14.3-5.8c1.1-1.1,2-2.2,2.8-3.3c0.3-0.7,0.6-1.5,0.8-2.2C-68.7,15.9-68,5.9-68,5.9z"/>
			<path class="st24" d="M-68,5.9V5.4c0.1-0.9-0.1-1.9-0.7-2.9c-12-1.9-23.9-1.9-35.9-0.1c-0.6,1.3-0.8,2.5-0.5,3.6
				C-93.4,8.7-81,8.7-68,5.9L-68,5.9 M-81,5.1c-0.9,0-2.7-0.3-5.4-0.8c-2.6-0.9-4.9-1.1-7.1-0.6h0.2c-0.1,0-0.1,0-0.2,0.1V3.7
				c-0.5,0-1.5,0.1-2.9,0.3c-2,0.2-3.2,0.4-3.4,0.5c0.3-0.2,1.4-0.3,3.4-0.5c1.4-0.2,2.4-0.3,2.9-0.3c2.2-0.5,4.6-0.3,7.1,0.6
				C-83.7,4.8-81.9,5.1-81,5.1c0.7,0,1.5-0.1,2.4-0.3c0.6-0.1,1.2-0.2,1.9-0.4c-0.7,0.2-1.3,0.4-1.9,0.4C-79.5,5-80.3,5.1-81,5.1
				 M-93.6,3.7L-93.6,3.7c0,0,0.1,0,0.1,0H-93.6z"/>
		</g>
	</g>
	<g>
		<path id="G" class="st7" d="M-76.6,4.3c-0.7,0.2-1.3,0.4-1.9,0.4c-1,0.2-1.8,0.3-2.4,0.3c-0.9,0-2.7-0.3-5.4-0.8
			c-2.6-0.9-4.9-1.1-7.1-0.6h0.2c-0.1,0-0.1,0-0.2,0.1V3.7c-0.5,0-1.5,0.1-2.9,0.3c-2,0.2-3.2,0.4-3.5,0.5"/>
	</g>
	<g>
		<path id="H" class="st25" d="M-105.1,5.9c-0.3-1.1-0.1-2.3,0.5-3.6c12-1.8,24-1.8,35.9,0.1c0.6,1,0.8,2,0.7,2.9v0.5l-0.8,10
			c-0.2,0.7-0.5,1.5-0.8,2.2c-0.8,1.2-1.7,2.3-2.8,3.3c-3.9,3.9-8.7,5.8-14.3,5.8c-5.6,0-10.3-1.9-14.3-5.8c-1.1-1.1-2-2.2-2.8-3.3
			c-0.3-0.7-0.5-1.5-0.8-2.2L-105.1,5.9C-93.4,8.7-81,8.7-68,5.9l0.1,0"/>
	</g>
</g>
<g transform="rotate(10.25 -375.631 694.053) scale(.41457)">
	<g>
		<path id="I" class="st12" d="M-99.2-3l0,6.8l7.7-0.8v-6L-99.2-3 M-90.7-3v-3.2l-9.3,0V-3L-90.7-3 M-91.5-12.7l-7.7,0v6.1l7.7,0
			L-91.5-12.7 M-91.5-12.7h0.8v-3.2l-9.3,0v3.2C-100-12.7-91.5-12.7-91.5-12.7z"/>
	</g>
	<g>
		<path id="J" class="st7" d="M-91.5-12.7h0.8v-3.2l-9.3,0v3.2L-91.5-12.7l0,6.1l-7.7,0v-6.1 M-91.5-3l0.8,0v-3.2l-9.3,0V-3L-91.5-3
			v6l-7.7,0.8V-3"/>
	</g>
</g>
<g transform="matrix(.34226 .0619 -.0321 .1775 114.315 95.418)">
	<path id="i_00000036227157150039249440000008109164404598915216_" class="st9" d="M52.1,78.4l55.6,10l3.5-19.3l-55.6-10L52.1,78.4z
		"/>
</g>
<g transform="rotate(10.25 -375.406 693.999) scale(.41457)">
	<g>
		<g id="L">
			<path class="st5" d="M-93.6-82.5l-1.5-1.8c-1.9,1.6-3.6,3.8-5.2,6.5c-2.9,5.1-4.7,11-5.3,17.7c-0.1,18.2-0.2,37.1-0.2,56.6
				l0,11.6l10.5,0c-0.3-9-0.7-17.5-1.2-25.4c-0.4-5.3-0.5-12.1-0.5-20.2c0-11,0.3-19,0.8-24.1c0.8-7.7,2.4-13.4,4.8-17.1l0.1-0.2
				c0,0-0.1-0.1-0.1-0.1C-92.9-80-93.6-81.1-93.6-82.5z"/>
			<path class="st6" d="M-91.2-86.1v-0.5c-1.3,0.5-2.6,1.3-3.8,2.2l1.5,1.8c0-1.3,0.7-2.5,2.1-3.4C-91.4-86-91.3-86-91.2-86.1
				 M-80.6-85.6L-80.6-85.6c1,1,1.5,2,1.5,3.1c0,1.1-0.4,2-1.3,2.8c-0.2,0.2-0.5,0.4-0.8,0.7c-0.3,0.2-0.6,0.4-0.9,0.5
				c-1.2,0.6-2.6,0.9-4.2,0.9c-1.9,0-3.6-0.4-5-1.3l-0.1,0.2c-2.4,3.7-4,9.4-4.8,17.1c-0.5,5.1-0.8,13.1-0.8,24.1
				c0,8.1,0.2,14.9,0.5,20.2c0.5,7.9,0.9,16.4,1.2,25.4l27.4,0V-3.5c0-19.5-0.1-38.4-0.3-56.6c-0.6-6.7-2.3-12.6-5.2-17.7
				C-75.6-81.5-78-84.1-80.6-85.6 M-81.9-78.1c1.8,3.1,2.6,6.3,2.2,9.5C-79.3-71.8-80.1-75-81.9-78.1z"/>
			<path class="st26" d="M-79.1-82.5c0-1.1-0.5-2.1-1.5-3v0c-0.1,1.2-0.6,2.2-1.5,3.2c-1.1,1.1-2.3,1.6-3.8,1.6
				c-1.5,0-2.7-0.5-3.7-1.6c-0.9-0.9-1.5-1.9-1.6-3.2v-0.7c-0.1,0.1-0.1,0.1-0.2,0.2c-1.4,1-2.1,2.1-2.1,3.4c0,1.4,0.7,2.5,2.1,3.5
				c0,0,0.1,0.1,0.1,0.1c1.4,0.9,3.1,1.3,5,1.3c1.6,0,3-0.3,4.2-0.9c0.3-0.2,0.7-0.3,0.9-0.5c0.3-0.2,0.6-0.4,0.8-0.7
				C-79.5-80.5-79.1-81.4-79.1-82.5z"/>
			<path class="st4" d="M-80.6-85.5v-7c-3.4,2.5-6.9,2.5-10.5,0l-0.1,5.8v1.2c0.1,1.2,0.7,2.2,1.6,3.2c1,1.1,2.3,1.6,3.7,1.6
				s2.7-0.5,3.8-1.6C-81.2-83.2-80.7-84.3-80.6-85.5L-80.6-85.5 M-82.8-85.2l0-2.9L-82.8-85.2z"/>
			<path class="st27" d="M-80.6-92.5v-1.1c-3.4-2.5-6.9-2.5-10.5,0v1.2C-87.5-90-84-90-80.6-92.5z"/>
		</g>
	</g>
	<g>
		<path id="M" class="st7" d="M-91.1-92.5v-1.2c3.6-2.5,7.1-2.5,10.5,0v8 M-91.2-86.6l0.1-5.8c3.6,2.4,7.1,2.4,10.5,0 M-80.6-85.6
			L-80.6-85.6c1,1,1.5,2,1.5,3.1c0,1.1-0.4,2-1.3,2.8c-0.2,0.2-0.5,0.4-0.8,0.7c-0.3,0.2-0.6,0.4-0.9,0.5c-1.2,0.6-2.6,0.9-4.2,0.9
			c-1.9,0-3.6-0.4-5-1.3 M-80.6-85.5L-80.6-85.5c-0.1,1.2-0.6,2.3-1.5,3.2c-1.1,1.1-2.3,1.6-3.8,1.6c-1.5,0-2.7-0.5-3.7-1.6
			c-0.9-0.9-1.5-1.9-1.6-3.2v-0.7c-0.1,0.1-0.1,0.1-0.2,0.2c-1.4,1-2.1,2.1-2.1,3.4c0,1.4,0.7,2.5,2.1,3.5c0,0,0.1,0.1,0.1,0.1
			 M-81.9-78.1c1.8,3.1,2.6,6.3,2.2,9.5 M-91.2-86.1v-0.5"/>
	</g>
	<g>
		<path id="N" class="st25" d="M-80.6-85.6c2.6,1.5,5,4.1,7.2,7.8c2.9,5.1,4.7,11,5.2,17.7c0.2,18.2,0.3,37.1,0.3,56.6V8.1l-37.9,0
			l0-11.6c0-19.5,0.1-38.4,0.2-56.6c0.6-6.7,2.4-12.6,5.3-17.7c1.6-2.8,3.3-4.9,5.2-6.5c1.2-1,2.5-1.8,3.8-2.3"/>
	</g>
	<g>
		<path id="O" class="st8" d="M-82.8-85.2l0-2.9"/>
	</g>
</g>
<g transform="rotate(10.25 -355.07 695.823) scale(.41457)">
	<path id="i_00000060027078094196962300000015120826607161724037_" class="st9" d="M48.4,68.8l66.2,12l8-44.3l-66.2-12L48.4,68.8z"
		/>
</g>
<g>
	<g transform="rotate(-4.75 581.71 -1465.279) scale(.41457)">
		<g>
			<g id="P">
				<path class="st4" d="M-77.8-74.6c-4.2,0.5-7.3,2.6-9.4,6.2c-2,3.4-2.5,7.1-1.4,10.9c0,0.3-0.5,0.7-1.6,1.2
					c-1,0.5-1.6,1.2-1.6,2.3c0,0.4,0.1,1,0.3,1.5c0.2,0.6,0.4,0.9,0.4,1.1c0,0.3-0.4,0.5-1.2,0.8c-0.4,0.2-1.2,0.5-2.2,1
					c-0.2-1-0.5-1.8-0.7-2.4c-0.3-1-1-1.7-2-2c-0.9-0.5-1.8-0.8-2.5-0.9c-0.2,0-0.4,0-0.7,0c-1.4,0-2.3,0.5-2.8,1.4
					c-0.3,0.6-0.5,1.5-0.5,2.8c0,0.7,0.2,1.5,0.6,2.6c0.2,0.6,0.6,1.5,1.2,2.7c0.4,0.8,0.8,1.4,1.4,1.8c0.6,0.4,1.3,0.6,2.2,0.6
					c0.4,0,0.7,0,0.9,0c0.6-0.1,1.1-0.2,1.2-0.5c0.1-0.1,0.3-0.3,0.8-0.6c0.2-0.1,0.3-0.4,0.3-1c-0.1,0.6-0.2,1-0.3,1
					c-0.4,0.3-0.7,0.5-0.8,0.6c-0.2,0.2-0.6,0.4-1.2,0.5c1.5,3.3,3.6,6.4,6.3,9.2c3.4,3.4,7.3,5.9,11.5,7.3c2.9,0.9,6.1,1.4,9.4,1.4
					c8.1,0,15.1-2.9,20.9-8.6s8.7-12.7,8.7-20.9c0-7.3-2.3-13.6-6.9-19c-3.9-1-7.9-1.5-12-1.4l-11.8-0.3
					C-73.5-75.2-75.7-74.9-77.8-74.6 M-70.7-62.1c1,0,1.8,0.4,2.5,1.1c0.7,0.7,1.1,1.5,1.1,2.5c0,1-0.4,1.9-1.1,2.6
					c-0.7,0.7-1.6,1-2.6,1c-1,0-1.8-0.4-2.6-1.1c-0.7-0.7-1-1.5-1-2.6c0-1,0.3-1.8,1.1-2.5C-72.5-61.8-71.7-62.1-70.7-62.1
					 M-47-62.1c1,0,1.9,0.4,2.5,1.1c0.7,0.7,1,1.6,1,2.6s-0.4,1.8-1,2.5c-0.7,0.7-1.5,1-2.6,1c-1,0-1.8-0.4-2.5-1.1
					c-0.7-0.7-1-1.5-1-2.5s0.3-1.9,1-2.6C-48.8-61.8-48-62.1-47-62.1 M-53.7-36.6c0.3-0.1,1-0.2,2-0.3
					C-52.7-36.8-53.4-36.7-53.7-36.6c-6.8,7.6-13,7.2-18.6-1.2C-64.9-35.4-58.7-35-53.7-36.6 M-58-42.4c-0.7-0.3-1.5-0.5-2.5-0.5
					C-59.5-42.9-58.7-42.7-58-42.4c0.7,0.3,1.3,0.5,1.9,0.5c0.7,0,1.3-0.2,1.8-0.6c0.5-0.4,0.8-0.9,0.8-1.5c0-1.1-0.4-2-1.2-2.7
					c-1.2-0.9-2-2-2.6-3.2v-0.5v0.5c0.6,1.2,1.4,2.2,2.6,3.2c0.8,0.7,1.2,1.5,1.2,2.7c0,0.6-0.2,1-0.8,1.5c-0.5,0.4-1.1,0.6-1.8,0.6
					C-56.7-41.9-57.3-42.1-58-42.4 M-64.3-28.6c-0.2-0.1-0.4-0.3-0.6-0.4C-64.7-28.9-64.5-28.7-64.3-28.6c1.2,0.3,2.2,0.2,3.2-0.3
					C-62-28.4-63.1-28.3-64.3-28.6z"/>
				<path class="st12" d="M-72.2-37.8c5.5,8.4,11.7,8.8,18.6,1.2C-58.7-35-64.9-35.4-72.2-37.8z"/>
				<path class="st27" d="M-44.4-61.1c-0.7-0.7-1.5-1-2.5-1.1c-1,0-1.8,0.4-2.5,1c-0.7,0.7-1.1,1.6-1.1,2.6s0.3,1.8,1,2.5
					s1.6,1.1,2.5,1.1c1,0,1.9-0.3,2.6-1c0.7-0.7,1-1.5,1-2.5S-43.7-60.4-44.4-61.1 M-68.1-61.1c-0.7-0.7-1.5-1.1-2.5-1.1
					c-1,0-1.9,0.3-2.6,1c-0.7,0.7-1.1,1.5-1.1,2.5c0,1,0.3,1.9,1,2.6c0.7,0.7,1.6,1,2.6,1.1c1,0,1.8-0.3,2.6-1
					c0.7-0.7,1.1-1.5,1.1-2.6C-67.1-59.5-67.4-60.4-68.1-61.1z"/>
				<path class="st28" d="M-98.1-82.2c-6.4,6.4-9.6,14.1-9.6,23.1c0,9,3.2,16.8,9.5,23.2c5.3,5.3,11.5,8.4,18.6,9.3
					c-4.2-1.4-8.1-3.8-11.5-7.3c-2.8-2.8-4.9-5.8-6.3-9.2c-0.2,0-0.5,0-0.9,0c-0.9,0-1.6-0.2-2.2-0.6c-0.6-0.4-1-1-1.4-1.8
					c-0.5-1.2-0.9-2.1-1.1-2.7c-0.4-1.1-0.6-1.9-0.6-2.6c0-1.3,0.2-2.2,0.5-2.8c0.5-0.9,1.4-1.4,2.8-1.4c0.2,0,0.4,0,0.6,0
					c0.8,0.1,1.7,0.4,2.6,0.9c1,0.3,1.6,1,1.9,2c0.2,0.6,0.4,1.3,0.7,2.3c1.1-0.4,1.8-0.8,2.2-0.9c0.8-0.3,1.2-0.6,1.2-0.9
					c0-0.2-0.1-0.5-0.3-1.1c-0.2-0.6-0.3-1.1-0.3-1.6c0-1.1,0.5-1.9,1.6-2.3c1.1-0.5,1.6-0.8,1.6-1.2c-1.1-3.8-0.6-7.5,1.4-10.9
					c2.1-3.6,5.2-5.6,9.4-6.2c2.1-0.3,4.3-0.5,6.4-0.7l11.8,0.3c4.1-0.1,8.1,0.4,12,1.4c0.8,0.2,1.5,0.4,2.3,0.7
					c2.9-3.6,1.4-7.7-4.4-12.2c-5.8-4.5-13.7-6.7-23.8-6.6C-83.5-91.8-91.7-88.6-98.1-82.2z"/>
			</g>
		</g>
		<g>
			<path id="Q" class="st7" d="M-47.6-73.7c0.8,0.2,1.5,0.4,2.3,0.7c2.9-3.6,1.4-7.7-4.4-12.2c-5.8-4.5-13.7-6.7-23.8-6.6
				c-10,0.1-18.2,3.3-24.6,9.6c-6.4,6.4-9.6,14.1-9.6,23.1c0,9,3.2,16.8,9.5,23.2c5.3,5.3,11.5,8.4,18.6,9.3
				c-4.2-1.4-8.1-3.8-11.5-7.3c-2.8-2.8-4.9-5.8-6.3-9.2c-0.2,0-0.5,0-0.9,0c-0.9,0-1.6-0.2-2.2-0.6c-0.6-0.4-1-1-1.4-1.8
				c-0.5-1.2-0.9-2.1-1.1-2.7c-0.4-1.1-0.6-1.9-0.6-2.6c0-1.3,0.2-2.2,0.5-2.8c0.5-0.9,1.4-1.4,2.8-1.4c0.2,0,0.4,0,0.6,0
				c0.8,0.1,1.7,0.4,2.6,0.9c1,0.3,1.6,1,1.9,2c0.2,0.6,0.4,1.3,0.7,2.3c1.1-0.4,1.8-0.8,2.2-0.9c0.8-0.3,1.2-0.6,1.2-0.9
				c0-0.2-0.1-0.5-0.3-1.1c-0.2-0.6-0.3-1.1-0.3-1.6c0-1.1,0.5-1.9,1.6-2.3c1.1-0.5,1.6-0.8,1.6-1.2c-1.1-3.8-0.6-7.5,1.4-10.9
				c2.1-3.6,5.2-5.6,9.4-6.2c2.1-0.3,4.3-0.5,6.4-0.7l11.8,0.3C-55.5-75.2-51.5-74.8-47.6-73.7c4.6,5.4,6.9,11.7,6.9,19
				c0,8.1-2.9,15.1-8.7,20.9s-12.7,8.6-20.9,8.6c-3.3,0-6.4-0.5-9.4-1.4 M-73.2-61.1c-0.7,0.7-1.1,1.5-1.1,2.5c0,1,0.3,1.9,1,2.6
				c0.7,0.7,1.6,1,2.6,1.1c1,0,1.8-0.3,2.6-1c0.7-0.7,1.1-1.5,1.1-2.6c0-1-0.3-1.8-1.1-2.5c-0.7-0.7-1.5-1.1-2.5-1.1
				C-71.7-62.1-72.5-61.8-73.2-61.1z M-49.5-61.1c-0.7,0.7-1.1,1.6-1.1,2.6s0.3,1.8,1,2.5s1.6,1.1,2.5,1.1c1,0,1.9-0.3,2.6-1
				c0.7-0.7,1-1.5,1-2.5s-0.3-1.9-1-2.6c-0.7-0.7-1.5-1-2.5-1.1C-48-62.1-48.8-61.8-49.5-61.1z M-53.7-36.6c0.3-0.1,1-0.2,2-0.4
				 M-57.4-50.2v0.5c0.6,1.2,1.4,2.2,2.6,3.2c0.8,0.7,1.2,1.6,1.2,2.7c0,0.6-0.2,1.1-0.8,1.5c-0.5,0.4-1.1,0.6-1.8,0.6
				c-0.6,0-1.2-0.2-1.9-0.5c-0.7-0.3-1.5-0.5-2.5-0.5 M-61.1-28.9c-1,0.5-2,0.6-3.2,0.3c-0.2-0.1-0.4-0.3-0.6-0.4 M-72.2-37.8
				c7.3,2.5,13.5,2.9,18.6,1.2C-60.5-29.1-66.7-29.5-72.2-37.8z M-97.4-43c0.6-0.1,1-0.2,1.2-0.5c0.1-0.1,0.3-0.3,0.8-0.6
				c0.2-0.1,0.3-0.5,0.3-1"/>
		</g>
	</g>
	<g transform="rotate(-4.75 581.71 -1465.279) scale(.41457)">
		<g>
			<path id="R" class="st29" d="M-100.3-48.9c0,0.4,0.1,0.8,0.4,1.1c0.3,0.3,0.6,0.5,1,0.5s0.7-0.1,1-0.5c0.3-0.3,0.5-0.7,0.5-1.1
				s-0.2-0.8-0.5-1.1c-0.3-0.3-0.6-0.5-1-0.5s-0.8,0.2-1,0.5C-100.1-49.7-100.3-49.3-100.3-48.9 M-61.7-26.4
				c-2.8-0.1-5.3-0.4-7.7-1.2c-4.2-1.2-6.9-2.1-8.2-2.7c-2.5-1.3-3.9-2-4.1-2.1c-2.1-1.1-3.6-2.1-4.6-3c-0.2-0.2-1.1-0.8-2.5-1.9
				c-1.3-0.9-2-1.5-2.2-1.9c-2.7-3.4-4-5.5-4-6.2c-0.1,0.6-0.2,1-0.3,1c-0.4,0.3-0.7,0.5-0.8,0.6c-0.2,0.2-0.6,0.4-1.3,0.4
				c-0.2,0-0.5,0-0.9,0c-0.9,0-1.6-0.2-2.2-0.6c-0.6-0.4-1-1-1.4-1.8c-0.5-1.2-0.9-2.1-1.1-2.7c-0.4-1.1-0.6-1.9-0.6-2.6
				c0-1.3,0.2-2.2,0.5-2.8c0.5-0.9,1.4-1.4,2.8-1.4c0.2,0,0.4,0,0.6,0.1c-1.2-0.8-2.2-1.9-2.8-3.2c-0.2-0.4-0.5-2.2-1-5.2
				c-0.3-1.5-0.5-3.4-0.8-5.5c-0.2-1.8-0.4-3.2-0.4-4.1c-1.9,4.2-2.9,8.8-2.9,13.8c0,9,3.2,16.8,9.5,23.2c5.3,5.3,11.5,8.4,18.6,9.3
				c2.9,0.9,6.1,1.4,9.4,1.4C-67.2-25.2-64.4-25.6-61.7-26.4 M-54.7-45.7c0,0.4-0.1,0.8-0.2,1c-0.1,0.2-0.3,0.4-0.6,0.6
				c-0.4,0.3-0.7,0.4-0.9,0.5l-2.2,0.1c-0.1,0-0.5,0.1-1,0.2s-0.8,0.3-1,0.3c1,0,1.8,0.2,2.5,0.5c0.7,0.3,1.3,0.5,1.9,0.5
				c0.7,0,1.4-0.2,1.9-0.6c0.5-0.4,0.8-0.9,0.8-1.5c0-1-0.4-1.9-1.1-2.6C-54.6-46.3-54.6-46.1-54.7-45.7 M-51-63.3
				c-0.9,0.9-1.4,2.3-1.4,4.3c0,0.8,0.6,1.6,1.8,2.3c0.1,0.3,0.3,0.5,0.6,0.8c0.1,0.1,0.3,0.2,0.4,0.3c0.6,0.5,1.4,0.7,2.2,0.7
				c1,0,1.8-0.3,2.5-1c0.8-0.2,1.4-0.6,1.7-1.2c0.6-1,0.9-2.2,0.9-3.5c0-0.7-0.1-1.3-0.2-1.7c-0.2-0.5-0.6-1-1.2-1.5
				c-0.5-0.4-1-0.7-1.4-0.8c-0.2,0-0.8-0.1-1.6-0.1C-48.7-64.6-50.1-64.2-51-63.3 M-70.1-64.6c-1.8,0-3.2,0.4-4.1,1.3
				c-0.9,0.9-1.4,2.3-1.4,4.3c0,0.8,0.6,1.5,1.7,2.2c0.2,0.3,0.4,0.6,0.6,0.8c0.1,0.1,0.3,0.2,0.4,0.4c0.6,0.5,1.3,0.7,2.2,0.7
				c1,0,1.8-0.3,2.5-1c0.8-0.2,1.4-0.6,1.7-1.2c0.6-1,0.9-2.1,0.9-3.5c0-0.7-0.1-1.3-0.2-1.7c-0.2-0.5-0.6-1-1.2-1.5
				c-0.5-0.4-1-0.7-1.4-0.8C-68.7-64.6-69.2-64.6-70.1-64.6 M-71.4-75.4l11.8,0.3c4.1-0.1,8.1,0.4,12,1.4c0.8,0.2,1.5,0.4,2.3,0.7
				c1.4-1.8,1.8-3.7,1.1-5.7c-2.1,0-6.3-0.4-12.6-1.2c-6.4-0.8-11.7-1.2-15.8-1.3c-4.9,0.1-7.4,0.2-7.6,0.1c-1.1,0-2.2,0.2-3.4,0.8
				c-1.1,0.5-2.1,1.3-3,2.2c-1.5,1.6-2.4,3.3-2.9,5.2c-0.3,1.2-0.4,3.1-0.4,5.7c0.1,1.3,0.2,2.5,0.2,3.5h0.1
				c0.1,0.1,0.2,0.4,0.4,0.8c0.2-2,0.9-3.9,2-5.7c2.1-3.6,5.2-5.6,9.4-6.1C-75.7-74.9-73.5-75.2-71.4-75.4 M-72.6-81.2
				c0-0.1,0-0.1-0.1-0.1c-0.1,0.1-0.2,0.1-0.3,0.1H-72.6z"/>
		</g>
		<g>
			<path id="S" class="st7" d="M-100.3-48.9c0-0.4,0.1-0.8,0.4-1.1c0.3-0.3,0.7-0.5,1-0.5c0.4,0,0.7,0.2,1,0.5
				c0.3,0.3,0.5,0.7,0.5,1.1s-0.2,0.8-0.5,1.1c-0.3,0.3-0.6,0.5-1,0.5s-0.8-0.2-1-0.5C-100.1-48.1-100.3-48.5-100.3-48.9z"/>
		</g>
	</g>
	<g transform="matrix(.24427 -.02029 .03033 .36518 123.285 43.118)">
		<path id="i_00000021835331796432143700000016567645928886376887_" class="st9" d="M72.5,43l39.7-3.3L108.8,0L69.2,3.3L72.5,43z"/>
	</g>
</g>
<g>
	<g transform="rotate(-4.75 539.978 -1438.941) scale(.41457)">
		<g>
			<g id="T">
				<path class="st12" d="M-58.8-50.8c0-0.9-0.1-1.7-0.4-2.5l-14.6-0.2c-0.3,0.8-0.4,1.7-0.4,2.6c0,2.1,0.7,4,2.2,5.5
					s3.3,2.3,5.5,2.3c2.1,0,3.9-0.8,5.5-2.2C-59.5-46.9-58.8-48.7-58.8-50.8z"/>
				<path class="st4" d="M-59.2-53.3c-0.3-1.1-1-2.1-1.8-3c-1.5-1.5-3.3-2.2-5.5-2.3c-2.1,0-4,0.8-5.5,2.2c-0.8,0.8-1.5,1.8-1.8,2.8
					L-59.2-53.3z"/>
			</g>
		</g>
		<g>
			<path id="U" class="st7" d="M-62.6-61l-8,0 M-73.8-53.4c0.4-1.1,1-2,1.8-2.8c1.5-1.5,3.3-2.2,5.5-2.2c2.1,0,3.9,0.8,5.5,2.3
				c0.9,0.9,1.5,1.9,1.8,3c0.3,0.8,0.4,1.6,0.4,2.5c0,2.1-0.8,4-2.3,5.5c-1.5,1.5-3.3,2.2-5.5,2.2c-2.1,0-4-0.8-5.5-2.3
				s-2.2-3.3-2.2-5.5C-74.2-51.8-74-52.6-73.8-53.4l14.6,0.2"/>
		</g>
	</g>
	<g transform="rotate(-4.75 539.978 -1438.941) scale(.41457)">
		<path id="V" class="st29" d="M91,18.8c0.4-0.4,0.8-0.8,1.3-0.9c-0.3,0-0.5-0.1-0.8,0c-0.9,0.1-1.6,0.4-2.2,1.1
			c-0.3,0.4-0.5,0.8-0.7,1.2c-0.1,0.3-0.1,0.7-0.1,1.1c0.1,0.9,0.4,1.6,1.1,2.2c0.7,0.6,1.4,0.8,2.3,0.7c0.3,0,0.6-0.1,0.8-0.2
			c-0.5-0.1-1-0.3-1.5-0.7c-0.7-0.6-1-1.3-1.1-2.2c0-0.4,0-0.7,0.1-1.1C90.5,19.6,90.7,19.2,91,18.8z"/>
	</g>
	<g transform="rotate(-4.75 539.978 -1438.941) scale(.41457)">
		<path id="W" d="M92.8,21.6c0.1,0.1,0.3,0.2,0.4,0.2c0.2,0,0.3-0.1,0.4-0.2c0.1-0.1,0.1-0.3,0.1-0.4s-0.1-0.3-0.2-0.4
			c-0.1-0.1-0.3-0.1-0.4-0.1c-0.2,0-0.3,0.1-0.4,0.2c-0.1,0.1-0.2,0.3-0.1,0.4S92.7,21.5,92.8,21.6z"/>
	</g>
</g>
<g>
	<g transform="rotate(-4.75 535.281 -1549.156) scale(.41457)">
		<g>
			<g id="T_00000025441413363352330490000018289279466661297288_">
				<path class="st12" d="M-58.8-50.8c0-0.9-0.1-1.7-0.4-2.5l-14.6-0.2c-0.3,0.8-0.4,1.7-0.4,2.6c0,2.1,0.8,4,2.2,5.5
					s3.3,2.3,5.5,2.3c2.1,0,3.9-0.8,5.5-2.2C-59.5-46.9-58.8-48.7-58.8-50.8z"/>
				<path class="st4" d="M-59.2-53.3c-0.3-1.1-1-2.1-1.9-3c-1.5-1.5-3.3-2.3-5.4-2.3c-2.1,0-4,0.8-5.5,2.2c-0.8,0.8-1.5,1.8-1.9,2.8
					L-59.2-53.3z"/>
			</g>
		</g>
		<g>
			<path id="U_00000047738760713942229000000002572776503885571991_" class="st7" d="M-62.6-61l-8,0 M-73.8-53.4
				c0.4-1.1,1-2,1.9-2.8c1.5-1.5,3.3-2.2,5.5-2.2c2.1,0,3.9,0.8,5.4,2.3c0.9,0.9,1.5,1.9,1.9,3c0.3,0.8,0.4,1.6,0.4,2.5
				c0,2.1-0.8,3.9-2.3,5.5c-1.5,1.5-3.3,2.2-5.5,2.2c-2.1,0-4-0.8-5.5-2.3s-2.2-3.3-2.2-5.5C-74.2-51.8-74-52.6-73.8-53.4l14.6,0.2"
				/>
		</g>
	</g>
	<g transform="rotate(-4.75 535.281 -1549.156) scale(.41457)">
		<path id="V_00000065761189792126080510000001248722439371983517_" class="st29" d="M100.2,18.1c0.4-0.4,0.8-0.8,1.3-0.9
			c-0.3,0-0.5-0.1-0.8,0c-0.9,0.1-1.6,0.4-2.2,1.1c-0.3,0.4-0.5,0.8-0.7,1.2c-0.1,0.3-0.1,0.7-0.1,1.1c0.1,0.9,0.4,1.6,1.1,2.2
			c0.7,0.6,1.4,0.8,2.3,0.7c0.3,0,0.6-0.1,0.8-0.2c-0.5-0.1-1-0.3-1.5-0.7c-0.7-0.6-1-1.3-1.1-2.2c0-0.4,0-0.7,0.1-1.1
			C99.6,18.9,99.8,18.5,100.2,18.1z"/>
	</g>
	<g transform="rotate(-4.75 535.281 -1549.156) scale(.41457)">
		<path id="W_00000041293800205061887520000002749033101453240996_" d="M101.9,20.9c0.1,0.1,0.3,0.2,0.4,0.2c0.2,0,0.3-0.1,0.4-0.2
			c0.1-0.1,0.1-0.3,0.1-0.4s-0.1-0.3-0.2-0.4c-0.1-0.1-0.3-0.1-0.4-0.1c-0.2,0-0.3,0.1-0.4,0.2c-0.1,0.1-0.2,0.3-0.1,0.4
			S101.8,20.8,101.9,20.9z"/>
	</g>
</g>
<g>
	<g transform="matrix(.41343 -.03077 .03077 .41343 115.485 72.548)">
		<g>
			<g id="e_00000161596088855535925670000009948654766977245865_">
				<path class="st4" d="M-70.1-60.5V-61h-9.2v22.8c0,1.2,0,2.5,0,3.7c0.2,1,0.6,1.9,1.2,2.6c1,1,2.1,1.5,3.4,1.5
					c1.3,0,2.4-0.5,3.3-1.5c0.7-0.8,1.1-1.6,1.2-2.6v-3.7c0-2.4,0.1-5,0.1-7.5V-60.5 M-72.4-50.8v-6.3V-50.8z"/>
				<path class="st5" d="M-74.5-84.8l0.1-0.5h-0.2c-2.2,0-4.1,0.8-5.7,2.4c-1.2,1.3-1.9,2.8-2.2,4.6c-0.1,4.6-0.1,9.4-0.1,14.4v3
					h15.8v-2.6h-10.7c0-0.7,0-2.2-0.1-4.5c0-3.6,0.1-6.1,0.4-7.4C-76.9-76.7-76-79.8-74.5-84.8z"/>
				<path class="st6" d="M-74.5-85.4l-0.1,0.6c-1.5,5-2.4,8.1-2.7,9.3c-0.3,1.3-0.4,3.8-0.4,7.4c0.1,2.4,0.1,3.9,0.1,4.6h10.7v-0.3
					c0-5-0.1-9.8-0.2-14.5c-0.2-1.7-0.9-3.2-2.1-4.5C-70.6-84.5-72.4-85.3-74.5-85.4z"/>
			</g>
		</g>
		<g>
			<path id="f_00000174590365479771304130000007331681725466331561_" class="st7" d="M-66.8-63.6v-0.3c0-5-0.1-9.8-0.2-14.5
				c-0.2-1.7-0.9-3.2-2.1-4.5c-1.5-1.6-3.3-2.4-5.4-2.5h-0.2c-2.2,0-4.1,0.8-5.7,2.5c-1.2,1.3-1.9,2.8-2.2,4.5
				c-0.1,4.6-0.1,9.5-0.1,14.5v3h15.8C-66.8-61-66.8-63.6-66.8-63.6z M-79.3-61v22.8c0,1.2,0,2.5,0,3.7c0.2,1,0.6,1.9,1.2,2.6
				c1,1,2.1,1.5,3.4,1.5c1.3,0,2.4-0.5,3.3-1.5c0.7-0.8,1.1-1.6,1.2-2.6v-3.7c0-2.4,0.1-5,0.1-7.5V-61"/>
		</g>
		<g>
			<path id="g_00000023965934965794197680000009164222463591086506_" class="st8" d="M-72.4-50.8v-6.3"/>
		</g>
	</g>
	<g transform="matrix(.10428 -.00776 .01983 .26638 115.465 72.55)">
		<path id="i_00000072250212451362613240000008148356171756611988_" class="st9" d="M75.4,66l16.9-1.3l-2.2-28.9l-16.9,1.3L75.4,66z
			"/>
	</g>
</g>
<g>
	<g transform="rotate(-48.646 182.114 -79.013) scale(.41457)">
		<g>
			<g id="p_00000067232922513456731570000007710485774189033600_">
				<path class="st4" d="M-5.3-101.6c0-0.1,0.1-0.2,0.1-0.3l0-0.4L-5.3-101.6z"/>
				<path class="st10" d="M-7.6-124.9h-1.5c-2,1.3-3.6,3.1-5,5.3c-2.7,4.4-4.2,10.4-4.7,18.2l-1.7,0.1c0.2,7.5,0.4,14.6,0.5,21.4
					l0,1.2c0,0.8,0,1.5,0,2.2c0.1,2.4,0.1,4.7,0.1,6.9c0.2,1.6,0.2,3.2,0.2,4.8c0.3,1.2,0.9,2.4,1.8,3.4c1.5,1.2,3.1,1.8,4.8,1.8
					c1.8,0,3.3-0.6,4.7-1.7c1-1,1.6-2.1,1.9-3.3c0.1-1.5,0.1-3.1,0.2-4.8c0.1-3,0.2-6,0.3-9.2c0-0.1,0-0.2,0-0.2v0
					c0-0.3,0.1-0.6,0.1-0.8c0.2-6.8,0.4-13.9,0.5-21.4c0.1-0.1,0.1-0.2,0-0.3v-0.1l0-0.1l0.1-0.7c0.1-2.9,0.1-5.6,0.2-8.3
					c0-0.9,0-1.8-0.1-2.6c0-0.3,0-0.7,0.1-1c0.1-1.9,0.2-3.7,0.2-5.7c-0.2-1.9-0.9-3.6-2-5c-0.1-0.1-0.2-0.3-0.3-0.4
					C-7.3-125.2-7.6-124.9-7.6-124.9z"/>
				<path class="st11" d="M-7.3-125.2c-1.6-1.6-3.4-2.5-5.5-2.5c-2.3,0-4.2,0.9-5.9,2.8c-0.2,0.3-0.4,0.5-0.6,0.8
					c-0.8,1.3-1.3,2.7-1.5,4.2c0.1,2.2,0.1,4.4,0.1,6.7c0,0.8,0,1.6,0.1,2.5c0,2.7,0.1,5.4,0.2,8.3l0,1.2l1.7-0.1
					c0.4-7.8,2-13.9,4.7-18.2c1.4-2.2,3-4,5-5.3h1.5C-7.6-124.9-7.3-125.2-7.3-125.2z"/>
			</g>
		</g>
		<g>
			<path id="q_00000044899718188542978130000006417832007847066278_" class="st7" d="M-19.4-124c-0.8,1.2-1.3,2.6-1.5,4.2
				c0.1,2.2,0.1,4.4,0.1,6.7c0,0.8,0,1.6,0.1,2.5c0,2.7,0.1,5.4,0.2,8.3l0,1.2 M-5.1-114.1l-0.1,1c0.1,0.8,0.1,1.6,0.1,2.6
				c-0.1,2.7-0.1,5.4-0.2,8.3l0,0.4c0,0.1,0,0.2-0.1,0.3l-0.1,0.1v0.1c0.1,0.1,0.1,0.2,0,0.3c-0.1,7.5-0.3,14.6-0.5,21.4
				c0,0.3,0,0.6-0.1,0.8v0.1c0,0.1,0,0.1,0,0.2c-0.1,3.2-0.2,6.2-0.3,9.2c0,1.6-0.1,3.2-0.2,4.7c-0.2,1.2-0.9,2.4-1.9,3.3
				c-1.3,1.2-2.9,1.7-4.7,1.7c-1.7,0-3.3-0.6-4.8-1.8c-0.9-1-1.5-2.1-1.8-3.4c0-1.5-0.1-3.1-0.2-4.8c0-2.3-0.1-4.6-0.1-6.9
				c0-0.7-0.1-1.5-0.1-2.2l0-1.2c-0.2-6.8-0.3-13.9-0.5-21.4"/>
		</g>
	</g>
	<g transform="rotate(-48.648 182.118 -79.009) scale(.1379 .33559)">
		<path id="i_00000031912374118542589290000008804380672077986706_" class="st9" d="M94.7,108.7l14.8-16.8L82.2,67.8L67.4,84.6
			L94.7,108.7z"/>
	</g>
</g>
<g>
	<g transform="rotate(21.541 -273.05 400.368) scale(.41457)">
		<g>
			<g id="r_00000016075469370606298140000007020292679730928266_">
				<path class="st12" d="M-89.4,6.6l0.1-3l-4.7,0v6.3C-92.6,11.1-91.1,10-89.4,6.6z"/>
				<path class="st13" d="M-87.8,2L-87.8,2L-97,1.9v0L-87.8,2 M-89.3,3.6l0.1-1.6l-7,0v0.1l0.3,4.2c0.6,1.8,1.2,3,1.8,3.6V3.6
					C-94,3.6-89.3,3.6-89.3,3.6z"/>
				<path class="st11" d="M-87.8,1.9c0-0.4,0-0.8,0.1-1.3c-3-0.4-5-1.5-6-3.4c-0.7-1.3-1.3-4.2-1.7-8.7c-0.4-5.6-0.8-9.9-1.1-13.1
					c-0.5-5.2-1.2-10-2-14.5l-0.3,0.1c0.2,2.8,0.3,5.5,0.3,8.3c0.2,4.6,0.4,9,0.6,13.1l0,0.4c0.1,0.3,0.1,0.6,0.2,1
					c0.3,6.4,0.6,12.4,0.8,18C-97,1.9-87.8,1.9-87.8,1.9z"/>
				<path class="st10" d="M-87.5-45.6c-1.3-2.7-3-4-4.9-4c-0.3,0-0.7,0-1,0.1c-1.5,0.3-2.8,1.6-4.1,3.9c-0.7,1.6-1.1,3.5-1.3,5.5
					c0,0.1,0,0.3-0.1,0.4c0,0.3,0,0.6-0.1,0.9l0.3-0.1c0.8,4.5,1.5,9.3,2,14.5c0.3,3.2,0.7,7.5,1.1,13.1c0.4,4.5,1,7.4,1.7,8.7
					c1,1.8,3,2.9,6,3.4c0.3-5.2,0.6-10.8,0.8-16.7c0-0.4,0-0.7,0-1c0.1-0.1,0.1-0.2,0-0.4c0.2-4.1,0.4-8.5,0.6-13.1
					c0.2-2.8,0.3-5.5,0.4-8.3C-86-41.4-86.5-43.6-87.5-45.6 M-92.4-7.6l-0.1-0.6c0,0.1,0.1,0.2,0.1,0.3V-7.6z"/>
				<path class="st4" d="M-92.4-8.2l0.1,0.6V-8C-92.4-8.1-92.4-8.1-92.4-8.2z"/>
			</g>
		</g>
		<g>
			<path id="s_00000155127989426131643570000012494720320777131948_" class="st7" d="M-87.7,0.7c0.3-5.2,0.5-10.8,0.8-16.7
				c0-0.4,0-0.7,0-1c0.1-0.1,0.1-0.2,0-0.4c0.2-4.1,0.4-8.5,0.6-13.1c0.2-2.8,0.3-5.5,0.4-8.3c-0.1-2.5-0.6-4.8-1.5-6.8
				c-1.3-2.7-3-4-4.9-4c-0.3,0-0.7,0-1,0.1 M-98.8-39.7c0,0.3-0.1,0.6-0.1,0.9 M-87.7,0.7c0,0.4-0.1,0.8-0.1,1.2v0l-1.4,0l-0.1,1.6
				l-0.1,3c-1.7,3.4-3.3,4.5-4.6,3.3c-0.7-0.6-1.3-1.8-1.8-3.6l-0.3-4.2V2L-97,2v0c-0.2-5.6-0.5-11.5-0.8-18c0-0.4-0.1-0.7-0.2-1
				v-0.4c-0.2-4.1-0.4-8.5-0.6-13.1c0-2.8-0.1-5.5-0.3-8.3 M-89.2,2l-7,0"/>
		</g>
	</g>
	<g transform="rotate(21.543 -273.041 400.377) scale(.12512 .27487)">
		<path id="i_00000097491148226957119170000004870446386745077414_" class="st9" d="M80.4,116.7l18.9,7.5l11-27.8L91.3,89
			L80.4,116.7z"/>
	</g>
</g>
<g>
	<g transform="rotate(6.539 -1173.014 1175.914) scale(.41457)">
		<g>
			<g id="t_00000028296639417096966750000014673293175786933937_">
				<path class="st14" d="M-91.2-43.5c-0.1-0.8-0.2-2.4-0.3-4.8h-4.1v10.9l22.2-0.5c0.3-0.5,0.6-1.1,0.7-1.6
					c-1.6-0.2-3.8-0.5-6.7-0.9c-5.3-0.7-8.4-1.1-9.2-1.1C-90.3-41.5-91.1-42.2-91.2-43.5z"/>
				<path class="st15" d="M-91.5-48.3c0.1,2.4,0.2,4,0.3,4.8c0.1,1.3,1,2,2.6,1.9c0.9,0,3.9,0.4,9.2,1.1c2.8,0.4,5,0.7,6.7,0.9
					c0.2-1,0-2.1-0.7-3.2c-2.9-1.2-7.6-3.1-14-5.6C-87.4-48.3-91.5-48.3-91.5-48.3z"/>
			</g>
		</g>
		<g>
			<path id="u_00000143575899387204541400000004860884958952926905_" class="st7" d="M-72.8-39.5c0.2-1,0-2.1-0.7-3.2
				c-2.9-1.2-7.6-3.1-14-5.6h-8.2v10.9l22.2-0.5C-73.1-38.4-72.9-39-72.8-39.5z"/>
		</g>
	</g>
	<g transform="matrix(.16742 .0192 -.00913 .07964 126.335 141.286)">
		<path id="i_00000137836008349103510550000015002659469831872696_" class="st9" d="M79.6,122.4l27.2,3.1l1-8.6l-27.2-3.1
			L79.6,122.4z"/>
	</g>
</g>
<g>
	<g transform="rotate(-99.146 96.853 -12.383) scale(.41457)">
		<g>
			<path id="j_00000151512147871849048880000011108988245530790024_" class="st4" d="M68.6-82.3l0-5.1c-0.2-1-0.6-1.9-1.2-2.7
				c-0.1-0.1-0.3-0.2-0.4-0.3c-0.3-0.2-0.5-0.4-0.8-0.6c-0.6-0.3-1.3-0.5-2.1-0.5h-0.2c-0.8,0-1.5,0.2-2.2,0.7
				c-0.3,0.2-0.6,0.5-1,0.8c-0.4,0.4-0.7,0.9-0.9,1.5c-0.2,0.4-0.3,0.8-0.3,1.2c0,1.2,0,2.4,0,3.7l0,28.6c0,1.2,0.1,2.5,0.1,3.7
				c0.2,1,0.6,1.9,1.2,2.7c1,1,2.1,1.4,3.4,1.4c1.3,0,2.4-0.5,3.3-1.5c0.7-0.8,1.1-1.7,1.2-2.7v-3.7c0-2.2,0.1-4.4,0-6.8v-15.5
				C68.7-79.1,68.6-80.7,68.6-82.3 M66.6-85.1l0,30.9L66.6-85.1z"/>
		</g>
		<g>
			<path id="k_00000017491637731230554380000010194899815950391951_" class="st7" d="M68.6-85.3l0,3.1c0,1.6,0,3.2,0.1,4.9v15.5
				c0,2.3,0,4.6,0,6.8v3.7c-0.2,1-0.6,1.9-1.2,2.7c-0.9,1-2,1.5-3.3,1.5c-1.3,0-2.4-0.5-3.3-1.5c-0.7-0.8-1.1-1.7-1.3-2.7
				c0-1.2,0-2.4-0.1-3.7l0-28.6c0-1.2,0-2.5,0-3.7c0.1-0.4,0.2-0.8,0.3-1.2c0.2-0.5,0.5-1,0.9-1.5c0.3-0.3,0.6-0.6,1-0.8"/>
		</g>
		<g>
			<path id="l_00000075137863192343902230000014879748230959186817_" class="st8" d="M66.6-85.1l0,30.9"/>
		</g>
	</g>
	<g transform="rotate(-99.146 96.853 -12.384) scale(.09192 .21751)">
		<path id="i_00000158021074468437657880000017745692547488689837_" class="st9" d="M104.7,65.1l-2.4-14.7L79,54.1l2.4,14.7
			L104.7,65.1z"/>
	</g>
</g>
<g>
	<g transform="rotate(-99.146 102.615 -16.914) scale(.41457)">
		<g>
			<path id="m_00000183958622566995137970000006186427901197057408_" class="st4" d="M74.1-75.9c-0.1-0.2-0.3-0.3-0.4-0.5
				c-1.1-1.2-2.5-1.8-4.2-2c-2-0.1-3.5,0.6-4.3,2.3c0,0,0,0-0.1,0c-0.3,0.5-0.8,0.9-1.6,1.2c-0.5,0.3-0.9,0.7-1.1,1.3
				c-0.3,0.8-0.4,1.8-0.4,2.9c-0.5,0.3-1.4,0.5-2.5,0.5c-1.3,0-2.4-0.2-3.3-0.7s-1.4-0.7-1.7-0.7c-0.4,0-0.7,0.4-0.7,1.2
				c0,0.5,0.2,1,0.7,1.4c0.4,0.4,1.1,0.7,2,1c0.5,0.1,1.8,0.4,3.8,0.7c-2-0.3-3.2-0.6-3.8-0.7c-0.9-0.3-1.5-0.6-2-1l-0.3,1.3
				c0.1,0.3,0.2,0.6,0.3,0.9c0.4,0.7,1.1,1.2,2.1,1.5c0.1,0,1.4,0.2,3.7,0.6c-2.3-0.4-3.5-0.6-3.7-0.6c-0.9-0.3-1.6-0.8-2.1-1.5
				c-0.3,1-0.1,2.1,0.7,3.2c0.1,0,0.1,0.1,0.2,0.2c0.8,0.4,1.7,0.7,2.8,0.8c1.6,0.1,2.4,0.2,2.6,0.2c-0.2,0-1-0.1-2.6-0.2
				c-1.1-0.1-2-0.4-2.8-0.8c1,2,2.4,3,4.2,3c1.8-0.1,3.1-0.1,4.1-0.1c3.2,0,5.8-1,7.7-2.9c2.1-2,3.1-4.9,3.1-8.5L74.1-75.9
				 M72.4-73.6v0.8c-0.4,2.5-1.3,4.6-2.7,6.2c-1,1.1-2.6,2.3-4.9,3.6c0-1.4-0.1-2.4-0.2-3.2c-0.1-0.9-0.2-1.8-0.3-2.6
				c0.1,0.8,0.2,1.7,0.3,2.6c0.1,0.7,0.2,1.8,0.2,3.2c2.3-1.3,3.9-2.5,4.9-3.6c1.4-1.6,2.3-3.6,2.7-6.2V-73.6z"/>
		</g>
		<g>
			<path id="n_00000097482248287938317370000006139997459509183641_" class="st7" d="M55.3-63.5c1,2,2.4,3,4.2,3
				c1.8-0.1,3.1-0.1,4.1-0.1c3.2,0,5.8-1,7.7-2.9c2.1-2,3.1-4.9,3.1-8.5l-0.3-3.9c-0.1-0.2-0.3-0.3-0.4-0.5 M65.1-76.1
				C65.1-76.1,65.1-76.1,65.1-76.1c-0.3,0.5-0.9,0.9-1.7,1.2c-0.5,0.3-0.9,0.7-1.1,1.3c-0.3,0.8-0.4,1.8-0.4,2.9
				c-0.5,0.3-1.4,0.5-2.5,0.5c-1.3,0-2.4-0.2-3.3-0.7s-1.4-0.7-1.7-0.7c-0.4,0-0.7,0.4-0.7,1.2c0,0.5,0.2,1,0.7,1.4
				c0.4,0.4,1.1,0.7,2,1c0.5,0.1,1.8,0.4,3.8,0.7 M54.4-66.8c-0.3,1-0.1,2.1,0.7,3.2c0.1,0,0.1,0.1,0.2,0.2c0.8,0.4,1.7,0.7,2.8,0.8
				c1.6,0.1,2.4,0.2,2.6,0.2 M54.4-66.8c0.4,0.7,1.1,1.2,2.1,1.5c0.1,0,1.4,0.2,3.7,0.6 M54.4-69l-0.3,1.3c0.1,0.3,0.2,0.6,0.3,0.9"
				/>
		</g>
		<g>
			<path id="o_00000031905151310163240060000004091150188785294759_" class="st8" d="M72.4-73.6v0.8c-0.4,2.5-1.3,4.6-2.7,6.2
				c-1,1.1-2.6,2.3-4.9,3.6c0-1.4-0.1-2.4-0.2-3.2c-0.1-0.9-0.2-1.8-0.3-2.6"/>
		</g>
	</g>
	<g transform="rotate(-99.146 102.625 -16.906) scale(.11733 .15271)">
		<path id="i_00000120541299139755260080000009561709956522604982_" class="st9" d="M112.7,68.2l-3-18.8L93.3,52l3,18.8L112.7,68.2z
			"/>
	</g>
</g>
</svg>
