<svg xmlns="http://www.w3.org/2000/svg" viewBox="0 0 26.6 46.3" style="enable-background:new 0 0 26.6 46.3" xml:space="preserve"><path d="M24.4 1.2h-.6l-.1-.1h-.2c-.9 0-1.6.3-2.3.9-.9.8-1.8 1.7-2.7 2.5-.8.8-1.7 1.6-2.5 2.5-.9.9-1.8 1.7-2.7 2.5l-2.6 2.6c-.5 0-.8-.1-1.1-.1H7.3c-1.3-.1-2.3-.1-3.4 0-1 0-1.8.3-2.4 1-.4.5-.5 1-.5 1.6v2.2c-.1 5-.1 10 0 15 0 .1 0 .1.1.2.2.4.5.8.8 1.2.3.3.7.5 1.1.6.6.2 1.2.3 1.9.4h5.8c1.7 1.5 3.5 3.2 5.4 5.1l2.6 2.6 2.7 2.4c.2.2.4.4.7.5.7.4 1.3.5 1.9.4 1-.3 1.6-.8 1.8-1.6V1.8c-.3-.2-.5-.4-.8-.5-.3-.1-.5-.1-.6-.1z" style="fill:#999"/><path d="M24.4 1.2h-.6l-.1-.1h-.2c-.9 0-1.6.3-2.3.9-.9.8-1.8 1.7-2.7 2.5-.8.8-1.7 1.6-2.5 2.5-.9.9-1.8 1.7-2.7 2.5l-2.6 2.6c-.5 0-.8-.1-1.1-.1H7.3c-1.3-.1-2.3-.1-3.4 0-1 0-1.8.3-2.4 1-.4.5-.5 1-.5 1.6v2.2c-.1 5-.1 10 0 15 0 .1 0 .1.1.2.2.4.5.8.8 1.2.3.3.7.5 1.1.6.6.2 1.2.3 1.9.4h5.8c1.7 1.5 3.5 3.2 5.4 5.1l2.6 2.6 2.7 2.4c.2.2.4.4.7.5.7.4 1.3.5 1.9.4 1-.3 1.6-.8 1.8-1.6V1.8c-.3-.2-.5-.4-.8-.5-.3-.1-.5-.1-.6-.1z" style="fill:none;stroke:#333;stroke-width:2;stroke-linecap:round;stroke-linejoin:round"/></svg>