<svg version="1.1" id="Layer_1" xmlns="http://www.w3.org/2000/svg" x="0" y="0" viewBox="0 0 47.2 46.1" style="enable-background:new 0 0 47.2 46.1" xml:space="preserve"><style>.st0{fill:none;stroke:#333;stroke-width:2;stroke-linecap:round;stroke-linejoin:round}</style><path class="st0" d="M24.7 1.1h-.6L24 1h-.2c-.9 0-1.6.3-2.3.9-.9.8-1.8 1.7-2.7 2.5-.8.8-1.7 1.6-2.5 2.5-.9.9-1.8 1.7-2.7 2.5L11 12c-.5 0-.8-.1-1.1-.1H7.6c-1.3-.1-2.3-.1-3.4 0-1 0-1.8.3-2.4 1-.4.5-.5 1-.5 1.6v2.2c-.1 5-.1 10 0 15 0 .1 0 .1.1.2.2.4.5.8.8 1.2.3.3.7.5 1.1.6.6.2 1.2.3 1.9.4H11c1.7 1.5 3.5 3.2 5.4 5.1l2.6 2.6 2.7 2.4c.2.2.4.4.7.5.7.4 1.3.5 1.9.4 1-.3 1.6-.8 1.8-1.6V1.7c-.3-.2-.5-.4-.8-.5s-.5-.1-.6-.1z"/><path d="M24.5 1h-.9c-.9 0-1.6.3-2.3.9-.9.8-1.8 1.7-2.7 2.6-.8.6-1.7 1.4-2.5 2.3-.9.9-1.8 1.7-2.7 2.5-.9.9-1.7 1.7-2.6 2.5H7.2c-1.1-.1-2.1-.1-3.2 0-1 0-1.8.3-2.4 1-.4.5-.5 1-.5 1.6v2.3c-.1 5-.1 10 0 15 0 .1 0 .1.1.2.2.4.5.8.8 1.2.3.3.7.5 1.1.6.6.2 1.2.3 1.9.3h5.8c1.7 1.5 3.5 3.3 5.3 5.2l2.6 2.6c.9.8 1.8 1.7 2.7 2.5.2.2.4.3.7.4.7.4 1.3.5 1.9.3 1-.3 1.6-.8 1.8-1.6V1.6c-.3-.2-.5-.4-.8-.5-.2-.1-.4-.1-.5-.1z" style="fill:#999"/><path class="st0" d="M24.9 1.1c-.2 0-.3-.1-.4-.1h-.9c-.9 0-1.6.3-2.3.9-.9.8-1.8 1.7-2.7 2.6-.8.6-1.7 1.4-2.5 2.3-.9.9-1.8 1.7-2.7 2.5-.9.9-1.7 1.7-2.6 2.5H7.2c-1.1-.1-2.1-.1-3.2 0-1 0-1.8.3-2.4 1-.4.5-.5 1-.5 1.6v2.3c-.1 5-.1 10 0 15 0 .1 0 .1.1.2.2.4.5.8.8 1.2.3.3.7.5 1.1.6.6.2 1.2.3 1.9.3h5.8c1.7 1.5 3.5 3.3 5.3 5.2l2.6 2.6c.9.8 1.8 1.7 2.7 2.5.2.2.4.3.7.4.7.4 1.3.5 1.9.3 1-.3 1.6-.8 1.8-1.6V1.6c-.4-.2-.6-.4-.9-.5z"/><path style="fill:#999;stroke:#333;stroke-width:2;stroke-linecap:round;stroke-linejoin:round;stroke-miterlimit:10" d="m37.5 26.6-5.8 5.7-2.9-3 5.7-5.7-5.7-5.7 2.9-3 5.8 5.7 5.7-5.7 3 3-5.7 5.7 5.7 5.7-3 3z"/></svg>