<?xml version="1.0" encoding="utf-8"?>
<!-- Generator: Adobe Illustrator 26.0.1, SVG Export Plug-In . SVG Version: 6.00 Build 0)  -->
<svg version="1.1" id="Layer_1" xmlns="http://www.w3.org/2000/svg" xmlns:xlink="http://www.w3.org/1999/xlink" x="0px" y="0px"
	 viewBox="0 0 46.4 46.3" style="enable-background:new 0 0 46.4 46.3;" xml:space="preserve">
<style type="text/css">
	.st0{fill:#999999;}
	.st1{fill:none;stroke:#333333;stroke-width:2;stroke-linecap:round;stroke-linejoin:round;}
</style>
<g transform="matrix( 1, 0, 0, 1, 0,0) ">
	<g>
		<g id="Layer0_0_FILL">
			<path class="st0" d="M30.5,20.9c0.3,1,0.4,2,0.3,3c-0.2,1-0.4,2-0.8,3c-0.3,0.9-0.9,1.5-1.6,1.9l3.6,3.6c0.5-0.2,1-0.7,1.5-1.4
				c1.3-2,2-4.3,2.1-6.7c0-0.1,0-0.2,0-0.2c0.1-1.4-0.1-2.8-0.4-4.2c-0.1-0.6-0.3-1.1-0.5-1.7c-0.6-1.6-1.5-3-2.7-4.1l-3.6,3.6
				C29.3,18.5,30.1,19.6,30.5,20.9 M43.8,14.9c-0.7-1.6-1.4-3.2-2.1-4.8L39,7l-3.8,3.7c1.9,2.2,3.2,4.8,4,7.8c0.1,0.5,0.2,1,0.3,1.5
				c0.1,0.6,0.2,1.1,0.2,1.8c0,0,0,0.1,0,0.2c0.1,2-0.1,3.9-0.5,5.8c-0.6,2.5-1.7,4.8-3.3,6.8c-0.2,0.3-0.5,0.5-0.7,0.8l3.8,4
				c1.4-1.1,2.4-2.5,3.2-4.2c0.6-1.1,1.1-2.2,1.5-3.4c0.4-1.3,0.8-2.5,1-3.8c0.2-0.7,0.3-1.5,0.5-2.2c0.1-0.3,0.1-0.7,0.1-1.1
				c0-0.1,0-0.2,0-0.2c0.1-1.3,0.1-2.5-0.1-3.6c0-0.1,0-0.2,0-0.2C45,18.5,44.5,16.6,43.8,14.9 M24.4,1.2c-0.2,0-0.4,0-0.6,0
				c0,0-0.1,0-0.1,0c0,0-0.1,0-0.1,0s-0.1,0-0.1,0c-0.9,0-1.6,0.3-2.3,0.9c-0.9,0.8-1.8,1.7-2.7,2.6C17.7,5.3,16.8,6.1,16,7
				c-0.9,0.9-1.8,1.7-2.7,2.5c-0.9,0.9-1.7,1.7-2.6,2.5c-0.5,0-0.8,0-1.2,0c-0.2,0-0.4,0-0.7,0c-0.3,0-0.5,0-0.8,0
				c-0.3,0-0.7,0-0.9,0C6,11.9,5,11.9,3.9,12c-1,0-1.8,0.3-2.4,1c-0.4,0.5-0.5,1-0.5,1.6c0,0.7,0,1.5,0,2.3c-0.1,5-0.1,10,0,15
				c0,0.1,0,0.1,0.1,0.2c0.2,0.4,0.5,0.8,0.8,1.2c0.3,0.3,0.7,0.5,1.1,0.6c0.6,0.2,1.2,0.3,1.9,0.3c2,0,3.9,0,5.8,0
				c1.7,1.5,3.5,3.3,5.3,5.2c0.9,0.9,1.7,1.7,2.6,2.6c0.9,0.8,1.8,1.7,2.7,2.5c0.2,0.2,0.4,0.3,0.7,0.4c0.7,0.4,1.3,0.5,1.9,0.3
				c1-0.3,1.6-0.8,1.8-1.6V1.8c-0.3-0.2-0.5-0.4-0.8-0.5C24.7,1.2,24.5,1.2,24.4,1.2z"/>
		</g>
	</g>
	<g>
		<path id="Layer0_0_1_STROKES" class="st1" d="M24.8,1.3c-0.2,0-0.3-0.1-0.4-0.1c-0.2,0-0.4,0-0.6,0c0,0-0.1,0-0.1,0
			c0,0-0.1,0-0.1,0s-0.1,0-0.1,0c-0.9,0-1.6,0.3-2.3,0.9c-0.9,0.8-1.8,1.7-2.7,2.6C17.7,5.3,16.8,6.1,16,7c-0.9,0.9-1.8,1.7-2.7,2.5
			c-0.9,0.9-1.7,1.7-2.6,2.5c-0.5,0-0.8,0-1.2,0c-0.2,0-0.4,0-0.7,0c-0.3,0-0.5,0-0.8,0c-0.3,0-0.7,0-0.9,0C6,11.9,5,11.9,3.9,12
			c-1,0-1.8,0.3-2.4,1c-0.4,0.5-0.5,1-0.5,1.6c0,0.7,0,1.5,0,2.3c-0.1,5-0.1,10,0,15c0,0.1,0,0.1,0.1,0.2c0.2,0.4,0.5,0.8,0.8,1.2
			c0.3,0.3,0.7,0.5,1.1,0.6c0.6,0.2,1.2,0.3,1.9,0.3c2,0,3.9,0,5.8,0c1.7,1.5,3.5,3.3,5.3,5.2c0.9,0.9,1.7,1.7,2.6,2.6
			c0.9,0.8,1.8,1.7,2.7,2.5c0.2,0.2,0.4,0.3,0.7,0.4c0.7,0.4,1.3,0.5,1.9,0.3c1-0.3,1.6-0.8,1.8-1.6V1.8C25.3,1.6,25.1,1.4,24.8,1.3
			z M35.2,10.7c1.9,2.2,3.2,4.8,4,7.8c0.1,0.5,0.2,1,0.3,1.5c0.1,0.6,0.2,1.1,0.2,1.8c0,0,0,0.1,0,0.2c0.1,2-0.1,3.9-0.5,5.8
			c-0.6,2.5-1.7,4.8-3.3,6.8c-0.2,0.3-0.5,0.5-0.7,0.8l3.8,4c1.4-1.1,2.4-2.5,3.2-4.2c0.6-1.1,1.1-2.2,1.5-3.4
			c0.4-1.3,0.8-2.5,1-3.8c0.2-0.7,0.3-1.5,0.5-2.2c0.1-0.3,0.1-0.7,0.1-1.1c0-0.1,0-0.2,0-0.2c0.1-1.3,0.1-2.5-0.1-3.6
			c0-0.1,0-0.2,0-0.2c-0.2-2-0.7-3.9-1.4-5.7c-0.7-1.6-1.4-3.2-2.1-4.8L39,7L35.2,10.7z M34.7,18.2c-0.6-1.6-1.5-3-2.7-4.1l-3.6,3.6
			c1,0.9,1.7,2,2.1,3.3c0.3,1,0.4,2,0.3,3c-0.2,1-0.4,2-0.8,3c-0.3,0.9-0.9,1.5-1.6,1.9l3.6,3.6c0.5-0.2,1-0.7,1.5-1.4
			c1.3-2,2-4.3,2.1-6.7c0-0.1,0-0.2,0-0.2c0.1-1.4-0.1-2.8-0.4-4.2C35.1,19.3,34.9,18.7,34.7,18.2z"/>
	</g>
</g>
</svg>
