<?xml version="1.0" encoding="utf-8"?>
<!-- Generator: Adobe Illustrator 26.0.1, SVG Export Plug-In . SVG Version: 6.00 Build 0)  -->
<svg version="1.1" id="Layer_1" xmlns="http://www.w3.org/2000/svg" xmlns:xlink="http://www.w3.org/1999/xlink" x="0px" y="0px"
	 viewBox="0 0 26.6 46.3" style="enable-background:new 0 0 26.6 46.3;" xml:space="preserve">
<style type="text/css">
	.st0{fill:#999999;}
	.st1{fill:none;stroke:#333333;stroke-width:2;stroke-linecap:round;stroke-linejoin:round;}
</style>
<g transform="matrix( 1, 0, 0, 1, 0,0) ">
	<g>
		<g id="Layer0_0_FILL">
			<path class="st0" d="M24.4,1.2c-0.2,0-0.4,0-0.6,0c0,0-0.1-0.1-0.1-0.1c0,0-0.1,0-0.1,0c0,0-0.1,0-0.1,0c-0.9,0-1.6,0.3-2.3,0.9
				c-0.9,0.8-1.8,1.7-2.7,2.5C17.7,5.3,16.8,6.1,16,7c-0.9,0.9-1.8,1.7-2.7,2.5c-0.9,0.9-1.7,1.7-2.6,2.6c-0.5,0-0.8-0.1-1.1-0.1
				c-0.2,0-0.4,0-0.6,0c-0.3,0-0.5,0-0.8,0c-0.3,0-0.6,0-0.9,0C6,11.9,5,11.9,3.9,12c-1,0-1.8,0.3-2.4,1c-0.4,0.5-0.5,1-0.5,1.6
				c0,0.7,0,1.5,0,2.2c-0.1,5-0.1,10,0,15c0,0.1,0,0.1,0.1,0.2c0.2,0.4,0.5,0.8,0.8,1.2c0.3,0.3,0.7,0.5,1.1,0.6
				c0.6,0.2,1.2,0.3,1.9,0.4c2,0,3.9,0,5.8,0c1.7,1.5,3.5,3.2,5.4,5.1c0.9,0.9,1.7,1.7,2.6,2.6c0.9,0.8,1.8,1.6,2.7,2.4
				c0.2,0.2,0.4,0.4,0.7,0.5c0.7,0.4,1.3,0.5,1.9,0.4c1-0.3,1.6-0.8,1.8-1.6V1.8c-0.3-0.2-0.5-0.4-0.8-0.5
				C24.7,1.2,24.5,1.2,24.4,1.2z"/>
		</g>
	</g>
	<g>
		<path id="Layer0_0_1_STROKES" class="st1" d="M24.4,1.2c-0.2,0-0.4,0-0.6,0c0,0-0.1-0.1-0.1-0.1c0,0-0.1,0-0.1,0c0,0-0.1,0-0.1,0
			c-0.9,0-1.6,0.3-2.3,0.9c-0.9,0.8-1.8,1.7-2.7,2.5C17.7,5.3,16.8,6.1,16,7c-0.9,0.9-1.8,1.7-2.7,2.5c-0.9,0.9-1.7,1.7-2.6,2.6
			c-0.5,0-0.8-0.1-1.1-0.1c-0.2,0-0.4,0-0.6,0c-0.3,0-0.5,0-0.8,0c-0.3,0-0.6,0-0.9,0C6,11.9,5,11.9,3.9,12c-1,0-1.8,0.3-2.4,1
			c-0.4,0.5-0.5,1-0.5,1.6c0,0.7,0,1.5,0,2.2c-0.1,5-0.1,10,0,15c0,0.1,0,0.1,0.1,0.2c0.2,0.4,0.5,0.8,0.8,1.2
			c0.3,0.3,0.7,0.5,1.1,0.6c0.6,0.2,1.2,0.3,1.9,0.4c2,0,3.9,0,5.8,0c1.7,1.5,3.5,3.2,5.4,5.1c0.9,0.9,1.7,1.7,2.6,2.6
			c0.9,0.8,1.8,1.6,2.7,2.4c0.2,0.2,0.4,0.4,0.7,0.5c0.7,0.4,1.3,0.5,1.9,0.4c1-0.3,1.6-0.8,1.8-1.6V1.8c-0.3-0.2-0.5-0.4-0.8-0.5
			C24.7,1.2,24.5,1.2,24.4,1.2z"/>
	</g>
</g>
</svg>
