<svg xmlns="http://www.w3.org/2000/svg" viewBox="0 0 46.4 46.3" style="enable-background:new 0 0 46.4 46.3" xml:space="preserve"><path d="M30.5 20.9c.3 1 .4 2 .3 3-.2 1-.4 2-.8 3-.3.9-.9 1.5-1.6 1.9l3.6 3.6c.5-.2 1-.7 1.5-1.4 1.3-2 2-4.3 2.1-6.7v-.2c.1-1.4-.1-2.8-.4-4.2-.1-.6-.3-1.1-.5-1.7-.6-1.6-1.5-3-2.7-4.1l-3.6 3.6c.9.8 1.7 1.9 2.1 3.2m13.3-6-2.1-4.8L39 7l-3.8 3.7c1.9 2.2 3.2 4.8 4 7.8l.3 1.5c.1.6.2 1.1.2 1.8v.2c.1 2-.1 3.9-.5 5.8-.6 2.5-1.7 4.8-3.3 6.8-.2.3-.5.5-.7.8l3.8 4c1.4-1.1 2.4-2.5 3.2-4.2.6-1.1 1.1-2.2 1.5-3.4.4-1.3.8-2.5 1-3.8.2-.7.3-1.5.5-2.2.1-.3.1-.7.1-1.1v-.2c.1-1.3.1-2.5-.1-3.6v-.2c-.2-2.2-.7-4.1-1.4-5.8M24.4 1.2h-.9c-.9 0-1.6.3-2.3.9-.9.8-1.8 1.7-2.7 2.6-.8.6-1.7 1.4-2.5 2.3-.9.9-1.8 1.7-2.7 2.5-.9.9-1.7 1.7-2.6 2.5H7.1c-1.1-.1-2.1-.1-3.2 0-1 0-1.8.3-2.4 1-.4.5-.5 1-.5 1.6v2.3c-.1 5-.1 10 0 15 0 .1 0 .1.1.2.2.4.5.8.8 1.2.3.3.7.5 1.1.6.6.2 1.2.3 1.9.3h5.8c1.7 1.5 3.5 3.3 5.3 5.2l2.6 2.6c.9.8 1.8 1.7 2.7 2.5.2.2.4.3.7.4.7.4 1.3.5 1.9.3 1-.3 1.6-.8 1.8-1.6V1.8c-.3-.2-.5-.4-.8-.5-.2-.1-.4-.1-.5-.1z" style="fill:#999"/><path d="M24.8 1.3c-.2 0-.3-.1-.4-.1h-.9c-.9 0-1.6.3-2.3.9-.9.8-1.8 1.7-2.7 2.6-.8.6-1.7 1.4-2.5 2.3-.9.9-1.8 1.7-2.7 2.5-.9.9-1.7 1.7-2.6 2.5H7.1c-1.1-.1-2.1-.1-3.2 0-1 0-1.8.3-2.4 1-.4.5-.5 1-.5 1.6v2.3c-.1 5-.1 10 0 15 0 .1 0 .1.1.2.2.4.5.8.8 1.2.3.3.7.5 1.1.6.6.2 1.2.3 1.9.3h5.8c1.7 1.5 3.5 3.3 5.3 5.2l2.6 2.6c.9.8 1.8 1.7 2.7 2.5.2.2.4.3.7.4.7.4 1.3.5 1.9.3 1-.3 1.6-.8 1.8-1.6V1.8c-.4-.2-.6-.4-.9-.5zm10.4 9.4c1.9 2.2 3.2 4.8 4 7.8l.3 1.5c.1.6.2 1.1.2 1.8v.2c.1 2-.1 3.9-.5 5.8-.6 2.5-1.7 4.8-3.3 6.8-.2.3-.5.5-.7.8l3.8 4c1.4-1.1 2.4-2.5 3.2-4.2.6-1.1 1.1-2.2 1.5-3.4.4-1.3.8-2.5 1-3.8.2-.7.3-1.5.5-2.2.1-.3.1-.7.1-1.1v-.2c.1-1.3.1-2.5-.1-3.6v-.2c-.2-2-.7-3.9-1.4-5.7l-2.1-4.8L39 7l-3.8 3.7zm-.5 7.5c-.6-1.6-1.5-3-2.7-4.1l-3.6 3.6c1 .9 1.7 2 2.1 3.3.3 1 .4 2 .3 3-.2 1-.4 2-.8 3-.3.9-.9 1.5-1.6 1.9l3.6 3.6c.5-.2 1-.7 1.5-1.4 1.3-2 2-4.3 2.1-6.7v-.2c.1-1.4-.1-2.8-.4-4.2-.1-.7-.3-1.3-.5-1.8z" style="fill:none;stroke:#333;stroke-width:2;stroke-linecap:round;stroke-linejoin:round"/></svg>