<svg xmlns="http://www.w3.org/2000/svg" viewBox="0 0 91.5 86" xml:space="preserve"><path d="M69.5 86H22C9.9 86 0 76.1 0 64V22C0 9.9 9.9 0 22 0h47.5c12.1 0 22 9.9 22 22v42c0 12.1-9.9 22-22 22z" fill="#e90600"/><path d="M66.3 19.5H56v-1.9c0-3.1-2.5-5.6-5.6-5.6h-7.5c-3.1 0-5.6 2.5-5.6 5.6v1.9H26.9c-2.6 0-4.7 2.1-4.7 4.7V28c0 1 .8 1.9 1.9 1.9h45c1 0 1.9-.8 1.9-1.9v-3.8c0-2.6-2.1-4.7-4.7-4.7zM41 17.6c0-1 .8-1.9 1.9-1.9h7.5c1 0 1.9.8 1.9 1.9v1.9H41v-1.9zm-15.2 16c-.3 0-.6.3-.6.6l1.5 32.5c.1 3 2.6 5.4 5.6 5.4h28.5c3 0 5.5-2.4 5.6-5.4L68 34.2c0-.3-.3-.6-.6-.6H25.8zm28.3 4.6c0-1 .8-1.9 1.9-1.9s1.9.8 1.9 1.9v24.4c0 1-.8 1.9-1.9 1.9s-1.9-.8-1.9-1.9V38.2zm-9.3 0c0-1 .8-1.9 1.9-1.9s1.9.8 1.9 1.9v24.4c0 1-.8 1.9-1.9 1.9s-1.9-.8-1.9-1.9V38.2zm-9.4 0c0-1 .8-1.9 1.9-1.9s1.9.8 1.9 1.9v24.4c0 1-.8 1.9-1.9 1.9s-1.9-.8-1.9-1.9V38.2z" style="fill:#fff"/></svg>