<svg version="1.1" id="l1" xmlns="http://www.w3.org/2000/svg" x="0" y="0" viewBox="0 0 38.3 36.8" xml:space="preserve"><style>.st0{fill:none;stroke:#000;stroke-width:.43;stroke-linecap:round;stroke-linejoin:round;stroke-miterlimit:1.7199}</style><path id="_x36_" d="M9.8 5.6c.3-7.2 5.8-3.7 7.2 1.1 2.5 4.2 9.9 2.2 11.4 7.2-.1-1.7 1.1-1.5 2.8-1.5 10.3.7 9.2 28-3.7 18.9-3.4 5.3-20.2 9.1-19.7-.6-.4-3.4-5.1-2.5-3.7-6.5.3-1.9.3-2.4-1.2-3.6-5.8-6.9 4.5-7.6 10-7.2-.5-.3-3.3-7.3-3.1-7.8z"/><path id="_x35_" class="st0" d="M16.6 36.5c3.7-.2 9.1-2.1 11-5.1 12.9 9.1 14-18.2 3.7-18.9-1.8 0-3-.2-2.8 1.5-1.6-5.1-8.9-3-11.4-7.2C11.7-5.2 7 5.1 13 13.5c-8.5-.2-15.8.6-8.6 9.3-.2 2.1-1.1 4.7 1.8 5.4 4.6 4.2-2 8.6 10.4 8.3-.3 0-.6 0-.9.1"/><path id="_x34_" d="M26.3 20c-.1-2.3-.4-3.9.6-5.5C31.5 19.6 22 33 36.1 28c-1.5 5.3-5.8 4.4-9.8 2.1-3.3 5.3-20.1 9.1-19.6-.5 4.1 3.7 12.7 4.3 16.5.2.7-1.2 3.2-8.2 3.1-9.8M4 20.8c.2 1.1-.5 1.6-1 2.3.3-1.9.3-2.4-1.2-3.6 1.7.6 2.1.1 2.2 1.3M8.6 4.4c0-1.4.3-2.7 1.2-3.6-.3 3.5 1.7 9.8 4.8 11.5l-.1.1h-2.8l-.1-.1h.1c-.5-.4-3.3-7.4-3.1-7.9z" fill="#cbf2ff"/><path id="_x33_" d="M1.7 19.4c-5.5-6.8 4.6-7.6 10-7.2l.1.1h2.8l.1-.1c-3.1-1.7-5-7.9-4.8-11.5 2.7-2.4 5 2.5 6 4.8 2.5 4.2 9.9 2.2 11.4 7.2-.1-.8.2-1.3.9-1.4 8.4-1.8 10 10.6 8 16.7-14.1 5-4.7-8.4-9.2-13.5-1.1 1.6-.6 3.6-.6 5.9 0 1.3-2.4 8.5-3.1 9.4-3.8 4.1-12.3 3.5-16.5-.2 0-2-2.1-2.7-3.2-3.4-2.9-2.8 3.7-5.8-1.9-6.8m9.5.2c1.7-.5 3.7-.1 4.1-.9.4-1.3-7-.3-7.2.6.3 1.1 1.9.4 3.1.3M9.3 27c.5.8 3.1-.7 3.9-.9.6-.5 2.8-.2 3.1-1.3.4-2-8.4 1.3-7 2.2z" fill="#fff"/><path id="_x32_" d="M9.9 27.3c-4.1-1 9.4-5 5.8-1.8-1.9.2-4.1 1.4-5.8 1.8m1.5-7.8c-4.5 1.1-4-1.2.3-1.4 2.5-.5 4.5 0 3.2.9-.3.1-2.2.3-3.5.5z"/><path id="_x31_" class="st0" d="M11.7 12.3c-8.5-.3-15.7.6-8.6 9.2-.2 2.1-1.1 4.7 1.8 5.4 4.7 4.3-1.9 8.7 10.4 8.3 3.7-.2 9.1-2.1 11-5.1 12.9 9.1 14-18.2 3.7-18.9-1.8 0-3-.2-2.8 1.5-1.6-5.1-8.9-3-11.4-7.2-5.4-11.9-10.1-1.7-4.1 6.8zm2.7 23c.3 0 .6-.1.9-.1"/></svg>