<svg xmlns="http://www.w3.org/2000/svg" viewBox="0 0 62.8 49.8"><path d="M16 2.9c-2.8.5-4.5 2.8-4.9 7.1H5.9C2 10 0 12 0 16.1v17.6c0 4.1 2 6.1 5.9 6.1h5.2c.4 4.3 2.1 6.6 4.9 7.1l16.7 2.8c4.6.7 6.9-2.5 6.9-9.6V9.8c0-7.2-2.3-10.4-6.9-9.7L16 2.9z" fill="#fff"/><path d="M11.9 38.8c.4 3.9 1.9 6.1 4.5 6.5l15.2 2.5c4.2.7 6.4-2.2 6.4-8.8V11.2c0-6.6-2.1-9.6-6.4-8.9L16.4 4.9c-2.6.4-4.1 2.6-4.5 6.5H7.2c-3.6 0-5.4 1.9-5.4 5.6v16.1c0 3.8 1.8 5.7 5.4 5.7h4.7z"/><path d="M36.7 13.4c-.2-5.4-2.2-7.7-5.9-7.1l-14 2.2c-2.4.4-3.8 2.4-4.1 5.9H8.3c-3.3 0-4.9 1.6-5 4.9v13.2c.1 3.3 1.7 4.9 5 4.9h4.4c.4 3.5 1.7 5.5 4.1 5.9l14 2.2c3.7.6 5.7-1.7 5.9-7V13.4m8.3 4.4c-.3 0-.6.1-.9.2-.2.2-.4.4-.4.8 0 .3 0 .6.2.9.2.3.5.5.8.5 1.1.2 2.1.8 2.9 1.7 1 1.2 1.5 2.5 1.5 4.1 0 1.6-.5 3-1.5 4.2-.8.9-1.8 1.5-2.9 1.7-.3 0-.5.2-.7.5-.2.3-.2.6-.2 1 0 .3.2.6.4.8.3.2.6.3.9.2 1.6-.3 3-1 4.1-2.4 1.4-1.6 2.2-3.6 2.2-6s-.7-4.4-2.2-5.9c-1.3-1.2-2.7-2-4.2-2.3m12-4.2c-.1 0-.2-.1-.2-.1-2.5-2.9-5.5-4.6-8.9-5.1-.4-.1-.8 0-1 .2-.3.3-.5.6-.6 1.1v.1c-.1.4 0 .8.2 1.2.3.4.6.6 1 .7 2.8.5 5.2 1.9 7.2 4.1.1 0 .1.1.2.2 2.5 2.8 3.7 6.2 3.7 10.2 0 4.1-1.3 7.5-3.9 10.4-2 2.3-4.4 3.7-7.1 4.1-.4.1-.8.3-1 .7-.2.4-.3.8-.2 1.3 0 .4.2.8.5 1 .3.3.7.4 1.1.4 3.4-.5 6.3-2.2 8.9-5 0 0 .1 0 .1-.1 3.1-3.5 4.7-7.8 4.7-12.8-.2-5-1.7-9.2-4.7-12.6z" fill="#999"/><path d="M30.8 6.3c3.7-.6 5.7 1.7 5.9 7.1v-.8c0-5.9-1.9-8.6-5.9-8l-14 2.3c-2.4.4-3.8 2.3-4.1 5.8H8.3c-3.3 0-5 1.7-5 5.2v1.4c.1-3.3 1.7-4.9 5-4.9h4.4c.4-3.5 1.7-5.5 4.1-5.9l14-2.2z" fill="#c2c2c2"/><path d="M44.5 21.1c1 .2 1.8.6 2.5 1.5.9 1 1.3 2.1 1.3 3.5s-.4 2.7-1.3 3.7c-.7.7-1.5 1.2-2.5 1.4-.5.1-.9.3-1.2.8-.3.4-.5 1-.4 1.6.1.6.3 1 .7 1.4.4.3.9.5 1.4.4 1.7-.3 3.2-1.2 4.5-2.6 1.6-1.8 2.4-4 2.4-6.6 0-2.5-.8-4.7-2.4-6.5-1.3-1.5-2.8-2.4-4.5-2.6-.6-.1-1 0-1.5.4s-.6.8-.7 1.4c-.1.6 0 1.1.4 1.5.3.3.8.6 1.3.7m-.5-3c.3-.2.6-.3.9-.2 1.6.3 3 1.1 4.1 2.4 1.4 1.6 2.2 3.6 2.2 5.9s-.7 4.4-2.2 6c-1.2 1.3-2.6 2.1-4.1 2.4-.3 0-.6 0-.9-.2-.2-.2-.4-.5-.4-.8 0-.3 0-.7.2-1 .2-.3.4-.4.7-.5 1.1-.2 2.1-.8 2.9-1.7 1-1.2 1.5-2.6 1.5-4.2s-.5-3-1.5-4.1c-.8-.9-1.8-1.5-2.9-1.7-.3 0-.5-.2-.8-.5-.2-.3-.2-.6-.2-.9.2-.5.3-.8.5-.9m13.5-5.5s-.1-.1-.2-.1c-2.6-3-5.7-4.8-9.3-5.4-.7-.1-1.3 0-1.8.5-.6.5-.9 1.1-1 1.8-.1.7 0 1.4.4 2.2.4.6.9 1 1.6 1.1 2.5.4 4.7 1.6 6.5 3.7 0 .1.1.1.1.1 2.4 2.6 3.5 5.8 3.5 9.5 0 3.8-1.2 7-3.5 9.7-1.9 2.1-4.1 3.4-6.6 3.8-.7.1-1.3.5-1.7 1-.4.6-.6 1.3-.4 2.1.1.7.4 1.3.9 1.8.5.4 1.2.6 1.9.5 3.6-.6 6.7-2.4 9.4-5.4v-.1c3.3-3.7 5-8.2 5-13.5.2-5.1-1.5-9.6-4.8-13.3m-.7.8c0 .1.1.1.2.1 3 3.5 4.5 7.6 4.5 12.5 0 5-1.6 9.3-4.7 12.8 0 0-.1 0-.1.1-2.5 2.8-5.5 4.5-8.9 5-.4 0-.8-.1-1.1-.4-.3-.3-.5-.6-.5-1-.1-.5 0-.9.2-1.3s.6-.6 1-.7c2.7-.5 5.1-1.8 7.1-4.1 2.6-2.9 3.9-6.3 3.9-10.4 0-4-1.2-7.4-3.7-10.2 0-.1-.1-.1-.2-.2-2-2.3-4.4-3.7-7.2-4.1-.4-.1-.7-.3-1-.7-.2-.4-.3-.8-.2-1.2.1-.4.3-.8.6-1.1.3-.3.6-.4 1-.2 3.6.5 6.5 2.2 9.1 5.1m.3 26.5h.1-.1z"/><path d="M57.3 12.5c-2.6-3-5.7-4.8-9.3-5.4-.7-.1-1.3 0-1.8.5-.6.5-.9 1.1-1 1.8-.1.7 0 1.4.4 2.2.4.6.9 1 1.6 1.1h0c2.5.4 4.7 1.6 6.5 3.7 0 .1.1.1.1.1 2.4 2.6 3.5 5.8 3.5 9.5 0 3.8-1.2 7-3.5 9.7-1.9 2.1-4.1 3.4-6.6 3.8-.7.1-1.3.5-1.7 1-.4.6-.6 1.3-.4 2.1.1.7.4 1.3.9 1.8.5.4 1.2.6 1.9.5h0c3.6-.6 6.7-2.4 9.4-5.4v-.1c3.3-3.7 5-8.2 5-13.5 0-5.3-1.7-9.8-5-13.5.2.2.1.1 0 .1zm-12.8 8.6c.9.2 1.7.6 2.5 1.5.9 1 1.3 2.1 1.3 3.5s-.4 2.7-1.3 3.7c-.7.7-1.5 1.2-2.5 1.4-.5.1-.9.3-1.2.8-.3.4-.5 1-.4 1.6.1.6.3 1 .7 1.4.4.3.9.5 1.4.4h0c1.7-.3 3.2-1.2 4.5-2.6 1.6-1.8 2.4-4 2.4-6.6 0-2.5-.8-4.7-2.4-6.5-1.3-1.5-2.8-2.4-4.5-2.6-.6-.1-1 0-1.5.4s-.6.8-.7 1.4c-.1.6 0 1.1.4 1.5.3.3.8.6 1.3.7h0z" fill="none" stroke="#fff" stroke-width=".5" stroke-linecap="round" stroke-linejoin="round"/></svg>