<?xml version="1.0" encoding="utf-8"?>
<svg viewBox="0 0 500 500" width="2000" height="2000" xmlns="http://www.w3.org/2000/svg" xmlns:bx="https://boxy-svg.com">
  <defs>
    <linearGradient id="gradient-1" bx:pinned="true">
      <stop offset="0" style="stop-color: rgb(156, 229, 245);"/>
      <stop offset="1" style="stop-color: rgb(69, 116, 143);"/>
    </linearGradient>
  </defs>
  <path style="stroke: rgba(0, 0, 0, 0); fill: rgb(17, 63, 88);" d="M 143.143 326.048 C 143.143 326.048 121.46 330.722 123.278 327.865 C 125.096 325.008 133.665 322.023 130.549 322.542 C 127.433 323.061 116.526 325.918 119.512 324.1 C 122.498 322.282 134.184 318.777 129.64 318.387 C 125.096 317.997 122.499 317.608 127.043 315.79 C 131.587 313.972 139.767 312.934 133.016 312.285 C 126.265 311.636 121.2 314.622 126.134 311.376 C 131.068 308.13 134.833 307.351 132.367 306.052 C 129.901 304.753 127.043 305.403 127.952 303.845 C 128.861 302.287 129.25 302.287 131.328 300.469 C 133.406 298.651 131.717 297.223 130.419 296.444 C 129.121 295.665 127.952 296.444 131.198 294.627 C 134.444 292.81 132.367 289.563 130.289 289.433 C 128.211 289.303 126.134 290.602 129.25 286.836 C 132.366 283.07 138.858 273.722 135.223 275.8 C 131.588 277.878 130.679 278.656 132.886 274.891 C 135.093 271.126 138.599 261.518 137.171 263.076 C 135.743 264.634 133.925 265.413 134.833 263.595 C 135.741 261.777 137.95 252.559 139.638 256.194 C 141.326 259.829 142.234 264.244 144.442 265.802 C 146.65 267.36 146.779 270.347 144.182 268.529 C 141.585 266.711 145.091 271.515 146.129 272.424 C 147.167 273.333 148.337 277.877 146 276.709 C 143.663 275.541 143.922 277.618 146.389 280.085 C 148.856 282.552 153.271 287.745 149.895 286.447 C 146.519 285.149 144.052 282.032 147.038 285.668 C 150.024 289.304 154.05 292.679 152.881 292.679 C 151.712 292.679 150.934 292.549 148.856 291.51 C 146.778 290.471 150.934 295.276 152.621 297.353 C 154.308 299.43 157.166 302.806 153.271 301.898 C 149.376 300.99 149.375 299.69 151.972 302.417 C 154.569 305.144 155.997 306.312 157.685 308.39 C 159.373 310.468 161.97 314.362 157.296 313.973 C 152.622 313.584 149.895 311.116 152.621 313.843 C 155.347 316.57 155.867 317.608 157.685 318.906 C 159.503 320.204 160.282 320.594 161.97 321.244 C 163.658 321.894 165.476 322.023 165.476 323.191 C 165.476 324.359 165.216 326.307 162.619 325.528 C 160.022 324.749 159.243 324.619 158.334 324.36 C 157.425 324.101 158.464 323.581 155.867 324.23 C 153.27 324.879 153.271 325.269 150.025 325.398 C 146.779 325.527 142.884 326.437 143.143 326.048 Z"/>
  <path style="stroke: rgba(0, 0, 0, 0); fill: rgb(17, 63, 88);" d="M 417.832 260.35 C 417.832 260.35 393.995 255.676 395.993 258.533 C 397.992 261.39 407.412 264.375 403.987 263.856 C 400.561 263.337 388.571 260.48 391.853 262.298 C 395.136 264.116 407.983 267.621 402.987 268.011 C 397.992 268.401 395.137 268.79 400.132 270.608 C 405.128 272.426 414.12 273.464 406.699 274.113 C 399.277 274.762 393.709 271.776 399.133 275.022 C 404.557 278.268 408.696 279.047 405.985 280.346 C 403.274 281.645 400.132 280.995 401.132 282.553 C 402.131 284.111 402.558 284.111 404.843 285.929 C 407.127 287.747 405.271 289.175 403.844 289.954 C 402.417 290.733 401.132 289.954 404.7 291.771 C 408.268 293.588 405.985 296.835 403.701 296.965 C 401.416 297.095 399.133 295.796 402.558 299.562 C 405.984 303.328 413.121 312.676 409.125 310.598 C 405.129 308.52 404.129 307.742 406.556 311.507 C 408.982 315.272 412.836 324.88 411.266 323.322 C 409.696 321.764 407.698 320.985 408.696 322.803 C 409.694 324.621 412.123 333.839 413.978 330.204 C 415.834 326.569 416.832 322.154 419.26 320.596 C 421.687 319.038 421.829 316.051 418.974 317.869 C 416.119 319.687 419.973 314.883 421.114 313.974 C 422.255 313.065 423.541 308.521 420.972 309.689 C 418.403 310.857 418.688 308.78 421.4 306.313 C 424.112 303.846 428.966 298.653 425.254 299.951 C 421.543 301.249 418.831 304.366 422.113 300.73 C 425.396 297.094 429.822 293.719 428.537 293.719 C 427.252 293.719 426.396 293.849 424.112 294.888 C 421.828 295.927 426.396 291.122 428.251 289.045 C 430.106 286.968 433.247 283.592 428.966 284.5 C 424.684 285.408 424.683 286.708 427.538 283.981 C 430.392 281.254 431.962 280.086 433.818 278.008 C 435.674 275.93 438.529 272.036 433.39 272.425 C 428.252 272.814 425.254 275.282 428.251 272.555 C 431.248 269.828 431.819 268.79 433.818 267.492 C 435.817 266.194 436.673 265.804 438.529 265.154 C 440.384 264.504 442.383 264.375 442.383 263.207 C 442.383 262.039 442.097 260.091 439.242 260.87 C 436.387 261.649 435.531 261.779 434.531 262.038 C 433.532 262.297 434.674 262.817 431.819 262.168 C 428.964 261.519 428.966 261.129 425.397 261 C 421.829 260.871 417.547 259.961 417.832 260.35 Z" transform="matrix(-1, 0, 0, -1, 833.672943, 588.652863)"/>
  <path style="stroke: rgba(124, 218, 255, 0); fill: rgb(188, 215, 234);" d="M -17.499 325.36 C -17.499 325.36 31.972 313.749 77.911 317.788 C 123.85 321.827 198.561 332.932 239.956 332.427 C 281.351 331.922 349.501 322.331 371.208 323.845 C 392.915 325.359 436.834 335.961 466.113 330.408 C 495.392 324.855 522.652 318.292 522.652 318.292 L 524.167 511.636 L -7.908 514.161 L -17.499 325.36 Z"/>
  <ellipse style="stroke: rgba(0, 0, 0, 0); fill: rgb(213, 237, 250);" cx="287.351" cy="320.93" rx="15.596" ry="15.596"/>
  <ellipse style="stroke: rgba(0, 0, 0, 0); fill: rgb(213, 237, 250);" cx="287.791" cy="299.622" rx="11.423" ry="11.423"/>
  <path style="stroke: rgba(0, 0, 0, 0); fill: rgb(225, 149, 63);" d="M 276.537 300.654 C 276.537 300.654 287.582 297.064 287.858 300.516 C 288.134 303.968 276.399 300.654 276.537 300.654 Z"/>
  <ellipse style="stroke: rgba(0, 0, 0, 0.33);" cx="283.509" cy="315.771" rx="1.726" ry="1.726"/>
  <ellipse style="stroke: rgba(0, 0, 0, 0.32);" cx="282.267" cy="325.02" rx="2.002" ry="2.002"/>
  <ellipse style="stroke: rgba(0, 0, 0, 0.33);" cx="281.093" cy="296.374" rx="0.966" ry="0.966"/>
  <ellipse style="stroke: rgba(0, 0, 0, 0.33);" cx="291.723" cy="297.479" rx="1.242" ry="1.242"/>
  <path style="stroke: rgba(0, 0, 0, 0.32);" d="M 283.302 286.434 C 283.302 286.434 278.47 286.434 278.332 287.125 C 278.194 287.816 281.507 288.919 289.1 289.61 C 296.693 290.301 299.454 289.748 299.592 288.919 C 299.73 288.09 294.76 287.539 294.76 287.539 L 297.659 273.457 C 297.659 273.457 292.966 272.077 290.205 272.077 C 287.444 272.077 283.854 272.077 283.854 272.077 L 283.302 286.434 Z"/>
  <path style="fill: rgb(255, 0, 0); stroke: rgba(0, 0, 0, 0);" d="M 283.326 284.892 C 283.326 284.892 286.194 285.614 289.131 285.85 C 292.064 286.085 295.067 285.835 295.067 285.904 C 295.067 286.042 294.652 288.031 294.652 288.031 C 294.652 288.031 292.085 288.169 288.881 287.909 C 285.749 287.655 283.254 287.069 283.254 287.069 L 283.326 284.892 Z"/>
</svg>