<?xml version="1.0" encoding="utf-8"?>
<svg viewBox="0 0 500 500" width="2000" height="2000" xmlns="http://www.w3.org/2000/svg" xmlns:bx="https://boxy-svg.com">
  <defs>
    <linearGradient id="gradient-1" bx:pinned="true">
      <stop offset="0" style="stop-color: rgb(156, 229, 245);"/>
      <stop offset="1" style="stop-color: rgb(69, 116, 143);"/>
    </linearGradient>
  </defs>
  <path style="stroke: rgba(124, 218, 255, 0); fill: rgb(188, 215, 234);" d="M -17.499 325.36 C -17.499 325.36 31.972 313.749 77.911 317.788 C 123.85 321.827 198.561 332.932 239.956 332.427 C 281.351 331.922 349.501 322.331 371.208 323.845 C 392.915 325.359 433.108 334.896 462.387 329.343 C 491.666 323.79 520.522 317.227 520.522 317.227 L 524.167 511.636 L -7.908 514.161 L -17.499 325.36 Z"/>
  <ellipse style="stroke: rgba(0, 0, 0, 0); fill: rgb(213, 237, 250);" cx="287.351" cy="320.93" rx="15.596" ry="15.596"/>
  <ellipse style="stroke: rgba(0, 0, 0, 0); fill: rgb(213, 237, 250);" cx="287.791" cy="299.622" rx="11.423" ry="11.423"/>
  <path style="stroke: rgba(0, 0, 0, 0); fill: rgb(225, 149, 63);" d="M 276.537 300.654 C 276.537 300.654 287.582 297.064 287.858 300.516 C 288.134 303.968 276.399 300.654 276.537 300.654 Z"/>
  <ellipse style="stroke: rgba(0, 0, 0, 0.33);" cx="283.509" cy="315.771" rx="1.726" ry="1.726"/>
  <ellipse style="stroke: rgba(0, 0, 0, 0.32);" cx="282.267" cy="325.02" rx="2.002" ry="2.002"/>
  <ellipse style="stroke: rgba(0, 0, 0, 0.33);" cx="281.093" cy="296.374" rx="0.966" ry="0.966"/>
  <ellipse style="stroke: rgba(0, 0, 0, 0.33);" cx="291.723" cy="297.479" rx="1.242" ry="1.242"/>
  <path style="stroke: rgba(0, 0, 0, 0.32);" d="M 283.302 286.434 C 283.302 286.434 278.47 286.434 278.332 287.125 C 278.194 287.816 281.507 288.919 289.1 289.61 C 296.693 290.301 299.454 289.748 299.592 288.919 C 299.73 288.09 294.76 287.539 294.76 287.539 L 297.659 273.457 C 297.659 273.457 292.966 272.077 290.205 272.077 C 287.444 272.077 283.854 272.077 283.854 272.077 L 283.302 286.434 Z"/>
  <path style="fill: rgb(255, 0, 0); stroke: rgba(0, 0, 0, 0);" d="M 283.326 284.892 C 283.326 284.892 286.194 285.614 289.131 285.85 C 292.064 286.085 295.067 285.835 295.067 285.904 C 295.067 286.042 294.652 288.031 294.652 288.031 C 294.652 288.031 292.085 288.169 288.881 287.909 C 285.749 287.655 283.254 287.069 283.254 287.069 L 283.326 284.892 Z"/>
  <path style="stroke: rgba(0, 0, 0, 0); fill: rgb(17, 63, 88);" d="M 418.461 267.94 C 418.461 267.94 394.624 263.266 396.622 266.123 C 398.621 268.98 408.041 271.965 404.616 271.446 C 401.19 270.927 389.2 268.07 392.482 269.888 C 395.765 271.706 408.612 275.211 403.616 275.601 C 398.621 275.991 395.766 276.38 400.761 278.198 C 405.757 280.016 414.749 281.054 407.328 281.703 C 399.906 282.352 394.338 279.366 399.762 282.612 C 405.186 285.858 409.325 286.637 406.614 287.936 C 403.903 289.235 400.761 288.585 401.761 290.143 C 402.76 291.701 403.187 291.701 405.472 293.519 C 407.756 295.337 405.9 296.765 404.473 297.544 C 403.046 298.323 401.761 297.544 405.329 299.361 C 408.897 301.178 406.614 304.425 404.33 304.555 C 402.045 304.685 399.762 303.386 403.187 307.152 C 406.613 310.918 413.75 320.266 409.754 318.188 C 405.758 316.11 404.758 315.332 407.185 319.097 C 409.611 322.862 413.465 332.47 411.895 330.912 C 410.325 329.354 408.327 328.575 409.325 330.393 C 410.323 332.211 412.752 341.429 414.607 337.794 C 416.463 334.159 417.461 329.744 419.889 328.186 C 422.316 326.628 422.458 323.641 419.603 325.459 C 416.748 327.277 420.602 322.473 421.743 321.564 C 422.884 320.655 424.17 316.111 421.601 317.279 C 419.032 318.447 419.317 316.37 422.029 313.903 C 424.741 311.436 429.595 306.243 425.883 307.541 C 422.172 308.839 419.46 311.956 422.742 308.32 C 426.025 304.684 430.451 301.309 429.166 301.309 C 427.881 301.309 427.025 301.439 424.741 302.478 C 422.457 303.517 427.025 298.712 428.88 296.635 C 430.735 294.558 433.876 291.182 429.595 292.09 C 425.313 292.998 425.312 294.298 428.167 291.571 C 431.021 288.844 432.591 287.676 434.447 285.598 C 436.303 283.52 439.158 279.626 434.019 280.015 C 428.881 280.404 425.883 282.872 428.88 280.145 C 431.877 277.418 432.448 276.38 434.447 275.082 C 436.446 273.784 437.302 273.394 439.158 272.744 C 441.013 272.094 443.012 271.965 443.012 270.797 C 443.012 269.629 442.726 267.681 439.871 268.46 C 437.016 269.239 436.16 269.369 435.16 269.628 C 434.161 269.887 435.303 270.407 432.448 269.758 C 429.593 269.109 429.595 268.719 426.026 268.59 C 422.458 268.461 418.176 267.551 418.461 267.94 Z" transform="matrix(-1, 0, 0, -1, 834.930939, 603.832855)"/>
  <path style="stroke: rgba(0, 0, 0, 0); fill: rgb(17, 63, 88);" d="M 152.663 333.231 C 152.663 333.231 130.98 337.905 132.798 335.048 C 134.616 332.191 143.185 329.206 140.069 329.725 C 136.953 330.244 126.046 333.101 129.032 331.283 C 132.018 329.465 143.704 325.96 139.16 325.57 C 134.616 325.18 132.019 324.791 136.563 322.973 C 141.107 321.155 149.287 320.117 142.536 319.468 C 135.785 318.819 130.72 321.805 135.654 318.559 C 140.588 315.313 144.353 314.534 141.887 313.235 C 139.421 311.936 136.563 312.586 137.472 311.028 C 138.381 309.47 138.77 309.47 140.848 307.652 C 142.926 305.834 141.237 304.406 139.939 303.627 C 138.641 302.848 137.472 303.627 140.718 301.81 C 143.964 299.993 141.887 296.746 139.809 296.616 C 137.731 296.486 135.654 297.785 138.77 294.019 C 141.886 290.253 148.378 280.905 144.743 282.983 C 141.108 285.061 140.199 285.839 142.406 282.074 C 144.613 278.309 148.119 268.701 146.691 270.259 C 145.263 271.817 143.445 272.596 144.353 270.778 C 145.261 268.96 147.47 259.742 149.158 263.377 C 150.846 267.012 151.754 271.427 153.962 272.985 C 156.17 274.543 156.299 277.53 153.702 275.712 C 151.105 273.894 154.611 278.698 155.649 279.607 C 156.687 280.516 157.857 285.06 155.52 283.892 C 153.183 282.724 153.442 284.801 155.909 287.268 C 158.376 289.735 162.791 294.928 159.415 293.63 C 156.039 292.332 153.572 289.215 156.558 292.851 C 159.544 296.487 163.57 299.862 162.401 299.862 C 161.232 299.862 160.454 299.732 158.376 298.693 C 156.298 297.654 160.454 302.459 162.141 304.536 C 163.828 306.613 166.686 309.989 162.791 309.081 C 158.896 308.173 158.895 306.873 161.492 309.6 C 164.089 312.327 165.517 313.495 167.205 315.573 C 168.893 317.651 171.49 321.545 166.816 321.156 C 162.142 320.767 159.415 318.299 162.141 321.026 C 164.867 323.753 165.387 324.791 167.205 326.089 C 169.023 327.387 169.802 327.777 171.49 328.427 C 173.178 329.077 174.996 329.206 174.996 330.374 C 174.996 331.542 174.736 333.49 172.139 332.711 C 169.542 331.932 168.763 331.802 167.854 331.543 C 166.945 331.284 167.984 330.764 165.387 331.413 C 162.79 332.062 162.791 332.452 159.545 332.581 C 156.299 332.71 152.404 333.62 152.663 333.231 Z"/>
</svg>