<?xml version="1.0" encoding="utf-8"?>
<svg viewBox="0 0 500 500" width="2000" height="2000" xmlns="http://www.w3.org/2000/svg">
  <path style="stroke: rgba(0, 0, 0, 0); fill: rgb(223, 85, 0);" d="M -12.948 295.403 C -10.349 292.804 3.227 294.486 10.244 284.418 C 17.261 274.35 17.567 269.771 21.839 262.448 C 26.111 255.125 27.331 247.19 32.214 242.308 C 37.097 237.426 51.133 222.779 53.574 217.286 C 56.015 211.793 56.625 202.639 62.118 193.485 C 67.611 184.331 64.559 171.514 79.206 159.309 C 93.853 147.104 103.007 136.118 104.838 128.794 C 106.669 121.47 99.956 112.927 112.772 106.213 C 125.588 99.499 134.132 95.838 141.456 94.618 C 148.78 93.398 164.037 98.89 164.647 112.927 C 165.257 126.964 170.139 151.985 176.242 165.412 C 182.345 178.839 183.566 184.941 188.448 192.264 C 193.33 199.587 204.316 240.477 204.316 245.36 C 204.316 250.243 210.419 264.279 214.691 268.551 C 218.963 272.823 254.97 270.992 254.97 270.992 C 254.97 270.992 282.433 262.448 282.433 261.837 C 282.433 261.226 290.977 239.257 297.08 222.779 C 303.183 206.301 314.778 158.698 322.712 155.037 C 330.646 151.376 339.19 142.831 348.344 138.559 C 357.498 134.287 362.991 112.927 367.874 108.654 C 372.757 104.381 394.726 92.177 399.609 92.787 C 404.492 93.397 420.969 97.669 421.579 97.669 C 422.189 97.669 439.278 100.721 441.719 111.096 C 444.16 121.471 441.719 160.529 447.822 174.566 C 453.925 188.603 468.571 205.08 468.571 216.676 C 468.571 228.272 467.962 260.007 475.895 270.382 C 483.828 280.757 494.205 292.352 502.138 295.404 C 510.071 298.456 508.24 361.925 508.24 361.925 C 508.24 361.925 506.409 511.446 505.799 510.836 C 505.189 510.226 -8.676 502.902 -8.676 502.902 L -12.948 295.403 Z"/>
  <path style="fill: rgb(188, 72, 0); stroke: rgba(0, 0, 0, 0);" d="M 349.996 512.833 C 349.996 512.833 381.849 330.868 384.707 307.293 C 387.565 283.718 387.922 266.928 397.924 250.497 C 407.926 234.066 404.353 142.62 410.069 131.546 C 415.785 120.472 419.713 98.326 419.713 98.326 C 419.713 98.326 417.57 162.981 427.215 173.697 C 436.86 184.413 443.646 139.405 443.646 139.405 C 443.646 139.405 445.075 170.125 449.362 176.912 C 453.649 183.699 465.436 201.202 468.651 211.204 C 471.866 221.206 467.936 252.997 474.366 264.07 C 480.796 275.143 479.724 276.573 490.798 285.86 C 501.872 295.147 506.158 295.862 508.658 301.934 C 511.158 308.006 509.952 513.447 509.952 513.447 L 349.996 512.833 Z"/>
</svg>