<?xml version="1.0" encoding="utf-8"?>
<svg viewBox="0 0 500 500" width="2000" height="2000" xmlns="http://www.w3.org/2000/svg">
  <path style="stroke: rgba(0, 0, 0, 0); fill: rgb(176, 53, 0);" d="M 122.537 319.205 C 122.537 319.205 122.537 288.08 118.875 285.639 C 115.213 283.198 99.346 285.028 96.294 281.367 C 93.242 277.706 89.581 247.801 93.243 245.36 C 96.905 242.919 97.235 273.89 100.551 276.696 C 103.867 279.502 117.387 280.905 118.407 279.375 C 119.427 277.845 114.071 235.372 118.79 232.693 C 123.509 230.014 124.657 236.264 125.55 241.749 C 126.443 247.234 126.06 288.175 128.483 290.216 C 130.906 292.257 133.84 293.277 134.478 289.578 C 135.116 285.879 133.713 266.238 136.519 265.345 C 139.325 264.452 139.835 268.151 140.473 274.528 C 141.111 280.905 141.876 291.492 138.304 294.68 C 134.732 297.868 131.799 296.593 130.014 298.889 C 128.229 301.185 131.417 320.062 129.504 321.465 C 127.591 322.868 122.744 319.679 122.537 319.205 Z"/>
  <path style="stroke: rgba(0, 0, 0, 0); fill: rgb(176, 53, 0);" d="M -4.249 324.387 C -4.249 324.387 28.669 314.742 65.775 310.738 C 91.681 307.942 115.745 314.354 131.803 318.87 C 170.862 329.855 253.861 379.899 307.566 378.068 C 361.271 376.237 403.414 341.862 435.309 333.218 C 460.748 326.324 501.919 322.486 501.919 322.486 L 520.558 517.215 C 520.558 517.215 -13.446 507.45 -13.446 508.06 C -13.446 508.67 -4.249 324.387 -4.249 324.387 Z"/>
  <path style="fill: rgb(176, 53, 0); stroke: rgba(0, 0, 0, 0);" d="M 343.255 374.828 C 343.255 374.828 294.727 373.579 295.195 371.395 C 295.663 369.211 327.339 371.863 327.339 371.707 C 327.339 371.551 302.841 363.281 304.089 362.032 C 305.337 360.783 334.204 370.303 334.204 370.303 C 334.204 370.303 307.834 348.925 309.394 347.521 C 310.954 346.117 335.765 368.898 335.765 368.898 C 335.765 368.898 324.062 329.732 327.495 328.952 C 330.928 328.172 339.666 367.806 339.666 367.806 C 339.666 367.806 338.73 334.414 343.255 333.477 C 347.78 332.54 344.503 369.21 344.503 369.21 C 344.503 369.21 364.788 341.279 368.845 341.123 C 372.902 340.967 349.028 369.834 349.028 369.834 C 349.028 369.834 373.682 349.549 377.895 351.266 C 382.108 352.983 342.943 374.984 343.255 374.828 Z"/>
</svg>