<?xml version="1.0" encoding="utf-8"?>
<svg viewBox="0 0 500 500" xmlns="http://www.w3.org/2000/svg" xmlns:xlink="http://www.w3.org/1999/xlink" xmlns:bx="https://boxy-svg.com">
  <defs>
    <linearGradient id="gradient-1" bx:pinned="true">
      <stop offset="0" style="stop-color: rgb(255, 183, 0);"/>
      <stop offset="1" style="stop-color: rgb(255, 115, 1);"/>
    </linearGradient>
    <radialGradient gradientUnits="userSpaceOnUse" cx="232.39" cy="193.023" r="253.27" id="gradient-1-1" gradientTransform="matrix(1.606871, -0.030534, 0.018999, 0.99982, -144.401168, 7.11131)" xlink:href="#gradient-1"/>
  </defs>
  <rect x="-3.183" y="-4.86" width="506.541" height="505.931" style="stroke: rgba(0, 0, 0, 0); fill: url(#gradient-1-1);"/>
  <path style="stroke: rgba(0, 0, 0, 0); fill: rgb(223, 85, 0);" d="M -12.948 295.403 C -10.349 292.804 3.227 294.486 10.244 284.418 C 17.261 274.35 17.567 269.771 21.839 262.448 C 26.111 255.125 27.331 247.19 32.214 242.308 C 37.097 237.426 51.133 222.779 53.574 217.286 C 56.015 211.793 56.625 202.639 62.118 193.485 C 67.611 184.331 64.559 171.514 79.206 159.309 C 93.853 147.104 103.007 136.118 104.838 128.794 C 106.669 121.47 99.956 112.927 112.772 106.213 C 125.588 99.499 134.132 95.838 141.456 94.618 C 148.78 93.398 164.037 98.89 164.647 112.927 C 165.257 126.964 170.139 151.985 176.242 165.412 C 182.345 178.839 183.566 184.941 188.448 192.264 C 193.33 199.587 204.316 240.477 204.316 245.36 C 204.316 250.243 210.419 264.279 214.691 268.551 C 218.963 272.823 254.97 270.992 254.97 270.992 C 254.97 270.992 282.433 262.448 282.433 261.837 C 282.433 261.226 290.977 239.257 297.08 222.779 C 303.183 206.301 314.778 158.698 322.712 155.037 C 330.646 151.376 339.19 142.831 348.344 138.559 C 357.498 134.287 362.991 112.927 367.874 108.654 C 372.757 104.381 394.726 92.177 399.609 92.787 C 404.492 93.397 420.969 97.669 421.579 97.669 C 422.189 97.669 439.278 100.721 441.719 111.096 C 444.16 121.471 441.719 160.529 447.822 174.566 C 453.925 188.603 468.571 205.08 468.571 216.676 C 468.571 228.272 467.962 260.007 475.895 270.382 C 483.828 280.757 494.205 292.352 502.138 295.404 C 510.071 298.456 508.24 361.925 508.24 361.925 C 508.24 361.925 506.409 511.446 505.799 510.836 C 505.189 510.226 -8.676 502.902 -8.676 502.902 L -12.948 295.403 Z"/>
  <ellipse style="stroke: rgba(0, 0, 0, 0); fill: rgb(255, 247, 153);" cx="233.304" cy="194.4" rx="35.092" ry="35.092"/>
  <path style="stroke: rgba(0, 0, 0, 0); fill: rgb(176, 53, 0);" d="M 122.537 319.205 C 122.537 319.205 122.537 288.08 118.875 285.639 C 115.213 283.198 99.346 285.028 96.294 281.367 C 93.242 277.706 89.581 247.801 93.243 245.36 C 96.905 242.919 97.235 273.89 100.551 276.696 C 103.867 279.502 117.387 280.905 118.407 279.375 C 119.427 277.845 114.071 235.372 118.79 232.693 C 123.509 230.014 124.657 236.264 125.55 241.749 C 126.443 247.234 126.06 288.175 128.483 290.216 C 130.906 292.257 133.84 293.277 134.478 289.578 C 135.116 285.879 133.713 266.238 136.519 265.345 C 139.325 264.452 139.835 268.151 140.473 274.528 C 141.111 280.905 141.876 291.492 138.304 294.68 C 134.732 297.868 131.799 296.593 130.014 298.889 C 128.229 301.185 131.417 320.062 129.504 321.465 C 127.591 322.868 122.744 319.679 122.537 319.205 Z"/>
  <path style="fill: rgb(188, 72, 0); stroke: rgba(0, 0, 0, 0);" d="M 368.633 364.803 C 368.633 364.803 381.849 330.868 384.707 307.293 C 387.565 283.718 387.922 266.928 397.924 250.497 C 407.926 234.066 404.353 142.62 410.069 131.546 C 415.785 120.472 419.713 98.326 419.713 98.326 C 419.713 98.326 417.57 162.981 427.215 173.697 C 436.86 184.413 443.646 139.405 443.646 139.405 C 443.646 139.405 445.075 170.125 449.362 176.912 C 453.649 183.699 465.436 201.202 468.651 211.204 C 471.866 221.206 467.936 252.997 474.366 264.07 C 480.796 275.143 479.724 276.573 490.798 285.86 C 501.872 295.147 506.158 295.862 508.658 301.934 C 511.158 308.006 516.874 349.443 516.874 349.443 L 368.633 364.803 Z"/>
  <path style="stroke: rgba(0, 0, 0, 0); fill: rgb(176, 53, 0);" d="M -15.277 308.495 C -15.277 308.495 92.744 307.885 131.803 318.87 C 170.862 329.855 253.861 379.899 307.566 378.068 C 361.271 376.237 407.654 335.348 449.154 335.348 C 490.654 335.348 519.337 339.01 519.337 339.01 L 520.558 517.215 C 520.558 517.215 -13.446 507.45 -13.446 508.06 C -13.446 508.67 -15.277 308.495 -15.277 308.495 Z"/>
  <path style="fill: rgb(176, 53, 0); stroke: rgba(0, 0, 0, 0);" d="M 343.255 374.828 C 343.255 374.828 294.727 373.579 295.195 371.395 C 295.663 369.211 327.339 371.863 327.339 371.707 C 327.339 371.551 302.841 363.281 304.089 362.032 C 305.337 360.783 334.204 370.303 334.204 370.303 C 334.204 370.303 307.834 348.925 309.394 347.521 C 310.954 346.117 335.765 368.898 335.765 368.898 C 335.765 368.898 324.062 329.732 327.495 328.952 C 330.928 328.172 339.666 367.806 339.666 367.806 C 339.666 367.806 338.73 334.414 343.255 333.477 C 347.78 332.54 344.503 369.21 344.503 369.21 C 344.503 369.21 364.788 341.279 368.845 341.123 C 372.902 340.967 349.028 369.834 349.028 369.834 C 349.028 369.834 373.682 349.549 377.895 351.266 C 382.108 352.983 342.943 374.984 343.255 374.828 Z"/>
</svg>