<?xml version="1.0" encoding="utf-8"?>
<svg viewBox="0 0 500 500" width="2000" height="2000" xmlns="http://www.w3.org/2000/svg" xmlns:bx="https://boxy-svg.com">
  <defs>
    <pattern id="pattern-1" viewBox="0 0 55.5243 71.846" patternUnits="userSpaceOnUse" preserveAspectRatio="none" width="100" height="100" bx:pinned="true">
      <path style="fill: rgb(216, 216, 216); stroke: rgb(0, 0, 0);" d="M 209.066 168.002 C 209.066 168.002 221.138 170.728 221.332 177.154 C 221.526 183.58 212.571 184.942 212.571 184.942 L 212.571 212.005 C 212.571 212.005 222.501 211.616 229.121 208.111 C 235.741 204.606 238.466 202.27 238.466 202.27 C 238.702 202.506 237.317 209.687 230.289 212.979 C 223.261 216.271 212.376 218.236 212.376 218.236 L 212.376 227.581 L 219.969 227.971 L 219.775 233.228 L 212.181 233.228 L 211.987 239.848 L 206.34 239.653 L 206.34 232.838 L 198.942 232.644 L 199.136 227.776 L 206.34 227.971 L 206.73 217.846 C 206.73 217.846 197.968 216.678 190.18 212.2 C 182.392 207.722 182.976 203.244 182.976 203.244 C 182.976 203.244 186.87 206.163 193.1 208.305 C 199.33 210.447 206.534 212.199 206.534 212.199 L 206.729 184.747 C 206.729 184.747 196.995 184.357 197.384 177.153 C 197.773 169.949 209.066 168.003 209.066 168.002 Z" transform="matrix(1, 0, 0, 1, -182.966064453125, -168.0019989013672)"/>
    </pattern>
    <pattern id="pattern-0" viewBox="0 0 54.362 54.606" patternUnits="userSpaceOnUse" preserveAspectRatio="none" width="100" height="100" bx:pinned="true">
      <rect x="-129.743" y="265.201" width="54.362" height="54.606" style="stroke: rgba(74, 172, 68, 0); fill: rgb(66, 164, 55);" transform="matrix(1, 0, 0, 1, 129.74299621582028, -265.20098876953125)"/>
      <path style="stroke: rgb(24, 153, 56); fill: rgb(54, 137, 47);" d="M -118.896 284.339 L -121.09 279.098 C -121.09 279.098 -117.799 281.535 -117.799 281.413 C -117.799 281.291 -112.314 275.928 -112.314 276.05 C -112.314 276.172 -118.652 284.095 -118.896 284.339 Z" transform="matrix(1, 0, 0, 1, 129.74299621582028, -265.20098876953125)"/>
      <path style="stroke: rgb(24, 153, 56); fill: rgb(54, 137, 47);" d="M -91.958 310.665 L -97.687 302.864 C -97.687 302.864 -93.543 306.155 -93.543 306.033 C -93.543 305.911 -93.665 300.183 -93.665 300.183 L -90.861 306.277 L -85.255 303.352 L -91.958 310.665 Z" transform="matrix(1, 0, 0, 1, 129.74299621582028, -265.20098876953125)"/>
    </pattern>
  </defs>
  <path style="stroke: rgba(0, 0, 0, 0); fill: rgb(159, 189, 200);" d="M -5.543 238.201 L 33.744 176.102 L 48.318 202.716 L 74.298 158.36 L 97.109 221.092 L 104.08 203.983 L 120.555 239.468 L 135.762 207.151 L 147.168 235.032 L 162.376 194.478 L 173.781 228.696 L 199.761 163.429 L 208.632 185.607 L 233.979 132.38 L 265.661 228.696 C 265.661 228.696 280.235 208.419 280.235 207.785 C 280.235 207.151 295.443 231.864 295.443 231.864 L 322.69 183.073 L 348.036 242.002 L 366.412 206.518 L 381.62 227.428 L 411.402 160.895 L 436.114 226.161 L 446.253 206.518 L 462.728 238.834 L 483.638 207.151 L 505.182 246.438 L 505.816 539.306 L -8.032 535.32 L -5.543 238.201 Z"/>
  <path style="stroke: rgba(0, 0, 0, 0); fill: rgb(255, 255, 255);" d="M 25.896 188.695 C 25.896 188.695 33.373 175.575 33.514 175.857 C 33.655 176.139 40.003 187.425 40.003 187.425 C 40.003 187.425 36.335 185.874 36.335 186.297 C 36.335 186.72 33.373 188.695 33.373 188.695 L 30.692 187.143 L 25.896 188.695 Z"/>
  <path style="stroke: rgba(0, 0, 0, 0); fill: rgb(255, 255, 255);" d="M 65.961 172.613 C 65.961 172.613 73.72 157.517 74.144 158.223 C 74.568 158.929 79.928 173.882 79.928 173.741 C 79.928 173.6 76.401 170.637 76.401 170.637 L 73.438 172.471 L 70.899 170.92 L 65.961 172.613 Z"/>
  <path style="stroke: rgba(0, 0, 0, 0); fill: rgb(255, 255, 255);" d="M 98.832 216.487 C 98.832 216.487 103.769 203.649 103.911 203.649 C 104.053 203.649 111.105 218.462 111.105 218.462 L 105.462 215.358 L 98.832 216.487 Z"/>
  <path style="stroke: rgba(0, 0, 0, 0); fill: rgb(255, 255, 255);" d="M 128.599 222.553 L 128.881 221.848 L 135.794 207.176 L 140.872 218.462 L 137.628 217.192 L 135.653 218.744 C 135.653 218.744 134.242 218.18 134.101 218.18"/>
  <path style="stroke: rgba(0, 0, 0, 0); fill: rgb(255, 255, 255);" d="M 156.482 209.524 L 162.154 194.042 L 167.059 207.225 L 164.147 205.845 L 161.541 207.072 L 159.548 206.459 L 156.482 209.524 Z"/>
  <path style="stroke: rgba(0, 0, 0, 0); fill: rgb(255, 255, 255);" d="M 193.272 179.48 C 193.272 179.48 199.71 163.078 199.863 163.231 C 200.016 163.384 205.075 176.567 205.075 176.567 C 205.075 176.567 202.163 173.961 202.009 173.961 C 201.855 173.961 200.63 175.494 200.63 175.494 L 198.637 174.421 C 198.637 174.421 193.885 179.48 193.272 179.48 Z"/>
  <path style="stroke: rgba(0, 0, 0, 0); fill: rgb(255, 255, 255);" d="M 225.309 149.435 L 234.047 132.42 L 239.718 149.128 L 235.733 147.595 C 235.733 147.595 233.28 148.668 233.127 148.668 C 232.974 148.668 229.295 147.442 229.295 147.442 L 225.309 149.435 Z"/>
  <path style="stroke: rgba(0, 0, 0, 0); fill: rgb(255, 255, 255);" d="M 313.629 199.048 L 322.367 181.862 L 329.573 198.399 L 324.053 197.037 C 324.053 197.037 321.6 198.11 321.447 198.11 C 321.294 198.11 317.615 196.884 317.615 196.884 L 313.629 199.048 Z"/>
  <path style="stroke: rgba(0, 0, 0, 0); fill: rgb(255, 255, 255);" d="M 359.444 219.831 C 359.444 219.831 366.42 205.941 366.573 206.094 C 366.726 206.247 374.566 217.366 374.566 217.366 C 374.566 217.366 370.667 214.671 370.513 214.671 C 370.359 214.671 367.34 218.357 367.34 218.357 L 364.719 215.938 C 364.719 215.938 360.057 219.831 359.444 219.831 Z"/>
  <path style="fill: rgb(255, 255, 255); stroke: rgba(0, 0, 0, 0);" d="M 272.641 218.464 L 280.467 207.843 L 287.095 218.224 L 283.821 217.106 L 281.185 218.624 C 281.185 218.624 277.751 217.186 277.672 217.186 C 277.593 217.186 272.641 218.464 272.641 218.464 Z"/>
  <path style="fill: rgb(255, 255, 255); stroke: rgba(0, 0, 0, 0);" d="M 402.964 179.683 L 411.479 160.836 L 418.818 180.344 L 415.342 177.704 L 412.702 179.571 L 409.225 178.284 L 402.964 179.683 Z"/>
  <path style="fill: rgb(255, 255, 255); stroke: rgba(0, 0, 0, 0);" d="M 440.63 217.232 L 446.38 206.354 L 452.233 218.217 L 448.555 217.336 L 445.81 218.424 C 445.81 218.424 444.049 217.284 443.997 217.232 C 443.945 217.18 440.682 217.44 440.63 217.232 Z"/>
  <path style="fill: rgb(255, 255, 255); stroke: rgba(0, 0, 0, 0);" d="M 476.191 218.379 L 483.737 206.995 L 489.959 218.379 L 487.046 217.386 L 484.663 218.644 C 484.663 218.644 481.089 216.724 481.023 216.724 C 480.957 216.724 475.993 218.313 476.191 218.379 Z"/>
</svg>