<?xml version="1.0" encoding="utf-8"?>
<svg viewBox="0 0 500 500" xmlns="http://www.w3.org/2000/svg" xmlns:bx="https://boxy-svg.com">
  <defs>
    <pattern id="pattern-1" viewBox="0 0 55.5243 71.846" patternUnits="userSpaceOnUse" preserveAspectRatio="none" width="100" height="100" bx:pinned="true">
      <path style="fill: rgb(216, 216, 216); stroke: rgb(0, 0, 0);" d="M 209.066 168.002 C 209.066 168.002 221.138 170.728 221.332 177.154 C 221.526 183.58 212.571 184.942 212.571 184.942 L 212.571 212.005 C 212.571 212.005 222.501 211.616 229.121 208.111 C 235.741 204.606 238.466 202.27 238.466 202.27 C 238.702 202.506 237.317 209.687 230.289 212.979 C 223.261 216.271 212.376 218.236 212.376 218.236 L 212.376 227.581 L 219.969 227.971 L 219.775 233.228 L 212.181 233.228 L 211.987 239.848 L 206.34 239.653 L 206.34 232.838 L 198.942 232.644 L 199.136 227.776 L 206.34 227.971 L 206.73 217.846 C 206.73 217.846 197.968 216.678 190.18 212.2 C 182.392 207.722 182.976 203.244 182.976 203.244 C 182.976 203.244 186.87 206.163 193.1 208.305 C 199.33 210.447 206.534 212.199 206.534 212.199 L 206.729 184.747 C 206.729 184.747 196.995 184.357 197.384 177.153 C 197.773 169.949 209.066 168.003 209.066 168.002 Z" transform="matrix(1, 0, 0, 1, -182.966064453125, -168.0019989013672)"/>
    </pattern>
    <pattern id="pattern-0" viewBox="0 0 54.362 54.606" patternUnits="userSpaceOnUse" preserveAspectRatio="none" width="100" height="100" bx:pinned="true">
      <rect x="-129.743" y="265.201" width="54.362" height="54.606" style="stroke: rgba(74, 172, 68, 0); fill: rgb(66, 164, 55);" transform="matrix(1, 0, 0, 1, 129.74299621582028, -265.20098876953125)"/>
      <path style="stroke: rgb(24, 153, 56); fill: rgb(54, 137, 47);" d="M -118.896 284.339 L -121.09 279.098 C -121.09 279.098 -117.799 281.535 -117.799 281.413 C -117.799 281.291 -112.314 275.928 -112.314 276.05 C -112.314 276.172 -118.652 284.095 -118.896 284.339 Z" transform="matrix(1, 0, 0, 1, 129.74299621582028, -265.20098876953125)"/>
      <path style="stroke: rgb(24, 153, 56); fill: rgb(54, 137, 47);" d="M -91.958 310.665 L -97.687 302.864 C -97.687 302.864 -93.543 306.155 -93.543 306.033 C -93.543 305.911 -93.665 300.183 -93.665 300.183 L -90.861 306.277 L -85.255 303.352 L -91.958 310.665 Z" transform="matrix(1, 0, 0, 1, 129.74299621582028, -265.20098876953125)"/>
    </pattern>
  </defs>
  <rect x="-3.145" y="-2.531" width="506.289" height="505.656" style="fill: rgb(148, 240, 245); stroke: rgba(0, 0, 0, 0);"/>
  <ellipse style="stroke: rgba(0, 0, 0, 0); fill: rgb(190, 239, 247);" cx="394.845" cy="78.859" rx="39.749" ry="39.749"/>
  <ellipse style="stroke: rgba(0, 0, 0, 0); fill: rgb(172, 234, 255);" cx="416.021" cy="93.274" rx="3.834" ry="7.801" transform="matrix(0.757154, 0.653236, -0.653236, 0.757154, 164.470959, -243.291046)"/>
  <ellipse style="stroke: rgba(0, 0, 0, 0); fill: rgb(172, 234, 255);" cx="416.021" cy="93.274" rx="3.834" ry="6.451" transform="matrix(0.929472, -0.368894, 0.368894, 0.929472, 1.179544, 131.55334)"/>
  <ellipse style="stroke: rgba(0, 0, 0, 0); fill: rgb(172, 234, 255);" cx="416.021" cy="93.274" rx="3.834" ry="3.972" transform="matrix(0.758418, -0.651769, 0.651769, 0.758418, -5.79148, 299.813757)" bx:origin="-7.078 1.821"/>
  <ellipse style="stroke: rgba(0, 0, 0, 0); fill: rgb(172, 234, 255);" cx="416.021" cy="93.274" rx="3.834" ry="3.972" transform="matrix(0.758418, -0.651769, 0.651769, 0.758418, 1.102503, 251.1079)" bx:origin="-7.078 1.821"/>
  <ellipse style="stroke: rgba(0, 0, 0, 0); fill: rgb(172, 234, 255);" cx="416.021" cy="93.274" rx="3.834" ry="3.972" transform="matrix(0.758418, -0.651769, 0.651769, 0.758418, 5.333492, 282.179235)" bx:origin="-7.078 1.821"/>
</svg>