<?xml version="1.0" encoding="utf-8"?>
<svg viewBox="0 0 500 500" width="2000" height="2000" xmlns="http://www.w3.org/2000/svg" xmlns:xlink="http://www.w3.org/1999/xlink" xmlns:bx="https://boxy-svg.com">
  <defs>
    <pattern id="pattern-1" viewBox="0 0 55.5243 71.846" patternUnits="userSpaceOnUse" preserveAspectRatio="none" width="100" height="100" bx:pinned="true">
      <path style="fill: rgb(216, 216, 216); stroke: rgb(0, 0, 0);" d="M 209.066 168.002 C 209.066 168.002 221.138 170.728 221.332 177.154 C 221.526 183.58 212.571 184.942 212.571 184.942 L 212.571 212.005 C 212.571 212.005 222.501 211.616 229.121 208.111 C 235.741 204.606 238.466 202.27 238.466 202.27 C 238.702 202.506 237.317 209.687 230.289 212.979 C 223.261 216.271 212.376 218.236 212.376 218.236 L 212.376 227.581 L 219.969 227.971 L 219.775 233.228 L 212.181 233.228 L 211.987 239.848 L 206.34 239.653 L 206.34 232.838 L 198.942 232.644 L 199.136 227.776 L 206.34 227.971 L 206.73 217.846 C 206.73 217.846 197.968 216.678 190.18 212.2 C 182.392 207.722 182.976 203.244 182.976 203.244 C 182.976 203.244 186.87 206.163 193.1 208.305 C 199.33 210.447 206.534 212.199 206.534 212.199 L 206.729 184.747 C 206.729 184.747 196.995 184.357 197.384 177.153 C 197.773 169.949 209.066 168.003 209.066 168.002 Z" transform="matrix(1, 0, 0, 1, -182.966064453125, -168.0019989013672)"/>
    </pattern>
    <pattern id="pattern-0" viewBox="0 0 54.362 54.606" patternUnits="userSpaceOnUse" preserveAspectRatio="none" width="100" height="100" bx:pinned="true">
      <rect x="-129.743" y="265.201" width="54.362" height="54.606" style="stroke: rgba(74, 172, 68, 0); fill: rgb(66, 164, 55);" transform="matrix(1, 0, 0, 1, 129.74299621582028, -265.20098876953125)"/>
      <path style="stroke: rgb(24, 153, 56); fill: rgb(54, 137, 47);" d="M -118.896 284.339 L -121.09 279.098 C -121.09 279.098 -117.799 281.535 -117.799 281.413 C -117.799 281.291 -112.314 275.928 -112.314 276.05 C -112.314 276.172 -118.652 284.095 -118.896 284.339 Z" transform="matrix(1, 0, 0, 1, 129.74299621582028, -265.20098876953125)"/>
      <path style="stroke: rgb(24, 153, 56); fill: rgb(54, 137, 47);" d="M -91.958 310.665 L -97.687 302.864 C -97.687 302.864 -93.543 306.155 -93.543 306.033 C -93.543 305.911 -93.665 300.183 -93.665 300.183 L -90.861 306.277 L -85.255 303.352 L -91.958 310.665 Z" transform="matrix(1, 0, 0, 1, 129.74299621582028, -265.20098876953125)"/>
    </pattern>
    <pattern id="pattern-0-0" patternTransform="matrix(0.073477, 0, 0, 0.075301, 198.505508, 360.125214)" xlink:href="#pattern-0"/>
  </defs>
  <path style="stroke: rgba(0, 0, 0, 0); fill: url(#pattern-0-0);" d="M -12.024 337.706 C -12.024 337.706 12.306 295.129 50.321 293.609 C 88.336 292.089 111.145 328.582 151.694 328.582 C 192.243 328.582 201.367 275.361 252.561 278.403 C 303.755 281.445 287.087 318.441 342.869 318.153 C 398.651 317.865 393.61 283.962 442.27 282.305 C 490.93 280.648 507.008 311.349 507.008 311.349 L 508.374 541.973 L -12.024 537.412 L -12.024 337.706 Z"/>
  <path style="fill: rgb(103, 48, 13); stroke: rgb(65, 19, 13);" d="M 40.887 295.893 L 41.037 298.747 C 41.037 298.747 43.741 299.949 43.741 299.873 C 43.741 299.797 46.069 298.972 46.069 298.972 L 45.919 295.818 L 40.887 295.893 Z"/>
  <path style="stroke: rgb(13, 41, 10); fill: rgb(32, 81, 43);" d="M 41.218 261.75 L 36.248 274.216 C 36.248 274.216 38.859 273.542 38.859 273.458 C 38.859 273.374 34.226 284.492 34.226 284.492 L 36.838 283.65 C 36.838 283.65 32.037 295.021 32.037 294.937 C 32.037 294.853 43.323 296.537 43.323 296.537 L 54.694 294.431 L 48.63 282.723 L 51.157 283.902 L 45.85 273.205 L 48.63 274.384 L 41.218 261.75 Z"/>
  <path style="fill: rgb(103, 48, 13); stroke: rgb(65, 19, 13);" d="M 134.527 325.669 L 134.677 328.523 C 134.677 328.523 137.381 329.725 137.381 329.649 C 137.381 329.573 139.709 328.748 139.709 328.748 L 139.559 325.594 L 134.527 325.669 Z"/>
  <path style="stroke: rgb(13, 41, 10); fill: rgb(32, 81, 43);" d="M 133.844 325.655 L 127.808 311.207 C 127.808 311.207 130.979 311.988 130.979 312.085 C 130.979 312.182 125.352 299.296 125.352 299.296 L 128.524 300.272 C 128.524 300.272 122.693 287.093 122.693 287.19 C 122.693 287.288 136.4 285.336 136.4 285.336 L 150.211 287.777 L 142.846 301.347 L 145.916 299.98 L 139.47 312.378 L 142.846 311.012 L 133.844 325.655 Z" transform="matrix(-1, 0, 0, -1, 272.903999, 610.990997)"/>
  <path style="fill: rgb(103, 48, 13); stroke: rgb(65, 19, 13);" d="M 150.292 327.599 L 150.442 330.453 C 150.442 330.453 153.146 331.655 153.146 331.579 C 153.146 331.503 155.474 330.678 155.474 330.678 L 155.324 327.524 L 150.292 327.599 Z"/>
  <path style="stroke: rgb(13, 41, 10); fill: rgb(32, 81, 43);" d="M 150.623 293.456 L 145.653 305.922 C 145.653 305.922 148.264 305.248 148.264 305.164 C 148.264 305.08 143.631 316.198 143.631 316.198 L 146.243 315.356 C 146.243 315.356 141.442 326.727 141.442 326.643 C 141.442 326.559 152.728 328.243 152.728 328.243 L 164.099 326.137 L 158.035 314.429 L 160.562 315.608 L 155.255 304.911 L 158.035 306.09 L 150.623 293.456 Z"/>
  <path style="fill: rgb(103, 48, 13); stroke: rgb(65, 19, 13);" d="M 241.021 277.408 L 241.171 280.262 C 241.171 280.262 243.875 281.464 243.875 281.388 C 243.875 281.312 246.203 280.487 246.203 280.487 L 246.053 277.333 L 241.021 277.408 Z"/>
  <path style="stroke: rgb(13, 41, 10); fill: rgb(32, 81, 43);" d="M 241.352 243.265 L 236.382 255.731 C 236.382 255.731 238.993 255.057 238.993 254.973 C 238.993 254.889 234.36 266.007 234.36 266.007 L 236.972 265.165 C 236.972 265.165 232.171 276.536 232.171 276.452 C 232.171 276.368 243.457 278.052 243.457 278.052 L 254.828 275.946 L 248.764 264.238 L 251.291 265.417 L 245.984 254.72 L 248.764 255.899 L 241.352 243.265 Z"/>
  <path style="fill: rgb(103, 48, 13); stroke: rgb(65, 19, 13);" d="M 223.97 282.556 L 224.12 285.41 C 224.12 285.41 226.824 286.612 226.824 286.536 C 226.824 286.46 229.152 285.635 229.152 285.635 L 229.002 282.481 L 223.97 282.556 Z"/>
  <path style="stroke: rgb(13, 41, 10); fill: rgb(32, 81, 43);" d="M 224.549 241.775 L 218.447 256.619 C 218.447 256.619 221.653 255.817 221.653 255.717 C 221.653 255.617 215.964 268.856 215.964 268.856 L 219.171 267.854 C 219.171 267.854 213.276 281.395 213.276 281.295 C 213.276 281.195 227.134 283.2 227.134 283.2 L 241.096 280.692 L 233.65 266.75 L 236.753 268.154 L 230.237 255.416 L 233.65 256.82 L 224.549 241.775 Z"/>
  <path style="fill: rgb(103, 48, 13); stroke: rgb(65, 19, 13);" d="M 318.459 315.139 L 318.609 317.993 C 318.609 317.993 321.313 319.195 321.313 319.119 C 321.313 319.043 323.641 318.218 323.641 318.218 L 323.491 315.064 L 318.459 315.139 Z"/>
  <path style="stroke: rgb(13, 41, 10); fill: rgb(32, 81, 43); fill-rule: nonzero;" d="M 318.831 316.05 L 314.266 303.584 C 314.266 303.584 316.665 304.258 316.665 304.342 C 316.665 304.426 312.409 293.308 312.409 293.308 L 314.808 294.15 C 314.808 294.15 310.398 282.779 310.398 282.863 C 310.398 282.947 320.765 281.263 320.765 281.263 L 331.21 283.369 L 325.64 295.077 L 327.961 293.898 L 323.086 304.595 L 325.64 303.416 L 318.831 316.05 Z" transform="matrix(-1, 0, 0, -1, 641.608002, 597.312988)"/>
  <path style="fill: rgb(103, 48, 13); stroke: rgb(65, 19, 13);" d="M 366.431 313.769 L 366.581 316.623 C 366.581 316.623 369.285 317.825 369.285 317.749 C 369.285 317.673 371.613 316.848 371.613 316.848 L 371.463 313.694 L 366.431 313.769 Z"/>
  <path style="stroke: rgb(13, 41, 10); fill: rgb(32, 81, 43);" d="M 366.762 279.626 L 361.792 292.092 C 361.792 292.092 364.403 291.418 364.403 291.334 C 364.403 291.25 359.77 302.368 359.77 302.368 L 362.382 301.526 C 362.382 301.526 357.581 312.897 357.581 312.813 C 357.581 312.729 368.867 314.413 368.867 314.413 L 380.238 312.307 L 374.174 300.599 L 376.701 301.778 L 371.394 291.081 L 374.174 292.26 L 366.762 279.626 Z"/>
  <path style="fill: rgb(103, 48, 13); stroke: rgb(65, 19, 13);" d="M 353.852 316.285 L 354.002 319.139 C 354.002 319.139 356.706 320.341 356.706 320.265 C 356.706 320.189 359.034 319.364 359.034 319.364 L 358.884 316.21 L 353.852 316.285 Z"/>
  <path style="stroke: rgb(13, 41, 10); fill: rgb(32, 81, 43);" d="M 353.378 277.271 L 347.733 291.758 C 347.733 291.758 350.699 290.975 350.699 290.877 C 350.699 290.78 345.437 303.7 345.437 303.7 L 348.404 302.722 C 348.404 302.722 342.951 315.936 342.951 315.839 C 342.951 315.741 355.769 317.698 355.769 317.698 L 368.684 315.251 L 361.797 301.644 L 364.667 303.015 L 358.639 290.583 L 361.797 291.953 L 353.378 277.271 Z"/>
  <path style="fill: rgb(103, 48, 13); stroke: rgb(65, 19, 13);" d="M 436.154 280.345 L 436.304 283.199 C 436.304 283.199 439.008 284.401 439.008 284.325 C 439.008 284.249 441.336 283.424 441.336 283.424 L 441.186 280.27 L 436.154 280.345 Z"/>
  <path style="stroke: rgb(13, 41, 10); fill: rgb(32, 81, 43);" d="M 436.443 244.407 L 431.079 257.792 C 431.079 257.792 433.897 257.068 433.897 256.978 C 433.897 256.888 428.897 268.825 428.897 268.825 L 431.716 267.921 C 431.716 267.921 426.535 280.13 426.535 280.04 C 426.535 279.95 438.714 281.758 438.714 281.758 L 450.986 279.497 L 444.442 266.926 L 447.169 268.192 L 441.442 256.707 L 444.442 257.972 L 436.443 244.407 Z"/>
  <path style="fill: rgb(103, 48, 13); stroke: rgb(65, 19, 13);" d="M 461.312 283.221 L 461.462 286.075 C 461.462 286.075 464.166 287.277 464.166 287.201 C 464.166 287.125 466.494 286.3 466.494 286.3 L 466.344 283.146 L 461.312 283.221 Z"/>
  <path style="stroke: rgb(13, 41, 10); fill: rgb(32, 81, 43);" d="M 462.261 284.136 L 457.465 271.67 C 457.465 271.67 459.984 272.344 459.984 272.428 C 459.984 272.512 455.513 261.394 455.513 261.394 L 458.034 262.236 C 458.034 262.236 453.401 250.865 453.401 250.949 C 453.401 251.033 464.292 249.349 464.292 249.349 L 475.265 251.455 L 469.413 263.163 L 471.852 261.984 L 466.731 272.681 L 469.413 271.502 L 462.261 284.136 Z" transform="matrix(-1, 0, 0, -1, 928.666016, 533.484985)"/>
  <path style="fill: rgb(103, 48, 13); stroke: rgb(65, 19, 13);" d="M 243 329.217 L 243.15 332.071 C 243.15 332.071 245.854 333.273 245.854 333.197 C 245.854 333.121 248.182 332.296 248.182 332.296 L 248.032 329.142 L 243 329.217 Z"/>
  <path style="stroke: rgb(13, 41, 10); fill: rgb(32, 81, 43);" d="M 243.865 294.274 L 238.895 306.74 C 238.895 306.74 241.506 306.066 241.506 305.982 C 241.506 305.898 236.873 317.016 236.873 317.016 L 239.485 316.174 C 239.485 316.174 234.684 327.545 234.684 327.461 C 234.684 327.377 245.97 329.061 245.97 329.061 L 257.341 326.955 L 251.277 315.247 L 253.804 316.426 L 248.497 305.729 L 251.277 306.908 L 243.865 294.274 Z"/>
</svg>