<?xml version="1.0" encoding="utf-8"?>
<svg viewBox="0 0 500 500" xmlns="http://www.w3.org/2000/svg">
  <ellipse style="stroke: rgb(236, 236, 236); fill: rgb(250, 250, 250);" cx="58.828" cy="153.427" rx="33.546" ry="33.546"/>
  <ellipse style="stroke: rgb(236, 236, 236); fill: rgb(250, 250, 250);" cx="138.03" cy="120.314" rx="33.546" ry="33.546"/>
  <ellipse style="stroke: rgb(236, 236, 236); fill: rgb(250, 250, 250);" cx="97.757" cy="156.559" rx="25.058" ry="25.058"/>
  <ellipse style="stroke: rgb(236, 236, 236); fill: rgb(250, 250, 250);" cx="108.049" cy="118.972" rx="25.058" ry="25.058"/>
  <ellipse style="stroke: rgb(236, 236, 236); fill: rgb(250, 250, 250);" cx="160.85" cy="159.691" rx="25.058" ry="25.058"/>
  <ellipse style="stroke: rgb(236, 236, 236); fill: rgb(250, 250, 250);" cx="129.08" cy="159.244" rx="16.78" ry="16.78"/>
  <ellipse style="stroke: rgb(236, 236, 236); fill: rgb(250, 250, 250);" cx="77.621" cy="126.131" rx="16.78" ry="16.78"/>
  <ellipse style="stroke: rgb(236, 236, 236); fill: rgb(250, 250, 250);" cx="291.511" cy="211.15" rx="33.546" ry="33.546"/>
  <ellipse style="stroke: rgb(236, 236, 236); fill: rgb(250, 250, 250);" cx="336.706" cy="176.695" rx="33.546" ry="33.546"/>
  <ellipse style="stroke: rgb(236, 236, 236); fill: rgb(250, 250, 250);" cx="333.573" cy="216.968" rx="25.058" ry="25.058"/>
  <ellipse style="stroke: rgb(236, 236, 236); fill: rgb(250, 250, 250);" cx="362.659" cy="198.174" rx="25.058" ry="25.058"/>
  <ellipse style="stroke: rgb(236, 236, 236); fill: rgb(250, 250, 250);" cx="389.06" cy="221.89" rx="25.058" ry="25.058"/>
  <ellipse style="stroke: rgb(236, 236, 236); fill: rgb(250, 250, 250);" cx="317.465" cy="185.645" rx="16.78" ry="16.78"/>
  <ellipse style="stroke: rgb(236, 236, 236); fill: rgb(250, 250, 250);" cx="363.106" cy="226.364" rx="16.78" ry="16.78"/>
  <ellipse style="stroke: rgb(236, 236, 236); fill: rgb(250, 250, 250);" cx="415.46" cy="94.361" rx="33.546" ry="33.546"/>
  <ellipse style="stroke: rgb(236, 236, 236); fill: rgb(250, 250, 250);" cx="381.452" cy="103.757" rx="25.058" ry="25.058"/>
  <ellipse style="stroke: rgb(236, 236, 236); fill: rgb(250, 250, 250);" cx="442.756" cy="114.497" rx="16.78" ry="16.78"/>
  <ellipse style="stroke: rgb(236, 236, 236); fill: rgb(250, 250, 250);" cx="214.099" cy="100.624" rx="11.634" ry="11.634"/>
  <ellipse style="stroke: rgb(236, 236, 236); fill: rgb(250, 250, 250);" cx="240.947" cy="86.753" rx="25.058" ry="25.058"/>
  <ellipse style="stroke: rgb(236, 236, 236); fill: rgb(250, 250, 250);" cx="260.635" cy="96.597" rx="16.78" ry="16.78"/>
  <ellipse style="stroke: rgb(236, 236, 236); fill: rgb(250, 250, 250);" cx="277.639" cy="102.414" rx="11.634" ry="11.634"/>
  <ellipse style="stroke: rgb(236, 236, 236); fill: rgb(250, 250, 250);" cx="158.613" cy="235.761" rx="25.058" ry="25.058"/>
  <ellipse style="stroke: rgb(236, 236, 236); fill: rgb(250, 250, 250);" cx="131.765" cy="249.185" rx="11.634" ry="11.634"/>
  <ellipse style="stroke: rgb(236, 236, 236); fill: rgb(250, 250, 250);" cx="211.414" cy="248.738" rx="11.634" ry="11.634"/>
  <ellipse style="stroke: rgb(236, 236, 236); fill: rgb(250, 250, 250);" cx="193.514" cy="241.13" rx="20.583" ry="20.583"/>
  <ellipse style="stroke: rgb(236, 236, 236); fill: rgb(250, 250, 250);" cx="170.694" cy="247.395" rx="11.634" ry="11.634"/>
</svg>