<?xml version="1.0" encoding="utf-8"?>
<svg viewBox="0 0 500 500" xmlns="http://www.w3.org/2000/svg" width="2000px" height="2000px">
  <path style="stroke: rgb(125, 125, 125); fill: rgb(143, 143, 143);" d="M 34.611 275.293 C 34.611 275.293 78.807 240.149 120.341 245.474 C 161.875 250.799 203.94 265.708 203.94 265.708 L 202.667 272.377 C 202.667 272.377 193.288 268.444 182.396 269.352 C 171.504 270.26 165.453 272.982 165.453 272.982 C 165.453 272.982 159.705 267.839 149.418 266.326 C 139.131 264.813 126.727 276.613 126.727 276.613 C 126.727 276.613 144.88 281.151 153.049 285.69 C 161.218 290.229 170.597 302.027 170.597 302.027 L 166.664 304.145 C 166.664 304.145 158.192 297.489 149.116 295.976 C 140.04 294.463 130.66 295.976 130.66 295.976 C 130.66 295.976 150.326 318.97 140.947 345.292 C 131.568 371.614 117.046 389.968 117.046 389.968 C 117.046 389.968 158.192 418.407 157.587 448.662 C 156.982 478.917 151.536 500.7 151.536 500.7 L 66.52 500.398 C 66.52 500.398 48.065 480.732 49.275 458.646 C 50.485 436.56 57.444 423.853 57.444 423.853 C 57.444 423.853 42.014 418.407 39.896 393.598 C 37.778 368.789 53.208 336.114 52.905 335.812 C 52.602 335.51 35.358 323.105 34.45 307.675 C 33.542 292.245 34.147 276.209 34.611 275.293 Z"/>
  <path style="paint-order: fill; fill: rgb(150, 150, 150); stroke: rgb(121, 121, 121);" d="M 246.364 296.909 C 246.364 296.909 277.743 321.594 310.795 325.359 C 343.847 329.124 393.636 278.918 441.751 288.541 C 489.866 298.164 491.539 307.787 491.539 307.787 C 491.539 307.787 480.661 312.389 481.079 329.962 C 481.497 347.535 490.702 354.646 491.121 387.699 C 491.54 420.752 479.406 473.887 479.406 473.887 C 479.406 473.887 489.447 475.561 494.468 481.418 C 499.489 487.275 497.397 501.082 497.397 500.664 C 497.397 500.529 398.384 503.054 398.387 502.969 C 399.456 468.947 387.937 375.348 423.481 369.856 C 463.838 363.62 429.726 335.379 396.634 333.902 C 363.56 332.426 351.563 356.393 342.283 369.808 C 330.792 386.42 348.405 501.898 328.751 502.047 C 279.237 502.421 239.251 502.337 239.251 502.337 C 239.251 502.337 226.699 471.795 226.699 461.335 C 226.699 450.875 233.812 429.12 233.812 429.12 C 233.812 429.12 224.189 416.568 223.771 402.343 C 223.353 388.118 236.741 359.667 236.741 359.667 C 236.741 359.667 271.467 372.219 280.671 357.575 C 289.875 342.931 271.467 336.656 259.334 324.522 C 247.201 312.388 241.761 304.858 241.761 304.858 L 246.364 296.909 Z"/>
  <path style="stroke: rgb(105, 210, 89); fill: rgb(88, 255, 133);" d="M 33.503 274.875 C 33.503 274.875 71.524 245.519 107.476 243.967 C 143.428 242.415 204.597 264.659 204.597 264.917 C 204.597 265.175 203.692 270.219 203.692 270.219 C 203.692 270.219 198.648 267.245 198.131 267.504 C 197.614 267.763 192.57 268.668 192.57 268.668 L 187.268 264.271 L 181.836 266.081 C 181.836 266.081 176.146 262.201 176.017 262.072 C 175.888 261.943 170.197 264.141 170.197 264.141 L 165.412 257.675 L 158.17 260.132 L 154.937 256.641 L 149.505 257.287 C 149.505 257.287 144.074 253.407 144.074 253.278 C 144.074 253.149 137.608 255.994 137.608 255.994 L 132.823 254.442 L 128.814 255.347 C 128.814 255.347 124.934 252.761 124.934 252.632 C 124.934 252.503 120.408 254.183 120.408 254.183 L 116.528 253.278 L 107.864 256.123 L 101.268 253.795 L 96.095 257.546 L 91.957 255.347 L 87.431 255.865 C 87.431 255.865 79.283 260.262 79.154 260.262 C 79.025 260.262 76.05 259.227 75.921 259.098 C 75.792 258.969 71.394 261.813 71.394 261.813 C 71.394 261.813 64.67 261.038 64.67 260.908 C 64.67 260.778 58.333 267.762 58.333 267.762 L 54.583 266.469 L 51.996 269.573 L 44.754 271.901 L 43.59 274.616 L 39.064 275.263 C 39.064 275.263 37.9 278.108 37.771 277.849 C 37.642 277.59 33.374 275.392 33.503 274.875 Z"/>
  <path style="fill: rgb(88, 255, 133); stroke: rgb(105, 210, 89);" d="M 125.206 275.921 C 125.206 275.921 143.879 278.33 153.516 284.956 C 163.153 291.582 171.285 301.821 171.285 301.821 L 167.972 303.477 L 165.864 300.165 L 162.4 299.713 L 162.4 294.593 L 159.088 295.497 L 159.088 292.786 L 152.311 292.635 L 152.161 289.323 L 148.396 289.473 L 145.535 286.01 L 142.222 287.214 L 139.964 284.353 C 139.964 284.353 137.253 285.106 136.801 284.956 C 136.349 284.806 132.886 282.095 132.886 281.944 C 132.886 281.793 131.079 282.396 130.929 282.396 C 130.779 282.396 128.218 280.438 128.218 280.438 C 128.218 280.438 125.959 281.793 125.658 281.643 C 125.357 281.493 124.755 275.77 125.206 275.921 Z"/>
  <path style="fill: rgb(131, 241, 125); stroke: rgb(109, 178, 117);" d="M 245.632 295.253 C 245.632 295.253 289.071 327.951 318.427 325.087 C 347.783 322.223 396.711 282.842 427.738 286.184 C 458.765 289.526 470.938 293.344 480.485 298.356 C 490.032 303.368 492.657 307.903 492.657 307.903 L 488.361 310.528 L 486.213 304.561 L 483.11 306.948 C 483.11 306.948 480.485 303.845 480.246 303.845 C 480.007 303.845 477.143 304.084 477.143 304.084 C 477.143 304.084 474.757 300.265 474.518 300.265 C 474.279 300.265 469.745 302.413 469.745 302.413 L 465.926 299.072 C 465.926 299.072 464.733 300.026 464.494 300.026 C 464.255 300.026 459.482 296.208 459.482 296.208 C 459.482 296.208 458.288 298.594 458.05 298.594 C 457.812 298.594 452.56 294.776 452.56 294.776 L 447.787 296.685 L 443.252 292.866 L 438.479 294.06 L 435.376 292.15 C 435.376 292.15 432.512 295.969 432.273 295.969 C 432.034 295.969 427.738 293.582 427.738 293.582 C 427.738 293.582 425.113 296.924 424.874 296.685 C 424.635 296.446 419.862 292.628 419.862 292.628 L 416.521 296.208 C 416.521 296.208 412.225 294.06 411.747 294.298 C 411.269 294.536 404.587 300.504 404.587 300.504 L 399.814 297.878 C 399.814 297.878 397.189 302.891 396.95 302.891 C 396.711 302.891 391.699 301.459 391.699 301.459 C 391.699 301.459 386.926 310.051 386.926 309.812 C 386.926 309.573 382.868 307.425 382.868 307.186 C 382.868 306.947 379.288 315.779 378.572 315.54 C 377.856 315.301 375.469 313.869 375.469 313.869 C 375.469 313.869 371.889 319.359 371.651 319.359 C 371.413 319.359 366.161 317.927 366.161 317.927 C 366.161 317.927 359.24 324.132 359.001 324.132 C 358.762 324.132 353.989 321.268 353.989 321.268 C 353.989 321.268 349.216 328.667 348.738 328.667 C 348.26 328.667 343.965 325.564 343.965 325.564 L 339.669 330.815 C 339.669 330.815 335.372 327.951 335.134 327.951 C 334.896 327.951 331.554 332.724 331.077 332.486 C 330.6 332.248 328.69 330.099 328.452 330.099 C 328.214 330.099 326.303 333.44 325.826 333.202 C 325.349 332.964 322.007 330.1 322.246 330.099 C 322.485 330.098 316.995 334.395 316.995 334.395 C 316.995 334.395 314.608 331.531 314.608 331.293 C 314.608 331.055 311.028 333.44 311.028 333.44 L 309.596 330.576 C 309.596 330.576 307.209 333.918 306.732 333.679 C 306.255 333.44 302.675 330.099 302.675 330.099 L 298.856 331.77 L 295.037 327.712 L 288.832 329.144 L 285.013 322.7 C 285.013 322.7 282.626 323.894 282.149 323.894 C 281.672 323.894 277.853 320.552 277.614 320.552 C 277.375 320.552 274.034 321.746 274.034 321.746 C 274.034 321.746 268.068 314.347 267.829 314.108 C 267.59 313.869 264.01 316.017 263.772 316.017 C 263.534 316.017 259.714 309.573 259.475 309.812 C 259.236 310.051 257.805 311.483 257.805 311.483 L 251.122 302.413 L 244.439 303.13 L 245.632 295.253 Z"/>
  <ellipse style="stroke: rgba(44, 36, 36, 0); fill: rgb(160, 160, 160);" cx="313.971" cy="369.83" rx="9.332" ry="9.332"/>
  <ellipse style="stroke: rgba(44, 36, 36, 0); fill: rgb(160, 160, 160);" cx="413.439" cy="317.934" rx="2.959" ry="2.959"/>
  <ellipse style="stroke: rgba(44, 36, 36, 0); fill: rgb(160, 160, 160);" cx="435.632" cy="310.309" rx="3.756" ry="3.756"/>
  <ellipse style="stroke: rgba(44, 36, 36, 0); fill: rgb(160, 160, 160);" cx="464.88" cy="325.218" rx="8.649" ry="8.649"/>
  <ellipse style="stroke: rgba(44, 36, 36, 0); fill: rgb(160, 160, 160);" cx="460.556" cy="353.897" rx="3.414" ry="3.414"/>
  <ellipse style="stroke: rgba(44, 36, 36, 0); fill: rgb(160, 160, 160);" cx="318.426" cy="342.44" rx="3.983" ry="3.983"/>
  <ellipse style="stroke: rgba(44, 36, 36, 0); fill: rgb(160, 160, 160);" cx="266.285" cy="389.519" rx="9.901" ry="9.901"/>
  <ellipse style="stroke: rgba(0, 0, 0, 0); fill: rgb(163, 163, 163);" cx="300.541" cy="428.328" rx="10.926" ry="10.926"/>
  <ellipse style="stroke: rgba(0, 0, 0, 0); fill: rgb(163, 163, 163);" cx="322.051" cy="400.9" rx="8.08" ry="8.08"/>
  <ellipse style="stroke: rgba(44, 36, 36, 0); fill: rgb(160, 160, 160);" cx="450.427" cy="410.915" rx="21.055" ry="21.055"/>
  <ellipse style="stroke: rgba(44, 36, 36, 0); fill: rgb(160, 160, 160);" cx="418.219" cy="440.164" rx="4.78" ry="4.78"/>
  <ellipse style="stroke: rgba(44, 36, 36, 0); fill: rgb(160, 160, 160);" cx="423.682" cy="387.812" rx="6.146" ry="6.146"/>
  <ellipse style="stroke: rgba(44, 36, 36, 0); fill: rgb(160, 160, 160);" cx="469.433" cy="373.017" rx="8.422" ry="8.422"/>
  <ellipse style="stroke: rgba(44, 36, 36, 0); fill: rgb(160, 160, 160);" cx="466.474" cy="445.627" rx="6.146" ry="6.146"/>
  <ellipse style="stroke: rgba(0, 0, 0, 0); fill: rgb(163, 163, 163);" cx="254.449" cy="420.02" rx="5.577" ry="5.577"/>
  <ellipse style="stroke: rgba(0, 0, 0, 0); fill: rgb(163, 163, 163);" cx="270.63" cy="449.984" rx="4.748" ry="4.748"/>
  <ellipse style="stroke: rgba(44, 36, 36, 0); fill: rgb(160, 160, 160);" cx="289.503" cy="339.187" rx="4.535" ry="4.535"/>
  <ellipse style="stroke: rgba(44, 36, 36, 0); fill: rgb(160, 160, 160);" cx="364.504" cy="336.745" rx="1.744" ry="1.744"/>
  <ellipse style="stroke: rgba(44, 36, 36, 0); fill: rgb(160, 160, 160);" cx="387.877" cy="322.094" rx="5.233" ry="5.233"/>
  <ellipse style="stroke: rgba(44, 36, 36, 0); fill: rgb(160, 160, 160);" cx="432.18" cy="470.7" rx="4.884" ry="4.884"/>
  <ellipse style="stroke: rgba(44, 36, 36, 0); fill: rgb(160, 160, 160);" cx="462.703" cy="472.619" rx="6.105" ry="6.105"/>
  <ellipse style="stroke: rgba(44, 36, 36, 0); fill: rgb(160, 160, 160);" cx="415.61" cy="486.573" rx="7.849" ry="7.849"/>
  <ellipse style="stroke: rgba(44, 36, 36, 0); fill: rgb(160, 160, 160);" cx="459.913" cy="501.224" rx="10.291" ry="10.291"/>
  <ellipse style="stroke: rgba(0, 0, 0, 0); fill: rgb(163, 163, 163);" cx="308.864" cy="469.131" rx="8.198" ry="8.198"/>
  <ellipse style="stroke: rgba(0, 0, 0, 0); fill: rgb(163, 163, 163);" cx="326.481" cy="444.537" rx="6.628" ry="6.628"/>
  <ellipse style="stroke: rgba(0, 0, 0, 0); fill: rgb(163, 163, 163);" cx="260.026" cy="483.433" rx="15.175" ry="15.175"/>
  <ellipse style="stroke: rgba(0, 0, 0, 0); fill: rgb(163, 163, 163);" cx="297.876" cy="494.073" rx="5.233" ry="5.233"/>
  <ellipse style="stroke: rgba(0, 0, 0, 0); fill: rgb(163, 163, 163);" cx="241.363" cy="398.839" rx="6.628" ry="6.628"/>
  <ellipse style="stroke: rgba(44, 36, 36, 0); fill: rgb(160, 160, 160);" cx="60.553" cy="302.494" rx="9.901" ry="9.901"/>
  <ellipse style="stroke: rgba(44, 36, 36, 0); fill: rgb(160, 160, 160);" cx="133.319" cy="451.855" rx="9.901" ry="9.901"/>
  <ellipse style="stroke: rgba(44, 36, 36, 0); fill: rgb(160, 160, 160);" cx="106.511" cy="311.248" rx="4.535" ry="4.535"/>
  <ellipse style="stroke: rgba(44, 36, 36, 0); fill: rgb(160, 160, 160);" cx="52.347" cy="389.484" rx="4.535" ry="4.535"/>
  <ellipse style="stroke: rgba(44, 36, 36, 0); fill: rgb(160, 160, 160);" cx="74.778" cy="470.183" rx="4.535" ry="4.535"/>
  <ellipse style="stroke: rgba(44, 36, 36, 0); fill: rgb(160, 160, 160);" cx="125.112" cy="342.433" rx="1.744" ry="1.744"/>
  <ellipse style="stroke: rgba(44, 36, 36, 0); fill: rgb(160, 160, 160);" cx="111.234" cy="276.424" rx="1.744" ry="1.744"/>
  <ellipse style="stroke: rgba(0, 0, 0, 0); fill: rgb(163, 163, 163);" cx="104.869" cy="411.369" rx="15.175" ry="15.175"/>
  <ellipse style="stroke: rgba(0, 0, 0, 0); fill: rgb(163, 163, 163);" cx="104.596" cy="358.846" rx="8.08" ry="8.08"/>
  <ellipse style="stroke: rgba(0, 0, 0, 0); fill: rgb(163, 163, 163);" cx="71.496" cy="346.536" rx="8.08" ry="8.08"/>
  <ellipse style="stroke: rgba(0, 0, 0, 0); fill: rgb(163, 163, 163);" cx="72.863" cy="437.083" rx="8.198" ry="8.198"/>
  <ellipse style="stroke: rgba(0, 0, 0, 0); fill: rgb(163, 163, 163);" cx="308.864" cy="469.131" rx="8.198" ry="8.198" transform="matrix(1, 0, 0, 1, -217.672454, -192.624913)"/>
  <ellipse style="stroke: rgba(44, 36, 36, 0); fill: rgb(160, 160, 160);" cx="364.504" cy="336.745" rx="1.744" ry="1.744" transform="matrix(1, 0, 0, 1, -265.379349, 136.994355)"/>
  <ellipse style="stroke: rgba(44, 36, 36, 0); fill: rgb(160, 160, 160);" cx="364.504" cy="336.745" rx="1.744" ry="1.744" transform="matrix(1, 0, 0, 1, -232.826286, 89.94287)"/>
  <ellipse style="stroke: rgba(44, 36, 36, 0); fill: rgb(160, 160, 160);" cx="364.504" cy="336.745" rx="1.744" ry="1.744" transform="matrix(1, 0, 0, 1, -310.242393, 36.873171)"/>
  <ellipse style="stroke: rgba(44, 36, 36, 0); fill: rgb(160, 160, 160);" cx="364.504" cy="336.745" rx="1.744" ry="1.744" transform="matrix(1, 0, 0, 1, -321.731709, -45.466928)"/>
</svg>
