<?xml version="1.0" encoding="utf-8"?>
<svg viewBox="0 0 500 500" width="2000" height="2000" xmlns="http://www.w3.org/2000/svg" xmlns:xlink="http://www.w3.org/1999/xlink" xmlns:bx="https://boxy-svg.com">
  <defs>
    <linearGradient id="gradient-1" bx:pinned="true">
      <stop offset="0" style="stop-color: rgb(255, 72, 121);"/>
      <stop offset="1" style="stop-color: rgb(255, 106, 0);"/>
    </linearGradient>
    <linearGradient id="gradient-2" bx:pinned="true">
      <stop offset="0" style="stop-color: rgb(255, 129, 101);"/>
      <stop offset="1" style="stop-color: rgb(72, 215, 247);"/>
    </linearGradient>
    <linearGradient id="color-0" gradientUnits="userSpaceOnUse" bx:pinned="true">
      <stop style="stop-color: rgb(101, 201, 255);"/>
    </linearGradient>
    <linearGradient gradientUnits="userSpaceOnUse" x1="357.574" y1="330.378" x2="357.574" y2="370.021" id="gradient-0">
      <stop offset="0" style="stop-color: rgba(0, 0, 0, 0)"/>
      <stop offset="1" style="stop-color: rgba(0, 0, 0, 0)"/>
    </linearGradient>
    <linearGradient id="gradient-3" bx:pinned="true">
      <stop offset="0" style="stop-color: rgba(133, 58, 21, 0.25);"/>
      <stop offset="0.45" style="stop-color: rgba(159, 47, 6, 0);"/>
    </linearGradient>
    <linearGradient id="gradient-3-0" gradientUnits="userSpaceOnUse" x1="357.574" y1="330.378" x2="357.574" y2="370.021" xlink:href="#gradient-3"/>
  </defs>
  <path style="stroke: rgba(0, 0, 0, 0); fill: rgba(213, 213, 213, 0.13);" d="M 38.911 137.457 C 38.911 137.457 75.384 142.667 109.773 140.583 C 144.162 138.499 158.229 113.489 201.997 114.531 C 245.765 115.573 270.253 125.994 270.253 125.994 C 270.253 125.994 235.343 123.389 203.039 123.91 C 170.735 124.431 142.598 151.525 110.815 151.004 C 79.032 150.483 39.953 138.499 38.911 137.457 Z"/>
  <path style="stroke: rgba(0, 0, 0, 0); fill: rgba(213, 213, 213, 0.13);" d="M 348.93 116.615 C 348.93 116.615 374.982 118.7 396.866 117.658 C 418.75 116.616 431.775 98.379 453.659 98.9 C 475.543 99.421 489.611 107.758 489.611 107.758 C 489.611 107.758 468.769 104.111 451.054 106.716 C 433.339 109.321 430.212 121.305 398.95 127.036 C 367.688 132.767 349.451 117.658 348.93 116.615 Z"/>
  <path style="stroke: rgba(0, 0, 0, 0); fill: rgba(213, 213, 213, 0.13);" d="M -2.772 -0.098 C -2.772 -0.098 66.526 26.476 138.43 32.728 C 210.334 38.98 283.35 22.673 335.454 30.489 C 387.558 38.305 501.074 61.385 501.074 61.385 L 501.595 96.816 C 501.595 96.816 366.967 60.005 312.779 58.963 C 258.591 57.921 187.929 68.68 120.193 62.427 C 52.457 56.174 -4.856 36.375 -4.856 36.375 L -2.772 -0.098 Z"/>
  <path style="fill: rgb(162, 70, 40); stroke: rgba(0, 0, 0, 0);" d="M 291.842 308.735 C 291.842 308.735 308.483 312.063 318.468 312.618 C 328.453 313.173 334.555 312.618 334.555 312.618 L 334.555 306.516 L 312.921 306.239 L 340.934 242.17 C 340.934 242.17 340.101 313.45 340.101 313.172 C 340.101 312.894 345.095 313.172 345.095 313.172 L 344.539 231.353 C 344.539 231.353 363.677 251.045 368.947 262.417 C 374.217 273.789 377.545 307.903 377.267 307.626 C 376.989 307.349 353.138 307.903 353.138 307.903 L 352.583 313.45 C 352.583 313.45 365.341 314.559 388.639 313.172 C 411.937 311.785 422.753 306.793 422.753 306.793 C 422.753 306.793 421.366 313.728 415.819 321.217 C 410.272 328.706 405.28 331.479 405.28 331.201 C 405.28 330.923 306.264 330.923 306.264 330.923 C 306.364 330.923 301.011 329.26 297.112 322.326 C 293.213 315.392 292.119 310.399 291.842 308.735 Z"/>
  <path style="stroke: url(#gradient-0); fill: url(#gradient-3-0);" d="M 292.119 339.303 C 292.119 339.303 308.76 337.982 318.745 337.762 C 328.73 337.542 334.832 337.762 334.832 337.762 L 334.832 340.184 L 313.198 340.294 L 341.211 365.727 C 341.211 365.727 340.378 337.432 340.378 337.542 C 340.378 337.652 345.372 337.542 345.372 337.542 L 344.816 370.021 C 344.816 370.021 363.954 362.204 369.224 357.69 C 374.494 353.175 377.822 339.634 377.544 339.744 C 377.266 339.854 353.415 339.634 353.415 339.634 L 352.86 337.432 C 352.86 337.432 365.618 336.992 388.916 337.542 C 412.214 338.093 423.03 340.074 423.03 340.074 C 423.03 340.074 421.643 337.321 416.096 334.349 C 410.549 331.376 405.557 330.275 405.557 330.385 C 405.557 330.496 306.541 330.496 306.541 330.496 C 306.641 330.496 301.288 331.156 297.389 333.908 C 293.49 336.661 292.396 338.643 292.119 339.303 Z"/>
</svg>