<?xml version="1.0" encoding="utf-8"?>
<svg viewBox="0 0 500 500" width="2000" height="2000" xmlns="http://www.w3.org/2000/svg" xmlns:bx="https://boxy-svg.com">
  <defs>
    <linearGradient id="gradient-1" bx:pinned="true">
      <stop offset="0" style="stop-color: rgb(255, 72, 121);"/>
      <stop offset="1" style="stop-color: rgb(255, 106, 0);"/>
    </linearGradient>
    <linearGradient id="gradient-2" bx:pinned="true">
      <stop offset="0" style="stop-color: rgb(255, 129, 101);"/>
      <stop offset="1" style="stop-color: rgb(72, 215, 247);"/>
    </linearGradient>
    <linearGradient id="color-0" gradientUnits="userSpaceOnUse" bx:pinned="true">
      <stop style="stop-color: rgb(101, 201, 255);"/>
    </linearGradient>
    <linearGradient id="gradient-3" bx:pinned="true">
      <stop offset="0" style="stop-color: rgba(133, 58, 21, 0.25);"/>
      <stop offset="0.45" style="stop-color: rgba(159, 47, 6, 0);"/>
    </linearGradient>
  </defs>
  <path style="stroke: rgba(0, 0, 0, 0); fill: rgb(74, 14, 14);" d="M -1.121 390.007 C -1.121 390.007 56.753 389.512 89.345 401.519 C 121.937 413.526 171.682 465.559 209.991 472.992 C 248.3 480.425 300.951 474.722 337.823 456.812 C 374.695 438.902 393.823 413.259 426.986 402.396 C 460.149 391.533 501.914 389.976 501.914 389.976 L 508.461 508.443 C 508.461 508.443 -0.997 507.871 -0.997 507.299 C -0.997 506.727 -0.549 392.294 -1.121 390.007 Z"/>
  <path style="fill: rgb(74, 14, 14); stroke: rgba(0, 0, 0, 0);" d="M 32.978 394.092 C 32.978 394.092 66.295 373.006 85.272 351.076 C 104.249 329.146 112.685 298.36 112.685 298.36 C 112.685 298.36 104.101 300.919 95.267 306.358 C 86.433 311.797 76.416 322.399 76.416 322.399 C 76.416 322.399 83.945 309.704 92.586 303.977 C 101.227 298.25 110.422 295.535 110.422 295.535 C 110.422 295.535 92.586 290.906 78.563 294.446 C 64.54 297.986 51.878 304.657 51.878 304.657 C 51.878 304.657 62.792 290.734 79.483 287.433 C 96.174 284.132 112.736 290.09 112.736 290.09 C 112.736 290.09 106.201 273.071 94.628 271.846 C 83.055 270.621 68.352 274.977 68.352 274.977 C 68.352 274.977 83.604 263.108 97.351 266.536 C 111.098 269.964 115.187 287.775 115.187 287.775 C 115.187 287.775 123.453 265.02 137.924 261.226 C 152.395 257.432 164.745 265.31 164.745 265.31 C 164.745 265.31 149.905 259.728 138.605 265.174 C 127.305 270.62 118.863 289.136 118.863 289.136 C 118.863 289.136 132.16 279.519 156.032 281.512 C 179.904 283.505 184.623 288.592 184.623 288.592 C 184.623 288.592 174.684 285.188 154.262 286.005 C 133.84 286.822 122.811 291.859 122.811 291.859 C 122.811 291.859 144.867 291.451 158.346 302.888 C 171.825 314.325 175.229 326.577 175.229 326.577 C 175.229 326.577 164.609 313.371 153.036 306.291 C 141.463 299.211 122.403 299.075 122.403 299.075 C 122.403 299.075 112.885 331.759 95.599 357.799 C 78.313 383.839 50.252 405.616 50.252 405.616 L 32.978 394.092 Z"/>
  <path style="fill: rgb(74, 14, 14); stroke: rgba(0, 0, 0, 0);" d="M 68.303 294.41 L 55.938 295.558 L 64.24 292.555 L 61.326 292.202 L 72.983 290.524 L 66.89 290.082 C 66.89 290.082 77.399 288.846 77.399 288.757 C 77.399 288.668 72.63 287.433 72.63 287.433 L 83.581 287.433 C 83.581 287.433 79.077 286.373 79.077 286.285 C 79.077 286.197 89.587 286.991 89.587 286.991 L 86.937 285.313 L 100.273 287.521 L 95.857 285.49 L 114.139 290.171 L 86.584 290.082 L 68.303 294.41 Z"/>
  <path style="fill: rgb(74, 14, 14); stroke: rgba(0, 0, 0, 0);" d="M 136.537 297.105 L 126.001 295.957 L 133.147 298.96 L 130.684 299.313 L 140.636 300.991 L 135.478 301.433 C 135.478 301.433 144.44 302.669 144.443 302.758 C 144.446 302.847 140.438 304.082 140.438 304.082 L 149.735 304.082 C 149.735 304.082 145.945 305.142 145.948 305.23 C 145.951 305.318 154.848 304.524 154.848 304.524 L 152.653 306.202 L 163.904 303.994 L 160.221 306.025 L 175.59 301.344 L 152.198 301.433 L 136.537 297.105 Z" transform="matrix(-0.944108, -0.329637, 0.329637, -0.944108, 193.915761, 635.038761)"/>
  <path style="fill: rgb(74, 14, 14); stroke: rgba(0, 0, 0, 0);" d="M 133.05 279.492 L 122.514 278.344 L 129.66 281.347 L 127.197 281.7 L 137.149 283.378 L 131.991 283.82 C 131.991 283.82 140.953 285.056 140.956 285.145 C 140.959 285.234 136.951 286.469 136.951 286.469 L 146.248 286.469 C 146.248 286.469 142.458 287.529 142.461 287.617 C 142.464 287.705 151.361 286.911 151.361 286.911 L 149.166 288.589 L 160.417 286.381 L 156.734 288.412 L 172.103 283.731 L 148.711 283.82 L 133.05 279.492 Z" transform="matrix(-0.987704, 0.156336, -0.156336, -0.987704, 337.121698, 540.417839)"/>
  <path style="stroke: rgba(0, 0, 0, 0); fill: rgb(74, 14, 14);" d="M 86.959 311.487 L 86.628 311.569 L 79.016 315.541 L 85.139 310.577 L 81.416 310.659 L 89.938 305.86 L 86.546 305.612 L 98.212 301.558 L 94.737 301.475 L 105.659 297.586 C 105.659 297.586 102.184 297.09 102.267 297.09 C 102.35 297.09 112.775 295.104 112.775 295.104 C 112.775 295.104 102.515 301.061 102.432 301.061 C 102.349 301.061 90.103 307.929 90.103 307.929"/>
  <ellipse style="stroke: rgba(0, 0, 0, 0); fill: rgb(74, 14, 14);" cx="122.633" cy="305.235" rx="6.787" ry="6.787"/>
  <ellipse style="stroke: rgba(0, 0, 0, 0); fill: rgb(74, 14, 14);" cx="109.115" cy="299.234" rx="6.787" ry="6.787"/>
  <path style="fill: rgb(74, 14, 14); stroke: rgba(0, 0, 0, 0);" d="M 116.241 284.749 L 118.58 276.446 L 118.931 278.434 L 125.012 266.857 L 124.427 272.237 L 130.625 261.478 C 130.625 261.478 130.508 264.285 130.508 264.168 C 130.508 264.051 138.577 257.97 138.577 257.97 C 138.577 257.97 136.589 260.543 137.057 260.543 C 137.525 260.543 148.985 257.268 148.985 257.268 L 146.412 258.672 L 158.807 259.724 C 158.807 259.724 150.739 260.66 150.739 260.543 C 150.739 260.426 142.085 261.01 142.085 261.01 L 132.964 264.869 C 132.964 264.869 128.052 269.664 127.935 269.664 C 127.818 269.664 116.241 284.983 116.241 284.749 Z"/>
  <path style="fill: rgb(74, 14, 14); stroke: rgba(0, 0, 0, 0);" d="M 82.679 269.664 L 73.441 269.196 C 73.441 269.196 85.252 267.325 85.252 267.208 C 85.252 267.091 82.562 265.22 82.562 265.22 C 82.562 265.22 94.256 266.974 94.256 266.857 C 94.256 266.74 92.385 263.817 92.736 263.934 C 93.087 264.051 102.91 268.26 102.91 268.26 C 102.91 268.26 103.495 265.805 103.378 265.805 C 103.261 265.805 109.225 275.16 109.225 275.043 C 109.225 274.926 110.628 274.224 110.628 274.224 L 112.733 281.826 L 105.833 273.406 L 97.063 269.079 L 82.679 269.664 Z"/>
</svg>