<svg version="1.1" id="Layer_1" xmlns="http://www.w3.org/2000/svg" x="0" y="0" viewBox="0 0 246.2 64.4" xml:space="preserve"><style>.st0{fill:#fff}</style><path class="st0" d="M93.6 64.4c-4.6 0-8.4-3.1-9-7.4-2-3-1.9-7 .3-10.7-.3-.2-.5-.5-.8-.7l-1.9 1.2c-1.8 1.1-4.4 1.8-6.8 1.8-2.7 0-5-.8-6.5-2.3l-.3-.4c-.1-.2-.3-.3-.4-.5l-2.3 1.4c-1.8 1.1-4.4 1.8-6.8 1.8-2.7 0-5-.8-6.5-2.3l-.3-.4c-.6-.7-1.1-1.5-1.4-2.4-2.8 3.1-7.1 5-11.7 5-5.6 0-11.8-2.9-13.5-9.3-.6.2-1.1.5-1.6.6-.2 1.2-.4 2.8-.6 4.4-.7 5.7-1.5 12.8-4.9 15.7l-.1.1-.5.4c-3 1.7-5.7 2.6-8.2 2.6-4.3 0-7.4-2.7-8.3-7.1-1.7-2.7-2-6.6-.7-10.5 1.7-5.3 5.9-9.7 11.6-12.1l.4-2.9.1-.5c.4-3.7.8-6.9 1.2-9.8-.5.1-1 .1-1.5.1-5.5 0-10-3.3-10.4-7.6C-.2 9.4.4 5.7 3.5 2.5 5.2 1 7.1.3 9.4.3c2.2 0 4.6.6 6.8 1.2 2.1.6 4.3 1.1 6.3 1.1 1.8 0 3.1-.5 4.3-1.4l.4-.2h.5c1.8.1 3 1.9 3.3 4.8.6.8.9 2.2 1.1 4.6.2.9 0 1.5-.4 2-.3.3-.7.6-1.4.6-.3 0-.6-.1-.9-.1-.2 0-.4-.1-.6-.1h-.1c-.4.2-1.2 1.7-2.2 9.6 2.9-4.2 8.4-7 14-7 4.3 0 8 1.6 10.5 4.5.1-.9.2-1.8.2-2.8.4-5.8.9-13 5.7-15.8l.1-.1.2-.1c1.9-.6 3.7-.9 5.2-.9 3.9 0 6.5 1.8 7.4 5.2.8-1.6 1.9-3 3.3-4.1l.2-.1.3-.1c1.9-.6 3.7-.9 5.2-.9 4.5 0 7.3 2.5 7.7 6.9 1.1 2 1.4 4.9.6 8.3.5-.1.9-.1 1.3-.1 1.8 0 3.1.5 4.1 1.4.8.8 1.2 2 1.2 3.4v.2c.1.1.3.3.4.5.8.8.8 2.8-.6 12.7-.2 1.1-.3 2.2-.4 3h.2c.7 0 1.9-.4 2.5-1.4.3-1.5.4-3.6.6-5.8.4-6.3.8-14 7.4-14 .7 0 1.6.1 2.4.3-.1-.2-.1-.5-.2-.7-2-3.1-2.3-6.4-.7-9.2C107 2.4 111 .2 114.8.2c3.3 0 7.2 1.9 7.9 7.2.8 1.2 1.3 2.8 1.2 4.5-.3 3.5-.8 6.7-1.3 10.1-.4 2.5-.8 5.1-1.1 7.9-.1 1.3-.3 2.5-.5 3.7-.2 1.1-.4 2.1-.5 3.1h.1c3.4 0 4.7-15.6 5.3-23.1.4-4.8.7-8.6 1.3-10.2l.1-.1.1-.2c1.2-1.5 3.2-1.6 5-1.7H133.3c1.8 0 3.2.5 4.1 1.5.7.9 1.1 2 1 3.4 1 .9 1.3 2.3.9 3.8-.5 4.4-1.2 9-1.9 13.5-.7 4.7-1.4 9.2-1.8 13.2.8-.2 1.8-1 2.3-2.2 4.5-9.7 4.5-22.6 4.1-31.5v-.8l.7-.3c2.2-1.1 4.1-1.7 5.6-1.7 2 0 4.6 1 5.1 5.6 1.9 2.6 1.3 7.3.5 12 2.5-1.4 5.5-2.1 8.5-2.1 3.9 0 7.4 1.3 9.7 3.7l.4.4c.6.6 1.2 1.3 1.6 2.1l.5-4.4.3-.3c1.2-1.1 3.3-1.5 4.9-1.5 1.9 0 3.5.5 4.4 1.4 1.2-.9 2.8-1.3 4.4-1.3 2.4 0 4.8 1 6.2 2.6 0-.5.1-1 .1-1.6.4-5.7 1-12.7 5.7-15.2l.1-.1c2-.6 3.8-.9 5.3-.9 4.5 0 7.3 2.5 7.7 6.9 3.4 5.8-1.7 17.1-8 21.6-.1 1.1-.3 2.5-.5 4s-.4 2.9-.5 4.1c1.3-.4 3.1-2 3.9-3.4-.4-4.6 1.1-9.2 4.2-12.6 3.2-3.5 7.6-5.6 12.2-5.6 1 0 2.1.1 3.1.3l1.4-11.8v-.1c.9-2.6 4.1-3.5 6.6-3.5 1.4 0 2.7.3 3.7.8l.6.4v.7c0 .6-.1 1.3-.1 2.1.6.3 1.1.7 1.3 1.4l.1.2v.3c-.4 3-.9 6.4-1.3 10l-.4 3.3c-.1 2.7-.7 6.1-1.3 9.5-.4 2.6-.8 5.1-1 7.2.9-.9 1.6-2.5 2.2-4.2.3-.6.5-1.2.8-1.8l.5-1 1 .4c2.4.9 3.6 2.7 3.5 5.1.9 1.3 1.2 2.9.8 4.7-.8 3.5-4.1 7-6.6 8.1h-.1c-.3.2-.7.3-1 .4l-.5.2v-.1c-.9.3-1.9.4-2.9.4-2.6 0-4.9-.9-6.4-2.5-1.9 1.6-4.4 2.5-7.1 2.5-3.2 0-6.3-1.3-8.5-3.5l-.3-.3-.1-.1-3.4 2.1c-1.8 1.1-4.4 1.8-6.8 1.8-2.7 0-5-.8-6.5-2.3l-.3-.3v-.2c-.9-1.5-1.5-2.7-1.8-4-2-3.3-1.6-7.5-.9-11.9-.9.4-1.7.6-2.4.6-.3 0-.6 0-.9-.1.3.8.5 1.5.7 2.3 2 3.5 2 7.4.1 10.7-1.9 3.3-5.5 5.5-9 5.5-3.8 0-6.6-2.6-7.5-6.9 0 0-.1 0-.1-.1-2.8 4.1-7.9 6.6-13.4 6.6-2.2 0-9.4-.5-12.5-7.3-2.1 4.3-7.3 7.4-12.3 7.4-3.2 0-5.9-1.2-7.8-3.5-2.1 2.2-5.5 3.5-9 3.5-1.7 0-3.3-.3-4.7-1 .6 2.8-.5 5.2-3 6.7l-1.4.8-.4-1.6c-.1-.7-.3-1.3-.5-1.9l-.3.1-.4-1.4-.3-1.2c-.4-.8-.9-1.4-1.5-1.9-.3 7.5-2.8 11.6-4.9 13.7-2.5 2.2-5.3 3.4-8.2 3.4zM92 53.1h.4c.1 0 .5 0 .7-.2l.1-.2c.1-.1.3-.6.7-2.4-1 1-1.6 1.9-1.9 2.8zM8.4 51.4c.1.1.2.2.3.2.3 0 1.1-.5 1.8-2.2l.3-1.9c-1.4 1.3-2.2 2.6-2.4 3.9zm204-6.8c-.1-.1-.1-.2-.2-.2l-.2.2h.4zm-49.6-18.2c-.7 0-1.9.4-3.7 2.4-1 1.8-1.6 4.6-1.5 7.1.4.7 1 1.7 1.9 1.7.8 0 1.7-.6 2.6-1.6 1.5-1.8 2.8-5 2.3-8.2-.3-1-.9-1.4-1.6-1.4zm-122.3.1c-1 0-2 .8-2.9 2.2l-.1.2c-1.4 2.4-1.9 5-1.5 7.3.6.7 1.3 1.2 2.4 1.2 1.1-.1 2-.7 2.8-1.7 1.4-1.8 2-5 1.6-8-.8-.8-1.6-1.2-2.3-1.2zM107.7 37c-.1-1.1-.1-2.2.2-3.4v-.1l1.6-12.1-.2-.2c0 1.4-.5 4.6-1.6 12.9l-.4 2.8c.2 0 .3 0 .4.1zm-45.8-8.2c-.1.7-.2 1.5-.3 2.3-.2 1.9-.5 4-.6 5.9.5-.2 1.5-.8 3.1-2.5 1.8-2.7 2.5-6.3 2.7-10.9-1.4 2.2-3.1 3.9-4.9 5.2zm16.3 0c-.1.5-.1 1.1-.2 1.7-.3 2.2-.6 4.5-.7 6.5.5-.2 1.5-.8 3.1-2.4.9-2.5 1.2-5.7 1.4-8.8v-.4c-1.1 1.4-2.3 2.5-3.6 3.4zm142.1 7.1c.5.5 1.2.8 1.9.8 1.5 0 2.7-1.3 3.4-3.4l.8-7c-1.3 0-2.5.5-3.4 1.5-1.7 1.7-2.7 4.7-2.7 8.1zm-32.6-9.1c.2.3.4.5.5.8v-.2c0-.3-.1-.5-.3-.6h-.2z"/><path class="st0" d="M93.6 64.2c-4.6 0-8.3-3-8.8-7.2-2-3-1.8-7 .3-10.8-.4-.3-.7-.6-1-.9L82 46.6c-1.8 1.1-4.3 1.8-6.7 1.8-2.6 0-4.9-.8-6.3-2.3l-.3-.3c-.2-.2-.4-.5-.6-.7l-2.5 1.5c-1.8 1.1-4.3 1.8-6.7 1.8-2.6 0-4.9-.8-6.3-2.3l-.3-.3c-.7-.8-1.2-1.7-1.5-2.7-2.7 3.2-7 5.2-11.7 5.2-5.6 0-11.8-2.9-13.4-9.4-.7.3-1.4.6-1.9.8-.2 1.2-.4 2.9-.6 4.6-.6 5.7-1.4 12.8-4.9 15.6v.1l-.5.3c-2.9 1.7-5.7 2.6-8.1 2.6-4.2 0-7.3-2.7-8.1-6.9C0 53.1-.3 49.3 1 45.4c1.7-5.3 5.9-9.7 11.6-12.1l.4-3 .1-.5c.4-3.8.8-7.1 1.2-10.1-.6.1-1.2.1-1.8.1-5.4 0-9.9-3.3-10.2-7.5C.2 9.3.7 5.6 3.8 2.4 5.4 1 7.3.3 9.6.3c2.2 0 4.5.6 6.8 1.2 2.1.6 4.4 1.2 6.3 1.2 1.8 0 3.2-.5 4.4-1.5l.3-.3h.4c1.7.1 2.9 1.8 3.1 4.7.6.8.9 2.2 1.1 4.5.1.5.2 1.3-.3 1.9-.2.2-.6.5-1.2.5-.3 0-.6-.1-.8-.1-.2 0-.5-.1-.7-.1h-.2c-1 .5-1.9 6.1-2.5 10.7 2.9-4.9 8.8-7.7 14.3-7.7 4.4 0 8.2 1.7 10.6 4.8.1-1 .2-2.2.3-3.3.4-5.7.9-12.9 5.6-15.7l-.1.3h.1C59 .8 60.8.5 62.3.5c4 0 6.6 2 7.3 5.6.9-1.8 2-3.3 3.5-4.5l.2-.1.2-.1c1.9-.6 3.6-.9 5.2-.9 4.4 0 7.1 2.5 7.5 6.8 1.2 2.1 1.4 5.1.5 8.5.6-.1 1.1-.1 1.6-.1 1.7 0 3 .5 3.9 1.4.8.8 1.2 1.9 1.1 3.3V20.7c.1.2.3.3.4.5.8.8.7 3-.7 12.6-.2 1.2-.4 2.4-.4 3.2h.4c.8 0 2-.4 2.7-1.5.4-1.6.5-3.7.6-5.9.3-6.2.8-13.8 7.2-13.8.8 0 1.7.1 2.7.4-.1-.3-.2-.7-.3-1.1-2-3.1-2.3-6.3-.8-9.1 1.7-3.2 5.6-5.4 9.4-5.4 3.3 0 7 1.8 7.7 7 .9 1.3 1.2 2.8 1.2 4.4-.3 3.5-.8 6.7-1.3 10.1-.4 2.5-.8 5.1-1.1 7.9-.1 1.3-.3 2.5-.5 3.7-.2 1.1-.4 2.2-.5 3.3.1 0 .2 0 .3.1 3.6 0 4.8-15.2 5.5-23.3.4-4.8.7-8.6 1.3-10.1l.1-.1.1-.1c1.1-1.4 3.1-1.5 4.8-1.6H133c1.8 0 3.1.5 3.9 1.5.7.8 1 2 .9 3.4 1 .9 1.3 2.2.9 3.7-.5 4.4-1.2 9-1.9 13.5-.7 4.8-1.5 9.4-1.8 13.4.9-.1 2.1-.9 2.7-2.4 4.6-9.7 4.5-22.7 4.1-31.6v-.6l.6-.3c2.2-1.1 4-1.6 5.5-1.6 2 0 4.4 1 4.9 5.4 1.9 2.6 1.3 7.6.5 12.3 2.6-1.5 5.6-2.3 8.7-2.3 3.8 0 7.2 1.3 9.6 3.7l.3.3c.8.8 1.4 1.7 1.9 2.6l.6-5 .3-.3c1.1-1 3.2-1.4 4.7-1.4 2 0 3.5.5 4.4 1.4 1.2-.9 2.8-1.4 4.4-1.4 2.4 0 4.9 1.1 6.2 2.7l.2.2c.1-.7.1-1.4.2-2.1.4-5.6 1-12.6 5.5-15h.2c1.9-.6 3.6-.9 5.2-.9 4.4 0 7.1 2.5 7.5 6.8 3.3 5.8-1.7 17.1-8 21.4-.1 1.1-.3 2.6-.5 4.2-.2 1.5-.4 3-.5 4.3 1.3-.2 3.5-2 4.3-3.6-.4-4.6 1.1-9.1 4.1-12.5 3.1-3.5 7.5-5.5 12.1-5.5 1.1 0 2.2.1 3.3.3l1.5-12v-.1c.8-2.5 4-3.4 6.4-3.4 1.4 0 2.7.3 3.6.8l.5.3v.6c0 .7-.1 1.4-.1 2.2.5.2 1 .6 1.3 1.3l.1.2v.2c-.4 3-.9 6.4-1.3 10l-.4 3.3c-.1 2.7-.7 6.1-1.3 9.5-.5 2.8-.9 5.5-1.1 7.7 1.2-.9 1.9-2.7 2.7-4.6.2-.6.5-1.2.7-1.8l.4-.8.9.3c2.3.8 3.5 2.6 3.3 5 .9 1.3 1.2 2.9.8 4.6-.8 3.4-4 6.9-6.5 7.9h-.1c-.3.2-.7.3-1 .4l-.3.1c-1 .3-2 .5-3.1.5-2.7 0-5-1-6.4-2.6-1.9 1.7-4.4 2.6-7.1 2.6-3.2 0-6.2-1.2-8.3-3.4l-.3-.3c-.2-.2-.4-.4-.5-.6-.2.3-.5.5-.8.8h.5l-3 1.9c-1.8 1.1-4.3 1.8-6.7 1.8-2.6 0-4.9-.8-6.3-2.3l-.3-.3v-.1c-.9-1.5-1.5-2.8-1.8-4-2.1-3.4-1.5-7.8-.8-12.2-.8.4-1.8.7-2.6.7-.6 0-1-.1-1.3-.3.4.9.7 1.8.9 2.8 2 3.5 2 7.3.1 10.5s-5.4 5.4-8.8 5.4c-3.7 0-6.4-2.5-7.3-6.7-.1-.1-.2-.3-.3-.4-2.7 4.2-7.8 6.8-13.4 6.8-4.7 0-10.2-2-12.4-7.6-2 4.4-7.2 7.7-12.3 7.7-3.2 0-5.9-1.3-7.8-3.6-2 2.2-5.5 3.6-9 3.6-1.9 0-3.5-.4-5-1.1.8 2.9-.2 5.4-2.8 6.9l-1.2.7-.3-1.3c-.2-.8-.4-1.5-.6-2.2l-.3.1-.3-1.2-.3-1.2c-.5-1-1.1-1.7-1.9-2.2-.2 7.6-2.7 11.8-4.9 14-2.2 1.6-5 2.8-7.8 2.8zm-1.8-10.9c.2.1.4.1.6.1.2 0 .6 0 .8-.3l.2-.3c.2-.2.4-.9.8-3-1.3 1.2-2.1 2.4-2.4 3.5zM8.2 51.5c.1.2.3.3.6.3.5 0 1.3-.6 2-2.4l.3-2.6c-1.8 1.7-2.7 3.2-2.9 4.7zm149.2-15.6c.4.9 1.1 1.9 2.1 1.9.8 0 1.8-.6 2.8-1.7 1.6-1.9 2.9-5.1 2.4-8.4-.5-1-1.1-1.4-1.9-1.4-.7 0-2 .4-3.8 2.5-1 1.7-1.7 4.6-1.6 7.1zm-121.6.3c.6.9 1.5 1.3 2.6 1.4 1.2-.2 2.1-.8 2.9-1.8 1.4-1.9 2-5.1 1.6-8.2-.7-.8-1.6-1.3-2.4-1.3-1.1 0-2.1.8-3 2.3l-.1.2c-1.5 2.4-2 5-1.6 7.4zm71.4.7c.3.1.5.3.8.5-.2-1.2-.2-2.4.1-3.8v-.1l1.6-12.2-.6-.6c.1 1-.3 3.7-1.6 13.3l-.3 2.9zm-45.4-8.3c-.1.7-.2 1.5-.3 2.3-.3 2.1-.6 4.3-.7 6.3.5-.1 1.6-.7 3.5-2.6 2.1-3.1 2.6-7.2 2.8-11.7-1.5 2.4-3.4 4.4-5.3 5.7zm16.2 0c-.1.6-.2 1.2-.2 1.8-.3 2.2-.7 4.7-.7 6.8.5-.1 1.5-.7 3.4-2.5 1-2.6 1.2-5.8 1.5-8.9 0-.3.1-.7.1-1-1.3 1.6-2.6 2.9-4.1 3.8zM220.1 36c.6.6 1.3 1 2.1 1 1.6 0 2.9-1.3 3.5-3.5l.9-7.3h-.2c-1.4 0-2.6.5-3.6 1.5-1.7 1.7-2.7 4.8-2.7 8.3zm-32.8-9.3c.4.5.7 1 1 1.5 0-.2 0-.5.1-.7 0-.3-.1-.7-.3-.8h-.4c-.1-.1-.2-.1-.4 0zm-79-7c-.1-.1-.2-.2-.3-.4v.3c.1 0 .2.1.3.1z"/><path d="M58.8 5.8c-6.1 3.9-4.3 15-5.8 21.3-5.4-11.9-25-7.3-26.2 5.2-.8.3-1.8.8-2.8 1.2.9-2.8 1.6-20.3 4.4-21.8 1.2-.5 3 1.1 2.6-1.3-.6-8.1-2.8-2.8-7.9-3-5-.3-12.9-4.9-17.3-.7-7.5 7.9 3.9 15 11.7 11.1-1 6.2-1.7 13-2.5 19.7-18.3 7.1-15.1 32 2.6 21.8 4.7-3.1 4.5-15.3 5.6-20.4.7-.3 2.3-.9 3.5-1.4 1.6 11.8 19.5 13 24.9 3.1.1 2 .8 3.6 2 4.8 2.7 2.8 8.5 2.3 11.7.3 1.2-.7 2.2-1.5 3.1-2.5.3.8.8 1.5 1.4 2.1 2.7 2.8 8.5 2.3 11.7.3 1-.6 1.9-1.2 2.7-2 1.2 1.9 3.1 3 5.5 3.4-14.6 16.7 16 26.5 15.6-1.9 3 1 4.5 4 5.4 8 6.2-3.6-.1-12.2-4.8-12.6-.1-.3 2.7-19.6 2.4-19.9-11.8-4.3-8.5 12-10.2 18.4-1.9 3.4-7.6 2.9-6.3-1.7 0-1.3 2.5-14.9 1.4-15.7-1.6-2.4-4.8-1.7-7.4-.9-1.2 4.5-1.2 9.9-2 14.4-.2 1.5.1 2.6-.9 3.6-9 9.1-6.3-4.2-5.5-10.6C87 22 92.5.5 75.2 5.8c-8.7 6.9-2.8 25.8-8.6 33-9.2 9.1-6.2-4.1-5.5-10.6C70.6 22 76.1.5 58.8 5.8m4.2 6s0-.1 0 0c.3-1.7 2.4-1.7 2.7 0 .4 3.2-1.1 6-4 9.5v-.4c.3-1.1.9-7.9 1.3-9.1M45.5 33c-1.8 17.2-15.7 6.7-8.7-5 3.9-6.1 9.5-.8 8.7 5m36.6-21.3c.4 3.2-1.1 6-4 9.5v-.4c.2-1.1.8-7.9 1.2-9.1.4-1.7 2.5-1.6 2.8 0m-68.9 1.2c1.1.3 2.2.6 3.3.8-5.2 3.7-10.6-3-3.3-.8M13 52.7c0 2.7-3.3 4.2-5 2-2.1-4.3 1-7.9 6.2-11.3L13 52.7m83.7-.8c-.3 3.9-1.6 7.2-5 4.8-2.3-3.8.9-7.3 5.6-10.1l-.6 5.3m47.9-40.2c-.4 8.7-.6 20.4-5.6 28-1.7 2.4-5.3 1.8-5-1.2.5-8.2 2.8-19 3.8-28.8 1.1-4.5-5.6-4.4-8.3-3-.6.1-3.5 27.4-3.7 27.7 0 4.1-3.7 9.5-6.6 5.3-.7-3.1.5-6.4.8-10.1.7-6.4 2-11.8 2.4-17.9.4-7-8.7-8.7-13.3-4.8-4.8 4.5-2.1 11.4 3.4 15.2-.1 5.4-4.6 18.6.2 22.8 3.8 4.1 12.5 2.7 15.4-1.9 4.5 7.7 16.3 4.1 19.3-3 .4-.7.7-1.3 1-2.1 2.7 13.9 24.7 11.6 26.7-1.9-2 23.3 28.2 6.7 9.8-8 1-2.5 4.7-3.5 4.8-.3-.8 2.8 3.4 1.2 4.4.3 5.6-6-5.1-10.7-9.2-5.8-.5-2.8-6.1-2.4-8-1.1L175.7 32c.6-12.1-15.9-15.4-23.1-7.7l-1.1 1.1c-.1-5.6 5.2-19.9-1.8-20.6-6.4.3-5.7 1.4-5.1 6.9M158.5 28c11.7-12.8 11 22.5-.6 12.2-2.2-3.3-1.2-9.2.6-12.2m25.3 4.7c5.1 3.9 1.1 13-.9 7 0 0 .3-2.3.9-7m-72.1-22c0-.1 0-.1 0 0 3.2-2.4 1.7 4.1 1.6 5.7-1.6-2-2.7-3.8-1.6-5.7m125.4-5.8c-2.1 0-4.7.7-5.3 2.5l-1.6 13.2c-10.4-2.9-20.5 5.3-19.3 16.5-1.2 2.7-6.6 7.2-7.8 2.6-.1-1.3.9-8.6 1.2-11.7 9.6-6.1 15.1-27.6-2.2-22.3-4.8 2.4-4.4 11.2-5.2 15.9-.8 15.2-4.4 16.9 0 23.8 2.7 2.8 8.5 2.3 11.7.3 1.5-.9 2.8-2 3.8-3.4.4.7.9 1.3 1.5 1.8 3.9 4 11.2 4.3 14.8-.1 1.6 3.1 6.8 4.1 10.3 2.2 3.6-1.5 9.2-9 3.9-12.3-1.4 1.9-1.8 4.8-3.1 5.9-7.3 7.1-1.9-11.3-1.4-20.7.6-4.7 1.2-9.4 1.8-13.3-.2-.9-1.7-.8-3.1-.9m-30.8 6.9s0-.1 0 0c.3-1.7 2.4-1.7 2.7 0 .4 3.2-1.1 6-4 9.5v-.4c.3-1.1.9-7.9 1.3-9.1m13 24.4c0-6.6 3.4-13 10.3-10.5l-1.4 11.4c-1.4 6.1-9.3 5.6-8.9-.9z"/><path d="M73.9 2.3c-8.9 7.4-2.6 24.3-8.7 33-9.1 9.1-5.8-5-5.2-10.5C70 18.3 75-3 57.6 2.3c-5.9 3.5-4.5 15.2-5.8 20.9-5.8-11.6-25-6.7-26.3 5.6-.8.4-1.6.7-2.5 1.2.5-2 2.2-19.6 3.6-20.8.8-1.6 2.2-.2 3.3-.6.4-1.8 0-6.3-2.1-6.4C21.3 7.7 11-2.3 4.6 3.3c-7.5 7.8 3.6 15.3 11.6 11.4-.8 4.9-1.4 10.2-2 15.3l-.5 4.1c-18.3 7.1-15.2 32.3 2.8 22 4.7-3.1 4.5-15.3 5.6-20.4.7-.3 2.1-.9 3.3-1.3 1.9 11.7 19.3 12.9 24.9 3.3.2 1.9.8 3.4 2 4.5 3 2.9 8.5 2.4 11.9.4 1.1-.7 2.1-1.4 3-2.4.3.7.8 1.4 1.4 2 3 2.9 8.5 2.4 11.9.4 1-.5 1.8-1.2 2.6-1.9.3.4.6.8 1 1.2 1.2 1.1 2.6 1.8 4.2 2.1-4.1 3.9-5.3 10.2-1.3 13.9 3.7 3.3 10.8 2.4 13.4-1.4 3-3.3 3.4-9.9 4-14.4 3.2 1.3 4.2 4.2 5.2 8 6.3-3.1.7-12.2-4.6-12.9-.1-.3 2.7-19.6 2.4-19.9-11.9-4.6-8.9 11.5-10.6 18.3-1.9 3.2-7.3 2.9-6.1-1.6l1.8-13.8c.1-4.4-4.8-4-7.9-2.9-1.9 5.5-.8 12.7-3 18.1-9.1 9.1-5.8-5-5.2-10.5C86.2 18.3 91.2-3 73.9 2.3m-15.7 1c13.3-4.4 11.7 11.8 3.7 18.4-2.9 1.9-3.2 4.8-3.4 8-.2 3.4-1.3 6.4-.2 8.4 16.1 6.5 7.3-29.5 16.2-34.8 16.5-4.4 9.3 15.3.8 21.2 0 4.2-2.1 10.4-.7 13.6 2.2 2.5 5.8.7 7.9-2.1 2.2-5.3 1.6-12 2.8-17.8 2.3-.6 6.2-1.3 6.2 1.9l-1.7 13.8c-1.5 5.7 5.6 6.6 8.1 2.3 1.6-4.2-.3-15.3 3.7-17.9 1.9-.8 3.2-.6 4.9-.3-.1.4-2.4 19.2-2.5 19.6-.1.3.2.6.4.6 4.3.6 9.1 6.2 5.9 10.2-.7-3.3-3.1-7.6-6.7-7.4-.9 4.4-.9 11.6-4 14.8-3.6 5-14.5 3.7-13.9-3.8-1-3.4 5.6-8.5 4-9.1-2.9-.2-4.8-1.5-6.1-3.7-3.6 2.7-9.7 6.1-14.1 2.2-1-.6-.9-2.6-2-2.8-3.3 3.8-9.9 6.5-14.3 2.8-2.5-1.6-.8-6.8-2.4-6.4-.9 1.3-1.6 2.9-2.8 4.1-6.3 7-20.5 4.6-21.5-5.4-.1-1.4-5.3 1.3-5.3 1.6L19.4 48C17.3 64.5-5 57.3 4.5 43c1.8-3.1 6.1-5.5 10.3-8.4.9-6.7 1.6-14.2 2.6-20.6-.9-1.5-4.9 1.3-7 .6-5.8.6-9.6-6.7-5.1-10.5 6.3-5 16.3 4.5 22.7-.8.1.1.1.3.2.4.6 1.2.8 2.4.8 3.8-1.3-.3-2.2-.2-3.2 1.1-1.7 1.9-3.5 20-3.9 22.6 8.1.3 3.2-13.3 18.9-13.4 5.4-.1 9.6 3.4 11 8.3 3.7-4.6-.3-18.6 6.4-22.8M97 42.5c-5.2 2-10.2 7.6-6.9 12 1.3 1.4 4.3 1.5 5.3-.4.6-.7 2.6-10.6 1.6-11.6m-6.9 9c.1-2.8 2.1-5.3 6.1-7.5-.3 2.2-.7 8.2-1.7 9.5-.7 1.3-2.8 1.1-3.7.2-.5-.5-.7-1.2-.7-2.2M14.3 39.3c-4.3.8-8.7 6.1-8.7 10.2-.3 3.4 3.6 5.6 6.1 3.3 1.9-1.6 2.4-11.2 2.6-13.5M12 49.7c-3.5 8.7-10.3-3 1.2-9l-1.2 9M17 10c-2.5-.8-10.9-4.4-9 .9 1.7 2.4 7.3 2 9-.9m-8.3 0c.1-2.3 4.5.4 6.3.4-2.1 1.1-5.2 1.7-6.3-.4m31 11c-6.7.6-8.2 11.5-5.4 16.4 7.6 8.4 14.1-7.7 9.7-13.8-.9-1.7-2.4-2.6-4.3-2.6m3.4 3.1c2.3 4.3 1.5 13.8-4.4 14.5-9.5-.3-3.1-23.2 4.4-14.5M76.9 10c-.3 1.6-.8 6.6-.9 7.4-.8 7.3 7-6.9 5.9-7.4.8-5.1-5.1-5-5 0m1.4-1.5c.4-1.8 2.6-1.5 2.5.5 0 3-1.2 5.4-3.7 8.6.2-1.7.6-7.1 1.2-9.1M63.2 6.2c-3.8.6-2.6 9-3.4 11.3-1.2 8.4 11.1-11.7 3.4-11.3M62 8.5c.4-1.8 2.6-1.4 2.5.5 0 3-1.2 5.4-3.7 8.6.3-1.7.6-7.1 1.2-9.1m81-5.7c.4 9.8.3 22.4-4.2 32-1.4 3.3-5.7 4.5-5.8.4.7-9.6 2.7-18.1 3.8-28.8.4-2.5-.9-4-4-4-1.8.1-3.9.1-4.8 1.3-1.7 4.4-1.2 34.1-7.8 34.1-5.4-.3.9-19.5.5-23.6 5.7-23.6-29-10-9.5 4.7l-2 15c-2.1 10.6 12.3 13.7 17.7 6.1 4.7 7.6 16.3 4 19.4-3.2.3-.5.6-1.1.8-1.7 3 12.9 23.1 11.5 26.4-.7-1.7 8.2 7.6 13 13.5 7.5 4.8-4.7 2.1-13.5-3.2-17.2.9-2.3 4.4-3.3 4.5-.3-.9 3 3.6 1.4 4.6.4 5.7-6-4.8-11-9.2-6.1-.6-2.5-6.5-2.4-8.2-.8l-1 9.2c-.3-2.7-1.5-5-3.4-6.9-5.4-5.4-16-3.9-20.6 1.7.7-8.5 6-25.9-7.5-19.1m1.4 7.2c.1-2.2-.1-4.7-.5-6.5 16.1-8.6-1 30.1 8.1 18.2 13-11.8 29.4 4.2 17.6 17.4-6.5 7.3-21.2 4.4-21.6-6.2-1.2-1.8-1.9 2.8-2.6 3.3-3.4 7.6-14 9.5-18.5 2.2-4.4 7.5-18.4 5.7-16.5-4.5l2-15.3c-1.5-1.9-4-3.4-4.8-5.4-6.4-11.4 15.1-15.7 12.6-2.7-.5 8.4-4.2 18.6-2.8 26.9 3.4 3.6 7.5.2 8.1-5.8.1-.5 3.4-27 3.5-27.5 2-.9 7.5-1.4 6.7 2.2-1.2 10.8-3.1 19.2-3.8 28.9-.1 5.1 5.9 4.8 7.8.2 3.7-7.4 4.3-17.7 4.7-25.4m30.3 25.8c-.2-.1 1.9-17 1.9-17.6 1.9-.5 6.3-1.3 6.2 1.5 0 .3.3.6.7.5 5.5-6.9 16.1 2 6 4.6 1-5.2-7-4-6.6.3 10.5 6.1 4.7 24.1-6.7 15.9-1.1-1.4-1.5-3.1-1.5-5.2m10.7-4.1c-.7-.9-1.8-3.8-3.4-3.6-.6 3.5-1.7 8.4-.7 10.2 3.6 3.5 6.2-3.1 4.1-6.6m-2.9-.1c.1-.6.2-1.2.2-1.9 6.4 5.6-2.7 15-.2 1.9m-69-23.5c-1.3-6.5-7.9 1.2-1.4 6.1 1.6 1 1.2-5.1 1.4-6.1m-2.8-.7c2.9-2.1 1.4 3.9 1.4 5.3-1.4-1.6-2.4-3.5-1.4-5.3m43.9 24.5c2 17.5 17.5 2.3 11-8.3-5.1-7.3-11.8 2.2-11 8.3m1 0c-.6-4.9 4.5-13.9 9-7.8 5.5 8.7-7.1 23.4-9 7.8M239.1 2c-2.2-1.2-7.6-.8-8.5 2L229 17c-10.5-3-20.5 5.9-19.3 16.6-1.3 2.9-7 7.2-7.5 2.1.1-2 1-8.3 1.2-11.1 9.9-6.5 14.9-27.8-2.4-22.5-5.6 3-4.5 14.2-5.6 19.3-.1 7-3.9 15.5.4 20.5 3 2.9 8.5 2.4 11.9.4 1.5-.9 2.8-2 3.8-3.3 3.3 5.4 12 6.7 16.3 1.8 2.1 3.3 6.8 3.8 10.4 2.1 3.4-1 9.8-10.2 3.5-12.5-1.4 3.1-2.3 7-5.4 7.5-2.2-1-.6-2.7-.6-6.5.6-8.9 3.1-20.5 3.4-29.4m-3.1.5c.9 0 1.7.1 2.2.3-1.3 10.3-3.3 23.9-4.2 33.9 1.2 6.2 7.4-.4 8.1-4.6.6.7 1 1.4 1.3 2.2-1.6 7.9-11.1 12.2-15.4 5.3-3.9 3.7-10.2 5.1-14.5.7-1-.5-1.7-3.6-2.8-1.9-2.9 4.2-10 6.7-14.3 3.1-3.8-5 0-13.1-.1-19.8 1.1-4.8 0-15.3 5-18.4 5.1-2.5 11.4.9 9.9 6.8-.4 8.7-10.7 11.8-9.9 21.6-2.2 7.9 3.3 10.3 8 4.3 2.1-2.1.9-5.3 1.8-7.8 2-9.3 11.2-11 18.7-10.2l1.6-13.6c1-1.5 2.9-1.9 4.6-1.9m-18.7 29.3c-1.3 7.6 8.4 10.6 10.7 2.1.1-.1 1.4-11.7 1.4-11.8-6.2-4.7-12.5 3.2-12.1 9.7m1 .1c0-5.6 3.6-12 10-9.5L227 33.6c-2 7.1-9.7 4.8-8.7-1.7M206.4 6.2c-3.8.6-2.6 9-3.4 11.3-1.1 8.4 11.2-11.8 3.4-11.3m-1.1 2.2c.4-1.8 2.6-1.4 2.5.5 0 3-1.2 5.4-3.7 8.6.2-1.6.7-7 1.2-9.1z"/><path d="M90.1 43.5c-3.5 3.8-5.8 7.8-3.6 12.1-2.4-4.6 1.5-8.1 3.6-12.1M28.2 3.8c-.1-.1-.1-.3-.2-.4-6.4 5.3-16.4-4.2-22.7.8-2.1 1.6-2.5 4.9-1.2 7.2-1-2.3-.6-5.4 1.4-6.9 6.3-4.9 16.3 4.6 22.7-.7m-10.8 10c-1 6.5-1.8 14-2.6 20.7C7.3 39.3-.5 44.8 3.3 53.7 0 44.9 7.6 39.7 15 34.9c.6-6.8 2.1-14.6 2.4-21.1m86.9 24.4c-.1 0-.2-.1-.2-.1 2.2 1.4 5.2 1.8 6.4 4.8-1.3-2.7-3.4-4.2-6.2-4.7m-6.5-2.1c-1.6 2.7-5.9 4-7.7 1.4 1.5 3.1 6.3 1.8 7.9-1 1.6-4.1-.2-15.5 3.7-17.9 1.8-.7 3-.6 4.6-.3V18c-1.7-.4-3-.5-4.9.3-3.9 2.5-2 13.6-3.6 17.8M77 39.2c-1.2 0-2-.4-2.5-1.1 1.8 3.2 6 1.2 8.1-1.7 2.2-5.3 1.6-12 2.8-17.8 1.9-.5 4.2-1 5.7.3-1.2-1.8-3.9-1.1-5.9-.7C84 24 84.6 30.7 82.4 36c-1.6 2.2-3.4 3.3-5.4 3.2m-28.1-18c.8.8 1.5 1.7 2 2.6-3.5-7.8-15.2-7.7-20.5-2.1-3.8 2.9-2.5 9.6-8.4 9.6.8 1.4 3.4-1.1 4.5-1.2 1-2.8 1.7-6 4.1-8 4.4-4.6 13.6-5.7 18.3-.9M74.6 3.7c2.7-1.5 8.1-.7 9.2 1.9-1-3-6.6-3.9-9.4-2.3-8.9 5.3-.1 41.4-16.2 34.8 1.8 3.2 6 1.2 8.1-1.7 6.3-8.8.1-24.9 8.3-32.7m-57.5 6.6c-2.5 2.5-7.1 3.1-9.1.7.8 2.8 8.7 2.2 9.1-.7m28.2 17.8c1.4 6.2-5.5 16.3-11 9.3 7.2 9.2 14.4-6.9 10-13.2.5 1.1.9 2.4 1 3.9m30.9-8.5s-.1 0-.1-.1c2.2 2.3 8-10.8 5.6-12 .9 4-1.2 8.9-5.5 12.1M65.7 8.9c0 3.1-1.8 8.5-5.9 10.6 2.2 2.3 8-10.8 5.6-12 .1.4.2.9.3 1.4m-7.3-5.3c2.7-1.5 8.1-.7 9.2 1.9-1-3-6.6-3.9-9.4-2.3-6.7 4.3-2.6 18.2-6.3 22.7 3.2 1.5.4-20.5 6.5-22.3z" fill="#ff7272"/><path d="M61.699999999999996 2.9000000000000004c-1.3 0-2.5.2-3.4.8C52.2 5.4 55 27.3 51.7 26c-2.3-9.2-15.4-10.1-21.2-3.9-2.5 2-3.1 5.2-4.1 8-1.1.1-3.6 2.6-4.5 1.2 0-2.6 2.2-20.7 3.7-22.7 1-1.3 1.9-1.4 3.2-1.1 0-1.3-.2-2.6-.8-3.7-6.2 5.3-16.2-4.2-22.5.8-4.4 3.7-.8 10.6 4.9 10 2.3.6 5.5-1.9 7-.7-.3 6.5-1.8 14.2-2.4 21.1-6.5 4.3-12.3 7.6-12.5 15-.3 7.2 8.4 9.9 13.4 5.2 4.4-3 4.2-15.2 5.3-20 .1-.4 5-3 5.3-1.7 1 10.1 15.2 12.5 21.5 5.4 1.3-1.1 1.9-2.7 2.8-4.1 1.6-.4-.1 4.9 2.4 6.4 4.3 3.7 11 .9 14.3-2.8 1.1.2 1 2.2 2 2.8 4.3 3.9 10.4.5 14.1-2.2 1.3 2.2 3.2 3.5 6.1 3.7.3 0 .5.3.5.6-1.2 3-4.9 5.8-4.3 9-.5 7.3 10.4 8.2 13.7 3.4 3.1-3.3 3.1-10.5 4-14.8 3.6-.2 6 4.1 6.7 7.4 3.5-4.7-2.5-8.9-6.2-10.3-.7-.4 2.4-19.2 2.2-19.7-1.6-.3-2.9-.4-4.6.3-4 2.4-2.2 13.9-3.7 17.9-2.2 3.9-8.8 3.7-8.4-1.4-.1-1.7 2.4-14.7 1.6-16.3-1.4-1.3-3.8-.8-5.7-.3-1.2 5.8-.6 12.5-2.8 17.8-2.1 3-6.3 4.9-8.1 1.7-1.3-3.2.7-9.4.7-13.6C83.6 18.6 91-.8 74.6 3.7c-8.2 7.9-2 24-8.3 32.7-2.5 4-8.6 4.9-8.6-.5.3-2.2.8-8.8 1.4-11.7 6.7-5.1 15.5-20.4 2.6-21.3m1.4 3.3c5.9 1.9 1.5 9.4-2.4 13.7-.3.4-.9.1-1-.3-.4-.3 0-1.8 0-2.1.8-2.3-.3-10.7 3.4-11.3m13.4 7c.6-2.5-.1-6.6 2.9-7 1.9-.1 2.6 1.5 2.7 3.2.9.8-3.7 12.1-6.1 10.2-.4-.3 0-1.8 0-2.1.1-.6.3-2 .5-4.3m-39.1 8.4c2.3-1.3 5.5-.5 6.6 2 4.9 6.2-2.2 23.2-9.7 13.8-2.6-4.6-1.4-12.8 3.1-15.8M17 9.9c.1.1.1.2.1.3-.1 2.6-6.8 3.1-8.1 1.9-1.8-1-2-4.2.5-4.2 1.5.4 5.6 1.4 7.5 2m-3.6 28.8c.3-.2.8.1.8.4.1.1.2.3.2.5-.6 2.2-.7 11.8-2.7 13.1-9.7 4.1-7.3-10.4 1.7-14m83.4 3.4c.2.1.4.3.4.5.3 2.5-.8 9.7-1.8 11.5-1.1 1.9-4 1.8-5.3.4-3.7-4.6 1.2-10.4 6.7-12.4z" fill="#d70000"/><path d="M193.2 19.9c-2.7-4.4-7.3-1.4-10.2.2.4 1.9 5.9-5.5 10.2-.2m-10 19.3c-.9 0-1.6-.3-1.9-.9 3.5 4.6 6.8-3 4.2-6.6 1.3 2.6.8 7.9-2.3 7.5m-8.5-4.8c-.2 1.8.1 4.5.9 5.9-2.1-3.6 1-17.7 1.1-21.7 1.7-.4 4.8-1 5.9.4-.7-1.9-4.4-1.3-6.1-.8l-1.8 16.2m-62.3-15.8c-.1 4.1-3.6 17.4-1.2 21-2.2-3.7 1.8-17.2 1.2-21m-5.8-9.7c0 1.5.3 2.9 1 4.3-4.6-7.8 7.8-14.3 12.2-7.6-2.4-5.5-13.6-3.4-13.2 3.3M152 21.6c-1.1.6-1.5 2.8-2.7 2.5.9 1.7 1.9-1.6 2.9-2.1 5.2-5.4 16.6-5.6 20.3 1.8-3.4-7.7-15.2-7.7-20.5-2.2M132.9 3.5c-1.5 0-2.7.2-3.8.7-1.9 4.3-.8 42.7-11.6 33.3 10.6 11.1 10.1-28.9 11.8-32.9 1.5-.6 5.3-1.3 6.4.3-.3-1-1.3-1.4-2.8-1.4m-19.2 5c0-.7-.1-1.3-.4-1.6.2 3.3.6 11.8-3.4 4.6 3.8 6.7 3.6 1.2 3.8-3m42.2 28.9c7.2 9.2 14.4-6.9 10-13.2 3.9 6.2-2.7 21.4-10 13.2M144.6 9.6c0-2.1-.2-4.1-.5-5.7 1.6-.8 5.2-2 6.6 0-1.1-2.5-5.1-1.2-6.8-.3 1.1 9.9.1 22.3-4.2 31.8-1.7 3.5-5.2 4.9-7.3 2.3 1.8 3.2 5.8 1.8 7.5-1.9 3.8-7.7 4.4-18.2 4.7-26.2m94.9 27.6c-1.5 1.8-3.7 2.8-5.1 1.2 3.1 3.8 6.8-2.1 7.9-5.9.4.4.7.9.9 1.3-.3-.6-.7-1.2-1.1-1.7-.8 2.3-1.7 4-2.6 5.1m-38-34c-.1 0-.1 0 0 0-5.1 3.1-3.9 13.6-5 18.4-.2 6.2-2.8 13.7-.8 18.6-1.6-4.9.8-12.4 1.1-18.6 1.1-4.7 0-14.9 5-18 2.7-1.5 8.1-.7 9.2 1.9-1.1-2.9-6.6-3.8-9.5-2.3m17.1 34.1c-.2-.3-.4-.5-.6-.8 2.5 5 8.6 3.6 10.2-2.3l1.4-11.7c0-.2-.1-.4-.2-.5 0 0-1.4 11.7-1.4 11.8-1.5 5.2-6.2 7.2-9.4 3.5M209 8.9c0 3.1-1.8 8.5-5.9 10.6 2.2 2.3 7.9-10.8 5.6-12 .1.4.2.9.3 1.4m27.2-6c.8 0 1.5.1 2 .2 0-.1 0-.2.1-.3-1.9-.6-5.5-.4-6.6 1.4-.1.3-1.5 13.7-1.7 13.9-10.1-2.7-20.4 4.7-19.1 15.6-1.4 3.5-6.4 7.6-9.2 4.3 2.4 4 8.1-.3 9.4-3.9-1.3-10.5 8.8-18.8 18.8-15.5.9-.4 1.7-13.4 2-14.1.7-1.2 2.6-1.6 4.3-1.6z" fill="#69d434"/><path d="M174.9 34.8c-.2 2 0 4.7 1.2 6.3 11.5 8.2 17.2-9.8 6.7-15.9-.4-4.3 7.5-5.5 6.6-.3 10-2.5-.4-11-5.5-4.4-.3.4-1 .2-.9-.3-.2-2.8-4.1-2.1-6.2-1.5l-1.9 16.1m10.5-3.2c4.5 9.3-8.2 13.7-3.4-3.5 1.6-.2 2.7 2.6 3.4 3.5M144.6 9.3c-.3 8.1-.8 18.7-4.7 26.4-2.1 4.9-8.2 4.7-8-.6.7-9.6 2.7-18.1 3.8-28.9.8-3.4-4.7-2.5-6.5-1.8-1.9 4.9-.9 35.5-8.8 34.7-7.6-.8-.8-17.1-1.2-22.3 7.7-24.3-25.2-13.1-6.9 1.6.6.9-2.2 16.4-1.9 17.2-.6 8.9 12.5 9.4 16.1 2.9.2-.4.7-.3.9 0 3.9 7.8 15.1 4.3 17.9-2.5.7-.5 1.3-5.2 2.6-3.3 1 14.6 24 12.6 25.2-1.2 3.4-12.2-12.8-17.6-20.5-10-1.1.4-2.4 4.1-3.3 2.5-.9-6.8 7.5-26-5.2-20.2.3 1.7.5 3.5.5 5.5m10 22.6c-.8-6.1 6-15.6 11-8.3 5 6.2-2.2 23.2-9.7 13.8-1-1.6-1.3-3.3-1.3-5.5m-41.2-25c.7 1.4.2 3.7.1 5.3 0 6.1-4.4-.8-4.3-3.2-.4-2.4 2.9-4.7 4.2-2.1m124.8-3.8c-1.9-.5-5.3-.3-6.4 1.5l-1.6 13.6c-7.5-.7-16.7 1-18.7 10.2-.9 2.5.3 5.8-1.8 7.8-4.8 6.2-10.4 3.2-8.2-4.7.5-3.7.1-7.8 3.6-10 7.9-6.5 9.7-22.4-3.5-18-5 3-3.9 13.2-5 18 0 6.7-3.7 14.9-.2 19.8 4.3 3.6 11.3 1.1 14.3-3.1 1.1-1.6 1.8 1.4 2.8 1.9 4.3 4.4 10.6 3.1 14.5-.7 4.2 6.9 13.8 2.6 15.4-5.3-.2-.7-.6-1.2-1.1-1.8-.7 4.5-7.2 10.9-8.3 4.2.9-9.7 2.9-23.2 4.2-33.4m-33.9 5.1c1.1-3.9 5.6-1.5 4.8 1.8.7.5-3.7 11.3-6 9.5-.4-.3 0-1.8 0-2.1.2-1.6.6-7.1 1.2-9.2m12.9 24.6c0-.3 0-.6.1-1-.3-6.6 5.7-14.2 12.1-9.8.1.1.2.3.2.5 0 .1-1.4 11.7-1.4 11.8-2.2 8.2-11.4 5.8-11-1.5z" fill="#51a328"/></svg>