<?xml version="1.0" encoding="utf-8"?>
<!-- Generator: Adobe Illustrator 25.1.0, SVG Export Plug-In . SVG Version: 6.00 Build 0)  -->
<svg version="1.1" id="l" xmlns="http://www.w3.org/2000/svg" xmlns:xlink="http://www.w3.org/1999/xlink" x="0px" y="0px"
	 viewBox="0 0 100 100" style="enable-background:new 0 0 100 100;" xml:space="preserve">
<style type="text/css">
	.st0{fill:url(#edge_1_);}
	.st1{fill:#383838;}
	.st2{fill:#FFFFFF;}
	.st3{fill-rule:evenodd;clip-rule:evenodd;fill:#FFFFFF;}
</style>
<linearGradient id="edge_1_" gradientUnits="userSpaceOnUse" x1="7599.0801" y1="-7803.8799" x2="9647.0801" y2="-7803.8799" gradientTransform="matrix(0 -4.882812e-02 4.882812e-02 0 431.0488 471.0488)">
	<stop  offset="0" style="stop-color:#383838"/>
	<stop  offset="1" style="stop-color:#585858"/>
</linearGradient>
<path id="edge" class="st0" d="M80.3,80.3C88.7,72,92.9,61.9,92.9,50c0-11.8-4.2-21.9-12.6-30.3C72,11.3,61.9,7.1,50,7.1
	s-22,4.2-30.3,12.6C11.3,28.1,7.1,38.2,7.1,50c0,11.9,4.2,22,12.6,30.3C28,88.7,38.1,92.9,50,92.9S72,88.7,80.3,80.3 M85.3,14.6
	C95.1,24.4,100,36.2,100,50s-4.9,25.6-14.7,35.3C75.6,95.1,63.8,100,50,100c-13.9,0-25.7-4.9-35.4-14.7C4.9,75.6,0,63.8,0,50
	s4.9-25.6,14.6-35.4C24.3,4.9,36.1,0,50,0C63.8,0,75.6,4.9,85.3,14.6"/>
<path id="bg" class="st1" d="M80.3,80.3C72,88.7,61.9,92.9,50,92.9s-22-4.2-30.3-12.6C11.3,72,7.1,61.9,7.1,50
	c0-11.8,4.2-21.9,12.6-30.3C28,11.3,38.1,7.1,50,7.1s22,4.2,30.3,12.6c8.4,8.4,12.6,18.5,12.6,30.3C92.9,61.9,88.7,72,80.3,80.3"/>
<g id="arrow">
	<g transform="translate(0.000000,511.000000) scale(0.100000,-0.100000)">
		<path class="st2" d="M545.7,4335.9c103.3,6.8,195.9,73.7,235.2,170.1c29.2,71.5,26.7,153-6.8,222.6
			c-23.1,48.4-61.3,89.8-107.8,117.5c-33.1,19.8-73.2,33-112.2,36.9c-11.8,1.1-39.7,1.4-51.2,0.4c-115.9-10.1-214-93.7-242.4-206.5
			c-2.2-8.7-4.7-21.3-5.5-27.7c-0.7-6.4-1.6-12.9-2-14.4l-0.5-2.8l-81.2-0.2L314.1,4496c0,0,22.3,19.3,70,66.7
			c36.6,36.2,66.3,69.5,66.3,69.5s-79.9,0.2-80.2,0.8c-0.9,1.4,2.5,15.8,6,26.7c7.4,22.4,20.5,43.8,37.4,60.9
			c30.8,31.1,68.3,47,112,47.3c20.4,0,31-1.5,49.2-7.4c25.8-8.2,46.6-21.3,65.7-41.2c29.3-30.5,44.2-67.3,44.2-109.4
			c-0.1-44.5-16.4-82.6-48.5-113.8c-25.5-24.7-56.7-39.5-91.9-43.7"/>
	</g>
</g>
<g id="accel">
	<polyline class="st3" points="58.7,28.4 58.7,42.3 40.9,42.3 40.9,57.7 58.7,57.7 58.7,71.6 81.1,50 81.1,50 81.1,50 58.7,28.4 	
		"/>
	<polygon class="st3" points="24.9,42.3 18.9,42.3 18.9,57.7 24.9,57.7 	"/>
	<polygon class="st3" points="38.1,42.3 27.5,42.3 27.5,57.7 38.1,57.7 	"/>
</g>
<g id="flip">
	<path class="st2" d="M48.8,60.9c-3.1-0.1-6.7-0.6-10.6-1.4c-5.3-1.1-9.7-2.5-13.1-4.1c-6.3-3.2-6.5-6.5-5.5-8.7
		c1.3-3,5.4-5.1,13.5-7c5.7-1.1,11.4-1.7,17-1.7c6.2,0,12.4,0.7,18.6,2.1c3.3,0.7,5.9,1.7,8,3c2.5,1.5,3.9,3.3,4.2,5.4
		c1,6.7-8.8,9.1-12.1,9.9c-0.8,0.2-1.5,0.4-2.1,0.5l-3.2,0.7v-8.1l2-0.5c0.4-0.1,0.7-0.2,1-0.2c4.3-1,5.4-2.1,5.7-2.4
		c-0.3-0.3-1.3-1.2-4.7-2.1c-5.7-1.2-11.6-1.8-17.3-1.8c-5.3,0-10.6,0.5-15.9,1.5c-2.9,0.9-4.5,1.6-5.3,2.1c0.6,0.3,1.5,0.7,3,1.1
		c2.8,0.8,6.4,1.6,10.8,2.1c2.4,0.3,4.4,0.5,6,0.6v-7l11.4,11.4L48.8,67.7V60.9z"/>
</g>
<g id="pause">
	<rect id="r2" x="32.8" y="30.5" class="st2" width="10.5" height="39.1"/>
	<rect id="r" x="57" y="30.6" class="st2" width="10.5" height="39.1"/>
</g>
<g id="exit">
	<g>
		<g>
			<g id="exit-to-app_6_">
				<g>
					<path class="st2" d="M31.3,74.6c-3.5,0-6.3-2.8-6.3-6.3V56.8h7.3v10.5h34.9V32.4H32.3V43h-7.3V31.4c0-3.5,2.8-6.3,6.3-6.3h36.9
						c3.5,0,6.3,2.8,6.3,6.3v36.9c0,3.5-2.8,6.3-6.3,6.3H31.3z M43.4,59.4l5.9-5.9H25.1v-7.3h24.2l-5.9-5.9l5.1-5.1l14.6,14.6
						L48.5,64.5L43.4,59.4z"/>
				</g>
			</g>
		</g>
	</g>
</g>
</svg>
