<svg version="1.1" id="l" xmlns="http://www.w3.org/2000/svg" x="0" y="0" viewBox="0 0 61 75.5" xml:space="preserve"><style>.st1{fill:#383838}</style><linearGradient id="SVGID_1_" gradientUnits="userSpaceOnUse" x1="652.814" y1="13141.685" x2="2291.214" y2="13141.685" gradientTransform="matrix(0 -.04608 -.04608 0 636.09 105.583)"><stop offset="0" stop-color="#383838"/><stop offset="1" stop-color="#585858"/></linearGradient><path d="M56 0c3.3 0 5 1.7 5 5v40L30.5 75.5 0 45V5c0-3.3 1.7-5 5-5h51m1 5c0-.7-.3-1-1-1H5c-.7 0-1 .3-1 1v38.3l26.5 26.5L57 43.3V5" fill="url(#SVGID_1_)"/><path class="st1" d="M57 5v38.3L30.5 69.9 4 43.3V5c0-.7.3-1 1-1h51c.7 0 1 .3 1 1"/><path class="st1" d="M31 15c-.3 0-.5.1-.7.3l-5 5c-.3.2-.3.5-.3.7v.4c.2.4.5.6.9.6h10c.4 0 .7-.2.9-.6.2-.4.1-.8-.2-1.1l-5-5c-.1-.2-.4-.3-.6-.3"/><path d="M31 15c.2 0 .5.1.7.3l5 5c.3.3.4.7.2 1.1-.2.4-.5.6-.9.6H26c-.4 0-.7-.2-.9-.6V21c0-.2 0-.5.2-.7l5-5c.2-.2.4-.3.7-.3" fill="#666"/></svg>