<?xml version="1.0" standalone="no"?>
<!DOCTYPE svg PUBLIC "-//W3C//DTD SVG 20010904//EN"
 "http://www.w3.org/TR/2001/REC-SVG-20010904/DTD/svg10.dtd">
<svg version="1.0" xmlns="http://www.w3.org/2000/svg"
 width="512.000000pt" height="512.000000pt" viewBox="0 0 512.000000 512.000000"
 preserveAspectRatio="xMidYMid meet">
<metadata>
Created by potrace 1.11, written by Peter Selinger 2001-2013
</metadata>
<g transform="translate(0.000000,512.000000) scale(0.100000,-0.100000)"
fill="#000000" stroke="none">
<path d="M3514 4945 c-84 -13 -230 -53 -222 -61 3 -2 24 2 47 11 121 42 337
63 493 46 233 -25 391 -95 593 -262 78 -65 131 -124 200 -222 157 -225 220
-552 161 -834 -47 -220 -146 -395 -325 -573 -53 -52 -73 -76 -46 -53 294 241
446 624 396 997 -44 329 -221 597 -530 805 -198 134 -489 190 -767 146z"/>
<path d="M3194 4840 c-153 -81 -287 -201 -395 -353 -54 -76 -133 -231 -144
-282 -3 -16 5 -3 18 30 63 158 150 290 266 405 79 78 214 175 294 210 26 12
47 23 47 25 0 9 -9 5 -86 -35z"/>
<path d="M2925 4396 c-62 -19 -85 -35 -85 -57 0 -30 21 -32 88 -10 75 26 185
28 242 5 46 -19 70 -13 70 16 0 15 -12 27 -42 40 -51 23 -208 27 -273 6z"/>
<path d="M3740 4401 c-59 -18 -91 -42 -88 -64 4 -26 32 -27 93 -3 55 21 186
21 231 0 41 -20 67 -12 62 18 -5 40 -60 58 -173 57 -55 0 -111 -4 -125 -8z"/>
<path d="M2979 4217 c-72 -27 -151 -111 -170 -180 -14 -52 -7 -143 15 -185 23
-44 94 -111 141 -133 25 -12 62 -19 100 -19 73 0 125 23 182 79 65 63 78 94
78 186 0 56 -5 89 -17 110 -23 42 -92 112 -131 131 -42 22 -152 28 -198 11z
m207 -32 c67 -39 132 -135 134 -197 0 -34 -189 -74 -314 -65 -86 6 -185 33
-193 53 -9 23 17 91 52 137 37 49 89 85 139 98 51 13 136 1 182 -26z m113
-314 c-24 -57 -89 -123 -145 -146 -53 -22 -135 -19 -189 6 -60 28 -129 106
-145 164 -7 25 -10 48 -7 51 3 3 35 -4 72 -15 92 -29 230 -28 345 2 100 26
105 21 69 -62z"/>
<path d="M2940 3836 c-15 -19 7 -69 33 -74 42 -8 62 42 29 71 -23 21 -46 22
-62 3z"/>
<path d="M3810 4221 c-51 -17 -87 -41 -132 -89 -70 -75 -85 -155 -48 -254 52
-138 221 -216 345 -159 47 22 117 88 142 134 24 44 25 180 1 222 -23 42 -92
112 -130 131 -36 19 -140 28 -178 15z m186 -36 c49 -29 101 -91 120 -143 22
-62 19 -70 -38 -87 -141 -42 -294 -45 -398 -8 -54 19 -55 21 -53 56 3 49 26
90 78 143 77 76 199 93 291 39z m113 -314 c-24 -57 -89 -123 -145 -146 -88
-37 -209 -5 -276 74 -31 37 -75 137 -64 148 2 3 34 -5 71 -16 92 -29 230 -28
345 2 100 26 105 21 69 -62z"/>
<path d="M3757 3843 c-13 -12 -7 -60 8 -73 8 -7 25 -10 40 -6 46 12 29 86 -20
86 -12 0 -25 -3 -28 -7z"/>
<path d="M2632 4128 c-42 -168 -41 -396 2 -560 13 -54 30 -105 36 -115 10 -16
11 -16 5 2 -48 142 -58 212 -59 385 0 129 4 194 17 249 18 79 17 112 -1 39z"/>
<path d="M3217 3522 c-31 -35 -15 -112 23 -112 10 0 31 5 45 12 22 10 30 8 55
-11 121 -89 148 -92 219 -26 42 39 54 45 93 45 24 0 49 5 56 12 17 17 15 53
-5 69 -15 13 -15 12 -2 -9 22 -35 2 -56 -59 -62 -44 -5 -57 -12 -92 -48 -59
-61 -99 -58 -184 15 -43 35 -61 40 -100 22 -52 -24 -79 49 -34 91 12 11 17 20
11 20 -5 0 -17 -8 -26 -18z"/>
<path d="M3880 3492 c0 -20 61 -61 112 -76 84 -25 131 -57 145 -96 8 -24 12
-29 12 -14 2 48 -68 101 -163 125 -27 7 -60 24 -77 41 -16 16 -29 25 -29 20z"/>
<path d="M2680 3427 c0 -18 86 -173 128 -231 52 -70 180 -206 195 -206 6 0
-17 25 -50 55 -79 71 -162 183 -224 298 -27 51 -49 88 -49 84z"/>
<path d="M4012 3280 c-139 -114 -250 -159 -442 -181 -151 -17 -322 12 -457 78
-96 46 -100 53 -66 93 15 18 21 31 13 28 -22 -7 -49 -50 -54 -83 -2 -16 -1
-24 1 -17 6 16 -1 18 95 -28 155 -74 304 -99 480 -81 190 19 326 80 468 210
30 27 53 50 50 50 -3 -1 -42 -31 -88 -69z"/>
<path d="M68 3105 c45 -8 107 -30 160 -56 105 -52 113 -55 87 -33 -55 46 -217
105 -285 103 -23 -1 -10 -5 38 -14z"/>
<path d="M253 2936 c-63 -29 -89 -113 -59 -189 48 -116 75 -137 181 -137 l71
0 -17 -137 c-10 -76 -18 -145 -19 -154 0 -9 -26 -32 -58 -52 -123 -76 -192
-173 -192 -270 0 -73 52 -191 98 -222 95 -65 249 -3 286 114 8 25 22 98 31
161 21 157 21 156 55 170 17 7 32 11 33 9 1 -2 15 -30 30 -61 46 -91 114 -128
237 -128 78 0 152 32 199 86 34 38 41 41 41 18 0 -29 34 -73 68 -90 56 -26
148 -16 212 24 52 33 53 33 67 12 38 -55 142 -66 229 -26 28 13 55 29 59 35 5
8 15 4 32 -13 23 -23 24 -26 8 -49 -30 -46 -30 -115 0 -190 40 -99 102 -137
201 -122 40 6 57 16 95 53 53 53 73 107 85 222 3 39 11 73 16 76 16 10 74 -61
88 -109 16 -53 26 -55 53 -9 18 31 16 55 -9 116 -6 17 -4 16 25 -5 23 -17 48
-24 95 -27 77 -5 120 8 165 48 l33 30 20 -25 c31 -39 71 -55 139 -55 84 0 139
27 188 94 21 28 41 60 45 71 6 17 10 13 27 -25 27 -60 54 -88 114 -116 56 -27
157 -32 216 -13 47 16 120 73 145 115 l21 35 12 -31 c6 -16 16 -44 23 -61 13
-36 61 -69 100 -69 l26 0 -25 -67 c-79 -214 -97 -257 -133 -312 -68 -105 -129
-130 -315 -131 -179 0 -217 -33 -266 -226 -34 -134 -79 -240 -118 -278 -14
-14 -48 -35 -76 -47 -45 -20 -67 -22 -220 -23 l-170 -1 -67 -33 c-121 -59
-186 -172 -202 -349 -7 -67 2 -98 41 -155 41 -60 91 -78 215 -78 58 0 162 -7
230 -16 167 -22 282 -15 418 26 196 59 309 31 520 -129 97 -73 232 -111 397
-111 119 0 183 16 288 71 l80 41 85 -6 c89 -7 165 -36 270 -106 86 -57 143
-72 280 -75 l125 -3 -115 7 c-143 9 -209 29 -302 90 -97 64 -123 76 -186 90
-104 22 -162 15 -244 -28 -112 -59 -181 -74 -313 -68 -116 6 -214 27 -280 60
-22 10 -84 51 -138 89 -169 122 -297 145 -477 87 -124 -39 -239 -47 -376 -25
-56 9 -160 16 -232 16 -137 0 -172 7 -210 43 -50 46 -65 93 -60 191 8 176 96
303 241 347 61 19 84 21 186 15 260 -14 344 53 415 334 33 131 39 144 75 183
42 46 59 50 216 57 172 8 187 13 259 89 53 58 77 106 141 280 63 175 89 219
150 250 44 23 61 25 165 26 107 0 119 -2 175 -29 41 -20 94 -62 165 -131 58
-56 115 -107 127 -114 66 -34 118 6 180 138 78 169 185 306 274 351 21 11 64
27 95 35 67 17 86 31 29 20 -60 -10 -135 -44 -182 -82 -36 -28 -43 -31 -43
-16 1 10 16 133 34 273 28 213 32 257 20 266 -7 6 -12 24 -11 40 2 29 2 29
-59 32 -97 5 -106 -7 -124 -168 l-15 -132 -85 -2 c-101 -4 -159 -26 -215 -83
-51 -52 -76 -105 -81 -172 -3 -31 -7 -66 -10 -78 -6 -32 -73 -93 -101 -93 -27
0 -27 3 -13 118 10 78 13 84 53 125 139 139 169 258 106 425 -14 37 -67 62
-132 62 -120 0 -155 -47 -177 -235 -17 -155 -21 -176 -31 -170 -5 4 -9 16 -9
29 0 57 -99 94 -171 63 -31 -13 -39 -13 -64 0 -33 18 -123 13 -135 -7 -4 -7
-11 -49 -15 -94 -7 -73 -9 -78 -18 -51 -18 54 -69 114 -116 137 -69 34 -185
32 -264 -5 l-58 -26 5 42 c17 135 17 186 0 239 -9 29 -21 59 -27 66 -12 16
-104 16 -136 -1 -24 -12 -24 -14 -22 -137 5 -289 -71 -570 -155 -570 -28 0
-31 21 -14 112 6 31 23 149 39 263 21 159 25 211 16 228 -6 12 -12 33 -12 47
-1 13 -10 30 -19 37 -19 14 -121 18 -141 5 -7 -4 -26 -122 -48 -292 -40 -315
-47 -352 -76 -381 -21 -21 -69 -26 -69 -6 0 6 16 125 36 264 l36 252 -24 73
c-30 93 -62 118 -152 118 -102 0 -166 -58 -166 -150 1 -53 48 -172 85 -210
l25 -26 -20 -148 c-13 -100 -17 -159 -11 -185 l8 -38 -36 20 -36 20 21 166
c19 146 20 167 7 178 -8 6 -13 20 -12 30 5 30 -10 43 -51 43 -41 0 -106 -25
-113 -45 -3 -6 -13 -83 -22 -171 -20 -178 -31 -204 -90 -204 l-31 0 18 143
c14 104 16 151 9 177 -6 19 -13 45 -17 58 -7 26 -40 42 -89 42 l-35 0 6 58 c6
60 -14 155 -43 199 -19 28 -63 43 -130 43 -70 0 -107 -25 -139 -93 -23 -50
-23 -50 -29 -21 -18 84 -58 114 -149 114 -116 0 -155 -55 -175 -245 -7 -60
-14 -127 -17 -148 l-6 -38 -30 41 c-47 63 -96 84 -199 84 -73 0 -94 -4 -141
-27 -64 -31 -122 -98 -140 -161 -14 -49 -28 -69 -28 -39 0 12 9 84 20 159 22
146 34 174 77 174 19 0 23 5 23 31 0 32 -27 126 -42 146 -7 9 -20 7 -51 -8
-54 -24 -100 -24 -173 1 -79 27 -189 35 -231 16z m2216 -17 c36 -13 61 -53 61
-101 0 -18 -16 -148 -36 -289 -33 -227 -35 -259 -23 -285 12 -24 21 -29 57
-32 88 -6 100 28 147 393 21 160 43 293 49 297 20 13 93 9 106 -7 11 -14 -11
-209 -55 -485 -26 -160 -15 -200 54 -200 43 0 76 29 109 96 43 86 89 406 78
540 -5 68 -4 72 17 78 36 10 82 7 95 -6 17 -17 15 -129 -6 -285 -13 -95 -15
-133 -7 -133 7 0 28 18 48 40 94 106 284 117 367 23 43 -48 60 -92 60 -151 0
-163 -114 -282 -270 -282 -79 0 -133 23 -177 73 -28 33 -53 90 -53 125 0 28
-26 9 -44 -33 -24 -61 -98 -141 -142 -155 -20 -7 -63 -10 -97 -8 -57 4 -63 7
-99 48 l-39 43 -37 -36 c-45 -44 -78 -57 -143 -57 -62 0 -101 19 -128 63 -26
43 -27 82 0 270 l20 148 -44 48 c-52 55 -62 73 -71 124 -18 101 92 175 203
136z m1827 -5 c61 -29 69 -122 21 -228 -13 -28 -53 -83 -88 -121 l-65 -71 -13
-127 c-13 -119 -13 -129 4 -147 12 -13 31 -20 57 -20 32 0 46 7 82 43 40 41
43 47 49 114 7 88 24 130 77 187 57 61 112 81 221 80 l86 -1 12 111 c18 166
20 172 47 185 34 15 94 14 94 -1 0 -7 -14 -114 -30 -238 -17 -124 -35 -270
-41 -325 -8 -74 -17 -109 -35 -137 -13 -21 -24 -42 -24 -47 0 -22 -31 -18 -50
6 l-20 26 -28 -25 c-40 -38 -65 -48 -117 -48 -60 0 -103 19 -142 64 -18 20
-35 36 -39 36 -4 0 -26 -18 -50 -40 -48 -44 -60 -47 -119 -25 -22 8 -63 14
-92 15 -30 0 -55 5 -60 13 -8 12 -7 143 2 185 2 13 14 108 25 210 28 254 47
312 110 335 30 11 93 7 126 -9z m-2876 -149 c0 -12 -29 -75 -35 -75 -5 0 0 35
11 68 3 12 24 18 24 7z m315 -32 c-23 -54 -35 -62 -24 -17 4 22 9 42 9 47 0 4
7 7 15 7 14 0 13 -4 0 -37z m2026 -113 c10 -6 19 -17 19 -25 0 -20 6 -19 43 8
41 29 116 30 146 3 30 -27 27 -70 -5 -95 -33 -26 -44 -26 -44 -3 0 11 -9 27
-20 37 -28 25 -85 11 -114 -28 l-21 -29 37 -31 c142 -123 104 -327 -61 -327
-44 0 -57 4 -81 28 -16 16 -31 44 -35 63 -4 19 3 114 14 210 12 97 21 179 21
182 0 16 74 21 101 7z m-2271 -147 c-6 -59 -16 -122 -22 -140 -13 -45 -82
-113 -113 -113 -29 0 -30 6 -13 117 10 74 14 81 65 138 30 33 62 72 71 87 9
15 18 26 20 23 2 -2 -1 -52 -8 -112z m300 -53 c-18 -132 -19 -135 -54 -167
-40 -37 -91 -46 -82 -15 2 9 8 52 12 95 l7 79 65 73 c37 41 67 73 68 72 1 -1
-7 -63 -16 -137z m-793 34 c23 -23 25 -31 20 -79 -9 -91 -60 -165 -113 -165
-12 0 -34 10 -49 22 -26 20 -27 25 -21 75 3 30 17 76 30 102 37 72 88 90 133
45z m2911 4 c7 -7 12 -22 12 -35 0 -28 26 -31 71 -8 l30 16 -7 -27 c-4 -15 -7
-71 -8 -125 -1 -81 -4 -99 -16 -99 -8 0 -25 -3 -38 -6 -22 -6 -23 -5 -17 27 4
20 0 53 -8 79 -8 25 -17 57 -21 71 -3 14 -17 42 -31 63 -14 21 -23 42 -20 47
9 13 39 11 53 -3z m559 -402 c37 -19 134 -21 166 -5 12 6 32 21 45 32 30 28
28 18 -17 -78 -39 -85 -68 -115 -109 -115 -37 0 -61 17 -151 107 l-84 84 29
24 29 24 30 -29 c17 -15 44 -35 62 -44z m-4089 -23 c-8 -72 -29 -103 -69 -103
-46 0 -29 63 34 128 22 23 42 42 42 42 1 0 -2 -30 -7 -67z m1648 -97 c-12 -30
-20 -36 -45 -36 -16 0 -32 4 -35 8 -8 14 22 65 57 95 l32 28 3 -30 c2 -16 -4
-45 -12 -65z"/>
<path d="M2321 2851 c-23 -42 -7 -105 38 -145 12 -11 24 -16 28 -12 4 4 7 44
8 89 l0 82 -32 3 c-23 2 -34 -2 -42 -17z m51 -98 c-3 -16 -7 -22 -10 -15 -4
13 4 42 11 42 2 0 2 -12 -1 -27z"/>
<path d="M3278 2533 c-36 -39 -48 -66 -59 -131 -20 -125 26 -212 113 -212 34
0 46 6 74 35 35 37 64 115 64 170 0 51 -29 133 -53 150 -12 8 -42 15 -67 15
-38 0 -51 -5 -72 -27z m149 -75 c7 -6 13 -33 13 -61 0 -137 -82 -225 -159
-171 -22 15 -23 22 -18 80 10 131 95 209 164 152z"/>
<path d="M4211 2833 c-10 -27 -31 -173 -31 -220 0 -35 22 -27 56 20 47 63 67
108 68 152 1 60 -8 75 -47 75 -28 0 -37 -5 -46 -27z m57 -95 c-13 -40 -28 -59
-28 -36 0 26 18 68 29 68 6 0 6 -12 -1 -32z"/>
<path d="M4580 2564 c-24 -10 -70 -56 -86 -86 -22 -41 -35 -158 -23 -201 20
-73 110 -101 163 -52 15 14 33 40 41 57 15 38 42 265 32 275 -9 9 -108 14
-127 7z m95 -156 c-9 -98 -21 -133 -56 -163 -37 -30 -70 -32 -94 -5 -14 16
-17 30 -12 69 12 98 72 171 141 171 l28 0 -7 -72z"/>
<path d="M3756 2408 c-3 -13 -9 -61 -12 -106 -8 -92 -3 -102 48 -102 73 0 79
130 10 203 -31 33 -38 34 -46 5z m67 -148 c-12 -47 -33 -51 -33 -7 0 20 3 43
6 52 6 14 9 15 21 2 11 -10 12 -23 6 -47z"/>
<path d="M3243 2837 c24 -20 163 -63 266 -82 148 -27 433 -12 491 27 12 8 11
8 -4 4 -10 -4 -62 -14 -115 -22 -179 -30 -418 -4 -586 62 -64 26 -72 27 -52
11z"/>
<path d="M1270 1979 c0 -6 15 -26 33 -44 24 -24 48 -36 92 -45 99 -19 133 -30
149 -45 23 -23 36 -107 36 -228 0 -133 6 -145 84 -177 39 -16 57 -29 66 -50
20 -47 10 -73 -38 -97 -23 -11 -60 -37 -82 -57 -56 -51 -208 -123 -319 -152
-120 -31 -255 -32 -385 -4 -50 11 -124 28 -164 37 -51 11 -100 14 -157 11 -72
-5 -97 -12 -182 -51 -125 -58 -196 -82 -313 -103 -52 -10 -89 -19 -82 -22 19
-6 181 28 257 56 39 13 109 42 158 64 138 62 217 61 481 -3 111 -27 276 -26
382 2 115 30 277 105 332 154 26 23 62 47 80 54 37 16 52 37 52 78 0 41 -24
70 -80 94 -27 12 -55 28 -62 37 -9 10 -13 53 -14 131 -1 134 -22 223 -57 245
-12 8 -60 21 -107 31 -95 18 -126 34 -140 71 -10 25 -20 32 -20 13z"/>
</g>
</svg>
