<?xml version="1.0" standalone="no"?>
<!DOCTYPE svg PUBLIC "-//W3C//DTD SVG 20010904//EN"
 "http://www.w3.org/TR/2001/REC-SVG-20010904/DTD/svg10.dtd">
<svg version="1.0" xmlns="http://www.w3.org/2000/svg"
 width="600.000000pt" height="600.000000pt" viewBox="0 0 600.000000 600.000000"
 preserveAspectRatio="xMidYMid meet">
<metadata>
Created by potrace 1.11, written by Peter Selinger 2001-2013
</metadata>
<g transform="translate(0.000000,600.000000) scale(0.100000,-0.100000)"
fill="#000000" stroke="none">
<path d="M3462 5950 c-223 -59 -415 -240 -476 -451 l-16 -54 -78 3 c-61 3 -94
11 -162 39 -142 60 -228 84 -330 90 -107 6 -226 -12 -300 -46 -25 -11 -281
-171 -570 -355 -289 -184 -526 -334 -527 -333 0 1 16 103 38 227 77 445 75
429 52 445 -23 16 -21 43 12 134 8 24 15 60 15 80 0 48 -38 113 -73 125 -144
51 -465 -288 -467 -492 0 -76 62 -142 125 -130 14 3 25 3 25 1 0 -2 -52 -178
-116 -391 -69 -230 -117 -406 -118 -434 -2 -88 69 -144 195 -154 68 -5 90 -1
269 49 659 185 965 267 977 263 18 -7 16 -48 -4 -93 -10 -21 -19 -40 -20 -42
-2 -2 -20 -7 -40 -10 -37 -6 -39 -9 -85 -111 -97 -219 -179 -496 -215 -730
-26 -175 -24 -507 5 -660 17 -91 80 -310 108 -377 3 -6 -10 -16 -31 -23 -40
-13 -17 -25 -329 178 -97 64 -146 90 -160 86 -16 -3 -85 46 -280 198 -142 112
-275 215 -296 230 -46 33 -116 54 -154 44 -41 -10 -114 -83 -126 -125 -5 -20
-24 -279 -41 -576 l-32 -540 -64 -129 c-35 -70 -66 -126 -69 -124 -2 3 1 42 7
87 6 45 9 118 7 162 -3 74 -6 83 -32 106 -39 33 -80 29 -84 -10 -3 -25 -1 -27
21 -21 20 4 28 1 37 -17 12 -22 12 -61 -6 -305 -7 -94 2 -134 31 -134 9 0 60
91 134 239 119 236 149 281 193 281 50 0 43 -132 -13 -264 -63 -148 -87 -289
-54 -316 8 -7 21 -10 29 -7 14 6 142 178 272 368 61 88 80 109 99 109 15 0 31
-10 41 -25 15 -23 14 -29 -7 -92 -12 -37 -73 -168 -135 -290 -145 -285 -145
-286 81 -134 132 89 172 111 200 111 31 0 35 -3 35 -26 0 -31 -90 -125 -190
-198 -84 -62 -277 -233 -284 -253 -9 -22 -1 -29 62 -58 86 -40 173 -56 269
-48 67 5 87 3 108 -11 34 -22 32 -40 -11 -82 -87 -84 -176 -106 -434 -108
-190 -1 -196 0 -245 24 -55 28 -115 104 -115 146 0 33 -61 78 -95 70 -35 -9
-36 -56 -1 -56 28 0 39 -13 56 -65 8 -23 34 -60 64 -90 41 -41 63 -55 112 -68
108 -30 453 -16 555 22 96 37 189 127 189 185 0 9 -13 30 -29 48 l-29 33 -134
1 c-113 1 -141 4 -187 23 -30 12 -58 24 -63 27 -10 6 104 110 252 228 125 100
172 149 198 203 15 31 15 37 1 61 -8 15 -26 33 -41 41 -39 22 -86 4 -217 -84
-61 -41 -112 -75 -114 -75 -1 0 37 80 86 177 92 188 133 298 123 337 -3 12
-18 35 -33 50 -23 23 -34 27 -70 24 -24 -2 -43 1 -43 5 0 12 20 149 26 175 l5
23 40 -32 41 -32 -7 -63 -6 -63 168 -182 c208 -227 184 -202 457 -454 125
-115 249 -223 274 -239 79 -50 273 -142 362 -174 105 -36 275 -77 403 -96 l97
-15 113 -114 c191 -193 398 -312 654 -377 36 -9 45 -18 72 -65 53 -93 160
-164 338 -224 225 -75 315 -65 343 37 14 54 2 83 -66 154 -31 32 -54 63 -52
69 2 7 35 20 73 30 90 23 197 67 314 130 245 131 451 341 583 594 l47 90 24
-55 c14 -30 89 -197 166 -370 78 -173 140 -321 139 -328 -5 -19 -104 52 -139
101 -17 23 -41 63 -54 88 -37 72 -72 107 -112 115 -32 6 -40 3 -64 -24 -53
-59 -64 -177 -28 -285 32 -97 168 -343 223 -404 80 -88 115 -99 296 -93 14 0
42 -2 63 -6 39 -7 43 -3 27 25 -17 33 -64 45 -115 31 -80 -22 -178 11 -239 81
-43 50 -165 265 -198 349 -43 110 -31 280 20 280 30 0 48 -20 97 -110 25 -47
56 -95 68 -108 38 -41 164 -120 177 -112 19 11 38 98 61 270 44 329 70 414
117 384 15 -10 17 -34 17 -234 0 -277 4 -282 95 -120 74 132 216 345 260 391
42 44 61 48 90 19 20 -20 20 -20 -6 -77 -83 -186 -204 -488 -200 -500 9 -22
60 -15 99 14 20 16 59 54 87 86 41 47 50 65 50 95 l0 37 -27 -35 c-38 -49
-135 -151 -140 -146 -3 3 78 201 146 359 16 37 21 69 21 132 l0 84 -40 11
c-75 20 -109 -13 -265 -258 l-90 -141 -12 32 c-6 18 -12 76 -12 130 -1 113
-15 151 -64 172 -27 11 -35 24 -58 91 -15 44 -88 259 -163 479 -74 220 -140
414 -146 432 -6 17 -20 43 -32 59 -16 20 -21 38 -19 71 6 94 -48 234 -137 358
l-49 69 71 18 c192 48 366 183 451 350 154 301 81 655 -178 864 l-38 31 64 69
c67 73 287 376 287 397 0 7 9 23 18 35 17 22 31 25 141 34 88 8 129 8 146 0
47 -21 123 29 95 63 -8 9 -8 15 0 20 5 3 10 20 10 36 0 42 -62 99 -108 99 -42
0 -53 -26 -37 -89 l12 -46 -90 -3 c-81 -2 -91 -1 -104 18 -8 11 -20 20 -26 20
-7 0 -37 -34 -67 -75 -30 -40 -60 -73 -67 -72 -7 1 -18 -7 -26 -17 -14 -19
-15 -19 -48 4 -41 29 -792 571 -798 576 -8 7 22 34 39 34 22 0 32 24 18 38 -8
8 6 30 47 76 l57 66 58 -50 c63 -55 115 -110 122 -131 6 -18 55 -3 69 22 17
33 -11 92 -121 258 -53 80 -102 156 -108 168 -7 12 -21 24 -31 28 -25 8 -77
-19 -92 -47 -18 -33 -5 -104 29 -158 l31 -50 -56 -65 c-30 -36 -61 -65 -67
-64 -28 3 -38 -2 -34 -19 3 -10 -5 -31 -18 -47 l-22 -28 -117 27 c-98 23 -115
31 -110 44 3 9 9 59 12 112 7 123 -13 215 -71 334 -95 194 -249 319 -457 370
-90 22 -244 20 -337 -4z m298 -114 c139 -35 204 -71 286 -158 116 -124 171
-269 160 -423 -3 -49 -9 -92 -14 -96 -10 -11 -485 106 -490 120 -2 6 -17 18
-34 27 -24 12 -32 13 -45 3 -17 -15 -11 -64 12 -89 21 -23 206 -452 201 -466
-11 -29 -181 -50 -275 -34 l-71 12 -14 51 c-8 29 -33 119 -55 201 -32 118 -49
162 -82 212 -50 77 -141 163 -204 194 -43 21 -46 24 -40 54 28 131 160 284
305 354 47 22 96 43 110 45 56 10 198 5 250 -7z m-2716 -178 c22 -20 24 -28
18 -63 -7 -35 -11 -40 -32 -37 -14 1 -48 5 -76 8 l-51 6 13 44 c18 62 20 64
64 64 26 0 47 -7 64 -22z m2873 -487 c100 -28 198 -53 217 -57 45 -8 47 -12
30 -53 l-14 -34 -23 20 c-55 50 -90 51 -141 4 -37 -34 -53 -72 -61 -148 -7
-54 -10 -62 -32 -66 -18 -3 -27 2 -37 22 -32 62 -156 350 -156 361 0 6 8 9 18
6 9 -3 99 -28 199 -55z m572 -157 c4 -4 -200 -244 -208 -244 -4 0 -17 33 -30
73 l-22 72 36 76 36 76 92 -25 c51 -14 94 -26 96 -28z m438 -281 c285 -214
343 -262 341 -280 -2 -12 7 -32 20 -46 30 -32 20 -54 -31 -68 -23 -6 -46 -18
-52 -26 -10 -14 -61 -13 -486 11 -261 14 -485 26 -498 26 -22 0 -21 2 17 44
48 52 62 95 62 197 l0 75 138 162 c75 89 139 161 141 162 2 0 159 -116 348
-257z m-2222 199 c98 -34 172 -82 251 -162 67 -69 174 -232 174 -266 0 -31
-18 -75 -40 -99 -10 -11 -31 -49 -46 -85 -15 -36 -31 -69 -34 -73 -4 -5 -51
12 -104 38 -105 50 -260 104 -377 130 -54 13 -141 18 -325 22 l-251 5 43 99
c24 55 44 106 44 114 0 31 -21 13 -43 -37 l-23 -53 -13 63 c-10 54 -10 70 4
110 29 85 95 142 208 177 194 62 384 68 532 17z m1388 -58 c31 -20 37 -30 31
-47 -3 -12 -8 -23 -9 -25 -1 -1 -22 7 -46 18 -24 11 -63 20 -86 20 -44 0 -50
8 -33 41 16 30 95 26 143 -7z m-303 -277 c0 -7 -29 -114 -65 -237 -36 -123
-65 -226 -65 -229 0 -2 -2 -2 -4 0 -6 5 -126 446 -126 460 0 6 31 7 78 4 42
-4 97 -2 122 3 25 6 48 10 53 11 4 1 7 -5 7 -12z m-1333 -222 c126 -19 312
-79 436 -141 136 -68 131 -57 92 -172 -56 -165 -70 -249 -69 -427 0 -171 13
-269 59 -421 14 -45 25 -86 25 -92 0 -5 -28 -26 -62 -47 -252 -155 -443 -360
-563 -606 -42 -85 -87 -214 -115 -326 -8 -31 -19 -47 -40 -58 -49 -25 -154
-137 -187 -200 -50 -95 -67 -167 -67 -280 0 -149 46 -268 148 -382 83 -92 235
-172 328 -173 25 0 44 -7 58 -22 11 -12 18 -23 17 -25 -6 -6 -185 27 -282 53
-167 43 -378 134 -510 219 -86 56 -502 448 -687 648 l-178 192 0 52 c0 84 20
201 47 277 29 79 41 101 92 165 36 45 142 121 169 121 9 0 110 -62 225 -137
l209 -137 47 13 c65 17 96 34 94 51 -1 8 -17 58 -36 110 -44 119 -82 292 -98
435 -14 131 -6 373 17 525 32 214 118 501 214 716 27 59 31 63 72 72 72 16
427 14 545 -3z m1643 -79 c0 -2 -7 -6 -15 -10 -8 -3 -15 -1 -15 4 0 6 7 10 15
10 8 0 15 -2 15 -4z m763 -38 c246 -12 447 -25 447 -29 0 -5 -17 -36 -39 -71
-21 -35 -50 -84 -65 -110 -15 -27 -31 -48 -37 -48 -5 0 -26 8 -47 19 -84 42
-183 65 -292 65 -154 1 -267 -34 -390 -119 -209 -144 -309 -353 -298 -621 l5
-111 -71 19 c-39 10 -112 24 -162 30 l-91 12 23 50 c12 28 54 193 93 366 39
173 73 326 77 339 5 24 6 23 29 -15 53 -89 182 -118 267 -59 89 62 115 189 55
268 -15 20 -27 39 -27 42 0 4 17 4 38 1 20 -3 238 -15 485 -28z m-593 3 c45
-24 44 -42 -4 -60 -38 -15 -39 -14 -62 15 -13 16 -24 37 -24 47 0 23 45 23 90
-2z m-106 -39 c12 -43 -5 -62 -55 -62 -49 0 -51 16 -8 65 37 41 50 41 63 -3z
m180 -48 c10 -25 7 -52 -9 -91 -13 -30 -17 -34 -31 -22 -8 7 -22 25 -30 40
-13 26 -12 30 12 58 28 34 49 39 58 15z m-185 -68 c11 -19 10 -29 -3 -55 -9
-17 -20 -31 -25 -31 -16 0 -51 47 -57 78 -6 32 -6 32 33 32 31 0 42 -5 52 -24z
m-986 -286 c58 -140 129 -313 158 -384 28 -70 61 -136 72 -146 19 -19 19 -19
-9 -25 -55 -12 -218 -68 -281 -96 l-62 -28 -22 72 c-58 194 -78 386 -59 556
11 103 48 263 72 316 10 23 13 24 19 8 4 -10 54 -133 112 -273z m1111 226 c16
-26 -18 -46 -76 -46 l-49 0 16 29 c8 17 25 37 37 45 19 13 25 14 42 3 11 -8
25 -21 30 -31z m634 -91 c45 -8 103 -23 128 -35 l46 -20 -44 -52 c-72 -85
-113 -150 -148 -237 l-32 -81 -42 0 c-108 0 -172 -115 -115 -207 29 -47 71
-66 131 -61 48 5 87 30 109 69 26 50 15 122 -27 163 -17 18 -17 21 24 101 23
45 76 125 118 178 61 78 79 95 92 88 10 -5 45 -38 79 -74 113 -117 174 -286
159 -436 -8 -80 -48 -202 -83 -255 -98 -149 -295 -266 -448 -266 l-57 0 -81
76 c-95 89 -217 174 -343 237 l-90 45 -17 70 c-31 129 -17 256 43 389 54 118
153 213 286 274 106 49 183 57 312 34z m-848 -758 c281 -71 473 -179 665 -372
153 -153 267 -330 301 -463 23 -95 0 -168 -27 -84 -6 20 -25 68 -42 105 -26
58 -34 68 -51 64 -12 -3 -57 -14 -101 -26 -128 -33 -238 -44 -390 -38 -202 7
-357 50 -548 149 -115 60 -196 125 -297 237 -41 45 -96 96 -123 113 -46 29
-52 31 -122 25 -149 -13 -277 -76 -341 -170 -74 -108 -95 -235 -60 -367 l17
-65 -67 -162 c-59 -145 -69 -163 -90 -163 -12 0 -34 10 -48 23 l-25 22 19 110
c11 61 20 124 20 141 0 35 -39 84 -66 84 -9 0 -29 11 -46 25 -64 54 -146 22
-203 -79 -50 -90 -67 -168 -63 -290 4 -117 29 -186 77 -207 l27 -12 -16 -62
c-10 -42 -26 -75 -49 -100 -33 -38 -91 -148 -91 -172 0 -7 -4 -13 -9 -13 -13
0 -30 85 -43 214 -26 251 37 561 163 806 74 143 138 230 254 345 148 146 331
266 519 339 184 71 283 87 531 81 177 -3 199 -6 325 -38z m-3535 -6 c22 -10
58 -35 80 -55 22 -20 140 -114 261 -209 l222 -172 -48 -32 c-102 -68 -176
-189 -214 -345 -11 -49 -23 -88 -26 -88 -3 0 -63 47 -135 105 -71 57 -138 104
-147 105 -41 1 -15 -39 67 -104 47 -37 85 -73 85 -79 -1 -7 -11 -84 -23 -172
l-23 -160 -123 -170 c-68 -93 -127 -174 -132 -179 -13 -14 17 103 46 179 54
144 65 186 65 261 0 66 -3 78 -25 99 -13 14 -34 25 -45 25 -26 0 -77 -25 -108
-53 l-22 -21 5 30 c2 16 16 238 31 494 26 454 27 466 51 501 40 60 88 72 158
40z m2909 -345 c23 -14 81 -68 129 -120 102 -111 177 -167 314 -237 300 -153
640 -188 959 -99 38 10 72 16 76 12 18 -18 71 -173 78 -227 5 -33 14 -85 21
-115 22 -92 17 -354 -9 -485 -59 -295 -185 -530 -393 -730 -54 -52 -107 -99
-117 -104 -17 -9 -18 -7 -14 14 9 52 -3 55 -221 55 -223 0 -319 13 -448 60
-102 38 -186 81 -284 145 -141 92 -285 155 -355 155 -15 0 -51 -7 -81 -16
-149 -44 -223 -235 -150 -389 35 -76 95 -129 204 -185 104 -53 62 -42 -63 16
-246 116 -443 295 -590 539 -50 82 -119 235 -120 263 0 7 -6 15 -14 18 -12 5
-13 11 -1 43 22 64 53 117 94 165 32 37 41 56 46 100 4 30 4 59 0 65 -3 7 2
11 14 11 30 0 51 11 51 26 0 10 -10 12 -42 8 -37 -5 -46 -2 -65 18 -71 75 -71
267 -2 415 60 128 153 153 193 53 16 -40 44 -52 38 -16 -4 20 12 21 28 1 11
-13 9 -41 -9 -151 -21 -123 -21 -137 -7 -158 20 -31 102 -63 124 -49 9 5 48
88 87 183 l71 173 -19 71 c-34 132 -8 264 74 367 85 108 303 164 403 105z
m1656 -706 c11 -21 20 -46 20 -54 0 -8 72 -226 160 -485 l160 -470 -20 -33
c-26 -44 -45 -134 -65 -299 -26 -223 -9 -238 -192 171 l-162 361 14 39 c8 22
26 92 42 157 25 108 27 134 27 313 0 141 -5 214 -16 262 -8 37 -13 70 -10 73
12 12 23 3 42 -35z m-2871 -201 c-29 -235 28 -629 91 -629 11 0 20 5 20 11 0
6 26 -40 58 -103 31 -62 54 -114 50 -116 -13 -6 -120 29 -173 55 -73 38 -166
137 -209 225 -52 106 -65 200 -42 315 23 120 64 198 144 278 36 36 67 63 69
61 2 -2 -1 -46 -8 -97z m1103 -847 c46 -21 126 -66 178 -99 245 -156 430 -216
667 -217 68 -1 123 -3 123 -6 0 -3 -3 -15 -6 -27 -6 -22 -11 -23 -119 -23
-176 0 -335 27 -497 85 -194 69 -478 251 -478 306 0 30 39 24 132 -19z m-272
-338 c25 -17 79 -50 121 -73 54 -29 85 -53 103 -82 l27 -40 -28 7 c-44 10
-167 69 -216 103 -51 35 -90 91 -81 115 7 17 8 17 74 -30z m1024 -224 c-5 -5
-45 -19 -89 -30 l-80 -20 -17 23 -17 22 77 6 c135 10 137 10 126 -1z"/>
<path d="M2675 4840 c-7 -32 -65 -80 -97 -80 -10 0 -18 -5 -18 -10 0 -21 31
-22 70 -1 48 25 50 25 50 7 0 -18 63 -86 79 -86 20 0 12 17 -25 54 -36 36 -36
38 -30 91 5 44 3 55 -8 55 -8 0 -17 -14 -21 -30z"/>
<path d="M2521 2277 c-8 -11 -5 -19 15 -38 26 -24 26 -25 20 -126 -7 -115 4
-133 29 -50 24 76 29 149 15 191 -10 30 -16 36 -40 36 -15 0 -33 -6 -39 -13z"/>
<path d="M3580 2276 c-90 -26 -118 -43 -139 -85 -26 -51 -28 -76 -3 -66 97 41
125 48 212 52 77 4 107 1 160 -16 35 -11 68 -17 71 -13 4 4 9 34 11 66 3 56 2
60 -22 67 -42 12 -242 8 -290 -5z m258 -22 c16 -5 22 -14 22 -35 0 -33 -3 -34
-85 -14 -90 22 -167 16 -284 -20 -21 -7 -22 -6 -13 12 7 12 34 26 74 37 35 10
68 20 73 21 19 6 190 5 213 -1z"/>
<path d="M4574 2103 c-8 -21 -18 -50 -21 -65 -5 -25 -2 -27 49 -37 100 -21
261 -116 317 -188 28 -35 41 -21 41 46 l0 59 -63 59 c-35 32 -85 71 -110 87
-46 26 -168 76 -187 76 -5 0 -17 -17 -26 -37z m143 -43 c99 -48 213 -148 213
-187 0 -23 -3 -22 -52 22 -53 46 -215 135 -247 135 -32 0 -43 15 -32 43 6 15
16 27 23 27 6 0 49 -18 95 -40z"/>
<path d="M3556 2054 c-58 -18 -132 -89 -165 -158 -37 -75 -47 -164 -27 -243
29 -119 98 -192 201 -213 65 -14 112 -3 177 40 93 62 140 156 142 285 0 67 -4
89 -27 140 -16 33 -40 73 -55 88 -60 64 -159 88 -246 61z m192 -57 c141 -93
141 -355 -1 -471 -54 -44 -85 -56 -149 -56 -121 0 -211 111 -210 258 1 122 63
235 154 281 60 31 150 26 206 -12z"/>
<path d="M3635 1760 c10 -16 -5 -50 -22 -50 -9 0 -21 7 -28 16 -10 14 -13 13
-24 -15 -25 -58 16 -127 80 -137 30 -5 41 -1 72 26 29 25 37 39 37 67 0 38
-15 71 -39 90 -19 15 -85 17 -76 3z"/>
<path d="M4545 1841 c-56 -26 -119 -95 -151 -166 -24 -50 -28 -74 -28 -145 0
-73 4 -93 27 -142 92 -188 304 -208 432 -41 125 163 76 428 -92 498 -49 21
-139 19 -188 -4z m214 -44 c132 -88 141 -324 17 -455 -46 -50 -96 -72 -162
-72 -206 0 -291 284 -142 472 69 88 199 113 287 55z"/>
<path d="M4599 1523 c-1 -5 -2 -19 -2 -33 -2 -22 -6 -25 -34 -24 -31 2 -33 0
-33 -31 0 -40 38 -90 75 -99 16 -4 42 1 70 13 35 15 46 27 53 53 17 65 -27
128 -90 128 -21 0 -38 -3 -39 -7z"/>
<path d="M4050 1276 c0 -19 120 -130 177 -162 71 -40 84 -54 77 -78 -26 -86
-126 -95 -265 -26 -39 19 -61 25 -65 18 -18 -29 114 -88 216 -95 60 -5 68 -3
97 21 35 29 58 85 48 115 -3 11 -40 41 -81 66 -41 26 -101 71 -133 101 -62 57
-71 62 -71 40z"/>
<path d="M1560 5925 c-10 -12 -9 -20 4 -41 21 -30 50 -28 54 4 6 43 -33 67
-58 37z"/>
<path d="M2522 5873 c2 -10 12 -18 23 -18 11 0 21 8 23 18 3 13 -3 17 -23 17
-20 0 -26 -4 -23 -17z"/>
<path d="M4540 5850 c0 -13 7 -20 20 -20 13 0 20 7 20 20 0 13 -7 20 -20 20
-13 0 -20 -7 -20 -20z"/>
<path d="M4342 5823 c2 -10 12 -18 23 -18 11 0 21 8 23 18 3 13 -3 17 -23 17
-20 0 -26 -4 -23 -17z"/>
<path d="M5572 5808 c2 -15 10 -23 23 -23 30 0 27 39 -3 43 -20 3 -23 0 -20
-20z"/>
<path d="M2882 5793 c2 -10 12 -18 23 -18 11 0 21 8 23 18 3 13 -3 17 -23 17
-20 0 -26 -4 -23 -17z"/>
<path d="M1520 5759 c0 -28 -2 -31 -22 -24 -13 4 -43 10 -68 12 l-45 5 38 -32
c43 -36 48 -53 12 -44 -34 8 -31 -5 10 -53 40 -47 90 -68 138 -58 79 17 98 84
51 177 l-26 51 -18 -28 -18 -27 -17 26 c-23 35 -35 33 -35 -5z"/>
<path d="M1788 5763 c-39 -44 -14 -88 37 -65 22 10 26 18 23 45 -4 38 -35 48
-60 20z"/>
<path d="M5362 5713 c2 -10 13 -19 26 -21 17 -3 22 2 22 17 0 16 -6 21 -26 21
-19 0 -25 -5 -22 -17z"/>
<path d="M1469 5456 c-15 -31 14 -78 45 -74 29 4 36 66 10 85 -26 19 -43 16
-55 -11z"/>
<path d="M5224 5395 c-4 -9 -2 -21 4 -27 15 -15 44 -1 40 19 -4 23 -36 29 -44
8z"/>
<path d="M510 4050 c-25 -25 -26 -62 -2 -83 23 -21 81 -22 110 -1 27 19 29 64
4 87 -26 24 -87 22 -112 -3z"/>
<path d="M924 3971 c-68 -12 -140 -72 -186 -158 -19 -36 -21 -46 -11 -63 7
-11 10 -32 7 -50 -7 -35 9 -60 38 -60 13 0 18 -5 15 -14 -3 -8 0 -22 8 -33 20
-28 172 -26 236 3 78 36 159 131 159 187 0 22 4 27 25 27 40 0 29 23 -25 55
-28 16 -46 31 -40 33 5 2 10 10 10 17 0 9 -17 16 -47 20 -64 9 -74 12 -71 27
3 15 -55 20 -118 9z m46 -49 c0 -11 -108 -47 -116 -39 -4 4 6 12 22 18 16 6
38 15 49 19 26 11 45 12 45 2z m70 -30 c0 -10 -79 -36 -87 -29 -6 7 48 35 70
36 9 1 17 -3 17 -7z m-130 -92 c-20 -13 -43 -13 -35 0 3 6 16 10 28 10 18 0
19 -2 7 -10z"/>
<path d="M350 3662 c-19 -16 -22 -24 -16 -55 8 -44 29 -57 89 -57 69 0 100 53
61 108 -20 29 -100 31 -134 4z"/>
<path d="M915 3369 c-49 -43 -54 -71 -21 -114 39 -50 93 -47 154 8 31 28 30
86 -1 115 -35 33 -88 29 -132 -9z"/>
<path d="M5562 2914 c-29 -20 -30 -75 -1 -115 43 -61 130 -23 115 51 -14 73
-63 100 -114 64z"/>
<path d="M5701 2516 c-27 -28 -23 -52 15 -87 23 -22 27 -23 52 -8 35 19 39 57
12 92 -26 33 -50 34 -79 3z"/>
<path d="M5386 2299 c-30 -36 -33 -65 -9 -99 57 -81 132 -90 168 -19 25 47 -3
102 -67 135 -41 21 -64 17 -92 -17z"/>
<path d="M1206 1179 c-32 -25 -66 -89 -66 -124 0 -33 24 -81 45 -89 75 -28
175 47 175 133 0 24 -9 42 -34 67 -40 40 -80 44 -120 13z"/>
<path d="M1559 817 c-54 -29 -86 -74 -95 -133 -5 -38 -3 -50 20 -83 15 -21 37
-44 51 -51 48 -26 197 14 245 65 15 16 24 41 27 72 12 120 -128 193 -248 130z"/>
<path d="M949 522 c-109 -70 -119 -242 -19 -326 27 -22 41 -26 95 -26 54 0 69
4 111 33 69 46 89 85 89 178 0 120 -38 159 -158 166 -66 4 -76 2 -118 -25z"/>
<path d="M5982 406 c-9 -20 -10 -32 -3 -39 16 -16 23 -3 19 34 l-3 34 -13 -29z"/>
<path d="M5950 40 l-45 -39 43 -1 c46 0 56 10 50 53 l-3 26 -45 -39z"/>
</g>
</svg>
