<?xml version="1.0" encoding="utf-8"?>
<!-- Generator: Adobe Illustrator 25.0.0, SVG Export Plug-In . SVG Version: 6.00 Build 0)  -->
<svg version="1.1" xmlns="http://www.w3.org/2000/svg" xmlns:xlink="http://www.w3.org/1999/xlink" x="0px" y="0px"
	 viewBox="0 0 33 33" style="enable-background:new 0 0 33 33;" xml:space="preserve">
<style type="text/css">
	.st0{fill:#B3B3B3;stroke:#000000;stroke-linecap:round;stroke-miterlimit:10;}
	.st1{fill:none;stroke:#000000;stroke-width:2;stroke-linecap:round;stroke-miterlimit:10;}
	.st2{fill:none;stroke:#FFFFFF;stroke-width:2;stroke-linecap:round;stroke-linejoin:round;stroke-miterlimit:10;}
	.st3{fill:none;stroke:#000000;stroke-width:2;stroke-linecap:round;stroke-linejoin:bevel;}
	.st4{fill:none;stroke:#000000;stroke-width:2;stroke-linecap:round;stroke-linejoin:bevel;stroke-dasharray:0,4.0474;}
</style>
<g id="Layer_2">
	<rect x="0.5" y="0.5" class="st0" width="32" height="32"/>
</g>
<g id="Layer_1">
	<path class="st1" d="M12.2,9H6.6c0,0-1.1,0-1.1,1.5s0,13.1,0,13.1s0,1.5,1.1,1.5s5.6,0,5.6,0"/>
	<line class="st2" x1="16.5" y1="7.5" x2="16.5" y2="26.5"/>
	<g>
		<g>
			<line class="st3" x1="20.8" y1="25" x2="20.8" y2="25"/>
			<path class="st4" d="M24.9,25h1.5c0,0,1.1,0,1.1-1.5c0-1.5,0-13.1,0-13.1s0-1.5-1.1-1.5c-0.6,0-2.2,0-3.6,0"/>
			<line class="st3" x1="20.8" y1="9" x2="20.8" y2="9"/>
		</g>
	</g>
</g>
</svg>
