<svg version="1.1" id="Layer_1" xmlns="http://www.w3.org/2000/svg" x="0" y="0" viewBox="0 0 780.5 258.8" xml:space="preserve"><style>.st1{enable-background:new}.st2{fill:#fff}</style><path d="M780.5 234.8c0 13.2-10.8 24-24 24H24c-13.2 0-24-10.8-24-24V24C0 10.8 10.8 0 24 0h732.5c13.2 0 24 10.8 24 24v210.8z" fill="#7289da"/><g class="st1"><path class="st2" d="M263 50.2c.5 2.7 2.7 3.8 4.9 3.8s4.1-1.3 4.1-3.3v-15h-7.7v-7.8h16.2v22.9c0 7.4-6.5 11.6-13 11.6-5.9 0-11.7-3.3-12.6-10.5l8.1-1.7zM284.8 39.1c0-7.8 7-11.7 14.1-11.7S313 31.3 313 39.1v11.6c0 7.8-7 11.7-14.1 11.7s-14.1-3.9-14.1-11.7V39.1zm8.6 11.6c0 2.5 2.8 3.7 5.5 3.7s5.5-1.2 5.5-3.7V39.1c0-2.6-2.8-3.8-5.6-3.8-2.7 0-5.4 1.3-5.4 3.8v11.6zM326.2 61.9h-8.6v-34h8.6v34zM331.5 27.9h8.2l8.2 14.5 2.9 6.8h.2s-.9-5.9-1-5.9V27.9h8.5v34h-8.7l-7.7-13.4-3-6.8h-.2l1.1 6.6v13.6h-8.6v-34zM377.3 50.2c.5 2.7 2.7 3.8 4.8 3.8 2.1 0 4.1-1.3 4.1-3.3v-15h-7.7v-7.8h16.2v22.9c0 7.4-6.5 11.6-13 11.6-5.9 0-11.7-3.3-12.6-10.5l8.2-1.7zM399.1 39.1c0-7.8 7-11.7 14.1-11.7s14.1 3.9 14.1 11.7v11.6c0 7.8-7 11.7-14.1 11.7s-14.1-3.9-14.1-11.7V39.1zm8.6 11.6c0 2.5 2.8 3.7 5.5 3.7s5.5-1.2 5.5-3.7V39.1c0-2.6-2.8-3.8-5.6-3.8-2.7 0-5.4 1.3-5.4 3.8v11.6zM431.9 27.9h8.6v25.5h13.8v8.5h-22.5v-34zM457.8 27.9h8.6v25.5h13.8v8.5h-22.5v-34zM487.1 61.9V48.5l-11.9-20.6h10l6.1 12.5 6.1-12.5h10.1l-11.9 20.6v13.4h-8.5zM548 27.9h8.9l-9.8 34h-8l-3-9.4-1.2-7.8h-.1l-1.3 7.7-2.7 9.5h-8l-9.8-34h8.9l4 16.3.9 7.2h.2l.8-7.2 3.8-11.9h6.5l3.5 12 1.1 7.1h.1l1-7.1 4.2-16.4zM558.1 39.1c0-7.8 7-11.7 14.1-11.7s14.1 3.9 14.1 11.7v11.6c0 7.8-7 11.7-14.1 11.7s-14.1-3.9-14.1-11.7V39.1zm8.6 11.6c0 2.5 2.8 3.7 5.5 3.7s5.5-1.2 5.5-3.7V39.1c0-2.6-2.8-3.8-5.6-3.8-2.7 0-5.4 1.3-5.4 3.8v11.6zM601.1 51.1h-1.5v10.8h-8.7v-34h13.6c7 0 12.4 3.2 12.6 11.2 0 6.3-2.5 9.8-6.7 11.1l9.3 11.7H609l-7.9-10.8zm3.5-7.4c5.4 0 5.4-7.8 0-7.8h-5v7.8h5zM621.9 27.9h8.6v25.5h13.8v8.5h-22.5v-34zM660.5 27.9c6.8 0 13.2 3.5 13.2 11.4v11.4c0 7.8-6.4 11.2-13.2 11.2h-12.7v-34h12.7zm.3 25.9c2.9 0 4.3-1.5 4.3-3.7V39.5c0-2.2-1.4-3.6-4.3-3.6h-4.4v17.9h4.4zM686.3 39.1c0-7.8 7-11.7 14.1-11.7s14.1 3.9 14.1 11.7v11.6c0 7.8-7 11.7-14.1 11.7s-14.1-3.9-14.1-11.7V39.1zm8.6 11.6c0 2.5 2.8 3.7 5.5 3.7s5.5-1.2 5.5-3.7V39.1c0-2.6-2.8-3.8-5.6-3.8-2.7 0-5.4 1.3-5.4 3.8v11.6zM719 27.9h8.2l8.2 14.5 2.9 6.8h.2s-.9-5.9-1-5.9V27.9h8.5v34h-8.7l-7.7-13.4-3-6.8h-.2l1.1 6.6v13.6H719v-34z"/></g><path class="st2" d="M139.1 108.7c-5.7 0-10.2 4.9-10.2 11s4.6 11 10.2 11c5.7 0 10.2-4.9 10.2-11s-4.6-11-10.2-11zm-36.5 0c-5.7 0-10.2 4.9-10.2 11s4.6 11 10.2 11c5.7 0 10.2-4.9 10.2-11 .1-6.1-4.5-11-10.2-11z"/><path class="st2" d="M187.7 22.5h-134c-11.3 0-20.5 9.2-20.5 20.5v134c0 11.3 9.2 20.5 20.5 20.5h113.4l-5.3-18.3 12.8 11.8 12.1 11.1 21.6 18.7V43c-.1-11.3-9.3-20.5-20.6-20.5zM149.1 152s-3.6-4.3-6.6-8c13.1-3.7 18.1-11.8 18.1-11.8-4.1 2.7-8 4.6-11.5 5.9-5 2.1-9.8 3.4-14.5 4.3-9.6 1.8-18.4 1.3-25.9-.1-5.7-1.1-10.6-2.6-14.7-4.3-2.3-.9-4.8-2-7.3-3.4-.3-.2-.6-.3-.9-.5-.2-.1-.3-.2-.4-.2-1.8-1-2.8-1.7-2.8-1.7s4.8 7.9 17.5 11.7c-3 3.8-6.7 8.2-6.7 8.2-22.1-.7-30.5-15.1-30.5-15.1 0-31.9 14.4-57.8 14.4-57.8 14.4-10.7 28-10.4 28-10.4l1 1.2c-18 5.1-26.2 13-26.2 13s2.2-1.2 5.9-2.8c10.7-4.7 19.2-5.9 22.7-6.3.6-.1 1.1-.2 1.7-.2 6.1-.8 13-1 20.2-.2 9.5 1.1 19.7 3.9 30.1 9.5 0 0-7.9-7.5-24.9-12.6l1.4-1.6s13.7-.3 28 10.4c0 0 14.4 25.9 14.4 57.8 0-.1-8.4 14.3-30.5 15zm141-63.7h-33.2v37.3l22.1 19.9v-36.2h11.8c7.5 0 11.2 3.6 11.2 9.4v27.7c0 5.8-3.5 9.7-11.2 9.7h-34v21.1H290c17.8.1 34.5-8.8 34.5-29.2v-29.8c.1-20.8-16.6-29.9-34.4-29.9zm174 59.7v-30.6c0-11 19.8-13.5 25.8-2.5l18.3-7.4C501 91.7 487.9 87.1 477 87.1c-17.8 0-35.4 10.3-35.4 30.3V148c0 20.2 17.6 30.3 35 30.3 11.2 0 24.6-5.5 32-19.9l-19.6-9c-4.8 12.3-24.9 9.3-24.9-1.4zm-60.5-26.4c-6.9-1.5-11.5-4-11.8-8.3.4-10.3 16.3-10.7 25.6-.8l14.7-11.3C422.9 90 412.5 87 401.8 87c-16.3 0-32.1 9.2-32.1 26.6 0 16.9 13 26 27.3 28.2 7.3 1 15.4 3.9 15.2 8.9-.6 9.5-20.2 9-29.1-1.8l-14.2 13.3c8.3 10.7 19.6 16.1 30.2 16.1 16.3 0 34.4-9.4 35.1-26.6 1-21.7-14.8-27.2-30.6-30.1zm-67 55.5H359V88.3h-22.4v88.8zm377.7-88.8h-33.2v37.3l22.1 19.9v-36.2H715c7.5 0 11.2 3.6 11.2 9.4v27.7c0 5.8-3.5 9.7-11.2 9.7h-34v21.1h33.3c17.8.1 34.5-8.8 34.5-29.2v-29.8c0-20.8-16.7-29.9-34.5-29.9zm-162.9-1.2c-18.4 0-36.7 10-36.7 30.5v30.3c0 20.3 18.4 30.5 36.9 30.5 18.4 0 36.7-10.2 36.7-30.5v-30.3c0-20.4-18.5-30.5-36.9-30.5zm14.4 60.8c0 6.4-7.2 9.7-14.3 9.7-7.2 0-14.4-3.1-14.4-9.7v-30.3c0-6.5 7-10 14-10 7.3 0 14.7 3.1 14.7 10v30.3zm102.9-30.3c-.5-20.8-14.7-29.2-33-29.2h-35.5v88.8h22.7V149h4l20.6 28.2h28l-24.2-30.5c10.7-3.4 17.4-12.7 17.4-29.1zm-32.6 12h-13.2v-20.3h13.2c14.1 0 14.1 20.3 0 20.3z"/><linearGradient id="SVGID_1_" gradientUnits="userSpaceOnUse" x1="309" y1="36.5" x2="694" y2="36.5" gradientTransform="matrix(1 0 0 -1 0 258)"><stop offset="0" stop-color="#b473f4"/><stop offset="1" stop-color="#e191ac"/></linearGradient><path d="M694 221.5c0 12.8-10.8 23.3-24 23.3H333c-13.2 0-24-10.5-24-23.3s10.8-23.3 24-23.3h337c13.2 0 24 10.5 24 23.3z" fill="url(#SVGID_1_)"/><g class="st1"><path class="st2" d="M347.5 209.9v18.3h10.9v4.1h-15.9v-22.4h5zM366.1 209.9v22.4h-4.9v-22.4h4.9zM377.4 209.9l5.2 15.4h.1l5-15.4h6.9v22.4H390v-15.9h-.1l-5.5 15.9h-3.8l-5.5-15.7h-.1v15.7h-4.6v-22.4h7zM403.8 209.9v22.4h-4.9v-22.4h4.9zM406.4 214v-4.1h18.4v4.1h-6.7v18.3h-4.9V214h-6.8zM444.1 209.9v4.1h-11.8v4.8h10.9v3.8h-10.9v5.5h12.1v4.1h-17v-22.4h16.7zM457.4 209.9c1.4 0 2.8.2 4 .7 1.2.5 2.3 1.2 3.2 2.1.9.9 1.6 2.1 2.1 3.5s.8 3 .8 4.9c0 1.6-.2 3.1-.6 4.5s-1.1 2.6-1.9 3.6-1.9 1.8-3.2 2.4-2.8.9-4.5.9h-9.7v-22.4h9.8zm-.4 18.3c.7 0 1.4-.1 2.1-.3.7-.2 1.3-.6 1.8-1.1.5-.5.9-1.2 1.3-2.1.3-.9.5-1.9.5-3.1 0-1.1-.1-2.2-.3-3.1s-.6-1.7-1.1-2.3c-.5-.6-1.2-1.1-2-1.5-.8-.3-1.8-.5-3.1-.5h-3.5v14.1h4.3zM490.3 209.9c1.1 0 2 .1 2.9.3.9.2 1.6.5 2.3.9.6.4 1.1 1 1.5 1.7s.5 1.6.5 2.6c0 1.1-.3 2.1-.8 2.8-.5.8-1.3 1.4-2.3 1.9 1.4.4 2.4 1.1 3.1 2.1.7 1 1 2.2 1 3.6 0 1.1-.2 2.1-.7 2.9s-1 1.5-1.8 2c-.7.5-1.6.9-2.5 1.2-1 .3-1.9.4-2.9.4h-10.9v-22.4h10.6zm-.7 9.1c.9 0 1.6-.2 2.2-.6.6-.4.8-1.1.8-2 0-.5-.1-1-.3-1.3s-.4-.6-.8-.8c-.3-.2-.7-.3-1.1-.4-.4-.1-.8-.1-1.3-.1h-4.6v5.2h5.1zm.3 9.5c.5 0 .9 0 1.4-.1.4-.1.8-.3 1.2-.5s.6-.5.8-.9c.2-.4.3-.9.3-1.4 0-1.2-.3-2-1-2.5-.6-.5-1.5-.7-2.6-.7h-5.4v6.2h5.3zM518.6 209.9v4.1h-11.8v4.8h10.9v3.8h-10.9v5.5h12.1v4.1h-17v-22.4h16.7zM520.4 214v-4.1h18.4v4.1h-6.7v18.3h-4.9V214h-6.8zM549.6 209.9l8.4 22.4h-5.1l-1.7-5h-8.4l-1.8 5h-5l8.5-22.4h5.1zm.3 13.7l-2.8-8.2h-.1l-2.9 8.2h5.8zM572.5 226.8c.3.5.6.9 1.1 1.3s1 .6 1.6.7 1.2.2 1.9.2c.4 0 .9 0 1.4-.1.5-.1 1-.2 1.4-.4s.8-.5 1.1-.9c.3-.4.4-.8.4-1.4 0-.6-.2-1.1-.6-1.5-.4-.4-.9-.7-1.5-.9-.6-.3-1.3-.5-2.1-.7l-2.4-.6c-.8-.2-1.7-.5-2.4-.8-.8-.3-1.5-.7-2.1-1.2s-1.1-1.1-1.5-1.8c-.4-.7-.6-1.6-.6-2.6 0-1.2.2-2.2.7-3 .5-.8 1.1-1.6 1.9-2.1.8-.6 1.7-1 2.7-1.3 1-.3 2-.4 3-.4 1.2 0 2.3.1 3.4.4 1.1.3 2 .7 2.9 1.3.8.6 1.5 1.3 2 2.2.5.9.7 2 .7 3.3h-4.8c0-.7-.2-1.2-.4-1.7-.2-.4-.6-.8-1-1-.4-.3-.9-.4-1.4-.5-.5-.1-1.1-.2-1.7-.2-.4 0-.8 0-1.2.1-.4.1-.8.2-1.1.4s-.6.5-.8.8c-.2.3-.3.7-.3 1.2 0 .4.1.8.3 1.1.2.3.5.5 1 .8.5.2 1.2.5 2 .7.9.2 2 .5 3.4.9.4.1 1 .2 1.7.5s1.5.6 2.2 1.1c.7.5 1.4 1.1 1.9 1.9.5.8.8 1.8.8 3.1 0 1-.2 2-.6 2.9-.4.9-1 1.6-1.8 2.3-.8.6-1.8 1.1-2.9 1.5s-2.5.5-4 .5c-1.2 0-2.4-.2-3.6-.5-1.2-.3-2.2-.8-3.1-1.4-.9-.6-1.6-1.5-2.1-2.5s-.8-2.2-.8-3.6h4.8c.1.7.2 1.4.5 1.9zM605.9 209.9v4.1H594v4.8h10.9v3.8H594v5.5h12.1v4.1h-17v-22.4h16.8zM620.6 209.9l8.4 22.4h-5.1l-1.7-5h-8.4l-1.8 5h-5l8.5-22.4h5.1zm.3 13.7l-2.8-8.2h-.1l-2.9 8.2h5.8zM626.3 214v-4.1h18.4v4.1H638v18.3h-5V214h-6.7zM651 226.8c.3.5.6.9 1.1 1.3s1 .6 1.6.7 1.2.2 1.9.2c.4 0 .9 0 1.4-.1.5-.1 1-.2 1.4-.4s.8-.5 1.1-.9c.3-.4.4-.8.4-1.4 0-.6-.2-1.1-.6-1.5-.4-.4-.9-.7-1.5-.9-.6-.3-1.3-.5-2.1-.7l-2.4-.6c-.8-.2-1.7-.5-2.4-.8-.8-.3-1.5-.7-2.1-1.2s-1.1-1.1-1.5-1.8c-.4-.7-.6-1.6-.6-2.6 0-1.2.2-2.2.7-3 .5-.8 1.1-1.6 1.9-2.1.8-.6 1.7-1 2.7-1.3 1-.3 2-.4 3-.4 1.2 0 2.3.1 3.4.4 1.1.3 2 .7 2.9 1.3.8.6 1.5 1.3 2 2.2.5.9.7 2 .7 3.3h-4.8c0-.7-.2-1.2-.4-1.7-.2-.4-.6-.8-1-1-.4-.3-.9-.4-1.4-.5-.5-.1-1.1-.2-1.7-.2-.4 0-.8 0-1.2.1-.4.1-.8.2-1.1.4s-.6.5-.8.8c-.2.3-.3.7-.3 1.2 0 .4.1.8.3 1.1.2.3.5.5 1 .8.5.2 1.2.5 2 .7.9.2 2 .5 3.4.9.4.1 1 .2 1.7.5s1.5.6 2.2 1.1c.7.5 1.4 1.1 1.9 1.9.5.8.8 1.8.8 3.1 0 1-.2 2-.6 2.9-.4.9-1 1.6-1.8 2.3-.8.6-1.8 1.1-2.9 1.5s-2.5.5-4 .5c-1.2 0-2.4-.2-3.6-.5-1.2-.3-2.2-.8-3.1-1.4-.9-.6-1.6-1.5-2.1-2.5s-.8-2.2-.8-3.6h4.8c.1.7.2 1.4.5 1.9z"/></g></svg>