<?xml version="1.0" encoding="utf-8"?>
<!-- Generator: Adobe Illustrator 16.0.0, SVG Export Plug-In . SVG Version: 6.00 Build 0)  -->
<!DOCTYPE svg PUBLIC "-//W3C//DTD SVG 1.1//EN" "http://www.w3.org/Graphics/SVG/1.1/DTD/svg11.dtd">
<svg version="1.1" id="Layer_1" xmlns="http://www.w3.org/2000/svg" xmlns:xlink="http://www.w3.org/1999/xlink" x="0px" y="0px"
	 width="259px" height="204px" viewBox="0 0 259 204" enable-background="new 0 0 259 204" xml:space="preserve">
<symbol  id="Symbol_18" viewBox="-43.475 -44.125 86.95 88.25">
	
		<path fill-rule="evenodd" clip-rule="evenodd" fill="none" stroke="#999999" stroke-width="0.25" stroke-linecap="round" stroke-linejoin="round" stroke-miterlimit="3" stroke-opacity="0.502" d="
		M1.1,2.95l-0.45,0.5L0,3.15 M2.05,2.4L2.7,2.25L2.6,4.4L0.65,3.45L-0.9,5l-0.85-2l0.7-0.05 M3.1,0.55L3.5,0l1.3,1.75l-2.1,0.5
		l0.05-0.7 M38.1,22L9.15,7.65L4.8,1.75L11.95,0l31.4,7.65 M15.05,41.35L2.1,11.8l0.5-7.4l6.55,3.25L28.3,33.7 M0,44l2.1-32.2
		l-3-6.8l-5.05,5.3l2.05-7.05L-1.75,3l-0.3-0.6 M2.75-1.6L2.7-2.25l2.1,0.5L3.5,0L3.1-0.55 M-1.05-3L-1.7-3.1l0.85-1.95l1.5,1.55
		L0-3.15 M1.1-3L0.65-3.5l1.9-0.95l0.15,2.2L2-2.4 M28.3-33.7L9.2-7.7L2.55-4.45l-0.45-7.3l12.95-29.6 M9.2-7.7L4.8-1.75L11.95,0
		l31.4-7.65 M38.1-22L9.2-7.7 M2.1-11.75L0-44 M-3.9,3.25l-7.35,0.85L-5.1,0l1.8,1.2L-3.9,3.25z M-3.1,0.55L-3.3,1.2l0.55,0.35
		 M-43.35,7.65l32.1-3.55L-38.1,22 M-28.3,33.7l22.35-23.4l-9.1,31.05 M-1.7-3.1l-2.2-0.25L-6-10.4l5.15,5.35l2.95-6.7 M-1.7-3.1
		L-2-2.4 M-2.75-1.6L-3.3-1.25l-0.6-2.1 M-3.1-0.55l-0.2-0.7L-5.1,0l-6.2-4.15l7.4,0.8 M-15.05-41.35L-6-10.4l-22.3-23.3
		 M-11.3-4.15L-38.1-22 M-11.3-4.15l-32.05-3.5"/>
</symbol>
<symbol  id="Symbol_19" viewBox="-50 -50 100 100">
	<g id="Layer_3_1_">
		<path fill-rule="evenodd" clip-rule="evenodd" d="M0.1,50c7.066,0,13.583-1.267,19.55-3.8c4.167-1.767,8.067-4.133,11.7-7.1
			l1.95-1.65l6-6.35C46.2,22.567,49.767,12.633,50,1.3v-2.25c-0.2-13.433-5.05-24.9-14.55-34.4l-4.1-3.7
			C22.45-46.317,12.033-49.967,0.1-50H0c-13.833,0-25.6,4.883-35.3,14.65C-45.067-25.617-49.967-13.833-50,0
			c0.033,10.3,2.75,19.467,8.15,27.5l2.65,3.6l5.65,6C-24.183,45.7-13,50,0,50H0.1z M33.6,33.6C24.367,42.867,13.167,47.5,0,47.5
			c-13.133,0-24.333-4.633-33.6-13.9S-47.5,13.133-47.5,0c0-13.167,4.633-24.383,13.9-33.65C-24.333-42.883-13.133-47.5,0-47.5
			c13.167,0,24.367,4.617,33.6,13.85c9.033,9.033,13.667,19.933,13.9,32.7V1.3C47.2,13.867,42.567,24.633,33.6,33.6z"/>
		<path fill-rule="evenodd" clip-rule="evenodd" fill="#CC9933" d="M31.85,31.85C23.083,40.617,12.467,45,0,45
			s-23.083-4.383-31.85-13.15S-45,12.467-45,0c0-9.8,2.733-18.467,8.2-26c1.4-1.967,3-3.85,4.8-5.65l0.15-0.2
			C-23.083-40.617-12.467-45,0-45c12.433,0,23.05,4.383,31.85,13.15c1.867,1.867,3.517,3.817,4.95,5.85
			c5.3,7.3,8.034,15.65,8.2,25.05V1.3C44.7,13.2,40.317,23.383,31.85,31.85z M33.6,33.6c8.967-8.967,13.6-19.733,13.9-32.3v-2.25
			c-0.233-12.767-4.867-23.667-13.9-32.7C24.367-42.883,13.167-47.5,0-47.5c-13.133,0-24.333,4.617-33.6,13.85
			C-42.867-24.383-47.5-13.167-47.5,0c0,13.133,4.633,24.333,13.9,33.6S-13.133,47.5,0,47.5C13.167,47.5,24.367,42.867,33.6,33.6z"
			/>
		<linearGradient id="SVGID_1_" gradientUnits="userSpaceOnUse" x1="0" y1="47.0498" x2="-4.025806e-006" y2="-45.0499">
			<stop  offset="0" style="stop-color:#333333"/>
			<stop  offset="1" style="stop-color:#FFFFFF"/>
		</linearGradient>
		<path fill-rule="evenodd" clip-rule="evenodd" fill="url(#SVGID_1_)" d="M30.65,30.9C22.283,39.3,12.067,43.5,0,43.5
			c-12.1,0-22.417-4.2-30.95-12.6C-39.317,22.367-43.5,12.067-43.5,0c0-12.033,4.183-22.25,12.55-30.65
			C-22.417-39.217-12.1-43.5,0-43.5c12.067,0,22.283,4.283,30.65,12.85c8.333,8.167,12.617,18.066,12.85,29.7V1.3
			C43.2,12.8,38.917,22.667,30.65,30.9z M31.85,31.85C40.317,23.383,44.7,13.2,45,1.3v-2.25c-0.167-9.4-2.9-17.75-8.2-25.05
			c-1.433-2.033-3.083-3.983-4.95-5.85C23.05-40.617,12.433-45,0-45c-12.467,0-23.083,4.383-31.85,13.15l-0.15,0.2
			c-1.8,1.8-3.4,3.683-4.8,5.65C-42.267-18.467-45-9.8-45,0c0,12.467,4.383,23.083,13.15,31.85S-12.467,45,0,45
			S23.083,40.617,31.85,31.85z"/>
	</g>
</symbol>
<symbol  id="Symbol_20" viewBox="-3 -3 6 6">
	<path fill-rule="evenodd" clip-rule="evenodd" fill="#999999" d="M2.1,2.15C2.7,1.55,3,0.833,3,0S2.7-1.55,2.1-2.15
		C1.533-2.717,0.833-3,0-3s-1.55,0.283-2.15,0.85C-2.717-1.55-3-0.833-3,0s0.283,1.55,0.85,2.15C-1.55,2.717-0.833,3,0,3
		S1.533,2.717,2.1,2.15z"/>
</symbol>
<use xlink:href="#Symbol_19"  width="100" height="100" x="-50" y="-50" transform="matrix(1 0 0 -1 58.2002 152.9004)" overflow="visible"/>
<use xlink:href="#Symbol_19"  width="100" height="100" x="-50" y="-50" transform="matrix(1 0 0 -1 208.2002 152.9004)" overflow="visible"/>
<path fill-rule="evenodd" clip-rule="evenodd" fill="#999999" d="M127.3,148.55l-1.95-2.649c-1.667-1.667-3.583-2.617-5.75-2.851
	l0.15,3.351c0.067,1.199,0.5,2.083,1.3,2.649c0.767,0.566,1.75,0.684,2.95,0.351L127.3,148.55z M126.75,144.5
	c1.067,1.066,1.9,2.233,2.5,3.5l1.5-0.4c-0.668-1.533-1.651-2.949-2.951-4.25c-2.367-2.366-5.167-3.666-8.4-3.899l0.1,1.55
	C122.267,141.267,124.684,142.434,126.75,144.5z M124.9,152.3c-1.133,0.4-1.85,1.084-2.15,2.05c-0.3,0.934-0.133,1.9,0.5,2.9
	l1.9,2.95l0.2-0.2c1.967-1.967,2.95-4.316,2.95-7.05l-0.15-1.9L124.9,152.3z M130.05,150.35l0.25,2.601
	c0,3.267-1.183,6.083-3.55,8.45l-0.5,0.5l0.85,1.25l0.7-0.7c2.634-2.634,3.951-5.816,3.951-9.55l-0.301-3.101L130.05,150.35z
	 M133.3,149.1c0.301,1.2,0.451,2.467,0.451,3.801c0,4.3-1.518,7.949-4.551,10.949l-1.049,1l-1.65,1.2
	c-2.167,1.434-4.617,2.217-7.35,2.351h-1.8c-2.733-0.134-5.183-0.917-7.35-2.351l-1.65-1.2l-1.1-1c-3-3-4.5-6.649-4.5-10.949
	c0-1.334,0.15-2.601,0.45-3.801l0.65-2c0.733-1.899,1.867-3.633,3.4-5.199c2.8-2.768,6.117-4.25,9.95-4.45h2.1
	c3.833,0.2,7.133,1.683,9.899,4.45c1.567,1.566,2.735,3.3,3.5,5.199L133.3,149.1z M118.25,157.65c-0.966,0-1.833,0.466-2.6,1.399
	l-2.15,2.7c1.434,0.8,3.034,1.2,4.8,1.2c1.7,0,3.25-0.367,4.65-1.101l0.1-0.05l-2.2-2.75
	C120.083,158.116,119.217,157.65,118.25,157.65z M124.3,163.35l-0.45,0.25c-1.667,0.9-3.517,1.351-5.55,1.351
	c-2.233,0-4.25-0.55-6.05-1.65l-1,1.2c1.8,1.1,3.817,1.733,6.05,1.9h1.95c2.2-0.167,4.2-0.801,6-1.9L124.3,163.35z M105.1,149.8
	c-0.233,1-0.35,2.033-0.35,3.101c0,3.733,1.317,6.916,3.95,9.55l0.75,0.7l0.85-1.301l-0.45-0.449c-2.367-2.367-3.55-5.184-3.55-8.45
	l0.3-2.55L105.1,149.8z M107.35,148.05c0.6-1.3,1.434-2.483,2.5-3.55c2.033-2.066,4.434-3.217,7.2-3.45l0.05-1.6
	c-3.233,0.233-6.033,1.533-8.4,3.899c-1.3,1.301-2.267,2.717-2.9,4.25L107.35,148.05z M116.95,143.05
	c-2.167,0.267-4.067,1.217-5.7,2.851c-0.8,0.8-1.45,1.683-1.95,2.649l3.2,0.851c1.2,0.333,2.184,0.216,2.95-0.351
	c0.8-0.566,1.233-1.45,1.3-2.649L116.95,143.05z M108.45,151.1l-0.15,1.851c0,2.733,0.983,5.083,2.95,7.05l0.15,0.15l1.85-2.9
	c0.633-1,0.8-1.967,0.5-2.9c-0.3-0.966-1.017-1.649-2.15-2.05L108.45,151.1z"/>
<use xlink:href="#Symbol_18"  width="86.95" height="88.25" x="-43.475" y="-44.125" transform="matrix(-1 0 0 -1 58.2002 152.9004)" overflow="visible"/>
<use xlink:href="#Symbol_20"  width="6" height="6" x="-3" y="-3" transform="matrix(2.5 0 0 -2.5 58.2002 152.9004)" overflow="visible"/>
<use xlink:href="#Symbol_18"  width="86.95" height="88.25" x="-43.475" y="-44.125" transform="matrix(1 0 0 -1 208.2002 152.9004)" overflow="visible"/>
<use xlink:href="#Symbol_20"  width="6" height="6" x="-3" y="-3" transform="matrix(1 0 0 -1 208.2002 152.9004)" overflow="visible"/>
<g>
	<g>
		<path fill-rule="evenodd" clip-rule="evenodd" fill="#999999" d="M57.9,93.1l-0.1-1.3c-0.133-1.133-0.417-2.117-0.85-2.95
			c-1.267-2.767-3.817-3.817-7.65-3.15c-3.8,0.6-7.184,1.45-10.15,2.55c-2.967,1.167-8.067,2.95-15.3,5.35l-0.35-0.9l9.8-11.95
			l25.05-10.2c0.4-0.167,0.867-0.167,1.4,0c0.967,0.2,1.667,1.05,2.1,2.55L66,85c2.3,6.4,3.2,12.367,2.7,17.9
			c0.4-2.4,0.75-3.917,1.05-4.55l0.45-4l-0.1-3.05l-7-21.95c-0.367-1.467-1.083-2.317-2.15-2.55l-1.35,0.05L34.6,77L22.95,91.15
			L22,88.55l0.85-1.05l3.65-4.65l4.2-5.4l2.4-3.1L60.65,62.9c2.566,0.067,4.15,1.117,4.75,3.15l7.35,23.8
			c1.133,2.7,1.233,5.417,0.3,8.15l-5.45,23.4h-5c-3.533,0.033-5.167-1.484-4.9-4.551L57.9,93.1z M9.7,20.7l-3.85-0.05H1.8
			L0.65,20.6l0.2-19.45l4.2,2.3c2.2,1.066,3.767,3.05,4.7,5.95l1.35,11.3H9.7z M2.3,25.45l4.65,1.05l3.85,0.8l0.85,0.3
			c1.867,0.333,3.383,1.617,4.55,3.85L33.15,66.3l-1.95,2.3L14.4,34.2c-1.1-2.233-2.617-3.534-4.55-3.9l-8.1-1.8L0.6,25.1L2.3,25.45
			z M27.75,72.35L24,76.65l-3.45,3.95l-0.95,1L3.1,32.45l5.95,1.35c1.9,0.367,3.417,1.65,4.55,3.85l16,32.7L27.75,72.35z M53.9,93.9
			l-8.5,1.75l-3.25,5.9l-14.8,2.05l-1.6-4.45c3.167-1.533,7.733-3.533,13.7-6c6-2.433,9.783-3.566,11.35-3.4
			C52.367,89.883,53.4,91.267,53.9,93.9z"/>
		<path fill-rule="evenodd" clip-rule="evenodd" fill="#666666" d="M23.5,92.7l-0.55-1.55L34.6,77l25-10.15l1.35-0.05
			c1.067,0.233,1.783,1.083,2.15,2.55l7,21.95l0.1,3.05l-0.45,4c-0.3,0.633-0.65,2.15-1.05,4.55c0.5-5.533-0.4-11.5-2.7-17.9
			l-4.15-11.9c-0.433-1.5-1.133-2.35-2.1-2.55c-0.533-0.167-1-0.167-1.4,0L33.3,80.75L23.5,92.7z M29.6,70.35l-16-32.7
			c-1.133-2.2-2.65-3.483-4.55-3.85L3.1,32.45L1.75,28.5l8.1,1.8c1.934,0.367,3.45,1.667,4.55,3.9l16.8,34.4L29.6,70.35z"/>
		<path fill-rule="evenodd" clip-rule="evenodd" fill="#808080" d="M53.9,93.9c-0.5-2.633-1.534-4.017-3.1-4.15
			c-1.567-0.167-5.35,0.967-11.35,3.4c-5.967,2.467-10.533,4.467-13.7,6l-1.9-5.55c7.233-2.4,12.333-4.184,15.3-5.35
			c2.966-1.1,6.35-1.95,10.15-2.55c3.833-0.667,6.383,0.383,7.65,3.15c0.433,0.833,0.717,1.816,0.85,2.95l0.1,1.3l-3.95,0.8H53.9z"
			/>
		<path fill-rule="evenodd" clip-rule="evenodd" fill="#996699" d="M25.25,79.75l3.7-5.3l1.75,3l-4.2,5.4L25.25,79.75z M10.8,27.3
			l-3.85-0.8l-0.7-4L10,22.55L10.8,27.3z"/>
		<path fill-rule="evenodd" clip-rule="evenodd" fill="#515151" d="M25.25,79.75l1.25,3.1l-3.65,4.65l-2.3-6.9L24,76.65L25.25,79.75
			z M5.85,20.65l0.4,1.85l0.7,4L2.3,25.45l-0.5-4.8H5.85z"/>
		<path fill-rule="evenodd" clip-rule="evenodd" fill="#604161" d="M6.25,22.5l-0.4-1.85L9.7,20.7l0.3,1.85L6.25,22.5z M28.95,74.45
			l-3.7,5.3L24,76.65l3.75-4.3L28.95,74.45z"/>
	</g>
</g>
<g>
	<g>
		<path fill-rule="evenodd" clip-rule="evenodd" fill="#0066FF" d="M177.501,95.944l0.199-0.2l-3.699-10.405H100.4l18.1,62.882
			l-0.15,0.05l0.4,1.45c1.2,0.067,2.217,0.518,3.05,1.352l0.15,0.149l56-53.977L177.501,95.944z M53.95,154.073
			c0-1.301,0.45-2.418,1.35-3.352c0.9-0.867,1.983-1.317,3.25-1.351l38-65.833l-0.35-1.301l0.1-0.2l-3.1-11.206l-0.05-0.05
			l-0.4-1.451h3l3.5,12.006l-0.15,0.05l0.4,1.451h73.3l-0.549-1.501h5.148l4.951,15.058L122.9,153.723
			c-0.167,0.968-0.617,1.801-1.35,2.502c-0.9,0.934-2,1.4-3.3,1.4s-2.417-0.467-3.35-1.4l-0.7-0.9l-51.1-2.702
			c0,1.268-0.467,2.352-1.4,3.252c-0.9,0.935-2,1.4-3.3,1.4c-1.3,0-2.417-0.466-3.35-1.4c-0.5-0.5-0.867-1.066-1.1-1.7V154.073z
			 M62.4,149.821l-0.5,0.851l0.6,0.65l51.35,2.45c0.133-1.033,0.566-1.934,1.3-2.7l0.55-0.451l-0.4-1.4l0.15-0.1l-18.1-62.382
			l-35.7,62.432l0.6,0.65H62.4z"/>
		<path fill-rule="evenodd" clip-rule="evenodd" fill="#70A9FE" d="M118.5,148.221c1.2,0.066,2.217,0.517,3.05,1.351l0.15,0.149
			l55.801-53.777l0.449,1.301l-56,53.977l-0.15-0.149c-0.833-0.834-1.85-1.284-3.05-1.352l-0.4-1.45L118.5,148.221z M96.2,82.237
			l0.35,1.301l-38,65.833c-1.267,0.033-2.35,0.483-3.25,1.351c-0.9,0.934-1.35,2.051-1.35,3.352l-0.25-1.501
			c0-1.301,0.45-2.418,1.35-3.352c0.9-0.867,1.983-1.317,3.25-1.351L96.2,82.237z M172.251,81.336l0.549,1.501H99.5l-0.4-1.451
			l0.15-0.05H172.251z M62.4,149.821l51.2,2.451c0.133-1.034,0.566-1.935,1.3-2.701l0.4-0.351l0.4,1.4l-0.55,0.451
			c-0.733,0.767-1.167,1.667-1.3,2.7l-51.35-2.45l-0.6-0.65L62.4,149.821z"/>
	</g>
	<g>
		<path fill-rule="evenodd" clip-rule="evenodd" fill="#333333" d="M79.15,64.478l0.65-3.702l32.5,0.95c1.3,0,1.95,0.35,1.95,1.051
			c0,0.567-0.433,1.551-1.3,2.951c-0.633,1.034-3.467,2.168-8.5,3.402c-2.5,0.633-4.934,1.15-7.3,1.55
			c-1.9,0.367-4.083,0.384-6.55,0.05C85.667,70.031,81.85,67.947,79.15,64.478z"/>
	</g>
	<g>
		<path fill-rule="evenodd" clip-rule="evenodd" fill="#0066FF" d="M188.899,61.377l-13.25,14.607l18.102,55.377
			c1.365,4.803,3.033,8.389,5,10.756l8.648,8.854l0.9-0.2c0.566,0,1.033,0.184,1.4,0.551c0.4,0.399,0.6,0.884,0.6,1.45
			c0,0.534-0.199,1-0.6,1.401c-0.367,0.399-0.834,0.6-1.4,0.6s-1.033-0.2-1.4-0.6c-0.398-0.401-0.6-0.867-0.6-1.401l0.051-0.25
			l-9.6-8.904c-2.301-2.534-4.301-6.286-6-11.256l-20-56.028l16.25-17.509L188.899,61.377z"/>
	</g>
</g>
<g>
	<path fill-rule="evenodd" clip-rule="evenodd" fill="#333333" d="M184.45,59.576c0.801-0.8,1.75-1.2,2.85-1.2s2.033,0.4,2.801,1.2
		c0.799,0.801,1.199,1.751,1.199,2.852s-0.4,2.034-1.199,2.801c-0.768,0.768-1.701,1.151-2.801,1.151s-2.049-0.383-2.85-1.151
		c-0.768-0.767-1.15-1.701-1.15-2.801S183.683,60.376,184.45,59.576z"/>
</g>
<g>
	
		<path fill-rule="evenodd" clip-rule="evenodd" fill="none" stroke="#000000" stroke-width="0.25" stroke-linecap="round" stroke-linejoin="round" stroke-miterlimit="3" stroke-opacity="0.502" d="
		M129.25,141.945c3.067,3.067,4.6,6.736,4.6,11.005s-1.533,7.904-4.6,10.905c-3,3.068-6.634,4.603-10.9,4.603l-59.95-8.004
		c-2.066,0-3.833-0.718-5.3-2.151c-1.467-1.467-2.2-3.251-2.2-5.353c0-2.068,0.733-3.835,2.2-5.303
		c1.467-1.467,3.233-2.201,5.3-2.201l59.95-8.004C122.617,137.442,126.25,138.943,129.25,141.945z"/>
</g>
</svg>
